solid MIKE666
facet normal 2.957195e-15 -5.220944e-01 -8.528877e-01
	outer loop
		vertex 7.318685e-02 1.545937e-02 -2.135673e-01
		vertex 5.802517e-02 5.551115e-17 -2.041038e-01
		vertex 4.841737e-02 0.000000e+00 -2.041038e-01
	endloop
endfacet
facet normal 1.684398e-15 -5.220944e-01 -8.528877e-01
	outer loop
		vertex 4.841737e-02 0.000000e+00 -2.041038e-01
		vertex 7.064308e-02 2.218308e-02 -2.176832e-01
		vertex 7.318685e-02 1.545937e-02 -2.135673e-01
	endloop
endfacet
facet normal -2.604149e-13 5.220944e-01 8.528877e-01
	outer loop
		vertex 7.064308e-02 2.218308e-02 -2.176832e-01
		vertex 7.061151e-02 2.226652e-02 -2.177343e-01
		vertex 4.841737e-02 0.000000e+00 -2.041038e-01
	endloop
endfacet
facet normal 3.439637e-15 5.220944e-01 8.528877e-01
	outer loop
		vertex 7.318685e-02 1.545937e-02 -2.135673e-01
		vertex 5.802517e-02 5.551115e-17 -2.041038e-01
		vertex 7.324136e-02 0.000000e+00 -2.041038e-01
	endloop
endfacet
facet normal 7.196463e-16 5.220944e-01 8.528877e-01
	outer loop
		vertex 7.324136e-02 0.000000e+00 -2.041038e-01
		vertex 7.738181e-02 4.371237e-03 -2.067797e-01
		vertex 7.318685e-02 1.545937e-02 -2.135673e-01
	endloop
endfacet
facet normal 3.693205e-13 -5.220944e-01 -8.528877e-01
	outer loop
		vertex 7.738181e-02 4.371237e-03 -2.067797e-01
		vertex 7.739197e-02 4.344388e-03 -2.067633e-01
		vertex 7.324136e-02 0.000000e+00 -2.041038e-01
	endloop
endfacet
facet normal -1.654440e-16 5.220944e-01 8.528877e-01
	outer loop
		vertex 4.841737e-02 0.000000e+00 -2.041038e-01
		vertex 7.022668e-02 2.328370e-02 -2.183569e-01
		vertex 2.878930e-02 1.328111e-01 -2.854040e-01
	endloop
endfacet
facet normal -1.595902e-14 -5.220944e-01 -8.528877e-01
	outer loop
		vertex 7.022668e-02 2.328370e-02 -2.183569e-01
		vertex 7.061151e-02 2.226652e-02 -2.177343e-01
		vertex 4.841737e-02 0.000000e+00 -2.041038e-01
	endloop
endfacet
facet normal -1.721949e-16 -5.220944e-01 -8.528877e-01
	outer loop
		vertex 7.739197e-02 4.344388e-03 -2.067633e-01
		vertex 7.903558e-02 5.375531e-17 -2.041038e-01
		vertex 7.324136e-02 5.551115e-17 -2.041038e-01
	endloop
endfacet
facet normal -1.582120e-16 -5.220944e-01 8.528877e-01
	outer loop
		vertex 7.324136e-02 5.551115e-17 -2.041038e-01
		vertex 7.903558e-02 5.375531e-17 -2.041038e-01
		vertex 1.170500e-01 1.004797e-01 -1.425953e-01
	endloop
endfacet
facet normal 0.000000e+00 -5.220944e-01 8.528877e-01
	outer loop
		vertex -1.136123e-01 9.139340e-02 -1.481575e-01
		vertex -7.903558e-02 0.000000e+00 -2.041038e-01
		vertex 4.841737e-02 0.000000e+00 -2.041038e-01
	endloop
endfacet
facet normal 4.695352e-15 5.220944e-01 8.528877e-01
	outer loop
		vertex -4.696948e-02 8.475720e-02 -2.559879e-01
		vertex -4.940790e-02 7.831196e-02 -2.520424e-01
		vertex 2.635448e-02 1.392468e-01 -2.893436e-01
	endloop
endfacet
facet normal -2.342449e-15 5.220944e-01 8.528877e-01
	outer loop
		vertex -5.175218e-02 7.211555e-02 -2.482493e-01
		vertex 2.866316e-02 1.331445e-01 -2.856081e-01
		vertex 2.635448e-02 1.392468e-01 -2.893436e-01
	endloop
endfacet
facet normal 2.264993e-15 5.220944e-01 8.528877e-01
	outer loop
		vertex 2.635448e-02 1.392468e-01 -2.893436e-01
		vertex -4.940790e-02 7.831196e-02 -2.520424e-01
		vertex -5.175218e-02 7.211555e-02 -2.482493e-01
	endloop
endfacet
facet normal -6.430747e-14 -5.220944e-01 -8.528877e-01
	outer loop
		vertex -5.175218e-02 7.211555e-02 -2.482493e-01
		vertex 2.866316e-02 1.331445e-01 -2.856081e-01
		vertex 2.878930e-02 1.328111e-01 -2.854040e-01
	endloop
endfacet
facet normal 9.870579e-14 5.220944e-01 8.528877e-01
	outer loop
		vertex 2.878930e-02 1.328111e-01 -2.854040e-01
		vertex -5.175218e-02 7.211555e-02 -2.482493e-01
		vertex -5.187529e-02 7.179014e-02 -2.480501e-01
	endloop
endfacet
facet normal 0.000000e+00 -5.220944e-01 -8.528877e-01
	outer loop
		vertex -5.187529e-02 7.179014e-02 -2.480501e-01
		vertex 2.878930e-02 1.328111e-01 -2.854040e-01
		vertex 4.841737e-02 0.000000e+00 -2.041038e-01
	endloop
endfacet
facet normal -0.000000e+00 -5.220944e-01 -8.528877e-01
	outer loop
		vertex 4.841737e-02 0.000000e+00 -2.041038e-01
		vertex -7.903558e-02 0.000000e+00 -2.041038e-01
		vertex -5.187529e-02 7.179014e-02 -2.480501e-01
	endloop
endfacet
facet normal -3.435695e-16 -5.220944e-01 8.528877e-01
	outer loop
		vertex 1.269720e-01 1.267057e-01 -1.265411e-01
		vertex 1.103365e-01 1.369870e-01 -1.202474e-01
		vertex 1.170500e-01 1.004797e-01 -1.425953e-01
	endloop
endfacet
facet normal 0.000000e+00 0.000000e+00 0.000000e+00
	outer loop
		vertex 1.269720e-01 1.267057e-01 -1.265411e-01
		vertex 1.103365e-01 1.369870e-01 -1.202474e-01
		vertex 1.103365e-01 1.369870e-01 -1.202474e-01
	endloop
endfacet
facet normal 8.506508e-01 0.000000e+00 -5.257311e-01
	outer loop
		vertex 5.188600e-02 1.731114e-01 -2.480328e-01
		vertex 7.318685e-02 1.545937e-02 -2.135673e-01
		vertex 7.064308e-02 2.218308e-02 -2.176832e-01
	endloop
endfacet
facet normal 8.506508e-01 -3.200321e-16 -5.257311e-01
	outer loop
		vertex 7.064308e-02 2.218308e-02 -2.176832e-01
		vertex 5.060774e-02 1.739014e-01 -2.501010e-01
		vertex 5.188600e-02 1.731114e-01 -2.480328e-01
	endloop
endfacet
facet normal 5.257311e-01 8.506508e-01 1.127010e-14
	outer loop
		vertex 5.188600e-02 1.731114e-01 -2.480328e-01
		vertex 5.060774e-02 1.739014e-01 -2.501010e-01
		vertex 1.103365e-01 1.369870e-01 -1.202474e-01
	endloop
endfacet
facet normal -8.506508e-01 2.053471e-14 5.257311e-01
	outer loop
		vertex 5.060774e-02 1.739014e-01 -2.501010e-01
		vertex 5.039561e-02 1.740325e-01 -2.504443e-01
		vertex 7.064308e-02 2.218308e-02 -2.176832e-01
	endloop
endfacet
facet normal 5.257311e-01 8.506508e-01 4.442819e-13
	outer loop
		vertex 5.060774e-02 1.739014e-01 -2.501010e-01
		vertex 5.039561e-02 1.740325e-01 -2.504443e-01
		vertex 1.103365e-01 1.369870e-01 -1.202474e-01
	endloop
endfacet
facet normal 8.506508e-01 -2.937829e-13 -5.257311e-01
	outer loop
		vertex 5.039561e-02 1.740325e-01 -2.504443e-01
		vertex 7.064308e-02 2.218308e-02 -2.176832e-01
		vertex 7.061151e-02 2.226652e-02 -2.177343e-01
	endloop
endfacet
facet normal 8.506508e-01 -3.862042e-13 -5.257311e-01
	outer loop
		vertex 7.061151e-02 2.226652e-02 -2.177343e-01
		vertex 5.037971e-02 1.740423e-01 -2.504700e-01
		vertex 5.039561e-02 1.740325e-01 -2.504443e-01
	endloop
endfacet
facet normal 5.257311e-01 8.506508e-01 9.419335e-13
	outer loop
		vertex 5.039561e-02 1.740325e-01 -2.504443e-01
		vertex 5.037971e-02 1.740423e-01 -2.504700e-01
		vertex 1.103365e-01 1.369870e-01 -1.202474e-01
	endloop
endfacet
facet normal -8.506508e-01 -8.390178e-13 5.257311e-01
	outer loop
		vertex 5.037971e-02 1.740423e-01 -2.504700e-01
		vertex 5.037700e-02 1.740440e-01 -2.504744e-01
		vertex 7.061151e-02 2.226652e-02 -2.177343e-01
	endloop
endfacet
facet normal 5.257311e-01 8.506508e-01 1.278950e-11
	outer loop
		vertex 5.037971e-02 1.740423e-01 -2.504700e-01
		vertex 5.037700e-02 1.740440e-01 -2.504744e-01
		vertex 1.103365e-01 1.369870e-01 -1.202474e-01
	endloop
endfacet
facet normal -8.506508e-01 0.000000e+00 5.257311e-01
	outer loop
		vertex 5.188600e-02 1.731114e-01 -2.480328e-01
		vertex 7.318685e-02 1.545937e-02 -2.135673e-01
		vertex 7.738181e-02 4.371237e-03 -2.067797e-01
	endloop
endfacet
facet normal -8.506508e-01 -1.089970e-15 5.257311e-01
	outer loop
		vertex 7.738181e-02 4.371237e-03 -2.067797e-01
		vertex 5.393701e-02 1.718438e-01 -2.447142e-01
		vertex 5.188600e-02 1.731114e-01 -2.480328e-01
	endloop
endfacet
facet normal -5.257311e-01 -8.506508e-01 -2.166404e-14
	outer loop
		vertex 5.188600e-02 1.731114e-01 -2.480328e-01
		vertex 5.393701e-02 1.718438e-01 -2.447142e-01
		vertex 1.103365e-01 1.369870e-01 -1.202474e-01
	endloop
endfacet
facet normal 8.506508e-01 -3.419142e-15 -5.257311e-01
	outer loop
		vertex 5.393701e-02 1.718438e-01 -2.447142e-01
		vertex 5.430479e-02 1.716165e-01 -2.441191e-01
		vertex 7.738181e-02 4.371237e-03 -2.067797e-01
	endloop
endfacet
facet normal -5.257311e-01 -8.506508e-01 -3.781356e-13
	outer loop
		vertex 5.393701e-02 1.718438e-01 -2.447142e-01
		vertex 5.430479e-02 1.716165e-01 -2.441191e-01
		vertex 1.103365e-01 1.369870e-01 -1.202474e-01
	endloop
endfacet
facet normal -8.506508e-01 -4.225146e-13 5.257311e-01
	outer loop
		vertex 5.430479e-02 1.716165e-01 -2.441191e-01
		vertex 7.738181e-02 4.371237e-03 -2.067797e-01
		vertex 7.739197e-02 4.344388e-03 -2.067633e-01
	endloop
endfacet
facet normal -8.506508e-01 -6.772579e-13 5.257311e-01
	outer loop
		vertex 7.739197e-02 4.344388e-03 -2.067633e-01
		vertex 5.430974e-02 1.716134e-01 -2.441111e-01
		vertex 5.430479e-02 1.716165e-01 -2.441191e-01
	endloop
endfacet
facet normal -5.257311e-01 -8.506508e-01 -1.237081e-12
	outer loop
		vertex 5.430479e-02 1.716165e-01 -2.441191e-01
		vertex 5.430974e-02 1.716134e-01 -2.441111e-01
		vertex 1.103365e-01 1.369870e-01 -1.202474e-01
	endloop
endfacet
facet normal 8.506508e-01 2.638283e-12 -5.257311e-01
	outer loop
		vertex 5.430974e-02 1.716134e-01 -2.441111e-01
		vertex 5.431059e-02 1.716129e-01 -2.441097e-01
		vertex 7.739197e-02 4.344388e-03 -2.067633e-01
	endloop
endfacet
facet normal -5.257311e-01 -8.506508e-01 1.367470e-10
	outer loop
		vertex 5.430974e-02 1.716134e-01 -2.441111e-01
		vertex 5.431059e-02 1.716129e-01 -2.441097e-01
		vertex 1.103365e-01 1.369870e-01 -1.202474e-01
	endloop
endfacet
facet normal -8.506508e-01 -1.102489e-15 5.257311e-01
	outer loop
		vertex 2.119246e-02 1.920810e-01 -2.976960e-01
		vertex 2.635448e-02 1.392468e-01 -2.893436e-01
		vertex 2.866316e-02 1.331445e-01 -2.856081e-01
	endloop
endfacet
facet normal -8.506508e-01 -1.276137e-15 5.257311e-01
	outer loop
		vertex 2.866316e-02 1.331445e-01 -2.856081e-01
		vertex 2.263145e-02 1.911917e-01 -2.953676e-01
		vertex 2.119246e-02 1.920810e-01 -2.976960e-01
	endloop
endfacet
facet normal -5.257311e-01 -8.506508e-01 2.339964e-14
	outer loop
		vertex 2.119246e-02 1.920810e-01 -2.976960e-01
		vertex 2.263145e-02 1.911917e-01 -2.953676e-01
		vertex 1.103365e-01 1.369870e-01 -1.202474e-01
	endloop
endfacet
facet normal 8.506508e-01 1.096717e-14 -5.257311e-01
	outer loop
		vertex 2.263145e-02 1.911917e-01 -2.953676e-01
		vertex 2.288486e-02 1.910351e-01 -2.949576e-01
		vertex 2.866316e-02 1.331445e-01 -2.856081e-01
	endloop
endfacet
facet normal -5.257311e-01 -8.506508e-01 -1.854477e-13
	outer loop
		vertex 2.263145e-02 1.911917e-01 -2.953676e-01
		vertex 2.288486e-02 1.910351e-01 -2.949576e-01
		vertex 1.103365e-01 1.369870e-01 -1.202474e-01
	endloop
endfacet
facet normal -8.506508e-01 6.626812e-15 5.257311e-01
	outer loop
		vertex 2.288486e-02 1.910351e-01 -2.949576e-01
		vertex 2.866316e-02 1.331445e-01 -2.856081e-01
		vertex 2.878930e-02 1.328111e-01 -2.854040e-01
	endloop
endfacet
facet normal -8.506508e-01 7.442123e-15 5.257311e-01
	outer loop
		vertex 2.878930e-02 1.328111e-01 -2.854040e-01
		vertex 2.296380e-02 1.909863e-01 -2.948299e-01
		vertex 2.288486e-02 1.910351e-01 -2.949576e-01
	endloop
endfacet
facet normal -5.257311e-01 -8.506508e-01 -2.333339e-13
	outer loop
		vertex 2.288486e-02 1.910351e-01 -2.949576e-01
		vertex 2.296380e-02 1.909863e-01 -2.948299e-01
		vertex 1.103365e-01 1.369870e-01 -1.202474e-01
	endloop
endfacet
facet normal 8.506508e-01 -1.811990e-13 -5.257311e-01
	outer loop
		vertex 2.296380e-02 1.909863e-01 -2.948299e-01
		vertex 2.297673e-02 1.909783e-01 -2.948090e-01
		vertex 2.878930e-02 1.328111e-01 -2.854040e-01
	endloop
endfacet
facet normal -5.257311e-01 -8.506508e-01 -3.056678e-12
	outer loop
		vertex 2.296380e-02 1.909863e-01 -2.948299e-01
		vertex 2.297673e-02 1.909783e-01 -2.948090e-01
		vertex 1.103365e-01 1.369870e-01 -1.202474e-01
	endloop
endfacet
facet normal -8.506508e-01 -2.731632e-16 5.257311e-01
	outer loop
		vertex 2.297673e-02 1.909783e-01 -2.948090e-01
		vertex 2.878930e-02 1.328111e-01 -2.854040e-01
		vertex 7.022668e-02 2.328370e-02 -2.183569e-01
	endloop
endfacet
facet normal -8.506508e-01 -8.317530e-17 5.257311e-01
	outer loop
		vertex 7.022668e-02 2.328370e-02 -2.183569e-01
		vertex 4.276980e-02 1.787455e-01 -2.627831e-01
		vertex 2.297673e-02 1.909783e-01 -2.948090e-01
	endloop
endfacet
facet normal -5.257311e-01 -8.506508e-01 -2.806106e-16
	outer loop
		vertex 2.297673e-02 1.909783e-01 -2.948090e-01
		vertex 4.276980e-02 1.787455e-01 -2.627831e-01
		vertex 1.103365e-01 1.369870e-01 -1.202474e-01
	endloop
endfacet
facet normal 8.506508e-01 -8.365195e-17 -5.257311e-01
	outer loop
		vertex 4.276980e-02 1.787455e-01 -2.627831e-01
		vertex 5.014991e-02 1.741843e-01 -2.508418e-01
		vertex 7.022668e-02 2.328370e-02 -2.183569e-01
	endloop
endfacet
facet normal -5.257311e-01 -8.506508e-01 1.618054e-14
	outer loop
		vertex 4.276980e-02 1.787455e-01 -2.627831e-01
		vertex 5.014991e-02 1.741843e-01 -2.508418e-01
		vertex 1.103365e-01 1.369870e-01 -1.202474e-01
	endloop
endfacet
facet normal -8.506508e-01 -3.027968e-14 5.257311e-01
	outer loop
		vertex 5.014991e-02 1.741843e-01 -2.508418e-01
		vertex 7.022668e-02 2.328370e-02 -2.183569e-01
		vertex 7.061151e-02 2.226652e-02 -2.177343e-01
	endloop
endfacet
facet normal -8.506508e-01 -3.589742e-14 5.257311e-01
	outer loop
		vertex 7.061151e-02 2.226652e-02 -2.177343e-01
		vertex 5.034373e-02 1.740646e-01 -2.505282e-01
		vertex 5.014991e-02 1.741843e-01 -2.508418e-01
	endloop
endfacet
facet normal -5.257311e-01 -8.506508e-01 -1.244761e-13
	outer loop
		vertex 5.014991e-02 1.741843e-01 -2.508418e-01
		vertex 5.034373e-02 1.740646e-01 -2.505282e-01
		vertex 1.103365e-01 1.369870e-01 -1.202474e-01
	endloop
endfacet
facet normal 8.506508e-01 -3.577954e-14 -5.257311e-01
	outer loop
		vertex 5.034373e-02 1.740646e-01 -2.505282e-01
		vertex 5.037700e-02 1.740440e-01 -2.504744e-01
		vertex 7.061151e-02 2.226652e-02 -2.177343e-01
	endloop
endfacet
facet normal -5.257311e-01 -8.506508e-01 2.257406e-12
	outer loop
		vertex 5.034373e-02 1.740646e-01 -2.505282e-01
		vertex 5.037700e-02 1.740440e-01 -2.504744e-01
		vertex 1.103365e-01 1.369870e-01 -1.202474e-01
	endloop
endfacet
facet normal -8.506508e-01 -6.527352e-16 5.257311e-01
	outer loop
		vertex 5.431059e-02 1.716129e-01 -2.441097e-01
		vertex 7.739197e-02 4.344388e-03 -2.067633e-01
		vertex 7.903558e-02 5.375531e-17 -2.041038e-01
	endloop
endfacet
facet normal -8.506508e-01 -1.374364e-15 5.257311e-01
	outer loop
		vertex 7.903558e-02 5.375531e-17 -2.041038e-01
		vertex 5.510646e-02 1.711210e-01 -2.428220e-01
		vertex 5.431059e-02 1.716129e-01 -2.441097e-01
	endloop
endfacet
facet normal -5.257311e-01 -8.506508e-01 5.572020e-14
	outer loop
		vertex 5.431059e-02 1.716129e-01 -2.441097e-01
		vertex 5.510646e-02 1.711210e-01 -2.428220e-01
		vertex 1.103365e-01 1.369870e-01 -1.202474e-01
	endloop
endfacet
facet normal 8.506508e-01 -5.705758e-15 -5.257311e-01
	outer loop
		vertex 5.510646e-02 1.711210e-01 -2.428220e-01
		vertex 5.524525e-02 1.710353e-01 -2.425974e-01
		vertex 7.903558e-02 5.375531e-17 -2.041038e-01
	endloop
endfacet
facet normal -5.257311e-01 -8.506508e-01 8.754230e-14
	outer loop
		vertex 5.510646e-02 1.711210e-01 -2.428220e-01
		vertex 5.524525e-02 1.710353e-01 -2.425974e-01
		vertex 1.103365e-01 1.369870e-01 -1.202474e-01
	endloop
endfacet
facet normal 8.506508e-01 -1.016044e-16 -5.257311e-01
	outer loop
		vertex 1.096348e-01 1.374207e-01 -1.545932e-01
		vertex 1.269720e-01 1.267057e-01 -1.265411e-01
		vertex 1.170500e-01 1.004797e-01 -1.425953e-01
	endloop
endfacet
facet normal -5.257311e-01 -8.506508e-01 -1.401576e-16
	outer loop
		vertex 1.096348e-01 1.374207e-01 -1.545932e-01
		vertex 1.269720e-01 1.267057e-01 -1.265411e-01
		vertex 1.103365e-01 1.369870e-01 -1.202474e-01
	endloop
endfacet
facet normal 8.506508e-01 1.325974e-16 -5.257311e-01
	outer loop
		vertex 1.096348e-01 1.374207e-01 -1.545932e-01
		vertex 1.170500e-01 1.004797e-01 -1.425953e-01
		vertex 7.903558e-02 5.375531e-17 -2.041038e-01
	endloop
endfacet
facet normal 8.506508e-01 9.467548e-17 -5.257311e-01
	outer loop
		vertex 7.903558e-02 5.375531e-17 -2.041038e-01
		vertex 5.957009e-02 1.683624e-01 -2.355997e-01
		vertex 1.096348e-01 1.374207e-01 -1.545932e-01
	endloop
endfacet
facet normal 5.257311e-01 8.506508e-01 1.473413e-16
	outer loop
		vertex 1.096348e-01 1.374207e-01 -1.545932e-01
		vertex 5.957009e-02 1.683624e-01 -2.355997e-01
		vertex 1.103365e-01 1.369870e-01 -1.202474e-01
	endloop
endfacet
facet normal -8.506508e-01 -2.739931e-16 5.257311e-01
	outer loop
		vertex 5.957009e-02 1.683624e-01 -2.355997e-01
		vertex 5.524525e-02 1.710353e-01 -2.425974e-01
		vertex 7.903558e-02 5.375531e-17 -2.041038e-01
	endloop
endfacet
facet normal 5.257311e-01 8.506508e-01 -9.792362e-15
	outer loop
		vertex 5.957009e-02 1.683624e-01 -2.355997e-01
		vertex 5.524525e-02 1.710353e-01 -2.425974e-01
		vertex 1.103365e-01 1.369870e-01 -1.202474e-01
	endloop
endfacet
facet normal -8.506508e-01 1.631650e-16 5.257311e-01
	outer loop
		vertex 2.119246e-02 1.920810e-01 -2.976960e-01
		vertex 1.841001e-03 2.040409e-01 -3.290073e-01
		vertex 2.635448e-02 1.392468e-01 -2.893436e-01
	endloop
endfacet
facet normal 5.257311e-01 8.506508e-01 8.036404e-15
	outer loop
		vertex 2.119246e-02 1.920810e-01 -2.976960e-01
		vertex 1.841001e-03 2.040409e-01 -3.290073e-01
		vertex 1.103365e-01 1.369870e-01 -1.202474e-01
	endloop
endfacet
facet normal 2.880925e-15 5.220944e-01 -8.528877e-01
	outer loop
		vertex -8.530980e-02 1.524543e-01 -1.107791e-01
		vertex -8.087272e-02 1.551966e-01 -1.091004e-01
		vertex 4.841737e-02 0.000000e+00 -2.041038e-01
	endloop
endfacet
facet normal 0.000000e+00 0.000000e+00 0.000000e+00
	outer loop
		vertex -8.530980e-02 1.524543e-01 -1.107791e-01
		vertex -8.087272e-02 1.551966e-01 -1.091004e-01
		vertex -8.087272e-02 1.551966e-01 -1.091004e-01
	endloop
endfacet
facet normal 2.976714e-15 -5.220944e-01 8.528877e-01
	outer loop
		vertex -8.087272e-02 1.551966e-01 -1.091004e-01
		vertex 4.841737e-02 0.000000e+00 -2.041038e-01
		vertex 5.802517e-02 5.551115e-17 -2.041038e-01
	endloop
endfacet
facet normal 2.198967e-15 -5.220944e-01 8.528877e-01
	outer loop
		vertex 5.802517e-02 5.551115e-17 -2.041038e-01
		vertex -7.808138e-02 1.569218e-01 -1.080443e-01
		vertex -8.087272e-02 1.551966e-01 -1.091004e-01
	endloop
endfacet
facet normal 4.404377e-01 -1.734161e-01 -8.808754e-01
	outer loop
		vertex -8.087272e-02 1.551966e-01 -1.091004e-01
		vertex -7.808138e-02 1.569218e-01 -1.080443e-01
		vertex -8.087272e-02 1.551966e-01 -1.091004e-01
	endloop
endfacet
facet normal -1.539676e-14 -5.220944e-01 8.528877e-01
	outer loop
		vertex -7.770997e-02 1.571513e-01 -1.079038e-01
		vertex -7.808138e-02 1.569218e-01 -1.080443e-01
		vertex 5.802517e-02 5.551115e-17 -2.041038e-01
	endloop
endfacet
facet normal -4.098037e-01 1.084774e-01 9.057006e-01
	outer loop
		vertex -7.770997e-02 1.571513e-01 -1.079038e-01
		vertex -7.808138e-02 1.569218e-01 -1.080443e-01
		vertex -8.087272e-02 1.551966e-01 -1.091004e-01
	endloop
endfacet
facet normal -8.488673e-14 5.220944e-01 -8.528877e-01
	outer loop
		vertex -7.770997e-02 1.571513e-01 -1.079038e-01
		vertex -7.752192e-02 1.572675e-01 -1.078327e-01
		vertex 5.802517e-02 5.551115e-17 -2.041038e-01
	endloop
endfacet
facet normal -4.781530e-01 8.654546e-01 -1.495263e-01
	outer loop
		vertex -7.770997e-02 1.571513e-01 -1.079038e-01
		vertex -7.752192e-02 1.572675e-01 -1.078327e-01
		vertex -8.087272e-02 1.551966e-01 -1.091004e-01
	endloop
endfacet
facet normal 1.000368e-15 -5.220944e-01 8.528877e-01
	outer loop
		vertex -6.498981e-02 1.650128e-01 -1.030914e-01
		vertex -7.237159e-02 1.604506e-01 -1.058842e-01
		vertex 7.324136e-02 0.000000e+00 -2.041038e-01
	endloop
endfacet
facet normal -4.273204e-01 1.486332e-01 8.917990e-01
	outer loop
		vertex -6.498981e-02 1.650128e-01 -1.030914e-01
		vertex -7.237159e-02 1.604506e-01 -1.058842e-01
		vertex -8.087272e-02 1.551966e-01 -1.091004e-01
	endloop
endfacet
facet normal 0.000000e+00 5.220944e-01 -8.528877e-01
	outer loop
		vertex -7.237159e-02 1.604506e-01 -1.058842e-01
		vertex 7.324136e-02 0.000000e+00 -2.041038e-01
		vertex 5.802517e-02 5.551115e-17 -2.041038e-01
	endloop
endfacet
facet normal 0.000000e+00 5.220944e-01 -8.528877e-01
	outer loop
		vertex 5.802517e-02 5.551115e-17 -2.041038e-01
		vertex -7.677652e-02 1.577282e-01 -1.075507e-01
		vertex -7.237159e-02 1.604506e-01 -1.058842e-01
	endloop
endfacet
facet normal -5.393399e-01 8.398292e-01 6.163884e-02
	outer loop
		vertex -7.237159e-02 1.604506e-01 -1.058842e-01
		vertex -7.677652e-02 1.577282e-01 -1.075507e-01
		vertex -8.087272e-02 1.551966e-01 -1.091004e-01
	endloop
endfacet
facet normal 1.344806e-14 5.220944e-01 -8.528877e-01
	outer loop
		vertex -7.724187e-02 1.574406e-01 -1.077267e-01
		vertex -7.677652e-02 1.577282e-01 -1.075507e-01
		vertex 5.802517e-02 5.551115e-17 -2.041038e-01
	endloop
endfacet
facet normal 5.369540e-01 -8.425274e-01 -4.275512e-02
	outer loop
		vertex -7.724187e-02 1.574406e-01 -1.077267e-01
		vertex -7.677652e-02 1.577282e-01 -1.075507e-01
		vertex -8.087272e-02 1.551966e-01 -1.091004e-01
	endloop
endfacet
facet normal -1.134396e-14 -5.220944e-01 8.528877e-01
	outer loop
		vertex -7.724187e-02 1.574406e-01 -1.077267e-01
		vertex -7.752192e-02 1.572675e-01 -1.078327e-01
		vertex 5.802517e-02 5.551115e-17 -2.041038e-01
	endloop
endfacet
facet normal -1.481911e-01 6.797291e-01 -7.183368e-01
	outer loop
		vertex -7.724187e-02 1.574406e-01 -1.077267e-01
		vertex -7.752192e-02 1.572675e-01 -1.078327e-01
		vertex -8.087272e-02 1.551966e-01 -1.091004e-01
	endloop
endfacet
facet normal 1.643677e-16 -5.220944e-01 8.528877e-01
	outer loop
		vertex -1.269720e-01 1.267057e-01 -1.265411e-01
		vertex -1.136123e-01 9.139340e-02 -1.481575e-01
		vertex 4.841737e-02 0.000000e+00 -2.041038e-01
	endloop
endfacet
facet normal 4.531524e-16 -5.220944e-01 8.528877e-01
	outer loop
		vertex 4.841737e-02 0.000000e+00 -2.041038e-01
		vertex -8.530980e-02 1.524543e-01 -1.107791e-01
		vertex -1.269720e-01 1.267057e-01 -1.265411e-01
	endloop
endfacet
facet normal 3.257133e-01 -8.017558e-01 5.010974e-01
	outer loop
		vertex -1.269720e-01 1.267057e-01 -1.265411e-01
		vertex -8.530980e-02 1.524543e-01 -1.107791e-01
		vertex -8.087272e-02 1.551966e-01 -1.091004e-01
	endloop
endfacet
facet normal 0.000000e+00 0.000000e+00 0.000000e+00
	outer loop
		vertex -1.269720e-01 1.267057e-01 -1.265411e-01
		vertex -1.269720e-01 1.267057e-01 -1.265411e-01
		vertex -1.136123e-01 9.139340e-02 -1.481575e-01
	endloop
endfacet
facet normal 0.000000e+00 0.000000e+00 0.000000e+00
	outer loop
		vertex -1.269720e-01 1.267057e-01 -1.265411e-01
		vertex -1.269720e-01 1.267057e-01 -1.265411e-01
		vertex -8.087272e-02 1.551966e-01 -1.091004e-01
	endloop
endfacet
facet normal 9.287014e-01 1.658395e-01 3.316791e-01
	outer loop
		vertex -1.269720e-01 1.267057e-01 -1.265411e-01
		vertex -1.136123e-01 9.139340e-02 -1.481575e-01
		vertex -7.903558e-02 0.000000e+00 -2.041038e-01
	endloop
endfacet
facet normal -8.944272e-01 0.000000e+00 -4.472136e-01
	outer loop
		vertex -7.903558e-02 0.000000e+00 -2.041038e-01
		vertex -1.269720e-01 1.267057e-01 -1.265411e-01
		vertex -1.269720e-01 1.267057e-01 -1.265411e-01
	endloop
endfacet
facet normal 9.428090e-01 2.357023e-01 2.357023e-01
	outer loop
		vertex -1.269720e-01 1.267057e-01 -1.265411e-01
		vertex -1.136123e-01 9.139340e-02 -1.481575e-01
		vertex -7.903558e-02 0.000000e+00 -2.041038e-01
	endloop
endfacet
facet normal -8.944272e-01 0.000000e+00 -4.472136e-01
	outer loop
		vertex -7.903558e-02 0.000000e+00 -2.041038e-01
		vertex -1.269720e-01 1.267057e-01 -1.265411e-01
		vertex -1.269720e-01 1.267057e-01 -1.265411e-01
	endloop
endfacet
facet normal -3.538517e-01 0.000000e+00 9.353016e-01
	outer loop
		vertex -1.269720e-01 1.267057e-01 -1.265411e-01
		vertex -1.269720e-01 1.267057e-01 -1.265411e-01
		vertex -8.087272e-02 1.551966e-01 -1.091004e-01
	endloop
endfacet
facet normal -8.506508e-01 2.004555e-15 -5.257311e-01
	outer loop
		vertex -9.397218e-02 1.471007e-01 -1.799359e-01
		vertex -4.696948e-02 8.475720e-02 -2.559879e-01
		vertex -4.940790e-02 7.831196e-02 -2.520424e-01
	endloop
endfacet
facet normal 8.506508e-01 -3.818311e-15 5.257311e-01
	outer loop
		vertex -4.940790e-02 7.831196e-02 -2.520424e-01
		vertex -9.397218e-02 1.471007e-01 -1.799359e-01
		vertex -9.707151e-02 1.451852e-01 -1.749211e-01
	endloop
endfacet
facet normal 5.257311e-01 -8.506508e-01 -1.293365e-15
	outer loop
		vertex -9.707151e-02 1.451852e-01 -1.749211e-01
		vertex -9.397218e-02 1.471007e-01 -1.799359e-01
		vertex -8.087272e-02 1.551966e-01 -1.091004e-01
	endloop
endfacet
facet normal 8.506508e-01 0.000000e+00 5.257311e-01
	outer loop
		vertex -9.994018e-02 1.434123e-01 -1.702795e-01
		vertex -5.175218e-02 7.211555e-02 -2.482493e-01
		vertex -4.940790e-02 7.831196e-02 -2.520424e-01
	endloop
endfacet
facet normal -8.506508e-01 0.000000e+00 -5.257311e-01
	outer loop
		vertex -4.940790e-02 7.831196e-02 -2.520424e-01
		vertex -9.994018e-02 1.434123e-01 -1.702795e-01
		vertex -9.707151e-02 1.451852e-01 -1.749211e-01
	endloop
endfacet
facet normal -5.257311e-01 8.506508e-01 -2.554544e-15
	outer loop
		vertex -9.707151e-02 1.451852e-01 -1.749211e-01
		vertex -9.994018e-02 1.434123e-01 -1.702795e-01
		vertex -8.087272e-02 1.551966e-01 -1.091004e-01
	endloop
endfacet
facet normal 8.506508e-01 -4.653994e-14 5.257311e-01
	outer loop
		vertex -1.000879e-01 1.433210e-01 -1.700404e-01
		vertex -5.187529e-02 7.179014e-02 -2.480501e-01
		vertex -5.175218e-02 7.211555e-02 -2.482493e-01
	endloop
endfacet
facet normal -8.506508e-01 1.526606e-14 -5.257311e-01
	outer loop
		vertex -5.175218e-02 7.211555e-02 -2.482493e-01
		vertex -1.000879e-01 1.433210e-01 -1.700404e-01
		vertex -9.994018e-02 1.434123e-01 -1.702795e-01
	endloop
endfacet
facet normal -5.257311e-01 8.506508e-01 1.953898e-14
	outer loop
		vertex -9.994018e-02 1.434123e-01 -1.702795e-01
		vertex -1.000879e-01 1.433210e-01 -1.700404e-01
		vertex -8.087272e-02 1.551966e-01 -1.091004e-01
	endloop
endfacet
facet normal -8.506508e-01 6.328645e-17 -5.257311e-01
	outer loop
		vertex -1.000879e-01 1.433210e-01 -1.700404e-01
		vertex -5.187529e-02 7.179014e-02 -2.480501e-01
		vertex -7.903558e-02 0.000000e+00 -2.041038e-01
	endloop
endfacet
facet normal 8.506508e-01 -1.627467e-16 5.257311e-01
	outer loop
		vertex -7.903558e-02 0.000000e+00 -2.041038e-01
		vertex -1.000879e-01 1.433210e-01 -1.700404e-01
		vertex -1.269720e-01 1.267057e-01 -1.265411e-01
	endloop
endfacet
facet normal 5.257311e-01 -8.506508e-01 4.845920e-16
	outer loop
		vertex -1.269720e-01 1.267057e-01 -1.265411e-01
		vertex -1.000879e-01 1.433210e-01 -1.700404e-01
		vertex -8.087272e-02 1.551966e-01 -1.091004e-01
	endloop
endfacet
facet normal -4.404377e-01 -1.734161e-01 -8.808754e-01
	outer loop
		vertex -5.551115e-17 2.051787e-01 -7.850390e-02
		vertex 0.000000e+00 2.051787e-01 -7.850390e-02
		vertex 1.103365e-01 1.369870e-01 -1.202474e-01
	endloop
endfacet
facet normal -2.765128e-01 7.859411e-01 -5.530256e-01
	outer loop
		vertex -5.551115e-17 2.051787e-01 -7.850390e-02
		vertex 0.000000e+00 2.051787e-01 -7.850390e-02
		vertex -8.087272e-02 1.551966e-01 -1.091004e-01
	endloop
endfacet
facet normal -5.773060e-01 -5.860654e-01 -5.685466e-01
	outer loop
		vertex -5.551115e-17 2.051787e-01 -7.850390e-02
		vertex 0.000000e+00 2.051787e-01 -7.850390e-02
		vertex 1.103365e-01 1.369870e-01 -1.202474e-01
	endloop
endfacet
facet normal -8.399954e-02 6.155833e-01 -7.835824e-01
	outer loop
		vertex -5.551115e-17 2.051787e-01 -7.850390e-02
		vertex 0.000000e+00 2.051787e-01 -7.850390e-02
		vertex -8.087272e-02 1.551966e-01 -1.091004e-01
	endloop
endfacet
facet normal -1.451824e-13 5.220944e-01 -8.528877e-01
	outer loop
		vertex -6.498981e-02 1.650128e-01 -1.030914e-01
		vertex -6.498111e-02 1.650182e-01 -1.030881e-01
		vertex 7.324136e-02 5.551115e-17 -2.041038e-01
	endloop
endfacet
facet normal -3.160546e-02 -4.841377e-01 8.744208e-01
	outer loop
		vertex -6.498981e-02 1.650128e-01 -1.030914e-01
		vertex -6.498111e-02 1.650182e-01 -1.030881e-01
		vertex -8.087272e-02 1.551966e-01 -1.091004e-01
	endloop
endfacet
facet normal -1.606678e-14 -5.220944e-01 8.528877e-01
	outer loop
		vertex -6.489960e-02 1.650685e-01 -1.030573e-01
		vertex -6.498111e-02 1.650182e-01 -1.030881e-01
		vertex 7.324136e-02 5.551115e-17 -2.041038e-01
	endloop
endfacet
facet normal -5.222435e-02 -4.585388e-01 8.871386e-01
	outer loop
		vertex -6.489960e-02 1.650685e-01 -1.030573e-01
		vertex -6.498111e-02 1.650182e-01 -1.030881e-01
		vertex -8.087272e-02 1.551966e-01 -1.091004e-01
	endloop
endfacet
facet normal 3.121140e-01 8.094624e-01 -4.973484e-01
	outer loop
		vertex 2.775558e-17 2.051787e-01 -7.850390e-02
		vertex 0.000000e+00 2.051787e-01 -7.850390e-02
		vertex 1.103365e-01 1.369870e-01 -1.202474e-01
	endloop
endfacet
facet normal 1.120646e-01 -6.443827e-01 7.564473e-01
	outer loop
		vertex 2.775558e-17 2.051787e-01 -7.850390e-02
		vertex 0.000000e+00 2.051787e-01 -7.850390e-02
		vertex -8.087272e-02 1.551966e-01 -1.091004e-01
	endloop
endfacet
facet normal 2.765128e-01 7.859411e-01 -5.530256e-01
	outer loop
		vertex -2.775558e-17 2.051787e-01 -7.850390e-02
		vertex 0.000000e+00 2.051787e-01 -7.850390e-02
		vertex 1.103365e-01 1.369870e-01 -1.202474e-01
	endloop
endfacet
facet normal 4.404377e-01 -1.734161e-01 -8.808754e-01
	outer loop
		vertex -2.775558e-17 2.051787e-01 -7.850390e-02
		vertex 0.000000e+00 2.051787e-01 -7.850390e-02
		vertex -8.087272e-02 1.551966e-01 -1.091004e-01
	endloop
endfacet
facet normal -5.257311e-01 -8.506508e-01 2.583907e-14
	outer loop
		vertex 0.000000e+00 2.051787e-01 -1.004335e-01
		vertex -1.387779e-17 2.051787e-01 -1.007158e-01
		vertex 1.103365e-01 1.369870e-01 -1.202474e-01
	endloop
endfacet
facet normal -5.257311e-01 8.506508e-01 2.583907e-14
	outer loop
		vertex 0.000000e+00 2.051787e-01 -1.004335e-01
		vertex -1.387779e-17 2.051787e-01 -1.007158e-01
		vertex -8.087272e-02 1.551966e-01 -1.091004e-01
	endloop
endfacet
facet normal 5.148084e-01 6.855251e-01 5.148084e-01
	outer loop
		vertex 0.000000e+00 2.051787e-01 -1.007158e-01
		vertex -1.387779e-17 2.051787e-01 -1.007158e-01
		vertex 1.103365e-01 1.369870e-01 -1.202474e-01
	endloop
endfacet
facet normal 4.389923e-01 -7.839461e-01 4.389923e-01
	outer loop
		vertex 0.000000e+00 2.051787e-01 -1.007158e-01
		vertex -1.387779e-17 2.051787e-01 -1.007158e-01
		vertex -8.087272e-02 1.551966e-01 -1.091004e-01
	endloop
endfacet
facet normal 5.148084e-01 6.855251e-01 5.148084e-01
	outer loop
		vertex 0.000000e+00 2.051787e-01 -1.007158e-01
		vertex -1.387779e-17 2.051787e-01 -1.007158e-01
		vertex 1.103365e-01 1.369870e-01 -1.202474e-01
	endloop
endfacet
facet normal 4.389923e-01 -7.839461e-01 4.389923e-01
	outer loop
		vertex 0.000000e+00 2.051787e-01 -1.007158e-01
		vertex -1.387779e-17 2.051787e-01 -1.007158e-01
		vertex -8.087272e-02 1.551966e-01 -1.091004e-01
	endloop
endfacet
facet normal 5.257311e-01 8.506508e-01 -0.000000e+00
	outer loop
		vertex 0.000000e+00 2.051787e-01 -1.068523e-01
		vertex 0.000000e+00 2.051787e-01 -1.066517e-01
		vertex 1.103365e-01 1.369870e-01 -1.202474e-01
	endloop
endfacet
facet normal 5.257311e-01 -8.506508e-01 0.000000e+00
	outer loop
		vertex 0.000000e+00 2.051787e-01 -1.068523e-01
		vertex 0.000000e+00 2.051787e-01 -1.066517e-01
		vertex -8.087272e-02 1.551966e-01 -1.091004e-01
	endloop
endfacet
facet normal 5.257311e-01 8.506508e-01 -0.000000e+00
	outer loop
		vertex 0.000000e+00 2.051787e-01 -1.068549e-01
		vertex 0.000000e+00 2.051787e-01 -1.068523e-01
		vertex 1.103365e-01 1.369870e-01 -1.202474e-01
	endloop
endfacet
facet normal 5.257311e-01 -8.506508e-01 0.000000e+00
	outer loop
		vertex 0.000000e+00 2.051787e-01 -1.068549e-01
		vertex 0.000000e+00 2.051787e-01 -1.068523e-01
		vertex -8.087272e-02 1.551966e-01 -1.091004e-01
	endloop
endfacet
facet normal -5.257311e-01 -8.506508e-01 9.639483e-14
	outer loop
		vertex 5.551115e-17 2.051787e-01 -1.063490e-01
		vertex 0.000000e+00 2.051787e-01 -1.066517e-01
		vertex 1.103365e-01 1.369870e-01 -1.202474e-01
	endloop
endfacet
facet normal -5.257311e-01 8.506508e-01 9.639483e-14
	outer loop
		vertex 5.551115e-17 2.051787e-01 -1.063490e-01
		vertex 0.000000e+00 2.051787e-01 -1.066517e-01
		vertex -8.087272e-02 1.551966e-01 -1.091004e-01
	endloop
endfacet
facet normal -5.257311e-01 -8.506508e-01 -3.152214e-11
	outer loop
		vertex 0.000000e+00 2.051787e-01 -1.063483e-01
		vertex 4.163336e-17 2.051787e-01 -1.063490e-01
		vertex 1.103365e-01 1.369870e-01 -1.202474e-01
	endloop
endfacet
facet normal -5.257311e-01 8.506508e-01 -3.152214e-11
	outer loop
		vertex 0.000000e+00 2.051787e-01 -1.063483e-01
		vertex 4.163336e-17 2.051787e-01 -1.063490e-01
		vertex -8.087272e-02 1.551966e-01 -1.091004e-01
	endloop
endfacet
facet normal -5.257311e-01 -8.506508e-01 1.929530e-14
	outer loop
		vertex 2.775558e-17 2.051787e-01 -1.149377e-01
		vertex -1.387779e-17 2.051787e-01 -1.160721e-01
		vertex 1.103365e-01 1.369870e-01 -1.202474e-01
	endloop
endfacet
facet normal -5.257311e-01 8.506508e-01 1.929530e-14
	outer loop
		vertex 2.775558e-17 2.051787e-01 -1.149377e-01
		vertex -1.387779e-17 2.051787e-01 -1.160721e-01
		vertex -8.087272e-02 1.551966e-01 -1.091004e-01
	endloop
endfacet
facet normal -5.257311e-01 -8.506508e-01 -9.759436e-14
	outer loop
		vertex -2.775558e-17 2.051787e-01 -1.148806e-01
		vertex 2.775558e-17 2.051787e-01 -1.149377e-01
		vertex 1.103365e-01 1.369870e-01 -1.202474e-01
	endloop
endfacet
facet normal -5.257311e-01 8.506508e-01 -9.244267e-13
	outer loop
		vertex -2.775558e-17 2.051787e-01 -1.148806e-01
		vertex 2.775558e-17 2.051787e-01 -1.149377e-01
		vertex -8.087272e-02 1.551966e-01 -1.091004e-01
	endloop
endfacet
facet normal -5.257311e-01 -8.506508e-01 -4.778802e-15
	outer loop
		vertex 0.000000e+00 2.051787e-01 -1.068865e-01
		vertex 2.775558e-17 2.051787e-01 -1.148806e-01
		vertex 1.103365e-01 1.369870e-01 -1.202474e-01
	endloop
endfacet
facet normal -5.257311e-01 8.506508e-01 1.128122e-15
	outer loop
		vertex 0.000000e+00 2.051787e-01 -1.068865e-01
		vertex 2.775558e-17 2.051787e-01 -1.148806e-01
		vertex -8.087272e-02 1.551966e-01 -1.091004e-01
	endloop
endfacet
facet normal -5.257311e-01 -8.506508e-01 -2.309113e-13
	outer loop
		vertex 0.000000e+00 2.051787e-01 -1.068549e-01
		vertex 1.387779e-17 2.051787e-01 -1.068865e-01
		vertex 1.103365e-01 1.369870e-01 -1.202474e-01
	endloop
endfacet
facet normal -5.257311e-01 8.506508e-01 -2.309113e-13
	outer loop
		vertex 0.000000e+00 2.051787e-01 -1.068549e-01
		vertex 1.387779e-17 2.051787e-01 -1.068865e-01
		vertex -8.087272e-02 1.551966e-01 -1.091004e-01
	endloop
endfacet
facet normal -5.257311e-01 -8.506508e-01 8.193561e-14
	outer loop
		vertex -2.775558e-17 2.051787e-01 -1.062382e-01
		vertex 0.000000e+00 2.051787e-01 -1.063483e-01
		vertex 1.103365e-01 1.369870e-01 -1.202474e-01
	endloop
endfacet
facet normal -5.257311e-01 8.506508e-01 -3.470849e-13
	outer loop
		vertex -2.775558e-17 2.051787e-01 -1.062382e-01
		vertex 0.000000e+00 2.051787e-01 -1.063483e-01
		vertex -8.087272e-02 1.551966e-01 -1.091004e-01
	endloop
endfacet
facet normal 5.257311e-01 8.506508e-01 -1.337898e-14
	outer loop
		vertex 5.551115e-17 2.051787e-01 -1.013899e-01
		vertex 2.775558e-17 2.051787e-01 -1.007158e-01
		vertex 1.103365e-01 1.369870e-01 -1.202474e-01
	endloop
endfacet
facet normal 5.257311e-01 -8.506508e-01 5.667427e-14
	outer loop
		vertex 5.551115e-17 2.051787e-01 -1.013899e-01
		vertex 2.775558e-17 2.051787e-01 -1.007158e-01
		vertex -8.087272e-02 1.551966e-01 -1.091004e-01
	endloop
endfacet
facet normal -1.081169e-01 1.081169e-01 -9.882416e-01
	outer loop
		vertex 0.000000e+00 2.051787e-01 -1.007158e-01
		vertex 2.775558e-17 2.051787e-01 -1.007158e-01
		vertex 1.103365e-01 1.369870e-01 -1.202474e-01
	endloop
endfacet
facet normal -2.534003e-01 2.534003e-01 9.335827e-01
	outer loop
		vertex 0.000000e+00 2.051787e-01 -1.007158e-01
		vertex 2.775558e-17 2.051787e-01 -1.007158e-01
		vertex -8.087272e-02 1.551966e-01 -1.091004e-01
	endloop
endfacet
facet normal -5.257311e-01 -8.506508e-01 -6.749810e-14
	outer loop
		vertex 0.000000e+00 2.051787e-01 -1.007158e-01
		vertex 4.163336e-17 2.051787e-01 -1.013899e-01
		vertex 1.103365e-01 1.369870e-01 -1.202474e-01
	endloop
endfacet
facet normal -5.257311e-01 8.506508e-01 2.555155e-15
	outer loop
		vertex 0.000000e+00 2.051787e-01 -1.007158e-01
		vertex 4.163336e-17 2.051787e-01 -1.013899e-01
		vertex -8.087272e-02 1.551966e-01 -1.091004e-01
	endloop
endfacet
facet normal -1.081169e-01 1.081169e-01 -9.882416e-01
	outer loop
		vertex 0.000000e+00 2.051787e-01 -1.007158e-01
		vertex 2.775558e-17 2.051787e-01 -1.007158e-01
		vertex 1.103365e-01 1.369870e-01 -1.202474e-01
	endloop
endfacet
facet normal -2.534003e-01 2.534003e-01 9.335827e-01
	outer loop
		vertex 0.000000e+00 2.051787e-01 -1.007158e-01
		vertex 2.775558e-17 2.051787e-01 -1.007158e-01
		vertex -8.087272e-02 1.551966e-01 -1.091004e-01
	endloop
endfacet
facet normal 5.257311e-01 8.506508e-01 -1.714921e-13
	outer loop
		vertex -2.775558e-17 2.051787e-01 -1.017403e-01
		vertex 4.163336e-17 2.051787e-01 -1.013899e-01
		vertex 1.103365e-01 1.369870e-01 -1.202474e-01
	endloop
endfacet
facet normal 5.257311e-01 -8.506508e-01 -3.672875e-14
	outer loop
		vertex -2.775558e-17 2.051787e-01 -1.017403e-01
		vertex 4.163336e-17 2.051787e-01 -1.013899e-01
		vertex -8.087272e-02 1.551966e-01 -1.091004e-01
	endloop
endfacet
facet normal -5.257311e-01 -8.506508e-01 1.096970e-15
	outer loop
		vertex -2.775558e-17 2.051787e-01 -7.850390e-02
		vertex -2.775558e-17 2.051787e-01 -1.000271e-01
		vertex 1.103365e-01 1.369870e-01 -1.202474e-01
	endloop
endfacet
facet normal -5.257311e-01 8.506508e-01 -1.096970e-15
	outer loop
		vertex -2.775558e-17 2.051787e-01 -7.850390e-02
		vertex -2.775558e-17 2.051787e-01 -1.000271e-01
		vertex -8.087272e-02 1.551966e-01 -1.091004e-01
	endloop
endfacet
facet normal -5.257311e-01 -8.506508e-01 1.777685e-12
	outer loop
		vertex -2.775558e-17 2.051787e-01 -1.000271e-01
		vertex -1.387779e-17 2.051787e-01 -1.000363e-01
		vertex 1.103365e-01 1.369870e-01 -1.202474e-01
	endloop
endfacet
facet normal -5.257311e-01 8.506508e-01 -3.367695e-12
	outer loop
		vertex -2.775558e-17 2.051787e-01 -1.000271e-01
		vertex -1.387779e-17 2.051787e-01 -1.000363e-01
		vertex -8.087272e-02 1.551966e-01 -1.091004e-01
	endloop
endfacet
facet normal -5.257311e-01 -8.506508e-01 -7.347677e-14
	outer loop
		vertex 0.000000e+00 2.051787e-01 -1.000363e-01
		vertex 5.551115e-17 2.051787e-01 -1.004335e-01
		vertex 1.103365e-01 1.369870e-01 -1.202474e-01
	endloop
endfacet
facet normal -5.257311e-01 8.506508e-01 -7.347677e-14
	outer loop
		vertex 0.000000e+00 2.051787e-01 -1.000363e-01
		vertex 5.551115e-17 2.051787e-01 -1.004335e-01
		vertex -8.087272e-02 1.551966e-01 -1.091004e-01
	endloop
endfacet
facet normal -2.072001e-16 5.220944e-01 -8.528877e-01
	outer loop
		vertex 0.000000e+00 2.051787e-01 -7.850390e-02
		vertex 1.103365e-01 1.369870e-01 -1.202474e-01
		vertex 1.170500e-01 1.004797e-01 -1.425953e-01
	endloop
endfacet
facet normal -2.754071e-16 5.220944e-01 -8.528877e-01
	outer loop
		vertex 1.170500e-01 1.004797e-01 -1.425953e-01
		vertex -1.517211e-02 1.958018e-01 -8.424395e-02
		vertex 0.000000e+00 2.051787e-01 -7.850390e-02
	endloop
endfacet
facet normal -3.619614e-01 5.170877e-02 9.307578e-01
	outer loop
		vertex 0.000000e+00 2.051787e-01 -7.850390e-02
		vertex -1.517211e-02 1.958018e-01 -8.424395e-02
		vertex -8.087272e-02 1.551966e-01 -1.091004e-01
	endloop
endfacet
facet normal 0.000000e+00 0.000000e+00 0.000000e+00
	outer loop
		vertex 0.000000e+00 2.051787e-01 -7.850390e-02
		vertex 1.103365e-01 1.369870e-01 -1.202474e-01
		vertex 1.103365e-01 1.369870e-01 -1.202474e-01
	endloop
endfacet
facet normal 0.000000e+00 0.000000e+00 0.000000e+00
	outer loop
		vertex 1.103365e-01 1.369870e-01 -1.202474e-01
		vertex 0.000000e+00 2.051787e-01 -7.850390e-02
		vertex 0.000000e+00 2.051787e-01 -7.850390e-02
	endloop
endfacet
facet normal 0.000000e+00 0.000000e+00 0.000000e+00
	outer loop
		vertex 0.000000e+00 2.051787e-01 -7.850390e-02
		vertex 1.103365e-01 1.369870e-01 -1.202474e-01
		vertex 1.103365e-01 1.369870e-01 -1.202474e-01
	endloop
endfacet
facet normal 0.000000e+00 0.000000e+00 0.000000e+00
	outer loop
		vertex 1.103365e-01 1.369870e-01 -1.202474e-01
		vertex 0.000000e+00 2.051787e-01 -7.850390e-02
		vertex 0.000000e+00 2.051787e-01 -7.850390e-02
	endloop
endfacet
facet normal 0.000000e+00 0.000000e+00 0.000000e+00
	outer loop
		vertex 0.000000e+00 2.051787e-01 -7.850390e-02
		vertex 0.000000e+00 2.051787e-01 -7.850390e-02
		vertex -8.087272e-02 1.551966e-01 -1.091004e-01
	endloop
endfacet
facet normal 3.121140e-01 8.094624e-01 -4.973484e-01
	outer loop
		vertex 2.775558e-17 2.051787e-01 -7.850390e-02
		vertex 0.000000e+00 2.051787e-01 -7.850390e-02
		vertex 1.103365e-01 1.369870e-01 -1.202474e-01
	endloop
endfacet
facet normal 1.120646e-01 -6.443827e-01 7.564473e-01
	outer loop
		vertex 2.775558e-17 2.051787e-01 -7.850390e-02
		vertex 0.000000e+00 2.051787e-01 -7.850390e-02
		vertex -8.087272e-02 1.551966e-01 -1.091004e-01
	endloop
endfacet
facet normal -5.257311e-01 -8.506508e-01 -1.141555e-14
	outer loop
		vertex -2.775558e-17 2.051787e-01 -1.017403e-01
		vertex 0.000000e+00 2.051787e-01 -1.030185e-01
		vertex 1.103365e-01 1.369870e-01 -1.202474e-01
	endloop
endfacet
facet normal -5.257311e-01 8.506508e-01 -1.141555e-14
	outer loop
		vertex -2.775558e-17 2.051787e-01 -1.017403e-01
		vertex 0.000000e+00 2.051787e-01 -1.030185e-01
		vertex -8.087272e-02 1.551966e-01 -1.091004e-01
	endloop
endfacet
facet normal 0.000000e+00 5.220944e-01 -8.528877e-01
	outer loop
		vertex -1.517211e-02 1.958018e-01 -8.424395e-02
		vertex 1.170500e-01 1.004797e-01 -1.425953e-01
		vertex 7.324136e-02 5.551115e-17 -2.041038e-01
	endloop
endfacet
facet normal 2.427221e-16 5.220944e-01 -8.528877e-01
	outer loop
		vertex 7.324136e-02 5.551115e-17 -2.041038e-01
		vertex -6.384998e-02 1.657172e-01 -1.026602e-01
		vertex -1.517211e-02 1.958018e-01 -8.424395e-02
	endloop
endfacet
facet normal -5.773503e-01 5.773503e-01 5.773503e-01
	outer loop
		vertex -1.517211e-02 1.958018e-01 -8.424395e-02
		vertex -6.384998e-02 1.657172e-01 -1.026602e-01
		vertex -8.087272e-02 1.551966e-01 -1.091004e-01
	endloop
endfacet
facet normal -2.867723e-15 5.220944e-01 -8.528877e-01
	outer loop
		vertex -6.483172e-02 1.651105e-01 -1.030316e-01
		vertex -6.384998e-02 1.657172e-01 -1.026602e-01
		vertex 7.324136e-02 5.551115e-17 -2.041038e-01
	endloop
endfacet
facet normal -1.613180e-02 5.409301e-01 -8.409129e-01
	outer loop
		vertex -6.483172e-02 1.651105e-01 -1.030316e-01
		vertex -6.384998e-02 1.657172e-01 -1.026602e-01
		vertex -8.087272e-02 1.551966e-01 -1.091004e-01
	endloop
endfacet
facet normal -4.404377e-01 -1.734161e-01 -8.808754e-01
	outer loop
		vertex -2.775558e-17 2.051787e-01 -7.850390e-02
		vertex 0.000000e+00 2.051787e-01 -7.850390e-02
		vertex 1.103365e-01 1.369870e-01 -1.202474e-01
	endloop
endfacet
facet normal -2.765128e-01 7.859411e-01 -5.530256e-01
	outer loop
		vertex -2.775558e-17 2.051787e-01 -7.850390e-02
		vertex 0.000000e+00 2.051787e-01 -7.850390e-02
		vertex -8.087272e-02 1.551966e-01 -1.091004e-01
	endloop
endfacet
facet normal -4.716769e-14 -5.220944e-01 8.528877e-01
	outer loop
		vertex -6.483172e-02 1.651105e-01 -1.030316e-01
		vertex -6.489960e-02 1.650685e-01 -1.030573e-01
		vertex 7.324136e-02 5.551115e-17 -2.041038e-01
	endloop
endfacet
facet normal -4.014490e-02 5.681055e-01 -8.219760e-01
	outer loop
		vertex -6.483172e-02 1.651105e-01 -1.030316e-01
		vertex -6.489960e-02 1.650685e-01 -1.030573e-01
		vertex -8.087272e-02 1.551966e-01 -1.091004e-01
	endloop
endfacet
facet normal 9.109899e-02 -4.085416e-01 9.081821e-01
	outer loop
		vertex -2.775558e-17 2.051787e-01 -7.850390e-02
		vertex -1.387779e-17 2.051787e-01 -7.850390e-02
		vertex 1.103365e-01 1.369870e-01 -1.202474e-01
	endloop
endfacet
facet normal 4.680165e-02 4.653461e-01 -8.838906e-01
	outer loop
		vertex -2.775558e-17 2.051787e-01 -7.850390e-02
		vertex -1.387779e-17 2.051787e-01 -7.850390e-02
		vertex -8.087272e-02 1.551966e-01 -1.091004e-01
	endloop
endfacet
facet normal -5.755002e-01 -5.755002e-01 -5.810327e-01
	outer loop
		vertex 2.775558e-17 2.051787e-01 -7.850390e-02
		vertex 0.000000e+00 2.051787e-01 -7.850390e-02
		vertex 1.103365e-01 1.369870e-01 -1.202474e-01
	endloop
endfacet
facet normal -2.219979e-01 -2.219979e-01 9.494387e-01
	outer loop
		vertex 2.775558e-17 2.051787e-01 -7.850390e-02
		vertex 0.000000e+00 2.051787e-01 -7.850390e-02
		vertex -8.087272e-02 1.551966e-01 -1.091004e-01
	endloop
endfacet
facet normal 5.257311e-01 8.506508e-01 2.801006e-15
	outer loop
		vertex -2.775558e-17 2.051787e-01 -1.062382e-01
		vertex 0.000000e+00 2.051787e-01 -1.030185e-01
		vertex 1.103365e-01 1.369870e-01 -1.202474e-01
	endloop
endfacet
facet normal 5.257311e-01 -8.506508e-01 -1.186525e-14
	outer loop
		vertex -2.775558e-17 2.051787e-01 -1.062382e-01
		vertex 0.000000e+00 2.051787e-01 -1.030185e-01
		vertex -8.087272e-02 1.551966e-01 -1.091004e-01
	endloop
endfacet
facet normal -2.353187e-16 5.220944e-01 8.528877e-01
	outer loop
		vertex -1.841001e-03 2.040409e-01 -3.290073e-01
		vertex -4.696948e-02 8.475720e-02 -2.559879e-01
		vertex 2.635448e-02 1.392468e-01 -2.893436e-01
	endloop
endfacet
facet normal -7.740410e-15 5.220944e-01 8.528877e-01
	outer loop
		vertex 2.635448e-02 1.392468e-01 -2.893436e-01
		vertex -6.786118e-04 2.047593e-01 -3.294470e-01
		vertex -1.841001e-03 2.040409e-01 -3.290073e-01
	endloop
endfacet
facet normal 5.257311e-01 -8.506508e-01 -7.412064e-15
	outer loop
		vertex -1.841001e-03 2.040409e-01 -3.290073e-01
		vertex -6.786118e-04 2.047593e-01 -3.294470e-01
		vertex -8.087272e-02 1.551966e-01 -1.091004e-01
	endloop
endfacet
facet normal -2.174529e-14 5.220944e-01 8.528877e-01
	outer loop
		vertex -6.786118e-04 2.047593e-01 -3.294470e-01
		vertex 2.635448e-02 1.392468e-01 -2.893436e-01
		vertex 1.841001e-03 2.040409e-01 -3.290073e-01
	endloop
endfacet
facet normal 2.023301e-14 -5.220944e-01 -8.528877e-01
	outer loop
		vertex 1.841001e-03 2.040409e-01 -3.290073e-01
		vertex -6.786118e-04 2.047593e-01 -3.294470e-01
		vertex 1.257675e-17 2.051787e-01 -3.297038e-01
	endloop
endfacet
facet normal -5.257311e-01 8.506508e-01 1.765826e-14
	outer loop
		vertex 1.257675e-17 2.051787e-01 -3.297038e-01
		vertex -6.786118e-04 2.047593e-01 -3.294470e-01
		vertex -8.087272e-02 1.551966e-01 -1.091004e-01
	endloop
endfacet
facet normal -5.257311e-01 -8.506508e-01 -6.720844e-16
	outer loop
		vertex 1.257675e-17 2.051787e-01 -3.297038e-01
		vertex 1.841001e-03 2.040409e-01 -3.290073e-01
		vertex 1.103365e-01 1.369870e-01 -1.202474e-01
	endloop
endfacet
facet normal -5.257311e-01 -8.506508e-01 -3.888026e-15
	outer loop
		vertex 1.103365e-01 1.369870e-01 -1.202474e-01
		vertex 0.000000e+00 2.051787e-01 -3.279839e-01
		vertex 1.257675e-17 2.051787e-01 -3.297038e-01
	endloop
endfacet
facet normal 5.257311e-01 -8.506508e-01 3.844403e-15
	outer loop
		vertex 1.257675e-17 2.051787e-01 -3.297038e-01
		vertex 0.000000e+00 2.051787e-01 -3.279839e-01
		vertex -8.087272e-02 1.551966e-01 -1.091004e-01
	endloop
endfacet
facet normal 8.506508e-01 -5.415586e-17 5.257311e-01
	outer loop
		vertex -1.841001e-03 2.040409e-01 -3.290073e-01
		vertex -9.397218e-02 1.471007e-01 -1.799359e-01
		vertex -4.696948e-02 8.475720e-02 -2.559879e-01
	endloop
endfacet
facet normal -5.257311e-01 8.506508e-01 8.701844e-17
	outer loop
		vertex -1.841001e-03 2.040409e-01 -3.290073e-01
		vertex -9.397218e-02 1.471007e-01 -1.799359e-01
		vertex -8.087272e-02 1.551966e-01 -1.091004e-01
	endloop
endfacet
facet normal -5.257311e-01 -8.506508e-01 3.029236e-17
	outer loop
		vertex 1.734723e-18 2.051787e-01 -2.978773e-01
		vertex 0.000000e+00 2.051787e-01 -3.279839e-01
		vertex 1.103365e-01 1.369870e-01 -1.202474e-01
	endloop
endfacet
facet normal -5.257311e-01 8.506508e-01 3.029236e-17
	outer loop
		vertex 1.734723e-18 2.051787e-01 -2.978773e-01
		vertex 0.000000e+00 2.051787e-01 -3.279839e-01
		vertex -8.087272e-02 1.551966e-01 -1.091004e-01
	endloop
endfacet
facet normal 5.257311e-01 8.506508e-01 2.396664e-16
	outer loop
		vertex 6.938894e-18 2.051787e-01 -2.978773e-01
		vertex 1.387779e-17 2.051787e-01 -1.160721e-01
		vertex 1.103365e-01 1.369870e-01 -1.202474e-01
	endloop
endfacet
facet normal 5.257311e-01 -8.506508e-01 -2.797971e-16
	outer loop
		vertex 6.938894e-18 2.051787e-01 -2.978773e-01
		vertex 1.387779e-17 2.051787e-01 -1.160721e-01
		vertex -8.087272e-02 1.551966e-01 -1.091004e-01
	endloop
endfacet
endsolid MIKE666
