solid MIKE666
facet normal 0.000000e+00 5.257311e-01 -8.506508e-01
	outer loop
		vertex 3.569760e-01 -1.544465e-02 9.904547e-01
		vertex 3.319861e-01 0.000000e+00 1.000000e+00
		vertex 3.819660e-01 0.000000e+00 1.000000e+00
	endloop
endfacet
facet normal 3.345215e-15 5.257311e-01 -8.506508e-01
	outer loop
		vertex 3.724207e-01 -2.498997e-02 9.845554e-01
		vertex 3.644994e-01 -2.009432e-02 9.875810e-01
		vertex 3.819660e-01 0.000000e+00 1.000000e+00
	endloop
endfacet
facet normal -5.233670e-15 5.257311e-01 -8.506508e-01
	outer loop
		vertex 3.644994e-01 -2.009432e-02 9.875810e-01
		vertex 3.569760e-01 -1.544465e-02 9.904547e-01
		vertex 3.819660e-01 0.000000e+00 1.000000e+00
	endloop
endfacet
facet normal 8.506508e-01 -0.000000e+00 5.257311e-01
	outer loop
		vertex 3.974107e-01 -4.043462e-02 9.750100e-01
		vertex 3.974107e-01 -9.545327e-03 9.750100e-01
		vertex 3.819660e-01 0.000000e+00 1.000000e+00
	endloop
endfacet
facet normal 8.506508e-01 -5.058091e-10 5.257311e-01
	outer loop
		vertex 3.819660e-01 0.000000e+00 1.000000e+00
		vertex 3.974107e-01 -4.043462e-02 9.750100e-01
		vertex 3.974107e-01 -4.043462e-02 9.750100e-01
	endloop
endfacet
facet normal 8.506508e-01 -5.108359e-16 5.257311e-01
	outer loop
		vertex 3.974107e-01 -4.043462e-02 9.750100e-01
		vertex 3.974107e-01 -9.545327e-03 9.750100e-01
		vertex 3.819660e-01 0.000000e+00 1.000000e+00
	endloop
endfacet
facet normal 8.506508e-01 -5.058091e-10 5.257311e-01
	outer loop
		vertex 3.819660e-01 0.000000e+00 1.000000e+00
		vertex 3.974107e-01 -4.043462e-02 9.750100e-01
		vertex 3.974107e-01 -4.043462e-02 9.750100e-01
	endloop
endfacet
facet normal 3.099680e-14 -5.257311e-01 8.506508e-01
	outer loop
		vertex 3.724207e-01 -2.498997e-02 9.845554e-01
		vertex 3.734125e-01 -2.560296e-02 9.841765e-01
		vertex 3.819660e-01 0.000000e+00 1.000000e+00
	endloop
endfacet
facet normal 1.617408e-15 -5.257311e-01 8.506508e-01
	outer loop
		vertex 3.734125e-01 -2.560296e-02 9.841765e-01
		vertex 3.974107e-01 -4.043462e-02 9.750100e-01
		vertex 3.819660e-01 0.000000e+00 1.000000e+00
	endloop
endfacet
facet normal -8.506508e-01 -0.000000e+00 -5.257311e-01
	outer loop
		vertex 3.974107e-01 4.043462e-02 9.750100e-01
		vertex 3.974107e-01 -9.545327e-03 9.750100e-01
		vertex 3.819660e-01 0.000000e+00 1.000000e+00
	endloop
endfacet
facet normal -8.506508e-01 -5.058091e-10 -5.257311e-01
	outer loop
		vertex 3.819660e-01 0.000000e+00 1.000000e+00
		vertex 3.974107e-01 4.043462e-02 9.750100e-01
		vertex 3.974107e-01 4.043462e-02 9.750100e-01
	endloop
endfacet
facet normal -8.506508e-01 -3.157140e-16 -5.257311e-01
	outer loop
		vertex 3.974107e-01 4.043462e-02 9.750100e-01
		vertex 3.974107e-01 -9.545327e-03 9.750100e-01
		vertex 3.819660e-01 0.000000e+00 1.000000e+00
	endloop
endfacet
facet normal -8.506508e-01 -5.058091e-10 -5.257311e-01
	outer loop
		vertex 3.819660e-01 0.000000e+00 1.000000e+00
		vertex 3.974107e-01 4.043462e-02 9.750100e-01
		vertex 3.974107e-01 4.043462e-02 9.750100e-01
	endloop
endfacet
facet normal 0.000000e+00 0.000000e+00 0.000000e+00
	outer loop
		vertex 3.974107e-01 4.043462e-02 9.750100e-01
		vertex 3.974107e-01 4.043462e-02 9.750100e-01
		vertex 3.974107e-01 4.043462e-02 9.750100e-01
	endloop
endfacet
facet normal 0.000000e+00 0.000000e+00 0.000000e+00
	outer loop
		vertex 3.974107e-01 4.043462e-02 9.750100e-01
		vertex 3.974107e-01 4.043462e-02 9.750100e-01
		vertex 3.974107e-01 -9.545327e-03 9.750100e-01
	endloop
endfacet
facet normal 0.000000e+00 0.000000e+00 0.000000e+00
	outer loop
		vertex 3.974107e-01 4.043462e-02 9.750100e-01
		vertex 3.974107e-01 4.043462e-02 9.750100e-01
		vertex 3.974107e-01 4.043462e-02 9.750100e-01
	endloop
endfacet
facet normal 0.000000e+00 0.000000e+00 0.000000e+00
	outer loop
		vertex 3.319861e-01 0.000000e+00 1.000000e+00
		vertex 3.319861e-01 0.000000e+00 1.000000e+00
		vertex 3.974107e-01 4.043462e-02 9.750100e-01
	endloop
endfacet
facet normal 0.000000e+00 0.000000e+00 0.000000e+00
	outer loop
		vertex 3.974107e-01 4.043462e-02 9.750100e-01
		vertex 3.974107e-01 -4.043462e-02 9.750100e-01
		vertex 3.974107e-01 -9.545327e-03 9.750100e-01
	endloop
endfacet
facet normal 0.000000e+00 0.000000e+00 0.000000e+00
	outer loop
		vertex 3.974107e-01 -9.545327e-03 9.750100e-01
		vertex 3.974107e-01 4.043462e-02 9.750100e-01
		vertex 3.974107e-01 4.043462e-02 9.750100e-01
	endloop
endfacet
facet normal 0.000000e+00 0.000000e+00 0.000000e+00
	outer loop
		vertex 3.974107e-01 4.043462e-02 9.750100e-01
		vertex 3.974107e-01 -4.043462e-02 9.750100e-01
		vertex 3.974107e-01 -9.545327e-03 9.750100e-01
	endloop
endfacet
facet normal 0.000000e+00 0.000000e+00 0.000000e+00
	outer loop
		vertex 3.974107e-01 -9.545327e-03 9.750100e-01
		vertex 3.974107e-01 4.043462e-02 9.750100e-01
		vertex 3.974107e-01 4.043462e-02 9.750100e-01
	endloop
endfacet
facet normal 8.506508e-01 -0.000000e+00 5.257311e-01
	outer loop
		vertex 3.974107e-01 4.043462e-02 9.750100e-01
		vertex 3.974107e-01 4.043462e-02 9.750100e-01
		vertex 3.974107e-01 4.043462e-02 9.750100e-01
	endloop
endfacet
facet normal 0.000000e+00 0.000000e+00 0.000000e+00
	outer loop
		vertex 3.974107e-01 4.043462e-02 9.750100e-01
		vertex 3.974107e-01 -4.043462e-02 9.750100e-01
		vertex 3.974107e-01 -4.043462e-02 9.750100e-01
	endloop
endfacet
facet normal 0.000000e+00 0.000000e+00 0.000000e+00
	outer loop
		vertex 3.974107e-01 -4.043462e-02 9.750100e-01
		vertex 3.974107e-01 4.043462e-02 9.750100e-01
		vertex 3.974107e-01 4.043462e-02 9.750100e-01
	endloop
endfacet
facet normal 0.000000e+00 0.000000e+00 0.000000e+00
	outer loop
		vertex 3.974107e-01 4.043462e-02 9.750100e-01
		vertex 3.974107e-01 -4.043462e-02 9.750100e-01
		vertex 3.974107e-01 -4.043462e-02 9.750100e-01
	endloop
endfacet
facet normal 0.000000e+00 0.000000e+00 0.000000e+00
	outer loop
		vertex 3.974107e-01 -4.043462e-02 9.750100e-01
		vertex 3.974107e-01 4.043462e-02 9.750100e-01
		vertex 3.974107e-01 4.043462e-02 9.750100e-01
	endloop
endfacet
facet normal 0.000000e+00 0.000000e+00 0.000000e+00
	outer loop
		vertex 3.974107e-01 4.043462e-02 9.750100e-01
		vertex 3.974107e-01 4.043462e-02 9.750100e-01
		vertex 3.974107e-01 4.043462e-02 9.750100e-01
	endloop
endfacet
facet normal 0.000000e+00 0.000000e+00 0.000000e+00
	outer loop
		vertex 3.974107e-01 4.043462e-02 9.750100e-01
		vertex 3.974107e-01 -4.043462e-02 9.750100e-01
		vertex 3.974107e-01 -9.545327e-03 9.750100e-01
	endloop
endfacet
facet normal 0.000000e+00 0.000000e+00 0.000000e+00
	outer loop
		vertex 3.974107e-01 -9.545327e-03 9.750100e-01
		vertex 3.974107e-01 4.043462e-02 9.750100e-01
		vertex 3.974107e-01 4.043462e-02 9.750100e-01
	endloop
endfacet
facet normal 0.000000e+00 0.000000e+00 0.000000e+00
	outer loop
		vertex 3.974107e-01 4.043462e-02 9.750100e-01
		vertex 3.974107e-01 -4.043462e-02 9.750100e-01
		vertex 3.974107e-01 -9.545327e-03 9.750100e-01
	endloop
endfacet
facet normal 0.000000e+00 0.000000e+00 0.000000e+00
	outer loop
		vertex 3.974107e-01 -9.545327e-03 9.750100e-01
		vertex 3.974107e-01 4.043462e-02 9.750100e-01
		vertex 3.974107e-01 4.043462e-02 9.750100e-01
	endloop
endfacet
facet normal 8.506508e-01 -0.000000e+00 5.257311e-01
	outer loop
		vertex 3.974107e-01 4.043462e-02 9.750100e-01
		vertex 3.974107e-01 4.043462e-02 9.750100e-01
		vertex 3.974107e-01 4.043462e-02 9.750100e-01
	endloop
endfacet
facet normal 0.000000e+00 0.000000e+00 0.000000e+00
	outer loop
		vertex 3.974107e-01 4.043462e-02 9.750100e-01
		vertex 3.974107e-01 -4.043462e-02 9.750100e-01
		vertex 3.974107e-01 -4.043462e-02 9.750100e-01
	endloop
endfacet
facet normal 0.000000e+00 0.000000e+00 0.000000e+00
	outer loop
		vertex 3.974107e-01 -4.043462e-02 9.750100e-01
		vertex 3.974107e-01 4.043462e-02 9.750100e-01
		vertex 3.974107e-01 4.043462e-02 9.750100e-01
	endloop
endfacet
facet normal 0.000000e+00 0.000000e+00 0.000000e+00
	outer loop
		vertex 3.974107e-01 4.043462e-02 9.750100e-01
		vertex 3.974107e-01 -4.043462e-02 9.750100e-01
		vertex 3.974107e-01 -4.043462e-02 9.750100e-01
	endloop
endfacet
facet normal 0.000000e+00 0.000000e+00 0.000000e+00
	outer loop
		vertex 3.974107e-01 -4.043462e-02 9.750100e-01
		vertex 3.974107e-01 4.043462e-02 9.750100e-01
		vertex 3.974107e-01 4.043462e-02 9.750100e-01
	endloop
endfacet
facet normal 0.000000e+00 0.000000e+00 0.000000e+00
	outer loop
		vertex 3.974107e-01 4.043462e-02 9.750100e-01
		vertex 3.974107e-01 4.043462e-02 9.750100e-01
		vertex 3.974107e-01 4.043462e-02 9.750100e-01
	endloop
endfacet
facet normal -8.506508e-01 0.000000e+00 5.257311e-01
	outer loop
		vertex 3.974107e-01 4.043462e-02 9.750100e-01
		vertex 3.748607e-01 -2.649796e-02 9.385233e-01
		vertex 3.974107e-01 -4.043462e-02 9.750100e-01
	endloop
endfacet
facet normal 8.506508e-01 0.000000e+00 -5.257311e-01
	outer loop
		vertex 3.974107e-01 -4.043462e-02 9.750100e-01
		vertex 3.974107e-01 4.043462e-02 9.750100e-01
		vertex 3.974107e-01 4.043462e-02 9.750100e-01
	endloop
endfacet
facet normal -8.506508e-01 -7.911981e-18 5.257311e-01
	outer loop
		vertex 3.974107e-01 4.043462e-02 9.750100e-01
		vertex 3.748607e-01 -2.649796e-02 9.385233e-01
		vertex 3.974107e-01 -4.043462e-02 9.750100e-01
	endloop
endfacet
facet normal 8.506508e-01 0.000000e+00 -5.257311e-01
	outer loop
		vertex 3.974107e-01 -4.043462e-02 9.750100e-01
		vertex 3.974107e-01 4.043462e-02 9.750100e-01
		vertex 3.974107e-01 4.043462e-02 9.750100e-01
	endloop
endfacet
facet normal -5.257311e-01 8.506508e-01 -7.974190e-11
	outer loop
		vertex 3.974107e-01 4.043462e-02 9.750100e-01
		vertex 3.974107e-01 4.043462e-02 9.750100e-01
		vertex 3.974107e-01 4.043462e-02 9.750100e-01
	endloop
endfacet
facet normal -8.506508e-01 1.742858e-12 5.257311e-01
	outer loop
		vertex 3.974107e-01 4.043462e-02 9.750100e-01
		vertex 3.748538e-01 -2.649371e-02 9.385122e-01
		vertex 3.748607e-01 -2.649796e-02 9.385233e-01
	endloop
endfacet
facet normal 8.506526e-01 -2.605819e-06 -5.257282e-01
	outer loop
		vertex 3.748607e-01 -2.649796e-02 9.385233e-01
		vertex 3.974107e-01 4.043462e-02 9.750100e-01
		vertex 3.974107e-01 4.043462e-02 9.750100e-01
	endloop
endfacet
facet normal -8.506508e-01 1.845380e-12 5.257311e-01
	outer loop
		vertex 3.974107e-01 4.043462e-02 9.750100e-01
		vertex 3.748538e-01 -2.649371e-02 9.385122e-01
		vertex 3.748607e-01 -2.649796e-02 9.385233e-01
	endloop
endfacet
facet normal 8.506526e-01 -2.605819e-06 -5.257282e-01
	outer loop
		vertex 3.748607e-01 -2.649796e-02 9.385233e-01
		vertex 3.974107e-01 4.043462e-02 9.750100e-01
		vertex 3.974107e-01 4.043462e-02 9.750100e-01
	endloop
endfacet
facet normal -5.257353e-01 8.506482e-01 -2.829522e-07
	outer loop
		vertex 3.974107e-01 4.043462e-02 9.750100e-01
		vertex 3.974107e-01 4.043462e-02 9.750100e-01
		vertex 3.974107e-01 4.043462e-02 9.750100e-01
	endloop
endfacet
facet normal -8.506508e-01 1.923226e-15 5.257311e-01
	outer loop
		vertex 3.974107e-01 4.043462e-02 9.750100e-01
		vertex 3.722884e-01 -2.490819e-02 9.343613e-01
		vertex 3.748538e-01 -2.649371e-02 9.385122e-01
	endloop
endfacet
facet normal 8.506508e-01 1.172399e-08 -5.257312e-01
	outer loop
		vertex 3.748538e-01 -2.649371e-02 9.385122e-01
		vertex 3.974107e-01 4.043462e-02 9.750100e-01
		vertex 3.974107e-01 4.043462e-02 9.750100e-01
	endloop
endfacet
facet normal -8.506508e-01 1.373733e-15 5.257311e-01
	outer loop
		vertex 3.974107e-01 4.043462e-02 9.750100e-01
		vertex 3.722884e-01 -2.490819e-02 9.343613e-01
		vertex 3.748538e-01 -2.649371e-02 9.385122e-01
	endloop
endfacet
facet normal 8.506508e-01 1.172399e-08 -5.257312e-01
	outer loop
		vertex 3.748538e-01 -2.649371e-02 9.385122e-01
		vertex 3.974107e-01 4.043462e-02 9.750100e-01
		vertex 3.974107e-01 4.043462e-02 9.750100e-01
	endloop
endfacet
facet normal -5.257311e-01 8.506508e-01 2.837070e-10
	outer loop
		vertex 3.974107e-01 4.043462e-02 9.750100e-01
		vertex 3.974107e-01 4.043462e-02 9.750100e-01
		vertex 3.974107e-01 4.043462e-02 9.750100e-01
	endloop
endfacet
facet normal -8.506508e-01 4.286858e-15 5.257311e-01
	outer loop
		vertex 3.974107e-01 4.043462e-02 9.750100e-01
		vertex 3.686712e-01 -2.267263e-02 9.285085e-01
		vertex 3.722884e-01 -2.490819e-02 9.343613e-01
	endloop
endfacet
facet normal 8.506508e-01 4.843947e-09 -5.257311e-01
	outer loop
		vertex 3.722884e-01 -2.490819e-02 9.343613e-01
		vertex 3.974107e-01 4.043461e-02 9.750100e-01
		vertex 3.974107e-01 4.043462e-02 9.750100e-01
	endloop
endfacet
facet normal -8.506508e-01 3.897144e-15 5.257311e-01
	outer loop
		vertex 3.974107e-01 4.043461e-02 9.750100e-01
		vertex 3.686712e-01 -2.267263e-02 9.285085e-01
		vertex 3.722884e-01 -2.490819e-02 9.343613e-01
	endloop
endfacet
facet normal 8.506508e-01 4.843947e-09 -5.257311e-01
	outer loop
		vertex 3.722884e-01 -2.490819e-02 9.343613e-01
		vertex 3.974107e-01 4.043461e-02 9.750100e-01
		vertex 3.974107e-01 4.043462e-02 9.750100e-01
	endloop
endfacet
facet normal -5.257311e-01 8.506508e-01 4.476829e-11
	outer loop
		vertex 3.974107e-01 4.043462e-02 9.750100e-01
		vertex 3.974107e-01 4.043461e-02 9.750100e-01
		vertex 3.974107e-01 4.043462e-02 9.750100e-01
	endloop
endfacet
facet normal -8.506508e-01 -1.053081e-14 5.257311e-01
	outer loop
		vertex 3.974107e-01 4.043461e-02 9.750100e-01
		vertex 3.676003e-01 -2.201078e-02 9.267758e-01
		vertex 3.686712e-01 -2.267263e-02 9.285085e-01
	endloop
endfacet
facet normal 8.506508e-01 2.184042e-08 -5.257312e-01
	outer loop
		vertex 3.686712e-01 -2.267263e-02 9.285085e-01
		vertex 3.974107e-01 4.043461e-02 9.750100e-01
		vertex 3.974107e-01 4.043461e-02 9.750100e-01
	endloop
endfacet
facet normal -8.506508e-01 -1.053081e-14 5.257311e-01
	outer loop
		vertex 3.974107e-01 4.043461e-02 9.750100e-01
		vertex 3.676003e-01 -2.201078e-02 9.267758e-01
		vertex 3.686712e-01 -2.267263e-02 9.285085e-01
	endloop
endfacet
facet normal 8.506508e-01 2.184042e-08 -5.257312e-01
	outer loop
		vertex 3.686712e-01 -2.267263e-02 9.285085e-01
		vertex 3.974107e-01 4.043461e-02 9.750100e-01
		vertex 3.974107e-01 4.043461e-02 9.750100e-01
	endloop
endfacet
facet normal -5.257311e-01 8.506508e-01 -2.367642e-09
	outer loop
		vertex 3.974107e-01 4.043461e-02 9.750100e-01
		vertex 3.974107e-01 4.043461e-02 9.750100e-01
		vertex 3.974107e-01 4.043462e-02 9.750100e-01
	endloop
endfacet
facet normal -8.506508e-01 -4.013739e-16 5.257311e-01
	outer loop
		vertex 3.974107e-01 4.043461e-02 9.750100e-01
		vertex 3.324789e-01 -3.045689e-04 8.699482e-01
		vertex 3.676003e-01 -2.201078e-02 9.267758e-01
	endloop
endfacet
facet normal 8.506508e-01 -5.864273e-12 -5.257311e-01
	outer loop
		vertex 3.676003e-01 -2.201078e-02 9.267758e-01
		vertex 3.974076e-01 4.043270e-02 9.750050e-01
		vertex 3.974107e-01 4.043461e-02 9.750100e-01
	endloop
endfacet
facet normal -8.506508e-01 -8.027857e-17 5.257311e-01
	outer loop
		vertex 3.974076e-01 4.043270e-02 9.750050e-01
		vertex 3.324789e-01 -3.045689e-04 8.699482e-01
		vertex 3.676003e-01 -2.201078e-02 9.267758e-01
	endloop
endfacet
facet normal 8.506508e-01 -5.864273e-12 -5.257311e-01
	outer loop
		vertex 3.676003e-01 -2.201078e-02 9.267758e-01
		vertex 3.974076e-01 4.043270e-02 9.750050e-01
		vertex 3.974107e-01 4.043461e-02 9.750100e-01
	endloop
endfacet
facet normal -5.257311e-01 8.506508e-01 2.382908e-10
	outer loop
		vertex 3.974107e-01 4.043461e-02 9.750100e-01
		vertex 3.974076e-01 4.043270e-02 9.750050e-01
		vertex 3.974107e-01 4.043462e-02 9.750100e-01
	endloop
endfacet
facet normal 8.506508e-01 -9.386581e-15 -5.257311e-01
	outer loop
		vertex 3.319861e-01 -5.421011e-20 8.691508e-01
		vertex 3.974076e-01 4.043270e-02 9.750050e-01
		vertex 3.324789e-01 -3.045689e-04 8.699482e-01
	endloop
endfacet
facet normal 5.257311e-01 -8.506508e-01 4.776440e-10
	outer loop
		vertex 3.319861e-01 -5.421011e-20 8.691508e-01
		vertex 3.974076e-01 4.043270e-02 9.750050e-01
		vertex 3.974107e-01 4.043462e-02 9.750100e-01
	endloop
endfacet
facet normal 5.088497e-15 -5.257311e-01 -8.506508e-01
	outer loop
		vertex 3.644994e-01 2.009432e-02 9.875810e-01
		vertex 3.724207e-01 2.498997e-02 9.845554e-01
		vertex 3.819660e-01 0.000000e+00 1.000000e+00
	endloop
endfacet
facet normal -5.872704e-01 6.513363e-01 -4.804940e-01
	outer loop
		vertex 3.644994e-01 2.009432e-02 9.875810e-01
		vertex 3.724207e-01 2.498997e-02 9.845554e-01
		vertex 3.974107e-01 4.043462e-02 9.750100e-01
	endloop
endfacet
facet normal -1.389031e-15 -5.257311e-01 -8.506508e-01
	outer loop
		vertex 3.569760e-01 1.544465e-02 9.904547e-01
		vertex 3.644994e-01 2.009432e-02 9.875810e-01
		vertex 3.819660e-01 0.000000e+00 1.000000e+00
	endloop
endfacet
facet normal 7.768007e-02 -6.084939e-01 -7.897474e-01
	outer loop
		vertex 3.569760e-01 1.544465e-02 9.904547e-01
		vertex 3.644994e-01 2.009432e-02 9.875810e-01
		vertex 3.974107e-01 4.043462e-02 9.750100e-01
	endloop
endfacet
facet normal 2.793946e-14 5.257311e-01 8.506508e-01
	outer loop
		vertex 3.734125e-01 2.560296e-02 9.841765e-01
		vertex 3.724207e-01 2.498997e-02 9.845554e-01
		vertex 3.819660e-01 0.000000e+00 1.000000e+00
	endloop
endfacet
facet normal -5.124456e-01 8.574976e-01 4.579637e-02
	outer loop
		vertex 3.734125e-01 2.560296e-02 9.841765e-01
		vertex 3.724207e-01 2.498997e-02 9.845554e-01
		vertex 3.974107e-01 4.043462e-02 9.750100e-01
	endloop
endfacet
facet normal -2.146176e-15 -5.257311e-01 -8.506508e-01
	outer loop
		vertex 3.734125e-01 2.560296e-02 9.841765e-01
		vertex 3.974107e-01 4.043462e-02 9.750100e-01
		vertex 3.819660e-01 0.000000e+00 1.000000e+00
	endloop
endfacet
facet normal 3.511234e-01 0.000000e+00 9.363292e-01
	outer loop
		vertex 3.734125e-01 2.560296e-02 9.841765e-01
		vertex 3.974107e-01 4.043462e-02 9.750100e-01
		vertex 3.974107e-01 4.043462e-02 9.750100e-01
	endloop
endfacet
facet normal 1.748840e-14 -5.257311e-01 -8.506508e-01
	outer loop
		vertex 3.559784e-01 1.482804e-02 9.908358e-01
		vertex 3.569760e-01 1.544465e-02 9.904547e-01
		vertex 3.819660e-01 0.000000e+00 1.000000e+00
	endloop
endfacet
facet normal -4.432533e-01 1.723763e-01 -8.796664e-01
	outer loop
		vertex 3.559784e-01 1.482804e-02 9.908358e-01
		vertex 3.569760e-01 1.544465e-02 9.904547e-01
		vertex 3.974107e-01 4.043462e-02 9.750100e-01
	endloop
endfacet
facet normal 0.000000e+00 -5.257311e-01 -8.506508e-01
	outer loop
		vertex 3.559784e-01 1.482804e-02 9.908358e-01
		vertex 3.819660e-01 0.000000e+00 1.000000e+00
		vertex 3.319861e-01 0.000000e+00 1.000000e+00
	endloop
endfacet
facet normal -0.000000e+00 5.257311e-01 8.506508e-01
	outer loop
		vertex 3.319861e-01 0.000000e+00 1.000000e+00
		vertex 3.319861e-01 0.000000e+00 1.000000e+00
		vertex 3.559784e-01 1.482804e-02 9.908358e-01
	endloop
endfacet
facet normal 5.087101e-01 -3.391401e-01 7.913268e-01
	outer loop
		vertex 3.559784e-01 1.482804e-02 9.908358e-01
		vertex 3.319861e-01 0.000000e+00 1.000000e+00
		vertex 3.974107e-01 4.043462e-02 9.750100e-01
	endloop
endfacet
facet normal 0.000000e+00 -5.257311e-01 -8.506508e-01
	outer loop
		vertex 3.559784e-01 1.482804e-02 9.908358e-01
		vertex 3.819660e-01 0.000000e+00 1.000000e+00
		vertex 3.319861e-01 0.000000e+00 1.000000e+00
	endloop
endfacet
facet normal 0.000000e+00 0.000000e+00 0.000000e+00
	outer loop
		vertex 3.319861e-01 0.000000e+00 1.000000e+00
		vertex 3.319861e-01 0.000000e+00 1.000000e+00
		vertex 3.559784e-01 1.482804e-02 9.908358e-01
	endloop
endfacet
facet normal 3.380021e-01 -8.262273e-01 -4.506695e-01
	outer loop
		vertex 3.559784e-01 1.482804e-02 9.908358e-01
		vertex 3.319861e-01 0.000000e+00 1.000000e+00
		vertex 3.974107e-01 4.043462e-02 9.750100e-01
	endloop
endfacet
facet normal 0.000000e+00 0.000000e+00 0.000000e+00
	outer loop
		vertex 3.319861e-01 0.000000e+00 1.000000e+00
		vertex 3.819660e-01 0.000000e+00 1.000000e+00
		vertex 3.319861e-01 0.000000e+00 1.000000e+00
	endloop
endfacet
facet normal 0.000000e+00 0.000000e+00 0.000000e+00
	outer loop
		vertex 3.319861e-01 0.000000e+00 1.000000e+00
		vertex 3.319861e-01 0.000000e+00 1.000000e+00
		vertex 3.319861e-01 0.000000e+00 1.000000e+00
	endloop
endfacet
facet normal -0.000000e+00 -5.257311e-01 -8.506508e-01
	outer loop
		vertex 3.319861e-01 0.000000e+00 1.000000e+00
		vertex 3.319861e-01 0.000000e+00 1.000000e+00
		vertex 3.974107e-01 4.043462e-02 9.750100e-01
	endloop
endfacet
facet normal 0.000000e+00 0.000000e+00 0.000000e+00
	outer loop
		vertex 3.319861e-01 0.000000e+00 1.000000e+00
		vertex 3.319861e-01 0.000000e+00 1.000000e+00
		vertex 3.319861e-01 0.000000e+00 1.000000e+00
	endloop
endfacet
facet normal 0.000000e+00 0.000000e+00 0.000000e+00
	outer loop
		vertex 3.319861e-01 0.000000e+00 1.000000e+00
		vertex 3.319861e-01 0.000000e+00 1.000000e+00
		vertex 3.974107e-01 4.043462e-02 9.750100e-01
	endloop
endfacet
facet normal -5.257311e-01 -8.506508e-01 -8.051104e-17
	outer loop
		vertex 3.319861e-01 1.734723e-18 9.816715e-01
		vertex 3.569760e-01 -1.544465e-02 9.904547e-01
		vertex 3.319861e-01 0.000000e+00 1.000000e+00
	endloop
endfacet
facet normal 1.000000e+00 0.000000e+00 0.000000e+00
	outer loop
		vertex 3.319861e-01 0.000000e+00 1.000000e+00
		vertex 3.319861e-01 -5.204170e-18 1.000000e+00
		vertex 3.319861e-01 1.734723e-18 9.816715e-01
	endloop
endfacet
facet normal -5.257311e-01 8.506508e-01 3.220441e-16
	outer loop
		vertex 3.319861e-01 1.734723e-18 9.816715e-01
		vertex 3.319861e-01 -5.204170e-18 1.000000e+00
		vertex 3.974107e-01 4.043462e-02 9.750100e-01
	endloop
endfacet
facet normal -5.257311e-01 -8.506508e-01 -8.051104e-17
	outer loop
		vertex 3.319861e-01 1.734723e-18 9.816715e-01
		vertex 3.569760e-01 -1.544465e-02 9.904547e-01
		vertex 3.319861e-01 0.000000e+00 1.000000e+00
	endloop
endfacet
facet normal 0.000000e+00 0.000000e+00 0.000000e+00
	outer loop
		vertex 3.319861e-01 0.000000e+00 1.000000e+00
		vertex 3.319861e-01 0.000000e+00 1.000000e+00
		vertex 3.319861e-01 1.734723e-18 9.816715e-01
	endloop
endfacet
facet normal -5.257311e-01 8.506508e-01 8.051104e-17
	outer loop
		vertex 3.319861e-01 1.734723e-18 9.816715e-01
		vertex 3.319861e-01 0.000000e+00 1.000000e+00
		vertex 3.974107e-01 4.043462e-02 9.750100e-01
	endloop
endfacet
facet normal 0.000000e+00 0.000000e+00 0.000000e+00
	outer loop
		vertex 3.319861e-01 0.000000e+00 1.000000e+00
		vertex 3.569760e-01 -1.544465e-02 9.904547e-01
		vertex 3.319861e-01 0.000000e+00 1.000000e+00
	endloop
endfacet
facet normal 0.000000e+00 0.000000e+00 0.000000e+00
	outer loop
		vertex 3.319861e-01 0.000000e+00 1.000000e+00
		vertex 3.319861e-01 0.000000e+00 1.000000e+00
		vertex 3.319861e-01 -5.204170e-18 1.000000e+00
	endloop
endfacet
facet normal -3.568221e-01 0.000000e+00 -9.341723e-01
	outer loop
		vertex 3.319861e-01 -5.204170e-18 1.000000e+00
		vertex 3.319861e-01 0.000000e+00 1.000000e+00
		vertex 3.974107e-01 4.043462e-02 9.750100e-01
	endloop
endfacet
facet normal -5.257311e-01 -8.506508e-01 -2.011434e-15
	outer loop
		vertex 3.319861e-01 -6.938894e-18 9.710580e-01
		vertex 3.724207e-01 -2.498997e-02 9.845554e-01
		vertex 3.644994e-01 -2.009432e-02 9.875810e-01
	endloop
endfacet
facet normal -5.257311e-01 -8.506508e-01 -2.746471e-15
	outer loop
		vertex 3.644994e-01 -2.009432e-02 9.875810e-01
		vertex 3.319861e-01 1.040834e-17 9.762221e-01
		vertex 3.319861e-01 -6.938894e-18 9.710580e-01
	endloop
endfacet
facet normal -5.257311e-01 8.506508e-01 -8.508796e-15
	outer loop
		vertex 3.319861e-01 -6.938894e-18 9.710580e-01
		vertex 3.319861e-01 1.040834e-17 9.762221e-01
		vertex 3.974107e-01 4.043462e-02 9.750100e-01
	endloop
endfacet
facet normal 5.257311e-01 8.506508e-01 -0.000000e+00
	outer loop
		vertex 3.319861e-01 2.775558e-17 9.762221e-01
		vertex 3.319861e-01 2.775558e-17 9.764369e-01
		vertex 3.644994e-01 -2.009432e-02 9.875810e-01
	endloop
endfacet
facet normal -5.257311e-01 8.506508e-01 0.000000e+00
	outer loop
		vertex 3.319861e-01 2.775558e-17 9.762221e-01
		vertex 3.319861e-01 2.775558e-17 9.764369e-01
		vertex 3.974107e-01 4.043462e-02 9.750100e-01
	endloop
endfacet
facet normal -5.257311e-01 -8.506508e-01 -1.768879e-14
	outer loop
		vertex 3.319861e-01 -1.040834e-17 9.764369e-01
		vertex 3.644994e-01 -2.009432e-02 9.875810e-01
		vertex 3.569760e-01 -1.544465e-02 9.904547e-01
	endloop
endfacet
facet normal -5.257311e-01 -8.506508e-01 -1.819591e-14
	outer loop
		vertex 3.569760e-01 -1.544465e-02 9.904547e-01
		vertex 3.319861e-01 -5.030698e-17 9.815075e-01
		vertex 3.319861e-01 -1.040834e-17 9.764369e-01
	endloop
endfacet
facet normal -5.257311e-01 8.506508e-01 -4.817558e-15
	outer loop
		vertex 3.319861e-01 -1.040834e-17 9.764369e-01
		vertex 3.319861e-01 -5.030698e-17 9.815075e-01
		vertex 3.974107e-01 4.043462e-02 9.750100e-01
	endloop
endfacet
facet normal 5.257311e-01 8.506508e-01 -0.000000e+00
	outer loop
		vertex 3.319861e-01 -5.551115e-17 9.815075e-01
		vertex 3.319861e-01 -5.551115e-17 9.816715e-01
		vertex 3.569760e-01 -1.544465e-02 9.904547e-01
	endloop
endfacet
facet normal -5.257311e-01 8.506508e-01 0.000000e+00
	outer loop
		vertex 3.319861e-01 -5.551115e-17 9.815075e-01
		vertex 3.319861e-01 -5.551115e-17 9.816715e-01
		vertex 3.974107e-01 4.043462e-02 9.750100e-01
	endloop
endfacet
facet normal -5.257311e-01 -8.506508e-01 2.007295e-10
	outer loop
		vertex 3.319861e-01 0.000000e+00 9.549270e-01
		vertex 3.974107e-01 -4.043462e-02 9.750100e-01
		vertex 3.974107e-01 -4.043462e-02 9.750100e-01
	endloop
endfacet
facet normal -5.257311e-01 -8.506508e-01 4.805746e-10
	outer loop
		vertex 3.974107e-01 -4.043462e-02 9.750100e-01
		vertex 3.319861e-01 1.387779e-17 9.549271e-01
		vertex 3.319861e-01 0.000000e+00 9.549270e-01
	endloop
endfacet
facet normal -5.257311e-01 8.506508e-01 -5.030622e-10
	outer loop
		vertex 3.319861e-01 0.000000e+00 9.549270e-01
		vertex 3.319861e-01 1.387779e-17 9.549271e-01
		vertex 3.974107e-01 4.043462e-02 9.750100e-01
	endloop
endfacet
facet normal 5.257311e-01 8.506508e-01 2.985988e-09
	outer loop
		vertex 3.319861e-01 -2.775558e-17 9.549271e-01
		vertex 3.319861e-01 0.000000e+00 9.549271e-01
		vertex 3.974107e-01 -4.043462e-02 9.750100e-01
	endloop
endfacet
facet normal -5.257311e-01 8.506508e-01 -2.828368e-08
	outer loop
		vertex 3.319861e-01 -2.775558e-17 9.549271e-01
		vertex 3.319861e-01 0.000000e+00 9.549271e-01
		vertex 3.974107e-01 4.043462e-02 9.750100e-01
	endloop
endfacet
facet normal -5.257311e-01 -8.506508e-01 2.007294e-10
	outer loop
		vertex 3.319861e-01 6.938894e-18 9.549270e-01
		vertex 3.974107e-01 -4.043462e-02 9.750100e-01
		vertex 3.974107e-01 -4.043462e-02 9.750100e-01
	endloop
endfacet
facet normal -5.257311e-01 -8.506508e-01 2.402873e-10
	outer loop
		vertex 3.974107e-01 -4.043462e-02 9.750100e-01
		vertex 3.319861e-01 1.387779e-17 9.549271e-01
		vertex 3.319861e-01 6.938894e-18 9.549270e-01
	endloop
endfacet
facet normal -5.257311e-01 8.506508e-01 -2.515311e-10
	outer loop
		vertex 3.319861e-01 6.938894e-18 9.549270e-01
		vertex 3.319861e-01 1.387779e-17 9.549271e-01
		vertex 3.974107e-01 4.043462e-02 9.750100e-01
	endloop
endfacet
facet normal 5.257311e-01 8.506508e-01 2.985988e-09
	outer loop
		vertex 3.319861e-01 -2.775558e-17 9.549271e-01
		vertex 3.319861e-01 0.000000e+00 9.549271e-01
		vertex 3.974107e-01 -4.043462e-02 9.750100e-01
	endloop
endfacet
facet normal -5.257311e-01 8.506508e-01 -2.828368e-08
	outer loop
		vertex 3.319861e-01 -2.775558e-17 9.549271e-01
		vertex 3.319861e-01 0.000000e+00 9.549271e-01
		vertex 3.974107e-01 4.043462e-02 9.750100e-01
	endloop
endfacet
facet normal 0.000000e+00 0.000000e+00 0.000000e+00
	outer loop
		vertex 3.319861e-01 6.938894e-18 9.549270e-01
		vertex 3.974107e-01 -4.043462e-02 9.750100e-01
		vertex 3.974107e-01 -4.043462e-02 9.750100e-01
	endloop
endfacet
facet normal 0.000000e+00 0.000000e+00 0.000000e+00
	outer loop
		vertex 3.974107e-01 -4.043462e-02 9.750100e-01
		vertex 3.319861e-01 6.938894e-18 9.549270e-01
		vertex 3.319861e-01 6.938894e-18 9.549270e-01
	endloop
endfacet
facet normal 0.000000e+00 0.000000e+00 0.000000e+00
	outer loop
		vertex 3.319861e-01 6.938894e-18 9.549270e-01
		vertex 3.974107e-01 -4.043462e-02 9.750100e-01
		vertex 3.974107e-01 -4.043462e-02 9.750100e-01
	endloop
endfacet
facet normal 0.000000e+00 0.000000e+00 0.000000e+00
	outer loop
		vertex 3.974107e-01 -4.043462e-02 9.750100e-01
		vertex 3.319861e-01 6.938894e-18 9.549270e-01
		vertex 3.319861e-01 6.938894e-18 9.549270e-01
	endloop
endfacet
facet normal 0.000000e+00 0.000000e+00 0.000000e+00
	outer loop
		vertex 3.319861e-01 6.938894e-18 9.549270e-01
		vertex 3.319861e-01 6.938894e-18 9.549270e-01
		vertex 3.974107e-01 4.043462e-02 9.750100e-01
	endloop
endfacet
facet normal 4.229010e-01 8.458020e-01 3.252287e-01
	outer loop
		vertex 3.319861e-01 -2.775558e-17 9.549270e-01
		vertex 3.319861e-01 0.000000e+00 9.549270e-01
		vertex 3.974107e-01 -4.043462e-02 9.750100e-01
	endloop
endfacet
facet normal 1.312348e-01 2.624696e-01 -9.559745e-01
	outer loop
		vertex 3.319861e-01 -2.775558e-17 9.549270e-01
		vertex 3.319861e-01 0.000000e+00 9.549270e-01
		vertex 3.974107e-01 4.043462e-02 9.750100e-01
	endloop
endfacet
facet normal 0.000000e+00 0.000000e+00 0.000000e+00
	outer loop
		vertex 3.319861e-01 6.938894e-18 9.549270e-01
		vertex 3.974107e-01 -4.043462e-02 9.750100e-01
		vertex 3.974107e-01 -4.043462e-02 9.750100e-01
	endloop
endfacet
facet normal 0.000000e+00 0.000000e+00 0.000000e+00
	outer loop
		vertex 3.974107e-01 -4.043462e-02 9.750100e-01
		vertex 3.319861e-01 6.938894e-18 9.549270e-01
		vertex 3.319861e-01 6.938894e-18 9.549270e-01
	endloop
endfacet
facet normal 0.000000e+00 0.000000e+00 0.000000e+00
	outer loop
		vertex 3.319861e-01 6.938894e-18 9.549270e-01
		vertex 3.974107e-01 -4.043462e-02 9.750100e-01
		vertex 3.974107e-01 -4.043462e-02 9.750100e-01
	endloop
endfacet
facet normal 0.000000e+00 0.000000e+00 0.000000e+00
	outer loop
		vertex 3.974107e-01 -4.043462e-02 9.750100e-01
		vertex 3.319861e-01 6.938894e-18 9.549270e-01
		vertex 3.319861e-01 6.938894e-18 9.549270e-01
	endloop
endfacet
facet normal 0.000000e+00 0.000000e+00 0.000000e+00
	outer loop
		vertex 3.319861e-01 6.938894e-18 9.549270e-01
		vertex 3.319861e-01 6.938894e-18 9.549270e-01
		vertex 3.974107e-01 4.043462e-02 9.750100e-01
	endloop
endfacet
facet normal 4.229010e-01 8.458020e-01 3.252287e-01
	outer loop
		vertex 3.319861e-01 -2.775558e-17 9.549270e-01
		vertex 3.319861e-01 0.000000e+00 9.549270e-01
		vertex 3.974107e-01 -4.043462e-02 9.750100e-01
	endloop
endfacet
facet normal 1.312348e-01 2.624696e-01 -9.559745e-01
	outer loop
		vertex 3.319861e-01 -2.775558e-17 9.549270e-01
		vertex 3.319861e-01 0.000000e+00 9.549270e-01
		vertex 3.974107e-01 4.043462e-02 9.750100e-01
	endloop
endfacet
facet normal 5.257311e-01 8.506508e-01 6.425715e-15
	outer loop
		vertex 3.319861e-01 -6.938894e-18 9.710580e-01
		vertex 3.724207e-01 -2.498997e-02 9.845554e-01
		vertex 3.734125e-01 -2.560296e-02 9.841765e-01
	endloop
endfacet
facet normal 5.257311e-01 8.506508e-01 2.116349e-14
	outer loop
		vertex 3.734125e-01 -2.560296e-02 9.841765e-01
		vertex 3.319861e-01 6.938894e-18 9.704269e-01
		vertex 3.319861e-01 -6.938894e-18 9.710580e-01
	endloop
endfacet
facet normal 5.257311e-01 -8.506508e-01 -1.870354e-14
	outer loop
		vertex 3.319861e-01 -6.938894e-18 9.710580e-01
		vertex 3.319861e-01 6.938894e-18 9.704269e-01
		vertex 3.974107e-01 4.043462e-02 9.750100e-01
	endloop
endfacet
facet normal -5.257311e-01 -8.506508e-01 -0.000000e+00
	outer loop
		vertex 3.319861e-01 2.775558e-17 9.704269e-01
		vertex 3.319861e-01 2.775558e-17 9.703939e-01
		vertex 3.734125e-01 -2.560296e-02 9.841765e-01
	endloop
endfacet
facet normal 5.257311e-01 -8.506508e-01 0.000000e+00
	outer loop
		vertex 3.319861e-01 2.775558e-17 9.704269e-01
		vertex 3.319861e-01 2.775558e-17 9.703939e-01
		vertex 3.974107e-01 4.043462e-02 9.750100e-01
	endloop
endfacet
facet normal 5.257311e-01 8.506508e-01 0.000000e+00
	outer loop
		vertex 3.319861e-01 6.938894e-18 9.703939e-01
		vertex 3.734125e-01 -2.560296e-02 9.841765e-01
		vertex 3.974107e-01 -4.043462e-02 9.750100e-01
	endloop
endfacet
facet normal 5.257311e-01 8.506508e-01 -1.180703e-15
	outer loop
		vertex 3.974107e-01 -4.043462e-02 9.750100e-01
		vertex 3.319861e-01 2.081668e-17 9.560667e-01
		vertex 3.319861e-01 6.938894e-18 9.703939e-01
	endloop
endfacet
facet normal 5.257311e-01 -8.506508e-01 -2.860928e-15
	outer loop
		vertex 3.319861e-01 6.938894e-18 9.703939e-01
		vertex 3.319861e-01 2.081668e-17 9.560667e-01
		vertex 3.974107e-01 4.043462e-02 9.750100e-01
	endloop
endfacet
facet normal -5.257311e-01 -8.506508e-01 -0.000000e+00
	outer loop
		vertex 3.319861e-01 0.000000e+00 9.560667e-01
		vertex 3.319861e-01 0.000000e+00 9.549271e-01
		vertex 3.974107e-01 -4.043462e-02 9.750100e-01
	endloop
endfacet
facet normal 5.257311e-01 -8.506508e-01 0.000000e+00
	outer loop
		vertex 3.319861e-01 0.000000e+00 9.560667e-01
		vertex 3.319861e-01 0.000000e+00 9.549271e-01
		vertex 3.974107e-01 4.043462e-02 9.750100e-01
	endloop
endfacet
facet normal -5.257311e-01 -8.506508e-01 2.530701e-15
	outer loop
		vertex 3.319861e-01 -3.122502e-17 9.273312e-01
		vertex 3.748607e-01 -2.649796e-02 9.385233e-01
		vertex 3.974107e-01 -4.043462e-02 9.750100e-01
	endloop
endfacet
facet normal -5.257311e-01 -8.506508e-01 2.205855e-15
	outer loop
		vertex 3.974107e-01 -4.043462e-02 9.750100e-01
		vertex 3.319861e-01 0.000000e+00 9.528937e-01
		vertex 3.319861e-01 -3.122502e-17 9.273312e-01
	endloop
endfacet
facet normal -5.257311e-01 8.506508e-01 1.025858e-16
	outer loop
		vertex 3.319861e-01 -3.122502e-17 9.273312e-01
		vertex 3.319861e-01 0.000000e+00 9.528937e-01
		vertex 3.974107e-01 4.043462e-02 9.750100e-01
	endloop
endfacet
facet normal 5.257311e-01 8.506508e-01 -8.870573e-15
	outer loop
		vertex 3.319861e-01 -2.775558e-17 9.528937e-01
		vertex 3.319861e-01 2.775558e-17 9.549270e-01
		vertex 3.974107e-01 -4.043462e-02 9.750100e-01
	endloop
endfacet
facet normal -5.257311e-01 8.506508e-01 -3.757636e-14
	outer loop
		vertex 3.319861e-01 -2.775558e-17 9.528937e-01
		vertex 3.319861e-01 2.775558e-17 9.549270e-01
		vertex 3.974107e-01 4.043462e-02 9.750100e-01
	endloop
endfacet
facet normal -5.257311e-01 -8.506508e-01 -7.840637e-12
	outer loop
		vertex 3.319861e-01 5.204170e-17 9.273225e-01
		vertex 3.748538e-01 -2.649371e-02 9.385122e-01
		vertex 3.748607e-01 -2.649796e-02 9.385233e-01
	endloop
endfacet
facet normal -5.257311e-01 -8.506508e-01 -5.727637e-12
	outer loop
		vertex 3.748607e-01 -2.649796e-02 9.385233e-01
		vertex 3.319861e-01 3.122502e-17 9.273308e-01
		vertex 3.319861e-01 5.204170e-17 9.273225e-01
	endloop
endfacet
facet normal -5.257311e-01 8.506508e-01 -1.388960e-12
	outer loop
		vertex 3.319861e-01 5.204170e-17 9.273225e-01
		vertex 3.319861e-01 3.122502e-17 9.273308e-01
		vertex 3.974107e-01 4.043462e-02 9.750100e-01
	endloop
endfacet
facet normal 5.257311e-01 8.506508e-01 1.250315e-11
	outer loop
		vertex 3.319861e-01 -2.775558e-17 9.273308e-01
		vertex 3.319861e-01 0.000000e+00 9.273312e-01
		vertex 3.748607e-01 -2.649796e-02 9.385233e-01
	endloop
endfacet
facet normal -5.257311e-01 8.506508e-01 -1.184315e-10
	outer loop
		vertex 3.319861e-01 -2.775558e-17 9.273308e-01
		vertex 3.319861e-01 0.000000e+00 9.273312e-01
		vertex 3.974107e-01 4.043462e-02 9.750100e-01
	endloop
endfacet
facet normal -5.257311e-01 -8.506508e-01 -2.487950e-14
	outer loop
		vertex 3.319861e-01 5.551115e-17 9.240600e-01
		vertex 3.722884e-01 -2.490819e-02 9.343613e-01
		vertex 3.748538e-01 -2.649371e-02 9.385122e-01
	endloop
endfacet
facet normal -5.257311e-01 -8.506508e-01 -3.058104e-14
	outer loop
		vertex 3.748538e-01 -2.649371e-02 9.385122e-01
		vertex 3.319861e-01 1.040834e-17 9.271555e-01
		vertex 3.319861e-01 5.551115e-17 9.240600e-01
	endloop
endfacet
facet normal -5.257311e-01 8.506508e-01 -6.461348e-15
	outer loop
		vertex 3.319861e-01 5.551115e-17 9.240600e-01
		vertex 3.319861e-01 1.040834e-17 9.271555e-01
		vertex 3.974107e-01 4.043462e-02 9.750100e-01
	endloop
endfacet
facet normal 5.257311e-01 8.506508e-01 -0.000000e+00
	outer loop
		vertex 3.319861e-01 0.000000e+00 9.271555e-01
		vertex 3.319861e-01 0.000000e+00 9.273225e-01
		vertex 3.748538e-01 -2.649371e-02 9.385122e-01
	endloop
endfacet
facet normal -5.257311e-01 8.506508e-01 0.000000e+00
	outer loop
		vertex 3.319861e-01 0.000000e+00 9.271555e-01
		vertex 3.319861e-01 0.000000e+00 9.273225e-01
		vertex 3.974107e-01 4.043462e-02 9.750100e-01
	endloop
endfacet
facet normal -5.257311e-01 -8.506508e-01 -2.231919e-14
	outer loop
		vertex 3.319861e-01 6.591949e-17 9.194153e-01
		vertex 3.686712e-01 -2.267263e-02 9.285085e-01
		vertex 3.722884e-01 -2.490819e-02 9.343613e-01
	endloop
endfacet
facet normal -5.257311e-01 -8.506508e-01 -2.485343e-14
	outer loop
		vertex 3.722884e-01 -2.490819e-02 9.343613e-01
		vertex 3.319861e-01 1.040834e-17 9.238350e-01
		vertex 3.319861e-01 6.591949e-17 9.194153e-01
	endloop
endfacet
facet normal -5.257311e-01 8.506508e-01 -2.522216e-15
	outer loop
		vertex 3.319861e-01 6.591949e-17 9.194153e-01
		vertex 3.319861e-01 1.040834e-17 9.238350e-01
		vertex 3.974107e-01 4.043462e-02 9.750100e-01
	endloop
endfacet
facet normal 5.257311e-01 8.506508e-01 1.049146e-13
	outer loop
		vertex 3.319861e-01 0.000000e+00 9.238350e-01
		vertex 3.319861e-01 -2.775558e-17 9.240600e-01
		vertex 3.722884e-01 -2.490819e-02 9.343613e-01
	endloop
endfacet
facet normal -5.257311e-01 8.506508e-01 1.049146e-13
	outer loop
		vertex 3.319861e-01 0.000000e+00 9.238350e-01
		vertex 3.319861e-01 -2.775558e-17 9.240600e-01
		vertex 3.974107e-01 4.043462e-02 9.750100e-01
	endloop
endfacet
facet normal -5.257311e-01 -8.506508e-01 -4.581008e-14
	outer loop
		vertex 3.319861e-01 5.204170e-17 9.180301e-01
		vertex 3.676003e-01 -2.201078e-02 9.267758e-01
		vertex 3.686712e-01 -2.267263e-02 9.285085e-01
	endloop
endfacet
facet normal -5.257311e-01 -8.506508e-01 -6.078417e-14
	outer loop
		vertex 3.686712e-01 -2.267263e-02 9.285085e-01
		vertex 3.319861e-01 -6.938894e-18 9.193536e-01
		vertex 3.319861e-01 5.204170e-17 9.180301e-01
	endloop
endfacet
facet normal -5.257311e-01 8.506508e-01 1.585764e-14
	outer loop
		vertex 3.319861e-01 5.204170e-17 9.180301e-01
		vertex 3.319861e-01 -6.938894e-18 9.193536e-01
		vertex 3.974107e-01 4.043462e-02 9.750100e-01
	endloop
endfacet
facet normal 5.257311e-01 8.506508e-01 -0.000000e+00
	outer loop
		vertex 3.319861e-01 0.000000e+00 9.193536e-01
		vertex 3.319861e-01 0.000000e+00 9.194153e-01
		vertex 3.686712e-01 -2.267263e-02 9.285085e-01
	endloop
endfacet
facet normal -5.257311e-01 8.506508e-01 0.000000e+00
	outer loop
		vertex 3.319861e-01 0.000000e+00 9.193536e-01
		vertex 3.319861e-01 0.000000e+00 9.194153e-01
		vertex 3.974107e-01 4.043462e-02 9.750100e-01
	endloop
endfacet
facet normal -5.257311e-01 -8.506508e-01 7.279322e-15
	outer loop
		vertex 3.319861e-01 3.469447e-17 8.698667e-01
		vertex 3.324789e-01 -3.045689e-04 8.699482e-01
		vertex 3.676003e-01 -2.201078e-02 9.267758e-01
	endloop
endfacet
facet normal -5.257311e-01 -8.506508e-01 -2.416805e-15
	outer loop
		vertex 3.676003e-01 -2.201078e-02 9.267758e-01
		vertex 3.319861e-01 6.938894e-18 9.159417e-01
		vertex 3.319861e-01 3.469447e-17 8.698667e-01
	endloop
endfacet
facet normal -5.257311e-01 8.506508e-01 -1.387770e-15
	outer loop
		vertex 3.319861e-01 3.469447e-17 8.698667e-01
		vertex 3.319861e-01 6.938894e-18 9.159417e-01
		vertex 3.974107e-01 4.043462e-02 9.750100e-01
	endloop
endfacet
facet normal 5.257311e-01 8.506508e-01 -0.000000e+00
	outer loop
		vertex 3.319861e-01 0.000000e+00 9.159417e-01
		vertex 3.319861e-01 0.000000e+00 9.180301e-01
		vertex 3.676003e-01 -2.201078e-02 9.267758e-01
	endloop
endfacet
facet normal -5.257311e-01 8.506508e-01 0.000000e+00
	outer loop
		vertex 3.319861e-01 0.000000e+00 9.159417e-01
		vertex 3.319861e-01 0.000000e+00 9.180301e-01
		vertex 3.974107e-01 4.043462e-02 9.750100e-01
	endloop
endfacet
facet normal 5.257311e-01 8.506508e-01 9.419650e-15
	outer loop
		vertex 3.319861e-01 6.938894e-18 8.691508e-01
		vertex 3.319861e-01 0.000000e+00 8.697774e-01
		vertex 3.324789e-01 -3.045689e-04 8.699482e-01
	endloop
endfacet
facet normal -5.257311e-01 8.506508e-01 9.419650e-15
	outer loop
		vertex 3.319861e-01 6.938894e-18 8.691508e-01
		vertex 3.319861e-01 0.000000e+00 8.697774e-01
		vertex 3.974107e-01 4.043462e-02 9.750100e-01
	endloop
endfacet
facet normal 5.257311e-01 8.506508e-01 -0.000000e+00
	outer loop
		vertex 3.319861e-01 0.000000e+00 8.697774e-01
		vertex 3.319861e-01 0.000000e+00 8.698667e-01
		vertex 3.324789e-01 -3.045689e-04 8.699482e-01
	endloop
endfacet
facet normal -5.257311e-01 8.506508e-01 0.000000e+00
	outer loop
		vertex 3.319861e-01 0.000000e+00 8.697774e-01
		vertex 3.319861e-01 0.000000e+00 8.698667e-01
		vertex 3.974107e-01 4.043462e-02 9.750100e-01
	endloop
endfacet
endsolid MIKE666
