solid MIKE666
facet normal 8.463686e-17 -5.220944e-01 8.528877e-01
	outer loop
		vertex 2.051787e-01 3.334218e-01 2.098468e-17
		vertex 5.191049e-02 7.385407e-01 2.479932e-01
		vertex 7.421351e-02 3.334218e-01 0.000000e+00
	endloop
endfacet
facet normal 6.696132e-14 5.220944e-01 -8.528877e-01
	outer loop
		vertex -8.527774e-02 6.503443e-01 1.940038e-01
		vertex -5.508909e-03 8.611895e-01 3.230725e-01
		vertex 3.143805e-04 8.749197e-01 3.314774e-01
	endloop
endfacet
facet normal 3.282493e-14 5.220944e-01 -8.528877e-01
	outer loop
		vertex -5.508909e-03 8.611895e-01 3.230725e-01
		vertex -7.752046e-18 8.757507e-01 3.319861e-01
		vertex 3.143805e-04 8.749197e-01 3.314774e-01
	endloop
endfacet
facet normal 8.506508e-01 9.861627e-16 5.257311e-01
	outer loop
		vertex -7.752046e-18 8.757507e-01 3.319861e-01
		vertex -6.288373e-18 8.744881e-01 3.319861e-01
		vertex 3.143805e-04 8.749197e-01 3.314774e-01
	endloop
endfacet
facet normal 3.038967e-17 5.220944e-01 -8.528877e-01
	outer loop
		vertex -2.038799e-01 3.368548e-01 2.101528e-03
		vertex 5.191049e-02 7.385407e-01 2.479932e-01
		vertex 7.421351e-02 3.334218e-01 2.775558e-17
	endloop
endfacet
facet normal 1.927260e-17 -5.220944e-01 8.528877e-01
	outer loop
		vertex 7.421351e-02 3.334218e-01 2.775558e-17
		vertex -2.038799e-01 3.368548e-01 2.101528e-03
		vertex -2.051787e-01 3.334218e-01 8.786896e-20
	endloop
endfacet
facet normal -4.256869e-16 -5.220944e-01 8.528877e-01
	outer loop
		vertex -2.038799e-01 3.368548e-01 2.101528e-03
		vertex 5.191049e-02 7.385407e-01 2.479932e-01
		vertex 3.143805e-04 8.749197e-01 3.314774e-01
	endloop
endfacet
facet normal -1.200974e-13 -5.220944e-01 8.528877e-01
	outer loop
		vertex 3.143805e-04 8.749197e-01 3.314774e-01
		vertex -8.527774e-02 6.503443e-01 1.940038e-01
		vertex -2.038799e-01 3.368548e-01 2.101528e-03
	endloop
endfacet
facet normal -8.506508e-01 1.246881e-14 -5.257311e-01
	outer loop
		vertex 0.000000e+00 8.744881e-01 3.319861e-01
		vertex 3.143805e-04 8.749197e-01 3.314774e-01
		vertex 5.191049e-02 7.385407e-01 2.479932e-01
	endloop
endfacet
facet normal 8.506508e-01 -2.226882e-16 5.257311e-01
	outer loop
		vertex 5.191049e-02 7.385407e-01 2.479932e-01
		vertex 0.000000e+00 8.744881e-01 3.319861e-01
		vertex -6.938894e-18 7.167010e-01 3.319861e-01
	endloop
endfacet
facet normal -8.506508e-01 0.000000e+00 -5.257311e-01
	outer loop
		vertex 2.051787e-01 3.334218e-01 2.098468e-17
		vertex -5.551115e-17 4.363060e-01 3.319861e-01
		vertex -2.775558e-17 5.068704e-01 3.319861e-01
	endloop
endfacet
facet normal 8.506508e-01 -6.452329e-17 5.257311e-01
	outer loop
		vertex -2.775558e-17 5.068704e-01 3.319861e-01
		vertex 2.051787e-01 3.334218e-01 2.098468e-17
		vertex 5.191049e-02 7.385407e-01 2.479932e-01
	endloop
endfacet
facet normal -8.506508e-01 0.000000e+00 -5.257311e-01
	outer loop
		vertex 5.191049e-02 7.385407e-01 2.479932e-01
		vertex -2.775558e-17 5.068704e-01 3.319861e-01
		vertex -2.081668e-17 7.167010e-01 3.319861e-01
	endloop
endfacet
facet normal 0.000000e+00 0.000000e+00 0.000000e+00
	outer loop
		vertex 2.051787e-01 3.334218e-01 2.098468e-17
		vertex 2.051787e-01 3.334218e-01 2.098468e-17
		vertex 2.051787e-01 3.334218e-01 2.098468e-17
	endloop
endfacet
facet normal 0.000000e+00 0.000000e+00 0.000000e+00
	outer loop
		vertex 2.051787e-01 3.334218e-01 2.775558e-17
		vertex 2.051787e-01 3.334218e-01 2.098468e-17
		vertex 2.051787e-01 3.334218e-01 2.098468e-17
	endloop
endfacet
facet normal 0.000000e+00 0.000000e+00 0.000000e+00
	outer loop
		vertex 2.051787e-01 3.334218e-01 0.000000e+00
		vertex 2.051787e-01 3.334218e-01 0.000000e+00
		vertex 2.051787e-01 3.334218e-01 2.098468e-17
	endloop
endfacet
facet normal 0.000000e+00 0.000000e+00 0.000000e+00
	outer loop
		vertex 2.051787e-01 3.334218e-01 2.098468e-17
		vertex 2.051787e-01 3.334218e-01 2.098468e-17
		vertex 2.051787e-01 3.334218e-01 2.098468e-17
	endloop
endfacet
facet normal 1.881925e-16 -5.220944e-01 -8.528877e-01
	outer loop
		vertex -2.051787e-01 3.334218e-01 8.786896e-20
		vertex 7.421351e-02 3.334218e-01 2.775558e-17
		vertex -2.045382e-01 3.317289e-01 1.036323e-03
	endloop
endfacet
facet normal 4.487116e-01 -3.353010e-01 -8.283907e-01
	outer loop
		vertex -2.045382e-01 3.317289e-01 1.036323e-03
		vertex -2.051787e-01 3.334218e-01 2.256239e-17
		vertex -2.051787e-01 3.334218e-01 8.786896e-20
	endloop
endfacet
facet normal 2.233181e-16 -5.220944e-01 -8.528877e-01
	outer loop
		vertex -2.051787e-01 3.334218e-01 2.256239e-17
		vertex 7.421351e-02 3.334218e-01 2.775558e-17
		vertex -2.045382e-01 3.317289e-01 1.036323e-03
	endloop
endfacet
facet normal 4.487116e-01 -3.353010e-01 -8.283907e-01
	outer loop
		vertex -2.045382e-01 3.317289e-01 1.036323e-03
		vertex -2.051787e-01 3.334218e-01 2.256239e-17
		vertex -2.051787e-01 3.334218e-01 8.786896e-20
	endloop
endfacet
facet normal 0.000000e+00 0.000000e+00 0.000000e+00
	outer loop
		vertex -2.051787e-01 3.334218e-01 8.786896e-20
		vertex -2.051787e-01 3.334218e-01 2.256239e-17
		vertex -2.051787e-01 3.334218e-01 2.256239e-17
	endloop
endfacet
facet normal 0.000000e+00 0.000000e+00 0.000000e+00
	outer loop
		vertex -2.051787e-01 3.334218e-01 2.256239e-17
		vertex -2.051787e-01 3.334218e-01 2.256239e-17
		vertex -2.051787e-01 3.334218e-01 2.256239e-17
	endloop
endfacet
facet normal 0.000000e+00 0.000000e+00 0.000000e+00
	outer loop
		vertex -1.143228e-03 2.058853e-01 3.301363e-01
		vertex -1.143228e-03 2.058853e-01 3.301363e-01
		vertex 1.734723e-17 2.089070e-01 3.319861e-01
	endloop
endfacet
facet normal 4.611109e-01 -5.839616e-01 6.681059e-01
	outer loop
		vertex -1.143228e-03 2.058853e-01 3.301363e-01
		vertex 1.734723e-17 2.089070e-01 3.319861e-01
		vertex -2.775558e-17 2.089070e-01 3.319861e-01
	endloop
endfacet
facet normal -5.482182e-01 5.782302e-01 -6.042405e-01
	outer loop
		vertex -2.775558e-17 2.089070e-01 3.319861e-01
		vertex -1.143228e-03 2.058853e-01 3.301363e-01
		vertex -1.143228e-03 2.058853e-01 3.301363e-01
	endloop
endfacet
facet normal 4.616296e-01 -5.846185e-01 6.671727e-01
	outer loop
		vertex -1.143228e-03 2.058853e-01 3.301363e-01
		vertex 1.734723e-17 2.089070e-01 3.319861e-01
		vertex -2.775558e-17 2.089070e-01 3.319861e-01
	endloop
endfacet
facet normal -5.482182e-01 5.782302e-01 -6.042405e-01
	outer loop
		vertex -2.775558e-17 2.089070e-01 3.319861e-01
		vertex -1.143228e-03 2.058853e-01 3.301363e-01
		vertex -1.143228e-03 2.058853e-01 3.301363e-01
	endloop
endfacet
facet normal 8.506508e-01 4.501111e-17 -5.257311e-01
	outer loop
		vertex -8.148833e-02 2.555413e-01 2.001352e-01
		vertex -8.527774e-02 6.503443e-01 1.940038e-01
		vertex -5.508909e-03 8.611895e-01 3.230725e-01
	endloop
endfacet
facet normal -8.506508e-01 -3.030880e-17 5.257311e-01
	outer loop
		vertex -5.508909e-03 8.611895e-01 3.230725e-01
		vertex -8.148833e-02 2.555413e-01 2.001352e-01
		vertex -5.843444e-02 2.412932e-01 2.374372e-01
	endloop
endfacet
facet normal 8.506508e-01 3.448927e-16 -5.257311e-01
	outer loop
		vertex -5.843444e-02 2.412932e-01 2.374372e-01
		vertex -5.508909e-03 8.611895e-01 3.230725e-01
		vertex -7.752046e-18 8.757507e-01 3.319861e-01
	endloop
endfacet
facet normal -8.506508e-01 -1.221702e-15 5.257311e-01
	outer loop
		vertex -7.752046e-18 8.757507e-01 3.319861e-01
		vertex -5.843444e-02 2.412932e-01 2.374372e-01
		vertex -5.732121e-02 2.406052e-01 2.392384e-01
	endloop
endfacet
facet normal 8.506508e-01 0.000000e+00 -5.257311e-01
	outer loop
		vertex -5.732121e-02 2.406052e-01 2.392384e-01
		vertex -7.752046e-18 8.757507e-01 3.319861e-01
		vertex -6.288373e-18 8.744881e-01 3.319861e-01
	endloop
endfacet
facet normal -8.506508e-01 0.000000e+00 5.257311e-01
	outer loop
		vertex -6.288373e-18 8.744881e-01 3.319861e-01
		vertex -5.732121e-02 2.406052e-01 2.392384e-01
		vertex -5.729152e-02 2.405868e-01 2.392865e-01
	endloop
endfacet
facet normal -2.801396e-15 5.220944e-01 8.528877e-01
	outer loop
		vertex -2.044698e-01 3.315480e-01 1.147064e-03
		vertex -2.042554e-01 3.314155e-01 1.228177e-03
		vertex -2.045382e-01 3.317289e-01 1.036323e-03
	endloop
endfacet
facet normal -7.442681e-01 1.205496e-01 6.569115e-01
	outer loop
		vertex -2.044698e-01 3.315480e-01 1.147064e-03
		vertex -2.044698e-01 3.315480e-01 1.147064e-03
		vertex -2.045382e-01 3.317289e-01 1.036323e-03
	endloop
endfacet
facet normal 8.506508e-01 -3.747175e-16 -5.257311e-01
	outer loop
		vertex -5.800312e-03 2.087635e-01 3.226010e-01
		vertex -1.387779e-17 2.252978e-01 3.319861e-01
		vertex -5.551115e-17 2.089070e-01 3.319861e-01
	endloop
endfacet
facet normal -8.506508e-01 -2.410809e-15 5.257311e-01
	outer loop
		vertex -5.551115e-17 2.089070e-01 3.319861e-01
		vertex -5.800312e-03 2.087635e-01 3.226010e-01
		vertex -1.143228e-03 2.058853e-01 3.301363e-01
	endloop
endfacet
facet normal 5.510152e-16 -5.220944e-01 -8.528877e-01
	outer loop
		vertex -2.042554e-01 3.314155e-01 1.228177e-03
		vertex -2.045382e-01 3.317289e-01 1.036323e-03
		vertex 7.421351e-02 3.334218e-01 2.775558e-17
	endloop
endfacet
facet normal 8.506508e-01 -2.523151e-15 -5.257311e-01
	outer loop
		vertex -1.294950e-02 2.131819e-01 3.110333e-01
		vertex 0.000000e+00 2.549547e-01 3.319861e-01
		vertex -5.551115e-17 2.252978e-01 3.319861e-01
	endloop
endfacet
facet normal -8.506508e-01 2.674931e-15 5.257311e-01
	outer loop
		vertex -5.551115e-17 2.252978e-01 3.319861e-01
		vertex -1.294950e-02 2.131819e-01 3.110333e-01
		vertex -5.800312e-03 2.087635e-01 3.226010e-01
	endloop
endfacet
facet normal 8.506508e-01 3.064790e-15 -5.257311e-01
	outer loop
		vertex -2.044698e-01 3.315480e-01 1.147064e-03
		vertex -2.051787e-01 3.334218e-01 8.786896e-20
		vertex -2.038799e-01 3.368548e-01 2.101528e-03
	endloop
endfacet
facet normal -8.506508e-01 -3.847395e-15 5.257311e-01
	outer loop
		vertex -2.038799e-01 3.368548e-01 2.101528e-03
		vertex -2.044698e-01 3.315480e-01 1.147064e-03
		vertex -2.011534e-01 3.294984e-01 6.512994e-03
	endloop
endfacet
facet normal 8.506508e-01 8.910348e-16 -5.257311e-01
	outer loop
		vertex -2.011534e-01 3.294984e-01 6.512994e-03
		vertex -2.038799e-01 3.368548e-01 2.101528e-03
		vertex -8.527774e-02 6.503443e-01 1.940038e-01
	endloop
endfacet
facet normal -8.506508e-01 -7.282174e-17 5.257311e-01
	outer loop
		vertex -8.527774e-02 6.503443e-01 1.940038e-01
		vertex -2.011534e-01 3.294984e-01 6.512994e-03
		vertex -8.148833e-02 2.555413e-01 2.001352e-01
	endloop
endfacet
facet normal -8.506508e-01 -1.094479e-16 5.257311e-01
	outer loop
		vertex -5.280985e-02 2.378170e-01 2.465380e-01
		vertex -6.938894e-18 7.167010e-01 3.319861e-01
		vertex 0.000000e+00 8.744881e-01 3.319861e-01
	endloop
endfacet
facet normal 8.506508e-01 1.520187e-16 -5.257311e-01
	outer loop
		vertex 0.000000e+00 8.744881e-01 3.319861e-01
		vertex -5.280985e-02 2.378170e-01 2.465380e-01
		vertex -5.729152e-02 2.405868e-01 2.392865e-01
	endloop
endfacet
facet normal 8.506508e-01 -1.001704e-16 -5.257311e-01
	outer loop
		vertex -3.765264e-02 2.284493e-01 2.710628e-01
		vertex -2.775558e-17 4.363060e-01 3.319861e-01
		vertex -5.551115e-17 2.549547e-01 3.319861e-01
	endloop
endfacet
facet normal -8.506508e-01 5.562665e-16 5.257311e-01
	outer loop
		vertex -5.551115e-17 2.549547e-01 3.319861e-01
		vertex -3.765264e-02 2.284493e-01 2.710628e-01
		vertex -1.294950e-02 2.131819e-01 3.110333e-01
	endloop
endfacet
facet normal 8.506508e-01 -7.530357e-16 -5.257311e-01
	outer loop
		vertex -4.290741e-02 2.316969e-01 2.625604e-01
		vertex -2.775558e-17 5.068704e-01 3.319861e-01
		vertex -5.551115e-17 4.363060e-01 3.319861e-01
	endloop
endfacet
facet normal -8.506508e-01 1.501824e-15 5.257311e-01
	outer loop
		vertex -5.551115e-17 4.363060e-01 3.319861e-01
		vertex -4.290741e-02 2.316969e-01 2.625604e-01
		vertex -3.765264e-02 2.284493e-01 2.710628e-01
	endloop
endfacet
facet normal 8.506508e-01 -4.115099e-17 -5.257311e-01
	outer loop
		vertex -5.280985e-02 2.378170e-01 2.465380e-01
		vertex -2.081668e-17 7.167010e-01 3.319861e-01
		vertex -2.775558e-17 5.068704e-01 3.319861e-01
	endloop
endfacet
facet normal -8.506508e-01 2.289546e-16 5.257311e-01
	outer loop
		vertex -2.775558e-17 5.068704e-01 3.319861e-01
		vertex -5.280985e-02 2.378170e-01 2.465380e-01
		vertex -4.290741e-02 2.316969e-01 2.625604e-01
	endloop
endfacet
facet normal 8.034433e-01 -5.844445e-02 -5.925058e-01
	outer loop
		vertex -2.044698e-01 3.315480e-01 1.147064e-03
		vertex -2.051787e-01 3.334218e-01 2.256239e-17
		vertex -2.045382e-01 3.317289e-01 1.036323e-03
	endloop
endfacet
facet normal -8.293800e-01 -4.841194e-01 -2.788498e-01
	outer loop
		vertex -2.045382e-01 3.317289e-01 1.036323e-03
		vertex -2.044698e-01 3.315480e-01 1.147064e-03
		vertex -2.044698e-01 3.315480e-01 1.147064e-03
	endloop
endfacet
facet normal 9.516526e-01 2.544003e-01 -1.721563e-01
	outer loop
		vertex -2.044698e-01 3.315480e-01 1.147064e-03
		vertex -2.051787e-01 3.334218e-01 2.256239e-17
		vertex -2.045382e-01 3.317289e-01 1.036323e-03
	endloop
endfacet
facet normal -8.293800e-01 -4.841194e-01 -2.788498e-01
	outer loop
		vertex -2.045382e-01 3.317289e-01 1.036323e-03
		vertex -2.044698e-01 3.315480e-01 1.147064e-03
		vertex -2.044698e-01 3.315480e-01 1.147064e-03
	endloop
endfacet
facet normal 0.000000e+00 0.000000e+00 0.000000e+00
	outer loop
		vertex -2.044698e-01 3.315480e-01 1.147064e-03
		vertex -2.051787e-01 3.334218e-01 2.256239e-17
		vertex -2.051787e-01 3.334218e-01 2.256239e-17
	endloop
endfacet
facet normal 0.000000e+00 0.000000e+00 0.000000e+00
	outer loop
		vertex -2.051787e-01 3.334218e-01 2.256239e-17
		vertex -2.044698e-01 3.315480e-01 1.147064e-03
		vertex -2.044698e-01 3.315480e-01 1.147064e-03
	endloop
endfacet
facet normal 0.000000e+00 0.000000e+00 0.000000e+00
	outer loop
		vertex -2.044698e-01 3.315480e-01 1.147064e-03
		vertex -2.051787e-01 3.334218e-01 2.256239e-17
		vertex -2.051787e-01 3.334218e-01 2.256239e-17
	endloop
endfacet
facet normal 0.000000e+00 0.000000e+00 0.000000e+00
	outer loop
		vertex -2.051787e-01 3.334218e-01 2.256239e-17
		vertex -2.044698e-01 3.315480e-01 1.147064e-03
		vertex -2.044698e-01 3.315480e-01 1.147064e-03
	endloop
endfacet
facet normal 8.034433e-01 -5.844445e-02 -5.925058e-01
	outer loop
		vertex -2.044698e-01 3.315480e-01 1.147064e-03
		vertex -2.051787e-01 3.334218e-01 2.256239e-17
		vertex -2.045382e-01 3.317289e-01 1.036323e-03
	endloop
endfacet
facet normal -8.293800e-01 -4.841194e-01 -2.788498e-01
	outer loop
		vertex -2.045382e-01 3.317289e-01 1.036323e-03
		vertex -2.044698e-01 3.315480e-01 1.147064e-03
		vertex -2.044698e-01 3.315480e-01 1.147064e-03
	endloop
endfacet
facet normal 9.516526e-01 2.544003e-01 -1.721563e-01
	outer loop
		vertex -2.044698e-01 3.315480e-01 1.147064e-03
		vertex -2.051787e-01 3.334218e-01 2.256239e-17
		vertex -2.045382e-01 3.317289e-01 1.036323e-03
	endloop
endfacet
facet normal -8.293800e-01 -4.841194e-01 -2.788498e-01
	outer loop
		vertex -2.045382e-01 3.317289e-01 1.036323e-03
		vertex -2.044698e-01 3.315480e-01 1.147064e-03
		vertex -2.044698e-01 3.315480e-01 1.147064e-03
	endloop
endfacet
facet normal 0.000000e+00 0.000000e+00 0.000000e+00
	outer loop
		vertex -2.044698e-01 3.315480e-01 1.147064e-03
		vertex -2.051787e-01 3.334218e-01 2.256239e-17
		vertex -2.051787e-01 3.334218e-01 2.256239e-17
	endloop
endfacet
facet normal 0.000000e+00 0.000000e+00 0.000000e+00
	outer loop
		vertex -2.051787e-01 3.334218e-01 2.256239e-17
		vertex -2.044698e-01 3.315480e-01 1.147064e-03
		vertex -2.044698e-01 3.315480e-01 1.147064e-03
	endloop
endfacet
facet normal 0.000000e+00 0.000000e+00 0.000000e+00
	outer loop
		vertex -2.044698e-01 3.315480e-01 1.147064e-03
		vertex -2.051787e-01 3.334218e-01 2.256239e-17
		vertex -2.051787e-01 3.334218e-01 2.256239e-17
	endloop
endfacet
facet normal 0.000000e+00 0.000000e+00 0.000000e+00
	outer loop
		vertex -2.051787e-01 3.334218e-01 2.256239e-17
		vertex -2.044698e-01 3.315480e-01 1.147064e-03
		vertex -2.044698e-01 3.315480e-01 1.147064e-03
	endloop
endfacet
facet normal -3.576697e-16 5.220944e-01 8.528877e-01
	outer loop
		vertex 2.044698e-01 3.315480e-01 1.147064e-03
		vertex 2.051787e-01 3.334218e-01 2.098468e-17
		vertex 7.421351e-02 3.334218e-01 0.000000e+00
	endloop
endfacet
facet normal -3.393169e-16 5.220944e-01 8.528877e-01
	outer loop
		vertex 7.421351e-02 3.334218e-01 0.000000e+00
		vertex 1.201105e-01 2.794111e-01 3.306261e-02
		vertex 2.044698e-01 3.315480e-01 1.147064e-03
	endloop
endfacet
facet normal 0.000000e+00 0.000000e+00 0.000000e+00
	outer loop
		vertex 2.044698e-01 3.315480e-01 1.147064e-03
		vertex 1.201105e-01 2.794111e-01 3.306261e-02
		vertex 1.201105e-01 2.794111e-01 3.306261e-02
	endloop
endfacet
facet normal -8.506508e-01 1.195625e-16 -5.257311e-01
	outer loop
		vertex 6.309135e-02 2.441713e-01 2.299021e-01
		vertex -5.551115e-17 2.549547e-01 3.319861e-01
		vertex -2.775558e-17 4.363060e-01 3.319861e-01
	endloop
endfacet
facet normal -8.506508e-01 0.000000e+00 -5.257311e-01
	outer loop
		vertex -2.775558e-17 4.363060e-01 3.319861e-01
		vertex 1.223440e-01 2.807914e-01 1.340294e-01
		vertex 6.309135e-02 2.441713e-01 2.299021e-01
	endloop
endfacet
facet normal -5.257311e-01 8.506508e-01 5.358033e-16
	outer loop
		vertex 6.309135e-02 2.441713e-01 2.299021e-01
		vertex 1.223440e-01 2.807914e-01 1.340294e-01
		vertex 1.201105e-01 2.794111e-01 3.306261e-02
	endloop
endfacet
facet normal -8.506508e-01 0.000000e+00 -5.257311e-01
	outer loop
		vertex 1.223440e-01 2.807914e-01 1.340294e-01
		vertex -5.551115e-17 4.363060e-01 3.319861e-01
		vertex 2.051787e-01 3.334218e-01 2.098468e-17
	endloop
endfacet
facet normal -8.506508e-01 -8.580876e-15 -5.257311e-01
	outer loop
		vertex 2.051787e-01 3.334218e-01 2.098468e-17
		vertex 2.044698e-01 3.315480e-01 1.147064e-03
		vertex 1.223440e-01 2.807914e-01 1.340294e-01
	endloop
endfacet
facet normal -5.257311e-01 8.506508e-01 5.597279e-16
	outer loop
		vertex 1.223440e-01 2.807914e-01 1.340294e-01
		vertex 2.044698e-01 3.315480e-01 1.147064e-03
		vertex 1.201105e-01 2.794111e-01 3.306261e-02
	endloop
endfacet
facet normal -5.464988e-15 5.220944e-01 8.528877e-01
	outer loop
		vertex 7.660417e-02 2.525227e-01 4.952232e-02
		vertex 7.912037e-02 2.540778e-01 4.857037e-02
		vertex 7.421351e-02 3.334218e-01 2.775558e-17
	endloop
endfacet
facet normal -2.686063e-01 -1.478236e-01 -9.518397e-01
	outer loop
		vertex 7.660417e-02 2.525227e-01 4.952232e-02
		vertex 7.912037e-02 2.540778e-01 4.857037e-02
		vertex 1.201105e-01 2.794111e-01 3.306261e-02
	endloop
endfacet
facet normal -4.047029e-17 -5.220944e-01 -8.528877e-01
	outer loop
		vertex 1.201105e-01 2.794111e-01 3.306261e-02
		vertex 9.237337e-02 2.622686e-01 4.355638e-02
		vertex 7.421351e-02 3.334218e-01 0.000000e+00
	endloop
endfacet
facet normal -1.022842e-01 -3.937139e-01 -9.135247e-01
	outer loop
		vertex 1.201105e-01 2.794111e-01 3.306261e-02
		vertex 9.237337e-02 2.622686e-01 4.355638e-02
		vertex 1.201105e-01 2.794111e-01 3.306261e-02
	endloop
endfacet
facet normal -1.355201e-15 5.220944e-01 8.528877e-01
	outer loop
		vertex 7.912037e-02 2.540778e-01 4.857037e-02
		vertex 9.237337e-02 2.622686e-01 4.355638e-02
		vertex 7.421351e-02 3.334218e-01 0.000000e+00
	endloop
endfacet
facet normal -3.959442e-01 9.137174e-02 -9.137174e-01
	outer loop
		vertex 7.912037e-02 2.540778e-01 4.857037e-02
		vertex 9.237337e-02 2.622686e-01 4.355638e-02
		vertex 1.201105e-01 2.794111e-01 3.306261e-02
	endloop
endfacet
facet normal 1.838968e-14 5.220944e-01 -8.528877e-01
	outer loop
		vertex -1.626303e-17 2.051787e-01 3.297038e-01
		vertex -1.143228e-03 2.058853e-01 3.301363e-01
		vertex 1.734723e-17 2.089070e-01 3.319861e-01
	endloop
endfacet
facet normal -3.101669e-14 5.220944e-01 -8.528877e-01
	outer loop
		vertex 1.734723e-17 2.089070e-01 3.319861e-01
		vertex 1.143228e-03 2.058853e-01 3.301363e-01
		vertex -1.626303e-17 2.051787e-01 3.297038e-01
	endloop
endfacet
facet normal -5.257311e-01 8.506508e-01 -4.539717e-15
	outer loop
		vertex -1.626303e-17 2.051787e-01 3.297038e-01
		vertex 1.143228e-03 2.058853e-01 3.301363e-01
		vertex 1.201105e-01 2.794111e-01 3.306261e-02
	endloop
endfacet
facet normal 5.257311e-01 8.506508e-01 4.626691e-16
	outer loop
		vertex -1.626303e-17 2.051787e-01 3.297038e-01
		vertex -1.387779e-17 2.051787e-01 3.269934e-01
		vertex -1.143228e-03 2.058853e-01 3.301363e-01
	endloop
endfacet
facet normal 5.257311e-01 -8.506508e-01 4.626691e-16
	outer loop
		vertex -1.626303e-17 2.051787e-01 3.297038e-01
		vertex -1.387779e-17 2.051787e-01 3.269934e-01
		vertex 1.201105e-01 2.794111e-01 3.306261e-02
	endloop
endfacet
facet normal 0.000000e+00 0.000000e+00 0.000000e+00
	outer loop
		vertex -1.778092e-17 2.051787e-01 3.269934e-01
		vertex -1.143228e-03 2.058853e-01 3.301363e-01
		vertex -1.143228e-03 2.058853e-01 3.301363e-01
	endloop
endfacet
facet normal 9.405584e-01 1.324087e-01 3.127585e-01
	outer loop
		vertex -1.143228e-03 2.058853e-01 3.301363e-01
		vertex -1.387779e-17 2.051787e-01 3.269934e-01
		vertex -1.778092e-17 2.051787e-01 3.269934e-01
	endloop
endfacet
facet normal 0.000000e+00 0.000000e+00 0.000000e+00
	outer loop
		vertex -1.387779e-17 2.051787e-01 3.269934e-01
		vertex -1.143228e-03 2.058853e-01 3.301363e-01
		vertex -1.143228e-03 2.058853e-01 3.301363e-01
	endloop
endfacet
facet normal 9.405584e-01 1.324087e-01 3.127585e-01
	outer loop
		vertex -1.143228e-03 2.058853e-01 3.301363e-01
		vertex -1.387779e-17 2.051787e-01 3.269934e-01
		vertex -1.778092e-17 2.051787e-01 3.269934e-01
	endloop
endfacet
facet normal 9.064560e-01 1.274704e-01 4.026026e-01
	outer loop
		vertex -1.778092e-17 2.051787e-01 3.269934e-01
		vertex -1.387779e-17 2.051787e-01 3.269934e-01
		vertex 1.201105e-01 2.794111e-01 3.306261e-02
	endloop
endfacet
facet normal 7.392427e-01 -1.258855e-01 6.615686e-01
	outer loop
		vertex 1.143228e-03 2.058853e-01 3.301363e-01
		vertex 1.734723e-17 2.089070e-01 3.319861e-01
		vertex -2.775558e-17 2.089070e-01 3.319861e-01
	endloop
endfacet
facet normal 0.000000e+00 -5.279341e-01 8.492853e-01
	outer loop
		vertex -2.775558e-17 2.089070e-01 3.319861e-01
		vertex 1.143228e-03 2.058853e-01 3.301363e-01
		vertex 1.143228e-03 2.058853e-01 3.301363e-01
	endloop
endfacet
facet normal 7.392427e-01 -1.258855e-01 6.615686e-01
	outer loop
		vertex 1.143228e-03 2.058853e-01 3.301363e-01
		vertex 1.734723e-17 2.089070e-01 3.319861e-01
		vertex -2.775558e-17 2.089070e-01 3.319861e-01
	endloop
endfacet
facet normal 0.000000e+00 -5.279341e-01 8.492853e-01
	outer loop
		vertex -2.775558e-17 2.089070e-01 3.319861e-01
		vertex 1.143228e-03 2.058853e-01 3.301363e-01
		vertex 1.143228e-03 2.058853e-01 3.301363e-01
	endloop
endfacet
facet normal -0.000000e+00 -9.707107e-01 -2.402512e-01
	outer loop
		vertex 1.143228e-03 2.058853e-01 3.301363e-01
		vertex 1.143228e-03 2.058853e-01 3.301363e-01
		vertex 1.201105e-01 2.794111e-01 3.306261e-02
	endloop
endfacet
facet normal -9.255773e-01 -1.332745e-01 -3.543226e-01
	outer loop
		vertex 1.143228e-03 2.058853e-01 3.301363e-01
		vertex 1.143228e-03 2.058853e-01 3.301363e-01
		vertex -2.775558e-17 2.089070e-01 3.319861e-01
	endloop
endfacet
facet normal -9.318439e-01 6.645789e-02 -3.567215e-01
	outer loop
		vertex 1.143228e-03 2.058853e-01 3.301363e-01
		vertex 1.143228e-03 2.058853e-01 3.301363e-01
		vertex 1.201105e-01 2.794111e-01 3.306261e-02
	endloop
endfacet
facet normal 7.365458e-01 -1.290299e-01 6.639665e-01
	outer loop
		vertex 1.143228e-03 2.058853e-01 3.301363e-01
		vertex 1.734723e-17 2.089070e-01 3.319861e-01
		vertex -2.775558e-17 2.089070e-01 3.319861e-01
	endloop
endfacet
facet normal 0.000000e+00 -5.178027e-01 8.555001e-01
	outer loop
		vertex -2.775558e-17 2.089070e-01 3.319861e-01
		vertex 1.143228e-03 2.058853e-01 3.301363e-01
		vertex 1.143228e-03 2.058853e-01 3.301363e-01
	endloop
endfacet
facet normal 7.367988e-01 -1.263852e-01 6.641945e-01
	outer loop
		vertex 1.143228e-03 2.058853e-01 3.301363e-01
		vertex 1.734723e-17 2.089070e-01 3.319861e-01
		vertex -2.775558e-17 2.089070e-01 3.319861e-01
	endloop
endfacet
facet normal 0.000000e+00 -5.178027e-01 8.555001e-01
	outer loop
		vertex -2.775558e-17 2.089070e-01 3.319861e-01
		vertex 1.143228e-03 2.058853e-01 3.301363e-01
		vertex 1.143228e-03 2.058853e-01 3.301363e-01
	endloop
endfacet
facet normal -0.000000e+00 -9.707107e-01 -2.402512e-01
	outer loop
		vertex 1.143228e-03 2.058853e-01 3.301363e-01
		vertex 1.143228e-03 2.058853e-01 3.301363e-01
		vertex 1.201105e-01 2.794111e-01 3.306261e-02
	endloop
endfacet
facet normal -9.255773e-01 -1.332745e-01 -3.543226e-01
	outer loop
		vertex 1.143228e-03 2.058853e-01 3.301363e-01
		vertex 1.143228e-03 2.058853e-01 3.301363e-01
		vertex -2.775558e-17 2.089070e-01 3.319861e-01
	endloop
endfacet
facet normal -9.318439e-01 6.645789e-02 -3.567215e-01
	outer loop
		vertex 1.143228e-03 2.058853e-01 3.301363e-01
		vertex 1.143228e-03 2.058853e-01 3.301363e-01
		vertex 1.201105e-01 2.794111e-01 3.306261e-02
	endloop
endfacet
facet normal 7.865820e-01 5.986376e-01 1.513996e-01
	outer loop
		vertex -1.778092e-17 2.051787e-01 3.269934e-01
		vertex -1.143228e-03 2.058853e-01 3.301363e-01
		vertex -1.143228e-03 2.058853e-01 3.301363e-01
	endloop
endfacet
facet normal 7.896501e-01 5.939846e-01 1.537372e-01
	outer loop
		vertex -1.143228e-03 2.058853e-01 3.301363e-01
		vertex 1.387779e-17 2.051787e-01 3.269934e-01
		vertex -1.778092e-17 2.051787e-01 3.269934e-01
	endloop
endfacet
facet normal 7.859628e-01 5.998137e-01 1.499534e-01
	outer loop
		vertex 1.387779e-17 2.051787e-01 3.269934e-01
		vertex -1.143228e-03 2.058853e-01 3.301363e-01
		vertex -1.143228e-03 2.058853e-01 3.301363e-01
	endloop
endfacet
facet normal 7.896501e-01 5.939846e-01 1.537372e-01
	outer loop
		vertex -1.143228e-03 2.058853e-01 3.301363e-01
		vertex 1.387779e-17 2.051787e-01 3.269934e-01
		vertex -1.778092e-17 2.051787e-01 3.269934e-01
	endloop
endfacet
facet normal 8.907203e-01 1.913614e-01 4.123082e-01
	outer loop
		vertex -1.778092e-17 2.051787e-01 3.269934e-01
		vertex 1.387779e-17 2.051787e-01 3.269934e-01
		vertex 1.201105e-01 2.794111e-01 3.306261e-02
	endloop
endfacet
facet normal -5.257311e-01 -8.506508e-01 2.252871e-15
	outer loop
		vertex 5.551115e-17 2.051787e-01 1.828233e-01
		vertex -5.843444e-02 2.412932e-01 2.374372e-01
		vertex -8.148833e-02 2.555413e-01 2.001352e-01
	endloop
endfacet
facet normal 5.257311e-01 8.506508e-01 -2.493239e-15
	outer loop
		vertex -8.148833e-02 2.555413e-01 2.001352e-01
		vertex 5.551115e-17 2.051787e-01 1.828233e-01
		vertex -4.163336e-17 2.051787e-01 1.537709e-01
	endloop
endfacet
facet normal -5.257311e-01 8.506508e-01 9.452430e-16
	outer loop
		vertex -4.163336e-17 2.051787e-01 1.537709e-01
		vertex 5.551115e-17 2.051787e-01 1.828233e-01
		vertex 1.201105e-01 2.794111e-01 3.306261e-02
	endloop
endfacet
facet normal -5.257311e-01 -8.506508e-01 3.369785e-14
	outer loop
		vertex 4.163336e-17 2.051787e-01 1.844740e-01
		vertex -5.732121e-02 2.406052e-01 2.392384e-01
		vertex -5.843444e-02 2.412932e-01 2.374372e-01
	endloop
endfacet
facet normal 5.257311e-01 8.506508e-01 -3.059557e-14
	outer loop
		vertex -5.843444e-02 2.412932e-01 2.374372e-01
		vertex 4.163336e-17 2.051787e-01 1.844740e-01
		vertex -5.551115e-17 2.051787e-01 1.828233e-01
	endloop
endfacet
facet normal -5.257311e-01 8.506508e-01 3.093840e-14
	outer loop
		vertex -5.551115e-17 2.051787e-01 1.828233e-01
		vertex 4.163336e-17 2.051787e-01 1.844740e-01
		vertex 1.201105e-01 2.794111e-01 3.306261e-02
	endloop
endfacet
facet normal -5.257311e-01 -8.506508e-01 8.425393e-13
	outer loop
		vertex 5.551115e-17 2.051787e-01 1.845184e-01
		vertex -5.729152e-02 2.405868e-01 2.392865e-01
		vertex -5.732121e-02 2.406052e-01 2.392384e-01
	endloop
endfacet
facet normal 5.257311e-01 8.506508e-01 -1.014738e-12
	outer loop
		vertex -5.732121e-02 2.406052e-01 2.392384e-01
		vertex 5.551115e-17 2.051787e-01 1.845184e-01
		vertex -2.775558e-17 2.051787e-01 1.844740e-01
	endloop
endfacet
facet normal -5.257311e-01 8.506508e-01 9.860182e-13
	outer loop
		vertex -2.775558e-17 2.051787e-01 1.844740e-01
		vertex 5.551115e-17 2.051787e-01 1.845184e-01
		vertex 1.201105e-01 2.794111e-01 3.306261e-02
	endloop
endfacet
facet normal 9.950372e-02 5.970223e-01 7.960298e-01
	outer loop
		vertex 2.775558e-17 2.051787e-01 7.850390e-02
		vertex -2.044698e-01 3.315480e-01 1.147064e-03
		vertex -2.042554e-01 3.314155e-01 1.228177e-03
	endloop
endfacet
facet normal -4.472136e-01 0.000000e+00 8.944272e-01
	outer loop
		vertex -2.042554e-01 3.314155e-01 1.228177e-03
		vertex 1.387779e-17 2.051787e-01 7.850390e-02
		vertex 2.775558e-17 2.051787e-01 7.850390e-02
	endloop
endfacet
facet normal 1.373606e-01 5.494423e-01 8.241634e-01
	outer loop
		vertex 1.387779e-17 2.051787e-01 7.850390e-02
		vertex -2.044698e-01 3.315480e-01 1.147064e-03
		vertex -2.042554e-01 3.314155e-01 1.228177e-03
	endloop
endfacet
facet normal -4.472136e-01 0.000000e+00 8.944272e-01
	outer loop
		vertex -2.042554e-01 3.314155e-01 1.228177e-03
		vertex 1.387779e-17 2.051787e-01 7.850390e-02
		vertex 2.775558e-17 2.051787e-01 7.850390e-02
	endloop
endfacet
facet normal 3.786761e-01 -8.445169e-01 -3.786761e-01
	outer loop
		vertex 2.775558e-17 2.051787e-01 7.850390e-02
		vertex 1.387779e-17 2.051787e-01 7.850390e-02
		vertex 1.201105e-01 2.794111e-01 3.306261e-02
	endloop
endfacet
facet normal 8.543577e-02 5.126146e-01 8.543577e-01
	outer loop
		vertex -2.775558e-17 2.051787e-01 7.850390e-02
		vertex -2.044698e-01 3.315480e-01 1.147064e-03
		vertex -2.044698e-01 3.315480e-01 1.147064e-03
	endloop
endfacet
facet normal -7.071068e-01 -7.071068e-01 0.000000e+00
	outer loop
		vertex -2.044698e-01 3.315480e-01 1.147064e-03
		vertex 1.387779e-17 2.051787e-01 7.850390e-02
		vertex -2.775558e-17 2.051787e-01 7.850390e-02
	endloop
endfacet
facet normal 8.804509e-02 7.043607e-01 7.043607e-01
	outer loop
		vertex 1.387779e-17 2.051787e-01 7.850390e-02
		vertex -2.044698e-01 3.315480e-01 1.147064e-03
		vertex -2.044698e-01 3.315480e-01 1.147064e-03
	endloop
endfacet
facet normal -7.071068e-01 -7.071068e-01 0.000000e+00
	outer loop
		vertex -2.044698e-01 3.315480e-01 1.147064e-03
		vertex 1.387779e-17 2.051787e-01 7.850390e-02
		vertex -2.775558e-17 2.051787e-01 7.850390e-02
	endloop
endfacet
facet normal 1.850754e-01 2.776130e-01 9.426973e-01
	outer loop
		vertex -2.775558e-17 2.051787e-01 7.850390e-02
		vertex 1.387779e-17 2.051787e-01 7.850390e-02
		vertex 1.201105e-01 2.794111e-01 3.306261e-02
	endloop
endfacet
facet normal -8.506508e-01 -5.872547e-14 -5.257311e-01
	outer loop
		vertex 1.256807e-03 2.059554e-01 3.299525e-01
		vertex 1.143228e-03 2.058853e-01 3.301363e-01
		vertex -5.551115e-17 2.089070e-01 3.319861e-01
	endloop
endfacet
facet normal 5.257311e-01 -8.506508e-01 1.221695e-13
	outer loop
		vertex 1.256807e-03 2.059554e-01 3.299525e-01
		vertex 1.143228e-03 2.058853e-01 3.301363e-01
		vertex 1.201105e-01 2.794111e-01 3.306261e-02
	endloop
endfacet
facet normal -8.506508e-01 3.934307e-15 -5.257311e-01
	outer loop
		vertex 1.256807e-03 2.059554e-01 3.299525e-01
		vertex -5.551115e-17 2.089070e-01 3.319861e-01
		vertex -1.387779e-17 2.252978e-01 3.319861e-01
	endloop
endfacet
facet normal -8.506508e-01 1.850526e-15 -5.257311e-01
	outer loop
		vertex -1.387779e-17 2.252978e-01 3.319861e-01
		vertex 1.902690e-03 2.063546e-01 3.289075e-01
		vertex 1.256807e-03 2.059554e-01 3.299525e-01
	endloop
endfacet
facet normal -5.257311e-01 8.506508e-01 3.089190e-14
	outer loop
		vertex 1.256807e-03 2.059554e-01 3.299525e-01
		vertex 1.902690e-03 2.063546e-01 3.289075e-01
		vertex 1.201105e-01 2.794111e-01 3.306261e-02
	endloop
endfacet
facet normal -8.506508e-01 4.367793e-15 -5.257311e-01
	outer loop
		vertex 6.362091e-03 2.091107e-01 3.216920e-01
		vertex 1.902690e-03 2.063546e-01 3.289075e-01
		vertex -1.387779e-17 2.252978e-01 3.319861e-01
	endloop
endfacet
facet normal 5.257311e-01 -8.506508e-01 -2.471975e-15
	outer loop
		vertex 6.362091e-03 2.091107e-01 3.216920e-01
		vertex 1.902690e-03 2.063546e-01 3.289075e-01
		vertex 1.201105e-01 2.794111e-01 3.306261e-02
	endloop
endfacet
facet normal -5.257311e-01 -8.506508e-01 1.921312e-15
	outer loop
		vertex 1.387779e-17 2.051787e-01 3.269934e-01
		vertex -1.143228e-03 2.058853e-01 3.301363e-01
		vertex -5.800312e-03 2.087635e-01 3.226010e-01
	endloop
endfacet
facet normal 5.257311e-01 8.506508e-01 1.284530e-15
	outer loop
		vertex -5.800312e-03 2.087635e-01 3.226010e-01
		vertex 1.387779e-17 2.051787e-01 3.269934e-01
		vertex 1.561251e-17 2.051787e-01 3.080389e-01
	endloop
endfacet
facet normal -5.257311e-01 8.506508e-01 1.197516e-15
	outer loop
		vertex 1.561251e-17 2.051787e-01 3.080389e-01
		vertex 1.387779e-17 2.051787e-01 3.269934e-01
		vertex 1.201105e-01 2.794111e-01 3.306261e-02
	endloop
endfacet
facet normal -9.849188e-17 5.220944e-01 8.528877e-01
	outer loop
		vertex 7.660417e-02 2.525227e-01 4.952232e-02
		vertex 7.421351e-02 3.334218e-01 2.775558e-17
		vertex -2.042554e-01 3.314155e-01 1.228177e-03
	endloop
endfacet
facet normal -7.649865e-17 5.220944e-01 8.528877e-01
	outer loop
		vertex -2.042554e-01 3.314155e-01 1.228177e-03
		vertex 1.387779e-17 2.051787e-01 7.850390e-02
		vertex 7.660417e-02 2.525227e-01 4.952232e-02
	endloop
endfacet
facet normal 2.450397e-01 -7.623459e-01 -5.989860e-01
	outer loop
		vertex 7.660417e-02 2.525227e-01 4.952232e-02
		vertex 1.387779e-17 2.051787e-01 7.850390e-02
		vertex 1.201105e-01 2.794111e-01 3.306261e-02
	endloop
endfacet
facet normal 0.000000e+00 0.000000e+00 0.000000e+00
	outer loop
		vertex 1.387779e-17 2.051787e-01 7.850390e-02
		vertex 1.387779e-17 2.051787e-01 7.850390e-02
		vertex -2.042554e-01 3.314155e-01 1.228177e-03
	endloop
endfacet
facet normal 0.000000e+00 0.000000e+00 0.000000e+00
	outer loop
		vertex 1.387779e-17 2.051787e-01 7.850390e-02
		vertex 1.387779e-17 2.051787e-01 7.850390e-02
		vertex 1.201105e-01 2.794111e-01 3.306261e-02
	endloop
endfacet
facet normal -8.506508e-01 4.343365e-15 -5.257311e-01
	outer loop
		vertex 7.554555e-03 2.098477e-01 3.197626e-01
		vertex 6.362091e-03 2.091107e-01 3.216920e-01
		vertex -5.551115e-17 2.252978e-01 3.319861e-01
	endloop
endfacet
facet normal 5.257311e-01 -8.506508e-01 -6.655914e-15
	outer loop
		vertex 7.554555e-03 2.098477e-01 3.197626e-01
		vertex 6.362091e-03 2.091107e-01 3.216920e-01
		vertex 1.201105e-01 2.794111e-01 3.306261e-02
	endloop
endfacet
facet normal -8.506508e-01 6.042299e-16 -5.257311e-01
	outer loop
		vertex 7.554555e-03 2.098477e-01 3.197626e-01
		vertex -5.551115e-17 2.252978e-01 3.319861e-01
		vertex 0.000000e+00 2.549547e-01 3.319861e-01
	endloop
endfacet
facet normal -8.506508e-01 6.939870e-16 -5.257311e-01
	outer loop
		vertex 0.000000e+00 2.549547e-01 3.319861e-01
		vertex 1.044218e-02 2.116323e-01 3.150903e-01
		vertex 7.554555e-03 2.098477e-01 3.197626e-01
	endloop
endfacet
facet normal -5.257311e-01 8.506508e-01 1.794230e-14
	outer loop
		vertex 7.554555e-03 2.098477e-01 3.197626e-01
		vertex 1.044218e-02 2.116323e-01 3.150903e-01
		vertex 1.201105e-01 2.794111e-01 3.306261e-02
	endloop
endfacet
facet normal -8.506508e-01 2.751745e-16 -5.257311e-01
	outer loop
		vertex 1.668436e-02 2.154902e-01 3.049902e-01
		vertex 1.044218e-02 2.116323e-01 3.150903e-01
		vertex 0.000000e+00 2.549547e-01 3.319861e-01
	endloop
endfacet
facet normal 5.257311e-01 -8.506508e-01 -4.874083e-15
	outer loop
		vertex 1.668436e-02 2.154902e-01 3.049902e-01
		vertex 1.044218e-02 2.116323e-01 3.150903e-01
		vertex 1.201105e-01 2.794111e-01 3.306261e-02
	endloop
endfacet
facet normal -5.257311e-01 -8.506508e-01 9.090643e-16
	outer loop
		vertex 0.000000e+00 2.051787e-01 3.080389e-01
		vertex -5.800312e-03 2.087635e-01 3.226010e-01
		vertex -1.294950e-02 2.131819e-01 3.110333e-01
	endloop
endfacet
facet normal 5.257311e-01 8.506508e-01 -4.209327e-16
	outer loop
		vertex -1.294950e-02 2.131819e-01 3.110333e-01
		vertex 0.000000e+00 2.051787e-01 3.080389e-01
		vertex -1.908196e-17 2.051787e-01 2.826592e-01
	endloop
endfacet
facet normal -5.257311e-01 8.506508e-01 3.952753e-16
	outer loop
		vertex -1.908196e-17 2.051787e-01 2.826592e-01
		vertex 0.000000e+00 2.051787e-01 3.080389e-01
		vertex 1.201105e-01 2.794111e-01 3.306261e-02
	endloop
endfacet
facet normal -5.257311e-01 -8.506508e-01 1.058101e-14
	outer loop
		vertex 1.387779e-17 2.051787e-01 7.966801e-02
		vertex -2.011534e-01 3.294984e-01 6.512994e-03
		vertex -2.044698e-01 3.315480e-01 1.147064e-03
	endloop
endfacet
facet normal 5.257311e-01 8.506508e-01 0.000000e+00
	outer loop
		vertex -2.044698e-01 3.315480e-01 1.147064e-03
		vertex 1.387779e-17 2.051787e-01 7.966801e-02
		vertex 5.551115e-17 2.051787e-01 7.850390e-02
	endloop
endfacet
facet normal -5.257311e-01 8.506508e-01 -3.908418e-14
	outer loop
		vertex 5.551115e-17 2.051787e-01 7.850390e-02
		vertex 1.387779e-17 2.051787e-01 7.966801e-02
		vertex 1.201105e-01 2.794111e-01 3.306261e-02
	endloop
endfacet
facet normal -5.257311e-01 -8.506508e-01 2.767765e-16
	outer loop
		vertex 2.775558e-17 2.051787e-01 1.537709e-01
		vertex -8.148833e-02 2.555413e-01 2.001352e-01
		vertex -2.011534e-01 3.294984e-01 6.512994e-03
	endloop
endfacet
facet normal 5.257311e-01 8.506508e-01 -1.979927e-16
	outer loop
		vertex -2.011534e-01 3.294984e-01 6.512994e-03
		vertex 2.775558e-17 2.051787e-01 1.537709e-01
		vertex 0.000000e+00 2.051787e-01 7.966801e-02
	endloop
endfacet
facet normal -5.257311e-01 8.506508e-01 1.969151e-16
	outer loop
		vertex 0.000000e+00 2.051787e-01 7.966801e-02
		vertex 2.775558e-17 2.051787e-01 1.537709e-01
		vertex 1.201105e-01 2.794111e-01 3.306261e-02
	endloop
endfacet
facet normal 5.257311e-01 8.506508e-01 -8.372906e-16
	outer loop
		vertex 1.387779e-17 2.051787e-01 1.845184e-01
		vertex -5.729152e-02 2.405868e-01 2.392865e-01
		vertex -5.280985e-02 2.378170e-01 2.465380e-01
	endloop
endfacet
facet normal -5.257311e-01 -8.506508e-01 -5.040283e-16
	outer loop
		vertex -5.280985e-02 2.378170e-01 2.465380e-01
		vertex 1.387779e-17 2.051787e-01 1.845184e-01
		vertex -3.469447e-17 2.051787e-01 1.914483e-01
	endloop
endfacet
facet normal 5.257311e-01 -8.506508e-01 7.092000e-15
	outer loop
		vertex -3.469447e-17 2.051787e-01 1.914483e-01
		vertex 1.387779e-17 2.051787e-01 1.845184e-01
		vertex 1.201105e-01 2.794111e-01 3.306261e-02
	endloop
endfacet
facet normal 8.506508e-01 -1.480545e-16 5.257311e-01
	outer loop
		vertex 1.668436e-02 2.154902e-01 3.049902e-01
		vertex 6.309135e-02 2.441713e-01 2.299021e-01
		vertex -5.551115e-17 2.549547e-01 3.319861e-01
	endloop
endfacet
facet normal -5.257311e-01 8.506508e-01 1.140193e-15
	outer loop
		vertex 1.668436e-02 2.154902e-01 3.049902e-01
		vertex 6.309135e-02 2.441713e-01 2.299021e-01
		vertex 1.201105e-01 2.794111e-01 3.306261e-02
	endloop
endfacet
facet normal -5.257311e-01 -8.506508e-01 1.135317e-16
	outer loop
		vertex 0.000000e+00 2.051787e-01 2.826592e-01
		vertex -1.294950e-02 2.131819e-01 3.110333e-01
		vertex -3.765264e-02 2.284493e-01 2.710628e-01
	endloop
endfacet
facet normal 5.257311e-01 8.506508e-01 3.452958e-16
	outer loop
		vertex -3.765264e-02 2.284493e-01 2.710628e-01
		vertex 0.000000e+00 2.051787e-01 2.826592e-01
		vertex -6.938894e-18 2.051787e-01 2.188156e-01
	endloop
endfacet
facet normal -5.257311e-01 8.506508e-01 4.269542e-16
	outer loop
		vertex -6.938894e-18 2.051787e-01 2.188156e-01
		vertex 0.000000e+00 2.051787e-01 2.826592e-01
		vertex 1.201105e-01 2.794111e-01 3.306261e-02
	endloop
endfacet
facet normal -5.257311e-01 -8.506508e-01 -1.240694e-15
	outer loop
		vertex -1.387779e-17 2.051787e-01 2.188156e-01
		vertex -3.765264e-02 2.284493e-01 2.710628e-01
		vertex -4.290741e-02 2.316969e-01 2.625604e-01
	endloop
endfacet
facet normal 5.257311e-01 8.506508e-01 1.676702e-15
	outer loop
		vertex -4.290741e-02 2.316969e-01 2.625604e-01
		vertex -1.387779e-17 2.051787e-01 2.188156e-01
		vertex 2.081668e-17 2.051787e-01 2.085599e-01
	endloop
endfacet
facet normal -5.257311e-01 8.506508e-01 -1.778527e-15
	outer loop
		vertex 2.081668e-17 2.051787e-01 2.085599e-01
		vertex -1.387779e-17 2.051787e-01 2.188156e-01
		vertex 1.201105e-01 2.794111e-01 3.306261e-02
	endloop
endfacet
facet normal -5.257311e-01 -8.506508e-01 7.545917e-16
	outer loop
		vertex 1.387779e-17 2.051787e-01 2.085599e-01
		vertex -4.290741e-02 2.316969e-01 2.625604e-01
		vertex -5.280985e-02 2.378170e-01 2.465380e-01
	endloop
endfacet
facet normal 5.257311e-01 8.506508e-01 -1.632954e-15
	outer loop
		vertex -5.280985e-02 2.378170e-01 2.465380e-01
		vertex 1.387779e-17 2.051787e-01 2.085599e-01
		vertex -4.163336e-17 2.051787e-01 1.914483e-01
	endloop
endfacet
facet normal -5.257311e-01 8.506508e-01 1.705498e-15
	outer loop
		vertex -4.163336e-17 2.051787e-01 1.914483e-01
		vertex 1.387779e-17 2.051787e-01 2.085599e-01
		vertex 1.201105e-01 2.794111e-01 3.306261e-02
	endloop
endfacet
facet normal -3.015113e-01 3.015113e-01 9.045340e-01
	outer loop
		vertex 5.551115e-17 2.051787e-01 7.850390e-02
		vertex -2.044698e-01 3.315480e-01 1.147064e-03
		vertex -2.044698e-01 3.315480e-01 1.147064e-03
	endloop
endfacet
facet normal 0.000000e+00 0.000000e+00 0.000000e+00
	outer loop
		vertex -2.044698e-01 3.315480e-01 1.147064e-03
		vertex 1.387779e-17 2.051787e-01 7.850390e-02
		vertex 5.551115e-17 2.051787e-01 7.850390e-02
	endloop
endfacet
facet normal -3.015113e-01 3.015113e-01 9.045340e-01
	outer loop
		vertex 1.387779e-17 2.051787e-01 7.850390e-02
		vertex -2.044698e-01 3.315480e-01 1.147064e-03
		vertex -2.044698e-01 3.315480e-01 1.147064e-03
	endloop
endfacet
facet normal 0.000000e+00 0.000000e+00 0.000000e+00
	outer loop
		vertex -2.044698e-01 3.315480e-01 1.147064e-03
		vertex 1.387779e-17 2.051787e-01 7.850390e-02
		vertex 5.551115e-17 2.051787e-01 7.850390e-02
	endloop
endfacet
facet normal -3.144741e-02 -4.843309e-01 -8.743195e-01
	outer loop
		vertex 5.551115e-17 2.051787e-01 7.850390e-02
		vertex 1.387779e-17 2.051787e-01 7.850390e-02
		vertex 1.201105e-01 2.794111e-01 3.306261e-02
	endloop
endfacet
facet normal 0.000000e+00 0.000000e+00 0.000000e+00
	outer loop
		vertex 2.775558e-17 2.051787e-01 7.850390e-02
		vertex -2.044698e-01 3.315480e-01 1.147064e-03
		vertex -2.044698e-01 3.315480e-01 1.147064e-03
	endloop
endfacet
facet normal 0.000000e+00 0.000000e+00 1.000000e+00
	outer loop
		vertex -2.044698e-01 3.315480e-01 1.147064e-03
		vertex 1.387779e-17 2.051787e-01 7.850390e-02
		vertex 2.775558e-17 2.051787e-01 7.850390e-02
	endloop
endfacet
facet normal 0.000000e+00 0.000000e+00 0.000000e+00
	outer loop
		vertex 1.387779e-17 2.051787e-01 7.850390e-02
		vertex -2.044698e-01 3.315480e-01 1.147064e-03
		vertex -2.044698e-01 3.315480e-01 1.147064e-03
	endloop
endfacet
facet normal 0.000000e+00 0.000000e+00 1.000000e+00
	outer loop
		vertex -2.044698e-01 3.315480e-01 1.147064e-03
		vertex 1.387779e-17 2.051787e-01 7.850390e-02
		vertex 2.775558e-17 2.051787e-01 7.850390e-02
	endloop
endfacet
facet normal -0.000000e+00 -5.220944e-01 -8.528877e-01
	outer loop
		vertex 2.775558e-17 2.051787e-01 7.850390e-02
		vertex 1.387779e-17 2.051787e-01 7.850390e-02
		vertex 1.201105e-01 2.794111e-01 3.306261e-02
	endloop
endfacet
facet normal -3.015113e-01 3.015113e-01 9.045340e-01
	outer loop
		vertex 5.551115e-17 2.051787e-01 7.850390e-02
		vertex -2.044698e-01 3.315480e-01 1.147064e-03
		vertex -2.044698e-01 3.315480e-01 1.147064e-03
	endloop
endfacet
facet normal 0.000000e+00 0.000000e+00 0.000000e+00
	outer loop
		vertex -2.044698e-01 3.315480e-01 1.147064e-03
		vertex 1.387779e-17 2.051787e-01 7.850390e-02
		vertex 5.551115e-17 2.051787e-01 7.850390e-02
	endloop
endfacet
facet normal -3.015113e-01 3.015113e-01 9.045340e-01
	outer loop
		vertex 1.387779e-17 2.051787e-01 7.850390e-02
		vertex -2.044698e-01 3.315480e-01 1.147064e-03
		vertex -2.044698e-01 3.315480e-01 1.147064e-03
	endloop
endfacet
facet normal 0.000000e+00 0.000000e+00 0.000000e+00
	outer loop
		vertex -2.044698e-01 3.315480e-01 1.147064e-03
		vertex 1.387779e-17 2.051787e-01 7.850390e-02
		vertex 5.551115e-17 2.051787e-01 7.850390e-02
	endloop
endfacet
facet normal -3.144741e-02 -4.843309e-01 -8.743195e-01
	outer loop
		vertex 5.551115e-17 2.051787e-01 7.850390e-02
		vertex 1.387779e-17 2.051787e-01 7.850390e-02
		vertex 1.201105e-01 2.794111e-01 3.306261e-02
	endloop
endfacet
facet normal 0.000000e+00 0.000000e+00 0.000000e+00
	outer loop
		vertex 2.775558e-17 2.051787e-01 7.850390e-02
		vertex -2.044698e-01 3.315480e-01 1.147064e-03
		vertex -2.044698e-01 3.315480e-01 1.147064e-03
	endloop
endfacet
facet normal 0.000000e+00 0.000000e+00 1.000000e+00
	outer loop
		vertex -2.044698e-01 3.315480e-01 1.147064e-03
		vertex 1.387779e-17 2.051787e-01 7.850390e-02
		vertex 2.775558e-17 2.051787e-01 7.850390e-02
	endloop
endfacet
facet normal 0.000000e+00 0.000000e+00 0.000000e+00
	outer loop
		vertex 1.387779e-17 2.051787e-01 7.850390e-02
		vertex -2.044698e-01 3.315480e-01 1.147064e-03
		vertex -2.044698e-01 3.315480e-01 1.147064e-03
	endloop
endfacet
facet normal 0.000000e+00 0.000000e+00 1.000000e+00
	outer loop
		vertex -2.044698e-01 3.315480e-01 1.147064e-03
		vertex 1.387779e-17 2.051787e-01 7.850390e-02
		vertex 2.775558e-17 2.051787e-01 7.850390e-02
	endloop
endfacet
facet normal -0.000000e+00 -5.220944e-01 -8.528877e-01
	outer loop
		vertex 2.775558e-17 2.051787e-01 7.850390e-02
		vertex 1.387779e-17 2.051787e-01 7.850390e-02
		vertex 1.201105e-01 2.794111e-01 3.306261e-02
	endloop
endfacet
endsolid MIKE666
