solid MIKE666
facet normal -8.506508e-01 -1.141902e-15 5.257311e-01
	outer loop
		vertex 2.314861e-01 6.211244e-02 7.065384e-01
		vertex 0.000000e+00 9.235572e-02 3.319861e-01
		vertex 0.000000e+00 6.475436e-02 3.319861e-01
	endloop
endfacet
facet normal 8.506508e-01 -2.510552e-15 -5.257311e-01
	outer loop
		vertex 0.000000e+00 6.475436e-02 3.319861e-01
		vertex 2.314861e-01 6.211244e-02 7.065384e-01
		vertex 2.521814e-01 4.932202e-02 7.400241e-01
	endloop
endfacet
facet normal 8.506508e-01 -1.266089e-16 -5.257311e-01
	outer loop
		vertex 1.679232e-17 2.051787e-01 3.319861e-01
		vertex 2.314861e-01 6.211244e-02 7.065384e-01
		vertex 0.000000e+00 9.235572e-02 3.319861e-01
	endloop
endfacet
facet normal -8.506508e-01 1.046443e-15 -5.257311e-01
	outer loop
		vertex -6.315070e-02 1.661494e-01 4.341661e-01
		vertex 0.000000e+00 9.235572e-02 3.319861e-01
		vertex 0.000000e+00 6.475436e-02 3.319861e-01
	endloop
endfacet
facet normal -8.506508e-01 1.960207e-15 -5.257311e-01
	outer loop
		vertex 0.000000e+00 6.475436e-02 3.319861e-01
		vertex -7.309035e-02 1.600064e-01 4.502487e-01
		vertex -6.315070e-02 1.661494e-01 4.341661e-01
	endloop
endfacet
facet normal 8.506508e-01 1.370485e-14 5.257311e-01
	outer loop
		vertex -7.309035e-02 1.600064e-01 4.502487e-01
		vertex -7.420843e-02 1.593154e-01 4.520578e-01
		vertex 0.000000e+00 6.475436e-02 3.319861e-01
	endloop
endfacet
facet normal 5.257311e-01 8.506508e-01 1.349278e-15
	outer loop
		vertex 0.000000e+00 2.051787e-01 7.547498e-01
		vertex 2.521814e-01 4.932202e-02 7.400241e-01
		vertex 2.314861e-01 6.211244e-02 7.065384e-01
	endloop
endfacet
facet normal -5.257311e-01 -8.506508e-01 0.000000e+00
	outer loop
		vertex 2.314861e-01 6.211244e-02 7.065384e-01
		vertex 0.000000e+00 2.051787e-01 7.547498e-01
		vertex 0.000000e+00 2.051787e-01 7.361035e-01
	endloop
endfacet
facet normal -9.269136e-01 1.379597e-16 -3.752748e-01
	outer loop
		vertex -5.682202e-18 2.051787e-01 3.319861e-01
		vertex 1.679232e-17 2.051787e-01 3.319861e-01
		vertex 0.000000e+00 9.235572e-02 3.319861e-01
	endloop
endfacet
facet normal -8.506508e-01 2.158281e-16 -5.257311e-01
	outer loop
		vertex 0.000000e+00 9.235572e-02 3.319861e-01
		vertex -6.315070e-02 1.661494e-01 4.341661e-01
		vertex -5.682202e-18 2.051787e-01 3.319861e-01
	endloop
endfacet
facet normal 0.000000e+00 8.944272e-01 -4.472136e-01
	outer loop
		vertex -5.682202e-18 2.051787e-01 3.319861e-01
		vertex -5.682202e-18 2.051787e-01 3.319861e-01
		vertex 1.679232e-17 2.051787e-01 3.319861e-01
	endloop
endfacet
facet normal 0.000000e+00 9.341723e-01 3.568221e-01
	outer loop
		vertex 2.775558e-17 2.051787e-01 3.319861e-01
		vertex 1.679232e-17 2.051787e-01 3.319861e-01
		vertex 2.314861e-01 6.211244e-02 7.065384e-01
	endloop
endfacet
facet normal -5.257311e-01 -8.506508e-01 -6.309706e-17
	outer loop
		vertex 2.314861e-01 6.211244e-02 7.065384e-01
		vertex 2.775558e-17 2.051787e-01 7.361035e-01
		vertex 2.775558e-17 2.051787e-01 3.319861e-01
	endloop
endfacet
facet normal 0.000000e+00 9.341723e-01 3.568221e-01
	outer loop
		vertex 2.775558e-17 2.051787e-01 3.319861e-01
		vertex 1.679232e-17 2.051787e-01 3.319861e-01
		vertex 2.314861e-01 6.211244e-02 7.065384e-01
	endloop
endfacet
facet normal -4.444444e-01 -8.888889e-01 -1.111111e-01
	outer loop
		vertex 2.314861e-01 6.211244e-02 7.065384e-01
		vertex -5.551115e-17 2.051787e-01 3.319861e-01
		vertex 2.775558e-17 2.051787e-01 3.319861e-01
	endloop
endfacet
facet normal -4.447213e-01 -8.932101e-01 -6.632302e-02
	outer loop
		vertex -5.551115e-17 2.051787e-01 3.319861e-01
		vertex 1.679232e-17 2.051787e-01 3.319861e-01
		vertex 2.314861e-01 6.211244e-02 7.065384e-01
	endloop
endfacet
facet normal 5.257311e-01 8.506508e-01 0.000000e+00
	outer loop
		vertex 2.314861e-01 6.211244e-02 7.065384e-01
		vertex -5.551115e-17 2.051787e-01 3.319861e-01
		vertex 2.775558e-17 2.051787e-01 7.361035e-01
	endloop
endfacet
facet normal 8.506508e-01 -3.242563e-16 -5.257311e-01
	outer loop
		vertex 3.317303e-01 -1.580858e-04 8.687369e-01
		vertex -5.551115e-17 6.475436e-02 3.319861e-01
		vertex 2.521814e-01 4.932202e-02 7.400241e-01
	endloop
endfacet
facet normal 8.506508e-01 3.614454e-14 -5.257311e-01
	outer loop
		vertex 2.521814e-01 4.932202e-02 7.400241e-01
		vertex 3.319861e-01 -5.421011e-20 8.691508e-01
		vertex 3.317303e-01 -1.580858e-04 8.687369e-01
	endloop
endfacet
facet normal -8.506508e-01 0.000000e+00 5.257311e-01
	outer loop
		vertex 3.317303e-01 -1.580858e-04 8.687369e-01
		vertex 3.319861e-01 -5.421011e-20 8.691508e-01
		vertex 3.317303e-01 -1.580858e-04 8.687369e-01
	endloop
endfacet
facet normal 0.000000e+00 0.000000e+00 0.000000e+00
	outer loop
		vertex 3.319861e-01 0.000000e+00 1.000000e+00
		vertex 0.000000e+00 2.051787e-01 8.731926e-01
		vertex 0.000000e+00 2.051787e-01 8.731926e-01
	endloop
endfacet
facet normal 0.000000e+00 0.000000e+00 0.000000e+00
	outer loop
		vertex 0.000000e+00 2.051787e-01 8.731926e-01
		vertex 3.319861e-01 0.000000e+00 1.000000e+00
		vertex 3.319861e-01 0.000000e+00 1.000000e+00
	endloop
endfacet
facet normal 0.000000e+00 0.000000e+00 0.000000e+00
	outer loop
		vertex 3.319861e-01 0.000000e+00 1.000000e+00
		vertex 0.000000e+00 2.051787e-01 8.731926e-01
		vertex 0.000000e+00 2.051787e-01 8.731926e-01
	endloop
endfacet
facet normal 0.000000e+00 0.000000e+00 0.000000e+00
	outer loop
		vertex 0.000000e+00 2.051787e-01 8.731926e-01
		vertex 3.319861e-01 0.000000e+00 1.000000e+00
		vertex 3.319861e-01 0.000000e+00 1.000000e+00
	endloop
endfacet
facet normal 0.000000e+00 0.000000e+00 0.000000e+00
	outer loop
		vertex 3.319861e-01 0.000000e+00 1.000000e+00
		vertex 3.319861e-01 0.000000e+00 1.000000e+00
		vertex 3.317303e-01 -1.580858e-04 8.687369e-01
	endloop
endfacet
facet normal 0.000000e+00 0.000000e+00 0.000000e+00
	outer loop
		vertex 3.319861e-01 0.000000e+00 1.000000e+00
		vertex 3.319861e-01 0.000000e+00 1.000000e+00
		vertex 3.317303e-01 -1.580858e-04 8.687369e-01
	endloop
endfacet
facet normal 5.257311e-01 -8.506508e-01 2.520849e-16
	outer loop
		vertex 3.319861e-01 0.000000e+00 1.000000e+00
		vertex 3.087455e-01 -1.436345e-02 9.911229e-01
		vertex 3.317303e-01 -1.580858e-04 8.687369e-01
	endloop
endfacet
facet normal 5.257311e-01 -8.506508e-01 2.520849e-16
	outer loop
		vertex 3.319861e-01 0.000000e+00 1.000000e+00
		vertex 3.087455e-01 -1.436345e-02 9.911229e-01
		vertex 3.317303e-01 -1.580858e-04 8.687369e-01
	endloop
endfacet
facet normal -5.257311e-01 8.506508e-01 -9.111922e-14
	outer loop
		vertex 3.086311e-01 -1.443419e-02 9.910792e-01
		vertex 3.087455e-01 -1.436345e-02 9.911229e-01
		vertex 3.317303e-01 -1.580858e-04 8.687369e-01
	endloop
endfacet
facet normal -5.257311e-01 -8.506508e-01 -3.220441e-16
	outer loop
		vertex 3.319861e-01 1.734723e-18 9.816715e-01
		vertex 3.319861e-01 -5.204170e-18 1.000000e+00
		vertex 0.000000e+00 2.051787e-01 8.649893e-01
	endloop
endfacet
facet normal 5.257311e-01 -8.506508e-01 -3.220441e-16
	outer loop
		vertex 3.319861e-01 1.734723e-18 9.816715e-01
		vertex 3.319861e-01 -5.204170e-18 1.000000e+00
		vertex 3.317303e-01 -1.580858e-04 8.687369e-01
	endloop
endfacet
facet normal -5.257311e-01 -8.506508e-01 -8.051104e-17
	outer loop
		vertex 3.319861e-01 1.734723e-18 9.816715e-01
		vertex 3.319861e-01 0.000000e+00 1.000000e+00
		vertex 0.000000e+00 2.051787e-01 8.649893e-01
	endloop
endfacet
facet normal 5.257311e-01 -8.506508e-01 -8.051104e-17
	outer loop
		vertex 3.319861e-01 1.734723e-18 9.816715e-01
		vertex 3.319861e-01 0.000000e+00 1.000000e+00
		vertex 3.317303e-01 -1.580858e-04 8.687369e-01
	endloop
endfacet
facet normal -3.767155e-01 0.000000e+00 9.263290e-01
	outer loop
		vertex 3.319861e-01 -5.204170e-18 1.000000e+00
		vertex 3.319861e-01 0.000000e+00 1.000000e+00
		vertex 0.000000e+00 2.051787e-01 8.649893e-01
	endloop
endfacet
facet normal -9.999981e-01 0.000000e+00 1.948665e-03
	outer loop
		vertex 3.319861e-01 -5.204170e-18 1.000000e+00
		vertex 3.319861e-01 0.000000e+00 1.000000e+00
		vertex 3.317303e-01 -1.580858e-04 8.687369e-01
	endloop
endfacet
facet normal -5.257311e-01 -8.506508e-01 -2.793801e-15
	outer loop
		vertex 3.319861e-01 -6.938894e-18 9.710580e-01
		vertex 3.319861e-01 1.040834e-17 9.762221e-01
		vertex 0.000000e+00 2.051787e-01 8.602391e-01
	endloop
endfacet
facet normal 5.257311e-01 -8.506508e-01 8.508796e-15
	outer loop
		vertex 3.319861e-01 -6.938894e-18 9.710580e-01
		vertex 3.319861e-01 1.040834e-17 9.762221e-01
		vertex 3.317303e-01 -1.580858e-04 8.687369e-01
	endloop
endfacet
facet normal 5.257311e-01 8.506508e-01 0.000000e+00
	outer loop
		vertex 3.319861e-01 2.775558e-17 9.762221e-01
		vertex 0.000000e+00 2.051787e-01 8.602391e-01
		vertex 0.000000e+00 2.051787e-01 8.626465e-01
	endloop
endfacet
facet normal 5.257311e-01 8.506508e-01 0.000000e+00
	outer loop
		vertex 0.000000e+00 2.051787e-01 8.626465e-01
		vertex 3.319861e-01 2.775558e-17 9.764369e-01
		vertex 3.319861e-01 2.775558e-17 9.762221e-01
	endloop
endfacet
facet normal 5.257311e-01 -8.506508e-01 0.000000e+00
	outer loop
		vertex 3.319861e-01 2.775558e-17 9.762221e-01
		vertex 3.319861e-01 2.775558e-17 9.764369e-01
		vertex 3.317303e-01 -1.580858e-04 8.687369e-01
	endloop
endfacet
facet normal -5.257311e-01 -8.506508e-01 -1.820437e-14
	outer loop
		vertex 3.319861e-01 -1.040834e-17 9.764369e-01
		vertex 3.319861e-01 -5.030698e-17 9.815075e-01
		vertex 0.000000e+00 2.051787e-01 8.626465e-01
	endloop
endfacet
facet normal 5.257311e-01 -8.506508e-01 4.817558e-15
	outer loop
		vertex 3.319861e-01 -1.040834e-17 9.764369e-01
		vertex 3.319861e-01 -5.030698e-17 9.815075e-01
		vertex 3.317303e-01 -1.580858e-04 8.687369e-01
	endloop
endfacet
facet normal 5.257311e-01 8.506508e-01 1.517766e-14
	outer loop
		vertex 3.319861e-01 -5.551115e-17 9.815075e-01
		vertex 0.000000e+00 2.051787e-01 8.626465e-01
		vertex 0.000000e+00 2.051787e-01 8.649893e-01
	endloop
endfacet
facet normal 5.257311e-01 8.506508e-01 0.000000e+00
	outer loop
		vertex 0.000000e+00 2.051787e-01 8.649893e-01
		vertex 3.319861e-01 -5.551115e-17 9.816715e-01
		vertex 3.319861e-01 -5.551115e-17 9.815075e-01
	endloop
endfacet
facet normal 5.257311e-01 -8.506508e-01 0.000000e+00
	outer loop
		vertex 3.319861e-01 -5.551115e-17 9.815075e-01
		vertex 3.319861e-01 -5.551115e-17 9.816715e-01
		vertex 3.317303e-01 -1.580858e-04 8.687369e-01
	endloop
endfacet
facet normal -5.257311e-01 -8.506508e-01 5.030622e-10
	outer loop
		vertex 3.319861e-01 0.000000e+00 9.549270e-01
		vertex 3.319861e-01 1.387779e-17 9.549271e-01
		vertex 5.551115e-17 2.051787e-01 8.530194e-01
	endloop
endfacet
facet normal 5.257310e-01 -8.506509e-01 5.030623e-10
	outer loop
		vertex 3.319861e-01 0.000000e+00 9.549270e-01
		vertex 3.319861e-01 1.387779e-17 9.549271e-01
		vertex 3.317303e-01 -1.580858e-04 8.687369e-01
	endloop
endfacet
facet normal 5.257311e-01 8.506508e-01 0.000000e+00
	outer loop
		vertex 3.319861e-01 -2.775558e-17 9.549271e-01
		vertex 0.000000e+00 2.051787e-01 8.530193e-01
		vertex 5.551115e-17 2.051787e-01 8.530194e-01
	endloop
endfacet
facet normal 5.257311e-01 8.506508e-01 0.000000e+00
	outer loop
		vertex 5.551115e-17 2.051787e-01 8.530194e-01
		vertex 3.319861e-01 0.000000e+00 9.549271e-01
		vertex 3.319861e-01 -2.775558e-17 9.549271e-01
	endloop
endfacet
facet normal 5.257311e-01 8.506508e-01 0.000000e+00
	outer loop
		vertex 3.319861e-01 0.000000e+00 9.549271e-01
		vertex 0.000000e+00 2.051787e-01 8.530193e-01
		vertex 5.551115e-17 2.051787e-01 8.530194e-01
	endloop
endfacet
facet normal 5.257311e-01 8.506508e-01 0.000000e+00
	outer loop
		vertex 5.551115e-17 2.051787e-01 8.530194e-01
		vertex 3.319861e-01 0.000000e+00 9.549271e-01
		vertex 3.319861e-01 -2.775558e-17 9.549271e-01
	endloop
endfacet
facet normal 5.257242e-01 -8.506551e-01 2.828354e-08
	outer loop
		vertex 3.319861e-01 -2.775558e-17 9.549271e-01
		vertex 3.319861e-01 0.000000e+00 9.549271e-01
		vertex 3.317303e-01 -1.580858e-04 8.687369e-01
	endloop
endfacet
facet normal -5.257311e-01 -8.506508e-01 2.515311e-10
	outer loop
		vertex 3.319861e-01 6.938894e-18 9.549270e-01
		vertex 3.319861e-01 1.387779e-17 9.549271e-01
		vertex 0.000000e+00 2.051787e-01 8.530193e-01
	endloop
endfacet
facet normal 5.257311e-01 -8.506508e-01 2.515311e-10
	outer loop
		vertex 3.319861e-01 6.938894e-18 9.549270e-01
		vertex 3.319861e-01 1.387779e-17 9.549271e-01
		vertex 3.317303e-01 -1.580858e-04 8.687369e-01
	endloop
endfacet
facet normal 5.257311e-01 8.506508e-01 0.000000e+00
	outer loop
		vertex 3.319861e-01 -2.775558e-17 9.549271e-01
		vertex 0.000000e+00 2.051787e-01 8.530193e-01
		vertex 5.551115e-17 2.051787e-01 8.530194e-01
	endloop
endfacet
facet normal 5.257311e-01 8.506508e-01 0.000000e+00
	outer loop
		vertex 5.551115e-17 2.051787e-01 8.530194e-01
		vertex 3.319861e-01 0.000000e+00 9.549271e-01
		vertex 3.319861e-01 -2.775558e-17 9.549271e-01
	endloop
endfacet
facet normal 5.257311e-01 8.506508e-01 0.000000e+00
	outer loop
		vertex 3.319861e-01 0.000000e+00 9.549271e-01
		vertex 0.000000e+00 2.051787e-01 8.530193e-01
		vertex 5.551115e-17 2.051787e-01 8.530194e-01
	endloop
endfacet
facet normal 5.257311e-01 8.506508e-01 0.000000e+00
	outer loop
		vertex 5.551115e-17 2.051787e-01 8.530194e-01
		vertex 3.319861e-01 0.000000e+00 9.549271e-01
		vertex 3.319861e-01 -2.775558e-17 9.549271e-01
	endloop
endfacet
facet normal 5.257242e-01 -8.506551e-01 2.828354e-08
	outer loop
		vertex 3.319861e-01 -2.775558e-17 9.549271e-01
		vertex 3.319861e-01 0.000000e+00 9.549271e-01
		vertex 3.317303e-01 -1.580858e-04 8.687369e-01
	endloop
endfacet
facet normal 0.000000e+00 0.000000e+00 0.000000e+00
	outer loop
		vertex 3.319861e-01 6.938894e-18 9.549270e-01
		vertex 3.319861e-01 6.938894e-18 9.549270e-01
		vertex 5.551115e-17 2.051787e-01 8.530193e-01
	endloop
endfacet
facet normal 0.000000e+00 0.000000e+00 0.000000e+00
	outer loop
		vertex 3.319861e-01 6.938894e-18 9.549270e-01
		vertex 3.319861e-01 6.938894e-18 9.549270e-01
		vertex 3.317303e-01 -1.580858e-04 8.687369e-01
	endloop
endfacet
facet normal 0.000000e+00 -4.472136e-01 -8.944272e-01
	outer loop
		vertex 3.319861e-01 -2.775558e-17 9.549270e-01
		vertex 0.000000e+00 2.051787e-01 8.530193e-01
		vertex 5.551115e-17 2.051787e-01 8.530193e-01
	endloop
endfacet
facet normal 0.000000e+00 1.000000e+00 0.000000e+00
	outer loop
		vertex 5.551115e-17 2.051787e-01 8.530193e-01
		vertex 3.319861e-01 0.000000e+00 9.549270e-01
		vertex 3.319861e-01 -2.775558e-17 9.549270e-01
	endloop
endfacet
facet normal 0.000000e+00 -1.000000e+00 0.000000e+00
	outer loop
		vertex 3.319861e-01 0.000000e+00 9.549270e-01
		vertex 0.000000e+00 2.051787e-01 8.530193e-01
		vertex 5.551115e-17 2.051787e-01 8.530193e-01
	endloop
endfacet
facet normal 0.000000e+00 1.000000e+00 0.000000e+00
	outer loop
		vertex 5.551115e-17 2.051787e-01 8.530193e-01
		vertex 3.319861e-01 0.000000e+00 9.549270e-01
		vertex 3.319861e-01 -2.775558e-17 9.549270e-01
	endloop
endfacet
facet normal -4.472116e-01 -8.944233e-01 2.967708e-03
	outer loop
		vertex 3.319861e-01 -2.775558e-17 9.549270e-01
		vertex 3.319861e-01 0.000000e+00 9.549270e-01
		vertex 3.317303e-01 -1.580858e-04 8.687369e-01
	endloop
endfacet
facet normal 0.000000e+00 0.000000e+00 0.000000e+00
	outer loop
		vertex 3.319861e-01 6.938894e-18 9.549270e-01
		vertex 3.319861e-01 6.938894e-18 9.549270e-01
		vertex 0.000000e+00 2.051787e-01 8.530193e-01
	endloop
endfacet
facet normal 0.000000e+00 0.000000e+00 0.000000e+00
	outer loop
		vertex 3.319861e-01 6.938894e-18 9.549270e-01
		vertex 3.319861e-01 6.938894e-18 9.549270e-01
		vertex 3.317303e-01 -1.580858e-04 8.687369e-01
	endloop
endfacet
facet normal 0.000000e+00 -4.472136e-01 -8.944272e-01
	outer loop
		vertex 3.319861e-01 -2.775558e-17 9.549270e-01
		vertex 0.000000e+00 2.051787e-01 8.530193e-01
		vertex 5.551115e-17 2.051787e-01 8.530193e-01
	endloop
endfacet
facet normal 0.000000e+00 1.000000e+00 0.000000e+00
	outer loop
		vertex 5.551115e-17 2.051787e-01 8.530193e-01
		vertex 3.319861e-01 0.000000e+00 9.549270e-01
		vertex 3.319861e-01 -2.775558e-17 9.549270e-01
	endloop
endfacet
facet normal 0.000000e+00 -1.000000e+00 0.000000e+00
	outer loop
		vertex 3.319861e-01 0.000000e+00 9.549270e-01
		vertex 0.000000e+00 2.051787e-01 8.530193e-01
		vertex 5.551115e-17 2.051787e-01 8.530193e-01
	endloop
endfacet
facet normal 0.000000e+00 1.000000e+00 0.000000e+00
	outer loop
		vertex 5.551115e-17 2.051787e-01 8.530193e-01
		vertex 3.319861e-01 0.000000e+00 9.549270e-01
		vertex 3.319861e-01 -2.775558e-17 9.549270e-01
	endloop
endfacet
facet normal -4.472116e-01 -8.944233e-01 2.967708e-03
	outer loop
		vertex 3.319861e-01 -2.775558e-17 9.549270e-01
		vertex 3.319861e-01 0.000000e+00 9.549270e-01
		vertex 3.317303e-01 -1.580858e-04 8.687369e-01
	endloop
endfacet
facet normal 5.257311e-01 8.506508e-01 1.870354e-14
	outer loop
		vertex 3.319861e-01 -6.938894e-18 9.710580e-01
		vertex 3.319861e-01 6.938894e-18 9.704269e-01
		vertex 0.000000e+00 2.051787e-01 8.602391e-01
	endloop
endfacet
facet normal -5.257311e-01 8.506508e-01 1.870354e-14
	outer loop
		vertex 3.319861e-01 -6.938894e-18 9.710580e-01
		vertex 3.319861e-01 6.938894e-18 9.704269e-01
		vertex 3.317303e-01 -1.580858e-04 8.687369e-01
	endloop
endfacet
facet normal -5.257311e-01 -8.506508e-01 1.196262e-13
	outer loop
		vertex 3.319861e-01 2.775558e-17 9.704269e-01
		vertex 0.000000e+00 2.051787e-01 8.602391e-01
		vertex 5.551115e-17 2.051787e-01 8.599418e-01
	endloop
endfacet
facet normal -5.257311e-01 -8.506508e-01 0.000000e+00
	outer loop
		vertex 5.551115e-17 2.051787e-01 8.599418e-01
		vertex 3.319861e-01 2.775558e-17 9.703939e-01
		vertex 3.319861e-01 2.775558e-17 9.704269e-01
	endloop
endfacet
facet normal -5.257311e-01 8.506508e-01 0.000000e+00
	outer loop
		vertex 3.319861e-01 2.775558e-17 9.704269e-01
		vertex 3.319861e-01 2.775558e-17 9.703939e-01
		vertex 3.317303e-01 -1.580858e-04 8.687369e-01
	endloop
endfacet
facet normal 5.257311e-01 8.506508e-01 -1.212993e-15
	outer loop
		vertex 3.319861e-01 6.938894e-18 9.703939e-01
		vertex 3.319861e-01 2.081668e-17 9.560667e-01
		vertex 0.000000e+00 2.051787e-01 8.599418e-01
	endloop
endfacet
facet normal -5.257311e-01 8.506508e-01 2.860928e-15
	outer loop
		vertex 3.319861e-01 6.938894e-18 9.703939e-01
		vertex 3.319861e-01 2.081668e-17 9.560667e-01
		vertex 3.317303e-01 -1.580858e-04 8.687369e-01
	endloop
endfacet
facet normal -5.257311e-01 -8.506508e-01 5.136779e-15
	outer loop
		vertex 3.319861e-01 0.000000e+00 9.560667e-01
		vertex 0.000000e+00 2.051787e-01 8.599418e-01
		vertex 5.551115e-17 2.051787e-01 8.530194e-01
	endloop
endfacet
facet normal -5.257311e-01 -8.506508e-01 0.000000e+00
	outer loop
		vertex 5.551115e-17 2.051787e-01 8.530194e-01
		vertex 3.319861e-01 0.000000e+00 9.549271e-01
		vertex 3.319861e-01 0.000000e+00 9.560667e-01
	endloop
endfacet
facet normal -5.257311e-01 8.506508e-01 0.000000e+00
	outer loop
		vertex 3.319861e-01 0.000000e+00 9.560667e-01
		vertex 3.319861e-01 0.000000e+00 9.549271e-01
		vertex 3.317303e-01 -1.580858e-04 8.687369e-01
	endloop
endfacet
facet normal -5.257311e-01 -8.506508e-01 2.180753e-15
	outer loop
		vertex 3.319861e-01 -3.122502e-17 9.273312e-01
		vertex 3.319861e-01 0.000000e+00 9.528937e-01
		vertex 0.000000e+00 2.051787e-01 8.406683e-01
	endloop
endfacet
facet normal 5.257311e-01 -8.506508e-01 -1.025858e-16
	outer loop
		vertex 3.319861e-01 -3.122502e-17 9.273312e-01
		vertex 3.319861e-01 0.000000e+00 9.528937e-01
		vertex 3.317303e-01 -1.580858e-04 8.687369e-01
	endloop
endfacet
facet normal 5.257311e-01 8.506508e-01 -2.879046e-15
	outer loop
		vertex 3.319861e-01 -2.775558e-17 9.528937e-01
		vertex 0.000000e+00 2.051787e-01 8.406683e-01
		vertex 0.000000e+00 2.051787e-01 8.530193e-01
	endloop
endfacet
facet normal 5.257311e-01 8.506508e-01 0.000000e+00
	outer loop
		vertex 0.000000e+00 2.051787e-01 8.530193e-01
		vertex 3.319861e-01 2.775558e-17 9.549270e-01
		vertex 3.319861e-01 -2.775558e-17 9.528937e-01
	endloop
endfacet
facet normal 5.257311e-01 -8.506508e-01 3.757636e-14
	outer loop
		vertex 3.319861e-01 -2.775558e-17 9.528937e-01
		vertex 3.319861e-01 2.775558e-17 9.549270e-01
		vertex 3.317303e-01 -1.580858e-04 8.687369e-01
	endloop
endfacet
facet normal -5.257311e-01 -8.506508e-01 -5.675275e-12
	outer loop
		vertex 3.319861e-01 5.204170e-17 9.273225e-01
		vertex 3.319861e-01 3.122502e-17 9.273308e-01
		vertex 5.551115e-17 2.051787e-01 8.406644e-01
	endloop
endfacet
facet normal 5.257311e-01 -8.506508e-01 1.388960e-12
	outer loop
		vertex 3.319861e-01 5.204170e-17 9.273225e-01
		vertex 3.319861e-01 3.122502e-17 9.273308e-01
		vertex 3.317303e-01 -1.580858e-04 8.687369e-01
	endloop
endfacet
facet normal 5.257311e-01 8.506508e-01 0.000000e+00
	outer loop
		vertex 3.319861e-01 -2.775558e-17 9.273308e-01
		vertex 5.551115e-17 2.051787e-01 8.406644e-01
		vertex 0.000000e+00 2.051787e-01 8.406683e-01
	endloop
endfacet
facet normal 5.257311e-01 8.506508e-01 0.000000e+00
	outer loop
		vertex 0.000000e+00 2.051787e-01 8.406683e-01
		vertex 3.319861e-01 0.000000e+00 9.273312e-01
		vertex 3.319861e-01 -2.775558e-17 9.273308e-01
	endloop
endfacet
facet normal 5.257311e-01 -8.506508e-01 1.184315e-10
	outer loop
		vertex 3.319861e-01 -2.775558e-17 9.273308e-01
		vertex 3.319861e-01 0.000000e+00 9.273312e-01
		vertex 3.317303e-01 -1.580858e-04 8.687369e-01
	endloop
endfacet
facet normal -5.257311e-01 -8.506508e-01 -3.125002e-14
	outer loop
		vertex 3.319861e-01 5.551115e-17 9.240600e-01
		vertex 3.319861e-01 1.040834e-17 9.271555e-01
		vertex 0.000000e+00 2.051787e-01 8.392042e-01
	endloop
endfacet
facet normal 5.257311e-01 -8.506508e-01 6.461348e-15
	outer loop
		vertex 3.319861e-01 5.551115e-17 9.240600e-01
		vertex 3.319861e-01 1.040834e-17 9.271555e-01
		vertex 3.317303e-01 -1.580858e-04 8.687369e-01
	endloop
endfacet
facet normal 5.257311e-01 8.506508e-01 0.000000e+00
	outer loop
		vertex 3.319861e-01 0.000000e+00 9.271555e-01
		vertex 0.000000e+00 2.051787e-01 8.392042e-01
		vertex 0.000000e+00 2.051787e-01 8.406644e-01
	endloop
endfacet
facet normal 5.257311e-01 8.506508e-01 0.000000e+00
	outer loop
		vertex 0.000000e+00 2.051787e-01 8.406644e-01
		vertex 3.319861e-01 0.000000e+00 9.273225e-01
		vertex 3.319861e-01 0.000000e+00 9.271555e-01
	endloop
endfacet
facet normal 5.257311e-01 -8.506508e-01 0.000000e+00
	outer loop
		vertex 3.319861e-01 0.000000e+00 9.271555e-01
		vertex 3.319861e-01 0.000000e+00 9.273225e-01
		vertex 3.317303e-01 -1.580858e-04 8.687369e-01
	endloop
endfacet
facet normal -5.257311e-01 -8.506508e-01 -2.389076e-14
	outer loop
		vertex 3.319861e-01 6.591949e-17 9.194153e-01
		vertex 3.319861e-01 1.040834e-17 9.238350e-01
		vertex 0.000000e+00 2.051787e-01 8.371254e-01
	endloop
endfacet
facet normal 5.257311e-01 -8.506508e-01 2.522216e-15
	outer loop
		vertex 3.319861e-01 6.591949e-17 9.194153e-01
		vertex 3.319861e-01 1.040834e-17 9.238350e-01
		vertex 3.317303e-01 -1.580858e-04 8.687369e-01
	endloop
endfacet
facet normal 5.257311e-01 8.506508e-01 3.421104e-14
	outer loop
		vertex 3.319861e-01 0.000000e+00 9.238350e-01
		vertex 0.000000e+00 2.051787e-01 8.371254e-01
		vertex 1.110223e-16 2.051787e-01 8.392042e-01
	endloop
endfacet
facet normal 5.257311e-01 8.506508e-01 1.580105e-13
	outer loop
		vertex 1.110223e-16 2.051787e-01 8.392042e-01
		vertex 3.319861e-01 -2.775558e-17 9.240600e-01
		vertex 3.319861e-01 0.000000e+00 9.238350e-01
	endloop
endfacet
facet normal 5.257311e-01 -8.506508e-01 -1.049146e-13
	outer loop
		vertex 3.319861e-01 0.000000e+00 9.238350e-01
		vertex 3.319861e-01 -2.775558e-17 9.240600e-01
		vertex 3.317303e-01 -1.580858e-04 8.687369e-01
	endloop
endfacet
facet normal -5.257311e-01 -8.506508e-01 -5.995802e-14
	outer loop
		vertex 3.319861e-01 5.204170e-17 9.180301e-01
		vertex 3.319861e-01 -6.938894e-18 9.193536e-01
		vertex 0.000000e+00 2.051787e-01 8.365054e-01
	endloop
endfacet
facet normal 5.257311e-01 -8.506508e-01 -1.585764e-14
	outer loop
		vertex 3.319861e-01 5.204170e-17 9.180301e-01
		vertex 3.319861e-01 -6.938894e-18 9.193536e-01
		vertex 3.317303e-01 -1.580858e-04 8.687369e-01
	endloop
endfacet
facet normal 5.257311e-01 8.506508e-01 0.000000e+00
	outer loop
		vertex 3.319861e-01 0.000000e+00 9.193536e-01
		vertex 0.000000e+00 2.051787e-01 8.365054e-01
		vertex 1.110223e-16 2.051787e-01 8.371254e-01
	endloop
endfacet
facet normal 5.257311e-01 8.506508e-01 0.000000e+00
	outer loop
		vertex 1.110223e-16 2.051787e-01 8.371254e-01
		vertex 3.319861e-01 0.000000e+00 9.194153e-01
		vertex 3.319861e-01 0.000000e+00 9.193536e-01
	endloop
endfacet
facet normal 5.257311e-01 -8.506508e-01 0.000000e+00
	outer loop
		vertex 3.319861e-01 0.000000e+00 9.193536e-01
		vertex 3.319861e-01 0.000000e+00 9.194153e-01
		vertex 3.317303e-01 -1.580858e-04 8.687369e-01
	endloop
endfacet
facet normal -5.257311e-01 -8.506508e-01 -2.412634e-15
	outer loop
		vertex 3.319861e-01 3.469447e-17 8.698667e-01
		vertex 3.319861e-01 6.938894e-18 9.159417e-01
		vertex 0.000000e+00 2.051787e-01 8.149490e-01
	endloop
endfacet
facet normal 5.257311e-01 -8.506508e-01 1.387770e-15
	outer loop
		vertex 3.319861e-01 3.469447e-17 8.698667e-01
		vertex 3.319861e-01 6.938894e-18 9.159417e-01
		vertex 3.317303e-01 -1.580858e-04 8.687369e-01
	endloop
endfacet
facet normal 5.257311e-01 8.506508e-01 0.000000e+00
	outer loop
		vertex 3.319861e-01 0.000000e+00 9.159417e-01
		vertex 0.000000e+00 2.051787e-01 8.149490e-01
		vertex 0.000000e+00 2.051787e-01 8.365054e-01
	endloop
endfacet
facet normal 5.257311e-01 8.506508e-01 0.000000e+00
	outer loop
		vertex 0.000000e+00 2.051787e-01 8.365054e-01
		vertex 3.319861e-01 0.000000e+00 9.180301e-01
		vertex 3.319861e-01 0.000000e+00 9.159417e-01
	endloop
endfacet
facet normal 5.257311e-01 -8.506508e-01 0.000000e+00
	outer loop
		vertex 3.319861e-01 0.000000e+00 9.159417e-01
		vertex 3.319861e-01 0.000000e+00 9.180301e-01
		vertex 3.317303e-01 -1.580858e-04 8.687369e-01
	endloop
endfacet
facet normal -5.257311e-01 -8.506508e-01 -8.706748e-17
	outer loop
		vertex 3.319861e-01 0.000000e+00 8.697774e-01
		vertex 0.000000e+00 2.051787e-01 7.547498e-01
		vertex 2.521814e-01 4.932202e-02 7.400241e-01
	endloop
endfacet
facet normal 5.257311e-01 8.506508e-01 0.000000e+00
	outer loop
		vertex 2.521814e-01 4.932202e-02 7.400241e-01
		vertex 3.319861e-01 0.000000e+00 8.697774e-01
		vertex 3.319861e-01 6.938894e-18 8.691508e-01
	endloop
endfacet
facet normal 5.257311e-01 -8.506508e-01 -9.419650e-15
	outer loop
		vertex 3.319861e-01 6.938894e-18 8.691508e-01
		vertex 3.319861e-01 0.000000e+00 8.697774e-01
		vertex 3.317303e-01 -1.580858e-04 8.687369e-01
	endloop
endfacet
facet normal 5.257311e-01 8.506508e-01 -5.906923e-16
	outer loop
		vertex 3.319861e-01 0.000000e+00 8.697774e-01
		vertex 0.000000e+00 2.051787e-01 7.547498e-01
		vertex -5.551115e-17 2.051787e-01 8.149490e-01
	endloop
endfacet
facet normal 5.257311e-01 8.506508e-01 0.000000e+00
	outer loop
		vertex -5.551115e-17 2.051787e-01 8.149490e-01
		vertex 3.319861e-01 0.000000e+00 8.698667e-01
		vertex 3.319861e-01 0.000000e+00 8.697774e-01
	endloop
endfacet
facet normal 5.257311e-01 -8.506508e-01 0.000000e+00
	outer loop
		vertex 3.319861e-01 0.000000e+00 8.697774e-01
		vertex 3.319861e-01 0.000000e+00 8.698667e-01
		vertex 3.317303e-01 -1.580858e-04 8.687369e-01
	endloop
endfacet
facet normal 5.257311e-01 -8.506508e-01 2.491811e-19
	outer loop
		vertex -3.319861e-01 1.389002e-17 1.000000e+00
		vertex -3.319861e-01 1.387779e-17 9.582481e-01
		vertex 0.000000e+00 2.051787e-01 8.731926e-01
	endloop
endfacet
facet normal 0.000000e+00 0.000000e+00 0.000000e+00
	outer loop
		vertex -3.319861e-01 1.389002e-17 1.000000e+00
		vertex -3.319861e-01 1.387779e-17 9.582481e-01
		vertex -3.319861e-01 1.387779e-17 9.582481e-01
	endloop
endfacet
facet normal 0.000000e+00 0.000000e+00 0.000000e+00
	outer loop
		vertex -3.319861e-01 0.000000e+00 9.582481e-01
		vertex 0.000000e+00 2.051787e-01 8.731926e-01
		vertex 0.000000e+00 2.051787e-01 8.731926e-01
	endloop
endfacet
facet normal 2.425356e-01 0.000000e+00 9.701425e-01
	outer loop
		vertex 0.000000e+00 2.051787e-01 8.731926e-01
		vertex -3.319861e-01 1.387779e-17 9.582481e-01
		vertex -3.319861e-01 0.000000e+00 9.582481e-01
	endloop
endfacet
facet normal 0.000000e+00 0.000000e+00 0.000000e+00
	outer loop
		vertex -3.319861e-01 1.387779e-17 9.582481e-01
		vertex 0.000000e+00 2.051787e-01 8.731926e-01
		vertex 0.000000e+00 2.051787e-01 8.731926e-01
	endloop
endfacet
facet normal 2.425356e-01 0.000000e+00 9.701425e-01
	outer loop
		vertex 0.000000e+00 2.051787e-01 8.731926e-01
		vertex -3.319861e-01 1.387779e-17 9.582481e-01
		vertex -3.319861e-01 0.000000e+00 9.582481e-01
	endloop
endfacet
facet normal 0.000000e+00 0.000000e+00 0.000000e+00
	outer loop
		vertex -3.319861e-01 0.000000e+00 9.582481e-01
		vertex -3.319861e-01 1.387779e-17 9.582481e-01
		vertex -3.319861e-01 1.387779e-17 9.582481e-01
	endloop
endfacet
facet normal 1.000000e+00 0.000000e+00 -1.329549e-15
	outer loop
		vertex -3.319861e-01 -2.602085e-18 1.000000e+00
		vertex -3.319861e-01 -1.387779e-17 1.000000e+00
		vertex -3.319861e-01 1.387779e-17 9.582481e-01
	endloop
endfacet
facet normal -5.257311e-01 8.506508e-01 8.669537e-15
	outer loop
		vertex -3.319861e-01 6.938894e-18 9.582481e-01
		vertex 5.551115e-17 2.051787e-01 8.731926e-01
		vertex 0.000000e+00 2.051787e-01 8.649893e-01
	endloop
endfacet
facet normal 5.257311e-01 -8.506508e-01 0.000000e+00
	outer loop
		vertex 0.000000e+00 2.051787e-01 8.649893e-01
		vertex -3.319861e-01 6.938894e-18 9.582481e-01
		vertex -3.319861e-01 0.000000e+00 9.568976e-01
	endloop
endfacet
facet normal -1.000000e+00 0.000000e+00 0.000000e+00
	outer loop
		vertex -3.319861e-01 0.000000e+00 9.568976e-01
		vertex -3.319861e-01 6.938894e-18 9.582481e-01
		vertex -3.319861e-01 1.387779e-17 9.582481e-01
	endloop
endfacet
facet normal 8.506508e-01 -4.841007e-09 5.257311e-01
	outer loop
		vertex -3.319861e-01 2.081668e-17 8.691508e-01
		vertex -3.319861e-01 -7.590910e-09 8.691508e-01
		vertex -2.610580e-01 4.383600e-02 7.543867e-01
	endloop
endfacet
facet normal -5.257311e-01 -8.506508e-01 -3.937999e-16
	outer loop
		vertex -3.319861e-01 2.081668e-17 8.691508e-01
		vertex -3.319861e-01 -7.590910e-09 8.691508e-01
		vertex -3.319861e-01 1.387779e-17 9.582481e-01
	endloop
endfacet
facet normal -5.257311e-01 8.506508e-01 -2.376087e-09
	outer loop
		vertex -3.319861e-01 2.081668e-17 8.691508e-01
		vertex -3.319861e-01 2.081668e-17 8.691508e-01
		vertex -2.610580e-01 4.383600e-02 7.543867e-01
	endloop
endfacet
facet normal 1.723166e-08 1.000000e+00 7.787996e-17
	outer loop
		vertex -3.319861e-01 2.081668e-17 8.691508e-01
		vertex -3.319861e-01 2.081668e-17 8.691508e-01
		vertex -3.319861e-01 1.387779e-17 9.582481e-01
	endloop
endfacet
facet normal -5.257311e-01 8.506508e-01 0.000000e+00
	outer loop
		vertex -3.319861e-01 1.387779e-17 9.565119e-01
		vertex 0.000000e+00 2.051787e-01 8.626465e-01
		vertex 0.000000e+00 2.051787e-01 8.602391e-01
	endloop
endfacet
facet normal 5.257311e-01 -8.506508e-01 0.000000e+00
	outer loop
		vertex 0.000000e+00 2.051787e-01 8.602391e-01
		vertex -3.319861e-01 1.387779e-17 9.565119e-01
		vertex -3.319861e-01 0.000000e+00 9.561156e-01
	endloop
endfacet
facet normal 1.000000e+00 0.000000e+00 0.000000e+00
	outer loop
		vertex -3.319861e-01 0.000000e+00 9.561156e-01
		vertex -3.319861e-01 1.387779e-17 9.565119e-01
		vertex -3.319861e-01 1.387779e-17 9.582481e-01
	endloop
endfacet
facet normal -5.257311e-01 8.506508e-01 1.517766e-14
	outer loop
		vertex -3.319861e-01 6.938894e-18 9.568976e-01
		vertex 0.000000e+00 2.051787e-01 8.649893e-01
		vertex 0.000000e+00 2.051787e-01 8.626465e-01
	endloop
endfacet
facet normal 5.257311e-01 -8.506508e-01 0.000000e+00
	outer loop
		vertex 0.000000e+00 2.051787e-01 8.626465e-01
		vertex -3.319861e-01 6.938894e-18 9.568976e-01
		vertex -3.319861e-01 0.000000e+00 9.565119e-01
	endloop
endfacet
facet normal 1.000000e+00 0.000000e+00 0.000000e+00
	outer loop
		vertex -3.319861e-01 0.000000e+00 9.565119e-01
		vertex -3.319861e-01 6.938894e-18 9.568976e-01
		vertex -3.319861e-01 1.387779e-17 9.582481e-01
	endloop
endfacet
facet normal 5.257311e-01 -8.506508e-01 0.000000e+00
	outer loop
		vertex -3.319861e-01 3.469447e-17 8.691508e-01
		vertex -2.610580e-01 4.383600e-02 7.543867e-01
		vertex -2.333482e-01 6.096158e-02 7.095514e-01
	endloop
endfacet
facet normal -5.257311e-01 8.506508e-01 0.000000e+00
	outer loop
		vertex -2.333482e-01 6.096158e-02 7.095514e-01
		vertex -3.319861e-01 3.469447e-17 8.691508e-01
		vertex -3.319861e-01 3.469447e-17 8.691508e-01
	endloop
endfacet
facet normal 5.257311e-01 -8.506508e-01 0.000000e+00
	outer loop
		vertex -3.319861e-01 3.469447e-17 8.691508e-01
		vertex -2.610580e-01 4.383600e-02 7.543867e-01
		vertex -2.333482e-01 6.096158e-02 7.095514e-01
	endloop
endfacet
facet normal -5.257311e-01 8.506508e-01 0.000000e+00
	outer loop
		vertex -2.333482e-01 6.096158e-02 7.095514e-01
		vertex -3.319861e-01 3.469447e-17 8.691508e-01
		vertex -3.319861e-01 3.469447e-17 8.691508e-01
	endloop
endfacet
facet normal -3.511234e-01 -9.363292e-01 -0.000000e+00
	outer loop
		vertex -3.319861e-01 3.469447e-17 8.691508e-01
		vertex -3.319861e-01 3.469447e-17 8.691508e-01
		vertex -3.319861e-01 1.387779e-17 9.582481e-01
	endloop
endfacet
facet normal 5.257310e-01 -8.506509e-01 -7.202711e-08
	outer loop
		vertex -3.319861e-01 6.938894e-18 8.691508e-01
		vertex -2.333482e-01 6.096158e-02 7.095514e-01
		vertex -2.315570e-01 6.206857e-02 7.066532e-01
	endloop
endfacet
facet normal -5.257310e-01 8.506509e-01 1.444955e-07
	outer loop
		vertex -2.315570e-01 6.206857e-02 7.066532e-01
		vertex -3.319861e-01 6.938894e-18 8.691508e-01
		vertex -3.319861e-01 6.938894e-18 8.691508e-01
	endloop
endfacet
facet normal 5.257311e-01 -8.506508e-01 -5.803444e-08
	outer loop
		vertex -3.319861e-01 6.938894e-18 8.691508e-01
		vertex -2.333482e-01 6.096158e-02 7.095514e-01
		vertex -2.315570e-01 6.206857e-02 7.066532e-01
	endloop
endfacet
facet normal -5.257310e-01 8.506509e-01 1.444955e-07
	outer loop
		vertex -2.315570e-01 6.206857e-02 7.066532e-01
		vertex -3.319861e-01 6.938894e-18 8.691508e-01
		vertex -3.319861e-01 6.938894e-18 8.691508e-01
	endloop
endfacet
facet normal 2.853273e-10 1.000000e+00 -7.787997e-17
	outer loop
		vertex -3.319861e-01 6.938894e-18 8.691508e-01
		vertex -3.319861e-01 6.938894e-18 8.691508e-01
		vertex -3.319861e-01 1.387779e-17 9.582481e-01
	endloop
endfacet
facet normal -5.257313e-01 8.506507e-01 -1.321017e-07
	outer loop
		vertex -3.319861e-01 6.938894e-18 8.691508e-01
		vertex -2.305092e-01 6.271616e-02 7.049578e-01
		vertex -2.314856e-01 6.211275e-02 7.065375e-01
	endloop
endfacet
facet normal 5.257312e-01 -8.506508e-01 6.739963e-08
	outer loop
		vertex -2.314856e-01 6.211275e-02 7.065375e-01
		vertex -3.319861e-01 1.387779e-17 8.691508e-01
		vertex -3.319861e-01 6.938894e-18 8.691508e-01
	endloop
endfacet
facet normal -5.257313e-01 8.506507e-01 -1.052805e-07
	outer loop
		vertex -3.319861e-01 1.387779e-17 8.691508e-01
		vertex -2.305092e-01 6.271616e-02 7.049578e-01
		vertex -2.314856e-01 6.211275e-02 7.065375e-01
	endloop
endfacet
facet normal 5.257312e-01 -8.506508e-01 6.739963e-08
	outer loop
		vertex -2.314856e-01 6.211275e-02 7.065375e-01
		vertex -3.319861e-01 1.387779e-17 8.691508e-01
		vertex -3.319861e-01 6.938894e-18 8.691508e-01
	endloop
endfacet
facet normal 1.000000e+00 0.000000e+00 0.000000e+00
	outer loop
		vertex -3.319861e-01 6.938894e-18 8.691508e-01
		vertex -3.319861e-01 1.387779e-17 8.691508e-01
		vertex -3.319861e-01 1.387779e-17 9.582481e-01
	endloop
endfacet
facet normal -5.257349e-01 8.506485e-01 -2.888018e-06
	outer loop
		vertex -3.319861e-01 6.938894e-18 8.691508e-01
		vertex -2.314856e-01 6.211275e-02 7.065375e-01
		vertex -2.315570e-01 6.206857e-02 7.066532e-01
	endloop
endfacet
facet normal 5.257362e-01 -8.506477e-01 5.493318e-06
	outer loop
		vertex -2.315570e-01 6.206857e-02 7.066532e-01
		vertex -3.319861e-01 2.081668e-17 8.691508e-01
		vertex -3.319861e-01 6.938894e-18 8.691508e-01
	endloop
endfacet
facet normal -5.257342e-01 8.506489e-01 -2.887206e-06
	outer loop
		vertex -3.319861e-01 2.081668e-17 8.691508e-01
		vertex -2.314856e-01 6.211275e-02 7.065375e-01
		vertex -2.315570e-01 6.206857e-02 7.066532e-01
	endloop
endfacet
facet normal 5.257362e-01 -8.506477e-01 5.493318e-06
	outer loop
		vertex -2.315570e-01 6.206857e-02 7.066532e-01
		vertex -3.319861e-01 2.081668e-17 8.691508e-01
		vertex -3.319861e-01 6.938894e-18 8.691508e-01
	endloop
endfacet
facet normal 2.425356e-01 9.701425e-01 7.555467e-17
	outer loop
		vertex -3.319861e-01 6.938894e-18 8.691508e-01
		vertex -3.319861e-01 2.081668e-17 8.691508e-01
		vertex -3.319861e-01 1.387779e-17 9.582481e-01
	endloop
endfacet
facet normal -5.257311e-01 8.506508e-01 3.136190e-09
	outer loop
		vertex -3.319861e-01 0.000000e+00 9.549271e-01
		vertex 5.551115e-17 2.051787e-01 8.530194e-01
		vertex 0.000000e+00 2.051787e-01 8.530193e-01
	endloop
endfacet
facet normal 5.257311e-01 -8.506508e-01 0.000000e+00
	outer loop
		vertex 0.000000e+00 2.051787e-01 8.530193e-01
		vertex -3.319861e-01 0.000000e+00 9.549271e-01
		vertex -3.319861e-01 0.000000e+00 9.549271e-01
	endloop
endfacet
facet normal -5.257311e-01 8.506508e-01 3.136190e-09
	outer loop
		vertex -3.319861e-01 0.000000e+00 9.549271e-01
		vertex 5.551115e-17 2.051787e-01 8.530194e-01
		vertex 0.000000e+00 2.051787e-01 8.530193e-01
	endloop
endfacet
facet normal 5.257311e-01 -8.506508e-01 0.000000e+00
	outer loop
		vertex 0.000000e+00 2.051787e-01 8.530193e-01
		vertex -3.319861e-01 0.000000e+00 9.549271e-01
		vertex -3.319861e-01 0.000000e+00 9.549271e-01
	endloop
endfacet
facet normal -1.000000e+00 0.000000e+00 0.000000e+00
	outer loop
		vertex -3.319861e-01 0.000000e+00 9.549271e-01
		vertex -3.319861e-01 0.000000e+00 9.549271e-01
		vertex -3.319861e-01 1.387779e-17 9.582481e-01
	endloop
endfacet
facet normal 0.000000e+00 4.472136e-01 8.944272e-01
	outer loop
		vertex -3.319861e-01 0.000000e+00 9.549271e-01
		vertex 5.551115e-17 2.051787e-01 8.530193e-01
		vertex 0.000000e+00 2.051787e-01 8.530193e-01
	endloop
endfacet
facet normal 0.000000e+00 0.000000e+00 0.000000e+00
	outer loop
		vertex 0.000000e+00 2.051787e-01 8.530193e-01
		vertex -3.319861e-01 6.938894e-18 9.549271e-01
		vertex -3.319861e-01 0.000000e+00 9.549271e-01
	endloop
endfacet
facet normal 0.000000e+00 4.472136e-01 8.944272e-01
	outer loop
		vertex -3.319861e-01 6.938894e-18 9.549271e-01
		vertex 5.551115e-17 2.051787e-01 8.530193e-01
		vertex 0.000000e+00 2.051787e-01 8.530193e-01
	endloop
endfacet
facet normal 0.000000e+00 0.000000e+00 0.000000e+00
	outer loop
		vertex 0.000000e+00 2.051787e-01 8.530193e-01
		vertex -3.319861e-01 6.938894e-18 9.549271e-01
		vertex -3.319861e-01 0.000000e+00 9.549271e-01
	endloop
endfacet
facet normal 1.000000e+00 0.000000e+00 0.000000e+00
	outer loop
		vertex -3.319861e-01 0.000000e+00 9.549271e-01
		vertex -3.319861e-01 6.938894e-18 9.549271e-01
		vertex -3.319861e-01 1.387779e-17 9.582481e-01
	endloop
endfacet
facet normal 5.257311e-01 -8.506508e-01 2.392524e-13
	outer loop
		vertex -3.319861e-01 0.000000e+00 9.560667e-01
		vertex 5.551115e-17 2.051787e-01 8.599418e-01
		vertex 0.000000e+00 2.051787e-01 8.602391e-01
	endloop
endfacet
facet normal -5.257311e-01 8.506508e-01 0.000000e+00
	outer loop
		vertex 0.000000e+00 2.051787e-01 8.602391e-01
		vertex -3.319861e-01 0.000000e+00 9.560667e-01
		vertex -3.319861e-01 0.000000e+00 9.561156e-01
	endloop
endfacet
facet normal 1.000000e+00 -0.000000e+00 0.000000e+00
	outer loop
		vertex -3.319861e-01 0.000000e+00 9.561156e-01
		vertex -3.319861e-01 0.000000e+00 9.560667e-01
		vertex -3.319861e-01 1.387779e-17 9.582481e-01
	endloop
endfacet
facet normal 5.257311e-01 -8.506508e-01 1.027356e-14
	outer loop
		vertex -3.319861e-01 0.000000e+00 9.549271e-01
		vertex 5.551115e-17 2.051787e-01 8.530194e-01
		vertex 0.000000e+00 2.051787e-01 8.599418e-01
	endloop
endfacet
facet normal -5.257311e-01 8.506508e-01 0.000000e+00
	outer loop
		vertex 0.000000e+00 2.051787e-01 8.599418e-01
		vertex -3.319861e-01 0.000000e+00 9.549271e-01
		vertex -3.319861e-01 0.000000e+00 9.560667e-01
	endloop
endfacet
facet normal 1.000000e+00 -0.000000e+00 0.000000e+00
	outer loop
		vertex -3.319861e-01 0.000000e+00 9.560667e-01
		vertex -3.319861e-01 0.000000e+00 9.549271e-01
		vertex -3.319861e-01 1.387779e-17 9.582481e-01
	endloop
endfacet
facet normal -5.257311e-01 8.506508e-01 -5.758092e-15
	outer loop
		vertex -3.319861e-01 1.387779e-17 9.549271e-01
		vertex 0.000000e+00 2.051787e-01 8.530193e-01
		vertex 0.000000e+00 2.051787e-01 8.406683e-01
	endloop
endfacet
facet normal 5.257311e-01 -8.506508e-01 0.000000e+00
	outer loop
		vertex 0.000000e+00 2.051787e-01 8.406683e-01
		vertex -3.319861e-01 1.387779e-17 9.549271e-01
		vertex -3.319861e-01 0.000000e+00 9.528937e-01
	endloop
endfacet
facet normal 1.000000e+00 0.000000e+00 0.000000e+00
	outer loop
		vertex -3.319861e-01 0.000000e+00 9.528937e-01
		vertex -3.319861e-01 1.387779e-17 9.549271e-01
		vertex -3.319861e-01 1.387779e-17 9.582481e-01
	endloop
endfacet
facet normal -5.257311e-01 8.506508e-01 -9.123517e-12
	outer loop
		vertex -3.319861e-01 1.387779e-17 9.528937e-01
		vertex 0.000000e+00 2.051787e-01 8.406683e-01
		vertex 5.551115e-17 2.051787e-01 8.406644e-01
	endloop
endfacet
facet normal 5.257311e-01 -8.506508e-01 5.541928e-11
	outer loop
		vertex 5.551115e-17 2.051787e-01 8.406644e-01
		vertex -3.319861e-01 1.387779e-17 9.528937e-01
		vertex -3.319861e-01 0.000000e+00 9.528931e-01
	endloop
endfacet
facet normal 1.000000e+00 0.000000e+00 0.000000e+00
	outer loop
		vertex -3.319861e-01 0.000000e+00 9.528931e-01
		vertex -3.319861e-01 1.387779e-17 9.528937e-01
		vertex -3.319861e-01 1.387779e-17 9.582481e-01
	endloop
endfacet
facet normal -5.257311e-01 8.506508e-01 0.000000e+00
	outer loop
		vertex -3.319861e-01 1.387779e-17 9.528931e-01
		vertex 0.000000e+00 2.051787e-01 8.406644e-01
		vertex 0.000000e+00 2.051787e-01 8.392042e-01
	endloop
endfacet
facet normal 5.257311e-01 -8.506508e-01 0.000000e+00
	outer loop
		vertex 0.000000e+00 2.051787e-01 8.392042e-01
		vertex -3.319861e-01 1.387779e-17 9.528931e-01
		vertex -3.319861e-01 0.000000e+00 9.526527e-01
	endloop
endfacet
facet normal 1.000000e+00 0.000000e+00 0.000000e+00
	outer loop
		vertex -3.319861e-01 0.000000e+00 9.526527e-01
		vertex -3.319861e-01 1.387779e-17 9.528931e-01
		vertex -3.319861e-01 1.387779e-17 9.582481e-01
	endloop
endfacet
facet normal -5.257311e-01 8.506508e-01 8.552759e-14
	outer loop
		vertex -3.319861e-01 0.000000e+00 9.526527e-01
		vertex 1.110223e-16 2.051787e-01 8.392042e-01
		vertex 0.000000e+00 2.051787e-01 8.371254e-01
	endloop
endfacet
facet normal 5.257311e-01 -8.506508e-01 -1.039046e-13
	outer loop
		vertex 0.000000e+00 2.051787e-01 8.371254e-01
		vertex -3.319861e-01 0.000000e+00 9.526527e-01
		vertex -3.319861e-01 0.000000e+00 9.523105e-01
	endloop
endfacet
facet normal -1.440782e-02 -9.998962e-01 2.337016e-15
	outer loop
		vertex -3.319861e-01 0.000000e+00 9.523105e-01
		vertex -3.319861e-01 0.000000e+00 9.526527e-01
		vertex -3.319861e-01 1.387779e-17 9.582481e-01
	endloop
endfacet
facet normal -5.257311e-01 8.506508e-01 1.720664e-13
	outer loop
		vertex -3.319861e-01 0.000000e+00 9.523105e-01
		vertex 1.110223e-16 2.051787e-01 8.371254e-01
		vertex 0.000000e+00 2.051787e-01 8.365054e-01
	endloop
endfacet
facet normal 5.257311e-01 -8.506508e-01 -3.483963e-13
	outer loop
		vertex 0.000000e+00 2.051787e-01 8.365054e-01
		vertex -3.319861e-01 0.000000e+00 9.523105e-01
		vertex -3.319861e-01 0.000000e+00 9.522084e-01
	endloop
endfacet
facet normal -4.224730e-03 -9.999911e-01 2.297741e-15
	outer loop
		vertex -3.319861e-01 0.000000e+00 9.522084e-01
		vertex -3.319861e-01 0.000000e+00 9.523105e-01
		vertex -3.319861e-01 1.387779e-17 9.582481e-01
	endloop
endfacet
facet normal -5.257311e-01 8.506508e-01 0.000000e+00
	outer loop
		vertex -3.319861e-01 1.387779e-17 9.522084e-01
		vertex 0.000000e+00 2.051787e-01 8.365054e-01
		vertex 0.000000e+00 2.051787e-01 8.149490e-01
	endloop
endfacet
facet normal 5.257311e-01 -8.506508e-01 0.000000e+00
	outer loop
		vertex 0.000000e+00 2.051787e-01 8.149490e-01
		vertex -3.319861e-01 1.387779e-17 9.522084e-01
		vertex -3.319861e-01 0.000000e+00 9.486596e-01
	endloop
endfacet
facet normal 1.000000e+00 0.000000e+00 0.000000e+00
	outer loop
		vertex -3.319861e-01 0.000000e+00 9.486596e-01
		vertex -3.319861e-01 1.387779e-17 9.522084e-01
		vertex -3.319861e-01 1.387779e-17 9.582481e-01
	endloop
endfacet
facet normal -5.257311e-01 8.506508e-01 0.000000e+00
	outer loop
		vertex -3.319861e-01 2.775558e-17 8.691508e-01
		vertex -1.408180e-01 1.181484e-01 5.598343e-01
		vertex -2.208572e-01 6.868144e-02 6.893405e-01
	endloop
endfacet
facet normal 5.257311e-01 -8.506508e-01 0.000000e+00
	outer loop
		vertex -2.208572e-01 6.868144e-02 6.893405e-01
		vertex -3.319861e-01 2.775558e-17 8.691508e-01
		vertex -3.319861e-01 2.775558e-17 8.691508e-01
	endloop
endfacet
facet normal -5.257311e-01 8.506508e-01 0.000000e+00
	outer loop
		vertex -3.319861e-01 2.775558e-17 8.691508e-01
		vertex -1.408180e-01 1.181484e-01 5.598343e-01
		vertex -2.208572e-01 6.868144e-02 6.893405e-01
	endloop
endfacet
facet normal 5.257311e-01 -8.506508e-01 0.000000e+00
	outer loop
		vertex -2.208572e-01 6.868144e-02 6.893405e-01
		vertex -3.319861e-01 2.775558e-17 8.691508e-01
		vertex -3.319861e-01 2.775558e-17 8.691508e-01
	endloop
endfacet
facet normal 2.425356e-01 9.701425e-01 -0.000000e+00
	outer loop
		vertex -3.319861e-01 2.775558e-17 8.691508e-01
		vertex -3.319861e-01 2.775558e-17 8.691508e-01
		vertex -3.319861e-01 1.387779e-17 9.582481e-01
	endloop
endfacet
facet normal -5.257311e-01 8.506508e-01 2.662377e-09
	outer loop
		vertex -3.319861e-01 1.387779e-17 8.691508e-01
		vertex -2.208572e-01 6.868144e-02 6.893405e-01
		vertex -2.305092e-01 6.271616e-02 7.049578e-01
	endloop
endfacet
facet normal 5.257311e-01 -8.506508e-01 -1.436927e-08
	outer loop
		vertex -2.305092e-01 6.271616e-02 7.049578e-01
		vertex -3.319861e-01 6.938894e-18 8.691508e-01
		vertex -3.319861e-01 1.387779e-17 8.691508e-01
	endloop
endfacet
facet normal -5.257311e-01 8.506508e-01 2.571732e-09
	outer loop
		vertex -3.319861e-01 6.938894e-18 8.691508e-01
		vertex -2.208572e-01 6.868144e-02 6.893405e-01
		vertex -2.305092e-01 6.271616e-02 7.049578e-01
	endloop
endfacet
facet normal 5.257311e-01 -8.506508e-01 -1.436927e-08
	outer loop
		vertex -2.305092e-01 6.271616e-02 7.049578e-01
		vertex -3.319861e-01 6.938894e-18 8.691508e-01
		vertex -3.319861e-01 1.387779e-17 8.691508e-01
	endloop
endfacet
facet normal -1.000000e+00 0.000000e+00 0.000000e+00
	outer loop
		vertex -3.319861e-01 1.387779e-17 8.691508e-01
		vertex -3.319861e-01 6.938894e-18 8.691508e-01
		vertex -3.319861e-01 1.387779e-17 9.582481e-01
	endloop
endfacet
facet normal -5.257311e-01 8.506508e-01 5.875287e-09
	outer loop
		vertex -3.319861e-01 1.387779e-17 8.691508e-01
		vertex -7.420843e-02 1.593154e-01 4.520578e-01
		vertex -1.305784e-01 1.244768e-01 5.432664e-01
	endloop
endfacet
facet normal 5.257311e-01 -8.506508e-01 -7.256088e-09
	outer loop
		vertex -1.305784e-01 1.244768e-01 5.432664e-01
		vertex -3.319861e-01 6.938894e-18 8.691508e-01
		vertex -3.319861e-01 1.387779e-17 8.691508e-01
	endloop
endfacet
facet normal -5.257311e-01 8.506508e-01 5.560270e-09
	outer loop
		vertex -3.319861e-01 6.938894e-18 8.691508e-01
		vertex -7.420843e-02 1.593154e-01 4.520578e-01
		vertex -1.305784e-01 1.244768e-01 5.432664e-01
	endloop
endfacet
facet normal 5.257311e-01 -8.506508e-01 -7.256088e-09
	outer loop
		vertex -1.305784e-01 1.244768e-01 5.432664e-01
		vertex -3.319861e-01 6.938894e-18 8.691508e-01
		vertex -3.319861e-01 1.387779e-17 8.691508e-01
	endloop
endfacet
facet normal -1.000000e+00 0.000000e+00 0.000000e+00
	outer loop
		vertex -3.319861e-01 1.387779e-17 8.691508e-01
		vertex -3.319861e-01 6.938894e-18 8.691508e-01
		vertex -3.319861e-01 1.387779e-17 9.582481e-01
	endloop
endfacet
facet normal 5.257312e-01 -8.506508e-01 4.043021e-08
	outer loop
		vertex -3.319861e-01 1.387779e-17 8.691508e-01
		vertex -1.408180e-01 1.181484e-01 5.598343e-01
		vertex -1.305784e-01 1.244768e-01 5.432664e-01
	endloop
endfacet
facet normal -5.257311e-01 8.506508e-01 -3.171315e-08
	outer loop
		vertex -1.305784e-01 1.244768e-01 5.432664e-01
		vertex -3.319861e-01 -6.938894e-18 8.691508e-01
		vertex -3.319861e-01 1.387779e-17 8.691508e-01
	endloop
endfacet
facet normal 5.257312e-01 -8.506508e-01 4.096119e-08
	outer loop
		vertex -3.319861e-01 -6.938894e-18 8.691508e-01
		vertex -1.408180e-01 1.181484e-01 5.598343e-01
		vertex -1.305784e-01 1.244768e-01 5.432664e-01
	endloop
endfacet
facet normal -5.257311e-01 8.506508e-01 -3.171315e-08
	outer loop
		vertex -1.305784e-01 1.244768e-01 5.432664e-01
		vertex -3.319861e-01 -6.938894e-18 8.691508e-01
		vertex -3.319861e-01 1.387779e-17 8.691508e-01
	endloop
endfacet
facet normal -1.000000e+00 -0.000000e+00 0.000000e+00
	outer loop
		vertex -3.319861e-01 1.387779e-17 8.691508e-01
		vertex -3.319861e-01 -6.938894e-18 8.691508e-01
		vertex -3.319861e-01 1.387779e-17 9.582481e-01
	endloop
endfacet
facet normal -5.257311e-01 8.506508e-01 -1.772077e-15
	outer loop
		vertex -3.319861e-01 2.081668e-17 9.486596e-01
		vertex -5.551115e-17 2.051787e-01 8.149490e-01
		vertex 0.000000e+00 2.051787e-01 7.547498e-01
	endloop
endfacet
facet normal 5.257311e-01 -8.506508e-01 0.000000e+00
	outer loop
		vertex 0.000000e+00 2.051787e-01 7.547498e-01
		vertex -3.319861e-01 2.081668e-17 9.486596e-01
		vertex -3.319861e-01 0.000000e+00 9.387492e-01
	endloop
endfacet
facet normal 1.000000e+00 0.000000e+00 0.000000e+00
	outer loop
		vertex -3.319861e-01 0.000000e+00 9.387492e-01
		vertex -3.319861e-01 2.081668e-17 9.486596e-01
		vertex -3.319861e-01 1.387779e-17 9.582481e-01
	endloop
endfacet
facet normal -5.257311e-01 8.506508e-01 -1.575299e-08
	outer loop
		vertex -3.319861e-01 0.000000e+00 8.691508e-01
		vertex -6.315070e-02 1.661494e-01 4.341661e-01
		vertex -7.309035e-02 1.600064e-01 4.502487e-01
	endloop
endfacet
facet normal 5.257312e-01 -8.506508e-01 0.000000e+00
	outer loop
		vertex -7.309035e-02 1.600064e-01 4.502487e-01
		vertex -3.319861e-01 6.938894e-18 8.691508e-01
		vertex -3.319861e-01 0.000000e+00 8.691508e-01
	endloop
endfacet
facet normal -5.257312e-01 8.506508e-01 -1.563549e-08
	outer loop
		vertex -3.319861e-01 6.938894e-18 8.691508e-01
		vertex -6.315070e-02 1.661494e-01 4.341661e-01
		vertex -7.309035e-02 1.600064e-01 4.502487e-01
	endloop
endfacet
facet normal 5.257312e-01 -8.506508e-01 0.000000e+00
	outer loop
		vertex -7.309035e-02 1.600064e-01 4.502487e-01
		vertex -3.319861e-01 6.938894e-18 8.691508e-01
		vertex -3.319861e-01 0.000000e+00 8.691508e-01
	endloop
endfacet
facet normal 1.240347e-01 -9.922779e-01 7.727858e-17
	outer loop
		vertex -3.319861e-01 0.000000e+00 8.691508e-01
		vertex -3.319861e-01 6.938894e-18 8.691508e-01
		vertex -3.319861e-01 1.387779e-17 9.582481e-01
	endloop
endfacet
facet normal -5.257308e-01 8.506510e-01 4.204954e-07
	outer loop
		vertex -3.319861e-01 2.775558e-17 8.691508e-01
		vertex -7.309035e-02 1.600064e-01 4.502487e-01
		vertex -7.420843e-02 1.593154e-01 4.520578e-01
	endloop
endfacet
facet normal 5.257306e-01 -8.506511e-01 -6.948209e-07
	outer loop
		vertex -7.420843e-02 1.593154e-01 4.520578e-01
		vertex -3.319861e-01 0.000000e+00 8.691508e-01
		vertex -3.319861e-01 2.775558e-17 8.691508e-01
	endloop
endfacet
facet normal -5.257303e-01 8.506513e-01 7.002123e-07
	outer loop
		vertex -3.319861e-01 0.000000e+00 8.691508e-01
		vertex -7.309035e-02 1.600064e-01 4.502487e-01
		vertex -7.420843e-02 1.593154e-01 4.520578e-01
	endloop
endfacet
facet normal 5.257306e-01 -8.506511e-01 -6.948209e-07
	outer loop
		vertex -7.420843e-02 1.593154e-01 4.520578e-01
		vertex -3.319861e-01 0.000000e+00 8.691508e-01
		vertex -3.319861e-01 2.775558e-17 8.691508e-01
	endloop
endfacet
facet normal -4.472136e-01 8.944272e-01 -1.393159e-16
	outer loop
		vertex -3.319861e-01 2.775558e-17 8.691508e-01
		vertex -3.319861e-01 0.000000e+00 8.691508e-01
		vertex -3.319861e-01 1.387779e-17 9.582481e-01
	endloop
endfacet
facet normal 5.257311e-01 -8.506508e-01 -3.814064e-15
	outer loop
		vertex -3.319861e-01 1.387779e-17 9.356795e-01
		vertex 0.000000e+00 2.051787e-01 7.361035e-01
		vertex 0.000000e+00 2.051787e-01 7.547498e-01
	endloop
endfacet
facet normal -5.257311e-01 8.506508e-01 1.158395e-14
	outer loop
		vertex 0.000000e+00 2.051787e-01 7.547498e-01
		vertex -3.319861e-01 1.387779e-17 9.356795e-01
		vertex -3.319861e-01 0.000000e+00 9.387492e-01
	endloop
endfacet
facet normal 1.000000e+00 -0.000000e+00 0.000000e+00
	outer loop
		vertex -3.319861e-01 0.000000e+00 9.387492e-01
		vertex -3.319861e-01 1.387779e-17 9.356795e-01
		vertex -3.319861e-01 1.387779e-17 9.582481e-01
	endloop
endfacet
facet normal -5.257311e-01 8.506508e-01 -2.460959e-09
	outer loop
		vertex -3.319861e-01 2.775558e-17 8.691508e-01
		vertex -5.682202e-18 2.051787e-01 3.319861e-01
		vertex -6.315070e-02 1.661494e-01 4.341661e-01
	endloop
endfacet
facet normal 5.257311e-01 -8.506508e-01 -1.494869e-08
	outer loop
		vertex -6.315070e-02 1.661494e-01 4.341661e-01
		vertex -3.319861e-01 1.387779e-17 8.691508e-01
		vertex -3.319861e-01 2.775558e-17 8.691508e-01
	endloop
endfacet
facet normal -5.257311e-01 8.506508e-01 0.000000e+00
	outer loop
		vertex -3.319861e-01 1.387779e-17 8.691508e-01
		vertex -5.682202e-18 2.051787e-01 3.319861e-01
		vertex -6.315070e-02 1.661494e-01 4.341661e-01
	endloop
endfacet
facet normal 5.257311e-01 -8.506508e-01 -1.494869e-08
	outer loop
		vertex -6.315070e-02 1.661494e-01 4.341661e-01
		vertex -3.319861e-01 1.387779e-17 8.691508e-01
		vertex -3.319861e-01 2.775558e-17 8.691508e-01
	endloop
endfacet
facet normal -1.000000e+00 0.000000e+00 0.000000e+00
	outer loop
		vertex -3.319861e-01 2.775558e-17 8.691508e-01
		vertex -3.319861e-01 1.387779e-17 8.691508e-01
		vertex -3.319861e-01 1.387779e-17 9.582481e-01
	endloop
endfacet
facet normal 0.000000e+00 0.000000e+00 0.000000e+00
	outer loop
		vertex -3.319861e-01 -2.775558e-17 8.691508e-01
		vertex -5.682202e-18 2.051787e-01 3.319861e-01
		vertex -5.682202e-18 2.051787e-01 3.319861e-01
	endloop
endfacet
facet normal -2.357023e-01 9.428090e-01 2.357023e-01
	outer loop
		vertex -5.682202e-18 2.051787e-01 3.319861e-01
		vertex -3.319861e-01 1.387779e-17 8.691508e-01
		vertex -3.319861e-01 -2.775558e-17 8.691508e-01
	endloop
endfacet
facet normal 0.000000e+00 0.000000e+00 0.000000e+00
	outer loop
		vertex -3.319861e-01 1.387779e-17 8.691508e-01
		vertex -5.682202e-18 2.051787e-01 3.319861e-01
		vertex -5.682202e-18 2.051787e-01 3.319861e-01
	endloop
endfacet
facet normal -2.357023e-01 9.428090e-01 2.357023e-01
	outer loop
		vertex -5.682202e-18 2.051787e-01 3.319861e-01
		vertex -3.319861e-01 1.387779e-17 8.691508e-01
		vertex -3.319861e-01 -2.775558e-17 8.691508e-01
	endloop
endfacet
facet normal 6.000000e-01 -8.000000e-01 0.000000e+00
	outer loop
		vertex -3.319861e-01 -2.775558e-17 8.691508e-01
		vertex -3.319861e-01 1.387779e-17 8.691508e-01
		vertex -3.319861e-01 1.387779e-17 9.582481e-01
	endloop
endfacet
facet normal 5.257311e-01 -8.506508e-01 0.000000e+00
	outer loop
		vertex -3.319861e-01 6.938894e-18 8.691508e-01
		vertex 2.775558e-17 2.051787e-01 3.319861e-01
		vertex 2.775558e-17 2.051787e-01 7.361035e-01
	endloop
endfacet
facet normal -5.257311e-01 8.506508e-01 0.000000e+00
	outer loop
		vertex 2.775558e-17 2.051787e-01 7.361035e-01
		vertex -3.319861e-01 6.938894e-18 8.691508e-01
		vertex -3.319861e-01 0.000000e+00 9.356795e-01
	endloop
endfacet
facet normal 2.133119e-01 -9.769841e-01 7.608750e-17
	outer loop
		vertex -3.319861e-01 0.000000e+00 9.356795e-01
		vertex -3.319861e-01 6.938894e-18 8.691508e-01
		vertex -3.319861e-01 1.387779e-17 9.582481e-01
	endloop
endfacet
facet normal 5.773503e-01 -5.773503e-01 5.773503e-01
	outer loop
		vertex -3.319861e-01 -2.775558e-17 8.691508e-01
		vertex 2.775558e-17 2.051787e-01 3.319861e-01
		vertex -5.551115e-17 2.051787e-01 3.319861e-01
	endloop
endfacet
facet normal -1.000000e+00 0.000000e+00 0.000000e+00
	outer loop
		vertex -5.551115e-17 2.051787e-01 3.319861e-01
		vertex -3.319861e-01 6.938894e-18 8.691508e-01
		vertex -3.319861e-01 -2.775558e-17 8.691508e-01
	endloop
endfacet
facet normal 7.276069e-01 4.850713e-01 4.850713e-01
	outer loop
		vertex -3.319861e-01 6.938894e-18 8.691508e-01
		vertex 2.775558e-17 2.051787e-01 3.319861e-01
		vertex -5.551115e-17 2.051787e-01 3.319861e-01
	endloop
endfacet
facet normal -1.000000e+00 0.000000e+00 0.000000e+00
	outer loop
		vertex -5.551115e-17 2.051787e-01 3.319861e-01
		vertex -3.319861e-01 6.938894e-18 8.691508e-01
		vertex -3.319861e-01 -2.775558e-17 8.691508e-01
	endloop
endfacet
facet normal 5.299989e-01 -8.479983e-01 6.604209e-17
	outer loop
		vertex -3.319861e-01 -2.775558e-17 8.691508e-01
		vertex -3.319861e-01 6.938894e-18 8.691508e-01
		vertex -3.319861e-01 1.387779e-17 9.582481e-01
	endloop
endfacet
facet normal -5.257311e-01 8.506508e-01 2.639766e-16
	outer loop
		vertex -3.319861e-01 1.387779e-17 9.356795e-01
		vertex 2.775558e-17 2.051787e-01 7.361035e-01
		vertex -5.551115e-17 2.051787e-01 3.319861e-01
	endloop
endfacet
facet normal 5.257311e-01 -8.506508e-01 0.000000e+00
	outer loop
		vertex -5.551115e-17 2.051787e-01 3.319861e-01
		vertex -3.319861e-01 1.387779e-17 9.356795e-01
		vertex -3.319861e-01 -2.775558e-17 8.691508e-01
	endloop
endfacet
facet normal 6.000000e-01 -8.000000e-01 0.000000e+00
	outer loop
		vertex -3.319861e-01 -2.775558e-17 8.691508e-01
		vertex -3.319861e-01 1.387779e-17 9.356795e-01
		vertex -3.319861e-01 1.387779e-17 9.582481e-01
	endloop
endfacet
facet normal -8.506508e-01 -1.749345e-16 5.257311e-01
	outer loop
		vertex 0.000000e+00 -2.051787e-01 3.319861e-01
		vertex 3.317303e-01 -1.580858e-04 8.687369e-01
		vertex -5.551115e-17 6.475436e-02 3.319861e-01
	endloop
endfacet
facet normal 0.000000e+00 0.000000e+00 1.000000e+00
	outer loop
		vertex -5.551115e-17 6.475436e-02 3.319861e-01
		vertex -1.444500e-17 -2.051787e-01 3.319861e-01
		vertex 0.000000e+00 -2.051787e-01 3.319861e-01
	endloop
endfacet
facet normal -8.506508e-01 -1.294134e-16 5.257311e-01
	outer loop
		vertex -1.444500e-17 -2.051787e-01 3.319861e-01
		vertex 3.317303e-01 -1.580858e-04 8.687369e-01
		vertex -5.551115e-17 6.475436e-02 3.319861e-01
	endloop
endfacet
facet normal 0.000000e+00 0.000000e+00 1.000000e+00
	outer loop
		vertex -5.551115e-17 6.475436e-02 3.319861e-01
		vertex -1.444500e-17 -2.051787e-01 3.319861e-01
		vertex 0.000000e+00 -2.051787e-01 3.319861e-01
	endloop
endfacet
facet normal 0.000000e+00 9.502983e-01 -3.113409e-01
	outer loop
		vertex 0.000000e+00 -2.051787e-01 3.319861e-01
		vertex -1.444500e-17 -2.051787e-01 3.319861e-01
		vertex -3.319861e-01 1.387779e-17 9.582481e-01
	endloop
endfacet
facet normal 0.000000e+00 0.000000e+00 0.000000e+00
	outer loop
		vertex 0.000000e+00 -2.051787e-01 3.319861e-01
		vertex 3.317303e-01 -1.580858e-04 8.687369e-01
		vertex 3.317303e-01 -1.580858e-04 8.687369e-01
	endloop
endfacet
facet normal 0.000000e+00 0.000000e+00 0.000000e+00
	outer loop
		vertex 3.317303e-01 -1.580858e-04 8.687369e-01
		vertex 0.000000e+00 -2.051787e-01 3.319861e-01
		vertex 0.000000e+00 -2.051787e-01 3.319861e-01
	endloop
endfacet
facet normal 0.000000e+00 0.000000e+00 0.000000e+00
	outer loop
		vertex 0.000000e+00 -2.051787e-01 3.319861e-01
		vertex 3.317303e-01 -1.580858e-04 8.687369e-01
		vertex 3.317303e-01 -1.580858e-04 8.687369e-01
	endloop
endfacet
facet normal 0.000000e+00 0.000000e+00 0.000000e+00
	outer loop
		vertex 3.317303e-01 -1.580858e-04 8.687369e-01
		vertex 0.000000e+00 -2.051787e-01 3.319861e-01
		vertex 0.000000e+00 -2.051787e-01 3.319861e-01
	endloop
endfacet
facet normal 0.000000e+00 0.000000e+00 0.000000e+00
	outer loop
		vertex 0.000000e+00 -2.051787e-01 3.319861e-01
		vertex 0.000000e+00 -2.051787e-01 3.319861e-01
		vertex -3.319861e-01 1.387779e-17 9.582481e-01
	endloop
endfacet
facet normal 5.257311e-01 -8.506508e-01 -2.811615e-08
	outer loop
		vertex 0.000000e+00 -2.051787e-01 8.142655e-01
		vertex -5.551115e-17 -2.051787e-01 8.142655e-01
		vertex 3.317303e-01 -1.580858e-04 8.687369e-01
	endloop
endfacet
facet normal 5.257311e-01 8.506508e-01 -2.663199e-07
	outer loop
		vertex 0.000000e+00 -2.051787e-01 8.142655e-01
		vertex -5.551115e-17 -2.051787e-01 8.142655e-01
		vertex -3.319861e-01 1.387779e-17 9.582481e-01
	endloop
endfacet
facet normal -5.257311e-01 8.506508e-01 -2.834798e-14
	outer loop
		vertex -5.551115e-17 -2.051787e-01 8.142655e-01
		vertex -1.110223e-16 -2.051787e-01 8.144621e-01
		vertex 3.317303e-01 -1.580858e-04 8.687369e-01
	endloop
endfacet
facet normal -5.257311e-01 -8.506508e-01 -2.685158e-13
	outer loop
		vertex -5.551115e-17 -2.051787e-01 8.142655e-01
		vertex -1.110223e-16 -2.051787e-01 8.144621e-01
		vertex -3.319861e-01 1.387779e-17 9.582481e-01
	endloop
endfacet
facet normal 4.685266e-17 5.257311e-01 -8.506508e-01
	outer loop
		vertex 5.551115e-17 -2.051787e-01 8.731926e-01
		vertex -3.302367e-01 -1.081196e-03 9.993318e-01
		vertex 3.086311e-01 -1.443419e-02 9.910792e-01
	endloop
endfacet
facet normal -5.257311e-01 -8.506508e-01 8.561901e-16
	outer loop
		vertex 5.551115e-17 -2.051787e-01 8.731926e-01
		vertex -3.302367e-01 -1.081196e-03 9.993318e-01
		vertex -3.319861e-01 1.387779e-17 9.582481e-01
	endloop
endfacet
facet normal -5.257311e-01 8.506508e-01 0.000000e+00
	outer loop
		vertex 5.551115e-17 -2.051787e-01 8.731926e-01
		vertex 3.086311e-01 -1.443419e-02 9.910792e-01
		vertex 3.317303e-01 -1.580858e-04 8.687369e-01
	endloop
endfacet
facet normal -5.257311e-01 8.506508e-01 6.094894e-16
	outer loop
		vertex 3.317303e-01 -1.580858e-04 8.687369e-01
		vertex 0.000000e+00 -2.051787e-01 8.148050e-01
		vertex 5.551115e-17 -2.051787e-01 8.731926e-01
	endloop
endfacet
facet normal 5.257311e-01 8.506508e-01 -4.998316e-16
	outer loop
		vertex 5.551115e-17 -2.051787e-01 8.731926e-01
		vertex 0.000000e+00 -2.051787e-01 8.148050e-01
		vertex -3.319861e-01 1.387779e-17 9.582481e-01
	endloop
endfacet
facet normal -5.257311e-01 8.506508e-01 0.000000e+00
	outer loop
		vertex 0.000000e+00 -2.051787e-01 8.144621e-01
		vertex 0.000000e+00 -2.051787e-01 8.148050e-01
		vertex 3.317303e-01 -1.580858e-04 8.687369e-01
	endloop
endfacet
facet normal -5.257311e-01 -8.506508e-01 0.000000e+00
	outer loop
		vertex 0.000000e+00 -2.051787e-01 8.144621e-01
		vertex 0.000000e+00 -2.051787e-01 8.148050e-01
		vertex -3.319861e-01 1.387779e-17 9.582481e-01
	endloop
endfacet
facet normal 0.000000e+00 0.000000e+00 0.000000e+00
	outer loop
		vertex -3.319861e-01 0.000000e+00 1.000000e+00
		vertex 3.319861e-01 0.000000e+00 1.000000e+00
		vertex 3.319861e-01 0.000000e+00 1.000000e+00
	endloop
endfacet
facet normal 0.000000e+00 0.000000e+00 0.000000e+00
	outer loop
		vertex 3.319861e-01 0.000000e+00 1.000000e+00
		vertex -3.319861e-01 0.000000e+00 1.000000e+00
		vertex -3.319861e-01 0.000000e+00 1.000000e+00
	endloop
endfacet
facet normal 0.000000e+00 0.000000e+00 0.000000e+00
	outer loop
		vertex -3.319861e-01 0.000000e+00 1.000000e+00
		vertex 3.319861e-01 0.000000e+00 1.000000e+00
		vertex 3.319861e-01 0.000000e+00 1.000000e+00
	endloop
endfacet
facet normal 0.000000e+00 0.000000e+00 0.000000e+00
	outer loop
		vertex 3.319861e-01 0.000000e+00 1.000000e+00
		vertex -3.319861e-01 0.000000e+00 1.000000e+00
		vertex -3.319861e-01 0.000000e+00 1.000000e+00
	endloop
endfacet
facet normal 0.000000e+00 0.000000e+00 0.000000e+00
	outer loop
		vertex -3.319861e-01 0.000000e+00 1.000000e+00
		vertex -3.319861e-01 0.000000e+00 1.000000e+00
		vertex -3.319861e-01 1.387779e-17 9.582481e-01
	endloop
endfacet
facet normal -1.373549e-18 5.257311e-01 -8.506508e-01
	outer loop
		vertex -3.319861e-01 -1.734723e-18 1.000000e+00
		vertex 3.319861e-01 0.000000e+00 1.000000e+00
		vertex 3.087455e-01 -1.436345e-02 9.911229e-01
	endloop
endfacet
facet normal 3.123475e-02 9.995121e-01 0.000000e+00
	outer loop
		vertex 3.087455e-01 -1.436345e-02 9.911229e-01
		vertex -3.319861e-01 0.000000e+00 1.000000e+00
		vertex -3.319861e-01 -1.734723e-18 1.000000e+00
	endloop
endfacet
facet normal 0.000000e+00 5.257311e-01 -8.506508e-01
	outer loop
		vertex -3.319861e-01 0.000000e+00 1.000000e+00
		vertex 3.319861e-01 0.000000e+00 1.000000e+00
		vertex 3.087455e-01 -1.436345e-02 9.911229e-01
	endloop
endfacet
facet normal 3.123475e-02 9.995121e-01 0.000000e+00
	outer loop
		vertex 3.087455e-01 -1.436345e-02 9.911229e-01
		vertex -3.319861e-01 0.000000e+00 1.000000e+00
		vertex -3.319861e-01 -1.734723e-18 1.000000e+00
	endloop
endfacet
facet normal -3.123475e-02 -9.995121e-01 -2.906968e-16
	outer loop
		vertex -3.319861e-01 -1.734723e-18 1.000000e+00
		vertex -3.319861e-01 0.000000e+00 1.000000e+00
		vertex -3.319861e-01 1.387779e-17 9.582481e-01
	endloop
endfacet
facet normal -1.373549e-18 5.257311e-01 -8.506508e-01
	outer loop
		vertex -3.319861e-01 -1.734723e-18 1.000000e+00
		vertex 3.319861e-01 0.000000e+00 1.000000e+00
		vertex 3.087455e-01 -1.436345e-02 9.911229e-01
	endloop
endfacet
facet normal 3.123475e-02 9.995121e-01 0.000000e+00
	outer loop
		vertex 3.087455e-01 -1.436345e-02 9.911229e-01
		vertex -3.319861e-01 0.000000e+00 1.000000e+00
		vertex -3.319861e-01 -1.734723e-18 1.000000e+00
	endloop
endfacet
facet normal 0.000000e+00 5.257311e-01 -8.506508e-01
	outer loop
		vertex -3.319861e-01 0.000000e+00 1.000000e+00
		vertex 3.319861e-01 0.000000e+00 1.000000e+00
		vertex 3.087455e-01 -1.436345e-02 9.911229e-01
	endloop
endfacet
facet normal 3.123475e-02 9.995121e-01 0.000000e+00
	outer loop
		vertex 3.087455e-01 -1.436345e-02 9.911229e-01
		vertex -3.319861e-01 0.000000e+00 1.000000e+00
		vertex -3.319861e-01 -1.734723e-18 1.000000e+00
	endloop
endfacet
facet normal -3.123475e-02 -9.995121e-01 -2.906968e-16
	outer loop
		vertex -3.319861e-01 -1.734723e-18 1.000000e+00
		vertex -3.319861e-01 0.000000e+00 1.000000e+00
		vertex -3.319861e-01 1.387779e-17 9.582481e-01
	endloop
endfacet
facet normal -5.268624e-16 5.257311e-01 -8.506508e-01
	outer loop
		vertex -3.302367e-01 -1.081196e-03 9.993318e-01
		vertex -3.319861e-01 -2.602085e-18 1.000000e+00
		vertex 3.086311e-01 -1.443419e-02 9.910792e-01
	endloop
endfacet
facet normal -5.257311e-01 -8.506508e-01 3.649935e-16
	outer loop
		vertex -3.302367e-01 -1.081196e-03 9.993318e-01
		vertex -3.319861e-01 -2.602085e-18 1.000000e+00
		vertex -3.319861e-01 1.387779e-17 9.582481e-01
	endloop
endfacet
facet normal -5.549330e-16 5.257311e-01 -8.506508e-01
	outer loop
		vertex -3.302367e-01 -1.081196e-03 9.993318e-01
		vertex -3.319861e-01 0.000000e+00 1.000000e+00
		vertex 3.086311e-01 -1.443419e-02 9.910792e-01
	endloop
endfacet
facet normal -5.257311e-01 -8.506508e-01 4.167831e-16
	outer loop
		vertex -3.302367e-01 -1.081196e-03 9.993318e-01
		vertex -3.319861e-01 0.000000e+00 1.000000e+00
		vertex -3.319861e-01 1.387779e-17 9.582481e-01
	endloop
endfacet
facet normal -1.392400e-02 0.000000e+00 -9.999031e-01
	outer loop
		vertex -3.319861e-01 -2.602085e-18 1.000000e+00
		vertex -3.319861e-01 0.000000e+00 1.000000e+00
		vertex 3.086311e-01 -1.443419e-02 9.910792e-01
	endloop
endfacet
facet normal -1.000000e+00 0.000000e+00 1.329549e-15
	outer loop
		vertex -3.319861e-01 -2.602085e-18 1.000000e+00
		vertex -3.319861e-01 0.000000e+00 1.000000e+00
		vertex -3.319861e-01 1.387779e-17 9.582481e-01
	endloop
endfacet
facet normal -8.506508e-01 0.000000e+00 -5.257311e-01
	outer loop
		vertex -2.610580e-01 -4.383600e-02 7.543867e-01
		vertex -3.319861e-01 -7.590910e-09 8.691508e-01
		vertex -2.610580e-01 4.383600e-02 7.543867e-01
	endloop
endfacet
facet normal 5.257311e-01 8.506508e-01 -1.167531e-16
	outer loop
		vertex -2.610580e-01 -4.383600e-02 7.543867e-01
		vertex -3.319861e-01 -7.590910e-09 8.691508e-01
		vertex -3.319861e-01 1.387779e-17 9.582481e-01
	endloop
endfacet
facet normal 5.257311e-01 -8.506508e-01 2.480050e-15
	outer loop
		vertex -5.551115e-17 -2.051787e-01 8.142655e-01
		vertex -5.551115e-17 -2.051787e-01 8.047454e-01
		vertex 3.317303e-01 -1.580858e-04 8.687369e-01
	endloop
endfacet
facet normal 5.257311e-01 8.506508e-01 -2.480050e-15
	outer loop
		vertex -5.551115e-17 -2.051787e-01 8.142655e-01
		vertex -5.551115e-17 -2.051787e-01 8.047454e-01
		vertex -3.319861e-01 1.387779e-17 9.582481e-01
	endloop
endfacet
facet normal -8.506508e-01 0.000000e+00 -5.257311e-01
	outer loop
		vertex -2.482724e-01 -5.173792e-02 7.336992e-01
		vertex -2.610580e-01 -4.383600e-02 7.543867e-01
		vertex -2.610580e-01 4.383600e-02 7.543867e-01
	endloop
endfacet
facet normal 5.257311e-01 8.506508e-01 -2.347873e-15
	outer loop
		vertex -2.482724e-01 -5.173792e-02 7.336992e-01
		vertex -2.610580e-01 -4.383600e-02 7.543867e-01
		vertex -3.319861e-01 1.387779e-17 9.582481e-01
	endloop
endfacet
facet normal -5.257311e-01 8.506508e-01 -3.588773e-16
	outer loop
		vertex 2.775558e-17 -2.051787e-01 7.485546e-01
		vertex -5.551115e-17 -2.051787e-01 8.047454e-01
		vertex 3.317303e-01 -1.580858e-04 8.687369e-01
	endloop
endfacet
facet normal -5.257311e-01 -8.506508e-01 -1.199239e-15
	outer loop
		vertex 2.775558e-17 -2.051787e-01 7.485546e-01
		vertex -5.551115e-17 -2.051787e-01 8.047454e-01
		vertex -3.319861e-01 1.387779e-17 9.582481e-01
	endloop
endfacet
facet normal 8.506508e-01 -4.524219e-17 5.257311e-01
	outer loop
		vertex -2.216351e-01 -6.820068e-02 6.905991e-01
		vertex -2.333482e-01 6.096158e-02 7.095514e-01
		vertex -2.610580e-01 4.383600e-02 7.543867e-01
	endloop
endfacet
facet normal 8.506508e-01 -1.708860e-16 5.257311e-01
	outer loop
		vertex -2.610580e-01 4.383600e-02 7.543867e-01
		vertex -2.444626e-01 -5.409252e-02 7.275348e-01
		vertex -2.216351e-01 -6.820068e-02 6.905991e-01
	endloop
endfacet
facet normal 5.257311e-01 8.506508e-01 -1.451072e-15
	outer loop
		vertex -2.216351e-01 -6.820068e-02 6.905991e-01
		vertex -2.444626e-01 -5.409252e-02 7.275348e-01
		vertex -3.319861e-01 1.387779e-17 9.582481e-01
	endloop
endfacet
facet normal 8.506508e-01 -1.727837e-15 5.257311e-01
	outer loop
		vertex -2.482724e-01 -5.173792e-02 7.336992e-01
		vertex -2.444626e-01 -5.409252e-02 7.275348e-01
		vertex -2.610580e-01 4.383600e-02 7.543867e-01
	endloop
endfacet
facet normal -5.257311e-01 -8.506508e-01 -1.256618e-14
	outer loop
		vertex -2.482724e-01 -5.173792e-02 7.336992e-01
		vertex -2.444626e-01 -5.409252e-02 7.275348e-01
		vertex -3.319861e-01 1.387779e-17 9.582481e-01
	endloop
endfacet
facet normal 5.257311e-01 -8.506508e-01 3.671470e-16
	outer loop
		vertex 0.000000e+00 -2.051787e-01 7.485546e-01
		vertex 5.551115e-17 -2.051787e-01 7.333736e-01
		vertex 3.317303e-01 -1.580858e-04 8.687369e-01
	endloop
endfacet
facet normal 5.257311e-01 8.506508e-01 3.477665e-15
	outer loop
		vertex 0.000000e+00 -2.051787e-01 7.485546e-01
		vertex 5.551115e-17 -2.051787e-01 7.333736e-01
		vertex -3.319861e-01 1.387779e-17 9.582481e-01
	endloop
endfacet
facet normal -8.506508e-01 1.691449e-15 -5.257311e-01
	outer loop
		vertex -2.216351e-01 -6.820068e-02 6.905991e-01
		vertex -2.333482e-01 6.096158e-02 7.095514e-01
		vertex -2.315570e-01 6.206857e-02 7.066532e-01
	endloop
endfacet
facet normal -8.506508e-01 2.848749e-15 -5.257311e-01
	outer loop
		vertex -2.315570e-01 6.206857e-02 7.066532e-01
		vertex -2.203053e-01 -6.902251e-02 6.884476e-01
		vertex -2.216351e-01 -6.820068e-02 6.905991e-01
	endloop
endfacet
facet normal -5.257311e-01 -8.506508e-01 4.962554e-15
	outer loop
		vertex -2.216351e-01 -6.820068e-02 6.905991e-01
		vertex -2.203053e-01 -6.902251e-02 6.884476e-01
		vertex -3.319861e-01 1.387779e-17 9.582481e-01
	endloop
endfacet
facet normal 8.506508e-01 6.851587e-15 5.257311e-01
	outer loop
		vertex -2.203053e-01 -6.902251e-02 6.884476e-01
		vertex -2.200085e-01 -6.920598e-02 6.879672e-01
		vertex -2.315570e-01 6.206857e-02 7.066532e-01
	endloop
endfacet
facet normal -5.257311e-01 -8.506508e-01 3.704860e-15
	outer loop
		vertex -2.203053e-01 -6.902251e-02 6.884476e-01
		vertex -2.200085e-01 -6.920598e-02 6.879672e-01
		vertex -3.319861e-01 1.387779e-17 9.582481e-01
	endloop
endfacet
facet normal 5.257311e-01 -8.506508e-01 2.902503e-14
	outer loop
		vertex -5.551115e-17 -2.051787e-01 7.333736e-01
		vertex 0.000000e+00 -2.051787e-01 7.323682e-01
		vertex 3.317303e-01 -1.580858e-04 8.687369e-01
	endloop
endfacet
facet normal 5.257311e-01 8.506508e-01 2.902503e-14
	outer loop
		vertex -5.551115e-17 -2.051787e-01 7.333736e-01
		vertex 0.000000e+00 -2.051787e-01 7.323682e-01
		vertex -3.319861e-01 1.387779e-17 9.582481e-01
	endloop
endfacet
facet normal 8.506508e-01 3.447635e-15 5.257311e-01
	outer loop
		vertex -2.190620e-01 -6.979095e-02 6.864357e-01
		vertex -2.183761e-01 -7.021481e-02 6.853261e-01
		vertex -2.305092e-01 6.271616e-02 7.049578e-01
	endloop
endfacet
facet normal -5.257311e-01 -8.506508e-01 8.159914e-14
	outer loop
		vertex -2.190620e-01 -6.979095e-02 6.864357e-01
		vertex -2.183761e-01 -7.021481e-02 6.853261e-01
		vertex -3.319861e-01 1.387779e-17 9.582481e-01
	endloop
endfacet
facet normal 5.257311e-01 -8.506508e-01 1.658664e-14
	outer loop
		vertex -2.775558e-17 -2.051787e-01 7.317786e-01
		vertex 0.000000e+00 -2.051787e-01 7.294754e-01
		vertex 3.317303e-01 -1.580858e-04 8.687369e-01
	endloop
endfacet
facet normal 5.257311e-01 8.506508e-01 -3.915575e-15
	outer loop
		vertex -2.775558e-17 -2.051787e-01 7.317786e-01
		vertex 0.000000e+00 -2.051787e-01 7.294754e-01
		vertex -3.319861e-01 1.387779e-17 9.582481e-01
	endloop
endfacet
facet normal -8.506508e-01 -4.320891e-15 -5.257311e-01
	outer loop
		vertex -2.199438e-01 -6.924596e-02 6.878626e-01
		vertex -2.314856e-01 6.211275e-02 7.065375e-01
		vertex -2.305092e-01 6.271616e-02 7.049578e-01
	endloop
endfacet
facet normal -8.506508e-01 -9.483569e-15 -5.257311e-01
	outer loop
		vertex -2.305092e-01 6.271616e-02 7.049578e-01
		vertex -2.192250e-01 -6.969018e-02 6.866996e-01
		vertex -2.199438e-01 -6.924596e-02 6.878626e-01
	endloop
endfacet
facet normal -5.257311e-01 -8.506508e-01 6.930805e-15
	outer loop
		vertex -2.199438e-01 -6.924596e-02 6.878626e-01
		vertex -2.192250e-01 -6.969018e-02 6.866996e-01
		vertex -3.319861e-01 1.387779e-17 9.582481e-01
	endloop
endfacet
facet normal -8.506508e-01 7.663880e-15 -5.257311e-01
	outer loop
		vertex -2.190620e-01 -6.979095e-02 6.864357e-01
		vertex -2.192250e-01 -6.969018e-02 6.866996e-01
		vertex -2.305092e-01 6.271616e-02 7.049578e-01
	endloop
endfacet
facet normal 5.257311e-01 8.506508e-01 6.229140e-14
	outer loop
		vertex -2.190620e-01 -6.979095e-02 6.864357e-01
		vertex -2.192250e-01 -6.969018e-02 6.866996e-01
		vertex -3.319861e-01 1.387779e-17 9.582481e-01
	endloop
endfacet
facet normal -5.257311e-01 8.506508e-01 2.655960e-14
	outer loop
		vertex -2.775558e-17 -2.051787e-01 7.317786e-01
		vertex 0.000000e+00 -2.051787e-01 7.323280e-01
		vertex 3.317303e-01 -1.580858e-04 8.687369e-01
	endloop
endfacet
facet normal -5.257311e-01 -8.506508e-01 2.655960e-14
	outer loop
		vertex -2.775558e-17 -2.051787e-01 7.317786e-01
		vertex 0.000000e+00 -2.051787e-01 7.323280e-01
		vertex -3.319861e-01 1.387779e-17 9.582481e-01
	endloop
endfacet
facet normal 8.506508e-01 2.303347e-14 5.257311e-01
	outer loop
		vertex -2.199438e-01 -6.924596e-02 6.878626e-01
		vertex -2.314856e-01 6.211275e-02 7.065375e-01
		vertex -2.315570e-01 6.206857e-02 7.066532e-01
	endloop
endfacet
facet normal 8.506508e-01 -5.000118e-14 5.257311e-01
	outer loop
		vertex -2.315570e-01 6.206857e-02 7.066532e-01
		vertex -2.199966e-01 -6.921332e-02 6.879480e-01
		vertex -2.199438e-01 -6.924596e-02 6.878626e-01
	endloop
endfacet
facet normal 5.257311e-01 8.506508e-01 5.081636e-13
	outer loop
		vertex -2.199438e-01 -6.924596e-02 6.878626e-01
		vertex -2.199966e-01 -6.921332e-02 6.879480e-01
		vertex -3.319861e-01 1.387779e-17 9.582481e-01
	endloop
endfacet
facet normal -8.506508e-01 1.238161e-14 -5.257311e-01
	outer loop
		vertex -2.199966e-01 -6.921332e-02 6.879480e-01
		vertex -2.200085e-01 -6.920598e-02 6.879672e-01
		vertex -2.315570e-01 6.206857e-02 7.066532e-01
	endloop
endfacet
facet normal 5.257311e-01 8.506508e-01 -2.507974e-12
	outer loop
		vertex -2.199966e-01 -6.921332e-02 6.879480e-01
		vertex -2.200085e-01 -6.920598e-02 6.879672e-01
		vertex -3.319861e-01 1.387779e-17 9.582481e-01
	endloop
endfacet
facet normal -5.257311e-01 8.506508e-01 3.631214e-13
	outer loop
		vertex -2.775558e-17 -2.051787e-01 7.323280e-01
		vertex 0.000000e+00 -2.051787e-01 7.323682e-01
		vertex 3.317303e-01 -1.580858e-04 8.687369e-01
	endloop
endfacet
facet normal -5.257311e-01 -8.506508e-01 3.631214e-13
	outer loop
		vertex -2.775558e-17 -2.051787e-01 7.323280e-01
		vertex 0.000000e+00 -2.051787e-01 7.323682e-01
		vertex -3.319861e-01 1.387779e-17 9.582481e-01
	endloop
endfacet
facet normal 8.506508e-01 1.848270e-16 5.257311e-01
	outer loop
		vertex -1.483609e-01 -1.134866e-01 5.720390e-01
		vertex -2.187340e-03 -2.038268e-01 3.355253e-01
		vertex -1.408180e-01 1.181484e-01 5.598343e-01
	endloop
endfacet
facet normal -5.257311e-01 -8.506508e-01 0.000000e+00
	outer loop
		vertex -1.483609e-01 -1.134866e-01 5.720390e-01
		vertex -2.187340e-03 -2.038268e-01 3.355253e-01
		vertex -3.319861e-01 1.387779e-17 9.582481e-01
	endloop
endfacet
facet normal 5.257311e-01 -8.506508e-01 3.133644e-16
	outer loop
		vertex -5.551115e-17 -2.051787e-01 6.730246e-01
		vertex 5.551115e-17 -2.051787e-01 3.360735e-01
		vertex 3.317303e-01 -1.580858e-04 8.687369e-01
	endloop
endfacet
facet normal 5.257311e-01 8.506508e-01 3.308277e-17
	outer loop
		vertex -5.551115e-17 -2.051787e-01 6.730246e-01
		vertex 5.551115e-17 -2.051787e-01 3.360735e-01
		vertex -3.319861e-01 1.387779e-17 9.582481e-01
	endloop
endfacet
facet normal -8.506508e-01 5.655916e-17 -5.257311e-01
	outer loop
		vertex -2.097479e-01 -7.554738e-02 6.713652e-01
		vertex -2.208572e-01 6.868144e-02 6.893405e-01
		vertex -1.408180e-01 1.181484e-01 5.598343e-01
	endloop
endfacet
facet normal -8.506508e-01 -2.414155e-16 -5.257311e-01
	outer loop
		vertex -1.408180e-01 1.181484e-01 5.598343e-01
		vertex -1.657832e-01 -1.027190e-01 6.002289e-01
		vertex -2.097479e-01 -7.554738e-02 6.713652e-01
	endloop
endfacet
facet normal -5.257311e-01 -8.506508e-01 -2.825365e-16
	outer loop
		vertex -2.097479e-01 -7.554738e-02 6.713652e-01
		vertex -1.657832e-01 -1.027190e-01 6.002289e-01
		vertex -3.319861e-01 1.387779e-17 9.582481e-01
	endloop
endfacet
facet normal -8.506508e-01 -1.903764e-16 -5.257311e-01
	outer loop
		vertex -1.483609e-01 -1.134866e-01 5.720390e-01
		vertex -1.657832e-01 -1.027190e-01 6.002289e-01
		vertex -1.408180e-01 1.181484e-01 5.598343e-01
	endloop
endfacet
facet normal 5.257311e-01 8.506508e-01 -1.663601e-15
	outer loop
		vertex -1.483609e-01 -1.134866e-01 5.720390e-01
		vertex -1.657832e-01 -1.027190e-01 6.002289e-01
		vertex -3.319861e-01 1.387779e-17 9.582481e-01
	endloop
endfacet
facet normal -5.257311e-01 8.506508e-01 3.969826e-16
	outer loop
		vertex -2.775558e-17 -2.051787e-01 6.730246e-01
		vertex 5.551115e-17 -2.051787e-01 7.238218e-01
		vertex 3.317303e-01 -1.580858e-04 8.687369e-01
	endloop
endfacet
facet normal -5.257311e-01 -8.506508e-01 1.326573e-15
	outer loop
		vertex -2.775558e-17 -2.051787e-01 6.730246e-01
		vertex 5.551115e-17 -2.051787e-01 7.238218e-01
		vertex -3.319861e-01 1.387779e-17 9.582481e-01
	endloop
endfacet
facet normal 8.506508e-01 7.816932e-17 5.257311e-01
	outer loop
		vertex -2.097479e-01 -7.554738e-02 6.713652e-01
		vertex -2.208572e-01 6.868144e-02 6.893405e-01
		vertex -2.305092e-01 6.271616e-02 7.049578e-01
	endloop
endfacet
facet normal 8.506508e-01 -3.279011e-17 5.257311e-01
	outer loop
		vertex -2.305092e-01 6.271616e-02 7.049578e-01
		vertex -2.166772e-01 -7.126481e-02 6.825771e-01
		vertex -2.097479e-01 -7.554738e-02 6.713652e-01
	endloop
endfacet
facet normal 5.257311e-01 8.506508e-01 5.377839e-15
	outer loop
		vertex -2.097479e-01 -7.554738e-02 6.713652e-01
		vertex -2.166772e-01 -7.126481e-02 6.825771e-01
		vertex -3.319861e-01 1.387779e-17 9.582481e-01
	endloop
endfacet
facet normal -8.506508e-01 4.229482e-15 -5.257311e-01
	outer loop
		vertex -2.166772e-01 -7.126481e-02 6.825771e-01
		vertex -2.183761e-01 -7.021481e-02 6.853261e-01
		vertex -2.305092e-01 6.271616e-02 7.049578e-01
	endloop
endfacet
facet normal 5.257311e-01 8.506508e-01 1.348039e-14
	outer loop
		vertex -2.166772e-01 -7.126481e-02 6.825771e-01
		vertex -2.183761e-01 -7.021481e-02 6.853261e-01
		vertex -3.319861e-01 1.387779e-17 9.582481e-01
	endloop
endfacet
facet normal -5.257311e-01 8.506508e-01 1.450021e-14
	outer loop
		vertex -1.110223e-16 -2.051787e-01 7.238218e-01
		vertex 0.000000e+00 -2.051787e-01 7.294754e-01
		vertex 3.317303e-01 -1.580858e-04 8.687369e-01
	endloop
endfacet
facet normal -5.257311e-01 -8.506508e-01 6.147880e-15
	outer loop
		vertex -1.110223e-16 -2.051787e-01 7.238218e-01
		vertex 0.000000e+00 -2.051787e-01 7.294754e-01
		vertex -3.319861e-01 1.387779e-17 9.582481e-01
	endloop
endfacet
facet normal -8.506508e-01 -1.221034e-16 -5.257311e-01
	outer loop
		vertex -8.582789e-04 -2.046483e-01 3.333748e-01
		vertex -7.420843e-02 1.593154e-01 4.520578e-01
		vertex -5.551115e-17 6.475436e-02 3.319861e-01
	endloop
endfacet
facet normal -8.506508e-01 -8.048495e-17 -5.257311e-01
	outer loop
		vertex -5.551115e-17 6.475436e-02 3.319861e-01
		vertex -6.661182e-04 -2.047670e-01 3.330639e-01
		vertex -8.582789e-04 -2.046483e-01 3.333748e-01
	endloop
endfacet
facet normal -5.257311e-01 -8.506508e-01 1.956089e-13
	outer loop
		vertex -8.582789e-04 -2.046483e-01 3.333748e-01
		vertex -6.661182e-04 -2.047670e-01 3.330639e-01
		vertex -3.319861e-01 1.387779e-17 9.582481e-01
	endloop
endfacet
facet normal -8.506508e-01 -1.294026e-16 -5.257311e-01
	outer loop
		vertex -6.661182e-04 -2.047670e-01 3.330639e-01
		vertex -5.551115e-17 6.475436e-02 3.319861e-01
		vertex -1.444500e-17 -2.051787e-01 3.319861e-01
	endloop
endfacet
facet normal 0.000000e+00 9.341723e-01 -3.568221e-01
	outer loop
		vertex -1.444500e-17 -2.051787e-01 3.319861e-01
		vertex -2.591243e-17 -2.051787e-01 3.319861e-01
		vertex -6.661182e-04 -2.047670e-01 3.330639e-01
	endloop
endfacet
facet normal -5.257311e-01 -8.506508e-01 4.351147e-14
	outer loop
		vertex -6.661182e-04 -2.047670e-01 3.330639e-01
		vertex -2.591243e-17 -2.051787e-01 3.319861e-01
		vertex -3.319861e-01 1.387779e-17 9.582481e-01
	endloop
endfacet
facet normal 0.000000e+00 -9.341723e-01 3.568221e-01
	outer loop
		vertex -2.591243e-17 -2.051787e-01 3.319861e-01
		vertex -1.444500e-17 -2.051787e-01 3.319861e-01
		vertex 3.317303e-01 -1.580858e-04 8.687369e-01
	endloop
endfacet
facet normal 5.257311e-01 -8.506508e-01 0.000000e+00
	outer loop
		vertex 3.317303e-01 -1.580858e-04 8.687369e-01
		vertex -1.008308e-17 -2.051787e-01 3.341439e-01
		vertex -2.591243e-17 -2.051787e-01 3.319861e-01
	endloop
endfacet
facet normal -5.257311e-01 -8.506508e-01 -7.084969e-15
	outer loop
		vertex -2.591243e-17 -2.051787e-01 3.319861e-01
		vertex -1.008308e-17 -2.051787e-01 3.341439e-01
		vertex -3.319861e-01 1.387779e-17 9.582481e-01
	endloop
endfacet
facet normal 0.000000e+00 -9.341723e-01 3.568221e-01
	outer loop
		vertex -2.591243e-17 -2.051787e-01 3.319861e-01
		vertex -1.444500e-17 -2.051787e-01 3.319861e-01
		vertex 3.317303e-01 -1.580858e-04 8.687369e-01
	endloop
endfacet
facet normal 0.000000e+00 0.000000e+00 0.000000e+00
	outer loop
		vertex 3.317303e-01 -1.580858e-04 8.687369e-01
		vertex 0.000000e+00 -2.051787e-01 3.319861e-01
		vertex -2.591243e-17 -2.051787e-01 3.319861e-01
	endloop
endfacet
facet normal 0.000000e+00 -9.502983e-01 3.113409e-01
	outer loop
		vertex -2.591243e-17 -2.051787e-01 3.319861e-01
		vertex 0.000000e+00 -2.051787e-01 3.319861e-01
		vertex -3.319861e-01 1.387779e-17 9.582481e-01
	endloop
endfacet
facet normal 0.000000e+00 9.341723e-01 -3.568221e-01
	outer loop
		vertex 0.000000e+00 -2.051787e-01 3.319861e-01
		vertex -1.444500e-17 -2.051787e-01 3.319861e-01
		vertex 3.317303e-01 -1.580858e-04 8.687369e-01
	endloop
endfacet
facet normal -5.257311e-01 8.506508e-01 0.000000e+00
	outer loop
		vertex 3.317303e-01 -1.580858e-04 8.687369e-01
		vertex 0.000000e+00 -2.051787e-01 3.319861e-01
		vertex -1.008308e-17 -2.051787e-01 3.341439e-01
	endloop
endfacet
facet normal 5.257311e-01 8.506508e-01 1.339818e-14
	outer loop
		vertex -1.008308e-17 -2.051787e-01 3.341439e-01
		vertex 0.000000e+00 -2.051787e-01 3.319861e-01
		vertex -3.319861e-01 1.387779e-17 9.582481e-01
	endloop
endfacet
facet normal -8.506508e-01 -1.586250e-16 -5.257311e-01
	outer loop
		vertex -1.926692e-03 -2.039879e-01 3.351035e-01
		vertex -1.305784e-01 1.244768e-01 5.432664e-01
		vertex -7.420843e-02 1.593154e-01 4.520578e-01
	endloop
endfacet
facet normal -8.506508e-01 -1.364890e-14 -5.257311e-01
	outer loop
		vertex -7.420843e-02 1.593154e-01 4.520578e-01
		vertex -1.507282e-03 -2.042471e-01 3.344249e-01
		vertex -1.926692e-03 -2.039879e-01 3.351035e-01
	endloop
endfacet
facet normal -5.257311e-01 -8.506508e-01 -8.545709e-14
	outer loop
		vertex -1.926692e-03 -2.039879e-01 3.351035e-01
		vertex -1.507282e-03 -2.042471e-01 3.344249e-01
		vertex -3.319861e-01 1.387779e-17 9.582481e-01
	endloop
endfacet
facet normal -8.506508e-01 2.067287e-15 -5.257311e-01
	outer loop
		vertex -8.582789e-04 -2.046483e-01 3.333748e-01
		vertex -1.507282e-03 -2.042471e-01 3.344249e-01
		vertex -7.420843e-02 1.593154e-01 4.520578e-01
	endloop
endfacet
facet normal 5.257311e-01 8.506508e-01 4.784884e-15
	outer loop
		vertex -8.582789e-04 -2.046483e-01 3.333748e-01
		vertex -1.507282e-03 -2.042471e-01 3.344249e-01
		vertex -3.319861e-01 1.387779e-17 9.582481e-01
	endloop
endfacet
facet normal -5.257311e-01 8.506508e-01 -3.863907e-14
	outer loop
		vertex 1.962406e-17 -2.051787e-01 3.341439e-01
		vertex -5.551115e-17 -2.051787e-01 3.357773e-01
		vertex 3.317303e-01 -1.580858e-04 8.687369e-01
	endloop
endfacet
facet normal -5.257311e-01 -8.506508e-01 -9.728835e-15
	outer loop
		vertex 1.962406e-17 -2.051787e-01 3.341439e-01
		vertex -5.551115e-17 -2.051787e-01 3.357773e-01
		vertex -3.319861e-01 1.387779e-17 9.582481e-01
	endloop
endfacet
facet normal -8.506508e-01 8.739400e-16 -5.257311e-01
	outer loop
		vertex -2.187340e-03 -2.038268e-01 3.355253e-01
		vertex -1.408180e-01 1.181484e-01 5.598343e-01
		vertex -1.305784e-01 1.244768e-01 5.432664e-01
	endloop
endfacet
facet normal -8.506508e-01 0.000000e+00 -5.257311e-01
	outer loop
		vertex -1.305784e-01 1.244768e-01 5.432664e-01
		vertex -2.076832e-03 -2.038951e-01 3.353465e-01
		vertex -2.187340e-03 -2.038268e-01 3.355253e-01
	endloop
endfacet
facet normal -5.257311e-01 -8.506508e-01 2.094990e-12
	outer loop
		vertex -2.187340e-03 -2.038268e-01 3.355253e-01
		vertex -2.076832e-03 -2.038951e-01 3.353465e-01
		vertex -3.319861e-01 1.387779e-17 9.582481e-01
	endloop
endfacet
facet normal 8.506508e-01 1.115129e-14 5.257311e-01
	outer loop
		vertex -2.076832e-03 -2.038951e-01 3.353465e-01
		vertex -1.926692e-03 -2.039879e-01 3.351035e-01
		vertex -1.305784e-01 1.244768e-01 5.432664e-01
	endloop
endfacet
facet normal -5.257311e-01 -8.506508e-01 -8.708570e-13
	outer loop
		vertex -2.076832e-03 -2.038951e-01 3.353465e-01
		vertex -1.926692e-03 -2.039879e-01 3.351035e-01
		vertex -3.319861e-01 1.387779e-17 9.582481e-01
	endloop
endfacet
facet normal 5.257311e-01 -8.506508e-01 1.324969e-13
	outer loop
		vertex 1.517883e-17 -2.051787e-01 3.360735e-01
		vertex 0.000000e+00 -2.051787e-01 3.357773e-01
		vertex 3.317303e-01 -1.580858e-04 8.687369e-01
	endloop
endfacet
facet normal 5.257311e-01 8.506508e-01 -1.863861e-13
	outer loop
		vertex 1.517883e-17 -2.051787e-01 3.360735e-01
		vertex 0.000000e+00 -2.051787e-01 3.357773e-01
		vertex -3.319861e-01 1.387779e-17 9.582481e-01
	endloop
endfacet
endsolid MIKE666
