solid MIKE666
facet normal -8.506508e-01 0.000000e+00 5.257311e-01
	outer loop
		vertex 1.000000e+00 3.334218e-01 0.000000e+00
		vertex 1.000000e+00 3.334218e-01 0.000000e+00
		vertex 9.907732e-01 3.578100e-01 -1.492922e-02
	endloop
endfacet
facet normal -8.506508e-01 -7.156866e-16 5.257311e-01
	outer loop
		vertex 9.907732e-01 3.578100e-01 -1.492922e-02
		vertex 9.914021e-01 3.106959e-01 -1.391165e-02
		vertex 1.000000e+00 3.334218e-01 0.000000e+00
	endloop
endfacet
facet normal -8.506508e-01 -3.713469e-16 5.257311e-01
	outer loop
		vertex 9.913622e-01 3.105903e-01 -1.397629e-02
		vertex 9.914021e-01 3.106959e-01 -1.391165e-02
		vertex 9.907732e-01 3.578100e-01 -1.492922e-02
	endloop
endfacet
facet normal -1.000000e+00 0.000000e+00 0.000000e+00
	outer loop
		vertex 1.000000e+00 3.334218e-01 0.000000e+00
		vertex 1.000000e+00 3.334218e-01 2.771798e-17
		vertex 1.000000e+00 3.334218e-01 0.000000e+00
	endloop
endfacet
facet normal -8.506508e-01 -3.612809e-15 5.257311e-01
	outer loop
		vertex 7.806391e-01 2.463935e-01 -3.549334e-01
		vertex 9.851148e-01 3.727664e-01 -2.408478e-02
		vertex 9.760296e-01 3.967806e-01 -3.878500e-02
	endloop
endfacet
facet normal -8.506508e-01 -1.821928e-15 5.257311e-01
	outer loop
		vertex 9.760296e-01 3.967806e-01 -3.878500e-02
		vertex 7.746339e-01 2.622665e-01 -3.646500e-01
		vertex 7.806391e-01 2.463935e-01 -3.549334e-01
	endloop
endfacet
facet normal -8.506508e-01 1.030191e-16 5.257311e-01
	outer loop
		vertex 7.806391e-01 2.463935e-01 -3.549334e-01
		vertex 8.602923e-01 3.585386e-02 -2.260517e-01
		vertex 9.851148e-01 3.727664e-01 -2.408478e-02
	endloop
endfacet
facet normal -8.506508e-01 1.933583e-15 5.257311e-01
	outer loop
		vertex 8.640267e-01 2.598324e-02 -2.200095e-01
		vertex 9.907732e-01 3.578100e-01 -1.492922e-02
		vertex 9.851148e-01 3.727664e-01 -2.408478e-02
	endloop
endfacet
facet normal -8.506508e-01 7.324630e-16 5.257311e-01
	outer loop
		vertex 9.851148e-01 3.727664e-01 -2.408478e-02
		vertex 8.602923e-01 3.585386e-02 -2.260517e-01
		vertex 8.640267e-01 2.598324e-02 -2.200095e-01
	endloop
endfacet
facet normal -8.506508e-01 -6.188906e-16 5.257311e-01
	outer loop
		vertex 8.702891e-01 9.430503e-03 -2.098767e-01
		vertex 9.913622e-01 3.105903e-01 -1.397629e-02
		vertex 9.907732e-01 3.578100e-01 -1.492922e-02
	endloop
endfacet
facet normal 8.506508e-01 4.367779e-16 -5.257311e-01
	outer loop
		vertex 9.907732e-01 3.578100e-01 -1.492922e-02
		vertex 8.702891e-01 9.430503e-03 -2.098767e-01
		vertex 8.640267e-01 2.598324e-02 -2.200095e-01
	endloop
endfacet
facet normal 8.506508e-01 2.957669e-15 -5.257311e-01
	outer loop
		vertex 8.738569e-01 2.220446e-16 -2.041038e-01
		vertex 8.702891e-01 9.430503e-03 -2.098767e-01
		vertex 9.913622e-01 3.105903e-01 -1.397629e-02
	endloop
endfacet
facet normal 2.214433e-15 5.220944e-01 -8.528877e-01
	outer loop
		vertex 8.738569e-01 2.220446e-16 -2.041038e-01
		vertex 8.620678e-01 0.000000e+00 -2.041038e-01
		vertex 9.913622e-01 3.105903e-01 -1.397629e-02
	endloop
endfacet
facet normal 0.000000e+00 5.220944e-01 -8.528877e-01
	outer loop
		vertex 8.615014e-01 0.000000e+00 -2.041038e-01
		vertex 1.000000e+00 3.334218e-01 0.000000e+00
		vertex 9.914021e-01 3.106959e-01 -1.391165e-02
	endloop
endfacet
facet normal 1.013690e-13 -5.220944e-01 8.528877e-01
	outer loop
		vertex 9.914021e-01 3.106959e-01 -1.391165e-02
		vertex 8.615014e-01 0.000000e+00 -2.041038e-01
		vertex 8.620651e-01 0.000000e+00 -2.041038e-01
	endloop
endfacet
facet normal -1.426153e-11 -5.220944e-01 8.528877e-01
	outer loop
		vertex 8.620678e-01 0.000000e+00 -2.041038e-01
		vertex 9.913622e-01 3.105903e-01 -1.397629e-02
		vertex 9.914021e-01 3.106959e-01 -1.391165e-02
	endloop
endfacet
facet normal 7.099392e-12 5.220944e-01 -8.528877e-01
	outer loop
		vertex 9.914021e-01 3.106959e-01 -1.391165e-02
		vertex 8.620678e-01 0.000000e+00 -2.041038e-01
		vertex 8.620651e-01 5.551115e-17 -2.041038e-01
	endloop
endfacet
facet normal 0.000000e+00 -4.472136e-01 8.944272e-01
	outer loop
		vertex 8.615014e-01 0.000000e+00 -2.041038e-01
		vertex 1.000000e+00 3.334218e-01 0.000000e+00
		vertex 1.000000e+00 3.334218e-01 2.771798e-17
	endloop
endfacet
facet normal 0.000000e+00 0.000000e+00 0.000000e+00
	outer loop
		vertex 1.000000e+00 3.334218e-01 2.771798e-17
		vertex 8.615014e-01 0.000000e+00 -2.041038e-01
		vertex 8.615014e-01 0.000000e+00 -2.041038e-01
	endloop
endfacet
facet normal 0.000000e+00 -4.472136e-01 8.944272e-01
	outer loop
		vertex 8.615014e-01 0.000000e+00 -2.041038e-01
		vertex 1.000000e+00 3.334218e-01 0.000000e+00
		vertex 1.000000e+00 3.334218e-01 2.771798e-17
	endloop
endfacet
facet normal 0.000000e+00 0.000000e+00 0.000000e+00
	outer loop
		vertex 1.000000e+00 3.334218e-01 2.771798e-17
		vertex 8.615014e-01 0.000000e+00 -2.041038e-01
		vertex 8.615014e-01 0.000000e+00 -2.041038e-01
	endloop
endfacet
facet normal -8.506508e-01 -3.550819e-15 5.257311e-01
	outer loop
		vertex 7.711674e-01 2.714290e-01 -3.702589e-01
		vertex 7.746339e-01 2.622665e-01 -3.646500e-01
		vertex 9.760296e-01 3.967806e-01 -3.878500e-02
	endloop
endfacet
facet normal -8.506508e-01 -2.052451e-14 5.257311e-01
	outer loop
		vertex 9.760296e-01 3.967806e-01 -3.878500e-02
		vertex 9.750100e-01 3.974107e-01 -4.043465e-02
		vertex 7.711674e-01 2.714290e-01 -3.702589e-01
	endloop
endfacet
facet normal 0.000000e+00 0.000000e+00 0.000000e+00
	outer loop
		vertex 7.711674e-01 2.714290e-01 -3.702589e-01
		vertex 9.750100e-01 3.974107e-01 -4.043465e-02
		vertex 9.750100e-01 3.974107e-01 -4.043465e-02
	endloop
endfacet
facet normal 0.000000e+00 0.000000e+00 0.000000e+00
	outer loop
		vertex 7.711674e-01 2.714290e-01 -3.702589e-01
		vertex 7.711674e-01 2.714290e-01 -3.702589e-01
		vertex 7.746339e-01 2.622665e-01 -3.646500e-01
	endloop
endfacet
facet normal 0.000000e+00 0.000000e+00 0.000000e+00
	outer loop
		vertex 7.711674e-01 2.714290e-01 -3.702589e-01
		vertex 7.711674e-01 2.714290e-01 -3.702589e-01
		vertex 9.750100e-01 3.974107e-01 -4.043465e-02
	endloop
endfacet
facet normal 8.244746e-01 4.946847e-01 2.748249e-01
	outer loop
		vertex 7.711674e-01 2.714290e-01 -3.702589e-01
		vertex 7.806391e-01 2.463935e-01 -3.549334e-01
		vertex 7.746339e-01 2.622665e-01 -3.646500e-01
	endloop
endfacet
facet normal -2.063169e-01 4.517628e-01 8.679537e-01
	outer loop
		vertex 7.746339e-01 2.622665e-01 -3.646500e-01
		vertex 7.711674e-01 2.714290e-01 -3.702589e-01
		vertex 7.711674e-01 2.714290e-01 -3.702589e-01
	endloop
endfacet
facet normal 4.820918e-01 -3.142205e-01 -8.178343e-01
	outer loop
		vertex 7.711674e-01 2.714290e-01 -3.702589e-01
		vertex 7.806391e-01 2.463935e-01 -3.549334e-01
		vertex 7.746339e-01 2.622665e-01 -3.646500e-01
	endloop
endfacet
facet normal -2.063169e-01 4.517628e-01 8.679537e-01
	outer loop
		vertex 7.746339e-01 2.622665e-01 -3.646500e-01
		vertex 7.711674e-01 2.714290e-01 -3.702589e-01
		vertex 7.711674e-01 2.714290e-01 -3.702589e-01
	endloop
endfacet
facet normal -5.773503e-01 -5.773503e-01 5.773503e-01
	outer loop
		vertex 7.711674e-01 2.714290e-01 -3.702589e-01
		vertex 7.711674e-01 2.714290e-01 -3.702589e-01
		vertex 9.750100e-01 3.974107e-01 -4.043465e-02
	endloop
endfacet
facet normal -4.818073e-01 -5.781687e-01 -6.584699e-01
	outer loop
		vertex 7.711674e-01 2.714290e-01 -3.702589e-01
		vertex 7.806391e-01 2.463935e-01 -3.549334e-01
		vertex 8.602923e-01 3.585386e-02 -2.260517e-01
	endloop
endfacet
facet normal 2.576627e-01 5.797410e-01 7.729880e-01
	outer loop
		vertex 8.602923e-01 3.585386e-02 -2.260517e-01
		vertex 7.711674e-01 2.714290e-01 -3.702589e-01
		vertex 7.711674e-01 2.714290e-01 -3.702589e-01
	endloop
endfacet
facet normal -9.570203e-01 -2.050758e-01 2.050758e-01
	outer loop
		vertex 7.711674e-01 2.714290e-01 -3.702589e-01
		vertex 7.806391e-01 2.463935e-01 -3.549334e-01
		vertex 8.602923e-01 3.585386e-02 -2.260517e-01
	endloop
endfacet
facet normal 2.576627e-01 5.797410e-01 7.729880e-01
	outer loop
		vertex 8.602923e-01 3.585386e-02 -2.260517e-01
		vertex 7.711674e-01 2.714290e-01 -3.702589e-01
		vertex 7.711674e-01 2.714290e-01 -3.702589e-01
	endloop
endfacet
facet normal -3.804226e-01 -7.608452e-01 5.257311e-01
	outer loop
		vertex 7.711674e-01 2.714290e-01 -3.702589e-01
		vertex 7.711674e-01 2.714290e-01 -3.702589e-01
		vertex 9.750100e-01 3.974107e-01 -4.043465e-02
	endloop
endfacet
facet normal 8.944272e-01 4.472136e-01 0.000000e+00
	outer loop
		vertex 7.711674e-01 2.714290e-01 -3.702589e-01
		vertex 8.640267e-01 2.598324e-02 -2.200095e-01
		vertex 8.602923e-01 3.585386e-02 -2.260517e-01
	endloop
endfacet
facet normal -4.239992e-01 3.179994e-01 8.479983e-01
	outer loop
		vertex 8.602923e-01 3.585386e-02 -2.260517e-01
		vertex 7.711674e-01 2.714290e-01 -3.702589e-01
		vertex 7.711674e-01 2.714290e-01 -3.702589e-01
	endloop
endfacet
facet normal 8.728716e-01 2.182179e-01 4.364358e-01
	outer loop
		vertex 7.711674e-01 2.714290e-01 -3.702589e-01
		vertex 8.640267e-01 2.598324e-02 -2.200095e-01
		vertex 8.602923e-01 3.585386e-02 -2.260517e-01
	endloop
endfacet
facet normal -4.239992e-01 3.179994e-01 8.479983e-01
	outer loop
		vertex 8.602923e-01 3.585386e-02 -2.260517e-01
		vertex 7.711674e-01 2.714290e-01 -3.702589e-01
		vertex 7.711674e-01 2.714290e-01 -3.702589e-01
	endloop
endfacet
facet normal -7.905694e-01 -2.185080e-01 5.720614e-01
	outer loop
		vertex 7.711674e-01 2.714290e-01 -3.702589e-01
		vertex 7.711674e-01 2.714290e-01 -3.702589e-01
		vertex 9.750100e-01 3.974107e-01 -4.043465e-02
	endloop
endfacet
facet normal 9.428090e-01 2.357023e-01 -2.357023e-01
	outer loop
		vertex 7.711674e-01 2.714290e-01 -3.702589e-01
		vertex 8.640267e-01 2.598324e-02 -2.200095e-01
		vertex 8.702891e-01 9.430503e-03 -2.098767e-01
	endloop
endfacet
facet normal 0.000000e+00 0.000000e+00 0.000000e+00
	outer loop
		vertex 8.702891e-01 9.430503e-03 -2.098767e-01
		vertex 7.711674e-01 2.714290e-01 -3.702589e-01
		vertex 7.711674e-01 2.714290e-01 -3.702589e-01
	endloop
endfacet
facet normal 9.428090e-01 2.357023e-01 -2.357023e-01
	outer loop
		vertex 7.711674e-01 2.714290e-01 -3.702589e-01
		vertex 8.640267e-01 2.598324e-02 -2.200095e-01
		vertex 8.702891e-01 9.430503e-03 -2.098767e-01
	endloop
endfacet
facet normal 0.000000e+00 0.000000e+00 0.000000e+00
	outer loop
		vertex 8.702891e-01 9.430503e-03 -2.098767e-01
		vertex 7.711674e-01 2.714290e-01 -3.702589e-01
		vertex 7.711674e-01 2.714290e-01 -3.702589e-01
	endloop
endfacet
facet normal 0.000000e+00 0.000000e+00 0.000000e+00
	outer loop
		vertex 7.711674e-01 2.714290e-01 -3.702589e-01
		vertex 7.711674e-01 2.714290e-01 -3.702589e-01
		vertex 9.750100e-01 3.974107e-01 -4.043465e-02
	endloop
endfacet
facet normal 6.687339e-01 -1.671835e-01 -7.244617e-01
	outer loop
		vertex 7.711674e-01 2.714290e-01 -3.702589e-01
		vertex 8.738569e-01 2.220446e-16 -2.041038e-01
		vertex 8.702891e-01 9.430503e-03 -2.098767e-01
	endloop
endfacet
facet normal -6.553855e-01 1.638464e-01 7.373087e-01
	outer loop
		vertex 8.702891e-01 9.430503e-03 -2.098767e-01
		vertex 7.711674e-01 2.714290e-01 -3.702589e-01
		vertex 7.711674e-01 2.714290e-01 -3.702589e-01
	endloop
endfacet
facet normal 7.239228e-01 -1.551263e-01 -6.722140e-01
	outer loop
		vertex 7.711674e-01 2.714290e-01 -3.702589e-01
		vertex 8.738569e-01 2.220446e-16 -2.041038e-01
		vertex 8.702891e-01 9.430503e-03 -2.098767e-01
	endloop
endfacet
facet normal -6.553855e-01 1.638464e-01 7.373087e-01
	outer loop
		vertex 8.702891e-01 9.430503e-03 -2.098767e-01
		vertex 7.711674e-01 2.714290e-01 -3.702589e-01
		vertex 7.711674e-01 2.714290e-01 -3.702589e-01
	endloop
endfacet
facet normal -5.773503e-01 -5.773502e-01 5.773503e-01
	outer loop
		vertex 7.711674e-01 2.714290e-01 -3.702589e-01
		vertex 7.711674e-01 2.714290e-01 -3.702589e-01
		vertex 9.750100e-01 3.974107e-01 -4.043465e-02
	endloop
endfacet
facet normal 2.219360e-14 -5.220944e-01 -8.528877e-01
	outer loop
		vertex 7.711674e-01 2.714290e-01 -3.702589e-01
		vertex 8.738569e-01 2.220446e-16 -2.041038e-01
		vertex 8.620678e-01 0.000000e+00 -2.041038e-01
	endloop
endfacet
facet normal -2.391968e-14 5.220944e-01 8.528877e-01
	outer loop
		vertex 8.620678e-01 0.000000e+00 -2.041038e-01
		vertex 7.711674e-01 2.714290e-01 -3.702589e-01
		vertex 7.658809e-01 2.681618e-01 -3.682588e-01
	endloop
endfacet
facet normal 5.257311e-01 -8.506508e-01 3.643985e-15
	outer loop
		vertex 7.658809e-01 2.681618e-01 -3.682588e-01
		vertex 7.711674e-01 2.714290e-01 -3.702589e-01
		vertex 9.750100e-01 3.974107e-01 -4.043465e-02
	endloop
endfacet
facet normal -7.829858e-14 -5.220944e-01 -8.528877e-01
	outer loop
		vertex 7.658797e-01 2.681610e-01 -3.682584e-01
		vertex 8.620651e-01 0.000000e+00 -2.041038e-01
		vertex 8.615014e-01 0.000000e+00 -2.041038e-01
	endloop
endfacet
facet normal 7.080054e-14 5.220944e-01 8.528877e-01
	outer loop
		vertex 8.615014e-01 0.000000e+00 -2.041038e-01
		vertex 7.658797e-01 2.681610e-01 -3.682584e-01
		vertex 7.656243e-01 2.680032e-01 -3.681617e-01
	endloop
endfacet
facet normal 5.257311e-01 -8.506508e-01 9.810258e-14
	outer loop
		vertex 7.656243e-01 2.680032e-01 -3.681617e-01
		vertex 7.658797e-01 2.681610e-01 -3.682584e-01
		vertex 9.750100e-01 3.974107e-01 -4.043465e-02
	endloop
endfacet
facet normal 8.225475e-12 5.220944e-01 8.528877e-01
	outer loop
		vertex 7.658797e-01 2.681610e-01 -3.682584e-01
		vertex 8.620651e-01 5.551115e-17 -2.041038e-01
		vertex 8.620678e-01 0.000000e+00 -2.041038e-01
	endloop
endfacet
facet normal -1.486677e-11 -5.220944e-01 -8.528877e-01
	outer loop
		vertex 8.620678e-01 0.000000e+00 -2.041038e-01
		vertex 7.658797e-01 2.681610e-01 -3.682584e-01
		vertex 7.658809e-01 2.681618e-01 -3.682588e-01
	endloop
endfacet
facet normal -5.257311e-01 8.506508e-01 3.173411e-11
	outer loop
		vertex 7.658809e-01 2.681618e-01 -3.682588e-01
		vertex 7.658797e-01 2.681610e-01 -3.682584e-01
		vertex 9.750100e-01 3.974107e-01 -4.043465e-02
	endloop
endfacet
facet normal 0.000000e+00 0.000000e+00 0.000000e+00
	outer loop
		vertex 7.656243e-01 2.680032e-01 -3.681617e-01
		vertex 8.615014e-01 0.000000e+00 -2.041038e-01
		vertex 8.615014e-01 0.000000e+00 -2.041038e-01
	endloop
endfacet
facet normal 7.071068e-01 0.000000e+00 -7.071068e-01
	outer loop
		vertex 8.615014e-01 0.000000e+00 -2.041038e-01
		vertex 7.656243e-01 2.680032e-01 -3.681617e-01
		vertex 7.656243e-01 2.680032e-01 -3.681617e-01
	endloop
endfacet
facet normal 0.000000e+00 0.000000e+00 0.000000e+00
	outer loop
		vertex 7.656243e-01 2.680032e-01 -3.681617e-01
		vertex 8.615014e-01 0.000000e+00 -2.041038e-01
		vertex 8.615014e-01 0.000000e+00 -2.041038e-01
	endloop
endfacet
facet normal 7.071068e-01 0.000000e+00 -7.071068e-01
	outer loop
		vertex 8.615014e-01 0.000000e+00 -2.041038e-01
		vertex 7.656243e-01 2.680032e-01 -3.681617e-01
		vertex 7.656243e-01 2.680032e-01 -3.681617e-01
	endloop
endfacet
facet normal -8.426910e-01 0.000000e+00 5.383976e-01
	outer loop
		vertex 7.656243e-01 2.680032e-01 -3.681617e-01
		vertex 7.656243e-01 2.680032e-01 -3.681617e-01
		vertex 9.750100e-01 3.974107e-01 -4.043465e-02
	endloop
endfacet
facet normal 8.266820e-17 -5.220944e-01 8.528877e-01
	outer loop
		vertex 6.833077e-01 2.171287e-01 -7.118871e-02
		vertex 8.615014e-01 -1.110223e-16 -2.041038e-01
		vertex 1.000000e+00 3.334218e-01 2.771798e-17
	endloop
endfacet
facet normal -1.681344e-16 5.220944e-01 -8.528877e-01
	outer loop
		vertex 1.000000e+00 3.334218e-01 2.771798e-17
		vertex 6.833077e-01 2.171287e-01 -7.118871e-02
		vertex 8.714739e-01 3.334218e-01 1.907394e-17
	endloop
endfacet
facet normal 5.257311e-01 -8.506508e-01 -9.851392e-17
	outer loop
		vertex 8.714739e-01 3.334218e-01 1.907394e-17
		vertex 6.833077e-01 2.171287e-01 -7.118871e-02
		vertex 9.750100e-01 3.974107e-01 -4.043465e-02
	endloop
endfacet
facet normal 5.059412e-17 5.220944e-01 -8.528877e-01
	outer loop
		vertex 6.833077e-01 2.171287e-01 -7.118871e-02
		vertex 8.615014e-01 -1.110223e-16 -2.041038e-01
		vertex 5.921404e-01 0.000000e+00 -2.041038e-01
	endloop
endfacet
facet normal 0.000000e+00 5.220944e-01 -8.528877e-01
	outer loop
		vertex 5.921404e-01 0.000000e+00 -2.041038e-01
		vertex 5.900963e-01 1.595209e-01 -1.064533e-01
		vertex 6.833077e-01 2.171287e-01 -7.118871e-02
	endloop
endfacet
facet normal 5.257311e-01 -8.506508e-01 -3.579668e-15
	outer loop
		vertex 6.833077e-01 2.171287e-01 -7.118871e-02
		vertex 5.900963e-01 1.595209e-01 -1.064533e-01
		vertex 9.750100e-01 3.974107e-01 -4.043465e-02
	endloop
endfacet
facet normal 3.868951e-16 5.220944e-01 8.528877e-01
	outer loop
		vertex 6.076392e-01 1.703630e-01 -3.083914e-01
		vertex 5.921404e-01 0.000000e+00 -2.041038e-01
		vertex 8.615014e-01 -1.110223e-16 -2.041038e-01
	endloop
endfacet
facet normal -6.295608e-16 -5.220944e-01 -8.528877e-01
	outer loop
		vertex 8.615014e-01 -1.110223e-16 -2.041038e-01
		vertex 6.076392e-01 1.703630e-01 -3.083914e-01
		vertex 7.656243e-01 2.680032e-01 -3.681617e-01
	endloop
endfacet
facet normal -5.257311e-01 8.506508e-01 -1.377153e-16
	outer loop
		vertex 7.656243e-01 2.680032e-01 -3.681617e-01
		vertex 6.076392e-01 1.703630e-01 -3.083914e-01
		vertex 9.750100e-01 3.974107e-01 -4.043465e-02
	endloop
endfacet
facet normal 5.809192e-16 5.220944e-01 -8.528877e-01
	outer loop
		vertex 5.735449e-01 1.492916e-01 -1.127151e-01
		vertex 5.829421e-01 1.550993e-01 -1.091599e-01
		vertex 5.786577e-01 -1.110223e-16 -2.041038e-01
	endloop
endfacet
facet normal -5.257311e-01 8.506508e-01 -1.479460e-15
	outer loop
		vertex 5.735449e-01 1.492916e-01 -1.127151e-01
		vertex 5.829421e-01 1.550993e-01 -1.091599e-01
		vertex 9.750100e-01 3.974107e-01 -4.043465e-02
	endloop
endfacet
facet normal 4.952610e-15 -5.220944e-01 8.528877e-01
	outer loop
		vertex 5.829421e-01 1.550993e-01 -1.091599e-01
		vertex 5.786577e-01 -1.110223e-16 -2.041038e-01
		vertex 5.921404e-01 5.551115e-17 -2.041038e-01
	endloop
endfacet
facet normal 2.572447e-15 -5.220944e-01 8.528877e-01
	outer loop
		vertex 5.921404e-01 5.551115e-17 -2.041038e-01
		vertex 5.900963e-01 1.595209e-01 -1.064533e-01
		vertex 5.829421e-01 1.550993e-01 -1.091599e-01
	endloop
endfacet
facet normal -5.257311e-01 8.506508e-01 2.331951e-14
	outer loop
		vertex 5.829421e-01 1.550993e-01 -1.091599e-01
		vertex 5.900963e-01 1.595209e-01 -1.064533e-01
		vertex 9.750100e-01 3.974107e-01 -4.043465e-02
	endloop
endfacet
facet normal 9.017763e-15 -5.220944e-01 -8.528877e-01
	outer loop
		vertex 6.076392e-01 1.703630e-01 -3.083914e-01
		vertex 5.921404e-01 5.551115e-17 -2.041038e-01
		vertex 5.786577e-01 -1.110223e-16 -2.041038e-01
	endloop
endfacet
facet normal -5.607462e-15 5.220944e-01 8.528877e-01
	outer loop
		vertex 5.786577e-01 -1.110223e-16 -2.041038e-01
		vertex 6.076392e-01 1.703630e-01 -3.083914e-01
		vertex 5.972549e-01 1.639452e-01 -3.044627e-01
	endloop
endfacet
facet normal 5.257311e-01 -8.506508e-01 5.936365e-15
	outer loop
		vertex 5.972549e-01 1.639452e-01 -3.044627e-01
		vertex 6.076392e-01 1.703630e-01 -3.083914e-01
		vertex 9.750100e-01 3.974107e-01 -4.043465e-02
	endloop
endfacet
facet normal -1.359229e-16 5.220944e-01 -8.528877e-01
	outer loop
		vertex 4.717796e-01 8.639716e-02 -1.512159e-01
		vertex 5.143074e-01 1.126808e-01 -1.351264e-01
		vertex 4.872876e-01 0.000000e+00 -2.041038e-01
	endloop
endfacet
facet normal -5.257311e-01 8.506508e-01 -1.874282e-14
	outer loop
		vertex 4.717796e-01 8.639716e-02 -1.512159e-01
		vertex 5.143074e-01 1.126808e-01 -1.351264e-01
		vertex 9.750100e-01 3.974107e-01 -4.043465e-02
	endloop
endfacet
facet normal -2.155557e-16 -5.220944e-01 8.528877e-01
	outer loop
		vertex 5.143074e-01 1.126808e-01 -1.351264e-01
		vertex 4.872876e-01 0.000000e+00 -2.041038e-01
		vertex 5.786577e-01 5.551115e-17 -2.041038e-01
	endloop
endfacet
facet normal 0.000000e+00 -5.220944e-01 8.528877e-01
	outer loop
		vertex 5.786577e-01 5.551115e-17 -2.041038e-01
		vertex 5.735449e-01 1.492916e-01 -1.127151e-01
		vertex 5.143074e-01 1.126808e-01 -1.351264e-01
	endloop
endfacet
facet normal -5.257311e-01 8.506508e-01 -6.258530e-16
	outer loop
		vertex 5.143074e-01 1.126808e-01 -1.351264e-01
		vertex 5.735449e-01 1.492916e-01 -1.127151e-01
		vertex 9.750100e-01 3.974107e-01 -4.043465e-02
	endloop
endfacet
facet normal 7.901498e-16 -5.220944e-01 -8.528877e-01
	outer loop
		vertex 5.972549e-01 1.639452e-01 -3.044627e-01
		vertex 5.786577e-01 5.551115e-17 -2.041038e-01
		vertex 4.872876e-01 0.000000e+00 -2.041038e-01
	endloop
endfacet
facet normal 0.000000e+00 5.220944e-01 8.528877e-01
	outer loop
		vertex 4.872876e-01 0.000000e+00 -2.041038e-01
		vertex 5.972549e-01 1.639452e-01 -3.044627e-01
		vertex 5.177932e-01 1.148351e-01 -2.744000e-01
	endloop
endfacet
facet normal 5.257311e-01 -8.506508e-01 1.825362e-16
	outer loop
		vertex 5.177932e-01 1.148351e-01 -2.744000e-01
		vertex 5.972549e-01 1.639452e-01 -3.044627e-01
		vertex 9.750100e-01 3.974107e-01 -4.043465e-02
	endloop
endfacet
facet normal 8.594612e-16 -5.220944e-01 8.528877e-01
	outer loop
		vertex 4.717796e-01 8.639716e-02 -1.512159e-01
		vertex 4.448767e-01 6.977026e-02 -1.613940e-01
		vertex 4.872876e-01 0.000000e+00 -2.041038e-01
	endloop
endfacet
facet normal 5.257311e-01 -8.506508e-01 4.823233e-15
	outer loop
		vertex 4.717796e-01 8.639716e-02 -1.512159e-01
		vertex 4.448767e-01 6.977026e-02 -1.613940e-01
		vertex 9.750100e-01 3.974107e-01 -4.043465e-02
	endloop
endfacet
facet normal 0.000000e+00 5.220944e-01 -8.528877e-01
	outer loop
		vertex 4.448767e-01 6.977026e-02 -1.613940e-01
		vertex 4.872876e-01 0.000000e+00 -2.041038e-01
		vertex 3.939386e-01 0.000000e+00 -2.041038e-01
	endloop
endfacet
facet normal 2.360884e-16 5.220944e-01 -8.528877e-01
	outer loop
		vertex 3.939386e-01 0.000000e+00 -2.041038e-01
		vertex 3.834995e-01 3.183703e-02 -1.846148e-01
		vertex 4.448767e-01 6.977026e-02 -1.613940e-01
	endloop
endfacet
facet normal 5.257311e-01 -8.506508e-01 3.020173e-15
	outer loop
		vertex 4.448767e-01 6.977026e-02 -1.613940e-01
		vertex 3.834995e-01 3.183703e-02 -1.846148e-01
		vertex 9.750100e-01 3.974107e-01 -4.043465e-02
	endloop
endfacet
facet normal 0.000000e+00 5.220944e-01 8.528877e-01
	outer loop
		vertex 4.157382e-01 5.176169e-02 -2.357897e-01
		vertex 3.939386e-01 0.000000e+00 -2.041038e-01
		vertex 4.872876e-01 0.000000e+00 -2.041038e-01
	endloop
endfacet
facet normal -7.552139e-17 -5.220944e-01 -8.528877e-01
	outer loop
		vertex 4.872876e-01 0.000000e+00 -2.041038e-01
		vertex 4.157382e-01 5.176169e-02 -2.357897e-01
		vertex 5.177932e-01 1.148351e-01 -2.744000e-01
	endloop
endfacet
facet normal -5.257311e-01 8.506508e-01 -7.106294e-17
	outer loop
		vertex 5.177932e-01 1.148351e-01 -2.744000e-01
		vertex 4.157382e-01 5.176169e-02 -2.357897e-01
		vertex 9.750100e-01 3.974107e-01 -4.043465e-02
	endloop
endfacet
facet normal 0.000000e+00 5.220944e-01 -8.528877e-01
	outer loop
		vertex 3.626866e-01 1.897394e-02 -1.924890e-01
		vertex 3.637815e-01 1.965068e-02 -1.920747e-01
		vertex 3.696408e-01 0.000000e+00 -2.041038e-01
	endloop
endfacet
facet normal -5.257311e-01 8.506508e-01 2.518174e-13
	outer loop
		vertex 3.626866e-01 1.897394e-02 -1.924890e-01
		vertex 3.637815e-01 1.965068e-02 -1.920747e-01
		vertex 9.750100e-01 3.974107e-01 -4.043465e-02
	endloop
endfacet
facet normal -1.263818e-15 -5.220944e-01 8.528877e-01
	outer loop
		vertex 3.637815e-01 1.965068e-02 -1.920747e-01
		vertex 3.696408e-01 0.000000e+00 -2.041038e-01
		vertex 3.845345e-01 5.551115e-17 -2.041038e-01
	endloop
endfacet
facet normal -1.969535e-15 -5.220944e-01 8.528877e-01
	outer loop
		vertex 3.845345e-01 5.551115e-17 -2.041038e-01
		vertex 3.753468e-01 2.679843e-02 -1.876992e-01
		vertex 3.637815e-01 1.965068e-02 -1.920747e-01
	endloop
endfacet
facet normal -5.257311e-01 8.506508e-01 -1.121968e-14
	outer loop
		vertex 3.637815e-01 1.965068e-02 -1.920747e-01
		vertex 3.753468e-01 2.679843e-02 -1.876992e-01
		vertex 9.750100e-01 3.974107e-01 -4.043465e-02
	endloop
endfacet
facet normal 5.303403e-15 -5.220944e-01 -8.528877e-01
	outer loop
		vertex 4.039672e-01 4.448678e-02 -2.313364e-01
		vertex 3.845345e-01 5.551115e-17 -2.041038e-01
		vertex 3.696408e-01 0.000000e+00 -2.041038e-01
	endloop
endfacet
facet normal -5.354326e-15 5.220944e-01 8.528877e-01
	outer loop
		vertex 3.696408e-01 0.000000e+00 -2.041038e-01
		vertex 4.039672e-01 4.448678e-02 -2.313364e-01
		vertex 3.846725e-01 3.256199e-02 -2.240366e-01
	endloop
endfacet
facet normal 5.257311e-01 -8.506508e-01 -2.819032e-15
	outer loop
		vertex 3.846725e-01 3.256199e-02 -2.240366e-01
		vertex 4.039672e-01 4.448678e-02 -2.313364e-01
		vertex 9.750100e-01 3.974107e-01 -4.043465e-02
	endloop
endfacet
facet normal -1.188502e-14 -5.220944e-01 8.528877e-01
	outer loop
		vertex 3.834995e-01 3.183703e-02 -1.846148e-01
		vertex 3.823819e-01 3.114630e-02 -1.850377e-01
		vertex 3.939386e-01 0.000000e+00 -2.041038e-01
	endloop
endfacet
facet normal 5.257311e-01 -8.506508e-01 -3.249849e-13
	outer loop
		vertex 3.834995e-01 3.183703e-02 -1.846148e-01
		vertex 3.823819e-01 3.114630e-02 -1.850377e-01
		vertex 9.750100e-01 3.974107e-01 -4.043465e-02
	endloop
endfacet
facet normal 5.682637e-15 5.220944e-01 -8.528877e-01
	outer loop
		vertex 3.823819e-01 3.114630e-02 -1.850377e-01
		vertex 3.939386e-01 0.000000e+00 -2.041038e-01
		vertex 3.845345e-01 5.551115e-17 -2.041038e-01
	endloop
endfacet
facet normal 7.689875e-15 5.220944e-01 -8.528877e-01
	outer loop
		vertex 3.845345e-01 5.551115e-17 -2.041038e-01
		vertex 3.753468e-01 2.679843e-02 -1.876992e-01
		vertex 3.823819e-01 3.114630e-02 -1.850377e-01
	endloop
endfacet
facet normal 5.257311e-01 -8.506508e-01 1.976222e-14
	outer loop
		vertex 3.823819e-01 3.114630e-02 -1.850377e-01
		vertex 3.753468e-01 2.679843e-02 -1.876992e-01
		vertex 9.750100e-01 3.974107e-01 -4.043465e-02
	endloop
endfacet
facet normal 4.420617e-16 5.220944e-01 8.528877e-01
	outer loop
		vertex 4.039672e-01 4.448678e-02 -2.313364e-01
		vertex 3.845345e-01 5.551115e-17 -2.041038e-01
		vertex 3.939386e-01 0.000000e+00 -2.041038e-01
	endloop
endfacet
facet normal 5.334443e-15 -5.220944e-01 -8.528877e-01
	outer loop
		vertex 3.939386e-01 0.000000e+00 -2.041038e-01
		vertex 4.039672e-01 4.448678e-02 -2.313364e-01
		vertex 4.157382e-01 5.176169e-02 -2.357897e-01
	endloop
endfacet
facet normal -5.257311e-01 8.506508e-01 -1.078202e-15
	outer loop
		vertex 4.157382e-01 5.176169e-02 -2.357897e-01
		vertex 4.039672e-01 4.448678e-02 -2.313364e-01
		vertex 9.750100e-01 3.974107e-01 -4.043465e-02
	endloop
endfacet
facet normal 1.637543e-15 5.220944e-01 -8.528877e-01
	outer loop
		vertex 3.563170e-01 1.503736e-02 -1.948987e-01
		vertex 3.626866e-01 1.897394e-02 -1.924890e-01
		vertex 3.696408e-01 0.000000e+00 -2.041038e-01
	endloop
endfacet
facet normal -5.257311e-01 8.506508e-01 -2.255456e-14
	outer loop
		vertex 3.563170e-01 1.503736e-02 -1.948987e-01
		vertex 3.626866e-01 1.897394e-02 -1.924890e-01
		vertex 9.750100e-01 3.974107e-01 -4.043465e-02
	endloop
endfacet
facet normal 7.608075e-16 -5.220944e-01 8.528877e-01
	outer loop
		vertex 3.563170e-01 1.503736e-02 -1.948987e-01
		vertex 3.328149e-01 5.122344e-04 -2.037903e-01
		vertex 3.696408e-01 0.000000e+00 -2.041038e-01
	endloop
endfacet
facet normal 5.257311e-01 -8.506508e-01 -3.154944e-15
	outer loop
		vertex 3.563170e-01 1.503736e-02 -1.948987e-01
		vertex 3.328149e-01 5.122344e-04 -2.037903e-01
		vertex 9.750100e-01 3.974107e-01 -4.043465e-02
	endloop
endfacet
facet normal -3.726767e-16 5.220944e-01 -8.528877e-01
	outer loop
		vertex 3.319861e-01 1.846282e-17 -2.041038e-01
		vertex 3.328149e-01 5.122344e-04 -2.037903e-01
		vertex 3.696408e-01 0.000000e+00 -2.041038e-01
	endloop
endfacet
facet normal -5.257311e-01 8.506508e-01 -3.047329e-13
	outer loop
		vertex 3.319861e-01 1.846282e-17 -2.041038e-01
		vertex 3.328149e-01 5.122344e-04 -2.037903e-01
		vertex 9.750100e-01 3.974107e-01 -4.043465e-02
	endloop
endfacet
facet normal -8.846616e-16 -5.220944e-01 -8.528877e-01
	outer loop
		vertex 3.319861e-01 1.846282e-17 -2.041038e-01
		vertex 3.846725e-01 3.256199e-02 -2.240366e-01
		vertex 3.696408e-01 0.000000e+00 -2.041038e-01
	endloop
endfacet
facet normal 5.257311e-01 -8.506508e-01 8.259047e-16
	outer loop
		vertex 3.319861e-01 1.846282e-17 -2.041038e-01
		vertex 3.846725e-01 3.256199e-02 -2.240366e-01
		vertex 9.750100e-01 3.974107e-01 -4.043465e-02
	endloop
endfacet
facet normal 0.000000e+00 -8.326161e-01 5.538505e-01
	outer loop
		vertex 3.319861e-01 1.846282e-17 -2.041038e-01
		vertex 3.319861e-01 0.000000e+00 -2.041038e-01
		vertex 3.696408e-01 0.000000e+00 -2.041038e-01
	endloop
endfacet
facet normal 5.119414e-01 -5.601062e-01 -6.513041e-01
	outer loop
		vertex 3.319861e-01 1.846282e-17 -2.041038e-01
		vertex 3.319861e-01 0.000000e+00 -2.041038e-01
		vertex 9.750100e-01 3.974107e-01 -4.043465e-02
	endloop
endfacet
facet normal 0.000000e+00 5.220944e-01 8.528877e-01
	outer loop
		vertex 3.846725e-01 3.256199e-02 -2.240366e-01
		vertex 3.319861e-01 0.000000e+00 -2.041038e-01
		vertex 3.696408e-01 0.000000e+00 -2.041038e-01
	endloop
endfacet
facet normal -5.257311e-01 8.506508e-01 -1.101206e-15
	outer loop
		vertex 3.846725e-01 3.256199e-02 -2.240366e-01
		vertex 3.319861e-01 0.000000e+00 -2.041038e-01
		vertex 9.750100e-01 3.974107e-01 -4.043465e-02
	endloop
endfacet
facet normal 0.000000e+00 0.000000e+00 0.000000e+00
	outer loop
		vertex 9.750100e-01 3.974107e-01 -3.917072e-02
		vertex 9.750100e-01 3.974107e-01 -3.917072e-02
		vertex 9.760296e-01 3.967806e-01 -3.878500e-02
	endloop
endfacet
facet normal 0.000000e+00 0.000000e+00 0.000000e+00
	outer loop
		vertex 9.750100e-01 3.974107e-01 -3.917072e-02
		vertex 9.750100e-01 3.974107e-01 -3.917072e-02
		vertex 9.750100e-01 3.974107e-01 -4.043465e-02
	endloop
endfacet
facet normal -9.088686e-15 -5.220944e-01 -8.528877e-01
	outer loop
		vertex 9.750100e-01 3.974107e-01 -3.917072e-02
		vertex 9.760296e-01 3.967806e-01 -3.878500e-02
		vertex 9.851148e-01 3.727664e-01 -2.408478e-02
	endloop
endfacet
facet normal 6.920028e-15 -5.220944e-01 -8.528877e-01
	outer loop
		vertex 9.851148e-01 3.727664e-01 -2.408478e-02
		vertex 9.611668e-01 3.888551e-01 -3.393345e-02
		vertex 9.750100e-01 3.974107e-01 -3.917072e-02
	endloop
endfacet
facet normal 5.257311e-01 -8.506508e-01 0.000000e+00
	outer loop
		vertex 9.750100e-01 3.974107e-01 -3.917072e-02
		vertex 9.611668e-01 3.888551e-01 -3.393345e-02
		vertex 9.750100e-01 3.974107e-01 -4.043465e-02
	endloop
endfacet
facet normal -1.011344e-14 -5.220944e-01 -8.528877e-01
	outer loop
		vertex 9.607159e-01 3.885764e-01 -3.376284e-02
		vertex 9.611668e-01 3.888551e-01 -3.393345e-02
		vertex 9.851148e-01 3.727664e-01 -2.408478e-02
	endloop
endfacet
facet normal -5.257311e-01 8.506508e-01 -9.607754e-14
	outer loop
		vertex 9.607159e-01 3.885764e-01 -3.376284e-02
		vertex 9.611668e-01 3.888551e-01 -3.393345e-02
		vertex 9.750100e-01 3.974107e-01 -4.043465e-02
	endloop
endfacet
facet normal 2.442117e-14 -5.220944e-01 -8.528877e-01
	outer loop
		vertex 9.605100e-01 3.884492e-01 -3.368494e-02
		vertex 9.607159e-01 3.885764e-01 -3.376284e-02
		vertex 9.851148e-01 3.727664e-01 -2.408478e-02
	endloop
endfacet
facet normal -5.257311e-01 8.506508e-01 -4.535780e-12
	outer loop
		vertex 9.605100e-01 3.884492e-01 -3.368494e-02
		vertex 9.607159e-01 3.885764e-01 -3.376284e-02
		vertex 9.750100e-01 3.974107e-01 -4.043465e-02
	endloop
endfacet
facet normal 2.317884e-15 -5.220944e-01 -8.528877e-01
	outer loop
		vertex 9.605100e-01 3.884492e-01 -3.368494e-02
		vertex 9.851148e-01 3.727664e-01 -2.408478e-02
		vertex 9.907732e-01 3.578100e-01 -1.492922e-02
	endloop
endfacet
facet normal 1.161075e-15 -5.220944e-01 -8.528877e-01
	outer loop
		vertex 9.907732e-01 3.578100e-01 -1.492922e-02
		vertex 9.524397e-01 3.834615e-01 -3.063173e-02
		vertex 9.605100e-01 3.884492e-01 -3.368494e-02
	endloop
endfacet
facet normal 5.257311e-01 -8.506508e-01 6.781274e-15
	outer loop
		vertex 9.605100e-01 3.884492e-01 -3.368494e-02
		vertex 9.524397e-01 3.834615e-01 -3.063173e-02
		vertex 9.750100e-01 3.974107e-01 -4.043465e-02
	endloop
endfacet
facet normal 1.487929e-14 -5.220944e-01 -8.528877e-01
	outer loop
		vertex 9.520324e-01 3.832097e-01 -3.047761e-02
		vertex 9.524397e-01 3.834615e-01 -3.063173e-02
		vertex 9.907732e-01 3.578100e-01 -1.492922e-02
	endloop
endfacet
facet normal -5.257311e-01 8.506508e-01 9.208048e-13
	outer loop
		vertex 9.520324e-01 3.832097e-01 -3.047761e-02
		vertex 9.524397e-01 3.834615e-01 -3.063173e-02
		vertex 9.750100e-01 3.974107e-01 -4.043465e-02
	endloop
endfacet
facet normal -4.504781e-15 -5.220944e-01 -8.528877e-01
	outer loop
		vertex 9.518374e-01 3.830892e-01 -3.040384e-02
		vertex 9.520324e-01 3.832097e-01 -3.047761e-02
		vertex 9.907732e-01 3.578100e-01 -1.492922e-02
	endloop
endfacet
facet normal -5.257311e-01 8.506508e-01 4.101472e-12
	outer loop
		vertex 9.518374e-01 3.830892e-01 -3.040384e-02
		vertex 9.520324e-01 3.832097e-01 -3.047761e-02
		vertex 9.750100e-01 3.974107e-01 -4.043465e-02
	endloop
endfacet
facet normal -7.228966e-15 -5.220944e-01 -8.528877e-01
	outer loop
		vertex 9.518374e-01 3.830892e-01 -3.040384e-02
		vertex 9.907732e-01 3.578100e-01 -1.492922e-02
		vertex 1.000000e+00 3.334218e-01 0.000000e+00
	endloop
endfacet
facet normal -6.125437e-15 -5.220944e-01 -8.528877e-01
	outer loop
		vertex 1.000000e+00 3.334218e-01 0.000000e+00
		vertex 9.396743e-01 3.755720e-01 -2.580222e-02
		vertex 9.518374e-01 3.830892e-01 -3.040384e-02
	endloop
endfacet
facet normal 5.257311e-01 -8.506508e-01 7.499051e-15
	outer loop
		vertex 9.518374e-01 3.830892e-01 -3.040384e-02
		vertex 9.396743e-01 3.755720e-01 -2.580222e-02
		vertex 9.750100e-01 3.974107e-01 -4.043465e-02
	endloop
endfacet
facet normal 1.227935e-15 -5.220944e-01 -8.528877e-01
	outer loop
		vertex 9.387263e-01 3.749861e-01 -2.544355e-02
		vertex 9.396743e-01 3.755720e-01 -2.580222e-02
		vertex 1.000000e+00 3.334218e-01 0.000000e+00
	endloop
endfacet
facet normal -5.257311e-01 8.506508e-01 8.779254e-13
	outer loop
		vertex 9.387263e-01 3.749861e-01 -2.544355e-02
		vertex 9.396743e-01 3.755720e-01 -2.580222e-02
		vertex 9.750100e-01 3.974107e-01 -4.043465e-02
	endloop
endfacet
facet normal 1.227052e-14 -5.220944e-01 -8.528877e-01
	outer loop
		vertex 9.382483e-01 3.746907e-01 -2.526268e-02
		vertex 9.387263e-01 3.749861e-01 -2.544355e-02
		vertex 1.000000e+00 3.334218e-01 0.000000e+00
	endloop
endfacet
facet normal -5.257311e-01 8.506508e-01 -1.896005e-12
	outer loop
		vertex 9.382483e-01 3.746907e-01 -2.526268e-02
		vertex 9.387263e-01 3.749861e-01 -2.544355e-02
		vertex 9.750100e-01 3.974107e-01 -4.043465e-02
	endloop
endfacet
facet normal -1.111111e-01 4.444444e-01 8.888889e-01
	outer loop
		vertex 9.382483e-01 3.746907e-01 -2.526268e-02
		vertex 1.000000e+00 3.334218e-01 2.771798e-17
		vertex 1.000000e+00 3.334218e-01 0.000000e+00
	endloop
endfacet
facet normal 7.071068e-01 7.071068e-01 0.000000e+00
	outer loop
		vertex 1.000000e+00 3.334218e-01 0.000000e+00
		vertex 9.382483e-01 3.746907e-01 -2.526268e-02
		vertex 9.382483e-01 3.746907e-01 -2.526268e-02
	endloop
endfacet
facet normal -5.581456e-02 4.465165e-01 8.930329e-01
	outer loop
		vertex 9.382483e-01 3.746907e-01 -2.526268e-02
		vertex 1.000000e+00 3.334218e-01 2.771798e-17
		vertex 1.000000e+00 3.334218e-01 0.000000e+00
	endloop
endfacet
facet normal 7.071068e-01 7.071068e-01 0.000000e+00
	outer loop
		vertex 1.000000e+00 3.334218e-01 0.000000e+00
		vertex 9.382483e-01 3.746907e-01 -2.526268e-02
		vertex 9.382483e-01 3.746907e-01 -2.526268e-02
	endloop
endfacet
facet normal 5.257311e-01 -8.506508e-01 0.000000e+00
	outer loop
		vertex 9.382483e-01 3.746907e-01 -2.526268e-02
		vertex 9.382483e-01 3.746907e-01 -2.526268e-02
		vertex 9.750100e-01 3.974107e-01 -4.043465e-02
	endloop
endfacet
facet normal 0.000000e+00 0.000000e+00 0.000000e+00
	outer loop
		vertex 9.382483e-01 3.746907e-01 -2.526268e-02
		vertex 9.382483e-01 3.746907e-01 -2.526268e-02
		vertex 1.000000e+00 3.334218e-01 0.000000e+00
	endloop
endfacet
facet normal 0.000000e+00 0.000000e+00 0.000000e+00
	outer loop
		vertex 9.382483e-01 3.746907e-01 -2.526268e-02
		vertex 9.382483e-01 3.746907e-01 -2.526268e-02
		vertex 9.750100e-01 3.974107e-01 -4.043465e-02
	endloop
endfacet
facet normal -5.581456e-02 4.465165e-01 8.930329e-01
	outer loop
		vertex 9.382483e-01 3.746907e-01 -2.526268e-02
		vertex 1.000000e+00 3.334218e-01 2.771798e-17
		vertex 1.000000e+00 3.334218e-01 0.000000e+00
	endloop
endfacet
facet normal 4.472136e-01 8.944272e-01 0.000000e+00
	outer loop
		vertex 1.000000e+00 3.334218e-01 0.000000e+00
		vertex 9.382483e-01 3.746907e-01 -2.526268e-02
		vertex 9.382483e-01 3.746907e-01 -2.526268e-02
	endloop
endfacet
facet normal -1.111111e-01 4.444444e-01 8.888889e-01
	outer loop
		vertex 9.382483e-01 3.746907e-01 -2.526268e-02
		vertex 1.000000e+00 3.334218e-01 2.771798e-17
		vertex 1.000000e+00 3.334218e-01 0.000000e+00
	endloop
endfacet
facet normal 4.472136e-01 8.944272e-01 0.000000e+00
	outer loop
		vertex 1.000000e+00 3.334218e-01 0.000000e+00
		vertex 9.382483e-01 3.746907e-01 -2.526268e-02
		vertex 9.382483e-01 3.746907e-01 -2.526268e-02
	endloop
endfacet
facet normal 5.257311e-01 -8.506508e-01 0.000000e+00
	outer loop
		vertex 9.382483e-01 3.746907e-01 -2.526268e-02
		vertex 9.382483e-01 3.746907e-01 -2.526268e-02
		vertex 9.750100e-01 3.974107e-01 -4.043465e-02
	endloop
endfacet
facet normal 0.000000e+00 0.000000e+00 0.000000e+00
	outer loop
		vertex 9.382483e-01 3.746907e-01 -2.526268e-02
		vertex 9.382483e-01 3.746907e-01 -2.526268e-02
		vertex 1.000000e+00 3.334218e-01 0.000000e+00
	endloop
endfacet
facet normal 0.000000e+00 0.000000e+00 0.000000e+00
	outer loop
		vertex 9.382483e-01 3.746907e-01 -2.526268e-02
		vertex 9.382483e-01 3.746907e-01 -2.526268e-02
		vertex 9.750100e-01 3.974107e-01 -4.043465e-02
	endloop
endfacet
facet normal 4.391706e-01 1.114333e-01 -8.914661e-01
	outer loop
		vertex 9.382483e-01 3.746907e-01 -2.526268e-02
		vertex 9.382483e-01 3.746907e-01 -2.526268e-02
		vertex 1.000000e+00 3.334218e-01 0.000000e+00
	endloop
endfacet
facet normal -4.372438e-01 1.115498e-01 -8.923982e-01
	outer loop
		vertex 9.382483e-01 3.746907e-01 -2.526268e-02
		vertex 9.382483e-01 3.746907e-01 -2.526268e-02
		vertex 9.750100e-01 3.974107e-01 -4.043465e-02
	endloop
endfacet
facet normal -5.581456e-02 4.465165e-01 8.930329e-01
	outer loop
		vertex 9.382483e-01 3.746907e-01 -2.526268e-02
		vertex 1.000000e+00 3.334218e-01 2.771798e-17
		vertex 1.000000e+00 3.334218e-01 0.000000e+00
	endloop
endfacet
facet normal -2.936101e-01 1.761661e-01 9.395524e-01
	outer loop
		vertex 1.000000e+00 3.334218e-01 0.000000e+00
		vertex 9.382483e-01 3.746907e-01 -2.526268e-02
		vertex 9.382483e-01 3.746907e-01 -2.526268e-02
	endloop
endfacet
facet normal -5.581456e-02 4.465165e-01 8.930329e-01
	outer loop
		vertex 9.382483e-01 3.746907e-01 -2.526268e-02
		vertex 1.000000e+00 3.334218e-01 2.771798e-17
		vertex 1.000000e+00 3.334218e-01 0.000000e+00
	endloop
endfacet
facet normal -2.936101e-01 1.761661e-01 9.395524e-01
	outer loop
		vertex 1.000000e+00 3.334218e-01 0.000000e+00
		vertex 9.382483e-01 3.746907e-01 -2.526268e-02
		vertex 9.382483e-01 3.746907e-01 -2.526268e-02
	endloop
endfacet
facet normal -2.800695e-01 -1.769133e-01 -9.435374e-01
	outer loop
		vertex 9.382483e-01 3.746907e-01 -2.526268e-02
		vertex 9.382483e-01 3.746907e-01 -2.526268e-02
		vertex 9.750100e-01 3.974107e-01 -4.043465e-02
	endloop
endfacet
facet normal 5.556414e-01 8.314221e-01 -0.000000e+00
	outer loop
		vertex 9.382483e-01 3.746907e-01 -2.526268e-02
		vertex 9.382483e-01 3.746907e-01 -2.526268e-02
		vertex 1.000000e+00 3.334218e-01 0.000000e+00
	endloop
endfacet
facet normal -5.257311e-01 8.506508e-01 0.000000e+00
	outer loop
		vertex 9.382483e-01 3.746907e-01 -2.526268e-02
		vertex 9.382483e-01 3.746907e-01 -2.526268e-02
		vertex 9.750100e-01 3.974107e-01 -4.043465e-02
	endloop
endfacet
facet normal -5.581456e-02 4.465165e-01 8.930329e-01
	outer loop
		vertex 9.382483e-01 3.746907e-01 -2.526268e-02
		vertex 1.000000e+00 3.334218e-01 2.771798e-17
		vertex 1.000000e+00 3.334218e-01 0.000000e+00
	endloop
endfacet
facet normal 4.472136e-01 8.944272e-01 0.000000e+00
	outer loop
		vertex 1.000000e+00 3.334218e-01 0.000000e+00
		vertex 9.382483e-01 3.746907e-01 -2.526268e-02
		vertex 9.382483e-01 3.746907e-01 -2.526268e-02
	endloop
endfacet
facet normal -1.111111e-01 4.444444e-01 8.888889e-01
	outer loop
		vertex 9.382483e-01 3.746907e-01 -2.526268e-02
		vertex 1.000000e+00 3.334218e-01 2.771798e-17
		vertex 1.000000e+00 3.334218e-01 0.000000e+00
	endloop
endfacet
facet normal 4.472136e-01 8.944272e-01 0.000000e+00
	outer loop
		vertex 1.000000e+00 3.334218e-01 0.000000e+00
		vertex 9.382483e-01 3.746907e-01 -2.526268e-02
		vertex 9.382483e-01 3.746907e-01 -2.526268e-02
	endloop
endfacet
facet normal 5.257311e-01 -8.506508e-01 0.000000e+00
	outer loop
		vertex 9.382483e-01 3.746907e-01 -2.526268e-02
		vertex 9.382483e-01 3.746907e-01 -2.526268e-02
		vertex 9.750100e-01 3.974107e-01 -4.043465e-02
	endloop
endfacet
facet normal 5.556414e-01 8.314221e-01 -0.000000e+00
	outer loop
		vertex 9.382483e-01 3.746907e-01 -2.526268e-02
		vertex 9.382483e-01 3.746907e-01 -2.526268e-02
		vertex 1.000000e+00 3.334218e-01 0.000000e+00
	endloop
endfacet
facet normal -5.257311e-01 8.506508e-01 0.000000e+00
	outer loop
		vertex 9.382483e-01 3.746907e-01 -2.526268e-02
		vertex 9.382483e-01 3.746907e-01 -2.526268e-02
		vertex 9.750100e-01 3.974107e-01 -4.043465e-02
	endloop
endfacet
facet normal 4.391706e-01 1.114333e-01 -8.914661e-01
	outer loop
		vertex 9.382483e-01 3.746907e-01 -2.526268e-02
		vertex 9.382483e-01 3.746907e-01 -2.526268e-02
		vertex 1.000000e+00 3.334218e-01 0.000000e+00
	endloop
endfacet
facet normal -4.372438e-01 1.115498e-01 -8.923982e-01
	outer loop
		vertex 9.382483e-01 3.746907e-01 -2.526268e-02
		vertex 9.382483e-01 3.746907e-01 -2.526268e-02
		vertex 9.750100e-01 3.974107e-01 -4.043465e-02
	endloop
endfacet
facet normal 2.828565e-16 -5.220944e-01 -8.528877e-01
	outer loop
		vertex 8.714739e-01 3.334218e-01 1.907394e-17
		vertex 9.117894e-01 3.583382e-01 -1.525252e-02
		vertex 1.000000e+00 3.334218e-01 2.771798e-17
	endloop
endfacet
facet normal -5.257311e-01 8.506508e-01 -7.963762e-14
	outer loop
		vertex 8.714739e-01 3.334218e-01 1.907394e-17
		vertex 9.117894e-01 3.583382e-01 -1.525252e-02
		vertex 9.750100e-01 3.974107e-01 -4.043465e-02
	endloop
endfacet
facet normal -4.677318e-16 5.220944e-01 8.528877e-01
	outer loop
		vertex 9.261003e-01 3.671828e-01 -2.066677e-02
		vertex 9.117894e-01 3.583382e-01 -1.525252e-02
		vertex 1.000000e+00 3.334218e-01 2.771798e-17
	endloop
endfacet
facet normal 5.257311e-01 -8.506508e-01 -1.376677e-13
	outer loop
		vertex 9.261003e-01 3.671828e-01 -2.066677e-02
		vertex 9.117894e-01 3.583382e-01 -1.525252e-02
		vertex 9.750100e-01 3.974107e-01 -4.043465e-02
	endloop
endfacet
facet normal -7.187161e-17 -5.220944e-01 -8.528877e-01
	outer loop
		vertex 9.261003e-01 3.671828e-01 -2.066677e-02
		vertex 9.382483e-01 3.746907e-01 -2.526268e-02
		vertex 1.000000e+00 3.334218e-01 2.771798e-17
	endloop
endfacet
facet normal -5.257311e-01 8.506508e-01 -6.006691e-14
	outer loop
		vertex 9.261003e-01 3.671828e-01 -2.066677e-02
		vertex 9.382483e-01 3.746907e-01 -2.526268e-02
		vertex 9.750100e-01 3.974107e-01 -4.043465e-02
	endloop
endfacet
facet normal 5.257311e-01 8.506508e-01 -0.000000e+00
	outer loop
		vertex 9.750100e-01 3.974107e-01 -4.043465e-02
		vertex 9.750100e-01 3.974107e-01 -4.041290e-02
		vertex 9.760296e-01 3.967806e-01 -3.878500e-02
	endloop
endfacet
facet normal 0.000000e+00 0.000000e+00 0.000000e+00
	outer loop
		vertex 9.750100e-01 3.974107e-01 -4.043465e-02
		vertex 9.750100e-01 3.974107e-01 -4.041290e-02
		vertex 9.750100e-01 3.974107e-01 -4.043465e-02
	endloop
endfacet
facet normal -5.257311e-01 -8.506508e-01 -0.000000e+00
	outer loop
		vertex 9.750100e-01 3.974107e-01 -3.995644e-02
		vertex 9.750100e-01 3.974107e-01 -4.041290e-02
		vertex 9.760296e-01 3.967806e-01 -3.878500e-02
	endloop
endfacet
facet normal 0.000000e+00 0.000000e+00 0.000000e+00
	outer loop
		vertex 9.750100e-01 3.974107e-01 -3.995644e-02
		vertex 9.750100e-01 3.974107e-01 -4.041290e-02
		vertex 9.750100e-01 3.974107e-01 -4.043465e-02
	endloop
endfacet
facet normal -5.257311e-01 -8.506508e-01 -0.000000e+00
	outer loop
		vertex 9.750100e-01 3.974107e-01 -3.917072e-02
		vertex 9.750100e-01 3.974107e-01 -3.995644e-02
		vertex 9.760296e-01 3.967806e-01 -3.878500e-02
	endloop
endfacet
facet normal 0.000000e+00 0.000000e+00 0.000000e+00
	outer loop
		vertex 9.750100e-01 3.974107e-01 -3.917072e-02
		vertex 9.750100e-01 3.974107e-01 -3.995644e-02
		vertex 9.750100e-01 3.974107e-01 -4.043465e-02
	endloop
endfacet
endsolid MIKE666
