solid MIKE666
facet normal 8.463686e-17 -5.220944e-01 8.528877e-01
	outer loop
		vertex 2.051787e-01 3.334218e-01 2.098468e-17
		vertex 5.191049e-02 7.385407e-01 2.479932e-01
		vertex 7.421351e-02 3.334218e-01 0.000000e+00
	endloop
endfacet
facet normal 6.696132e-14 5.220944e-01 -8.528877e-01
	outer loop
		vertex -8.527774e-02 6.503443e-01 1.940038e-01
		vertex -5.508909e-03 8.611895e-01 3.230725e-01
		vertex 3.143805e-04 8.749197e-01 3.314774e-01
	endloop
endfacet
facet normal 3.282493e-14 5.220944e-01 -8.528877e-01
	outer loop
		vertex -5.508909e-03 8.611895e-01 3.230725e-01
		vertex -7.752046e-18 8.757507e-01 3.319861e-01
		vertex 3.143805e-04 8.749197e-01 3.314774e-01
	endloop
endfacet
facet normal -8.506508e-01 4.653599e-16 -5.257311e-01
	outer loop
		vertex -7.752046e-18 8.757507e-01 3.319861e-01
		vertex 2.591243e-17 1.000000e+00 3.319861e-01
		vertex 3.143805e-04 8.749197e-01 3.314774e-01
	endloop
endfacet
facet normal 3.038967e-17 5.220944e-01 -8.528877e-01
	outer loop
		vertex -2.038799e-01 3.368548e-01 2.101528e-03
		vertex 5.191049e-02 7.385407e-01 2.479932e-01
		vertex 7.421351e-02 3.334218e-01 2.775558e-17
	endloop
endfacet
facet normal 1.927260e-17 -5.220944e-01 8.528877e-01
	outer loop
		vertex 7.421351e-02 3.334218e-01 2.775558e-17
		vertex -2.038799e-01 3.368548e-01 2.101528e-03
		vertex -2.051787e-01 3.334218e-01 8.786896e-20
	endloop
endfacet
facet normal -4.256869e-16 -5.220944e-01 8.528877e-01
	outer loop
		vertex -2.038799e-01 3.368548e-01 2.101528e-03
		vertex 5.191049e-02 7.385407e-01 2.479932e-01
		vertex 3.143805e-04 8.749197e-01 3.314774e-01
	endloop
endfacet
facet normal -1.200974e-13 -5.220944e-01 8.528877e-01
	outer loop
		vertex 3.143805e-04 8.749197e-01 3.314774e-01
		vertex -8.527774e-02 6.503443e-01 1.940038e-01
		vertex -2.038799e-01 3.368548e-01 2.101528e-03
	endloop
endfacet
facet normal 8.506508e-01 -6.335017e-17 5.257311e-01
	outer loop
		vertex 2.775558e-17 1.000000e+00 3.319861e-01
		vertex 3.143805e-04 8.749197e-01 3.314774e-01
		vertex 5.191049e-02 7.385407e-01 2.479932e-01
	endloop
endfacet
facet normal -8.499895e-01 0.000000e+00 -5.267996e-01
	outer loop
		vertex 5.191049e-02 7.385407e-01 2.479932e-01
		vertex 2.778004e-17 1.000000e+00 3.319861e-01
		vertex 2.775558e-17 1.000000e+00 3.319861e-01
	endloop
endfacet
facet normal 8.506508e-01 -6.335017e-17 5.257311e-01
	outer loop
		vertex 2.778004e-17 1.000000e+00 3.319861e-01
		vertex 3.143805e-04 8.749197e-01 3.314774e-01
		vertex 5.191049e-02 7.385407e-01 2.479932e-01
	endloop
endfacet
facet normal -8.499895e-01 0.000000e+00 -5.267996e-01
	outer loop
		vertex 5.191049e-02 7.385407e-01 2.479932e-01
		vertex 2.778004e-17 1.000000e+00 3.319861e-01
		vertex 2.775558e-17 1.000000e+00 3.319861e-01
	endloop
endfacet
facet normal -8.506508e-01 6.704646e-16 -5.257311e-01
	outer loop
		vertex 1.387779e-17 1.000000e+00 3.319861e-01
		vertex 2.051787e-01 3.334218e-01 2.098468e-17
		vertex 5.191049e-02 7.385407e-01 2.479932e-01
	endloop
endfacet
facet normal 6.666667e-01 3.333333e-01 -6.666667e-01
	outer loop
		vertex 5.191049e-02 7.385407e-01 2.479932e-01
		vertex 2.778004e-17 1.000000e+00 3.319861e-01
		vertex 1.387779e-17 1.000000e+00 3.319861e-01
	endloop
endfacet
facet normal -8.506508e-01 4.789033e-16 -5.257311e-01
	outer loop
		vertex 2.778004e-17 1.000000e+00 3.319861e-01
		vertex 2.051787e-01 3.334218e-01 2.098468e-17
		vertex 5.191049e-02 7.385407e-01 2.479932e-01
	endloop
endfacet
facet normal 6.666667e-01 3.333333e-01 -6.666667e-01
	outer loop
		vertex 5.191049e-02 7.385407e-01 2.479932e-01
		vertex 2.778004e-17 1.000000e+00 3.319861e-01
		vertex 1.387779e-17 1.000000e+00 3.319861e-01
	endloop
endfacet
facet normal 0.000000e+00 0.000000e+00 0.000000e+00
	outer loop
		vertex 2.051787e-01 3.334218e-01 2.098468e-17
		vertex 2.051787e-01 3.334218e-01 2.098468e-17
		vertex 7.421351e-02 3.334218e-01 0.000000e+00
	endloop
endfacet
facet normal 3.579549e-16 -5.220944e-01 -8.528877e-01
	outer loop
		vertex 7.421351e-02 3.334218e-01 0.000000e+00
		vertex 4.862227e-02 7.472322e-01 -2.533136e-01
		vertex 2.051787e-01 3.334218e-01 2.098468e-17
	endloop
endfacet
facet normal 0.000000e+00 0.000000e+00 0.000000e+00
	outer loop
		vertex 2.051787e-01 3.334218e-01 2.098468e-17
		vertex 4.862227e-02 7.472322e-01 -2.533136e-01
		vertex 4.862227e-02 7.472322e-01 -2.533136e-01
	endloop
endfacet
facet normal 0.000000e+00 0.000000e+00 0.000000e+00
	outer loop
		vertex 2.051787e-01 3.334218e-01 6.938894e-18
		vertex 2.051787e-01 3.334218e-01 2.098468e-17
		vertex 2.051787e-01 3.334218e-01 2.098468e-17
	endloop
endfacet
facet normal -9.353016e-01 -3.538517e-01 0.000000e+00
	outer loop
		vertex 2.051787e-01 3.334218e-01 6.938894e-18
		vertex 2.051787e-01 3.334218e-01 2.098468e-17
		vertex 4.862227e-02 7.472322e-01 -2.533136e-01
	endloop
endfacet
facet normal 1.955808e-01 5.647747e-01 8.017342e-01
	outer loop
		vertex 2.051787e-01 3.334218e-01 2.775558e-17
		vertex 2.051787e-01 3.334218e-01 2.098468e-17
		vertex 4.862227e-02 7.472322e-01 -2.533136e-01
	endloop
endfacet
facet normal 5.257311e-01 8.506508e-01 -2.166354e-17
	outer loop
		vertex 2.051787e-01 8.731926e-01 -5.551115e-17
		vertex 1.944730e-18 1.000000e+00 -3.319861e-01
		vertex 2.778004e-17 1.000000e+00 3.319861e-01
	endloop
endfacet
facet normal -8.506508e-01 1.596604e-16 5.257311e-01
	outer loop
		vertex 2.051787e-01 8.731926e-01 -5.551115e-17
		vertex 1.944730e-18 1.000000e+00 -3.319861e-01
		vertex 4.862227e-02 7.472322e-01 -2.533136e-01
	endloop
endfacet
facet normal 0.000000e+00 1.000000e+00 0.000000e+00
	outer loop
		vertex 0.000000e+00 1.000000e+00 -3.319861e-01
		vertex 0.000000e+00 1.000000e+00 3.319861e-01
		vertex 2.778004e-17 1.000000e+00 3.319861e-01
	endloop
endfacet
facet normal 0.000000e+00 1.000000e+00 0.000000e+00
	outer loop
		vertex 2.778004e-17 1.000000e+00 3.319861e-01
		vertex 1.944730e-18 1.000000e+00 -3.319861e-01
		vertex 0.000000e+00 1.000000e+00 -3.319861e-01
	endloop
endfacet
facet normal 0.000000e+00 1.000000e+00 -0.000000e+00
	outer loop
		vertex 1.944730e-18 1.000000e+00 -3.319861e-01
		vertex 0.000000e+00 1.000000e+00 3.319861e-01
		vertex 2.778004e-17 1.000000e+00 3.319861e-01
	endloop
endfacet
facet normal 0.000000e+00 1.000000e+00 0.000000e+00
	outer loop
		vertex 2.778004e-17 1.000000e+00 3.319861e-01
		vertex 1.944730e-18 1.000000e+00 -3.319861e-01
		vertex 0.000000e+00 1.000000e+00 -3.319861e-01
	endloop
endfacet
facet normal 9.833486e-01 1.784341e-01 -3.444979e-02
	outer loop
		vertex 0.000000e+00 1.000000e+00 -3.319861e-01
		vertex 1.944730e-18 1.000000e+00 -3.319861e-01
		vertex 4.862227e-02 7.472322e-01 -2.533136e-01
	endloop
endfacet
facet normal 5.257311e-01 8.506508e-01 0.000000e+00
	outer loop
		vertex 2.051787e-01 8.731926e-01 -5.551115e-17
		vertex 0.000000e+00 1.000000e+00 -3.319861e-01
		vertex 0.000000e+00 1.000000e+00 3.319861e-01
	endloop
endfacet
facet normal -8.506508e-01 2.394905e-16 5.257311e-01
	outer loop
		vertex 2.051787e-01 8.731926e-01 -5.551115e-17
		vertex 0.000000e+00 1.000000e+00 -3.319861e-01
		vertex 4.862227e-02 7.472322e-01 -2.533136e-01
	endloop
endfacet
facet normal 0.000000e+00 1.000000e+00 0.000000e+00
	outer loop
		vertex 0.000000e+00 1.000000e+00 -3.319861e-01
		vertex 0.000000e+00 1.000000e+00 3.319861e-01
		vertex 2.778004e-17 1.000000e+00 3.319861e-01
	endloop
endfacet
facet normal 0.000000e+00 1.000000e+00 0.000000e+00
	outer loop
		vertex 2.778004e-17 1.000000e+00 3.319861e-01
		vertex 1.944730e-18 1.000000e+00 -3.319861e-01
		vertex 0.000000e+00 1.000000e+00 -3.319861e-01
	endloop
endfacet
facet normal 0.000000e+00 1.000000e+00 -0.000000e+00
	outer loop
		vertex 1.944730e-18 1.000000e+00 -3.319861e-01
		vertex 0.000000e+00 1.000000e+00 3.319861e-01
		vertex 2.778004e-17 1.000000e+00 3.319861e-01
	endloop
endfacet
facet normal 0.000000e+00 1.000000e+00 0.000000e+00
	outer loop
		vertex 2.778004e-17 1.000000e+00 3.319861e-01
		vertex 1.944730e-18 1.000000e+00 -3.319861e-01
		vertex 0.000000e+00 1.000000e+00 -3.319861e-01
	endloop
endfacet
facet normal 9.833486e-01 1.784341e-01 -3.444979e-02
	outer loop
		vertex 0.000000e+00 1.000000e+00 -3.319861e-01
		vertex 1.944730e-18 1.000000e+00 -3.319861e-01
		vertex 4.862227e-02 7.472322e-01 -2.533136e-01
	endloop
endfacet
facet normal 0.000000e+00 0.000000e+00 0.000000e+00
	outer loop
		vertex 2.051787e-01 8.731926e-01 5.551115e-17
		vertex 2.778004e-17 1.000000e+00 3.319861e-01
		vertex 2.778004e-17 1.000000e+00 3.319861e-01
	endloop
endfacet
facet normal 8.944272e-01 0.000000e+00 4.472136e-01
	outer loop
		vertex 2.778004e-17 1.000000e+00 3.319861e-01
		vertex 2.051787e-01 8.731926e-01 -5.551115e-17
		vertex 2.051787e-01 8.731926e-01 5.551115e-17
	endloop
endfacet
facet normal 0.000000e+00 0.000000e+00 0.000000e+00
	outer loop
		vertex 2.051787e-01 8.731926e-01 -5.551115e-17
		vertex 2.778004e-17 1.000000e+00 3.319861e-01
		vertex 2.778004e-17 1.000000e+00 3.319861e-01
	endloop
endfacet
facet normal 8.944272e-01 0.000000e+00 4.472136e-01
	outer loop
		vertex 2.778004e-17 1.000000e+00 3.319861e-01
		vertex 2.051787e-01 8.731926e-01 -5.551115e-17
		vertex 2.051787e-01 8.731926e-01 5.551115e-17
	endloop
endfacet
facet normal 2.852526e-01 7.762028e-01 -5.622634e-01
	outer loop
		vertex 2.051787e-01 8.731926e-01 5.551115e-17
		vertex 2.051787e-01 8.731926e-01 -5.551115e-17
		vertex 4.862227e-02 7.472322e-01 -2.533136e-01
	endloop
endfacet
facet normal 2.239190e-01 9.485360e-01 -2.239190e-01
	outer loop
		vertex 2.051787e-01 8.731926e-01 5.551115e-17
		vertex 2.051787e-01 8.731926e-01 0.000000e+00
		vertex 0.000000e+00 1.000000e+00 3.319861e-01
	endloop
endfacet
facet normal -6.213623e-01 -4.773027e-01 6.213623e-01
	outer loop
		vertex 2.051787e-01 8.731926e-01 5.551115e-17
		vertex 2.051787e-01 8.731926e-01 0.000000e+00
		vertex 4.862227e-02 7.472322e-01 -2.533136e-01
	endloop
endfacet
facet normal 0.000000e+00 -9.701425e-01 2.425356e-01
	outer loop
		vertex 2.051787e-01 8.731926e-01 5.551115e-17
		vertex 2.778004e-17 1.000000e+00 3.319861e-01
		vertex 0.000000e+00 1.000000e+00 3.319861e-01
	endloop
endfacet
facet normal 0.000000e+00 0.000000e+00 0.000000e+00
	outer loop
		vertex 0.000000e+00 1.000000e+00 3.319861e-01
		vertex 2.051787e-01 8.731926e-01 5.551115e-17
		vertex 2.051787e-01 8.731926e-01 5.551115e-17
	endloop
endfacet
facet normal 0.000000e+00 -9.701425e-01 2.425356e-01
	outer loop
		vertex 2.051787e-01 8.731926e-01 5.551115e-17
		vertex 2.778004e-17 1.000000e+00 3.319861e-01
		vertex 0.000000e+00 1.000000e+00 3.319861e-01
	endloop
endfacet
facet normal 0.000000e+00 0.000000e+00 0.000000e+00
	outer loop
		vertex 0.000000e+00 1.000000e+00 3.319861e-01
		vertex 2.051787e-01 8.731926e-01 5.551115e-17
		vertex 2.051787e-01 8.731926e-01 5.551115e-17
	endloop
endfacet
facet normal 0.000000e+00 0.000000e+00 0.000000e+00
	outer loop
		vertex 2.051787e-01 8.731926e-01 5.551115e-17
		vertex 2.051787e-01 8.731926e-01 5.551115e-17
		vertex 4.862227e-02 7.472322e-01 -2.533136e-01
	endloop
endfacet
facet normal 2.799810e-01 9.416852e-01 -1.866540e-01
	outer loop
		vertex 2.051787e-01 8.731926e-01 8.326673e-17
		vertex 2.051787e-01 8.731926e-01 0.000000e+00
		vertex 2.778004e-17 1.000000e+00 3.319861e-01
	endloop
endfacet
facet normal -8.293089e-01 -8.110888e-02 5.528726e-01
	outer loop
		vertex 2.051787e-01 8.731926e-01 8.326673e-17
		vertex 2.051787e-01 8.731926e-01 0.000000e+00
		vertex 4.862227e-02 7.472322e-01 -2.533136e-01
	endloop
endfacet
facet normal 0.000000e+00 -9.701425e-01 2.425356e-01
	outer loop
		vertex 2.051787e-01 8.731926e-01 5.551115e-17
		vertex 2.778004e-17 1.000000e+00 3.319861e-01
		vertex 0.000000e+00 1.000000e+00 3.319861e-01
	endloop
endfacet
facet normal 0.000000e+00 0.000000e+00 0.000000e+00
	outer loop
		vertex 0.000000e+00 1.000000e+00 3.319861e-01
		vertex 2.051787e-01 8.731926e-01 5.551115e-17
		vertex 2.051787e-01 8.731926e-01 5.551115e-17
	endloop
endfacet
facet normal 0.000000e+00 -9.701425e-01 2.425356e-01
	outer loop
		vertex 2.051787e-01 8.731926e-01 5.551115e-17
		vertex 2.778004e-17 1.000000e+00 3.319861e-01
		vertex 0.000000e+00 1.000000e+00 3.319861e-01
	endloop
endfacet
facet normal 0.000000e+00 0.000000e+00 0.000000e+00
	outer loop
		vertex 0.000000e+00 1.000000e+00 3.319861e-01
		vertex 2.051787e-01 8.731926e-01 5.551115e-17
		vertex 2.051787e-01 8.731926e-01 5.551115e-17
	endloop
endfacet
facet normal 0.000000e+00 0.000000e+00 0.000000e+00
	outer loop
		vertex 2.051787e-01 8.731926e-01 5.551115e-17
		vertex 2.051787e-01 8.731926e-01 5.551115e-17
		vertex 4.862227e-02 7.472322e-01 -2.533136e-01
	endloop
endfacet
facet normal 0.000000e+00 -9.341723e-01 3.568221e-01
	outer loop
		vertex 2.051787e-01 8.731926e-01 -5.551115e-17
		vertex 2.051787e-01 8.731926e-01 -5.551115e-17
		vertex 0.000000e+00 1.000000e+00 3.319861e-01
	endloop
endfacet
facet normal 0.000000e+00 8.954096e-01 -4.452433e-01
	outer loop
		vertex 2.051787e-01 8.731926e-01 -5.551115e-17
		vertex 2.051787e-01 8.731926e-01 -5.551115e-17
		vertex 4.862227e-02 7.472322e-01 -2.533136e-01
	endloop
endfacet
facet normal 0.000000e+00 -9.701425e-01 2.425356e-01
	outer loop
		vertex 2.051787e-01 8.731926e-01 0.000000e+00
		vertex 2.778004e-17 1.000000e+00 3.319861e-01
		vertex 0.000000e+00 1.000000e+00 3.319861e-01
	endloop
endfacet
facet normal 8.944272e-01 0.000000e+00 4.472136e-01
	outer loop
		vertex 0.000000e+00 1.000000e+00 3.319861e-01
		vertex 2.051787e-01 8.731926e-01 5.551115e-17
		vertex 2.051787e-01 8.731926e-01 0.000000e+00
	endloop
endfacet
facet normal 0.000000e+00 -9.701425e-01 2.425356e-01
	outer loop
		vertex 2.051787e-01 8.731926e-01 5.551115e-17
		vertex 2.778004e-17 1.000000e+00 3.319861e-01
		vertex 0.000000e+00 1.000000e+00 3.319861e-01
	endloop
endfacet
facet normal 8.944272e-01 0.000000e+00 4.472136e-01
	outer loop
		vertex 0.000000e+00 1.000000e+00 3.319861e-01
		vertex 2.051787e-01 8.731926e-01 5.551115e-17
		vertex 2.051787e-01 8.731926e-01 0.000000e+00
	endloop
endfacet
facet normal 3.982377e-01 -8.954096e-01 1.991189e-01
	outer loop
		vertex 2.051787e-01 8.731926e-01 0.000000e+00
		vertex 2.051787e-01 8.731926e-01 5.551115e-17
		vertex 4.862227e-02 7.472322e-01 -2.533136e-01
	endloop
endfacet
facet normal 8.621037e-01 2.664048e-01 4.310519e-01
	outer loop
		vertex 2.051787e-01 8.731926e-01 0.000000e+00
		vertex 2.051787e-01 8.731926e-01 -5.551115e-17
		vertex 2.778004e-17 1.000000e+00 3.319861e-01
	endloop
endfacet
facet normal -3.982377e-01 8.954096e-01 -1.991189e-01
	outer loop
		vertex 2.051787e-01 8.731926e-01 0.000000e+00
		vertex 2.051787e-01 8.731926e-01 -5.551115e-17
		vertex 4.862227e-02 7.472322e-01 -2.533136e-01
	endloop
endfacet
facet normal 0.000000e+00 -9.701425e-01 2.425356e-01
	outer loop
		vertex 2.051787e-01 8.731926e-01 0.000000e+00
		vertex 2.778004e-17 1.000000e+00 3.319861e-01
		vertex 0.000000e+00 1.000000e+00 3.319861e-01
	endloop
endfacet
facet normal 8.944272e-01 0.000000e+00 4.472136e-01
	outer loop
		vertex 0.000000e+00 1.000000e+00 3.319861e-01
		vertex 2.051787e-01 8.731926e-01 5.551115e-17
		vertex 2.051787e-01 8.731926e-01 0.000000e+00
	endloop
endfacet
facet normal 0.000000e+00 -9.701425e-01 2.425356e-01
	outer loop
		vertex 2.051787e-01 8.731926e-01 5.551115e-17
		vertex 2.778004e-17 1.000000e+00 3.319861e-01
		vertex 0.000000e+00 1.000000e+00 3.319861e-01
	endloop
endfacet
facet normal 8.944272e-01 0.000000e+00 4.472136e-01
	outer loop
		vertex 0.000000e+00 1.000000e+00 3.319861e-01
		vertex 2.051787e-01 8.731926e-01 5.551115e-17
		vertex 2.051787e-01 8.731926e-01 0.000000e+00
	endloop
endfacet
facet normal 3.982377e-01 -8.954096e-01 1.991189e-01
	outer loop
		vertex 2.051787e-01 8.731926e-01 0.000000e+00
		vertex 2.051787e-01 8.731926e-01 5.551115e-17
		vertex 4.862227e-02 7.472322e-01 -2.533136e-01
	endloop
endfacet
facet normal 0.000000e+00 0.000000e+00 0.000000e+00
	outer loop
		vertex 2.051787e-01 8.731926e-01 0.000000e+00
		vertex 2.051787e-01 8.731926e-01 0.000000e+00
		vertex 0.000000e+00 1.000000e+00 3.319861e-01
	endloop
endfacet
facet normal 0.000000e+00 0.000000e+00 0.000000e+00
	outer loop
		vertex 2.051787e-01 8.731926e-01 0.000000e+00
		vertex 2.051787e-01 8.731926e-01 0.000000e+00
		vertex 4.862227e-02 7.472322e-01 -2.533136e-01
	endloop
endfacet
facet normal 6.963106e-01 6.963106e-01 1.740777e-01
	outer loop
		vertex 2.051787e-01 8.731926e-01 5.551115e-17
		vertex 2.778004e-17 1.000000e+00 3.319861e-01
		vertex 0.000000e+00 1.000000e+00 3.319861e-01
	endloop
endfacet
facet normal -8.944272e-01 0.000000e+00 -4.472136e-01
	outer loop
		vertex 0.000000e+00 1.000000e+00 3.319861e-01
		vertex 2.051787e-01 8.731926e-01 0.000000e+00
		vertex 2.051787e-01 8.731926e-01 5.551115e-17
	endloop
endfacet
facet normal 6.963106e-01 6.963106e-01 1.740777e-01
	outer loop
		vertex 2.051787e-01 8.731926e-01 0.000000e+00
		vertex 2.778004e-17 1.000000e+00 3.319861e-01
		vertex 0.000000e+00 1.000000e+00 3.319861e-01
	endloop
endfacet
facet normal -8.944272e-01 0.000000e+00 -4.472136e-01
	outer loop
		vertex 0.000000e+00 1.000000e+00 3.319861e-01
		vertex 2.051787e-01 8.731926e-01 0.000000e+00
		vertex 2.051787e-01 8.731926e-01 5.551115e-17
	endloop
endfacet
facet normal -3.982377e-01 8.954096e-01 -1.991189e-01
	outer loop
		vertex 2.051787e-01 8.731926e-01 5.551115e-17
		vertex 2.051787e-01 8.731926e-01 0.000000e+00
		vertex 4.862227e-02 7.472322e-01 -2.533136e-01
	endloop
endfacet
facet normal 0.000000e+00 0.000000e+00 0.000000e+00
	outer loop
		vertex 2.051787e-01 8.731926e-01 0.000000e+00
		vertex 2.051787e-01 8.731926e-01 0.000000e+00
		vertex 2.778004e-17 1.000000e+00 3.319861e-01
	endloop
endfacet
facet normal 0.000000e+00 0.000000e+00 0.000000e+00
	outer loop
		vertex 2.051787e-01 8.731926e-01 0.000000e+00
		vertex 2.051787e-01 8.731926e-01 0.000000e+00
		vertex 4.862227e-02 7.472322e-01 -2.533136e-01
	endloop
endfacet
facet normal 6.963106e-01 6.963106e-01 1.740777e-01
	outer loop
		vertex 2.051787e-01 8.731926e-01 5.551115e-17
		vertex 2.778004e-17 1.000000e+00 3.319861e-01
		vertex 0.000000e+00 1.000000e+00 3.319861e-01
	endloop
endfacet
facet normal -8.944272e-01 0.000000e+00 -4.472136e-01
	outer loop
		vertex 0.000000e+00 1.000000e+00 3.319861e-01
		vertex 2.051787e-01 8.731926e-01 0.000000e+00
		vertex 2.051787e-01 8.731926e-01 5.551115e-17
	endloop
endfacet
facet normal 6.963106e-01 6.963106e-01 1.740777e-01
	outer loop
		vertex 2.051787e-01 8.731926e-01 0.000000e+00
		vertex 2.778004e-17 1.000000e+00 3.319861e-01
		vertex 0.000000e+00 1.000000e+00 3.319861e-01
	endloop
endfacet
facet normal -8.944272e-01 0.000000e+00 -4.472136e-01
	outer loop
		vertex 0.000000e+00 1.000000e+00 3.319861e-01
		vertex 2.051787e-01 8.731926e-01 0.000000e+00
		vertex 2.051787e-01 8.731926e-01 5.551115e-17
	endloop
endfacet
facet normal -3.982377e-01 8.954096e-01 -1.991189e-01
	outer loop
		vertex 2.051787e-01 8.731926e-01 5.551115e-17
		vertex 2.051787e-01 8.731926e-01 0.000000e+00
		vertex 4.862227e-02 7.472322e-01 -2.533136e-01
	endloop
endfacet
facet normal 8.506508e-01 6.556547e-15 5.257311e-01
	outer loop
		vertex 2.051787e-01 8.695916e-01 0.000000e+00
		vertex 2.051787e-01 8.731926e-01 0.000000e+00
		vertex 0.000000e+00 1.000000e+00 3.319861e-01
	endloop
endfacet
facet normal -8.506508e-01 -6.556547e-15 5.257311e-01
	outer loop
		vertex 2.051787e-01 8.695916e-01 0.000000e+00
		vertex 2.051787e-01 8.731926e-01 0.000000e+00
		vertex 4.862227e-02 7.472322e-01 -2.533136e-01
	endloop
endfacet
facet normal 6.963106e-01 6.963106e-01 1.740777e-01
	outer loop
		vertex 2.051787e-01 8.731926e-01 5.551115e-17
		vertex 2.778004e-17 1.000000e+00 3.319861e-01
		vertex 0.000000e+00 1.000000e+00 3.319861e-01
	endloop
endfacet
facet normal -8.944272e-01 0.000000e+00 -4.472136e-01
	outer loop
		vertex 0.000000e+00 1.000000e+00 3.319861e-01
		vertex 2.051787e-01 8.731926e-01 0.000000e+00
		vertex 2.051787e-01 8.731926e-01 5.551115e-17
	endloop
endfacet
facet normal 6.963106e-01 6.963106e-01 1.740777e-01
	outer loop
		vertex 2.051787e-01 8.731926e-01 0.000000e+00
		vertex 2.778004e-17 1.000000e+00 3.319861e-01
		vertex 0.000000e+00 1.000000e+00 3.319861e-01
	endloop
endfacet
facet normal -8.944272e-01 0.000000e+00 -4.472136e-01
	outer loop
		vertex 0.000000e+00 1.000000e+00 3.319861e-01
		vertex 2.051787e-01 8.731926e-01 0.000000e+00
		vertex 2.051787e-01 8.731926e-01 5.551115e-17
	endloop
endfacet
facet normal -3.982377e-01 8.954096e-01 -1.991189e-01
	outer loop
		vertex 2.051787e-01 8.731926e-01 5.551115e-17
		vertex 2.051787e-01 8.731926e-01 0.000000e+00
		vertex 4.862227e-02 7.472322e-01 -2.533136e-01
	endloop
endfacet
facet normal 8.506508e-01 6.556547e-15 5.257311e-01
	outer loop
		vertex 2.051787e-01 8.695916e-01 0.000000e+00
		vertex 2.051787e-01 8.731926e-01 0.000000e+00
		vertex 2.778004e-17 1.000000e+00 3.319861e-01
	endloop
endfacet
facet normal -8.506508e-01 -6.556547e-15 5.257311e-01
	outer loop
		vertex 2.051787e-01 8.695916e-01 0.000000e+00
		vertex 2.051787e-01 8.731926e-01 0.000000e+00
		vertex 4.862227e-02 7.472322e-01 -2.533136e-01
	endloop
endfacet
facet normal 6.963106e-01 6.963106e-01 1.740777e-01
	outer loop
		vertex 2.051787e-01 8.731926e-01 5.551115e-17
		vertex 2.778004e-17 1.000000e+00 3.319861e-01
		vertex 0.000000e+00 1.000000e+00 3.319861e-01
	endloop
endfacet
facet normal -8.944272e-01 0.000000e+00 -4.472136e-01
	outer loop
		vertex 0.000000e+00 1.000000e+00 3.319861e-01
		vertex 2.051787e-01 8.731926e-01 0.000000e+00
		vertex 2.051787e-01 8.731926e-01 5.551115e-17
	endloop
endfacet
facet normal 6.963106e-01 6.963106e-01 1.740777e-01
	outer loop
		vertex 2.051787e-01 8.731926e-01 0.000000e+00
		vertex 2.778004e-17 1.000000e+00 3.319861e-01
		vertex 0.000000e+00 1.000000e+00 3.319861e-01
	endloop
endfacet
facet normal -8.944272e-01 0.000000e+00 -4.472136e-01
	outer loop
		vertex 0.000000e+00 1.000000e+00 3.319861e-01
		vertex 2.051787e-01 8.731926e-01 0.000000e+00
		vertex 2.051787e-01 8.731926e-01 5.551115e-17
	endloop
endfacet
facet normal -3.982377e-01 8.954096e-01 -1.991189e-01
	outer loop
		vertex 2.051787e-01 8.731926e-01 5.551115e-17
		vertex 2.051787e-01 8.731926e-01 0.000000e+00
		vertex 4.862227e-02 7.472322e-01 -2.533136e-01
	endloop
endfacet
facet normal 8.506508e-01 2.645561e-14 5.257311e-01
	outer loop
		vertex 2.051787e-01 8.673853e-01 1.110223e-16
		vertex 2.051787e-01 8.695916e-01 0.000000e+00
		vertex 0.000000e+00 1.000000e+00 3.319861e-01
	endloop
endfacet
facet normal -8.506508e-01 2.645561e-14 5.257311e-01
	outer loop
		vertex 2.051787e-01 8.673853e-01 1.110223e-16
		vertex 2.051787e-01 8.695916e-01 0.000000e+00
		vertex 4.862227e-02 7.472322e-01 -2.533136e-01
	endloop
endfacet
facet normal 8.944272e-01 0.000000e+00 4.472136e-01
	outer loop
		vertex 2.051787e-01 8.695916e-01 5.551115e-17
		vertex 2.778004e-17 1.000000e+00 3.319861e-01
		vertex 0.000000e+00 1.000000e+00 3.319861e-01
	endloop
endfacet
facet normal 0.000000e+00 0.000000e+00 0.000000e+00
	outer loop
		vertex 0.000000e+00 1.000000e+00 3.319861e-01
		vertex 2.051787e-01 8.695916e-01 5.551115e-17
		vertex 2.051787e-01 8.695916e-01 5.551115e-17
	endloop
endfacet
facet normal 8.944272e-01 0.000000e+00 4.472136e-01
	outer loop
		vertex 2.051787e-01 8.695916e-01 5.551115e-17
		vertex 2.778004e-17 1.000000e+00 3.319861e-01
		vertex 0.000000e+00 1.000000e+00 3.319861e-01
	endloop
endfacet
facet normal 0.000000e+00 0.000000e+00 0.000000e+00
	outer loop
		vertex 0.000000e+00 1.000000e+00 3.319861e-01
		vertex 2.051787e-01 8.695916e-01 5.551115e-17
		vertex 2.051787e-01 8.695916e-01 5.551115e-17
	endloop
endfacet
facet normal 0.000000e+00 0.000000e+00 0.000000e+00
	outer loop
		vertex 2.051787e-01 8.695916e-01 5.551115e-17
		vertex 2.051787e-01 8.695916e-01 5.551115e-17
		vertex 4.862227e-02 7.472322e-01 -2.533136e-01
	endloop
endfacet
facet normal 8.506508e-01 1.322780e-14 5.257311e-01
	outer loop
		vertex 2.051787e-01 8.673853e-01 5.551115e-17
		vertex 2.051787e-01 8.695916e-01 0.000000e+00
		vertex 2.778004e-17 1.000000e+00 3.319861e-01
	endloop
endfacet
facet normal -8.506508e-01 1.322780e-14 5.257311e-01
	outer loop
		vertex 2.051787e-01 8.673853e-01 5.551115e-17
		vertex 2.051787e-01 8.695916e-01 0.000000e+00
		vertex 4.862227e-02 7.472322e-01 -2.533136e-01
	endloop
endfacet
facet normal 8.944272e-01 0.000000e+00 4.472136e-01
	outer loop
		vertex 2.051787e-01 8.695916e-01 5.551115e-17
		vertex 2.778004e-17 1.000000e+00 3.319861e-01
		vertex 0.000000e+00 1.000000e+00 3.319861e-01
	endloop
endfacet
facet normal 0.000000e+00 0.000000e+00 0.000000e+00
	outer loop
		vertex 0.000000e+00 1.000000e+00 3.319861e-01
		vertex 2.051787e-01 8.695916e-01 5.551115e-17
		vertex 2.051787e-01 8.695916e-01 5.551115e-17
	endloop
endfacet
facet normal 8.944272e-01 0.000000e+00 4.472136e-01
	outer loop
		vertex 2.051787e-01 8.695916e-01 5.551115e-17
		vertex 2.778004e-17 1.000000e+00 3.319861e-01
		vertex 0.000000e+00 1.000000e+00 3.319861e-01
	endloop
endfacet
facet normal 0.000000e+00 0.000000e+00 0.000000e+00
	outer loop
		vertex 0.000000e+00 1.000000e+00 3.319861e-01
		vertex 2.051787e-01 8.695916e-01 5.551115e-17
		vertex 2.051787e-01 8.695916e-01 5.551115e-17
	endloop
endfacet
facet normal 0.000000e+00 0.000000e+00 0.000000e+00
	outer loop
		vertex 2.051787e-01 8.695916e-01 5.551115e-17
		vertex 2.051787e-01 8.695916e-01 5.551115e-17
		vertex 4.862227e-02 7.472322e-01 -2.533136e-01
	endloop
endfacet
facet normal 8.506508e-01 5.096530e-15 5.257311e-01
	outer loop
		vertex 2.051787e-01 8.638463e-01 0.000000e+00
		vertex 2.051787e-01 8.673853e-01 5.551115e-17
		vertex 5.551115e-17 1.000000e+00 3.319861e-01
	endloop
endfacet
facet normal -8.506508e-01 -2.158925e-14 5.257311e-01
	outer loop
		vertex 2.051787e-01 8.638463e-01 0.000000e+00
		vertex 2.051787e-01 8.673853e-01 5.551115e-17
		vertex 4.862227e-02 7.472322e-01 -2.533136e-01
	endloop
endfacet
facet normal 0.000000e+00 9.701425e-01 -2.425356e-01
	outer loop
		vertex 2.051787e-01 8.673853e-01 5.551115e-17
		vertex 2.778004e-17 1.000000e+00 3.319861e-01
		vertex 5.551115e-17 1.000000e+00 3.319861e-01
	endloop
endfacet
facet normal 0.000000e+00 9.701425e-01 -2.425356e-01
	outer loop
		vertex 5.551115e-17 1.000000e+00 3.319861e-01
		vertex 2.051787e-01 8.673853e-01 5.551115e-17
		vertex 2.051787e-01 8.673853e-01 5.551115e-17
	endloop
endfacet
facet normal 0.000000e+00 8.944272e-01 -4.472136e-01
	outer loop
		vertex 2.051787e-01 8.673853e-01 5.551115e-17
		vertex 2.778004e-17 1.000000e+00 3.319861e-01
		vertex 5.551115e-17 1.000000e+00 3.319861e-01
	endloop
endfacet
facet normal 0.000000e+00 9.701425e-01 -2.425356e-01
	outer loop
		vertex 5.551115e-17 1.000000e+00 3.319861e-01
		vertex 2.051787e-01 8.673853e-01 5.551115e-17
		vertex 2.051787e-01 8.673853e-01 5.551115e-17
	endloop
endfacet
facet normal 0.000000e+00 9.035135e-01 -4.285597e-01
	outer loop
		vertex 2.051787e-01 8.673853e-01 5.551115e-17
		vertex 2.051787e-01 8.673853e-01 5.551115e-17
		vertex 4.862227e-02 7.472322e-01 -2.533136e-01
	endloop
endfacet
facet normal 8.506508e-01 5.096530e-15 5.257311e-01
	outer loop
		vertex 2.051787e-01 8.638463e-01 0.000000e+00
		vertex 2.051787e-01 8.673853e-01 5.551115e-17
		vertex 2.778004e-17 1.000000e+00 3.319861e-01
	endloop
endfacet
facet normal -8.506508e-01 -2.158925e-14 5.257311e-01
	outer loop
		vertex 2.051787e-01 8.638463e-01 0.000000e+00
		vertex 2.051787e-01 8.673853e-01 5.551115e-17
		vertex 4.862227e-02 7.472322e-01 -2.533136e-01
	endloop
endfacet
facet normal 0.000000e+00 9.701425e-01 -2.425356e-01
	outer loop
		vertex 2.051787e-01 8.673853e-01 5.551115e-17
		vertex 2.778004e-17 1.000000e+00 3.319861e-01
		vertex 5.551115e-17 1.000000e+00 3.319861e-01
	endloop
endfacet
facet normal 0.000000e+00 9.701425e-01 -2.425356e-01
	outer loop
		vertex 5.551115e-17 1.000000e+00 3.319861e-01
		vertex 2.051787e-01 8.673853e-01 5.551115e-17
		vertex 2.051787e-01 8.673853e-01 5.551115e-17
	endloop
endfacet
facet normal 0.000000e+00 8.944272e-01 -4.472136e-01
	outer loop
		vertex 2.051787e-01 8.673853e-01 5.551115e-17
		vertex 2.778004e-17 1.000000e+00 3.319861e-01
		vertex 5.551115e-17 1.000000e+00 3.319861e-01
	endloop
endfacet
facet normal 0.000000e+00 9.701425e-01 -2.425356e-01
	outer loop
		vertex 5.551115e-17 1.000000e+00 3.319861e-01
		vertex 2.051787e-01 8.673853e-01 5.551115e-17
		vertex 2.051787e-01 8.673853e-01 5.551115e-17
	endloop
endfacet
facet normal 0.000000e+00 9.035135e-01 -4.285597e-01
	outer loop
		vertex 2.051787e-01 8.673853e-01 5.551115e-17
		vertex 2.051787e-01 8.673853e-01 5.551115e-17
		vertex 4.862227e-02 7.472322e-01 -2.533136e-01
	endloop
endfacet
facet normal 8.676827e-01 2.169207e-01 4.472942e-01
	outer loop
		vertex 2.051787e-01 8.638463e-01 0.000000e+00
		vertex 2.051787e-01 8.638463e-01 0.000000e+00
		vertex 0.000000e+00 1.000000e+00 3.319861e-01
	endloop
endfacet
facet normal -7.905771e-01 -1.976443e-01 5.795900e-01
	outer loop
		vertex 2.051787e-01 8.638463e-01 0.000000e+00
		vertex 2.051787e-01 8.638463e-01 0.000000e+00
		vertex 4.862227e-02 7.472322e-01 -2.533136e-01
	endloop
endfacet
facet normal 8.944272e-01 0.000000e+00 4.472136e-01
	outer loop
		vertex 2.051787e-01 8.638463e-01 -5.551115e-17
		vertex 2.778004e-17 1.000000e+00 3.319861e-01
		vertex 0.000000e+00 1.000000e+00 3.319861e-01
	endloop
endfacet
facet normal -8.000000e-01 0.000000e+00 -6.000000e-01
	outer loop
		vertex 0.000000e+00 1.000000e+00 3.319861e-01
		vertex 2.051787e-01 8.638463e-01 0.000000e+00
		vertex 2.051787e-01 8.638463e-01 -5.551115e-17
	endloop
endfacet
facet normal 8.944272e-01 0.000000e+00 4.472136e-01
	outer loop
		vertex 2.051787e-01 8.638463e-01 0.000000e+00
		vertex 2.778004e-17 1.000000e+00 3.319861e-01
		vertex 0.000000e+00 1.000000e+00 3.319861e-01
	endloop
endfacet
facet normal -8.000000e-01 0.000000e+00 -6.000000e-01
	outer loop
		vertex 0.000000e+00 1.000000e+00 3.319861e-01
		vertex 2.051787e-01 8.638463e-01 0.000000e+00
		vertex 2.051787e-01 8.638463e-01 -5.551115e-17
	endloop
endfacet
facet normal -6.409414e-01 -4.654282e-01 6.103857e-01
	outer loop
		vertex 2.051787e-01 8.638463e-01 -5.551115e-17
		vertex 2.051787e-01 8.638463e-01 0.000000e+00
		vertex 4.862227e-02 7.472322e-01 -2.533136e-01
	endloop
endfacet
facet normal 8.390195e-01 4.195097e-01 3.464938e-01
	outer loop
		vertex 2.051787e-01 8.638463e-01 0.000000e+00
		vertex 2.051787e-01 8.638463e-01 0.000000e+00
		vertex 2.778004e-17 1.000000e+00 3.319861e-01
	endloop
endfacet
facet normal -7.125677e-01 -3.562838e-01 6.044081e-01
	outer loop
		vertex 2.051787e-01 8.638463e-01 0.000000e+00
		vertex 2.051787e-01 8.638463e-01 0.000000e+00
		vertex 4.862227e-02 7.472322e-01 -2.533136e-01
	endloop
endfacet
facet normal 8.944272e-01 0.000000e+00 4.472136e-01
	outer loop
		vertex 2.051787e-01 8.638463e-01 -5.551115e-17
		vertex 2.778004e-17 1.000000e+00 3.319861e-01
		vertex 0.000000e+00 1.000000e+00 3.319861e-01
	endloop
endfacet
facet normal -8.000000e-01 0.000000e+00 -6.000000e-01
	outer loop
		vertex 0.000000e+00 1.000000e+00 3.319861e-01
		vertex 2.051787e-01 8.638463e-01 0.000000e+00
		vertex 2.051787e-01 8.638463e-01 -5.551115e-17
	endloop
endfacet
facet normal 8.944272e-01 0.000000e+00 4.472136e-01
	outer loop
		vertex 2.051787e-01 8.638463e-01 0.000000e+00
		vertex 2.778004e-17 1.000000e+00 3.319861e-01
		vertex 0.000000e+00 1.000000e+00 3.319861e-01
	endloop
endfacet
facet normal -8.000000e-01 0.000000e+00 -6.000000e-01
	outer loop
		vertex 0.000000e+00 1.000000e+00 3.319861e-01
		vertex 2.051787e-01 8.638463e-01 0.000000e+00
		vertex 2.051787e-01 8.638463e-01 -5.551115e-17
	endloop
endfacet
facet normal -6.409414e-01 -4.654282e-01 6.103857e-01
	outer loop
		vertex 2.051787e-01 8.638463e-01 -5.551115e-17
		vertex 2.051787e-01 8.638463e-01 0.000000e+00
		vertex 4.862227e-02 7.472322e-01 -2.533136e-01
	endloop
endfacet
facet normal 8.506508e-01 -4.571922e-16 5.257311e-01
	outer loop
		vertex 2.051787e-01 7.727534e-01 5.551115e-17
		vertex 2.051787e-01 8.638463e-01 0.000000e+00
		vertex 0.000000e+00 1.000000e+00 3.319861e-01
	endloop
endfacet
facet normal -8.506508e-01 1.097943e-15 5.257311e-01
	outer loop
		vertex 2.051787e-01 7.727534e-01 5.551115e-17
		vertex 2.051787e-01 8.638463e-01 0.000000e+00
		vertex 4.862227e-02 7.472322e-01 -2.533136e-01
	endloop
endfacet
facet normal 8.944272e-01 0.000000e+00 4.472136e-01
	outer loop
		vertex 2.051787e-01 8.638463e-01 5.551115e-17
		vertex 2.778004e-17 1.000000e+00 3.319861e-01
		vertex 0.000000e+00 1.000000e+00 3.319861e-01
	endloop
endfacet
facet normal -4.472136e-01 -8.944272e-01 0.000000e+00
	outer loop
		vertex 0.000000e+00 1.000000e+00 3.319861e-01
		vertex 2.051787e-01 8.638463e-01 0.000000e+00
		vertex 2.051787e-01 8.638463e-01 5.551115e-17
	endloop
endfacet
facet normal 8.944272e-01 0.000000e+00 4.472136e-01
	outer loop
		vertex 2.051787e-01 8.638463e-01 0.000000e+00
		vertex 2.778004e-17 1.000000e+00 3.319861e-01
		vertex 0.000000e+00 1.000000e+00 3.319861e-01
	endloop
endfacet
facet normal -4.472136e-01 -8.944272e-01 0.000000e+00
	outer loop
		vertex 0.000000e+00 1.000000e+00 3.319861e-01
		vertex 2.051787e-01 8.638463e-01 0.000000e+00
		vertex 2.051787e-01 8.638463e-01 5.551115e-17
	endloop
endfacet
facet normal -5.973636e-01 8.019705e-01 0.000000e+00
	outer loop
		vertex 2.051787e-01 8.638463e-01 5.551115e-17
		vertex 2.051787e-01 8.638463e-01 0.000000e+00
		vertex 4.862227e-02 7.472322e-01 -2.533136e-01
	endloop
endfacet
facet normal 8.506508e-01 -6.173800e-16 5.257311e-01
	outer loop
		vertex 2.051787e-01 7.727534e-01 2.775558e-17
		vertex 2.051787e-01 8.638463e-01 0.000000e+00
		vertex 2.778004e-17 1.000000e+00 3.319861e-01
	endloop
endfacet
facet normal -8.506508e-01 9.377556e-16 5.257311e-01
	outer loop
		vertex 2.051787e-01 7.727534e-01 2.775558e-17
		vertex 2.051787e-01 8.638463e-01 0.000000e+00
		vertex 4.862227e-02 7.472322e-01 -2.533136e-01
	endloop
endfacet
facet normal 8.944272e-01 0.000000e+00 4.472136e-01
	outer loop
		vertex 2.051787e-01 8.638463e-01 5.551115e-17
		vertex 2.778004e-17 1.000000e+00 3.319861e-01
		vertex 0.000000e+00 1.000000e+00 3.319861e-01
	endloop
endfacet
facet normal -4.472136e-01 -8.944272e-01 0.000000e+00
	outer loop
		vertex 0.000000e+00 1.000000e+00 3.319861e-01
		vertex 2.051787e-01 8.638463e-01 0.000000e+00
		vertex 2.051787e-01 8.638463e-01 5.551115e-17
	endloop
endfacet
facet normal 8.944272e-01 0.000000e+00 4.472136e-01
	outer loop
		vertex 2.051787e-01 8.638463e-01 0.000000e+00
		vertex 2.778004e-17 1.000000e+00 3.319861e-01
		vertex 0.000000e+00 1.000000e+00 3.319861e-01
	endloop
endfacet
facet normal -4.472136e-01 -8.944272e-01 0.000000e+00
	outer loop
		vertex 0.000000e+00 1.000000e+00 3.319861e-01
		vertex 2.051787e-01 8.638463e-01 0.000000e+00
		vertex 2.051787e-01 8.638463e-01 5.551115e-17
	endloop
endfacet
facet normal -5.973636e-01 8.019705e-01 0.000000e+00
	outer loop
		vertex 2.051787e-01 8.638463e-01 5.551115e-17
		vertex 2.051787e-01 8.638463e-01 0.000000e+00
		vertex 4.862227e-02 7.472322e-01 -2.533136e-01
	endloop
endfacet
facet normal -8.506508e-01 -8.281460e-15 -5.257311e-01
	outer loop
		vertex 2.051787e-01 7.727534e-01 0.000000e+00
		vertex 2.051787e-01 7.646164e-01 8.326673e-17
		vertex 5.551115e-17 1.000000e+00 3.319861e-01
	endloop
endfacet
facet normal 8.506508e-01 -2.478262e-15 -5.257311e-01
	outer loop
		vertex 2.051787e-01 7.727534e-01 0.000000e+00
		vertex 2.051787e-01 7.646164e-01 8.326673e-17
		vertex 4.862227e-02 7.472322e-01 -2.533136e-01
	endloop
endfacet
facet normal -8.944272e-01 0.000000e+00 -4.472136e-01
	outer loop
		vertex 2.051787e-01 7.646164e-01 5.551115e-17
		vertex 2.778004e-17 1.000000e+00 3.319861e-01
		vertex 5.551115e-17 1.000000e+00 3.319861e-01
	endloop
endfacet
facet normal 0.000000e+00 8.000000e-01 -6.000000e-01
	outer loop
		vertex 5.551115e-17 1.000000e+00 3.319861e-01
		vertex 2.051787e-01 7.646164e-01 5.551115e-17
		vertex 2.051787e-01 7.646164e-01 5.551115e-17
	endloop
endfacet
facet normal -8.944272e-01 0.000000e+00 -4.472136e-01
	outer loop
		vertex 2.051787e-01 7.646164e-01 5.551115e-17
		vertex 2.778004e-17 1.000000e+00 3.319861e-01
		vertex 5.551115e-17 1.000000e+00 3.319861e-01
	endloop
endfacet
facet normal 0.000000e+00 8.000000e-01 -6.000000e-01
	outer loop
		vertex 5.551115e-17 1.000000e+00 3.319861e-01
		vertex 2.051787e-01 7.646164e-01 5.551115e-17
		vertex 2.051787e-01 7.646164e-01 5.551115e-17
	endloop
endfacet
facet normal 0.000000e+00 9.976534e-01 -6.846632e-02
	outer loop
		vertex 2.051787e-01 7.646164e-01 5.551115e-17
		vertex 2.051787e-01 7.646164e-01 5.551115e-17
		vertex 4.862227e-02 7.472322e-01 -2.533136e-01
	endloop
endfacet
facet normal -8.506508e-01 -1.049808e-14 -5.257311e-01
	outer loop
		vertex 2.051787e-01 7.727534e-01 5.551115e-17
		vertex 2.051787e-01 7.646164e-01 8.326673e-17
		vertex 2.778004e-17 1.000000e+00 3.319861e-01
	endloop
endfacet
facet normal 8.506508e-01 6.911510e-15 -5.257311e-01
	outer loop
		vertex 2.051787e-01 7.727534e-01 5.551115e-17
		vertex 2.051787e-01 7.646164e-01 8.326673e-17
		vertex 4.862227e-02 7.472322e-01 -2.533136e-01
	endloop
endfacet
facet normal -8.944272e-01 0.000000e+00 -4.472136e-01
	outer loop
		vertex 2.051787e-01 7.646164e-01 5.551115e-17
		vertex 2.778004e-17 1.000000e+00 3.319861e-01
		vertex 5.551115e-17 1.000000e+00 3.319861e-01
	endloop
endfacet
facet normal 0.000000e+00 8.000000e-01 -6.000000e-01
	outer loop
		vertex 5.551115e-17 1.000000e+00 3.319861e-01
		vertex 2.051787e-01 7.646164e-01 5.551115e-17
		vertex 2.051787e-01 7.646164e-01 5.551115e-17
	endloop
endfacet
facet normal -8.944272e-01 0.000000e+00 -4.472136e-01
	outer loop
		vertex 2.051787e-01 7.646164e-01 5.551115e-17
		vertex 2.778004e-17 1.000000e+00 3.319861e-01
		vertex 5.551115e-17 1.000000e+00 3.319861e-01
	endloop
endfacet
facet normal 0.000000e+00 8.000000e-01 -6.000000e-01
	outer loop
		vertex 5.551115e-17 1.000000e+00 3.319861e-01
		vertex 2.051787e-01 7.646164e-01 5.551115e-17
		vertex 2.051787e-01 7.646164e-01 5.551115e-17
	endloop
endfacet
facet normal 0.000000e+00 9.976534e-01 -6.846632e-02
	outer loop
		vertex 2.051787e-01 7.646164e-01 5.551115e-17
		vertex 2.051787e-01 7.646164e-01 5.551115e-17
		vertex 4.862227e-02 7.472322e-01 -2.533136e-01
	endloop
endfacet
facet normal -8.506508e-01 -1.904285e-16 -5.257311e-01
	outer loop
		vertex 2.051787e-01 7.646164e-01 -2.775558e-17
		vertex 2.051787e-01 6.879894e-01 0.000000e+00
		vertex 5.551115e-17 1.000000e+00 3.319861e-01
	endloop
endfacet
facet normal 8.506508e-01 -1.904285e-16 -5.257311e-01
	outer loop
		vertex 2.051787e-01 7.646164e-01 -2.775558e-17
		vertex 2.051787e-01 6.879894e-01 0.000000e+00
		vertex 4.862227e-02 7.472322e-01 -2.533136e-01
	endloop
endfacet
facet normal 7.071068e-01 0.000000e+00 7.071068e-01
	outer loop
		vertex 2.051787e-01 6.879894e-01 0.000000e+00
		vertex 2.778004e-17 1.000000e+00 3.319861e-01
		vertex 5.551115e-17 1.000000e+00 3.319861e-01
	endloop
endfacet
facet normal 0.000000e+00 7.071068e-01 -7.071068e-01
	outer loop
		vertex 5.551115e-17 1.000000e+00 3.319861e-01
		vertex 2.051787e-01 6.879894e-01 0.000000e+00
		vertex 2.051787e-01 6.879894e-01 0.000000e+00
	endloop
endfacet
facet normal 7.071068e-01 0.000000e+00 7.071068e-01
	outer loop
		vertex 2.051787e-01 6.879894e-01 0.000000e+00
		vertex 2.778004e-17 1.000000e+00 3.319861e-01
		vertex 5.551115e-17 1.000000e+00 3.319861e-01
	endloop
endfacet
facet normal 0.000000e+00 7.071068e-01 -7.071068e-01
	outer loop
		vertex 5.551115e-17 1.000000e+00 3.319861e-01
		vertex 2.051787e-01 6.879894e-01 0.000000e+00
		vertex 2.051787e-01 6.879894e-01 0.000000e+00
	endloop
endfacet
facet normal -0.000000e+00 9.737252e-01 2.277264e-01
	outer loop
		vertex 2.051787e-01 6.879894e-01 0.000000e+00
		vertex 2.051787e-01 6.879894e-01 0.000000e+00
		vertex 4.862227e-02 7.472322e-01 -2.533136e-01
	endloop
endfacet
facet normal -8.506508e-01 -3.808570e-16 -5.257311e-01
	outer loop
		vertex 2.051787e-01 7.646164e-01 -2.775558e-17
		vertex 2.051787e-01 6.879894e-01 2.775558e-17
		vertex 2.778004e-17 1.000000e+00 3.319861e-01
	endloop
endfacet
facet normal 8.506508e-01 -3.808570e-16 -5.257311e-01
	outer loop
		vertex 2.051787e-01 7.646164e-01 -2.775558e-17
		vertex 2.051787e-01 6.879894e-01 2.775558e-17
		vertex 4.862227e-02 7.472322e-01 -2.533136e-01
	endloop
endfacet
facet normal 7.071068e-01 0.000000e+00 7.071068e-01
	outer loop
		vertex 2.051787e-01 6.879894e-01 0.000000e+00
		vertex 2.778004e-17 1.000000e+00 3.319861e-01
		vertex 5.551115e-17 1.000000e+00 3.319861e-01
	endloop
endfacet
facet normal 0.000000e+00 7.071068e-01 -7.071068e-01
	outer loop
		vertex 5.551115e-17 1.000000e+00 3.319861e-01
		vertex 2.051787e-01 6.879894e-01 0.000000e+00
		vertex 2.051787e-01 6.879894e-01 0.000000e+00
	endloop
endfacet
facet normal 7.071068e-01 0.000000e+00 7.071068e-01
	outer loop
		vertex 2.051787e-01 6.879894e-01 0.000000e+00
		vertex 2.778004e-17 1.000000e+00 3.319861e-01
		vertex 5.551115e-17 1.000000e+00 3.319861e-01
	endloop
endfacet
facet normal 0.000000e+00 7.071068e-01 -7.071068e-01
	outer loop
		vertex 5.551115e-17 1.000000e+00 3.319861e-01
		vertex 2.051787e-01 6.879894e-01 0.000000e+00
		vertex 2.051787e-01 6.879894e-01 0.000000e+00
	endloop
endfacet
facet normal -0.000000e+00 9.737252e-01 2.277264e-01
	outer loop
		vertex 2.051787e-01 6.879894e-01 0.000000e+00
		vertex 2.051787e-01 6.879894e-01 0.000000e+00
		vertex 4.862227e-02 7.472322e-01 -2.533136e-01
	endloop
endfacet
facet normal 8.506508e-01 -1.072748e-17 5.257311e-01
	outer loop
		vertex 2.051787e-01 5.274348e-01 4.163336e-17
		vertex 2.051787e-01 6.879894e-01 0.000000e+00
		vertex 5.551115e-17 1.000000e+00 3.319861e-01
	endloop
endfacet
facet normal -8.506508e-01 2.833819e-16 5.257311e-01
	outer loop
		vertex 2.051787e-01 5.274348e-01 4.163336e-17
		vertex 2.051787e-01 6.879894e-01 0.000000e+00
		vertex 4.862227e-02 7.472322e-01 -2.533136e-01
	endloop
endfacet
facet normal -1.000000e+00 0.000000e+00 0.000000e+00
	outer loop
		vertex 2.051787e-01 6.879894e-01 0.000000e+00
		vertex 2.778004e-17 1.000000e+00 3.319861e-01
		vertex 5.551115e-17 1.000000e+00 3.319861e-01
	endloop
endfacet
facet normal 0.000000e+00 1.000000e+00 0.000000e+00
	outer loop
		vertex 5.551115e-17 1.000000e+00 3.319861e-01
		vertex 2.051787e-01 6.879894e-01 0.000000e+00
		vertex 2.051787e-01 6.879894e-01 0.000000e+00
	endloop
endfacet
facet normal -8.944272e-01 0.000000e+00 -4.472136e-01
	outer loop
		vertex 2.051787e-01 6.879894e-01 0.000000e+00
		vertex 2.778004e-17 1.000000e+00 3.319861e-01
		vertex 5.551115e-17 1.000000e+00 3.319861e-01
	endloop
endfacet
facet normal 0.000000e+00 1.000000e+00 0.000000e+00
	outer loop
		vertex 5.551115e-17 1.000000e+00 3.319861e-01
		vertex 2.051787e-01 6.879894e-01 0.000000e+00
		vertex 2.051787e-01 6.879894e-01 0.000000e+00
	endloop
endfacet
facet normal -0.000000e+00 9.737252e-01 2.277264e-01
	outer loop
		vertex 2.051787e-01 6.879894e-01 0.000000e+00
		vertex 2.051787e-01 6.879894e-01 0.000000e+00
		vertex 4.862227e-02 7.472322e-01 -2.533136e-01
	endloop
endfacet
facet normal 8.506508e-01 -1.470547e-16 5.257311e-01
	outer loop
		vertex 2.051787e-01 5.274348e-01 2.775558e-17
		vertex 2.051787e-01 6.879894e-01 2.775558e-17
		vertex 2.778004e-17 1.000000e+00 3.319861e-01
	endloop
endfacet
facet normal -8.506508e-01 1.470547e-16 5.257311e-01
	outer loop
		vertex 2.051787e-01 5.274348e-01 2.775558e-17
		vertex 2.051787e-01 6.879894e-01 2.775558e-17
		vertex 4.862227e-02 7.472322e-01 -2.533136e-01
	endloop
endfacet
facet normal -1.000000e+00 0.000000e+00 0.000000e+00
	outer loop
		vertex 2.051787e-01 6.879894e-01 0.000000e+00
		vertex 2.778004e-17 1.000000e+00 3.319861e-01
		vertex 5.551115e-17 1.000000e+00 3.319861e-01
	endloop
endfacet
facet normal 0.000000e+00 1.000000e+00 0.000000e+00
	outer loop
		vertex 5.551115e-17 1.000000e+00 3.319861e-01
		vertex 2.051787e-01 6.879894e-01 0.000000e+00
		vertex 2.051787e-01 6.879894e-01 0.000000e+00
	endloop
endfacet
facet normal -8.944272e-01 0.000000e+00 -4.472136e-01
	outer loop
		vertex 2.051787e-01 6.879894e-01 0.000000e+00
		vertex 2.778004e-17 1.000000e+00 3.319861e-01
		vertex 5.551115e-17 1.000000e+00 3.319861e-01
	endloop
endfacet
facet normal 0.000000e+00 1.000000e+00 0.000000e+00
	outer loop
		vertex 5.551115e-17 1.000000e+00 3.319861e-01
		vertex 2.051787e-01 6.879894e-01 0.000000e+00
		vertex 2.051787e-01 6.879894e-01 0.000000e+00
	endloop
endfacet
facet normal -0.000000e+00 9.737252e-01 2.277264e-01
	outer loop
		vertex 2.051787e-01 6.879894e-01 0.000000e+00
		vertex 2.051787e-01 6.879894e-01 0.000000e+00
		vertex 4.862227e-02 7.472322e-01 -2.533136e-01
	endloop
endfacet
facet normal -8.506508e-01 -1.173852e-15 -5.257311e-01
	outer loop
		vertex 2.051787e-01 5.012710e-01 2.081668e-17
		vertex 2.051787e-01 4.531880e-01 8.326673e-17
		vertex 0.000000e+00 1.000000e+00 3.319861e-01
	endloop
endfacet
facet normal 8.506508e-01 -1.917860e-16 -5.257311e-01
	outer loop
		vertex 2.051787e-01 5.012710e-01 2.081668e-17
		vertex 2.051787e-01 4.531880e-01 8.326673e-17
		vertex 4.862227e-02 7.472322e-01 -2.533136e-01
	endloop
endfacet
facet normal 0.000000e+00 0.000000e+00 0.000000e+00
	outer loop
		vertex 2.051787e-01 4.531880e-01 5.551115e-17
		vertex 2.778004e-17 1.000000e+00 3.319861e-01
		vertex 0.000000e+00 1.000000e+00 3.319861e-01
	endloop
endfacet
facet normal 8.164966e-01 4.082483e-01 4.082483e-01
	outer loop
		vertex 0.000000e+00 1.000000e+00 3.319861e-01
		vertex 2.051787e-01 4.531880e-01 5.551115e-17
		vertex 2.051787e-01 4.531880e-01 5.551115e-17
	endloop
endfacet
facet normal 0.000000e+00 0.000000e+00 -1.000000e+00
	outer loop
		vertex 2.051787e-01 4.531880e-01 5.551115e-17
		vertex 2.778004e-17 1.000000e+00 3.319861e-01
		vertex 0.000000e+00 1.000000e+00 3.319861e-01
	endloop
endfacet
facet normal 8.164966e-01 4.082483e-01 4.082483e-01
	outer loop
		vertex 0.000000e+00 1.000000e+00 3.319861e-01
		vertex 2.051787e-01 4.531880e-01 5.551115e-17
		vertex 2.051787e-01 4.531880e-01 5.551115e-17
	endloop
endfacet
facet normal 9.245096e-01 2.311274e-01 -3.030878e-01
	outer loop
		vertex 2.051787e-01 4.531880e-01 5.551115e-17
		vertex 2.051787e-01 4.531880e-01 5.551115e-17
		vertex 4.862227e-02 7.472322e-01 -2.533136e-01
	endloop
endfacet
facet normal -8.506508e-01 -6.828189e-16 -5.257311e-01
	outer loop
		vertex 2.051787e-01 5.012710e-01 1.387779e-17
		vertex 2.051787e-01 4.531880e-01 7.632783e-17
		vertex 2.778004e-17 1.000000e+00 3.319861e-01
	endloop
endfacet
facet normal 8.506508e-01 -6.828189e-16 -5.257311e-01
	outer loop
		vertex 2.051787e-01 5.012710e-01 1.387779e-17
		vertex 2.051787e-01 4.531880e-01 7.632783e-17
		vertex 4.862227e-02 7.472322e-01 -2.533136e-01
	endloop
endfacet
facet normal 0.000000e+00 0.000000e+00 0.000000e+00
	outer loop
		vertex 2.051787e-01 4.531880e-01 5.551115e-17
		vertex 2.778004e-17 1.000000e+00 3.319861e-01
		vertex 0.000000e+00 1.000000e+00 3.319861e-01
	endloop
endfacet
facet normal 8.164966e-01 4.082483e-01 4.082483e-01
	outer loop
		vertex 0.000000e+00 1.000000e+00 3.319861e-01
		vertex 2.051787e-01 4.531880e-01 5.551115e-17
		vertex 2.051787e-01 4.531880e-01 5.551115e-17
	endloop
endfacet
facet normal 0.000000e+00 0.000000e+00 -1.000000e+00
	outer loop
		vertex 2.051787e-01 4.531880e-01 5.551115e-17
		vertex 2.778004e-17 1.000000e+00 3.319861e-01
		vertex 0.000000e+00 1.000000e+00 3.319861e-01
	endloop
endfacet
facet normal 8.164966e-01 4.082483e-01 4.082483e-01
	outer loop
		vertex 0.000000e+00 1.000000e+00 3.319861e-01
		vertex 2.051787e-01 4.531880e-01 5.551115e-17
		vertex 2.051787e-01 4.531880e-01 5.551115e-17
	endloop
endfacet
facet normal 9.245096e-01 2.311274e-01 -3.030878e-01
	outer loop
		vertex 2.051787e-01 4.531880e-01 5.551115e-17
		vertex 2.051787e-01 4.531880e-01 5.551115e-17
		vertex 4.862227e-02 7.472322e-01 -2.533136e-01
	endloop
endfacet
facet normal 8.506508e-01 -0.000000e+00 5.257311e-01
	outer loop
		vertex 2.051787e-01 5.012710e-01 5.551115e-17
		vertex 2.051787e-01 5.274348e-01 5.551115e-17
		vertex 2.775558e-17 1.000000e+00 3.319861e-01
	endloop
endfacet
facet normal -8.506508e-01 0.000000e+00 5.257311e-01
	outer loop
		vertex 2.051787e-01 5.012710e-01 5.551115e-17
		vertex 2.051787e-01 5.274348e-01 5.551115e-17
		vertex 4.862227e-02 7.472322e-01 -2.533136e-01
	endloop
endfacet
facet normal 0.000000e+00 0.000000e+00 0.000000e+00
	outer loop
		vertex 2.051787e-01 5.274348e-01 1.110223e-16
		vertex 2.778004e-17 1.000000e+00 3.319861e-01
		vertex 2.775558e-17 1.000000e+00 3.319861e-01
	endloop
endfacet
facet normal 0.000000e+00 0.000000e+00 0.000000e+00
	outer loop
		vertex 2.775558e-17 1.000000e+00 3.319861e-01
		vertex 2.051787e-01 5.274348e-01 1.110223e-16
		vertex 2.051787e-01 5.274348e-01 1.110223e-16
	endloop
endfacet
facet normal 0.000000e+00 0.000000e+00 0.000000e+00
	outer loop
		vertex 2.051787e-01 5.274348e-01 1.110223e-16
		vertex 2.778004e-17 1.000000e+00 3.319861e-01
		vertex 2.775558e-17 1.000000e+00 3.319861e-01
	endloop
endfacet
facet normal 0.000000e+00 0.000000e+00 0.000000e+00
	outer loop
		vertex 2.775558e-17 1.000000e+00 3.319861e-01
		vertex 2.051787e-01 5.274348e-01 1.110223e-16
		vertex 2.051787e-01 5.274348e-01 1.110223e-16
	endloop
endfacet
facet normal 0.000000e+00 0.000000e+00 0.000000e+00
	outer loop
		vertex 2.051787e-01 5.274348e-01 1.110223e-16
		vertex 2.051787e-01 5.274348e-01 1.110223e-16
		vertex 4.862227e-02 7.472322e-01 -2.533136e-01
	endloop
endfacet
facet normal 8.506508e-01 -0.000000e+00 5.257311e-01
	outer loop
		vertex 2.051787e-01 5.012710e-01 5.551115e-17
		vertex 2.051787e-01 5.274348e-01 5.551115e-17
		vertex 2.778004e-17 1.000000e+00 3.319861e-01
	endloop
endfacet
facet normal -8.506508e-01 0.000000e+00 5.257311e-01
	outer loop
		vertex 2.051787e-01 5.012710e-01 5.551115e-17
		vertex 2.051787e-01 5.274348e-01 5.551115e-17
		vertex 4.862227e-02 7.472322e-01 -2.533136e-01
	endloop
endfacet
facet normal 0.000000e+00 0.000000e+00 0.000000e+00
	outer loop
		vertex 2.051787e-01 5.274348e-01 1.110223e-16
		vertex 2.778004e-17 1.000000e+00 3.319861e-01
		vertex 2.775558e-17 1.000000e+00 3.319861e-01
	endloop
endfacet
facet normal 0.000000e+00 0.000000e+00 0.000000e+00
	outer loop
		vertex 2.775558e-17 1.000000e+00 3.319861e-01
		vertex 2.051787e-01 5.274348e-01 1.110223e-16
		vertex 2.051787e-01 5.274348e-01 1.110223e-16
	endloop
endfacet
facet normal 0.000000e+00 0.000000e+00 0.000000e+00
	outer loop
		vertex 2.051787e-01 5.274348e-01 1.110223e-16
		vertex 2.778004e-17 1.000000e+00 3.319861e-01
		vertex 2.775558e-17 1.000000e+00 3.319861e-01
	endloop
endfacet
facet normal 0.000000e+00 0.000000e+00 0.000000e+00
	outer loop
		vertex 2.775558e-17 1.000000e+00 3.319861e-01
		vertex 2.051787e-01 5.274348e-01 1.110223e-16
		vertex 2.051787e-01 5.274348e-01 1.110223e-16
	endloop
endfacet
facet normal 0.000000e+00 0.000000e+00 0.000000e+00
	outer loop
		vertex 2.051787e-01 5.274348e-01 1.110223e-16
		vertex 2.051787e-01 5.274348e-01 1.110223e-16
		vertex 4.862227e-02 7.472322e-01 -2.533136e-01
	endloop
endfacet
facet normal 0.000000e+00 0.000000e+00 0.000000e+00
	outer loop
		vertex 2.051787e-01 3.334218e-01 2.098468e-17
		vertex 0.000000e+00 1.000000e+00 3.319861e-01
		vertex 2.051787e-01 3.334218e-01 2.098468e-17
	endloop
endfacet
facet normal 0.000000e+00 0.000000e+00 0.000000e+00
	outer loop
		vertex 2.051787e-01 3.334218e-01 2.098468e-17
		vertex 2.051787e-01 3.334218e-01 2.098468e-17
		vertex 2.051787e-01 3.334218e-01 2.098468e-17
	endloop
endfacet
facet normal 0.000000e+00 0.000000e+00 0.000000e+00
	outer loop
		vertex 2.051787e-01 3.334218e-01 2.098468e-17
		vertex 2.051787e-01 3.334218e-01 2.098468e-17
		vertex 4.862227e-02 7.472322e-01 -2.533136e-01
	endloop
endfacet
facet normal 8.506508e-01 -6.676691e-16 5.257311e-01
	outer loop
		vertex 2.051787e-01 4.531880e-01 8.326673e-17
		vertex 0.000000e+00 1.000000e+00 3.319861e-01
		vertex 2.051787e-01 3.334218e-01 2.098468e-17
	endloop
endfacet
facet normal 0.000000e+00 0.000000e+00 0.000000e+00
	outer loop
		vertex 2.051787e-01 3.334218e-01 2.098468e-17
		vertex 2.051787e-01 4.531880e-01 8.326673e-17
		vertex 2.051787e-01 3.334218e-01 2.098468e-17
	endloop
endfacet
facet normal -8.506508e-01 1.208771e-16 5.257311e-01
	outer loop
		vertex 2.051787e-01 3.334218e-01 2.098468e-17
		vertex 2.051787e-01 4.531880e-01 8.326673e-17
		vertex 4.862227e-02 7.472322e-01 -2.533136e-01
	endloop
endfacet
facet normal 8.506508e-01 -6.676691e-16 5.257311e-01
	outer loop
		vertex 2.051787e-01 4.531880e-01 8.326673e-17
		vertex 0.000000e+00 1.000000e+00 3.319861e-01
		vertex 2.051787e-01 3.334218e-01 2.098468e-17
	endloop
endfacet
facet normal 0.000000e+00 0.000000e+00 0.000000e+00
	outer loop
		vertex 2.051787e-01 3.334218e-01 2.098468e-17
		vertex 2.051787e-01 4.531880e-01 8.326673e-17
		vertex 2.051787e-01 3.334218e-01 2.098468e-17
	endloop
endfacet
facet normal -8.506508e-01 1.208771e-16 5.257311e-01
	outer loop
		vertex 2.051787e-01 3.334218e-01 2.098468e-17
		vertex 2.051787e-01 4.531880e-01 8.326673e-17
		vertex 4.862227e-02 7.472322e-01 -2.533136e-01
	endloop
endfacet
facet normal 0.000000e+00 0.000000e+00 0.000000e+00
	outer loop
		vertex 2.051787e-01 4.531880e-01 5.551115e-17
		vertex 2.778004e-17 1.000000e+00 3.319861e-01
		vertex 0.000000e+00 1.000000e+00 3.319861e-01
	endloop
endfacet
facet normal 8.164966e-01 4.082483e-01 4.082483e-01
	outer loop
		vertex 0.000000e+00 1.000000e+00 3.319861e-01
		vertex 2.051787e-01 4.531880e-01 5.551115e-17
		vertex 2.051787e-01 4.531880e-01 5.551115e-17
	endloop
endfacet
facet normal 0.000000e+00 0.000000e+00 -1.000000e+00
	outer loop
		vertex 2.051787e-01 4.531880e-01 5.551115e-17
		vertex 2.778004e-17 1.000000e+00 3.319861e-01
		vertex 0.000000e+00 1.000000e+00 3.319861e-01
	endloop
endfacet
facet normal 8.164966e-01 4.082483e-01 4.082483e-01
	outer loop
		vertex 0.000000e+00 1.000000e+00 3.319861e-01
		vertex 2.051787e-01 4.531880e-01 5.551115e-17
		vertex 2.051787e-01 4.531880e-01 5.551115e-17
	endloop
endfacet
facet normal 9.245096e-01 2.311274e-01 -3.030878e-01
	outer loop
		vertex 2.051787e-01 4.531880e-01 5.551115e-17
		vertex 2.051787e-01 4.531880e-01 5.551115e-17
		vertex 4.862227e-02 7.472322e-01 -2.533136e-01
	endloop
endfacet
facet normal 0.000000e+00 0.000000e+00 0.000000e+00
	outer loop
		vertex 2.051787e-01 3.334218e-01 2.098468e-17
		vertex 2.778004e-17 1.000000e+00 3.319861e-01
		vertex 2.051787e-01 3.334218e-01 2.098468e-17
	endloop
endfacet
facet normal 0.000000e+00 0.000000e+00 0.000000e+00
	outer loop
		vertex 2.051787e-01 3.334218e-01 2.098468e-17
		vertex 2.051787e-01 3.334218e-01 2.098468e-17
		vertex 2.051787e-01 3.334218e-01 2.098468e-17
	endloop
endfacet
facet normal 0.000000e+00 0.000000e+00 0.000000e+00
	outer loop
		vertex 2.051787e-01 3.334218e-01 2.098468e-17
		vertex 2.051787e-01 3.334218e-01 2.098468e-17
		vertex 4.862227e-02 7.472322e-01 -2.533136e-01
	endloop
endfacet
facet normal 8.506508e-01 -6.372099e-16 5.257311e-01
	outer loop
		vertex 2.051787e-01 4.531880e-01 7.632783e-17
		vertex 2.778004e-17 1.000000e+00 3.319861e-01
		vertex 2.051787e-01 3.334218e-01 2.098468e-17
	endloop
endfacet
facet normal 0.000000e+00 0.000000e+00 0.000000e+00
	outer loop
		vertex 2.051787e-01 3.334218e-01 2.098468e-17
		vertex 2.051787e-01 4.531880e-01 7.632783e-17
		vertex 2.051787e-01 3.334218e-01 2.098468e-17
	endloop
endfacet
facet normal -8.506508e-01 1.513364e-16 5.257311e-01
	outer loop
		vertex 2.051787e-01 3.334218e-01 2.098468e-17
		vertex 2.051787e-01 4.531880e-01 7.632783e-17
		vertex 4.862227e-02 7.472322e-01 -2.533136e-01
	endloop
endfacet
facet normal 8.506508e-01 -6.372099e-16 5.257311e-01
	outer loop
		vertex 2.051787e-01 4.531880e-01 7.632783e-17
		vertex 2.778004e-17 1.000000e+00 3.319861e-01
		vertex 2.051787e-01 3.334218e-01 2.098468e-17
	endloop
endfacet
facet normal 0.000000e+00 0.000000e+00 0.000000e+00
	outer loop
		vertex 2.051787e-01 3.334218e-01 2.098468e-17
		vertex 2.051787e-01 4.531880e-01 7.632783e-17
		vertex 2.051787e-01 3.334218e-01 2.098468e-17
	endloop
endfacet
facet normal -8.506508e-01 1.513364e-16 5.257311e-01
	outer loop
		vertex 2.051787e-01 3.334218e-01 2.098468e-17
		vertex 2.051787e-01 4.531880e-01 7.632783e-17
		vertex 4.862227e-02 7.472322e-01 -2.533136e-01
	endloop
endfacet
facet normal 0.000000e+00 0.000000e+00 0.000000e+00
	outer loop
		vertex 2.051787e-01 4.531880e-01 5.551115e-17
		vertex 2.778004e-17 1.000000e+00 3.319861e-01
		vertex 0.000000e+00 1.000000e+00 3.319861e-01
	endloop
endfacet
facet normal 8.164966e-01 4.082483e-01 4.082483e-01
	outer loop
		vertex 0.000000e+00 1.000000e+00 3.319861e-01
		vertex 2.051787e-01 4.531880e-01 5.551115e-17
		vertex 2.051787e-01 4.531880e-01 5.551115e-17
	endloop
endfacet
facet normal 0.000000e+00 0.000000e+00 -1.000000e+00
	outer loop
		vertex 2.051787e-01 4.531880e-01 5.551115e-17
		vertex 2.778004e-17 1.000000e+00 3.319861e-01
		vertex 0.000000e+00 1.000000e+00 3.319861e-01
	endloop
endfacet
facet normal 8.164966e-01 4.082483e-01 4.082483e-01
	outer loop
		vertex 0.000000e+00 1.000000e+00 3.319861e-01
		vertex 2.051787e-01 4.531880e-01 5.551115e-17
		vertex 2.051787e-01 4.531880e-01 5.551115e-17
	endloop
endfacet
facet normal 9.245096e-01 2.311274e-01 -3.030878e-01
	outer loop
		vertex 2.051787e-01 4.531880e-01 5.551115e-17
		vertex 2.051787e-01 4.531880e-01 5.551115e-17
		vertex 4.862227e-02 7.472322e-01 -2.533136e-01
	endloop
endfacet
facet normal 0.000000e+00 0.000000e+00 0.000000e+00
	outer loop
		vertex 2.051787e-01 3.334218e-01 2.098468e-17
		vertex 2.051787e-01 3.334218e-01 2.098468e-17
		vertex 4.862227e-02 7.472322e-01 -2.533136e-01
	endloop
endfacet
facet normal 0.000000e+00 0.000000e+00 0.000000e+00
	outer loop
		vertex 2.051787e-01 3.334218e-01 2.098468e-17
		vertex 2.051787e-01 3.334218e-01 2.098468e-17
		vertex 4.862227e-02 7.472322e-01 -2.533136e-01
	endloop
endfacet
facet normal -8.944272e-01 0.000000e+00 4.472136e-01
	outer loop
		vertex -2.051787e-01 8.586386e-01 0.000000e+00
		vertex 2.778004e-17 1.000000e+00 3.319861e-01
		vertex 0.000000e+00 1.000000e+00 3.319861e-01
	endloop
endfacet
facet normal 0.000000e+00 0.000000e+00 -1.000000e+00
	outer loop
		vertex 0.000000e+00 1.000000e+00 3.319861e-01
		vertex -2.051787e-01 8.586386e-01 0.000000e+00
		vertex -2.051787e-01 8.586386e-01 0.000000e+00
	endloop
endfacet
facet normal -4.364358e-01 8.728716e-01 2.182179e-01
	outer loop
		vertex -2.051787e-01 8.586386e-01 0.000000e+00
		vertex 2.778004e-17 1.000000e+00 3.319861e-01
		vertex 0.000000e+00 1.000000e+00 3.319861e-01
	endloop
endfacet
facet normal 0.000000e+00 0.000000e+00 -1.000000e+00
	outer loop
		vertex 0.000000e+00 1.000000e+00 3.319861e-01
		vertex -2.051787e-01 8.586386e-01 0.000000e+00
		vertex -2.051787e-01 8.586386e-01 0.000000e+00
	endloop
endfacet
facet normal 0.000000e+00 0.000000e+00 0.000000e+00
	outer loop
		vertex -2.051787e-01 8.586386e-01 0.000000e+00
		vertex -2.051787e-01 8.586386e-01 0.000000e+00
		vertex -2.051787e-01 8.586386e-01 0.000000e+00
	endloop
endfacet
facet normal 0.000000e+00 0.000000e+00 0.000000e+00
	outer loop
		vertex -2.051787e-01 8.586386e-01 5.551115e-17
		vertex 2.778004e-17 1.000000e+00 3.319861e-01
		vertex 2.778004e-17 1.000000e+00 3.319861e-01
	endloop
endfacet
facet normal 7.043607e-01 3.521804e-01 -6.163156e-01
	outer loop
		vertex 2.778004e-17 1.000000e+00 3.319861e-01
		vertex -2.051787e-01 8.586386e-01 0.000000e+00
		vertex -2.051787e-01 8.586386e-01 5.551115e-17
	endloop
endfacet
facet normal 0.000000e+00 0.000000e+00 0.000000e+00
	outer loop
		vertex -2.051787e-01 8.586386e-01 0.000000e+00
		vertex 2.778004e-17 1.000000e+00 3.319861e-01
		vertex 2.778004e-17 1.000000e+00 3.319861e-01
	endloop
endfacet
facet normal 7.043607e-01 3.521804e-01 -6.163156e-01
	outer loop
		vertex 2.778004e-17 1.000000e+00 3.319861e-01
		vertex -2.051787e-01 8.586386e-01 0.000000e+00
		vertex -2.051787e-01 8.586386e-01 5.551115e-17
	endloop
endfacet
facet normal 0.000000e+00 0.000000e+00 0.000000e+00
	outer loop
		vertex -2.051787e-01 8.586386e-01 5.551115e-17
		vertex -2.051787e-01 8.586386e-01 0.000000e+00
		vertex -2.051787e-01 8.586386e-01 0.000000e+00
	endloop
endfacet
facet normal 0.000000e+00 0.000000e+00 -1.000000e+00
	outer loop
		vertex -2.051787e-01 8.586386e-01 5.551115e-17
		vertex 0.000000e+00 1.000000e+00 3.319861e-01
		vertex 2.778004e-17 1.000000e+00 3.319861e-01
	endloop
endfacet
facet normal 0.000000e+00 0.000000e+00 0.000000e+00
	outer loop
		vertex 2.778004e-17 1.000000e+00 3.319861e-01
		vertex -2.051787e-01 8.586386e-01 5.551115e-17
		vertex -2.051787e-01 8.586386e-01 5.551115e-17
	endloop
endfacet
facet normal 0.000000e+00 0.000000e+00 -1.000000e+00
	outer loop
		vertex -2.051787e-01 8.586386e-01 5.551115e-17
		vertex 0.000000e+00 1.000000e+00 3.319861e-01
		vertex 2.778004e-17 1.000000e+00 3.319861e-01
	endloop
endfacet
facet normal 0.000000e+00 0.000000e+00 0.000000e+00
	outer loop
		vertex 2.778004e-17 1.000000e+00 3.319861e-01
		vertex -2.051787e-01 8.586386e-01 5.551115e-17
		vertex -2.051787e-01 8.586386e-01 5.551115e-17
	endloop
endfacet
facet normal 0.000000e+00 0.000000e+00 0.000000e+00
	outer loop
		vertex -2.051787e-01 8.586386e-01 5.551115e-17
		vertex -2.051787e-01 8.586386e-01 5.551115e-17
		vertex -2.051787e-01 8.586386e-01 0.000000e+00
	endloop
endfacet
facet normal 0.000000e+00 0.000000e+00 -1.000000e+00
	outer loop
		vertex -2.051787e-01 8.586386e-01 5.551115e-17
		vertex 0.000000e+00 1.000000e+00 3.319861e-01
		vertex 2.778004e-17 1.000000e+00 3.319861e-01
	endloop
endfacet
facet normal 0.000000e+00 0.000000e+00 0.000000e+00
	outer loop
		vertex 2.778004e-17 1.000000e+00 3.319861e-01
		vertex -2.051787e-01 8.586386e-01 5.551115e-17
		vertex -2.051787e-01 8.586386e-01 5.551115e-17
	endloop
endfacet
facet normal 0.000000e+00 0.000000e+00 -1.000000e+00
	outer loop
		vertex -2.051787e-01 8.586386e-01 5.551115e-17
		vertex 0.000000e+00 1.000000e+00 3.319861e-01
		vertex 2.778004e-17 1.000000e+00 3.319861e-01
	endloop
endfacet
facet normal 0.000000e+00 0.000000e+00 0.000000e+00
	outer loop
		vertex 2.778004e-17 1.000000e+00 3.319861e-01
		vertex -2.051787e-01 8.586386e-01 5.551115e-17
		vertex -2.051787e-01 8.586386e-01 5.551115e-17
	endloop
endfacet
facet normal 0.000000e+00 0.000000e+00 0.000000e+00
	outer loop
		vertex -2.051787e-01 8.586386e-01 5.551115e-17
		vertex -2.051787e-01 8.586386e-01 5.551115e-17
		vertex -2.051787e-01 8.586386e-01 0.000000e+00
	endloop
endfacet
facet normal -4.444444e-01 8.888889e-01 -1.111111e-01
	outer loop
		vertex -2.051787e-01 8.586386e-01 5.551115e-17
		vertex 0.000000e+00 1.000000e+00 3.319861e-01
		vertex 2.778004e-17 1.000000e+00 3.319861e-01
	endloop
endfacet
facet normal 8.111071e-01 -3.244428e-01 -4.866643e-01
	outer loop
		vertex 2.778004e-17 1.000000e+00 3.319861e-01
		vertex -2.051787e-01 8.586386e-01 5.551115e-17
		vertex -2.051787e-01 8.586386e-01 5.551115e-17
	endloop
endfacet
facet normal -3.152442e-01 9.457325e-01 -7.881104e-02
	outer loop
		vertex -2.051787e-01 8.586386e-01 5.551115e-17
		vertex 0.000000e+00 1.000000e+00 3.319861e-01
		vertex 2.778004e-17 1.000000e+00 3.319861e-01
	endloop
endfacet
facet normal 8.111071e-01 -3.244428e-01 -4.866643e-01
	outer loop
		vertex 2.778004e-17 1.000000e+00 3.319861e-01
		vertex -2.051787e-01 8.586386e-01 5.551115e-17
		vertex -2.051787e-01 8.586386e-01 5.551115e-17
	endloop
endfacet
facet normal 8.728716e-01 -2.182179e-01 4.364358e-01
	outer loop
		vertex -2.051787e-01 8.586386e-01 5.551115e-17
		vertex -2.051787e-01 8.586386e-01 5.551115e-17
		vertex -2.051787e-01 8.586386e-01 0.000000e+00
	endloop
endfacet
facet normal -4.444444e-01 8.888889e-01 -1.111111e-01
	outer loop
		vertex -2.051787e-01 8.586386e-01 5.551115e-17
		vertex 0.000000e+00 1.000000e+00 3.319861e-01
		vertex 2.778004e-17 1.000000e+00 3.319861e-01
	endloop
endfacet
facet normal 8.111071e-01 -3.244428e-01 -4.866643e-01
	outer loop
		vertex 2.778004e-17 1.000000e+00 3.319861e-01
		vertex -2.051787e-01 8.586386e-01 5.551115e-17
		vertex -2.051787e-01 8.586386e-01 5.551115e-17
	endloop
endfacet
facet normal -3.152442e-01 9.457325e-01 -7.881104e-02
	outer loop
		vertex -2.051787e-01 8.586386e-01 5.551115e-17
		vertex 0.000000e+00 1.000000e+00 3.319861e-01
		vertex 2.778004e-17 1.000000e+00 3.319861e-01
	endloop
endfacet
facet normal 8.111071e-01 -3.244428e-01 -4.866643e-01
	outer loop
		vertex 2.778004e-17 1.000000e+00 3.319861e-01
		vertex -2.051787e-01 8.586386e-01 5.551115e-17
		vertex -2.051787e-01 8.586386e-01 5.551115e-17
	endloop
endfacet
facet normal 8.728716e-01 -2.182179e-01 4.364358e-01
	outer loop
		vertex -2.051787e-01 8.586386e-01 5.551115e-17
		vertex -2.051787e-01 8.586386e-01 5.551115e-17
		vertex -2.051787e-01 8.586386e-01 0.000000e+00
	endloop
endfacet
facet normal -4.364358e-01 8.728716e-01 -2.182179e-01
	outer loop
		vertex -2.051787e-01 8.586386e-01 5.551115e-17
		vertex 0.000000e+00 1.000000e+00 3.319861e-01
		vertex 2.778004e-17 1.000000e+00 3.319861e-01
	endloop
endfacet
facet normal 8.111071e-01 -3.244428e-01 -4.866643e-01
	outer loop
		vertex 2.778004e-17 1.000000e+00 3.319861e-01
		vertex -2.051787e-01 8.586386e-01 5.551115e-17
		vertex -2.051787e-01 8.586386e-01 5.551115e-17
	endloop
endfacet
facet normal -2.407717e-01 9.630868e-01 -1.203859e-01
	outer loop
		vertex -2.051787e-01 8.586386e-01 5.551115e-17
		vertex 0.000000e+00 1.000000e+00 3.319861e-01
		vertex 2.778004e-17 1.000000e+00 3.319861e-01
	endloop
endfacet
facet normal 8.111071e-01 -3.244428e-01 -4.866643e-01
	outer loop
		vertex 2.778004e-17 1.000000e+00 3.319861e-01
		vertex -2.051787e-01 8.586386e-01 5.551115e-17
		vertex -2.051787e-01 8.586386e-01 5.551115e-17
	endloop
endfacet
facet normal 8.728716e-01 -2.182179e-01 4.364358e-01
	outer loop
		vertex -2.051787e-01 8.586386e-01 5.551115e-17
		vertex -2.051787e-01 8.586386e-01 5.551115e-17
		vertex -2.051787e-01 8.586386e-01 0.000000e+00
	endloop
endfacet
facet normal 0.000000e+00 -9.701425e-01 2.425356e-01
	outer loop
		vertex -2.051787e-01 8.586386e-01 5.551115e-17
		vertex 5.551115e-17 1.000000e+00 3.319861e-01
		vertex 2.778004e-17 1.000000e+00 3.319861e-01
	endloop
endfacet
facet normal 7.043607e-01 3.521804e-01 -6.163156e-01
	outer loop
		vertex 2.778004e-17 1.000000e+00 3.319861e-01
		vertex -2.051787e-01 8.586386e-01 0.000000e+00
		vertex -2.051787e-01 8.586386e-01 5.551115e-17
	endloop
endfacet
facet normal 0.000000e+00 -9.701425e-01 2.425356e-01
	outer loop
		vertex -2.051787e-01 8.586386e-01 0.000000e+00
		vertex 5.551115e-17 1.000000e+00 3.319861e-01
		vertex 2.778004e-17 1.000000e+00 3.319861e-01
	endloop
endfacet
facet normal 7.043607e-01 3.521804e-01 -6.163156e-01
	outer loop
		vertex 2.778004e-17 1.000000e+00 3.319861e-01
		vertex -2.051787e-01 8.586386e-01 0.000000e+00
		vertex -2.051787e-01 8.586386e-01 5.551115e-17
	endloop
endfacet
facet normal 0.000000e+00 0.000000e+00 0.000000e+00
	outer loop
		vertex -2.051787e-01 8.586386e-01 5.551115e-17
		vertex -2.051787e-01 8.586386e-01 0.000000e+00
		vertex -2.051787e-01 8.586386e-01 0.000000e+00
	endloop
endfacet
facet normal -8.506508e-01 0.000000e+00 5.257311e-01
	outer loop
		vertex -2.051787e-01 8.731926e-01 5.551115e-17
		vertex -2.051787e-01 8.594014e-01 5.551115e-17
		vertex -2.317104e-02 9.856795e-01 2.944946e-01
	endloop
endfacet
facet normal 8.944272e-01 0.000000e+00 4.472136e-01
	outer loop
		vertex -2.051787e-01 8.731926e-01 5.551115e-17
		vertex -2.051787e-01 8.594014e-01 5.551115e-17
		vertex -2.051787e-01 8.586386e-01 0.000000e+00
	endloop
endfacet
facet normal 8.506508e-01 2.283166e-14 -5.257311e-01
	outer loop
		vertex -2.051787e-01 8.594014e-01 5.551115e-17
		vertex -2.317104e-02 9.856795e-01 2.944946e-01
		vertex 0.000000e+00 1.000000e+00 3.319861e-01
	endloop
endfacet
facet normal -8.506508e-01 4.661751e-14 5.257311e-01
	outer loop
		vertex 0.000000e+00 1.000000e+00 3.319861e-01
		vertex -2.051787e-01 8.594014e-01 5.551115e-17
		vertex -2.051787e-01 8.586386e-01 0.000000e+00
	endloop
endfacet
facet normal 0.000000e+00 7.277423e-14 -1.000000e+00
	outer loop
		vertex -2.051787e-01 8.586386e-01 0.000000e+00
		vertex -2.051787e-01 8.594014e-01 5.551115e-17
		vertex -2.051787e-01 8.586386e-01 0.000000e+00
	endloop
endfacet
facet normal -4.364358e-01 8.728716e-01 -2.182179e-01
	outer loop
		vertex -2.051787e-01 8.586386e-01 5.551115e-17
		vertex 0.000000e+00 1.000000e+00 3.319861e-01
		vertex 2.778004e-17 1.000000e+00 3.319861e-01
	endloop
endfacet
facet normal 8.111071e-01 -3.244428e-01 -4.866643e-01
	outer loop
		vertex 2.778004e-17 1.000000e+00 3.319861e-01
		vertex -2.051787e-01 8.586386e-01 5.551115e-17
		vertex -2.051787e-01 8.586386e-01 5.551115e-17
	endloop
endfacet
facet normal -2.407717e-01 9.630868e-01 -1.203859e-01
	outer loop
		vertex -2.051787e-01 8.586386e-01 5.551115e-17
		vertex 0.000000e+00 1.000000e+00 3.319861e-01
		vertex 2.778004e-17 1.000000e+00 3.319861e-01
	endloop
endfacet
facet normal 8.111071e-01 -3.244428e-01 -4.866643e-01
	outer loop
		vertex 2.778004e-17 1.000000e+00 3.319861e-01
		vertex -2.051787e-01 8.586386e-01 5.551115e-17
		vertex -2.051787e-01 8.586386e-01 5.551115e-17
	endloop
endfacet
facet normal 8.728716e-01 -2.182179e-01 4.364358e-01
	outer loop
		vertex -2.051787e-01 8.586386e-01 5.551115e-17
		vertex -2.051787e-01 8.586386e-01 5.551115e-17
		vertex -2.051787e-01 8.586386e-01 0.000000e+00
	endloop
endfacet
facet normal -4.364358e-01 8.728716e-01 -2.182179e-01
	outer loop
		vertex -2.051787e-01 8.586386e-01 5.551115e-17
		vertex 0.000000e+00 1.000000e+00 3.319861e-01
		vertex 2.778004e-17 1.000000e+00 3.319861e-01
	endloop
endfacet
facet normal 8.111071e-01 -3.244428e-01 -4.866643e-01
	outer loop
		vertex 2.778004e-17 1.000000e+00 3.319861e-01
		vertex -2.051787e-01 8.586386e-01 5.551115e-17
		vertex -2.051787e-01 8.586386e-01 5.551115e-17
	endloop
endfacet
facet normal -2.407717e-01 9.630868e-01 -1.203859e-01
	outer loop
		vertex -2.051787e-01 8.586386e-01 5.551115e-17
		vertex 0.000000e+00 1.000000e+00 3.319861e-01
		vertex 2.778004e-17 1.000000e+00 3.319861e-01
	endloop
endfacet
facet normal 8.111071e-01 -3.244428e-01 -4.866643e-01
	outer loop
		vertex 2.778004e-17 1.000000e+00 3.319861e-01
		vertex -2.051787e-01 8.586386e-01 5.551115e-17
		vertex -2.051787e-01 8.586386e-01 5.551115e-17
	endloop
endfacet
facet normal 8.728716e-01 -2.182179e-01 4.364358e-01
	outer loop
		vertex -2.051787e-01 8.586386e-01 5.551115e-17
		vertex -2.051787e-01 8.586386e-01 5.551115e-17
		vertex -2.051787e-01 8.586386e-01 0.000000e+00
	endloop
endfacet
facet normal 4.364358e-01 -8.728716e-01 2.182179e-01
	outer loop
		vertex -2.051787e-01 8.586386e-01 5.551115e-17
		vertex 5.551115e-17 1.000000e+00 3.319861e-01
		vertex 2.778004e-17 1.000000e+00 3.319861e-01
	endloop
endfacet
facet normal -4.364358e-01 8.728716e-01 -2.182179e-01
	outer loop
		vertex 2.778004e-17 1.000000e+00 3.319861e-01
		vertex -2.051787e-01 8.586386e-01 0.000000e+00
		vertex -2.051787e-01 8.586386e-01 5.551115e-17
	endloop
endfacet
facet normal 4.364358e-01 -8.728716e-01 2.182179e-01
	outer loop
		vertex -2.051787e-01 8.586386e-01 0.000000e+00
		vertex 5.551115e-17 1.000000e+00 3.319861e-01
		vertex 2.778004e-17 1.000000e+00 3.319861e-01
	endloop
endfacet
facet normal -4.364358e-01 8.728716e-01 -2.182179e-01
	outer loop
		vertex 2.778004e-17 1.000000e+00 3.319861e-01
		vertex -2.051787e-01 8.586386e-01 0.000000e+00
		vertex -2.051787e-01 8.586386e-01 5.551115e-17
	endloop
endfacet
facet normal -8.728716e-01 2.182179e-01 -4.364358e-01
	outer loop
		vertex -2.051787e-01 8.586386e-01 5.551115e-17
		vertex -2.051787e-01 8.586386e-01 0.000000e+00
		vertex -2.051787e-01 8.586386e-01 0.000000e+00
	endloop
endfacet
facet normal -7.043607e-01 -3.521804e-01 6.163156e-01
	outer loop
		vertex -2.051787e-01 8.586386e-01 5.551115e-17
		vertex 5.551115e-17 1.000000e+00 3.319861e-01
		vertex 2.778004e-17 1.000000e+00 3.319861e-01
	endloop
endfacet
facet normal 6.666667e-01 3.333333e-01 -6.666667e-01
	outer loop
		vertex 2.778004e-17 1.000000e+00 3.319861e-01
		vertex -2.051787e-01 8.586386e-01 0.000000e+00
		vertex -2.051787e-01 8.586386e-01 5.551115e-17
	endloop
endfacet
facet normal -6.666667e-01 -3.333333e-01 6.666667e-01
	outer loop
		vertex -2.051787e-01 8.586386e-01 0.000000e+00
		vertex 5.551115e-17 1.000000e+00 3.319861e-01
		vertex 2.778004e-17 1.000000e+00 3.319861e-01
	endloop
endfacet
facet normal 6.666667e-01 3.333333e-01 -6.666667e-01
	outer loop
		vertex 2.778004e-17 1.000000e+00 3.319861e-01
		vertex -2.051787e-01 8.586386e-01 0.000000e+00
		vertex -2.051787e-01 8.586386e-01 5.551115e-17
	endloop
endfacet
facet normal 0.000000e+00 4.472136e-01 -8.944272e-01
	outer loop
		vertex -2.051787e-01 8.586386e-01 5.551115e-17
		vertex -2.051787e-01 8.586386e-01 0.000000e+00
		vertex -2.051787e-01 8.586386e-01 0.000000e+00
	endloop
endfacet
facet normal 4.364358e-01 -8.728716e-01 2.182179e-01
	outer loop
		vertex -2.051787e-01 8.586386e-01 5.551115e-17
		vertex 5.551115e-17 1.000000e+00 3.319861e-01
		vertex 2.778004e-17 1.000000e+00 3.319861e-01
	endloop
endfacet
facet normal -4.364358e-01 8.728716e-01 -2.182179e-01
	outer loop
		vertex 2.778004e-17 1.000000e+00 3.319861e-01
		vertex -2.051787e-01 8.586386e-01 0.000000e+00
		vertex -2.051787e-01 8.586386e-01 5.551115e-17
	endloop
endfacet
facet normal 4.364358e-01 -8.728716e-01 2.182179e-01
	outer loop
		vertex -2.051787e-01 8.586386e-01 0.000000e+00
		vertex 5.551115e-17 1.000000e+00 3.319861e-01
		vertex 2.778004e-17 1.000000e+00 3.319861e-01
	endloop
endfacet
facet normal -4.364358e-01 8.728716e-01 -2.182179e-01
	outer loop
		vertex 2.778004e-17 1.000000e+00 3.319861e-01
		vertex -2.051787e-01 8.586386e-01 0.000000e+00
		vertex -2.051787e-01 8.586386e-01 5.551115e-17
	endloop
endfacet
facet normal 0.000000e+00 1.000000e+00 0.000000e+00
	outer loop
		vertex -2.051787e-01 8.586386e-01 5.551115e-17
		vertex -2.051787e-01 8.586386e-01 0.000000e+00
		vertex -2.051787e-01 8.586386e-01 0.000000e+00
	endloop
endfacet
facet normal 6.666667e-01 3.333333e-01 -6.666667e-01
	outer loop
		vertex -2.051787e-01 8.586386e-01 5.551115e-17
		vertex 0.000000e+00 1.000000e+00 3.319861e-01
		vertex 2.778004e-17 1.000000e+00 3.319861e-01
	endloop
endfacet
facet normal 0.000000e+00 -9.701425e-01 2.425356e-01
	outer loop
		vertex 2.778004e-17 1.000000e+00 3.319861e-01
		vertex -2.051787e-01 8.586386e-01 5.551115e-17
		vertex -2.051787e-01 8.586386e-01 5.551115e-17
	endloop
endfacet
facet normal 5.773503e-01 5.773503e-01 -5.773503e-01
	outer loop
		vertex -2.051787e-01 8.586386e-01 5.551115e-17
		vertex 0.000000e+00 1.000000e+00 3.319861e-01
		vertex 2.778004e-17 1.000000e+00 3.319861e-01
	endloop
endfacet
facet normal 0.000000e+00 -9.701425e-01 2.425356e-01
	outer loop
		vertex 2.778004e-17 1.000000e+00 3.319861e-01
		vertex -2.051787e-01 8.586386e-01 5.551115e-17
		vertex -2.051787e-01 8.586386e-01 5.551115e-17
	endloop
endfacet
facet normal -0.000000e+00 -1.000000e+00 -0.000000e+00
	outer loop
		vertex -2.051787e-01 8.586386e-01 5.551115e-17
		vertex -2.051787e-01 8.586386e-01 5.551115e-17
		vertex -2.051787e-01 8.586386e-01 0.000000e+00
	endloop
endfacet
facet normal 0.000000e+00 0.000000e+00 0.000000e+00
	outer loop
		vertex -2.051787e-01 8.586386e-01 5.551115e-17
		vertex 2.775558e-17 1.000000e+00 3.319861e-01
		vertex 2.778004e-17 1.000000e+00 3.319861e-01
	endloop
endfacet
facet normal -4.472136e-01 8.944272e-01 0.000000e+00
	outer loop
		vertex 2.778004e-17 1.000000e+00 3.319861e-01
		vertex -2.051787e-01 8.586386e-01 0.000000e+00
		vertex -2.051787e-01 8.586386e-01 5.551115e-17
	endloop
endfacet
facet normal 0.000000e+00 0.000000e+00 0.000000e+00
	outer loop
		vertex -2.051787e-01 8.586386e-01 0.000000e+00
		vertex 2.775558e-17 1.000000e+00 3.319861e-01
		vertex 2.778004e-17 1.000000e+00 3.319861e-01
	endloop
endfacet
facet normal -4.472136e-01 8.944272e-01 0.000000e+00
	outer loop
		vertex 2.778004e-17 1.000000e+00 3.319861e-01
		vertex -2.051787e-01 8.586386e-01 0.000000e+00
		vertex -2.051787e-01 8.586386e-01 5.551115e-17
	endloop
endfacet
facet normal 0.000000e+00 0.000000e+00 0.000000e+00
	outer loop
		vertex -2.051787e-01 8.586386e-01 5.551115e-17
		vertex -2.051787e-01 8.586386e-01 0.000000e+00
		vertex -2.051787e-01 8.586386e-01 0.000000e+00
	endloop
endfacet
facet normal -8.506508e-01 1.270346e-16 5.257311e-01
	outer loop
		vertex -2.051787e-01 6.934187e-01 5.551115e-17
		vertex -8.527774e-02 6.503443e-01 1.940038e-01
		vertex -5.508909e-03 8.611895e-01 3.230725e-01
	endloop
endfacet
facet normal 8.506508e-01 3.458370e-16 -5.257311e-01
	outer loop
		vertex -5.508909e-03 8.611895e-01 3.230725e-01
		vertex -2.051787e-01 6.934187e-01 5.551115e-17
		vertex -2.051787e-01 7.990761e-01 5.551115e-17
	endloop
endfacet
facet normal 9.624962e-01 2.528420e-16 2.712951e-01
	outer loop
		vertex -2.051787e-01 7.990761e-01 5.551115e-17
		vertex -2.051787e-01 6.934187e-01 5.551115e-17
		vertex -2.051787e-01 8.586386e-01 0.000000e+00
	endloop
endfacet
facet normal -8.506508e-01 2.844165e-15 5.257311e-01
	outer loop
		vertex -2.051787e-01 7.990761e-01 5.551115e-17
		vertex -5.508909e-03 8.611895e-01 3.230725e-01
		vertex -7.752046e-18 8.757507e-01 3.319861e-01
	endloop
endfacet
facet normal 8.506508e-01 0.000000e+00 -5.257311e-01
	outer loop
		vertex -7.752046e-18 8.757507e-01 3.319861e-01
		vertex -2.051787e-01 7.990761e-01 5.551115e-17
		vertex -2.051787e-01 8.046578e-01 0.000000e+00
	endloop
endfacet
facet normal -8.755865e-01 4.502042e-16 4.830613e-01
	outer loop
		vertex -2.051787e-01 8.046578e-01 0.000000e+00
		vertex -2.051787e-01 7.990761e-01 5.551115e-17
		vertex -2.051787e-01 8.586386e-01 0.000000e+00
	endloop
endfacet
facet normal -8.506508e-01 0.000000e+00 5.257311e-01
	outer loop
		vertex -2.051787e-01 8.046578e-01 5.551115e-17
		vertex -7.752046e-18 8.757507e-01 3.319861e-01
		vertex 2.591243e-17 1.000000e+00 3.319861e-01
	endloop
endfacet
facet normal 8.506508e-01 -6.587367e-16 -5.257311e-01
	outer loop
		vertex 2.591243e-17 1.000000e+00 3.319861e-01
		vertex -2.051787e-01 8.046578e-01 5.551115e-17
		vertex -2.051787e-01 8.586386e-01 0.000000e+00
	endloop
endfacet
facet normal -8.944272e-01 0.000000e+00 4.472136e-01
	outer loop
		vertex -2.051787e-01 8.586386e-01 0.000000e+00
		vertex -2.051787e-01 8.046578e-01 5.551115e-17
		vertex -2.051787e-01 8.586386e-01 0.000000e+00
	endloop
endfacet
facet normal -9.353016e-01 3.538517e-01 0.000000e+00
	outer loop
		vertex -2.051787e-01 3.334218e-01 0.000000e+00
		vertex -2.051787e-01 3.334218e-01 8.786896e-20
		vertex -2.038799e-01 3.368548e-01 2.101528e-03
	endloop
endfacet
facet normal 8.506508e-01 4.329829e-15 -5.257311e-01
	outer loop
		vertex -2.038799e-01 3.368548e-01 2.101528e-03
		vertex -2.051787e-01 3.334218e-01 0.000000e+00
		vertex -2.051787e-01 3.402318e-01 1.127570e-17
	endloop
endfacet
facet normal 3.806090e-01 2.011364e-17 9.247361e-01
	outer loop
		vertex -2.051787e-01 3.402318e-01 1.127570e-17
		vertex -2.051787e-01 3.334218e-01 0.000000e+00
		vertex -2.051787e-01 8.586386e-01 0.000000e+00
	endloop
endfacet
facet normal -8.506508e-01 3.881504e-16 5.257311e-01
	outer loop
		vertex -2.051787e-01 3.402318e-01 5.551115e-17
		vertex -2.038799e-01 3.368548e-01 2.101528e-03
		vertex -8.527774e-02 6.503443e-01 1.940038e-01
	endloop
endfacet
facet normal 8.506508e-01 0.000000e+00 -5.257311e-01
	outer loop
		vertex -8.527774e-02 6.503443e-01 1.940038e-01
		vertex -2.051787e-01 3.402318e-01 5.551115e-17
		vertex -2.051787e-01 6.934187e-01 5.551115e-17
	endloop
endfacet
facet normal 8.944272e-01 0.000000e+00 4.472136e-01
	outer loop
		vertex -2.051787e-01 6.934187e-01 5.551115e-17
		vertex -2.051787e-01 3.402318e-01 5.551115e-17
		vertex -2.051787e-01 8.586386e-01 0.000000e+00
	endloop
endfacet
facet normal 8.506477e-01 0.000000e+00 -5.257362e-01
	outer loop
		vertex -2.051787e-01 8.586386e-01 5.551115e-17
		vertex 2.775558e-17 1.000000e+00 3.319861e-01
		vertex 2.778004e-17 1.000000e+00 3.319861e-01
	endloop
endfacet
facet normal -8.525245e-01 7.413257e-03 5.226346e-01
	outer loop
		vertex 2.778004e-17 1.000000e+00 3.319861e-01
		vertex -2.051787e-01 8.586386e-01 0.000000e+00
		vertex -2.051787e-01 8.586386e-01 5.551115e-17
	endloop
endfacet
facet normal 8.506477e-01 0.000000e+00 -5.257362e-01
	outer loop
		vertex -2.051787e-01 8.586386e-01 0.000000e+00
		vertex 2.775558e-17 1.000000e+00 3.319861e-01
		vertex 2.778004e-17 1.000000e+00 3.319861e-01
	endloop
endfacet
facet normal -8.525245e-01 7.413257e-03 5.226346e-01
	outer loop
		vertex 2.778004e-17 1.000000e+00 3.319861e-01
		vertex -2.051787e-01 8.586386e-01 0.000000e+00
		vertex -2.051787e-01 8.586386e-01 5.551115e-17
	endloop
endfacet
facet normal 0.000000e+00 0.000000e+00 0.000000e+00
	outer loop
		vertex -2.051787e-01 8.586386e-01 5.551115e-17
		vertex -2.051787e-01 8.586386e-01 0.000000e+00
		vertex -2.051787e-01 8.586386e-01 0.000000e+00
	endloop
endfacet
facet normal 6.666667e-01 3.333333e-01 -6.666667e-01
	outer loop
		vertex -2.051787e-01 8.586386e-01 5.551115e-17
		vertex 0.000000e+00 1.000000e+00 3.319861e-01
		vertex 2.778004e-17 1.000000e+00 3.319861e-01
	endloop
endfacet
facet normal 0.000000e+00 -9.701425e-01 2.425356e-01
	outer loop
		vertex 2.778004e-17 1.000000e+00 3.319861e-01
		vertex -2.051787e-01 8.586386e-01 5.551115e-17
		vertex -2.051787e-01 8.586386e-01 5.551115e-17
	endloop
endfacet
facet normal 5.773503e-01 5.773503e-01 -5.773503e-01
	outer loop
		vertex -2.051787e-01 8.586386e-01 5.551115e-17
		vertex 0.000000e+00 1.000000e+00 3.319861e-01
		vertex 2.778004e-17 1.000000e+00 3.319861e-01
	endloop
endfacet
facet normal 0.000000e+00 -9.701425e-01 2.425356e-01
	outer loop
		vertex 2.778004e-17 1.000000e+00 3.319861e-01
		vertex -2.051787e-01 8.586386e-01 5.551115e-17
		vertex -2.051787e-01 8.586386e-01 5.551115e-17
	endloop
endfacet
facet normal -0.000000e+00 -1.000000e+00 -0.000000e+00
	outer loop
		vertex -2.051787e-01 8.586386e-01 5.551115e-17
		vertex -2.051787e-01 8.586386e-01 5.551115e-17
		vertex -2.051787e-01 8.586386e-01 0.000000e+00
	endloop
endfacet
facet normal 7.043607e-01 3.521804e-01 -6.163156e-01
	outer loop
		vertex -2.051787e-01 8.586386e-01 5.551115e-17
		vertex 1.387779e-17 1.000000e+00 3.319861e-01
		vertex 2.778004e-17 1.000000e+00 3.319861e-01
	endloop
endfacet
facet normal 0.000000e+00 -9.701425e-01 2.425356e-01
	outer loop
		vertex 2.778004e-17 1.000000e+00 3.319861e-01
		vertex -2.051787e-01 8.586386e-01 5.551115e-17
		vertex -2.051787e-01 8.586386e-01 5.551115e-17
	endloop
endfacet
facet normal 5.773503e-01 5.773503e-01 -5.773503e-01
	outer loop
		vertex -2.051787e-01 8.586386e-01 5.551115e-17
		vertex 1.387779e-17 1.000000e+00 3.319861e-01
		vertex 2.778004e-17 1.000000e+00 3.319861e-01
	endloop
endfacet
facet normal 0.000000e+00 -9.701425e-01 2.425356e-01
	outer loop
		vertex 2.778004e-17 1.000000e+00 3.319861e-01
		vertex -2.051787e-01 8.586386e-01 5.551115e-17
		vertex -2.051787e-01 8.586386e-01 5.551115e-17
	endloop
endfacet
facet normal -0.000000e+00 -1.000000e+00 -0.000000e+00
	outer loop
		vertex -2.051787e-01 8.586386e-01 5.551115e-17
		vertex -2.051787e-01 8.586386e-01 5.551115e-17
		vertex -2.051787e-01 8.586386e-01 0.000000e+00
	endloop
endfacet
facet normal 0.000000e+00 5.220944e-01 8.528877e-01
	outer loop
		vertex 1.040834e-17 8.757507e-01 -3.319861e-01
		vertex 6.938894e-18 8.757507e-01 -3.319861e-01
		vertex 4.862227e-02 7.472322e-01 -2.533136e-01
	endloop
endfacet
facet normal 0.000000e+00 9.986742e-01 5.147607e-02
	outer loop
		vertex 1.040834e-17 8.757507e-01 -3.319861e-01
		vertex 6.938894e-18 8.757507e-01 -3.319861e-01
		vertex -2.051787e-01 8.586386e-01 0.000000e+00
	endloop
endfacet
facet normal 8.506508e-01 -6.644066e-16 -5.257311e-01
	outer loop
		vertex -6.938894e-18 8.758610e-01 -3.319861e-01
		vertex 1.387779e-17 9.025129e-01 -3.319861e-01
		vertex 4.862227e-02 7.472322e-01 -2.533136e-01
	endloop
endfacet
facet normal 8.506508e-01 -6.644066e-16 5.257311e-01
	outer loop
		vertex -6.938894e-18 8.758610e-01 -3.319861e-01
		vertex 1.387779e-17 9.025129e-01 -3.319861e-01
		vertex -2.051787e-01 8.586386e-01 0.000000e+00
	endloop
endfacet
facet normal 8.506508e-01 -5.350264e-14 -5.257311e-01
	outer loop
		vertex 1.387779e-17 8.757507e-01 -3.319861e-01
		vertex 2.081668e-17 8.758610e-01 -3.319861e-01
		vertex 4.862227e-02 7.472322e-01 -2.533136e-01
	endloop
endfacet
facet normal 8.506508e-01 -5.350264e-14 5.257311e-01
	outer loop
		vertex 1.387779e-17 8.757507e-01 -3.319861e-01
		vertex 2.081668e-17 8.758610e-01 -3.319861e-01
		vertex -2.051787e-01 8.586386e-01 0.000000e+00
	endloop
endfacet
facet normal 9.477688e-01 2.135244e-01 -2.369422e-01
	outer loop
		vertex -1.387779e-17 8.757507e-01 -3.319861e-01
		vertex 0.000000e+00 8.757507e-01 -3.319861e-01
		vertex 4.862227e-02 7.472322e-01 -2.533136e-01
	endloop
endfacet
facet normal 5.926971e-02 -9.981320e-01 -1.481743e-02
	outer loop
		vertex -1.387779e-17 8.757507e-01 -3.319861e-01
		vertex 0.000000e+00 8.757507e-01 -3.319861e-01
		vertex -2.051787e-01 8.586386e-01 0.000000e+00
	endloop
endfacet
facet normal 9.044271e-01 4.113765e-01 1.130534e-01
	outer loop
		vertex 0.000000e+00 8.757507e-01 -3.319861e-01
		vertex -6.938894e-18 8.757507e-01 -3.319861e-01
		vertex 4.862227e-02 7.472322e-01 -2.533136e-01
	endloop
endfacet
facet normal 1.039699e-01 -9.944955e-01 1.299623e-02
	outer loop
		vertex 0.000000e+00 8.757507e-01 -3.319861e-01
		vertex -6.938894e-18 8.757507e-01 -3.319861e-01
		vertex -2.051787e-01 8.586386e-01 0.000000e+00
	endloop
endfacet
facet normal 0.000000e+00 -5.220944e-01 -8.528877e-01
	outer loop
		vertex 0.000000e+00 8.757507e-01 -3.319861e-01
		vertex 6.938894e-18 8.757507e-01 -3.319861e-01
		vertex 4.862227e-02 7.472322e-01 -2.533136e-01
	endloop
endfacet
facet normal 0.000000e+00 -9.986742e-01 -5.147607e-02
	outer loop
		vertex 0.000000e+00 8.757507e-01 -3.319861e-01
		vertex 6.938894e-18 8.757507e-01 -3.319861e-01
		vertex -2.051787e-01 8.586386e-01 0.000000e+00
	endloop
endfacet
facet normal -7.628459e-01 -5.220944e-01 -3.814230e-01
	outer loop
		vertex -1.387779e-17 8.757507e-01 -3.319861e-01
		vertex 4.163336e-17 8.757507e-01 -3.319861e-01
		vertex 4.862227e-02 7.472322e-01 -2.533136e-01
	endloop
endfacet
facet normal -3.924175e-01 8.986159e-01 -1.962088e-01
	outer loop
		vertex -1.387779e-17 8.757507e-01 -3.319861e-01
		vertex 4.163336e-17 8.757507e-01 -3.319861e-01
		vertex -2.051787e-01 8.586386e-01 0.000000e+00
	endloop
endfacet
facet normal 8.506508e-01 2.073154e-15 -5.257311e-01
	outer loop
		vertex -1.040834e-17 9.025129e-01 -3.319861e-01
		vertex -1.387779e-17 9.180136e-01 -3.319861e-01
		vertex 4.862227e-02 7.472322e-01 -2.533136e-01
	endloop
endfacet
facet normal 8.506508e-01 -1.692359e-15 5.257311e-01
	outer loop
		vertex -1.040834e-17 9.025129e-01 -3.319861e-01
		vertex -1.387779e-17 9.180136e-01 -3.319861e-01
		vertex -2.051787e-01 8.586386e-01 0.000000e+00
	endloop
endfacet
facet normal -8.506508e-01 2.496202e-15 5.257311e-01
	outer loop
		vertex -1.040834e-17 9.308872e-01 -3.319861e-01
		vertex -1.387779e-17 9.180136e-01 -3.319861e-01
		vertex 4.862227e-02 7.472322e-01 -2.533136e-01
	endloop
endfacet
facet normal -8.506508e-01 -2.037702e-15 -5.257311e-01
	outer loop
		vertex -1.040834e-17 9.308872e-01 -3.319861e-01
		vertex -1.387779e-17 9.180136e-01 -3.319861e-01
		vertex -2.051787e-01 8.586386e-01 0.000000e+00
	endloop
endfacet
facet normal 8.506508e-01 2.493524e-14 -5.257311e-01
	outer loop
		vertex -6.938894e-18 9.308872e-01 -3.319861e-01
		vertex 0.000000e+00 9.318209e-01 -3.319861e-01
		vertex 4.862227e-02 7.472322e-01 -2.533136e-01
	endloop
endfacet
facet normal 8.506508e-01 -3.757902e-14 5.257311e-01
	outer loop
		vertex -6.938894e-18 9.308872e-01 -3.319861e-01
		vertex 0.000000e+00 9.318209e-01 -3.319861e-01
		vertex -2.051787e-01 8.586386e-01 0.000000e+00
	endloop
endfacet
facet normal 4.968532e-01 -3.085575e-01 -8.111283e-01
	outer loop
		vertex -5.637851e-18 8.757507e-01 -3.319861e-01
		vertex 4.163336e-17 8.757507e-01 -3.319861e-01
		vertex 4.862227e-02 7.472322e-01 -2.533136e-01
	endloop
endfacet
facet normal 8.507311e-01 -5.031586e-02 5.231873e-01
	outer loop
		vertex -5.637851e-18 8.757507e-01 -3.319861e-01
		vertex 4.163336e-17 8.757507e-01 -3.319861e-01
		vertex -2.051787e-01 8.586386e-01 0.000000e+00
	endloop
endfacet
facet normal 0.000000e+00 5.220944e-01 8.528877e-01
	outer loop
		vertex -5.637851e-18 8.757507e-01 -3.319861e-01
		vertex -1.387779e-17 8.757507e-01 -3.319861e-01
		vertex 4.862227e-02 7.472322e-01 -2.533136e-01
	endloop
endfacet
facet normal 0.000000e+00 9.986742e-01 5.147607e-02
	outer loop
		vertex -5.637851e-18 8.757507e-01 -3.319861e-01
		vertex -1.387779e-17 8.757507e-01 -3.319861e-01
		vertex -2.051787e-01 8.586386e-01 0.000000e+00
	endloop
endfacet
facet normal -7.883777e-01 -5.094056e-01 -3.449152e-01
	outer loop
		vertex -6.938894e-18 8.757507e-01 -3.319861e-01
		vertex 4.163336e-17 8.757507e-01 -3.319861e-01
		vertex 4.862227e-02 7.472322e-01 -2.533136e-01
	endloop
endfacet
facet normal -2.725810e-01 9.547136e-01 -1.192542e-01
	outer loop
		vertex -6.938894e-18 8.757507e-01 -3.319861e-01
		vertex 4.163336e-17 8.757507e-01 -3.319861e-01
		vertex -2.051787e-01 8.586386e-01 0.000000e+00
	endloop
endfacet
facet normal 2.205245e-01 -4.471952e-01 -8.668249e-01
	outer loop
		vertex 0.000000e+00 8.757507e-01 -3.319861e-01
		vertex 6.938894e-18 8.757507e-01 -3.319861e-01
		vertex 4.862227e-02 7.472322e-01 -2.533136e-01
	endloop
endfacet
facet normal 8.269587e-01 2.092523e-01 5.218744e-01
	outer loop
		vertex 0.000000e+00 8.757507e-01 -3.319861e-01
		vertex 6.938894e-18 8.757507e-01 -3.319861e-01
		vertex -2.051787e-01 8.586386e-01 0.000000e+00
	endloop
endfacet
facet normal 2.562823e-01 -4.322775e-01 -8.645551e-01
	outer loop
		vertex 0.000000e+00 8.757507e-01 -3.319861e-01
		vertex 0.000000e+00 8.757507e-01 -3.319861e-01
		vertex 4.862227e-02 7.472322e-01 -2.533136e-01
	endloop
endfacet
facet normal 8.156669e-01 2.587228e-01 5.174456e-01
	outer loop
		vertex 0.000000e+00 8.757507e-01 -3.319861e-01
		vertex 0.000000e+00 8.757507e-01 -3.319861e-01
		vertex -2.051787e-01 8.586386e-01 0.000000e+00
	endloop
endfacet
facet normal 1.407845e-01 -4.776057e-01 -8.672211e-01
	outer loop
		vertex 6.938894e-18 8.757507e-01 -3.319861e-01
		vertex 4.163336e-17 8.757507e-01 -3.319861e-01
		vertex 4.862227e-02 7.472322e-01 -2.533136e-01
	endloop
endfacet
facet normal 8.507170e-01 -3.041414e-03 5.256153e-01
	outer loop
		vertex 6.938894e-18 8.757507e-01 -3.319861e-01
		vertex 4.163336e-17 8.757507e-01 -3.319861e-01
		vertex -2.051787e-01 8.586386e-01 0.000000e+00
	endloop
endfacet
facet normal 1.881925e-16 -5.220944e-01 -8.528877e-01
	outer loop
		vertex -2.051787e-01 3.334218e-01 8.786896e-20
		vertex -9.186567e-04 8.733225e-01 -3.304997e-01
		vertex 7.421351e-02 3.334218e-01 2.775558e-17
	endloop
endfacet
facet normal 8.506508e-01 8.795501e-20 5.257311e-01
	outer loop
		vertex -2.051787e-01 3.334218e-01 8.786896e-20
		vertex -9.186567e-04 8.733225e-01 -3.304997e-01
		vertex -2.051787e-01 8.586386e-01 0.000000e+00
	endloop
endfacet
facet normal 1.713033e-15 5.220944e-01 8.528877e-01
	outer loop
		vertex -9.186567e-04 8.733225e-01 -3.304997e-01
		vertex 7.421351e-02 3.334218e-01 2.775558e-17
		vertex 4.862227e-02 7.472322e-01 -2.533136e-01
	endloop
endfacet
facet normal -1.879726e-14 5.220944e-01 8.528877e-01
	outer loop
		vertex 4.862227e-02 7.472322e-01 -2.533136e-01
		vertex -1.994932e-17 8.757507e-01 -3.319861e-01
		vertex -9.186567e-04 8.733225e-01 -3.304997e-01
	endloop
endfacet
facet normal 8.506508e-01 -5.079846e-15 5.257311e-01
	outer loop
		vertex -9.186567e-04 8.733225e-01 -3.304997e-01
		vertex -1.994932e-17 8.757507e-01 -3.319861e-01
		vertex -2.051787e-01 8.586386e-01 0.000000e+00
	endloop
endfacet
facet normal -6.837635e-01 -5.698029e-01 -4.558423e-01
	outer loop
		vertex -1.994932e-17 8.757507e-01 -3.319861e-01
		vertex 4.862227e-02 7.472322e-01 -2.533136e-01
		vertex 4.862227e-02 7.472322e-01 -2.533136e-01
	endloop
endfacet
facet normal 0.000000e+00 0.000000e+00 0.000000e+00
	outer loop
		vertex 4.862227e-02 7.472322e-01 -2.533136e-01
		vertex -2.125036e-17 8.757507e-01 -3.319861e-01
		vertex -1.994932e-17 8.757507e-01 -3.319861e-01
	endloop
endfacet
facet normal -6.837635e-01 -5.698029e-01 -4.558423e-01
	outer loop
		vertex -2.125036e-17 8.757507e-01 -3.319861e-01
		vertex 4.862227e-02 7.472322e-01 -2.533136e-01
		vertex 4.862227e-02 7.472322e-01 -2.533136e-01
	endloop
endfacet
facet normal 0.000000e+00 0.000000e+00 0.000000e+00
	outer loop
		vertex 4.862227e-02 7.472322e-01 -2.533136e-01
		vertex -2.125036e-17 8.757507e-01 -3.319861e-01
		vertex -1.994932e-17 8.757507e-01 -3.319861e-01
	endloop
endfacet
facet normal 0.000000e+00 9.986742e-01 5.147607e-02
	outer loop
		vertex -1.994932e-17 8.757507e-01 -3.319861e-01
		vertex -2.125036e-17 8.757507e-01 -3.319861e-01
		vertex -2.051787e-01 8.586386e-01 0.000000e+00
	endloop
endfacet
facet normal -1.501704e-01 4.742262e-01 8.675012e-01
	outer loop
		vertex 4.597017e-17 8.757507e-01 -3.319861e-01
		vertex -1.387779e-17 8.757507e-01 -3.319861e-01
		vertex 4.862227e-02 7.472322e-01 -2.533136e-01
	endloop
endfacet
facet normal -8.493521e-01 -3.442452e-02 -5.267029e-01
	outer loop
		vertex 4.597017e-17 8.757507e-01 -3.319861e-01
		vertex -1.387779e-17 8.757507e-01 -3.319861e-01
		vertex -2.051787e-01 8.586386e-01 0.000000e+00
	endloop
endfacet
facet normal 5.673489e-01 -8.234775e-01 0.000000e+00
	outer loop
		vertex 0.000000e+00 1.000000e+00 -3.319861e-01
		vertex 0.000000e+00 1.000000e+00 -3.319861e-01
		vertex -2.051787e-01 8.586386e-01 0.000000e+00
	endloop
endfacet
facet normal 0.000000e+00 9.200641e-01 3.917680e-01
	outer loop
		vertex 4.544976e-19 1.000000e+00 -3.319861e-01
		vertex 0.000000e+00 1.000000e+00 -3.319861e-01
		vertex -2.051787e-01 8.586386e-01 0.000000e+00
	endloop
endfacet
facet normal 0.000000e+00 9.200641e-01 3.917680e-01
	outer loop
		vertex 4.544976e-19 1.000000e+00 -3.319861e-01
		vertex 0.000000e+00 1.000000e+00 -3.319861e-01
		vertex -2.051787e-01 8.586386e-01 0.000000e+00
	endloop
endfacet
facet normal -7.032679e-01 -3.841344e-01 -5.982099e-01
	outer loop
		vertex 4.544976e-19 1.000000e+00 -3.319861e-01
		vertex 1.387779e-17 1.000000e+00 -3.319861e-01
		vertex -2.051787e-01 8.586386e-01 0.000000e+00
	endloop
endfacet
facet normal 0.000000e+00 0.000000e+00 0.000000e+00
	outer loop
		vertex 0.000000e+00 1.000000e+00 -3.319861e-01
		vertex 0.000000e+00 1.000000e+00 -3.319861e-01
		vertex -2.051787e-01 8.586386e-01 0.000000e+00
	endloop
endfacet
facet normal 0.000000e+00 0.000000e+00 0.000000e+00
	outer loop
		vertex 0.000000e+00 1.000000e+00 -3.319861e-01
		vertex 0.000000e+00 1.000000e+00 -3.319861e-01
		vertex -2.051787e-01 8.586386e-01 0.000000e+00
	endloop
endfacet
facet normal 5.673489e-01 -8.234775e-01 0.000000e+00
	outer loop
		vertex 0.000000e+00 1.000000e+00 -3.319861e-01
		vertex 0.000000e+00 1.000000e+00 -3.319861e-01
		vertex -2.051787e-01 8.586386e-01 0.000000e+00
	endloop
endfacet
facet normal 0.000000e+00 9.200641e-01 3.917680e-01
	outer loop
		vertex 4.544976e-19 1.000000e+00 -3.319861e-01
		vertex 0.000000e+00 1.000000e+00 -3.319861e-01
		vertex -2.051787e-01 8.586386e-01 0.000000e+00
	endloop
endfacet
facet normal 0.000000e+00 9.200641e-01 3.917680e-01
	outer loop
		vertex 4.544976e-19 1.000000e+00 -3.319861e-01
		vertex 0.000000e+00 1.000000e+00 -3.319861e-01
		vertex -2.051787e-01 8.586386e-01 0.000000e+00
	endloop
endfacet
facet normal -7.032679e-01 -3.841344e-01 -5.982099e-01
	outer loop
		vertex 4.544976e-19 1.000000e+00 -3.319861e-01
		vertex 1.387779e-17 1.000000e+00 -3.319861e-01
		vertex -2.051787e-01 8.586386e-01 0.000000e+00
	endloop
endfacet
facet normal 5.257311e-01 -8.506508e-01 1.059753e-16
	outer loop
		vertex -2.051787e-01 8.731926e-01 3.469447e-17
		vertex -1.604900e-02 9.900812e-01 -3.060183e-01
		vertex -2.317104e-02 9.856795e-01 2.944946e-01
	endloop
endfacet
facet normal -8.506508e-01 -3.689952e-16 -5.257311e-01
	outer loop
		vertex -2.051787e-01 8.731926e-01 3.469447e-17
		vertex -1.604900e-02 9.900812e-01 -3.060183e-01
		vertex -2.051787e-01 8.586386e-01 0.000000e+00
	endloop
endfacet
facet normal 5.257311e-01 -8.506508e-01 1.429856e-16
	outer loop
		vertex -1.604900e-02 9.900812e-01 -3.060183e-01
		vertex -1.812430e-03 9.988799e-01 -3.290535e-01
		vertex -2.317104e-02 9.856795e-01 2.944946e-01
	endloop
endfacet
facet normal -8.506508e-01 1.760627e-14 -5.257311e-01
	outer loop
		vertex -1.604900e-02 9.900812e-01 -3.060183e-01
		vertex -1.812430e-03 9.988799e-01 -3.290535e-01
		vertex -2.051787e-01 8.586386e-01 0.000000e+00
	endloop
endfacet
facet normal 8.506508e-01 2.499030e-16 -5.257311e-01
	outer loop
		vertex -3.469447e-18 9.318209e-01 -3.319861e-01
		vertex -2.081668e-17 9.908696e-01 -3.319861e-01
		vertex 4.862227e-02 7.472322e-01 -2.533136e-01
	endloop
endfacet
facet normal 8.506508e-01 2.499030e-16 5.257311e-01
	outer loop
		vertex -3.469447e-18 9.318209e-01 -3.319861e-01
		vertex -2.081668e-17 9.908696e-01 -3.319861e-01
		vertex -2.051787e-01 8.586386e-01 0.000000e+00
	endloop
endfacet
facet normal -5.257311e-01 8.506508e-01 5.103092e-18
	outer loop
		vertex -1.812430e-03 9.988799e-01 -3.290535e-01
		vertex -2.317104e-02 9.856795e-01 2.944946e-01
		vertex 0.000000e+00 1.000000e+00 3.319861e-01
	endloop
endfacet
facet normal -5.257311e-01 8.506508e-01 -8.950803e-17
	outer loop
		vertex 0.000000e+00 1.000000e+00 3.319861e-01
		vertex -1.609356e-03 9.990054e-01 -3.293821e-01
		vertex -1.812430e-03 9.988799e-01 -3.290535e-01
	endloop
endfacet
facet normal -8.506508e-01 9.642917e-13 -5.257311e-01
	outer loop
		vertex -1.812430e-03 9.988799e-01 -3.290535e-01
		vertex -1.609356e-03 9.990054e-01 -3.293821e-01
		vertex -2.051787e-01 8.586386e-01 0.000000e+00
	endloop
endfacet
facet normal -5.257311e-01 8.506508e-01 0.000000e+00
	outer loop
		vertex -1.609356e-03 9.990054e-01 -3.293821e-01
		vertex 0.000000e+00 1.000000e+00 3.319861e-01
		vertex 0.000000e+00 1.000000e+00 -3.319861e-01
	endloop
endfacet
facet normal 0.000000e+00 0.000000e+00 0.000000e+00
	outer loop
		vertex 0.000000e+00 1.000000e+00 -3.319861e-01
		vertex 0.000000e+00 1.000000e+00 -3.319861e-01
		vertex -1.609356e-03 9.990054e-01 -3.293821e-01
	endloop
endfacet
facet normal -8.506508e-01 -1.703487e-14 -5.257311e-01
	outer loop
		vertex -1.609356e-03 9.990054e-01 -3.293821e-01
		vertex 0.000000e+00 1.000000e+00 -3.319861e-01
		vertex -2.051787e-01 8.586386e-01 0.000000e+00
	endloop
endfacet
facet normal -9.055733e-01 -2.747780e-01 -3.231626e-01
	outer loop
		vertex 1.387779e-17 1.000000e+00 -3.319861e-01
		vertex 0.000000e+00 1.000000e+00 -3.319861e-01
		vertex 4.862227e-02 7.472322e-01 -2.533136e-01
	endloop
endfacet
facet normal -8.506508e-01 -1.540735e-15 5.257311e-01
	outer loop
		vertex 4.862227e-02 7.472322e-01 -2.533136e-01
		vertex 1.387779e-17 1.000000e+00 -3.319861e-01
		vertex -9.974660e-18 9.908696e-01 -3.319861e-01
	endloop
endfacet
facet normal 8.506508e-01 -5.418580e-15 5.257311e-01
	outer loop
		vertex -9.974660e-18 9.908696e-01 -3.319861e-01
		vertex 1.387779e-17 1.000000e+00 -3.319861e-01
		vertex -2.051787e-01 8.586386e-01 0.000000e+00
	endloop
endfacet
endsolid MIKE666
