solid MIKE666
facet normal -8.506508e-01 -1.213465e-14 -5.257311e-01
	outer loop
		vertex 1.865942e-01 -3.825443e-01 3.007028e-02
		vertex 1.925632e-01 -3.667673e-01 2.041238e-02
		vertex 2.376026e-03 -9.985315e-01 3.281416e-01
	endloop
endfacet
facet normal 8.506508e-01 -2.182479e-15 5.257311e-01
	outer loop
		vertex 1.865942e-01 -3.825443e-01 3.007028e-02
		vertex 1.445030e-01 -4.937999e-01 9.817530e-02
		vertex 2.376026e-03 -9.985315e-01 3.281416e-01
	endloop
endfacet
facet normal 8.506508e-01 9.074216e-14 5.257311e-01
	outer loop
		vertex 1.435938e-01 -4.962031e-01 9.964640e-02
		vertex 1.414620e-01 -5.018378e-01 1.030957e-01
		vertex 2.376026e-03 -9.985315e-01 3.281416e-01
	endloop
endfacet
facet normal -8.506508e-01 -2.258780e-14 -5.257311e-01
	outer loop
		vertex 1.435938e-01 -4.962031e-01 9.964640e-02
		vertex 1.445030e-01 -4.937999e-01 9.817530e-02
		vertex 2.376026e-03 -9.985315e-01 3.281416e-01
	endloop
endfacet
facet normal 8.506508e-01 -2.427522e-12 5.257311e-01
	outer loop
		vertex 1.999174e-01 -3.473286e-01 8.513024e-03
		vertex 1.998036e-01 -3.476292e-01 8.697027e-03
		vertex 2.376026e-03 -9.985315e-01 3.281416e-01
	endloop
endfacet
facet normal -8.506508e-01 5.630907e-14 -5.257311e-01
	outer loop
		vertex 1.378855e-01 -5.112914e-01 1.088827e-01
		vertex 1.414620e-01 -5.018378e-01 1.030957e-01
		vertex 2.376026e-03 -9.985315e-01 3.281416e-01
	endloop
endfacet
facet normal 8.506508e-01 -7.087006e-14 5.257311e-01
	outer loop
		vertex 1.378855e-01 -5.112914e-01 1.088827e-01
		vertex 1.362964e-01 -5.154917e-01 1.114539e-01
		vertex 2.376026e-03 -9.985315e-01 3.281416e-01
	endloop
endfacet
facet normal -8.506508e-01 -1.347954e-12 -5.257311e-01
	outer loop
		vertex 1.999174e-01 -3.473286e-01 8.513024e-03
		vertex 2.001031e-01 -3.468376e-01 8.212434e-03
		vertex 2.376026e-03 -9.985315e-01 3.281416e-01
	endloop
endfacet
facet normal 8.506508e-01 -8.374761e-13 5.257311e-01
	outer loop
		vertex 1.928290e-01 -3.660645e-01 1.998222e-02
		vertex 1.925632e-01 -3.667673e-01 2.041238e-02
		vertex 2.376026e-03 -9.985315e-01 3.281416e-01
	endloop
endfacet
facet normal -8.506508e-01 -2.717831e-14 -5.257311e-01
	outer loop
		vertex 1.928290e-01 -3.660645e-01 1.998222e-02
		vertex 1.962090e-01 -3.571305e-01 1.451323e-02
		vertex 2.376026e-03 -9.985315e-01 3.281416e-01
	endloop
endfacet
facet normal 8.506508e-01 -1.233751e-13 5.257311e-01
	outer loop
		vertex 1.978557e-01 -3.527780e-01 1.184885e-02
		vertex 1.962090e-01 -3.571305e-01 1.451323e-02
		vertex 2.376026e-03 -9.985315e-01 3.281416e-01
	endloop
endfacet
facet normal -8.506508e-01 3.642329e-14 -5.257311e-01
	outer loop
		vertex 1.978557e-01 -3.527780e-01 1.184885e-02
		vertex 1.979626e-01 -3.524955e-01 1.167595e-02
		vertex 2.376026e-03 -9.985315e-01 3.281416e-01
	endloop
endfacet
facet normal -8.506508e-01 -7.364519e-14 -5.257311e-01
	outer loop
		vertex 1.979626e-01 -3.524955e-01 1.167595e-02
		vertex 1.998036e-01 -3.476292e-01 8.697027e-03
		vertex 2.376026e-03 -9.985315e-01 3.281416e-01
	endloop
endfacet
facet normal -8.506508e-01 -1.769666e-14 -5.257311e-01
	outer loop
		vertex 2.001031e-01 -3.468376e-01 8.212434e-03
		vertex 2.030730e-01 -3.389876e-01 3.407122e-03
		vertex 2.376026e-03 -9.985315e-01 3.281416e-01
	endloop
endfacet
facet normal 0.000000e+00 0.000000e+00 0.000000e+00
	outer loop
		vertex 1.957142e-02 -9.879042e-01 3.636533e-01
		vertex 1.544465e-02 -9.904547e-01 3.569760e-01
		vertex 1.544465e-02 -9.904547e-01 3.569760e-01
	endloop
endfacet
facet normal -8.506508e-01 2.059538e-15 5.257311e-01
	outer loop
		vertex 3.311565e-02 -9.632820e-01 3.855683e-01
		vertex 2.552990e-02 -9.432314e-01 3.732943e-01
		vertex 1.544465e-02 -9.904547e-01 3.569760e-01
	endloop
endfacet
facet normal -8.506508e-01 6.065359e-15 5.257311e-01
	outer loop
		vertex 3.807644e-02 -9.763944e-01 3.935951e-01
		vertex 3.311565e-02 -9.632820e-01 3.855683e-01
		vertex 1.544465e-02 -9.904547e-01 3.569760e-01
	endloop
endfacet
facet normal 2.620409e-01 -9.441792e-01 1.996502e-01
	outer loop
		vertex 1.957142e-02 -9.879042e-01 3.636533e-01
		vertex 2.560520e-02 -9.841751e-01 3.734162e-01
		vertex 1.544465e-02 -9.904547e-01 3.569760e-01
	endloop
endfacet
facet normal -4.409739e-02 -9.260451e-01 3.748278e-01
	outer loop
		vertex 3.809884e-02 -9.764536e-01 3.936313e-01
		vertex 2.560520e-02 -9.841751e-01 3.734162e-01
		vertex 1.544465e-02 -9.904547e-01 3.569760e-01
	endloop
endfacet
facet normal -8.506508e-01 1.632010e-13 5.257311e-01
	outer loop
		vertex 3.809884e-02 -9.764536e-01 3.936313e-01
		vertex 3.807644e-02 -9.763944e-01 3.935951e-01
		vertex 1.544465e-02 -9.904547e-01 3.569760e-01
	endloop
endfacet
facet normal -5.257311e-01 8.506508e-01 -5.074023e-15
	outer loop
		vertex 2.341877e-17 -1.000000e+00 3.319861e-01
		vertex 2.059231e-03 -9.987273e-01 3.353180e-01
		vertex 2.376026e-03 -9.985315e-01 3.281416e-01
	endloop
endfacet
facet normal 6.937662e-01 4.172300e-01 -5.870329e-01
	outer loop
		vertex 2.341877e-17 -1.000000e+00 3.319861e-01
		vertex 2.059231e-03 -9.987273e-01 3.353180e-01
		vertex 1.544465e-02 -9.904547e-01 3.569760e-01
	endloop
endfacet
facet normal 0.000000e+00 0.000000e+00 0.000000e+00
	outer loop
		vertex 2.341877e-17 -1.000000e+00 3.319861e-01
		vertex 2.376026e-03 -9.985315e-01 3.281416e-01
		vertex 2.376026e-03 -9.985315e-01 3.281416e-01
	endloop
endfacet
facet normal 0.000000e+00 0.000000e+00 0.000000e+00
	outer loop
		vertex 2.376026e-03 -9.985315e-01 3.281416e-01
		vertex 2.341877e-17 -1.000000e+00 3.319861e-01
		vertex 2.341877e-17 -1.000000e+00 3.319861e-01
	endloop
endfacet
facet normal 0.000000e+00 0.000000e+00 0.000000e+00
	outer loop
		vertex 2.341877e-17 -1.000000e+00 3.319861e-01
		vertex 2.376026e-03 -9.985315e-01 3.281416e-01
		vertex 2.376026e-03 -9.985315e-01 3.281416e-01
	endloop
endfacet
facet normal 0.000000e+00 0.000000e+00 0.000000e+00
	outer loop
		vertex 2.376026e-03 -9.985315e-01 3.281416e-01
		vertex 2.341877e-17 -1.000000e+00 3.319861e-01
		vertex 2.341877e-17 -1.000000e+00 3.319861e-01
	endloop
endfacet
facet normal 0.000000e+00 0.000000e+00 0.000000e+00
	outer loop
		vertex 2.341877e-17 -1.000000e+00 3.319861e-01
		vertex 2.341877e-17 -1.000000e+00 3.319861e-01
		vertex 1.544465e-02 -9.904547e-01 3.569760e-01
	endloop
endfacet
facet normal 0.000000e+00 -9.161573e-01 4.008188e-01
	outer loop
		vertex 2.059231e-03 -9.987273e-01 3.353180e-01
		vertex 1.544465e-02 -9.904547e-01 3.569760e-01
		vertex 1.544465e-02 -9.904547e-01 3.569760e-01
	endloop
endfacet
facet normal 0.000000e+00 0.000000e+00 0.000000e+00
	outer loop
		vertex 0.000000e+00 -1.000000e+00 3.319861e-01
		vertex 0.000000e+00 -1.000000e+00 3.319861e-01
		vertex 0.000000e+00 -1.000000e+00 3.319861e-01
	endloop
endfacet
facet normal 0.000000e+00 0.000000e+00 0.000000e+00
	outer loop
		vertex 0.000000e+00 -1.000000e+00 3.319861e-01
		vertex 0.000000e+00 -1.000000e+00 3.319861e-01
		vertex 1.544465e-02 -9.904547e-01 3.569760e-01
	endloop
endfacet
facet normal 0.000000e+00 0.000000e+00 0.000000e+00
	outer loop
		vertex 0.000000e+00 -1.000000e+00 3.319861e-01
		vertex 0.000000e+00 -1.000000e+00 3.319861e-01
		vertex 2.376026e-03 -9.985315e-01 3.281416e-01
	endloop
endfacet
facet normal 0.000000e+00 0.000000e+00 0.000000e+00
	outer loop
		vertex 2.376026e-03 -9.985315e-01 3.281416e-01
		vertex 0.000000e+00 -1.000000e+00 3.319861e-01
		vertex 0.000000e+00 -1.000000e+00 3.319861e-01
	endloop
endfacet
facet normal 0.000000e+00 0.000000e+00 0.000000e+00
	outer loop
		vertex 0.000000e+00 -1.000000e+00 3.319861e-01
		vertex 0.000000e+00 -1.000000e+00 3.319861e-01
		vertex 1.544465e-02 -9.904547e-01 3.569760e-01
	endloop
endfacet
facet normal 0.000000e+00 0.000000e+00 0.000000e+00
	outer loop
		vertex 0.000000e+00 -1.000000e+00 3.319861e-01
		vertex 0.000000e+00 -1.000000e+00 3.319861e-01
		vertex 2.376026e-03 -9.985315e-01 3.281416e-01
	endloop
endfacet
facet normal 8.506508e-01 1.619899e-15 5.257311e-01
	outer loop
		vertex 2.376026e-03 -9.985315e-01 3.281416e-01
		vertex -4.770490e-18 -9.974547e-01 3.319861e-01
		vertex 0.000000e+00 -1.000000e+00 3.319861e-01
	endloop
endfacet
facet normal 8.506508e-01 1.594288e-15 -5.257311e-01
	outer loop
		vertex 0.000000e+00 -1.000000e+00 3.319861e-01
		vertex -4.770490e-18 -9.974547e-01 3.319861e-01
		vertex 1.544465e-02 -9.904547e-01 3.569760e-01
	endloop
endfacet
facet normal 0.000000e+00 0.000000e+00 0.000000e+00
	outer loop
		vertex 0.000000e+00 -1.000000e+00 3.319861e-01
		vertex 0.000000e+00 -1.000000e+00 3.319861e-01
		vertex 2.376026e-03 -9.985315e-01 3.281416e-01
	endloop
endfacet
facet normal 8.506508e-01 1.619899e-15 5.257311e-01
	outer loop
		vertex 2.376026e-03 -9.985315e-01 3.281416e-01
		vertex -4.770490e-18 -9.974547e-01 3.319861e-01
		vertex 0.000000e+00 -1.000000e+00 3.319861e-01
	endloop
endfacet
facet normal 8.506508e-01 1.594288e-15 -5.257311e-01
	outer loop
		vertex 0.000000e+00 -1.000000e+00 3.319861e-01
		vertex -4.770490e-18 -9.974547e-01 3.319861e-01
		vertex 1.544465e-02 -9.904547e-01 3.569760e-01
	endloop
endfacet
facet normal -8.506508e-01 -4.865543e-13 -5.257311e-01
	outer loop
		vertex -1.734723e-18 -9.974547e-01 3.319861e-01
		vertex -9.540979e-18 -9.973810e-01 3.319861e-01
		vertex 2.376026e-03 -9.985315e-01 3.281416e-01
	endloop
endfacet
facet normal 8.506508e-01 -3.061789e-13 -5.257311e-01
	outer loop
		vertex -1.734723e-18 -9.974547e-01 3.319861e-01
		vertex -9.540979e-18 -9.973810e-01 3.319861e-01
		vertex 1.544465e-02 -9.904547e-01 3.569760e-01
	endloop
endfacet
facet normal 8.506508e-01 -4.148960e-13 5.257311e-01
	outer loop
		vertex -1.040834e-17 -9.973125e-01 3.319861e-01
		vertex -9.540979e-18 -9.973810e-01 3.319861e-01
		vertex 2.376026e-03 -9.985315e-01 3.281416e-01
	endloop
endfacet
facet normal -8.506508e-01 -4.364187e-13 5.257311e-01
	outer loop
		vertex -1.040834e-17 -9.973125e-01 3.319861e-01
		vertex -9.540979e-18 -9.973810e-01 3.319861e-01
		vertex 1.544465e-02 -9.904547e-01 3.569760e-01
	endloop
endfacet
facet normal -8.506508e-01 -1.102218e-13 -5.257311e-01
	outer loop
		vertex 3.469447e-18 -9.973125e-01 3.319861e-01
		vertex -6.505213e-18 -9.972355e-01 3.319861e-01
		vertex 2.376026e-03 -9.985315e-01 3.281416e-01
	endloop
endfacet
facet normal 8.506508e-01 1.102218e-13 -5.257311e-01
	outer loop
		vertex 3.469447e-18 -9.973125e-01 3.319861e-01
		vertex -6.505213e-18 -9.972355e-01 3.319861e-01
		vertex 1.544465e-02 -9.904547e-01 3.569760e-01
	endloop
endfacet
facet normal -8.506508e-01 2.052517e-14 5.257311e-01
	outer loop
		vertex 2.552990e-02 -9.432314e-01 3.732943e-01
		vertex 2.419433e-02 -9.397012e-01 3.711333e-01
		vertex 1.544465e-02 -9.904547e-01 3.569760e-01
	endloop
endfacet
facet normal 0.000000e+00 -5.220944e-01 -8.528877e-01
	outer loop
		vertex 1.362964e-01 -5.154917e-01 1.114539e-01
		vertex 2.419433e-02 -9.397012e-01 3.711333e-01
		vertex 0.000000e+00 -8.757507e-01 3.319861e-01
	endloop
endfacet
facet normal 8.506508e-01 -1.913289e-16 -5.257311e-01
	outer loop
		vertex 0.000000e+00 -8.757507e-01 3.319861e-01
		vertex 2.419433e-02 -9.397012e-01 3.711333e-01
		vertex 1.544465e-02 -9.904547e-01 3.569760e-01
	endloop
endfacet
facet normal -8.506508e-01 -6.156694e-17 -5.257311e-01
	outer loop
		vertex 0.000000e+00 -8.757507e-01 3.319861e-01
		vertex 1.362964e-01 -5.154917e-01 1.114539e-01
		vertex 2.376026e-03 -9.985315e-01 3.281416e-01
	endloop
endfacet
facet normal -8.506508e-01 4.319652e-17 -5.257311e-01
	outer loop
		vertex 2.376026e-03 -9.985315e-01 3.281416e-01
		vertex -6.505213e-18 -9.972355e-01 3.319861e-01
		vertex 0.000000e+00 -8.757507e-01 3.319861e-01
	endloop
endfacet
facet normal -8.506508e-01 4.555026e-17 5.257311e-01
	outer loop
		vertex 0.000000e+00 -8.757507e-01 3.319861e-01
		vertex -6.505213e-18 -9.972355e-01 3.319861e-01
		vertex 1.544465e-02 -9.904547e-01 3.569760e-01
	endloop
endfacet
facet normal 5.257311e-01 -8.506508e-01 6.103848e-16
	outer loop
		vertex 2.051787e-01 -8.731926e-01 0.000000e+00
		vertex 2.134671e-01 -8.680701e-01 1.341086e-02
		vertex 2.376026e-03 -9.985315e-01 3.281416e-01
	endloop
endfacet
facet normal 0.000000e+00 0.000000e+00 0.000000e+00
	outer loop
		vertex 2.051787e-01 -8.731926e-01 0.000000e+00
		vertex 2.134671e-01 -8.680701e-01 1.341086e-02
		vertex 2.134671e-01 -8.680701e-01 1.341086e-02
	endloop
endfacet
facet normal 4.472136e-01 -8.944272e-01 0.000000e+00
	outer loop
		vertex 2.051787e-01 -8.731926e-01 0.000000e+00
		vertex 2.376026e-03 -9.985315e-01 3.281416e-01
		vertex 2.376026e-03 -9.985315e-01 3.281416e-01
	endloop
endfacet
facet normal 4.472136e-01 -8.944272e-01 0.000000e+00
	outer loop
		vertex 2.376026e-03 -9.985315e-01 3.281416e-01
		vertex 2.051787e-01 -8.731926e-01 -5.551115e-17
		vertex 2.051787e-01 -8.731926e-01 0.000000e+00
	endloop
endfacet
facet normal 4.472136e-01 -8.944272e-01 0.000000e+00
	outer loop
		vertex 2.051787e-01 -8.731926e-01 -5.551115e-17
		vertex 2.376026e-03 -9.985315e-01 3.281416e-01
		vertex 2.376026e-03 -9.985315e-01 3.281416e-01
	endloop
endfacet
facet normal 4.472136e-01 -8.944272e-01 0.000000e+00
	outer loop
		vertex 2.376026e-03 -9.985315e-01 3.281416e-01
		vertex 2.051787e-01 -8.731926e-01 -5.551115e-17
		vertex 2.051787e-01 -8.731926e-01 0.000000e+00
	endloop
endfacet
facet normal 5.257311e-01 -8.506508e-01 0.000000e+00
	outer loop
		vertex 2.051787e-01 -8.731926e-01 0.000000e+00
		vertex 2.051787e-01 -8.731926e-01 -5.551115e-17
		vertex 2.134671e-01 -8.680701e-01 1.341086e-02
	endloop
endfacet
facet normal -8.261703e-01 4.503330e-01 -3.385895e-01
	outer loop
		vertex 2.051787e-01 -8.731926e-01 -5.551115e-17
		vertex 2.051787e-01 -8.731926e-01 0.000000e+00
		vertex 2.376026e-03 -9.985315e-01 3.281416e-01
	endloop
endfacet
facet normal -7.316303e-01 6.505626e-01 2.036796e-01
	outer loop
		vertex 2.051787e-01 -8.731926e-01 -5.551115e-17
		vertex 2.051787e-01 -8.731926e-01 0.000000e+00
		vertex 2.134671e-01 -8.680701e-01 1.341086e-02
	endloop
endfacet
facet normal 8.506508e-01 2.601136e-15 5.257311e-01
	outer loop
		vertex 2.051787e-01 -8.731926e-01 0.000000e+00
		vertex 2.051787e-01 -8.641157e-01 0.000000e+00
		vertex 2.376026e-03 -9.985315e-01 3.281416e-01
	endloop
endfacet
facet normal 8.506508e-01 2.601136e-15 -5.257311e-01
	outer loop
		vertex 2.051787e-01 -8.731926e-01 0.000000e+00
		vertex 2.051787e-01 -8.641157e-01 0.000000e+00
		vertex 2.134671e-01 -8.680701e-01 1.341086e-02
	endloop
endfacet
facet normal -8.506508e-01 8.140255e-14 -5.257311e-01
	outer loop
		vertex 2.051787e-01 -8.638941e-01 -5.551115e-17
		vertex 2.051787e-01 -8.641157e-01 0.000000e+00
		vertex 2.376026e-03 -9.985315e-01 3.281416e-01
	endloop
endfacet
facet normal -8.506508e-01 3.448268e-13 5.257311e-01
	outer loop
		vertex 2.051787e-01 -8.638941e-01 -5.551115e-17
		vertex 2.051787e-01 -8.641157e-01 0.000000e+00
		vertex 2.134671e-01 -8.680701e-01 1.341086e-02
	endloop
endfacet
facet normal 0.000000e+00 9.341723e-01 3.568221e-01
	outer loop
		vertex 2.051787e-01 -8.731926e-01 -5.551115e-17
		vertex 2.051787e-01 -8.731926e-01 -5.551115e-17
		vertex 2.376026e-03 -9.985315e-01 3.281416e-01
	endloop
endfacet
facet normal 0.000000e+00 9.341723e-01 -3.568221e-01
	outer loop
		vertex 2.051787e-01 -8.731926e-01 -5.551115e-17
		vertex 2.051787e-01 -8.731926e-01 -5.551115e-17
		vertex 2.134671e-01 -8.680701e-01 1.341086e-02
	endloop
endfacet
facet normal -3.191514e-01 9.341724e-01 1.595757e-01
	outer loop
		vertex 2.051787e-01 -8.731926e-01 0.000000e+00
		vertex 2.051787e-01 -8.731926e-01 -5.551115e-17
		vertex 2.376026e-03 -9.985315e-01 3.281416e-01
	endloop
endfacet
facet normal 8.621037e-01 -2.664048e-01 -4.310519e-01
	outer loop
		vertex 2.051787e-01 -8.731926e-01 0.000000e+00
		vertex 2.051787e-01 -8.731926e-01 -5.551115e-17
		vertex 2.134671e-01 -8.680701e-01 1.341086e-02
	endloop
endfacet
facet normal 8.384419e-01 6.116354e-02 5.415480e-01
	outer loop
		vertex 2.051787e-01 -8.731926e-01 5.551115e-17
		vertex 2.051787e-01 -8.731926e-01 0.000000e+00
		vertex 2.376026e-03 -9.985315e-01 3.281416e-01
	endloop
endfacet
facet normal 8.413131e-01 -3.948909e-01 -3.691252e-01
	outer loop
		vertex 2.051787e-01 -8.731926e-01 5.551115e-17
		vertex 2.051787e-01 -8.731926e-01 0.000000e+00
		vertex 2.134671e-01 -8.680701e-01 1.341086e-02
	endloop
endfacet
facet normal -8.506508e-01 -0.000000e+00 -5.257311e-01
	outer loop
		vertex 2.051787e-01 -8.731926e-01 0.000000e+00
		vertex 2.051787e-01 -8.731926e-01 0.000000e+00
		vertex 2.376026e-03 -9.985315e-01 3.281416e-01
	endloop
endfacet
facet normal -8.506508e-01 0.000000e+00 5.257311e-01
	outer loop
		vertex 2.051787e-01 -8.731926e-01 0.000000e+00
		vertex 2.051787e-01 -8.731926e-01 0.000000e+00
		vertex 2.134671e-01 -8.680701e-01 1.341086e-02
	endloop
endfacet
facet normal 8.828137e-17 -5.220944e-01 -8.528877e-01
	outer loop
		vertex 2.235918e-01 -3.820913e-01 2.979295e-02
		vertex 1.865942e-01 -3.825443e-01 3.007028e-02
		vertex 1.925632e-01 -3.667673e-01 2.041238e-02
	endloop
endfacet
facet normal 4.337661e-16 5.220944e-01 8.528877e-01
	outer loop
		vertex 1.925632e-01 -3.667673e-01 2.041238e-02
		vertex 2.235918e-01 -3.820913e-01 2.979295e-02
		vertex 2.178667e-01 -3.669588e-01 2.052963e-02
	endloop
endfacet
facet normal 8.506508e-01 1.080107e-16 -5.257311e-01
	outer loop
		vertex 2.178667e-01 -3.669588e-01 2.052963e-02
		vertex 2.235918e-01 -3.820913e-01 2.979295e-02
		vertex 2.134671e-01 -8.680701e-01 1.341086e-02
	endloop
endfacet
facet normal 8.613959e-01 -7.209376e-02 5.027917e-01
	outer loop
		vertex 2.051787e-01 -8.638941e-01 -5.551115e-17
		vertex 2.051787e-01 -8.638941e-01 5.551115e-17
		vertex 2.376026e-03 -9.985315e-01 3.281416e-01
	endloop
endfacet
facet normal 7.349863e-01 6.266176e-01 -2.591245e-01
	outer loop
		vertex 2.051787e-01 -8.638941e-01 -5.551115e-17
		vertex 2.051787e-01 -8.638941e-01 5.551115e-17
		vertex 2.134671e-01 -8.680701e-01 1.341086e-02
	endloop
endfacet
facet normal 8.506508e-01 7.193668e-16 5.257311e-01
	outer loop
		vertex 2.051787e-01 -8.638941e-01 -5.551115e-17
		vertex 2.051787e-01 -7.731792e-01 0.000000e+00
		vertex 2.376026e-03 -9.985315e-01 3.281416e-01
	endloop
endfacet
facet normal 8.506508e-01 1.362788e-15 -5.257311e-01
	outer loop
		vertex 2.051787e-01 -8.638941e-01 -5.551115e-17
		vertex 2.051787e-01 -7.731792e-01 0.000000e+00
		vertex 2.134671e-01 -8.680701e-01 1.341086e-02
	endloop
endfacet
facet normal -8.506508e-01 1.301796e-14 -5.257311e-01
	outer loop
		vertex 2.051787e-01 -7.650682e-01 1.110223e-16
		vertex 2.051787e-01 -7.731792e-01 0.000000e+00
		vertex 2.376026e-03 -9.985315e-01 3.281416e-01
	endloop
endfacet
facet normal -8.506508e-01 -1.374343e-15 5.257311e-01
	outer loop
		vertex 2.051787e-01 -7.650682e-01 1.110223e-16
		vertex 2.051787e-01 -7.731792e-01 0.000000e+00
		vertex 2.134671e-01 -8.680701e-01 1.341086e-02
	endloop
endfacet
facet normal -8.506508e-01 3.088549e-16 -5.257311e-01
	outer loop
		vertex 2.051787e-01 -6.886236e-01 0.000000e+00
		vertex 2.051787e-01 -7.650682e-01 0.000000e+00
		vertex 2.376026e-03 -9.985315e-01 3.281416e-01
	endloop
endfacet
facet normal -8.506508e-01 3.088549e-16 5.257311e-01
	outer loop
		vertex 2.051787e-01 -6.886236e-01 0.000000e+00
		vertex 2.051787e-01 -7.650682e-01 0.000000e+00
		vertex 2.134671e-01 -8.680701e-01 1.341086e-02
	endloop
endfacet
facet normal 8.506508e-01 1.817862e-16 5.257311e-01
	outer loop
		vertex 2.051787e-01 -6.886236e-01 0.000000e+00
		vertex 2.051787e-01 -5.280837e-01 -5.551115e-17
		vertex 2.376026e-03 -9.985315e-01 3.281416e-01
	endloop
endfacet
facet normal 8.506508e-01 -1.817862e-16 -5.257311e-01
	outer loop
		vertex 2.051787e-01 -6.886236e-01 0.000000e+00
		vertex 2.051787e-01 -5.280837e-01 -5.551115e-17
		vertex 2.134671e-01 -8.680701e-01 1.341086e-02
	endloop
endfacet
facet normal -8.506508e-01 9.838981e-16 -5.257311e-01
	outer loop
		vertex 2.051787e-01 -4.536750e-01 3.469447e-17
		vertex 2.051787e-01 -5.018750e-01 -5.551115e-17
		vertex 2.376026e-03 -9.985315e-01 3.281416e-01
	endloop
endfacet
facet normal -8.506508e-01 -9.838981e-16 5.257311e-01
	outer loop
		vertex 2.051787e-01 -4.536750e-01 3.469447e-17
		vertex 2.051787e-01 -5.018750e-01 -5.551115e-17
		vertex 2.134671e-01 -8.680701e-01 1.341086e-02
	endloop
endfacet
facet normal 8.506508e-01 -1.179237e-15 5.257311e-01
	outer loop
		vertex 2.051787e-01 -5.280837e-01 4.163336e-17
		vertex 2.051787e-01 -5.018750e-01 5.551115e-17
		vertex 2.376026e-03 -9.985315e-01 3.281416e-01
	endloop
endfacet
facet normal 8.506508e-01 -6.224770e-16 -5.257311e-01
	outer loop
		vertex 2.051787e-01 -5.280837e-01 4.163336e-17
		vertex 2.051787e-01 -5.018750e-01 5.551115e-17
		vertex 2.134671e-01 -8.680701e-01 1.341086e-02
	endloop
endfacet
facet normal -6.347705e-17 5.220944e-01 8.528877e-01
	outer loop
		vertex 2.235918e-01 -3.820913e-01 2.979295e-02
		vertex 1.865942e-01 -3.825443e-01 3.007028e-02
		vertex 1.445030e-01 -4.937999e-01 9.817530e-02
	endloop
endfacet
facet normal 1.281504e-16 -5.220944e-01 -8.528877e-01
	outer loop
		vertex 1.445030e-01 -4.937999e-01 9.817530e-02
		vertex 2.235918e-01 -3.820913e-01 2.979295e-02
		vertex 2.595855e-01 -4.772300e-01 8.803206e-02
	endloop
endfacet
facet normal -8.506508e-01 1.976648e-16 5.257311e-01
	outer loop
		vertex 2.595855e-01 -4.772300e-01 8.803206e-02
		vertex 2.235918e-01 -3.820913e-01 2.979295e-02
		vertex 2.134671e-01 -8.680701e-01 1.341086e-02
	endloop
endfacet
facet normal 1.005031e-15 5.220944e-01 8.528877e-01
	outer loop
		vertex 2.602877e-01 -4.790861e-01 8.916826e-02
		vertex 1.435938e-01 -4.962031e-01 9.964640e-02
		vertex 1.414620e-01 -5.018378e-01 1.030957e-01
	endloop
endfacet
facet normal -9.233570e-16 -5.220944e-01 -8.528877e-01
	outer loop
		vertex 1.414620e-01 -5.018378e-01 1.030957e-01
		vertex 2.602877e-01 -4.790861e-01 8.916826e-02
		vertex 2.619230e-01 -4.834084e-01 9.181413e-02
	endloop
endfacet
facet normal -8.506508e-01 4.639779e-15 5.257311e-01
	outer loop
		vertex 2.619230e-01 -4.834084e-01 9.181413e-02
		vertex 2.602877e-01 -4.790861e-01 8.916826e-02
		vertex 2.134671e-01 -8.680701e-01 1.341086e-02
	endloop
endfacet
facet normal -1.745547e-16 -5.220944e-01 -8.528877e-01
	outer loop
		vertex 2.602877e-01 -4.790861e-01 8.916826e-02
		vertex 1.435938e-01 -4.962031e-01 9.964640e-02
		vertex 1.445030e-01 -4.937999e-01 9.817530e-02
	endloop
endfacet
facet normal 1.950092e-15 5.220944e-01 8.528877e-01
	outer loop
		vertex 1.445030e-01 -4.937999e-01 9.817530e-02
		vertex 2.602877e-01 -4.790861e-01 8.916826e-02
		vertex 2.595855e-01 -4.772300e-01 8.803206e-02
	endloop
endfacet
facet normal 8.506508e-01 1.264509e-14 -5.257311e-01
	outer loop
		vertex 2.595855e-01 -4.772300e-01 8.803206e-02
		vertex 2.602877e-01 -4.790861e-01 8.916826e-02
		vertex 2.134671e-01 -8.680701e-01 1.341086e-02
	endloop
endfacet
facet normal -1.807767e-15 5.220944e-01 8.528877e-01
	outer loop
		vertex 2.105706e-01 -3.476737e-01 8.724295e-03
		vertex 1.999174e-01 -3.473286e-01 8.513024e-03
		vertex 1.998036e-01 -3.476292e-01 8.697027e-03
	endloop
endfacet
facet normal 1.685503e-15 -5.220944e-01 -8.528877e-01
	outer loop
		vertex 1.998036e-01 -3.476292e-01 8.697027e-03
		vertex 2.105706e-01 -3.476737e-01 8.724295e-03
		vertex 2.106855e-01 -3.479775e-01 8.910252e-03
	endloop
endfacet
facet normal -8.506508e-01 -4.373533e-16 5.257311e-01
	outer loop
		vertex 2.106855e-01 -3.479775e-01 8.910252e-03
		vertex 2.105706e-01 -3.476737e-01 8.724295e-03
		vertex 2.134671e-01 -8.680701e-01 1.341086e-02
	endloop
endfacet
facet normal 6.786683e-16 -5.220944e-01 -8.528877e-01
	outer loop
		vertex 2.646316e-01 -4.905680e-01 9.619686e-02
		vertex 1.378855e-01 -5.112914e-01 1.088827e-01
		vertex 1.414620e-01 -5.018378e-01 1.030957e-01
	endloop
endfacet
facet normal -7.348016e-16 5.220944e-01 8.528877e-01
	outer loop
		vertex 1.414620e-01 -5.018378e-01 1.030957e-01
		vertex 2.646316e-01 -4.905680e-01 9.619686e-02
		vertex 2.619230e-01 -4.834084e-01 9.181413e-02
	endloop
endfacet
facet normal 8.506508e-01 4.617132e-15 -5.257311e-01
	outer loop
		vertex 2.619230e-01 -4.834084e-01 9.181413e-02
		vertex 2.646316e-01 -4.905680e-01 9.619686e-02
		vertex 2.134671e-01 -8.680701e-01 1.341086e-02
	endloop
endfacet
facet normal 2.777180e-16 5.220944e-01 8.528877e-01
	outer loop
		vertex 2.646316e-01 -4.905680e-01 9.619686e-02
		vertex 1.378855e-01 -5.112914e-01 1.088827e-01
		vertex 1.362964e-01 -5.154917e-01 1.114539e-01
	endloop
endfacet
facet normal -7.470556e-16 -5.220944e-01 -8.528877e-01
	outer loop
		vertex 1.362964e-01 -5.154917e-01 1.114539e-01
		vertex 2.646316e-01 -4.905680e-01 9.619686e-02
		vertex 2.658214e-01 -4.937127e-01 9.812188e-02
	endloop
endfacet
facet normal -8.506508e-01 4.870499e-15 5.257311e-01
	outer loop
		vertex 2.658214e-01 -4.937127e-01 9.812188e-02
		vertex 2.646316e-01 -4.905680e-01 9.619686e-02
		vertex 2.134671e-01 -8.680701e-01 1.341086e-02
	endloop
endfacet
facet normal 2.310745e-15 -5.220944e-01 -8.528877e-01
	outer loop
		vertex 2.105706e-01 -3.476737e-01 8.724295e-03
		vertex 1.999174e-01 -3.473286e-01 8.513024e-03
		vertex 2.001031e-01 -3.468376e-01 8.212434e-03
	endloop
endfacet
facet normal -1.347894e-15 5.220944e-01 8.528877e-01
	outer loop
		vertex 2.001031e-01 -3.468376e-01 8.212434e-03
		vertex 2.105706e-01 -3.476737e-01 8.724295e-03
		vertex 2.103827e-01 -3.471771e-01 8.420280e-03
	endloop
endfacet
facet normal 8.506508e-01 -1.123219e-15 -5.257311e-01
	outer loop
		vertex 2.103827e-01 -3.471771e-01 8.420280e-03
		vertex 2.105706e-01 -3.476737e-01 8.724295e-03
		vertex 2.134671e-01 -8.680701e-01 1.341086e-02
	endloop
endfacet
facet normal 8.271454e-17 5.220944e-01 8.528877e-01
	outer loop
		vertex 2.176077e-01 -3.662741e-01 2.011052e-02
		vertex 1.928290e-01 -3.660645e-01 1.998222e-02
		vertex 1.925632e-01 -3.667673e-01 2.041238e-02
	endloop
endfacet
facet normal -1.019385e-16 -5.220944e-01 -8.528877e-01
	outer loop
		vertex 1.925632e-01 -3.667673e-01 2.041238e-02
		vertex 2.176077e-01 -3.662741e-01 2.011052e-02
		vertex 2.178667e-01 -3.669588e-01 2.052963e-02
	endloop
endfacet
facet normal -8.506508e-01 2.656419e-15 5.257311e-01
	outer loop
		vertex 2.178667e-01 -3.669588e-01 2.052963e-02
		vertex 2.176077e-01 -3.662741e-01 2.011052e-02
		vertex 2.134671e-01 -8.680701e-01 1.341086e-02
	endloop
endfacet
facet normal -4.058050e-16 -5.220944e-01 -8.528877e-01
	outer loop
		vertex 2.176077e-01 -3.662741e-01 2.011052e-02
		vertex 1.928290e-01 -3.660645e-01 1.998222e-02
		vertex 1.962090e-01 -3.571305e-01 1.451323e-02
	endloop
endfacet
facet normal -2.750259e-16 5.220944e-01 8.528877e-01
	outer loop
		vertex 1.962090e-01 -3.571305e-01 1.451323e-02
		vertex 2.176077e-01 -3.662741e-01 2.011052e-02
		vertex 2.142839e-01 -3.574887e-01 1.473253e-02
	endloop
endfacet
facet normal 8.506508e-01 2.586835e-17 -5.257311e-01
	outer loop
		vertex 2.142839e-01 -3.574887e-01 1.473253e-02
		vertex 2.176077e-01 -3.662741e-01 2.011052e-02
		vertex 2.134671e-01 -8.680701e-01 1.341086e-02
	endloop
endfacet
facet normal 4.252284e-16 5.220944e-01 8.528877e-01
	outer loop
		vertex 2.126437e-01 -3.531534e-01 1.207869e-02
		vertex 1.978557e-01 -3.527780e-01 1.184885e-02
		vertex 1.962090e-01 -3.571305e-01 1.451323e-02
	endloop
endfacet
facet normal 8.011763e-17 -5.220944e-01 -8.528877e-01
	outer loop
		vertex 1.962090e-01 -3.571305e-01 1.451323e-02
		vertex 2.126437e-01 -3.531534e-01 1.207869e-02
		vertex 2.142839e-01 -3.574887e-01 1.473253e-02
	endloop
endfacet
facet normal -8.506508e-01 2.356352e-17 5.257311e-01
	outer loop
		vertex 2.142839e-01 -3.574887e-01 1.473253e-02
		vertex 2.126437e-01 -3.531534e-01 1.207869e-02
		vertex 2.134671e-01 -8.680701e-01 1.341086e-02
	endloop
endfacet
facet normal 2.751783e-15 -5.220944e-01 -8.528877e-01
	outer loop
		vertex 2.126437e-01 -3.531534e-01 1.207869e-02
		vertex 1.978557e-01 -3.527780e-01 1.184885e-02
		vertex 1.979626e-01 -3.524955e-01 1.167595e-02
	endloop
endfacet
facet normal -4.788147e-15 5.220944e-01 8.528877e-01
	outer loop
		vertex 1.979626e-01 -3.524955e-01 1.167595e-02
		vertex 2.126437e-01 -3.531534e-01 1.207869e-02
		vertex 2.125368e-01 -3.528708e-01 1.190571e-02
	endloop
endfacet
facet normal 8.506508e-01 -2.310108e-16 -5.257311e-01
	outer loop
		vertex 2.125368e-01 -3.528708e-01 1.190571e-02
		vertex 2.126437e-01 -3.531534e-01 1.207869e-02
		vertex 2.134671e-01 -8.680701e-01 1.341086e-02
	endloop
endfacet
facet normal 3.480254e-16 -5.220944e-01 -8.528877e-01
	outer loop
		vertex 2.125368e-01 -3.528708e-01 1.190571e-02
		vertex 1.979626e-01 -3.524955e-01 1.167595e-02
		vertex 1.998036e-01 -3.476292e-01 8.697027e-03
	endloop
endfacet
facet normal -1.023127e-15 5.220944e-01 8.528877e-01
	outer loop
		vertex 1.998036e-01 -3.476292e-01 8.697027e-03
		vertex 2.125368e-01 -3.528708e-01 1.190571e-02
		vertex 2.106855e-01 -3.479775e-01 8.910252e-03
	endloop
endfacet
facet normal 8.506508e-01 -1.032082e-16 -5.257311e-01
	outer loop
		vertex 2.106855e-01 -3.479775e-01 8.910252e-03
		vertex 2.125368e-01 -3.528708e-01 1.190571e-02
		vertex 2.134671e-01 -8.680701e-01 1.341086e-02
	endloop
endfacet
facet normal -3.536868e-17 -5.220944e-01 -8.528877e-01
	outer loop
		vertex 2.103827e-01 -3.471771e-01 8.420280e-03
		vertex 2.001031e-01 -3.468376e-01 8.212434e-03
		vertex 2.030730e-01 -3.389876e-01 3.407122e-03
	endloop
endfacet
facet normal 2.343933e-15 5.220944e-01 8.528877e-01
	outer loop
		vertex 2.030730e-01 -3.389876e-01 3.407122e-03
		vertex 2.103827e-01 -3.471771e-01 8.420280e-03
		vertex 2.073544e-01 -3.391726e-01 3.520325e-03
	endloop
endfacet
facet normal 8.506508e-01 -3.441464e-17 -5.257311e-01
	outer loop
		vertex 2.073544e-01 -3.391726e-01 3.520325e-03
		vertex 2.103827e-01 -3.471771e-01 8.420280e-03
		vertex 2.134671e-01 -8.680701e-01 1.341086e-02
	endloop
endfacet
facet normal 8.506508e-01 1.516797e-16 5.257311e-01
	outer loop
		vertex 2.051787e-01 -4.536750e-01 3.469447e-17
		vertex 2.051787e-01 -3.334218e-01 0.000000e+00
		vertex 2.376026e-03 -9.985315e-01 3.281416e-01
	endloop
endfacet
facet normal 8.506508e-01 -1.516797e-16 -5.257311e-01
	outer loop
		vertex 2.051787e-01 -4.536750e-01 3.469447e-17
		vertex 2.051787e-01 -3.334218e-01 0.000000e+00
		vertex 2.134671e-01 -8.680701e-01 1.341086e-02
	endloop
endfacet
facet normal 1.662958e-15 5.220944e-01 8.528877e-01
	outer loop
		vertex 2.073544e-01 -3.391726e-01 3.520325e-03
		vertex 2.051787e-01 -3.334218e-01 2.818926e-17
		vertex 2.030730e-01 -3.389876e-01 3.407122e-03
	endloop
endfacet
facet normal -8.506508e-01 0.000000e+00 5.257311e-01
	outer loop
		vertex 2.073544e-01 -3.391726e-01 3.520325e-03
		vertex 2.051787e-01 -3.334218e-01 2.818926e-17
		vertex 2.134671e-01 -8.680701e-01 1.341086e-02
	endloop
endfacet
facet normal 8.506508e-01 1.656934e-14 5.257311e-01
	outer loop
		vertex 2.051787e-01 -3.334218e-01 2.818926e-17
		vertex 2.030730e-01 -3.389876e-01 3.407122e-03
		vertex 2.376026e-03 -9.985315e-01 3.281416e-01
	endloop
endfacet
facet normal 1.000000e+00 0.000000e+00 0.000000e+00
	outer loop
		vertex 2.376026e-03 -9.985315e-01 3.281416e-01
		vertex 2.051787e-01 -3.334218e-01 0.000000e+00
		vertex 2.051787e-01 -3.334218e-01 2.818926e-17
	endloop
endfacet
facet normal 8.506508e-01 2.328098e-14 5.257311e-01
	outer loop
		vertex 2.051787e-01 -3.334218e-01 0.000000e+00
		vertex 2.030730e-01 -3.389876e-01 3.407122e-03
		vertex 2.376026e-03 -9.985315e-01 3.281416e-01
	endloop
endfacet
facet normal 1.000000e+00 0.000000e+00 0.000000e+00
	outer loop
		vertex 2.376026e-03 -9.985315e-01 3.281416e-01
		vertex 2.051787e-01 -3.334218e-01 0.000000e+00
		vertex 2.051787e-01 -3.334218e-01 2.818926e-17
	endloop
endfacet
facet normal -7.122747e-01 -2.863351e-02 -7.013166e-01
	outer loop
		vertex 2.051787e-01 -3.334218e-01 2.818926e-17
		vertex 2.051787e-01 -3.334218e-01 0.000000e+00
		vertex 2.134671e-01 -8.680701e-01 1.341086e-02
	endloop
endfacet
facet normal -5.257311e-01 8.506508e-01 1.168689e-16
	outer loop
		vertex 2.795733e-01 -8.272142e-01 1.203730e-01
		vertex 2.225235e-01 -8.624729e-01 2.806452e-02
		vertex 1.957142e-02 -9.879042e-01 3.636533e-01
	endloop
endfacet
facet normal 5.298129e-01 6.622662e-01 -5.298129e-01
	outer loop
		vertex 2.795733e-01 -8.272142e-01 1.203730e-01
		vertex 2.225235e-01 -8.624729e-01 2.806452e-02
		vertex 2.134671e-01 -8.680701e-01 1.341086e-02
	endloop
endfacet
facet normal -5.257311e-01 8.506508e-01 2.154178e-15
	outer loop
		vertex 2.206233e-01 -8.636473e-01 2.498995e-02
		vertex 1.544465e-02 -9.904547e-01 3.569760e-01
		vertex 1.957142e-02 -9.879042e-01 3.636533e-01
	endloop
endfacet
facet normal -5.257311e-01 8.506508e-01 4.678374e-15
	outer loop
		vertex 1.957142e-02 -9.879042e-01 3.636533e-01
		vertex 2.225235e-01 -8.624729e-01 2.806452e-02
		vertex 2.206233e-01 -8.636473e-01 2.498995e-02
	endloop
endfacet
facet normal 8.528260e-01 -3.426533e-01 -3.940513e-01
	outer loop
		vertex 2.206233e-01 -8.636473e-01 2.498995e-02
		vertex 2.225235e-01 -8.624729e-01 2.806452e-02
		vertex 2.134671e-01 -8.680701e-01 1.341086e-02
	endloop
endfacet
facet normal -1.078903e-15 -5.220944e-01 -8.528877e-01
	outer loop
		vertex 3.654767e-01 -7.571218e-01 2.593675e-01
		vertex 3.311565e-02 -9.632820e-01 3.855683e-01
		vertex 2.552990e-02 -9.432314e-01 3.732943e-01
	endloop
endfacet
facet normal -1.105069e-15 5.220944e-01 8.528877e-01
	outer loop
		vertex 2.552990e-02 -9.432314e-01 3.732943e-01
		vertex 3.654767e-01 -7.571218e-01 2.593675e-01
		vertex 3.605393e-01 -7.440712e-01 2.513786e-01
	endloop
endfacet
facet normal 8.506508e-01 -2.701828e-16 -5.257311e-01
	outer loop
		vertex 3.605393e-01 -7.440712e-01 2.513786e-01
		vertex 3.654767e-01 -7.571218e-01 2.593675e-01
		vertex 2.134671e-01 -8.680701e-01 1.341086e-02
	endloop
endfacet
facet normal -3.299587e-15 -5.220944e-01 -8.528877e-01
	outer loop
		vertex 3.687056e-01 -7.656564e-01 2.645920e-01
		vertex 3.807644e-02 -9.763944e-01 3.935951e-01
		vertex 3.311565e-02 -9.632820e-01 3.855683e-01
	endloop
endfacet
facet normal 5.069416e-15 5.220944e-01 8.528877e-01
	outer loop
		vertex 3.311565e-02 -9.632820e-01 3.855683e-01
		vertex 3.687056e-01 -7.656564e-01 2.645920e-01
		vertex 3.654767e-01 -7.571218e-01 2.593675e-01
	endloop
endfacet
facet normal 8.506508e-01 7.539939e-15 -5.257311e-01
	outer loop
		vertex 3.654767e-01 -7.571218e-01 2.593675e-01
		vertex 3.687056e-01 -7.656564e-01 2.645920e-01
		vertex 2.134671e-01 -8.680701e-01 1.341086e-02
	endloop
endfacet
facet normal -5.257311e-01 8.506508e-01 -1.609409e-16
	outer loop
		vertex 3.657645e-01 -7.739451e-01 2.598333e-01
		vertex 2.829099e-01 -8.251521e-01 1.257717e-01
		vertex 2.560520e-02 -9.841751e-01 3.734162e-01
	endloop
endfacet
facet normal -1.184698e-01 9.477582e-01 -2.961744e-01
	outer loop
		vertex 3.657645e-01 -7.739451e-01 2.598333e-01
		vertex 2.829099e-01 -8.251521e-01 1.257717e-01
		vertex 2.134671e-01 -8.680701e-01 1.341086e-02
	endloop
endfacet
facet normal 5.257311e-01 -8.506508e-01 0.000000e+00
	outer loop
		vertex 2.829099e-01 -8.251521e-01 1.257717e-01
		vertex 2.560520e-02 -9.841751e-01 3.734162e-01
		vertex 1.957142e-02 -9.879042e-01 3.636533e-01
	endloop
endfacet
facet normal 5.257311e-01 -8.506508e-01 5.328615e-15
	outer loop
		vertex 1.957142e-02 -9.879042e-01 3.636533e-01
		vertex 2.795733e-01 -8.272142e-01 1.203730e-01
		vertex 2.829099e-01 -8.251521e-01 1.257717e-01
	endloop
endfacet
facet normal 7.832965e-01 -5.597208e-01 -2.704796e-01
	outer loop
		vertex 2.829099e-01 -8.251521e-01 1.257717e-01
		vertex 2.795733e-01 -8.272142e-01 1.203730e-01
		vertex 2.134671e-01 -8.680701e-01 1.341086e-02
	endloop
endfacet
facet normal 5.257311e-01 -8.506508e-01 -1.423090e-15
	outer loop
		vertex 3.706898e-01 -7.709011e-01 2.678025e-01
		vertex 3.809884e-02 -9.764536e-01 3.936313e-01
		vertex 2.560520e-02 -9.841751e-01 3.734162e-01
	endloop
endfacet
facet normal -5.257311e-01 8.506508e-01 -7.219717e-15
	outer loop
		vertex 2.560520e-02 -9.841751e-01 3.734162e-01
		vertex 3.706898e-01 -7.709011e-01 2.678025e-01
		vertex 3.657645e-01 -7.739451e-01 2.598333e-01
	endloop
endfacet
facet normal -8.397411e-01 4.028278e-01 3.640944e-01
	outer loop
		vertex 3.657645e-01 -7.739451e-01 2.598333e-01
		vertex 3.706898e-01 -7.709011e-01 2.678025e-01
		vertex 2.134671e-01 -8.680701e-01 1.341086e-02
	endloop
endfacet
facet normal 2.423867e-15 5.220944e-01 8.528877e-01
	outer loop
		vertex 3.706898e-01 -7.709011e-01 2.678025e-01
		vertex 3.687201e-01 -7.656949e-01 2.646156e-01
		vertex 3.809884e-02 -9.764536e-01 3.936313e-01
	endloop
endfacet
facet normal -8.506508e-01 7.224333e-15 5.257311e-01
	outer loop
		vertex 3.706898e-01 -7.709011e-01 2.678025e-01
		vertex 3.687201e-01 -7.656949e-01 2.646156e-01
		vertex 2.134671e-01 -8.680701e-01 1.341086e-02
	endloop
endfacet
facet normal -2.435838e-13 5.220944e-01 8.528877e-01
	outer loop
		vertex 3.687056e-01 -7.656564e-01 2.645920e-01
		vertex 3.807644e-02 -9.763944e-01 3.935951e-01
		vertex 3.809884e-02 -9.764536e-01 3.936313e-01
	endloop
endfacet
facet normal -3.742370e-13 5.220944e-01 8.528877e-01
	outer loop
		vertex 3.809884e-02 -9.764536e-01 3.936313e-01
		vertex 3.687201e-01 -7.656949e-01 2.646156e-01
		vertex 3.687056e-01 -7.656564e-01 2.645920e-01
	endloop
endfacet
facet normal 8.506508e-01 -3.073785e-14 -5.257311e-01
	outer loop
		vertex 3.687056e-01 -7.656564e-01 2.645920e-01
		vertex 3.687201e-01 -7.656949e-01 2.646156e-01
		vertex 2.134671e-01 -8.680701e-01 1.341086e-02
	endloop
endfacet
facet normal 5.257311e-01 -8.506508e-01 2.074278e-15
	outer loop
		vertex 2.144600e-01 -8.674565e-01 1.501740e-02
		vertex 2.059231e-03 -9.987273e-01 3.353180e-01
		vertex 2.376026e-03 -9.985315e-01 3.281416e-01
	endloop
endfacet
facet normal -5.257311e-01 8.506508e-01 1.811661e-14
	outer loop
		vertex 2.376026e-03 -9.985315e-01 3.281416e-01
		vertex 2.144600e-01 -8.674565e-01 1.501740e-02
		vertex 2.134671e-01 -8.680701e-01 1.341086e-02
	endloop
endfacet
facet normal 0.000000e+00 0.000000e+00 0.000000e+00
	outer loop
		vertex 2.134671e-01 -8.680701e-01 1.341086e-02
		vertex 2.144600e-01 -8.674565e-01 1.501740e-02
		vertex 2.134671e-01 -8.680701e-01 1.341086e-02
	endloop
endfacet
facet normal 5.257311e-01 -8.506508e-01 -3.320701e-16
	outer loop
		vertex 2.206233e-01 -8.636473e-01 2.498995e-02
		vertex 1.544465e-02 -9.904547e-01 3.569760e-01
		vertex 2.059231e-03 -9.987273e-01 3.353180e-01
	endloop
endfacet
facet normal 5.257311e-01 -8.506508e-01 2.163537e-15
	outer loop
		vertex 2.059231e-03 -9.987273e-01 3.353180e-01
		vertex 2.144600e-01 -8.674565e-01 1.501740e-02
		vertex 2.206233e-01 -8.636473e-01 2.498995e-02
	endloop
endfacet
facet normal 8.595214e-01 -3.019940e-01 -4.123380e-01
	outer loop
		vertex 2.206233e-01 -8.636473e-01 2.498995e-02
		vertex 2.144600e-01 -8.674565e-01 1.501740e-02
		vertex 2.134671e-01 -8.680701e-01 1.341086e-02
	endloop
endfacet
facet normal 4.085288e-15 -5.220944e-01 -8.528877e-01
	outer loop
		vertex 3.605393e-01 -7.440712e-01 2.513786e-01
		vertex 2.552990e-02 -9.432314e-01 3.732943e-01
		vertex 2.419433e-02 -9.397012e-01 3.711333e-01
	endloop
endfacet
facet normal -1.255310e-14 5.220944e-01 8.528877e-01
	outer loop
		vertex 2.419433e-02 -9.397012e-01 3.711333e-01
		vertex 3.605393e-01 -7.440712e-01 2.513786e-01
		vertex 3.596700e-01 -7.417735e-01 2.499721e-01
	endloop
endfacet
facet normal 8.506508e-01 1.160526e-14 -5.257311e-01
	outer loop
		vertex 3.596700e-01 -7.417735e-01 2.499721e-01
		vertex 3.605393e-01 -7.440712e-01 2.513786e-01
		vertex 2.134671e-01 -8.680701e-01 1.341086e-02
	endloop
endfacet
facet normal 0.000000e+00 -5.220944e-01 -8.528877e-01
	outer loop
		vertex 3.596700e-01 -7.417735e-01 2.499721e-01
		vertex 2.419433e-02 -9.397012e-01 3.711333e-01
		vertex 1.362964e-01 -5.154917e-01 1.114539e-01
	endloop
endfacet
facet normal 2.164692e-17 -5.220944e-01 -8.528877e-01
	outer loop
		vertex 1.362964e-01 -5.154917e-01 1.114539e-01
		vertex 2.658214e-01 -4.937127e-01 9.812188e-02
		vertex 3.596700e-01 -7.417735e-01 2.499721e-01
	endloop
endfacet
facet normal -8.506508e-01 1.137156e-16 5.257311e-01
	outer loop
		vertex 3.596700e-01 -7.417735e-01 2.499721e-01
		vertex 2.658214e-01 -4.937127e-01 9.812188e-02
		vertex 2.134671e-01 -8.680701e-01 1.341086e-02
	endloop
endfacet
endsolid MIKE666
