solid MIKE666
facet normal 5.257311e-01 -8.506508e-01 0.000000e+00
	outer loop
		vertex -6.180340e-01 6.180340e-01 1.742251e-01
		vertex -4.074830e-01 7.481617e-01 2.538826e-01
		vertex -6.180340e-01 6.180340e-01 5.824328e-01
	endloop
endfacet
facet normal 5.257311e-01 -8.506508e-01 -8.108394e-16
	outer loop
		vertex -3.957253e-01 7.554283e-01 2.583309e-01
		vertex -6.002009e-01 6.290554e-01 5.891795e-01
		vertex -6.180340e-01 6.180340e-01 5.824328e-01
	endloop
endfacet
facet normal 5.257311e-01 -8.506508e-01 -3.074523e-15
	outer loop
		vertex -6.180340e-01 6.180340e-01 5.824328e-01
		vertex -4.074830e-01 7.481617e-01 2.538826e-01
		vertex -3.957253e-01 7.554283e-01 2.583309e-01
	endloop
endfacet
facet normal -5.861314e-16 -5.220944e-01 8.528877e-01
	outer loop
		vertex -5.694894e-01 6.295252e-01 5.894671e-01
		vertex -5.751655e-01 6.445282e-01 5.986511e-01
		vertex -6.002009e-01 6.290554e-01 5.891795e-01
	endloop
endfacet
facet normal 1.051965e-15 5.220944e-01 -8.528877e-01
	outer loop
		vertex -5.656245e-01 6.193094e-01 5.832135e-01
		vertex -6.180340e-01 6.180340e-01 5.824328e-01
		vertex -6.002009e-01 6.290554e-01 5.891795e-01
	endloop
endfacet
facet normal -4.698378e-16 5.220944e-01 -8.528877e-01
	outer loop
		vertex -6.002009e-01 6.290554e-01 5.891795e-01
		vertex -5.693156e-01 6.290658e-01 5.891859e-01
		vertex -5.656245e-01 6.193094e-01 5.832135e-01
	endloop
endfacet
facet normal 4.971472e-16 -5.220944e-01 8.528877e-01
	outer loop
		vertex -5.693156e-01 6.290658e-01 5.891859e-01
		vertex -5.694894e-01 6.295252e-01 5.894671e-01
		vertex -6.002009e-01 6.290554e-01 5.891795e-01
	endloop
endfacet
facet normal -5.257311e-01 8.506508e-01 -7.941588e-16
	outer loop
		vertex -3.706898e-01 7.709011e-01 2.678025e-01
		vertex -3.957253e-01 7.554283e-01 2.583309e-01
		vertex -6.002009e-01 6.290554e-01 5.891795e-01
	endloop
endfacet
facet normal -5.257311e-01 8.506508e-01 8.539388e-16
	outer loop
		vertex -6.002009e-01 6.290554e-01 5.891795e-01
		vertex -5.608513e-01 6.533749e-01 5.754903e-01
		vertex -3.706898e-01 7.709011e-01 2.678025e-01
	endloop
endfacet
facet normal -5.257311e-01 8.506508e-01 -7.865359e-14
	outer loop
		vertex -5.609331e-01 6.533243e-01 5.756227e-01
		vertex -5.608513e-01 6.533749e-01 5.754903e-01
		vertex -6.002009e-01 6.290554e-01 5.891795e-01
	endloop
endfacet
facet normal 1.048344e-15 -5.220944e-01 8.528877e-01
	outer loop
		vertex -3.698120e-01 7.685810e-01 2.663823e-01
		vertex -3.706898e-01 7.709011e-01 2.678025e-01
		vertex -3.957253e-01 7.554283e-01 2.583309e-01
	endloop
endfacet
facet normal -5.257311e-01 8.506508e-01 9.128232e-16
	outer loop
		vertex -5.751655e-01 6.445282e-01 5.986511e-01
		vertex -5.610148e-01 6.532738e-01 5.757548e-01
		vertex -6.002009e-01 6.290554e-01 5.891795e-01
	endloop
endfacet
facet normal 5.257311e-01 -8.506508e-01 3.018912e-12
	outer loop
		vertex -5.610017e-01 6.532819e-01 5.757336e-01
		vertex -5.610148e-01 6.532738e-01 5.757548e-01
		vertex -6.002009e-01 6.290554e-01 5.891795e-01
	endloop
endfacet
facet normal -5.257311e-01 8.506508e-01 3.035881e-13
	outer loop
		vertex -5.610017e-01 6.532819e-01 5.757336e-01
		vertex -5.609331e-01 6.533243e-01 5.756227e-01
		vertex -6.002009e-01 6.290554e-01 5.891795e-01
	endloop
endfacet
facet normal 5.937771e-16 5.220944e-01 -8.528877e-01
	outer loop
		vertex -3.650198e-01 7.559143e-01 2.586284e-01
		vertex -6.180340e-01 6.180340e-01 1.742251e-01
		vertex -4.074830e-01 7.481617e-01 2.538826e-01
	endloop
endfacet
facet normal 8.423243e-16 5.220944e-01 -8.528877e-01
	outer loop
		vertex -4.074830e-01 7.481617e-01 2.538826e-01
		vertex -3.693656e-01 7.674010e-01 2.656600e-01
		vertex -3.650198e-01 7.559143e-01 2.586284e-01
	endloop
endfacet
facet normal -1.867817e-14 -5.220944e-01 8.528877e-01
	outer loop
		vertex -3.693656e-01 7.674010e-01 2.656600e-01
		vertex -3.694349e-01 7.675842e-01 2.657721e-01
		vertex -4.074830e-01 7.481617e-01 2.538826e-01
	endloop
endfacet
facet normal 1.236306e-14 -5.220944e-01 8.528877e-01
	outer loop
		vertex -3.698120e-01 7.685810e-01 2.663823e-01
		vertex -3.957253e-01 7.554283e-01 2.583309e-01
		vertex -4.074830e-01 7.481617e-01 2.538826e-01
	endloop
endfacet
facet normal -1.038101e-15 -5.220944e-01 8.528877e-01
	outer loop
		vertex -4.074830e-01 7.481617e-01 2.538826e-01
		vertex -3.694408e-01 7.675999e-01 2.657817e-01
		vertex -3.698120e-01 7.685810e-01 2.663823e-01
	endloop
endfacet
facet normal -1.477933e-12 5.220944e-01 -8.528877e-01
	outer loop
		vertex -3.694408e-01 7.675999e-01 2.657817e-01
		vertex -3.694349e-01 7.675842e-01 2.657721e-01
		vertex -4.074830e-01 7.481617e-01 2.538826e-01
	endloop
endfacet
facet normal -9.179058e-17 3.752748e-01 9.269136e-01
	outer loop
		vertex -2.051787e-01 3.334218e-01 2.256239e-17
		vertex -2.051787e-01 3.334218e-01 8.786896e-20
		vertex -2.060660e-01 3.334218e-01 0.000000e+00
	endloop
endfacet
facet normal 1.097570e-14 5.220944e-01 8.528877e-01
	outer loop
		vertex -2.060660e-01 3.334218e-01 0.000000e+00
		vertex -2.054408e-01 3.327290e-01 4.240888e-04
		vertex -2.051787e-01 3.334218e-01 2.256239e-17
	endloop
endfacet
facet normal 8.944272e-01 4.472136e-01 0.000000e+00
	outer loop
		vertex -2.051787e-01 3.334218e-01 2.256239e-17
		vertex -2.051787e-01 3.334218e-01 2.256239e-17
		vertex -2.051787e-01 3.334218e-01 8.786896e-20
	endloop
endfacet
facet normal 1.164305e-16 5.220944e-01 -8.528877e-01
	outer loop
		vertex -2.055094e-01 3.342959e-01 5.350766e-04
		vertex -2.051787e-01 3.334218e-01 8.786896e-20
		vertex -2.060660e-01 3.334218e-01 0.000000e+00
	endloop
endfacet
facet normal 1.383445e-15 5.220944e-01 -8.528877e-01
	outer loop
		vertex -2.056207e-01 3.345902e-01 7.152045e-04
		vertex -2.055094e-01 3.342959e-01 5.350766e-04
		vertex -2.060660e-01 3.334218e-01 0.000000e+00
	endloop
endfacet
facet normal 5.257311e-01 -8.506508e-01 0.000000e+00
	outer loop
		vertex -6.430239e-01 6.025894e-01 1.647707e-01
		vertex -6.180340e-01 6.180340e-01 1.742251e-01
		vertex -6.180340e-01 6.180340e-01 5.824328e-01
	endloop
endfacet
facet normal 5.257311e-01 -8.506508e-01 -9.237268e-17
	outer loop
		vertex -6.180340e-01 6.180340e-01 5.824328e-01
		vertex -6.430239e-01 6.025894e-01 5.443274e-01
		vertex -6.430239e-01 6.025894e-01 1.647707e-01
	endloop
endfacet
facet normal 0.000000e+00 0.000000e+00 0.000000e+00
	outer loop
		vertex -6.430239e-01 6.025894e-01 1.647707e-01
		vertex -6.430239e-01 6.025894e-01 5.443274e-01
		vertex -6.430239e-01 6.025894e-01 5.443274e-01
	endloop
endfacet
facet normal 5.257311e-01 -8.506508e-01 0.000000e+00
	outer loop
		vertex -6.430239e-01 6.025894e-01 5.729783e-01
		vertex -6.430239e-01 6.025894e-01 5.444834e-01
		vertex -6.180340e-01 6.180340e-01 5.824328e-01
	endloop
endfacet
facet normal 0.000000e+00 -1.000000e+00 0.000000e+00
	outer loop
		vertex -6.430239e-01 6.025894e-01 5.729783e-01
		vertex -6.430239e-01 6.025894e-01 5.444834e-01
		vertex -6.430239e-01 6.025894e-01 5.443274e-01
	endloop
endfacet
facet normal -5.257311e-01 8.506508e-01 0.000000e+00
	outer loop
		vertex -6.430239e-01 6.025894e-01 5.443274e-01
		vertex -6.430239e-01 6.025894e-01 5.444834e-01
		vertex -6.180340e-01 6.180340e-01 5.824328e-01
	endloop
endfacet
facet normal -7.071068e-01 7.071068e-01 0.000000e+00
	outer loop
		vertex -6.430239e-01 6.025894e-01 5.443274e-01
		vertex -6.430239e-01 6.025894e-01 5.444834e-01
		vertex -6.430239e-01 6.025894e-01 5.443274e-01
	endloop
endfacet
facet normal -3.050394e-15 5.220944e-01 8.528877e-01
	outer loop
		vertex -2.075017e-01 3.334218e-01 2.262078e-17
		vertex -2.063365e-01 3.327017e-01 4.408410e-04
		vertex -2.060660e-01 3.334218e-01 2.775558e-17
	endloop
endfacet
facet normal -5.257311e-01 -8.506508e-01 6.139113e-15
	outer loop
		vertex -2.075017e-01 3.334218e-01 2.262078e-17
		vertex -2.063365e-01 3.327017e-01 4.408410e-04
		vertex -6.430239e-01 6.025894e-01 5.443274e-01
	endloop
endfacet
facet normal -1.028377e-11 -5.220944e-01 -8.528877e-01
	outer loop
		vertex -2.063346e-01 3.327005e-01 4.415287e-04
		vertex -2.063365e-01 3.327017e-01 4.408410e-04
		vertex -2.060660e-01 3.334218e-01 2.775558e-17
	endloop
endfacet
facet normal 5.257311e-01 8.506508e-01 -5.351743e-12
	outer loop
		vertex -2.063346e-01 3.327005e-01 4.415287e-04
		vertex -2.063365e-01 3.327017e-01 4.408410e-04
		vertex -6.430239e-01 6.025894e-01 5.443274e-01
	endloop
endfacet
facet normal -8.506508e-01 9.084489e-14 -5.257311e-01
	outer loop
		vertex -5.315645e-01 5.337037e-01 5.281033e-01
		vertex -5.694894e-01 6.295252e-01 5.894671e-01
		vertex -5.751655e-01 6.445282e-01 5.986511e-01
	endloop
endfacet
facet normal 8.506508e-01 -2.664232e-13 5.257311e-01
	outer loop
		vertex -5.751655e-01 6.445282e-01 5.986511e-01
		vertex -5.315645e-01 5.337037e-01 5.281033e-01
		vertex -5.312788e-01 5.335271e-01 5.276411e-01
	endloop
endfacet
facet normal -5.257311e-01 -8.506508e-01 -1.575514e-13
	outer loop
		vertex -5.312788e-01 5.335271e-01 5.276411e-01
		vertex -5.315645e-01 5.337037e-01 5.281033e-01
		vertex -6.430239e-01 6.025894e-01 5.443274e-01
	endloop
endfacet
facet normal -1.025561e-15 -5.220944e-01 8.528877e-01
	outer loop
		vertex -6.413469e-01 6.015529e-01 5.723439e-01
		vertex -5.656245e-01 6.193094e-01 5.832135e-01
		vertex -6.180340e-01 6.180340e-01 5.824328e-01
	endloop
endfacet
facet normal -2.186761e-14 5.220944e-01 -8.528877e-01
	outer loop
		vertex -6.180340e-01 6.180340e-01 5.824328e-01
		vertex -6.413469e-01 6.015529e-01 5.723439e-01
		vertex -6.430239e-01 6.025894e-01 5.729783e-01
	endloop
endfacet
facet normal 5.257311e-01 8.506508e-01 2.037206e-15
	outer loop
		vertex -6.430239e-01 6.025894e-01 5.729783e-01
		vertex -6.413469e-01 6.015529e-01 5.723439e-01
		vertex -6.430239e-01 6.025894e-01 5.443274e-01
	endloop
endfacet
facet normal 1.686027e-16 -5.220944e-01 8.528877e-01
	outer loop
		vertex -6.399489e-01 6.006889e-01 5.718150e-01
		vertex -5.603650e-01 6.054075e-01 5.747035e-01
		vertex -5.656245e-01 6.193094e-01 5.832135e-01
	endloop
endfacet
facet normal -5.379275e-15 -5.220944e-01 8.528877e-01
	outer loop
		vertex -5.656245e-01 6.193094e-01 5.832135e-01
		vertex -6.413469e-01 6.015529e-01 5.723439e-01
		vertex -6.399489e-01 6.006889e-01 5.718150e-01
	endloop
endfacet
facet normal -5.257311e-01 -8.506508e-01 -3.076127e-15
	outer loop
		vertex -6.399489e-01 6.006889e-01 5.718150e-01
		vertex -6.413469e-01 6.015529e-01 5.723439e-01
		vertex -6.430239e-01 6.025894e-01 5.443274e-01
	endloop
endfacet
facet normal 8.506508e-01 -1.242882e-13 5.257311e-01
	outer loop
		vertex -5.317673e-01 5.338290e-01 5.284314e-01
		vertex -5.656245e-01 6.193094e-01 5.832135e-01
		vertex -5.603650e-01 6.054075e-01 5.747035e-01
	endloop
endfacet
facet normal -8.506508e-01 1.545717e-13 -5.257311e-01
	outer loop
		vertex -5.603650e-01 6.054075e-01 5.747035e-01
		vertex -5.317673e-01 5.338290e-01 5.284314e-01
		vertex -5.320546e-01 5.340065e-01 5.288963e-01
	endloop
endfacet
facet normal 5.257311e-01 8.506508e-01 1.277999e-13
	outer loop
		vertex -5.320546e-01 5.340065e-01 5.288963e-01
		vertex -5.317673e-01 5.338290e-01 5.284314e-01
		vertex -6.430239e-01 6.025894e-01 5.443274e-01
	endloop
endfacet
facet normal 5.771036e-16 5.220944e-01 -8.528877e-01
	outer loop
		vertex -6.399489e-01 6.006889e-01 5.718150e-01
		vertex -5.603650e-01 6.054075e-01 5.747035e-01
		vertex -5.596899e-01 6.036229e-01 5.736110e-01
	endloop
endfacet
facet normal -1.190190e-14 -5.220944e-01 8.528877e-01
	outer loop
		vertex -5.596899e-01 6.036229e-01 5.736110e-01
		vertex -6.399489e-01 6.006889e-01 5.718150e-01
		vertex -6.397317e-01 6.005547e-01 5.717328e-01
	endloop
endfacet
facet normal -5.257311e-01 -8.506508e-01 -3.345392e-14
	outer loop
		vertex -6.397317e-01 6.005547e-01 5.717328e-01
		vertex -6.399489e-01 6.006889e-01 5.718150e-01
		vertex -6.430239e-01 6.025894e-01 5.443274e-01
	endloop
endfacet
facet normal 8.506508e-01 1.181726e-12 5.257311e-01
	outer loop
		vertex -5.320546e-01 5.340065e-01 5.288963e-01
		vertex -5.603650e-01 6.054075e-01 5.747035e-01
		vertex -5.596899e-01 6.036229e-01 5.736110e-01
	endloop
endfacet
facet normal -8.506508e-01 -1.145669e-12 -5.257311e-01
	outer loop
		vertex -5.596899e-01 6.036229e-01 5.736110e-01
		vertex -5.320546e-01 5.340065e-01 5.288963e-01
		vertex -5.320925e-01 5.340300e-01 5.289576e-01
	endloop
endfacet
facet normal 5.257311e-01 8.506508e-01 4.740240e-13
	outer loop
		vertex -5.320925e-01 5.340300e-01 5.289576e-01
		vertex -5.320546e-01 5.340065e-01 5.288963e-01
		vertex -6.430239e-01 6.025894e-01 5.443274e-01
	endloop
endfacet
facet normal -8.506508e-01 -4.619897e-14 -5.257311e-01
	outer loop
		vertex -5.317673e-01 5.338290e-01 5.284314e-01
		vertex -5.656245e-01 6.193094e-01 5.832135e-01
		vertex -5.693156e-01 6.290658e-01 5.891859e-01
	endloop
endfacet
facet normal 8.506508e-01 1.796826e-13 5.257311e-01
	outer loop
		vertex -5.693156e-01 6.290658e-01 5.891859e-01
		vertex -5.317673e-01 5.338290e-01 5.284314e-01
		vertex -5.315735e-01 5.337092e-01 5.281178e-01
	endloop
endfacet
facet normal -5.257311e-01 -8.506508e-01 -4.037310e-14
	outer loop
		vertex -5.315735e-01 5.337092e-01 5.281178e-01
		vertex -5.317673e-01 5.338290e-01 5.284314e-01
		vertex -6.430239e-01 6.025894e-01 5.443274e-01
	endloop
endfacet
facet normal -8.506508e-01 3.277195e-12 -5.257311e-01
	outer loop
		vertex -5.315735e-01 5.337092e-01 5.281178e-01
		vertex -5.693156e-01 6.290658e-01 5.891859e-01
		vertex -5.694894e-01 6.295252e-01 5.894671e-01
	endloop
endfacet
facet normal 8.506508e-01 -3.511628e-12 5.257311e-01
	outer loop
		vertex -5.694894e-01 6.295252e-01 5.894671e-01
		vertex -5.315735e-01 5.337092e-01 5.281178e-01
		vertex -5.315645e-01 5.337037e-01 5.281033e-01
	endloop
endfacet
facet normal -5.257311e-01 -8.506508e-01 -4.476755e-12
	outer loop
		vertex -5.315645e-01 5.337037e-01 5.281033e-01
		vertex -5.315735e-01 5.337092e-01 5.281178e-01
		vertex -6.430239e-01 6.025894e-01 5.443274e-01
	endloop
endfacet
facet normal 5.437678e-17 -5.220944e-01 8.528877e-01
	outer loop
		vertex -6.397317e-01 6.005547e-01 5.717328e-01
		vertex -6.334097e-01 5.966475e-01 5.693410e-01
		vertex -5.596899e-01 6.036229e-01 5.736110e-01
	endloop
endfacet
facet normal 5.257311e-01 8.506508e-01 3.158483e-15
	outer loop
		vertex -6.397317e-01 6.005547e-01 5.717328e-01
		vertex -6.334097e-01 5.966475e-01 5.693410e-01
		vertex -6.430239e-01 6.025894e-01 5.443274e-01
	endloop
endfacet
facet normal -2.096686e-15 -5.220944e-01 8.528877e-01
	outer loop
		vertex -6.323531e-01 5.959944e-01 5.689413e-01
		vertex -5.581646e-01 5.995913e-01 5.711431e-01
		vertex -5.596899e-01 6.036229e-01 5.736110e-01
	endloop
endfacet
facet normal 2.394480e-15 -5.220944e-01 8.528877e-01
	outer loop
		vertex -5.596899e-01 6.036229e-01 5.736110e-01
		vertex -6.334097e-01 5.966475e-01 5.693410e-01
		vertex -6.323531e-01 5.959944e-01 5.689413e-01
	endloop
endfacet
facet normal -5.257311e-01 -8.506508e-01 -2.951207e-15
	outer loop
		vertex -6.323531e-01 5.959944e-01 5.689413e-01
		vertex -6.334097e-01 5.966475e-01 5.693410e-01
		vertex -6.430239e-01 6.025894e-01 5.443274e-01
	endloop
endfacet
facet normal 8.506508e-01 6.465255e-13 5.257311e-01
	outer loop
		vertex -5.320925e-01 5.340300e-01 5.289576e-01
		vertex -5.596899e-01 6.036229e-01 5.736110e-01
		vertex -5.581646e-01 5.995913e-01 5.711431e-01
	endloop
endfacet
facet normal -8.506508e-01 -4.800831e-13 -5.257311e-01
	outer loop
		vertex -5.581646e-01 5.995913e-01 5.711431e-01
		vertex -5.320925e-01 5.340300e-01 5.289576e-01
		vertex -5.321789e-01 5.340834e-01 5.290974e-01
	endloop
endfacet
facet normal 5.257311e-01 8.506508e-01 3.018938e-13
	outer loop
		vertex -5.321789e-01 5.340834e-01 5.290974e-01
		vertex -5.320925e-01 5.340300e-01 5.289576e-01
		vertex -6.430239e-01 6.025894e-01 5.443274e-01
	endloop
endfacet
facet normal -5.718899e-15 5.220944e-01 -8.528877e-01
	outer loop
		vertex -6.323531e-01 5.959944e-01 5.689413e-01
		vertex -5.581646e-01 5.995913e-01 5.711431e-01
		vertex -5.579609e-01 5.990529e-01 5.708135e-01
	endloop
endfacet
facet normal 1.795262e-14 -5.220944e-01 8.528877e-01
	outer loop
		vertex -5.579609e-01 5.990529e-01 5.708135e-01
		vertex -6.323531e-01 5.959944e-01 5.689413e-01
		vertex -6.322037e-01 5.959021e-01 5.688847e-01
	endloop
endfacet
facet normal -5.257311e-01 -8.506508e-01 -9.677552e-14
	outer loop
		vertex -6.322037e-01 5.959021e-01 5.688847e-01
		vertex -6.323531e-01 5.959944e-01 5.689413e-01
		vertex -6.430239e-01 6.025894e-01 5.443274e-01
	endloop
endfacet
facet normal 8.506508e-01 -1.232969e-12 5.257311e-01
	outer loop
		vertex -5.321789e-01 5.340834e-01 5.290974e-01
		vertex -5.581646e-01 5.995913e-01 5.711431e-01
		vertex -5.579609e-01 5.990529e-01 5.708135e-01
	endloop
endfacet
facet normal -8.506508e-01 2.397772e-12 -5.257311e-01
	outer loop
		vertex -5.579609e-01 5.990529e-01 5.708135e-01
		vertex -5.321789e-01 5.340834e-01 5.290974e-01
		vertex -5.321905e-01 5.340906e-01 5.291162e-01
	endloop
endfacet
facet normal 5.257311e-01 8.506508e-01 4.845561e-12
	outer loop
		vertex -5.321905e-01 5.340906e-01 5.291162e-01
		vertex -5.321789e-01 5.340834e-01 5.290974e-01
		vertex -6.430239e-01 6.025894e-01 5.443274e-01
	endloop
endfacet
facet normal 1.105908e-15 -5.220944e-01 8.528877e-01
	outer loop
		vertex -6.008271e-01 5.765103e-01 5.570141e-01
		vertex -5.337479e-01 5.350531e-01 5.316361e-01
		vertex -5.405185e-01 5.529491e-01 5.425911e-01
	endloop
endfacet
facet normal 5.257311e-01 8.506508e-01 2.303434e-15
	outer loop
		vertex -6.008271e-01 5.765103e-01 5.570141e-01
		vertex -5.337479e-01 5.350531e-01 5.316361e-01
		vertex -6.430239e-01 6.025894e-01 5.443274e-01
	endloop
endfacet
facet normal 8.506508e-01 -4.116692e-15 5.257311e-01
	outer loop
		vertex -5.337479e-01 5.350531e-01 5.316361e-01
		vertex -5.332745e-01 5.347605e-01 5.308702e-01
		vertex -5.405185e-01 5.529491e-01 5.425911e-01
	endloop
endfacet
facet normal 5.257311e-01 8.506508e-01 3.294439e-14
	outer loop
		vertex -5.337479e-01 5.350531e-01 5.316361e-01
		vertex -5.332745e-01 5.347605e-01 5.308702e-01
		vertex -6.430239e-01 6.025894e-01 5.443274e-01
	endloop
endfacet
facet normal 5.853800e-16 -5.220944e-01 8.528877e-01
	outer loop
		vertex -6.008271e-01 5.765103e-01 5.570141e-01
		vertex -5.405185e-01 5.529491e-01 5.425911e-01
		vertex -5.579609e-01 5.990529e-01 5.708135e-01
	endloop
endfacet
facet normal 6.160420e-16 5.220944e-01 -8.528877e-01
	outer loop
		vertex -5.579609e-01 5.990529e-01 5.708135e-01
		vertex -6.008271e-01 5.765103e-01 5.570141e-01
		vertex -6.322037e-01 5.959021e-01 5.688847e-01
	endloop
endfacet
facet normal 5.257311e-01 8.506508e-01 2.667411e-15
	outer loop
		vertex -6.322037e-01 5.959021e-01 5.688847e-01
		vertex -6.008271e-01 5.765103e-01 5.570141e-01
		vertex -6.430239e-01 6.025894e-01 5.443274e-01
	endloop
endfacet
facet normal -8.506508e-01 -7.840710e-14 -5.257311e-01
	outer loop
		vertex -5.332745e-01 5.347605e-01 5.308702e-01
		vertex -5.405185e-01 5.529491e-01 5.425911e-01
		vertex -5.579609e-01 5.990529e-01 5.708135e-01
	endloop
endfacet
facet normal 8.506508e-01 -4.289436e-15 5.257311e-01
	outer loop
		vertex -5.579609e-01 5.990529e-01 5.708135e-01
		vertex -5.332745e-01 5.347605e-01 5.308702e-01
		vertex -5.321905e-01 5.340906e-01 5.291162e-01
	endloop
endfacet
facet normal -5.257311e-01 -8.506508e-01 -1.244184e-14
	outer loop
		vertex -5.321905e-01 5.340906e-01 5.291162e-01
		vertex -5.332745e-01 5.347605e-01 5.308702e-01
		vertex -6.430239e-01 6.025894e-01 5.443274e-01
	endloop
endfacet
facet normal 8.506508e-01 4.634920e-17 5.257311e-01
	outer loop
		vertex -3.500325e-01 4.215107e-01 2.343784e-01
		vertex -3.706898e-01 7.709011e-01 2.678025e-01
		vertex -5.608513e-01 6.533749e-01 5.754903e-01
	endloop
endfacet
facet normal -8.506508e-01 1.104955e-16 -5.257311e-01
	outer loop
		vertex -5.608513e-01 6.533749e-01 5.754903e-01
		vertex -3.500325e-01 4.215107e-01 2.343784e-01
		vertex -5.125536e-01 5.219543e-01 4.973431e-01
	endloop
endfacet
facet normal 5.257311e-01 8.506508e-01 6.638790e-16
	outer loop
		vertex -5.125536e-01 5.219543e-01 4.973431e-01
		vertex -3.500325e-01 4.215107e-01 2.343784e-01
		vertex -6.430239e-01 6.025894e-01 5.443274e-01
	endloop
endfacet
facet normal -8.506508e-01 -2.074653e-13 -5.257311e-01
	outer loop
		vertex -5.126569e-01 5.220181e-01 4.975101e-01
		vertex -5.609331e-01 6.533243e-01 5.756227e-01
		vertex -5.608513e-01 6.533749e-01 5.754903e-01
	endloop
endfacet
facet normal 8.506508e-01 2.391606e-13 5.257311e-01
	outer loop
		vertex -5.608513e-01 6.533749e-01 5.754903e-01
		vertex -5.126569e-01 5.220181e-01 4.975101e-01
		vertex -5.125536e-01 5.219543e-01 4.973431e-01
	endloop
endfacet
facet normal -5.257311e-01 -8.506508e-01 5.124828e-13
	outer loop
		vertex -5.125536e-01 5.219543e-01 4.973431e-01
		vertex -5.126569e-01 5.220181e-01 4.975101e-01
		vertex -6.430239e-01 6.025894e-01 5.443274e-01
	endloop
endfacet
facet normal 8.506508e-01 -3.534582e-15 5.257311e-01
	outer loop
		vertex -3.496178e-01 4.212544e-01 2.337073e-01
		vertex -3.698120e-01 7.685810e-01 2.663823e-01
		vertex -3.706898e-01 7.709011e-01 2.678025e-01
	endloop
endfacet
facet normal -8.506508e-01 5.715361e-15 -5.257311e-01
	outer loop
		vertex -3.706898e-01 7.709011e-01 2.678025e-01
		vertex -3.496178e-01 4.212544e-01 2.337073e-01
		vertex -3.500325e-01 4.215107e-01 2.343784e-01
	endloop
endfacet
facet normal 5.257311e-01 8.506508e-01 9.602331e-14
	outer loop
		vertex -3.500325e-01 4.215107e-01 2.343784e-01
		vertex -3.496178e-01 4.212544e-01 2.337073e-01
		vertex -6.430239e-01 6.025894e-01 5.443274e-01
	endloop
endfacet
facet normal -8.506508e-01 2.333002e-16 -5.257311e-01
	outer loop
		vertex -5.312788e-01 5.335271e-01 5.276411e-01
		vertex -5.751655e-01 6.445282e-01 5.986511e-01
		vertex -5.610148e-01 6.532738e-01 5.757548e-01
	endloop
endfacet
facet normal 8.506508e-01 -2.429096e-16 5.257311e-01
	outer loop
		vertex -5.610148e-01 6.532738e-01 5.757548e-01
		vertex -5.312788e-01 5.335271e-01 5.276411e-01
		vertex -5.127600e-01 5.220818e-01 4.976769e-01
	endloop
endfacet
facet normal -5.257311e-01 -8.506508e-01 -3.641363e-16
	outer loop
		vertex -5.127600e-01 5.220818e-01 4.976769e-01
		vertex -5.312788e-01 5.335271e-01 5.276411e-01
		vertex -6.430239e-01 6.025894e-01 5.443274e-01
	endloop
endfacet
facet normal 8.506508e-01 7.555877e-13 5.257311e-01
	outer loop
		vertex -5.127434e-01 5.220716e-01 4.976501e-01
		vertex -5.610017e-01 6.532819e-01 5.757336e-01
		vertex -5.610148e-01 6.532738e-01 5.757548e-01
	endloop
endfacet
facet normal -8.506508e-01 -5.433806e-13 -5.257311e-01
	outer loop
		vertex -5.610148e-01 6.532738e-01 5.757548e-01
		vertex -5.127434e-01 5.220716e-01 4.976501e-01
		vertex -5.127600e-01 5.220818e-01 4.976769e-01
	endloop
endfacet
facet normal 5.257311e-01 8.506508e-01 5.272372e-12
	outer loop
		vertex -5.127600e-01 5.220818e-01 4.976769e-01
		vertex -5.127434e-01 5.220716e-01 4.976501e-01
		vertex -6.430239e-01 6.025894e-01 5.443274e-01
	endloop
endfacet
facet normal -8.506508e-01 3.097701e-13 -5.257311e-01
	outer loop
		vertex -5.127434e-01 5.220716e-01 4.976501e-01
		vertex -5.610017e-01 6.532819e-01 5.757336e-01
		vertex -5.609331e-01 6.533243e-01 5.756227e-01
	endloop
endfacet
facet normal 8.506508e-01 2.596941e-14 5.257311e-01
	outer loop
		vertex -5.609331e-01 6.533243e-01 5.756227e-01
		vertex -5.127434e-01 5.220716e-01 4.976501e-01
		vertex -5.126569e-01 5.220181e-01 4.975101e-01
	endloop
endfacet
facet normal -5.257311e-01 -8.506508e-01 1.437877e-12
	outer loop
		vertex -5.126569e-01 5.220181e-01 4.975101e-01
		vertex -5.127434e-01 5.220716e-01 4.976501e-01
		vertex -6.430239e-01 6.025894e-01 5.443274e-01
	endloop
endfacet
facet normal 2.664675e-15 -5.220944e-01 8.528877e-01
	outer loop
		vertex -6.346878e-01 5.974374e-01 1.616169e-01
		vertex -3.650198e-01 7.559143e-01 2.586284e-01
		vertex -6.180340e-01 6.180340e-01 1.742251e-01
	endloop
endfacet
facet normal -1.256903e-15 5.220944e-01 -8.528877e-01
	outer loop
		vertex -6.180340e-01 6.180340e-01 1.742251e-01
		vertex -6.346878e-01 5.974374e-01 1.616169e-01
		vertex -6.430239e-01 6.025894e-01 1.647707e-01
	endloop
endfacet
facet normal -5.257311e-01 -8.506508e-01 0.000000e+00
	outer loop
		vertex -6.430239e-01 6.025894e-01 1.647707e-01
		vertex -6.346878e-01 5.974374e-01 1.616169e-01
		vertex -6.430239e-01 6.025894e-01 5.443274e-01
	endloop
endfacet
facet normal 0.000000e+00 -5.220944e-01 8.528877e-01
	outer loop
		vertex -6.303223e-01 5.947394e-01 1.599653e-01
		vertex -3.621196e-01 7.482485e-01 2.539358e-01
		vertex -3.650198e-01 7.559143e-01 2.586284e-01
	endloop
endfacet
facet normal 2.084709e-15 -5.220944e-01 8.528877e-01
	outer loop
		vertex -3.650198e-01 7.559143e-01 2.586284e-01
		vertex -6.346878e-01 5.974374e-01 1.616169e-01
		vertex -6.303223e-01 5.947394e-01 1.599653e-01
	endloop
endfacet
facet normal 5.257311e-01 8.506508e-01 -5.392144e-16
	outer loop
		vertex -6.303223e-01 5.947394e-01 1.599653e-01
		vertex -6.346878e-01 5.974374e-01 1.616169e-01
		vertex -6.430239e-01 6.025894e-01 5.443274e-01
	endloop
endfacet
facet normal -8.506508e-01 1.970205e-15 -5.257311e-01
	outer loop
		vertex -3.473171e-01 4.198325e-01 2.299847e-01
		vertex -3.650198e-01 7.559143e-01 2.586284e-01
		vertex -3.621196e-01 7.482485e-01 2.539358e-01
	endloop
endfacet
facet normal 8.506508e-01 -3.513351e-15 5.257311e-01
	outer loop
		vertex -3.621196e-01 7.482485e-01 2.539358e-01
		vertex -3.473171e-01 4.198325e-01 2.299847e-01
		vertex -3.458942e-01 4.189531e-01 2.276825e-01
	endloop
endfacet
facet normal -5.257311e-01 -8.506508e-01 -9.755256e-14
	outer loop
		vertex -3.458942e-01 4.189531e-01 2.276825e-01
		vertex -3.473171e-01 4.198325e-01 2.299847e-01
		vertex -6.430239e-01 6.025894e-01 5.443274e-01
	endloop
endfacet
facet normal -1.046231e-14 5.220944e-01 -8.528877e-01
	outer loop
		vertex -6.303223e-01 5.947394e-01 1.599653e-01
		vertex -3.621196e-01 7.482485e-01 2.539358e-01
		vertex -3.617917e-01 7.473817e-01 2.534051e-01
	endloop
endfacet
facet normal -9.323445e-15 -5.220944e-01 8.528877e-01
	outer loop
		vertex -3.617917e-01 7.473817e-01 2.534051e-01
		vertex -6.303223e-01 5.947394e-01 1.599653e-01
		vertex -6.298243e-01 5.944315e-01 1.597768e-01
	endloop
endfacet
facet normal 5.257311e-01 8.506508e-01 4.977632e-15
	outer loop
		vertex -6.298243e-01 5.944315e-01 1.597768e-01
		vertex -6.303223e-01 5.947394e-01 1.599653e-01
		vertex -6.430239e-01 6.025894e-01 5.443274e-01
	endloop
endfacet
facet normal -8.506508e-01 1.304736e-14 -5.257311e-01
	outer loop
		vertex -3.458942e-01 4.189531e-01 2.276825e-01
		vertex -3.621196e-01 7.482485e-01 2.539358e-01
		vertex -3.617917e-01 7.473817e-01 2.534051e-01
	endloop
endfacet
facet normal 8.506508e-01 -1.983302e-14 5.257311e-01
	outer loop
		vertex -3.617917e-01 7.473817e-01 2.534051e-01
		vertex -3.458942e-01 4.189531e-01 2.276825e-01
		vertex -3.457319e-01 4.188528e-01 2.274198e-01
	endloop
endfacet
facet normal -5.257311e-01 -8.506508e-01 2.625965e-13
	outer loop
		vertex -3.457319e-01 4.188528e-01 2.274198e-01
		vertex -3.458942e-01 4.189531e-01 2.276825e-01
		vertex -6.430239e-01 6.025894e-01 5.443274e-01
	endloop
endfacet
facet normal 7.505493e-13 5.220944e-01 -8.528877e-01
	outer loop
		vertex -6.297731e-01 5.943999e-01 1.597575e-01
		vertex -6.298070e-01 5.944209e-01 1.597703e-01
		vertex -3.617803e-01 7.473517e-01 2.533868e-01
	endloop
endfacet
facet normal 5.257311e-01 8.506508e-01 9.442700e-14
	outer loop
		vertex -6.297731e-01 5.943999e-01 1.597575e-01
		vertex -6.298070e-01 5.944209e-01 1.597703e-01
		vertex -6.430239e-01 6.025894e-01 5.443274e-01
	endloop
endfacet
facet normal 1.179705e-12 5.220944e-01 -8.528877e-01
	outer loop
		vertex -6.298225e-01 5.944304e-01 1.597762e-01
		vertex -3.617905e-01 7.473786e-01 2.534033e-01
		vertex -3.617803e-01 7.473517e-01 2.533868e-01
	endloop
endfacet
facet normal 1.498767e-12 5.220944e-01 -8.528877e-01
	outer loop
		vertex -3.617803e-01 7.473517e-01 2.533868e-01
		vertex -6.298070e-01 5.944209e-01 1.597703e-01
		vertex -6.298225e-01 5.944304e-01 1.597762e-01
	endloop
endfacet
facet normal -5.257311e-01 -8.506508e-01 6.330878e-14
	outer loop
		vertex -6.298225e-01 5.944304e-01 1.597762e-01
		vertex -6.298070e-01 5.944209e-01 1.597703e-01
		vertex -6.430239e-01 6.025894e-01 5.443274e-01
	endloop
endfacet
facet normal 8.506508e-01 -1.436996e-12 5.257311e-01
	outer loop
		vertex -3.457262e-01 4.188493e-01 2.274107e-01
		vertex -3.617803e-01 7.473517e-01 2.533868e-01
		vertex -3.617905e-01 7.473786e-01 2.534033e-01
	endloop
endfacet
facet normal -8.506508e-01 1.257461e-12 -5.257311e-01
	outer loop
		vertex -3.617905e-01 7.473786e-01 2.534033e-01
		vertex -3.457262e-01 4.188493e-01 2.274107e-01
		vertex -3.457313e-01 4.188524e-01 2.274188e-01
	endloop
endfacet
facet normal 5.257311e-01 8.506508e-01 -3.763602e-11
	outer loop
		vertex -3.457313e-01 4.188524e-01 2.274188e-01
		vertex -3.457262e-01 4.188493e-01 2.274107e-01
		vertex -6.430239e-01 6.025894e-01 5.443274e-01
	endloop
endfacet
facet normal 5.961545e-12 -5.220944e-01 8.528877e-01
	outer loop
		vertex -6.298225e-01 5.944304e-01 1.597762e-01
		vertex -3.617905e-01 7.473786e-01 2.534033e-01
		vertex -3.617917e-01 7.473817e-01 2.534051e-01
	endloop
endfacet
facet normal -1.325379e-11 5.220944e-01 -8.528877e-01
	outer loop
		vertex -3.617917e-01 7.473817e-01 2.534051e-01
		vertex -6.298225e-01 5.944304e-01 1.597762e-01
		vertex -6.298243e-01 5.944315e-01 1.597768e-01
	endloop
endfacet
facet normal -5.257311e-01 -8.506508e-01 -5.173371e-13
	outer loop
		vertex -6.298243e-01 5.944315e-01 1.597768e-01
		vertex -6.298225e-01 5.944304e-01 1.597762e-01
		vertex -6.430239e-01 6.025894e-01 5.443274e-01
	endloop
endfacet
facet normal 8.506508e-01 -8.644623e-14 5.257311e-01
	outer loop
		vertex -3.457313e-01 4.188524e-01 2.274188e-01
		vertex -3.617905e-01 7.473786e-01 2.534033e-01
		vertex -3.617917e-01 7.473817e-01 2.534051e-01
	endloop
endfacet
facet normal -8.506508e-01 3.132568e-13 -5.257311e-01
	outer loop
		vertex -3.617917e-01 7.473817e-01 2.534051e-01
		vertex -3.457313e-01 4.188524e-01 2.274188e-01
		vertex -3.457319e-01 4.188528e-01 2.274198e-01
	endloop
endfacet
facet normal 5.257311e-01 8.506508e-01 -4.531126e-10
	outer loop
		vertex -3.457319e-01 4.188528e-01 2.274198e-01
		vertex -3.457313e-01 4.188524e-01 2.274188e-01
		vertex -6.430239e-01 6.025894e-01 5.443274e-01
	endloop
endfacet
facet normal 8.506508e-01 -9.067842e-17 5.257311e-01
	outer loop
		vertex -3.473171e-01 4.198325e-01 2.299847e-01
		vertex -3.650198e-01 7.559143e-01 2.586284e-01
		vertex -3.693656e-01 7.674010e-01 2.656600e-01
	endloop
endfacet
facet normal -8.506508e-01 -2.451279e-16 -5.257311e-01
	outer loop
		vertex -3.693656e-01 7.674010e-01 2.656600e-01
		vertex -3.473171e-01 4.198325e-01 2.299847e-01
		vertex -3.494060e-01 4.211235e-01 2.333647e-01
	endloop
endfacet
facet normal 5.257311e-01 8.506508e-01 -2.649732e-14
	outer loop
		vertex -3.494060e-01 4.211235e-01 2.333647e-01
		vertex -3.473171e-01 4.198325e-01 2.299847e-01
		vertex -6.430239e-01 6.025894e-01 5.443274e-01
	endloop
endfacet
facet normal 8.506508e-01 -6.444910e-14 5.257311e-01
	outer loop
		vertex -3.494060e-01 4.211235e-01 2.333647e-01
		vertex -3.693656e-01 7.674010e-01 2.656600e-01
		vertex -3.694349e-01 7.675842e-01 2.657721e-01
	endloop
endfacet
facet normal -8.506508e-01 4.666912e-14 -5.257311e-01
	outer loop
		vertex -3.694349e-01 7.675842e-01 2.657721e-01
		vertex -3.494060e-01 4.211235e-01 2.333647e-01
		vertex -3.494389e-01 4.211439e-01 2.334180e-01
	endloop
endfacet
facet normal 5.257311e-01 8.506508e-01 -9.472206e-12
	outer loop
		vertex -3.494389e-01 4.211439e-01 2.334180e-01
		vertex -3.494060e-01 4.211235e-01 2.333647e-01
		vertex -6.430239e-01 6.025894e-01 5.443274e-01
	endloop
endfacet
facet normal -8.506508e-01 3.656932e-15 -5.257311e-01
	outer loop
		vertex -3.496178e-01 4.212544e-01 2.337073e-01
		vertex -3.698120e-01 7.685810e-01 2.663823e-01
		vertex -3.694408e-01 7.675999e-01 2.657817e-01
	endloop
endfacet
facet normal 8.506508e-01 -4.846773e-15 5.257311e-01
	outer loop
		vertex -3.694408e-01 7.675999e-01 2.657817e-01
		vertex -3.496178e-01 4.212544e-01 2.337073e-01
		vertex -3.494418e-01 4.211456e-01 2.334225e-01
	endloop
endfacet
facet normal -5.257311e-01 -8.506508e-01 -1.019309e-12
	outer loop
		vertex -3.494418e-01 4.211456e-01 2.334225e-01
		vertex -3.496178e-01 4.212544e-01 2.337073e-01
		vertex -6.430239e-01 6.025894e-01 5.443274e-01
	endloop
endfacet
facet normal -8.506508e-01 2.623952e-13 -5.257311e-01
	outer loop
		vertex -3.494418e-01 4.211456e-01 2.334225e-01
		vertex -3.694408e-01 7.675999e-01 2.657817e-01
		vertex -3.694349e-01 7.675842e-01 2.657721e-01
	endloop
endfacet
facet normal 8.506508e-01 3.036212e-13 5.257311e-01
	outer loop
		vertex -3.694349e-01 7.675842e-01 2.657721e-01
		vertex -3.494418e-01 4.211456e-01 2.334225e-01
		vertex -3.494389e-01 4.211439e-01 2.334180e-01
	endloop
endfacet
facet normal -5.257311e-01 -8.506508e-01 -6.672657e-11
	outer loop
		vertex -3.494389e-01 4.211439e-01 2.334180e-01
		vertex -3.494418e-01 4.211456e-01 2.334225e-01
		vertex -6.430239e-01 6.025894e-01 5.443274e-01
	endloop
endfacet
facet normal 1.040871e-15 -5.220944e-01 8.528877e-01
	outer loop
		vertex -2.362309e-01 3.511774e-01 1.086909e-02
		vertex -2.277151e-01 3.459144e-01 7.647321e-03
		vertex -2.231433e-01 3.809059e-01 2.906737e-02
	endloop
endfacet
facet normal -5.257311e-01 -8.506508e-01 1.027217e-15
	outer loop
		vertex -2.362309e-01 3.511774e-01 1.086909e-02
		vertex -2.277151e-01 3.459144e-01 7.647321e-03
		vertex -6.430239e-01 6.025894e-01 5.443274e-01
	endloop
endfacet
facet normal -1.915648e-15 -5.220944e-01 8.528877e-01
	outer loop
		vertex -2.249013e-01 3.441753e-01 6.582762e-03
		vertex -2.167270e-01 3.639462e-01 1.868550e-02
		vertex -2.231433e-01 3.809059e-01 2.906737e-02
	endloop
endfacet
facet normal 3.475952e-15 -5.220944e-01 8.528877e-01
	outer loop
		vertex -2.231433e-01 3.809059e-01 2.906737e-02
		vertex -2.277151e-01 3.459144e-01 7.647321e-03
		vertex -2.249013e-01 3.441753e-01 6.582762e-03
	endloop
endfacet
facet normal 5.257311e-01 8.506508e-01 -1.727088e-14
	outer loop
		vertex -2.249013e-01 3.441753e-01 6.582762e-03
		vertex -2.277151e-01 3.459144e-01 7.647321e-03
		vertex -6.430239e-01 6.025894e-01 5.443274e-01
	endloop
endfacet
facet normal -8.506508e-01 4.749096e-16 -5.257311e-01
	outer loop
		vertex -2.321797e-01 3.486737e-01 4.368852e-02
		vertex -2.231433e-01 3.809059e-01 2.906737e-02
		vertex -2.167270e-01 3.639462e-01 1.868550e-02
	endloop
endfacet
facet normal 8.506508e-01 -4.487459e-16 5.257311e-01
	outer loop
		vertex -2.167270e-01 3.639462e-01 1.868550e-02
		vertex -2.321797e-01 3.486737e-01 4.368852e-02
		vertex -2.232248e-01 3.431392e-01 2.919924e-02
	endloop
endfacet
facet normal -5.257311e-01 -8.506508e-01 3.012171e-15
	outer loop
		vertex -2.232248e-01 3.431392e-01 2.919924e-02
		vertex -2.321797e-01 3.486737e-01 4.368852e-02
		vertex -6.430239e-01 6.025894e-01 5.443274e-01
	endloop
endfacet
facet normal 3.938888e-14 5.220944e-01 -8.528877e-01
	outer loop
		vertex -2.249013e-01 3.441753e-01 6.582762e-03
		vertex -2.167270e-01 3.639462e-01 1.868550e-02
		vertex -2.166702e-01 3.637963e-01 1.859370e-02
	endloop
endfacet
facet normal 5.599525e-14 -5.220944e-01 8.528877e-01
	outer loop
		vertex -2.166702e-01 3.637963e-01 1.859370e-02
		vertex -2.249013e-01 3.441753e-01 6.582762e-03
		vertex -2.248679e-01 3.441547e-01 6.570119e-03
	endloop
endfacet
facet normal 5.257311e-01 8.506508e-01 1.160312e-12
	outer loop
		vertex -2.248679e-01 3.441547e-01 6.570119e-03
		vertex -2.249013e-01 3.441753e-01 6.582762e-03
		vertex -6.430239e-01 6.025894e-01 5.443274e-01
	endloop
endfacet
facet normal -8.506508e-01 0.000000e+00 -5.257311e-01
	outer loop
		vertex -2.232248e-01 3.431392e-01 2.919924e-02
		vertex -2.167270e-01 3.639462e-01 1.868550e-02
		vertex -2.166702e-01 3.637963e-01 1.859370e-02
	endloop
endfacet
facet normal 8.506508e-01 -3.530774e-14 5.257311e-01
	outer loop
		vertex -2.166702e-01 3.637963e-01 1.859370e-02
		vertex -2.232248e-01 3.431392e-01 2.919924e-02
		vertex -2.231432e-01 3.430888e-01 2.906709e-02
	endloop
endfacet
facet normal -5.257311e-01 -8.506508e-01 -2.844662e-13
	outer loop
		vertex -2.231432e-01 3.430888e-01 2.906709e-02
		vertex -2.232248e-01 3.431392e-01 2.919924e-02
		vertex -6.430239e-01 6.025894e-01 5.443274e-01
	endloop
endfacet
facet normal 9.775583e-16 5.220944e-01 -8.528877e-01
	outer loop
		vertex -6.039168e-01 5.784198e-01 1.499753e-01
		vertex -6.205724e-01 5.887136e-01 1.562766e-01
		vertex -3.559069e-01 7.318268e-01 2.438833e-01
	endloop
endfacet
facet normal 5.257311e-01 8.506508e-01 8.096886e-16
	outer loop
		vertex -6.039168e-01 5.784198e-01 1.499753e-01
		vertex -6.205724e-01 5.887136e-01 1.562766e-01
		vertex -6.430239e-01 6.025894e-01 5.443274e-01
	endloop
endfacet
facet normal 6.564878e-16 5.220944e-01 -8.528877e-01
	outer loop
		vertex -6.287160e-01 5.937466e-01 1.593576e-01
		vertex -3.611531e-01 7.456937e-01 2.523718e-01
		vertex -3.559069e-01 7.318268e-01 2.438833e-01
	endloop
endfacet
facet normal 1.184785e-15 5.220944e-01 -8.528877e-01
	outer loop
		vertex -3.559069e-01 7.318268e-01 2.438833e-01
		vertex -6.205724e-01 5.887136e-01 1.562766e-01
		vertex -6.287160e-01 5.937466e-01 1.593576e-01
	endloop
endfacet
facet normal -5.257311e-01 -8.506508e-01 -1.118914e-16
	outer loop
		vertex -6.287160e-01 5.937466e-01 1.593576e-01
		vertex -6.205724e-01 5.887136e-01 1.562766e-01
		vertex -6.430239e-01 6.025894e-01 5.443274e-01
	endloop
endfacet
facet normal 8.506508e-01 3.297432e-16 5.257311e-01
	outer loop
		vertex -3.427658e-01 4.170196e-01 2.226205e-01
		vertex -3.559069e-01 7.318268e-01 2.438833e-01
		vertex -3.611531e-01 7.456937e-01 2.523718e-01
	endloop
endfacet
facet normal -8.506508e-01 -7.120210e-16 -5.257311e-01
	outer loop
		vertex -3.611531e-01 7.456937e-01 2.523718e-01
		vertex -3.427658e-01 4.170196e-01 2.226205e-01
		vertex -3.454148e-01 4.186568e-01 2.269068e-01
	endloop
endfacet
facet normal 5.257311e-01 8.506508e-01 -6.257961e-15
	outer loop
		vertex -3.454148e-01 4.186568e-01 2.269068e-01
		vertex -3.427658e-01 4.170196e-01 2.226205e-01
		vertex -6.430239e-01 6.025894e-01 5.443274e-01
	endloop
endfacet
facet normal 2.898724e-15 -5.220944e-01 8.528877e-01
	outer loop
		vertex -6.287160e-01 5.937466e-01 1.593576e-01
		vertex -3.611531e-01 7.456937e-01 2.523718e-01
		vertex -3.617471e-01 7.472639e-01 2.533330e-01
	endloop
endfacet
facet normal 5.120052e-15 5.220944e-01 -8.528877e-01
	outer loop
		vertex -3.617471e-01 7.472639e-01 2.533330e-01
		vertex -6.287160e-01 5.937466e-01 1.593576e-01
		vertex -6.296233e-01 5.943073e-01 1.597008e-01
	endloop
endfacet
facet normal -5.257311e-01 -8.506508e-01 1.671865e-15
	outer loop
		vertex -6.296233e-01 5.943073e-01 1.597008e-01
		vertex -6.287160e-01 5.937466e-01 1.593576e-01
		vertex -6.430239e-01 6.025894e-01 5.443274e-01
	endloop
endfacet
facet normal 8.506508e-01 -1.848799e-15 5.257311e-01
	outer loop
		vertex -3.454148e-01 4.186568e-01 2.269068e-01
		vertex -3.611531e-01 7.456937e-01 2.523718e-01
		vertex -3.617471e-01 7.472639e-01 2.533330e-01
	endloop
endfacet
facet normal -8.506508e-01 1.031347e-14 -5.257311e-01
	outer loop
		vertex -3.617471e-01 7.472639e-01 2.533330e-01
		vertex -3.454148e-01 4.186568e-01 2.269068e-01
		vertex -3.457098e-01 4.188391e-01 2.273840e-01
	endloop
endfacet
facet normal 5.257311e-01 8.506508e-01 -3.550542e-13
	outer loop
		vertex -3.457098e-01 4.188391e-01 2.273840e-01
		vertex -3.454148e-01 4.186568e-01 2.269068e-01
		vertex -6.430239e-01 6.025894e-01 5.443274e-01
	endloop
endfacet
facet normal 2.001540e-13 5.220944e-01 -8.528877e-01
	outer loop
		vertex -6.296233e-01 5.943073e-01 1.597008e-01
		vertex -6.297225e-01 5.943686e-01 1.597383e-01
		vertex -3.617471e-01 7.472639e-01 2.533330e-01
	endloop
endfacet
facet normal 5.257311e-01 8.506508e-01 2.908305e-14
	outer loop
		vertex -6.296233e-01 5.943073e-01 1.597008e-01
		vertex -6.297225e-01 5.943686e-01 1.597383e-01
		vertex -6.430239e-01 6.025894e-01 5.443274e-01
	endloop
endfacet
facet normal 1.151747e-13 5.220944e-01 -8.528877e-01
	outer loop
		vertex -6.297679e-01 5.943967e-01 1.597555e-01
		vertex -3.617770e-01 7.473427e-01 2.533813e-01
		vertex -3.617471e-01 7.472639e-01 2.533330e-01
	endloop
endfacet
facet normal -2.043365e-13 5.220944e-01 -8.528877e-01
	outer loop
		vertex -3.617471e-01 7.472639e-01 2.533330e-01
		vertex -6.297225e-01 5.943686e-01 1.597383e-01
		vertex -6.297679e-01 5.943967e-01 1.597555e-01
	endloop
endfacet
facet normal -5.257311e-01 -8.506508e-01 2.933989e-14
	outer loop
		vertex -6.297679e-01 5.943967e-01 1.597555e-01
		vertex -6.297225e-01 5.943686e-01 1.597383e-01
		vertex -6.430239e-01 6.025894e-01 5.443274e-01
	endloop
endfacet
facet normal 8.506508e-01 9.352822e-14 5.257311e-01
	outer loop
		vertex -3.457098e-01 4.188391e-01 2.273840e-01
		vertex -3.617471e-01 7.472639e-01 2.533330e-01
		vertex -3.617770e-01 7.473427e-01 2.533813e-01
	endloop
endfacet
facet normal -8.506508e-01 -9.681257e-14 -5.257311e-01
	outer loop
		vertex -3.617770e-01 7.473427e-01 2.533813e-01
		vertex -3.457098e-01 4.188391e-01 2.273840e-01
		vertex -3.457246e-01 4.188482e-01 2.274080e-01
	endloop
endfacet
facet normal 5.257311e-01 8.506508e-01 3.095573e-13
	outer loop
		vertex -3.457246e-01 4.188482e-01 2.274080e-01
		vertex -3.457098e-01 4.188391e-01 2.273840e-01
		vertex -6.430239e-01 6.025894e-01 5.443274e-01
	endloop
endfacet
facet normal -5.086243e-13 -5.220944e-01 8.528877e-01
	outer loop
		vertex -6.297679e-01 5.943967e-01 1.597555e-01
		vertex -3.617770e-01 7.473427e-01 2.533813e-01
		vertex -3.617803e-01 7.473517e-01 2.533868e-01
	endloop
endfacet
facet normal 9.022657e-13 5.220944e-01 -8.528877e-01
	outer loop
		vertex -3.617803e-01 7.473517e-01 2.533868e-01
		vertex -6.297679e-01 5.943967e-01 1.597555e-01
		vertex -6.297731e-01 5.943999e-01 1.597575e-01
	endloop
endfacet
facet normal -5.257311e-01 -8.506508e-01 -8.990654e-13
	outer loop
		vertex -6.297731e-01 5.943999e-01 1.597575e-01
		vertex -6.297679e-01 5.943967e-01 1.597555e-01
		vertex -6.430239e-01 6.025894e-01 5.443274e-01
	endloop
endfacet
facet normal 8.506508e-01 -3.539896e-13 5.257311e-01
	outer loop
		vertex -3.457246e-01 4.188482e-01 2.274080e-01
		vertex -3.617770e-01 7.473427e-01 2.533813e-01
		vertex -3.617803e-01 7.473517e-01 2.533868e-01
	endloop
endfacet
facet normal -8.506508e-01 1.122362e-12 -5.257311e-01
	outer loop
		vertex -3.617803e-01 7.473517e-01 2.533868e-01
		vertex -3.457246e-01 4.188482e-01 2.274080e-01
		vertex -3.457262e-01 4.188493e-01 2.274107e-01
	endloop
endfacet
facet normal 5.257311e-01 8.506508e-01 -1.409309e-10
	outer loop
		vertex -3.457262e-01 4.188493e-01 2.274107e-01
		vertex -3.457246e-01 4.188482e-01 2.274080e-01
		vertex -6.430239e-01 6.025894e-01 5.443274e-01
	endloop
endfacet
facet normal -4.404832e-01 1.728373e-01 8.809664e-01
	outer loop
		vertex -6.039168e-01 5.784198e-01 1.499753e-01
		vertex -6.039168e-01 5.784198e-01 1.499753e-01
		vertex -3.559069e-01 7.318268e-01 2.438833e-01
	endloop
endfacet
facet normal -2.913489e-02 -9.978756e-01 5.826977e-02
	outer loop
		vertex -6.039168e-01 5.784198e-01 1.499753e-01
		vertex -6.039168e-01 5.784198e-01 1.499753e-01
		vertex -6.430239e-01 6.025894e-01 5.443274e-01
	endloop
endfacet
facet normal -6.000000e-01 8.000000e-01 0.000000e+00
	outer loop
		vertex -6.039168e-01 5.784198e-01 1.499753e-01
		vertex -3.559069e-01 7.318268e-01 2.438833e-01
		vertex -3.559069e-01 7.318268e-01 2.438833e-01
	endloop
endfacet
facet normal -5.299989e-01 8.479983e-01 0.000000e+00
	outer loop
		vertex -3.559069e-01 7.318268e-01 2.438833e-01
		vertex -6.039168e-01 5.784198e-01 1.499753e-01
		vertex -6.039168e-01 5.784198e-01 1.499753e-01
	endloop
endfacet
facet normal -6.000000e-01 8.000000e-01 0.000000e+00
	outer loop
		vertex -6.039168e-01 5.784198e-01 1.499753e-01
		vertex -3.559069e-01 7.318268e-01 2.438833e-01
		vertex -3.559069e-01 7.318268e-01 2.438833e-01
	endloop
endfacet
facet normal -5.299989e-01 8.479983e-01 0.000000e+00
	outer loop
		vertex -3.559069e-01 7.318268e-01 2.438833e-01
		vertex -6.039168e-01 5.784198e-01 1.499753e-01
		vertex -6.039168e-01 5.784198e-01 1.499753e-01
	endloop
endfacet
facet normal 5.257311e-01 8.506508e-01 0.000000e+00
	outer loop
		vertex -6.039168e-01 5.784198e-01 1.499753e-01
		vertex -6.039168e-01 5.784198e-01 1.499753e-01
		vertex -6.430239e-01 6.025894e-01 5.443274e-01
	endloop
endfacet
facet normal -2.377445e-01 -1.977837e-01 9.509780e-01
	outer loop
		vertex -6.039168e-01 5.784198e-01 1.499753e-01
		vertex -6.039168e-01 5.784198e-01 1.499753e-01
		vertex -3.559069e-01 7.318268e-01 2.438833e-01
	endloop
endfacet
facet normal -1.492329e-02 -9.981052e-01 5.969318e-02
	outer loop
		vertex -6.039168e-01 5.784198e-01 1.499753e-01
		vertex -6.039168e-01 5.784198e-01 1.499753e-01
		vertex -6.430239e-01 6.025894e-01 5.443274e-01
	endloop
endfacet
facet normal -6.000000e-01 8.000000e-01 0.000000e+00
	outer loop
		vertex -6.039168e-01 5.784198e-01 1.499753e-01
		vertex -3.559069e-01 7.318268e-01 2.438833e-01
		vertex -3.559069e-01 7.318268e-01 2.438833e-01
	endloop
endfacet
facet normal -5.299989e-01 8.479983e-01 0.000000e+00
	outer loop
		vertex -3.559069e-01 7.318268e-01 2.438833e-01
		vertex -6.039168e-01 5.784198e-01 1.499753e-01
		vertex -6.039168e-01 5.784198e-01 1.499753e-01
	endloop
endfacet
facet normal -6.000000e-01 8.000000e-01 0.000000e+00
	outer loop
		vertex -6.039168e-01 5.784198e-01 1.499753e-01
		vertex -3.559069e-01 7.318268e-01 2.438833e-01
		vertex -3.559069e-01 7.318268e-01 2.438833e-01
	endloop
endfacet
facet normal -5.299989e-01 8.479983e-01 0.000000e+00
	outer loop
		vertex -3.559069e-01 7.318268e-01 2.438833e-01
		vertex -6.039168e-01 5.784198e-01 1.499753e-01
		vertex -6.039168e-01 5.784198e-01 1.499753e-01
	endloop
endfacet
facet normal 5.257311e-01 8.506508e-01 0.000000e+00
	outer loop
		vertex -6.039168e-01 5.784198e-01 1.499753e-01
		vertex -6.039168e-01 5.784198e-01 1.499753e-01
		vertex -6.430239e-01 6.025894e-01 5.443274e-01
	endloop
endfacet
facet normal 9.992976e-01 3.747366e-02 0.000000e+00
	outer loop
		vertex -3.427658e-01 4.170196e-01 2.226205e-01
		vertex -3.559069e-01 7.318268e-01 2.438833e-01
		vertex -3.559069e-01 7.318268e-01 2.438833e-01
	endloop
endfacet
facet normal -9.464216e-01 -6.900991e-02 3.154739e-01
	outer loop
		vertex -3.559069e-01 7.318268e-01 2.438833e-01
		vertex -3.427658e-01 4.170196e-01 2.226205e-01
		vertex -3.427658e-01 4.170196e-01 2.226205e-01
	endloop
endfacet
facet normal 9.990443e-01 4.370819e-02 0.000000e+00
	outer loop
		vertex -3.427658e-01 4.170196e-01 2.226205e-01
		vertex -3.559069e-01 7.318268e-01 2.438833e-01
		vertex -3.559069e-01 7.318268e-01 2.438833e-01
	endloop
endfacet
facet normal -9.464216e-01 -6.900991e-02 3.154739e-01
	outer loop
		vertex -3.559069e-01 7.318268e-01 2.438833e-01
		vertex -3.427658e-01 4.170196e-01 2.226205e-01
		vertex -3.427658e-01 4.170196e-01 2.226205e-01
	endloop
endfacet
facet normal -6.907431e-01 1.188770e-01 -7.132617e-01
	outer loop
		vertex -3.427658e-01 4.170196e-01 2.226205e-01
		vertex -3.427658e-01 4.170196e-01 2.226205e-01
		vertex -6.430239e-01 6.025894e-01 5.443274e-01
	endloop
endfacet
facet normal -5.570860e-01 3.713907e-01 7.427814e-01
	outer loop
		vertex -6.039168e-01 5.784198e-01 1.499753e-01
		vertex -3.559069e-01 7.318268e-01 2.438833e-01
		vertex -3.559069e-01 7.318268e-01 2.438833e-01
	endloop
endfacet
facet normal 2.357023e-01 2.357023e-01 -9.428090e-01
	outer loop
		vertex -3.559069e-01 7.318268e-01 2.438833e-01
		vertex -6.039168e-01 5.784198e-01 1.499753e-01
		vertex -6.039168e-01 5.784198e-01 1.499753e-01
	endloop
endfacet
facet normal -4.082483e-01 4.082483e-01 8.164966e-01
	outer loop
		vertex -6.039168e-01 5.784198e-01 1.499753e-01
		vertex -3.559069e-01 7.318268e-01 2.438833e-01
		vertex -3.559069e-01 7.318268e-01 2.438833e-01
	endloop
endfacet
facet normal 2.357023e-01 2.357023e-01 -9.428090e-01
	outer loop
		vertex -3.559069e-01 7.318268e-01 2.438833e-01
		vertex -6.039168e-01 5.784198e-01 1.499753e-01
		vertex -6.039168e-01 5.784198e-01 1.499753e-01
	endloop
endfacet
facet normal -1.492329e-02 -9.981052e-01 5.969318e-02
	outer loop
		vertex -6.039168e-01 5.784198e-01 1.499753e-01
		vertex -6.039168e-01 5.784198e-01 1.499753e-01
		vertex -6.430239e-01 6.025894e-01 5.443274e-01
	endloop
endfacet
facet normal -4.457516e-01 -8.079248e-02 8.915033e-01
	outer loop
		vertex -3.427658e-01 4.170196e-01 2.226205e-01
		vertex -3.559069e-01 7.318268e-01 2.438833e-01
		vertex -3.559069e-01 7.318268e-01 2.438833e-01
	endloop
endfacet
facet normal 8.944272e-01 0.000000e+00 4.472136e-01
	outer loop
		vertex -3.559069e-01 7.318268e-01 2.438833e-01
		vertex -3.427658e-01 4.170196e-01 2.226205e-01
		vertex -3.427658e-01 4.170196e-01 2.226205e-01
	endloop
endfacet
facet normal -4.457516e-01 -8.079248e-02 8.915033e-01
	outer loop
		vertex -3.427658e-01 4.170196e-01 2.226205e-01
		vertex -3.559069e-01 7.318268e-01 2.438833e-01
		vertex -3.559069e-01 7.318268e-01 2.438833e-01
	endloop
endfacet
facet normal 8.944272e-01 0.000000e+00 4.472136e-01
	outer loop
		vertex -3.559069e-01 7.318268e-01 2.438833e-01
		vertex -3.427658e-01 4.170196e-01 2.226205e-01
		vertex -3.427658e-01 4.170196e-01 2.226205e-01
	endloop
endfacet
facet normal -7.310571e-01 -0.000000e+00 -6.823163e-01
	outer loop
		vertex -3.427658e-01 4.170196e-01 2.226205e-01
		vertex -3.427658e-01 4.170196e-01 2.226205e-01
		vertex -6.430239e-01 6.025894e-01 5.443274e-01
	endloop
endfacet
facet normal -5.260498e-01 8.504538e-01 0.000000e+00
	outer loop
		vertex -6.039168e-01 5.784198e-01 1.499753e-01
		vertex -6.039168e-01 5.784198e-01 1.499753e-01
		vertex -3.559069e-01 7.318268e-01 2.438833e-01
	endloop
endfacet
facet normal -5.257311e-01 -8.506508e-01 0.000000e+00
	outer loop
		vertex -6.039168e-01 5.784198e-01 1.499753e-01
		vertex -6.039168e-01 5.784198e-01 1.499753e-01
		vertex -6.430239e-01 6.025894e-01 5.443274e-01
	endloop
endfacet
facet normal -6.000000e-01 8.000000e-01 0.000000e+00
	outer loop
		vertex -6.039168e-01 5.784198e-01 1.499753e-01
		vertex -3.559069e-01 7.318268e-01 2.438833e-01
		vertex -3.559069e-01 7.318268e-01 2.438833e-01
	endloop
endfacet
facet normal -5.299989e-01 8.479983e-01 0.000000e+00
	outer loop
		vertex -3.559069e-01 7.318268e-01 2.438833e-01
		vertex -6.039168e-01 5.784198e-01 1.499753e-01
		vertex -6.039168e-01 5.784198e-01 1.499753e-01
	endloop
endfacet
facet normal -6.000000e-01 8.000000e-01 0.000000e+00
	outer loop
		vertex -6.039168e-01 5.784198e-01 1.499753e-01
		vertex -3.559069e-01 7.318268e-01 2.438833e-01
		vertex -3.559069e-01 7.318268e-01 2.438833e-01
	endloop
endfacet
facet normal -5.299989e-01 8.479983e-01 0.000000e+00
	outer loop
		vertex -3.559069e-01 7.318268e-01 2.438833e-01
		vertex -6.039168e-01 5.784198e-01 1.499753e-01
		vertex -6.039168e-01 5.784198e-01 1.499753e-01
	endloop
endfacet
facet normal 5.257311e-01 8.506508e-01 0.000000e+00
	outer loop
		vertex -6.039168e-01 5.784198e-01 1.499753e-01
		vertex -6.039168e-01 5.784198e-01 1.499753e-01
		vertex -6.430239e-01 6.025894e-01 5.443274e-01
	endloop
endfacet
facet normal -5.260498e-01 8.504538e-01 0.000000e+00
	outer loop
		vertex -6.039168e-01 5.784198e-01 1.499753e-01
		vertex -6.039168e-01 5.784198e-01 1.499753e-01
		vertex -3.559069e-01 7.318268e-01 2.438833e-01
	endloop
endfacet
facet normal -5.257311e-01 -8.506508e-01 0.000000e+00
	outer loop
		vertex -6.039168e-01 5.784198e-01 1.499753e-01
		vertex -6.039168e-01 5.784198e-01 1.499753e-01
		vertex -6.430239e-01 6.025894e-01 5.443274e-01
	endloop
endfacet
facet normal -6.000000e-01 8.000000e-01 0.000000e+00
	outer loop
		vertex -6.039168e-01 5.784198e-01 1.499753e-01
		vertex -3.559069e-01 7.318268e-01 2.438833e-01
		vertex -3.559069e-01 7.318268e-01 2.438833e-01
	endloop
endfacet
facet normal -5.299989e-01 8.479983e-01 0.000000e+00
	outer loop
		vertex -3.559069e-01 7.318268e-01 2.438833e-01
		vertex -6.039168e-01 5.784198e-01 1.499753e-01
		vertex -6.039168e-01 5.784198e-01 1.499753e-01
	endloop
endfacet
facet normal -6.000000e-01 8.000000e-01 0.000000e+00
	outer loop
		vertex -6.039168e-01 5.784198e-01 1.499753e-01
		vertex -3.559069e-01 7.318268e-01 2.438833e-01
		vertex -3.559069e-01 7.318268e-01 2.438833e-01
	endloop
endfacet
facet normal -5.299989e-01 8.479983e-01 0.000000e+00
	outer loop
		vertex -3.559069e-01 7.318268e-01 2.438833e-01
		vertex -6.039168e-01 5.784198e-01 1.499753e-01
		vertex -6.039168e-01 5.784198e-01 1.499753e-01
	endloop
endfacet
facet normal 5.257311e-01 8.506508e-01 0.000000e+00
	outer loop
		vertex -6.039168e-01 5.784198e-01 1.499753e-01
		vertex -6.039168e-01 5.784198e-01 1.499753e-01
		vertex -6.430239e-01 6.025894e-01 5.443274e-01
	endloop
endfacet
facet normal 9.990443e-01 4.370819e-02 0.000000e+00
	outer loop
		vertex -3.427658e-01 4.170196e-01 2.226205e-01
		vertex -3.559069e-01 7.318268e-01 2.438833e-01
		vertex -3.559069e-01 7.318268e-01 2.438833e-01
	endloop
endfacet
facet normal -9.908201e-01 -5.418547e-02 1.238525e-01
	outer loop
		vertex -3.559069e-01 7.318268e-01 2.438833e-01
		vertex -3.427658e-01 4.170196e-01 2.226205e-01
		vertex -3.427658e-01 4.170196e-01 2.226205e-01
	endloop
endfacet
facet normal 9.990443e-01 4.370819e-02 0.000000e+00
	outer loop
		vertex -3.427658e-01 4.170196e-01 2.226205e-01
		vertex -3.559069e-01 7.318268e-01 2.438833e-01
		vertex -3.559069e-01 7.318268e-01 2.438833e-01
	endloop
endfacet
facet normal -9.908201e-01 -5.418547e-02 1.238525e-01
	outer loop
		vertex -3.559069e-01 7.318268e-01 2.438833e-01
		vertex -3.427658e-01 4.170196e-01 2.226205e-01
		vertex -3.427658e-01 4.170196e-01 2.226205e-01
	endloop
endfacet
facet normal -6.646392e-01 1.812140e-01 -7.248560e-01
	outer loop
		vertex -3.427658e-01 4.170196e-01 2.226205e-01
		vertex -3.427658e-01 4.170196e-01 2.226205e-01
		vertex -6.430239e-01 6.025894e-01 5.443274e-01
	endloop
endfacet
facet normal -5.570860e-01 3.713907e-01 7.427814e-01
	outer loop
		vertex -6.039168e-01 5.784198e-01 1.499753e-01
		vertex -3.559069e-01 7.318268e-01 2.438833e-01
		vertex -3.559069e-01 7.318268e-01 2.438833e-01
	endloop
endfacet
facet normal 2.357023e-01 2.357023e-01 -9.428090e-01
	outer loop
		vertex -3.559069e-01 7.318268e-01 2.438833e-01
		vertex -6.039168e-01 5.784198e-01 1.499753e-01
		vertex -6.039168e-01 5.784198e-01 1.499753e-01
	endloop
endfacet
facet normal -4.082483e-01 4.082483e-01 8.164966e-01
	outer loop
		vertex -6.039168e-01 5.784198e-01 1.499753e-01
		vertex -3.559069e-01 7.318268e-01 2.438833e-01
		vertex -3.559069e-01 7.318268e-01 2.438833e-01
	endloop
endfacet
facet normal 2.357023e-01 2.357023e-01 -9.428090e-01
	outer loop
		vertex -3.559069e-01 7.318268e-01 2.438833e-01
		vertex -6.039168e-01 5.784198e-01 1.499753e-01
		vertex -6.039168e-01 5.784198e-01 1.499753e-01
	endloop
endfacet
facet normal -1.492329e-02 -9.981052e-01 5.969318e-02
	outer loop
		vertex -6.039168e-01 5.784198e-01 1.499753e-01
		vertex -6.039168e-01 5.784198e-01 1.499753e-01
		vertex -6.430239e-01 6.025894e-01 5.443274e-01
	endloop
endfacet
facet normal -4.457516e-01 -8.079248e-02 8.915033e-01
	outer loop
		vertex -3.427658e-01 4.170196e-01 2.226205e-01
		vertex -3.559069e-01 7.318268e-01 2.438833e-01
		vertex -3.559069e-01 7.318268e-01 2.438833e-01
	endloop
endfacet
facet normal 8.944272e-01 0.000000e+00 4.472136e-01
	outer loop
		vertex -3.559069e-01 7.318268e-01 2.438833e-01
		vertex -3.427658e-01 4.170196e-01 2.226205e-01
		vertex -3.427658e-01 4.170196e-01 2.226205e-01
	endloop
endfacet
facet normal -4.457516e-01 -8.079248e-02 8.915033e-01
	outer loop
		vertex -3.427658e-01 4.170196e-01 2.226205e-01
		vertex -3.559069e-01 7.318268e-01 2.438833e-01
		vertex -3.559069e-01 7.318268e-01 2.438833e-01
	endloop
endfacet
facet normal 8.944272e-01 0.000000e+00 4.472136e-01
	outer loop
		vertex -3.559069e-01 7.318268e-01 2.438833e-01
		vertex -3.427658e-01 4.170196e-01 2.226205e-01
		vertex -3.427658e-01 4.170196e-01 2.226205e-01
	endloop
endfacet
facet normal -7.310571e-01 -0.000000e+00 -6.823163e-01
	outer loop
		vertex -3.427658e-01 4.170196e-01 2.226205e-01
		vertex -3.427658e-01 4.170196e-01 2.226205e-01
		vertex -6.430239e-01 6.025894e-01 5.443274e-01
	endloop
endfacet
facet normal -7.615530e-17 -5.220944e-01 8.528877e-01
	outer loop
		vertex -6.039168e-01 5.784198e-01 1.499753e-01
		vertex -4.772220e-01 5.001182e-01 1.020430e-01
		vertex -3.559069e-01 7.318268e-01 2.438833e-01
	endloop
endfacet
facet normal -5.257311e-01 -8.506508e-01 5.370124e-17
	outer loop
		vertex -6.039168e-01 5.784198e-01 1.499753e-01
		vertex -4.772220e-01 5.001182e-01 1.020430e-01
		vertex -6.430239e-01 6.025894e-01 5.443274e-01
	endloop
endfacet
facet normal 0.000000e+00 -5.220944e-01 8.528877e-01
	outer loop
		vertex -4.372866e-01 4.754367e-01 8.693429e-02
		vertex -3.118749e-01 6.154416e-01 1.726381e-01
		vertex -3.559069e-01 7.318268e-01 2.438833e-01
	endloop
endfacet
facet normal 0.000000e+00 -5.220944e-01 8.528877e-01
	outer loop
		vertex -3.559069e-01 7.318268e-01 2.438833e-01
		vertex -4.772220e-01 5.001182e-01 1.020430e-01
		vertex -4.372866e-01 4.754367e-01 8.693429e-02
	endloop
endfacet
facet normal 5.257311e-01 8.506508e-01 9.735241e-17
	outer loop
		vertex -4.372866e-01 4.754367e-01 8.693429e-02
		vertex -4.772220e-01 5.001182e-01 1.020430e-01
		vertex -6.430239e-01 6.025894e-01 5.443274e-01
	endloop
endfacet
facet normal -8.506508e-01 9.244121e-18 -5.257311e-01
	outer loop
		vertex -3.427658e-01 4.170196e-01 2.226205e-01
		vertex -3.559069e-01 7.318268e-01 2.438833e-01
		vertex -3.118749e-01 6.154416e-01 1.726381e-01
	endloop
endfacet
facet normal 8.506508e-01 1.316781e-16 5.257311e-01
	outer loop
		vertex -3.118749e-01 6.154416e-01 1.726381e-01
		vertex -3.427658e-01 4.170196e-01 2.226205e-01
		vertex -3.168945e-01 4.010303e-01 1.807600e-01
	endloop
endfacet
facet normal -5.257311e-01 -8.506508e-01 -9.904778e-15
	outer loop
		vertex -3.168945e-01 4.010303e-01 1.807600e-01
		vertex -3.427658e-01 4.170196e-01 2.226205e-01
		vertex -6.430239e-01 6.025894e-01 5.443274e-01
	endloop
endfacet
facet normal -8.974281e-16 5.220944e-01 -8.528877e-01
	outer loop
		vertex -4.372866e-01 4.754367e-01 8.693429e-02
		vertex -3.118749e-01 6.154416e-01 1.726381e-01
		vertex -3.083783e-01 6.061993e-01 1.669805e-01
	endloop
endfacet
facet normal -3.624706e-15 -5.220944e-01 8.528877e-01
	outer loop
		vertex -3.083783e-01 6.061993e-01 1.669805e-01
		vertex -4.372866e-01 4.754367e-01 8.693429e-02
		vertex -4.334072e-01 4.730391e-01 8.546660e-02
	endloop
endfacet
facet normal 5.257311e-01 8.506508e-01 1.459399e-14
	outer loop
		vertex -4.334072e-01 4.730391e-01 8.546660e-02
		vertex -4.372866e-01 4.754367e-01 8.693429e-02
		vertex -6.430239e-01 6.025894e-01 5.443274e-01
	endloop
endfacet
facet normal -8.506508e-01 -2.595447e-16 -5.257311e-01
	outer loop
		vertex -3.168945e-01 4.010303e-01 1.807600e-01
		vertex -3.118749e-01 6.154416e-01 1.726381e-01
		vertex -3.083783e-01 6.061993e-01 1.669805e-01
	endloop
endfacet
facet normal 8.506508e-01 9.948139e-17 5.257311e-01
	outer loop
		vertex -3.083783e-01 6.061993e-01 1.669805e-01
		vertex -3.168945e-01 4.010303e-01 1.807600e-01
		vertex -3.145120e-01 3.995578e-01 1.769050e-01
	endloop
endfacet
facet normal -5.257311e-01 -8.506508e-01 -1.521351e-14
	outer loop
		vertex -3.145120e-01 3.995578e-01 1.769050e-01
		vertex -3.168945e-01 4.010303e-01 1.807600e-01
		vertex -6.430239e-01 6.025894e-01 5.443274e-01
	endloop
endfacet
facet normal 3.367456e-15 5.220944e-01 -8.528877e-01
	outer loop
		vertex -4.224651e-01 4.662765e-01 8.132688e-02
		vertex -4.291629e-01 4.704160e-01 8.386085e-02
		vertex -3.046801e-01 5.964241e-01 1.609966e-01
	endloop
endfacet
facet normal 5.257311e-01 8.506508e-01 4.571129e-15
	outer loop
		vertex -4.224651e-01 4.662765e-01 8.132688e-02
		vertex -4.291629e-01 4.704160e-01 8.386085e-02
		vertex -6.430239e-01 6.025894e-01 5.443274e-01
	endloop
endfacet
facet normal -2.797931e-15 5.220944e-01 -8.528877e-01
	outer loop
		vertex -4.331000e-01 4.728492e-01 8.535037e-02
		vertex -3.081063e-01 6.054802e-01 1.665403e-01
		vertex -3.046801e-01 5.964241e-01 1.609966e-01
	endloop
endfacet
facet normal -5.555136e-15 5.220944e-01 -8.528877e-01
	outer loop
		vertex -3.046801e-01 5.964241e-01 1.609966e-01
		vertex -4.291629e-01 4.704160e-01 8.386085e-02
		vertex -4.331000e-01 4.728492e-01 8.535037e-02
	endloop
endfacet
facet normal -5.257311e-01 -8.506508e-01 1.234354e-14
	outer loop
		vertex -4.331000e-01 4.728492e-01 8.535037e-02
		vertex -4.291629e-01 4.704160e-01 8.386085e-02
		vertex -6.430239e-01 6.025894e-01 5.443274e-01
	endloop
endfacet
facet normal 8.506508e-01 1.337795e-16 5.257311e-01
	outer loop
		vertex -3.119305e-01 3.979624e-01 1.727280e-01
		vertex -3.046801e-01 5.964241e-01 1.609966e-01
		vertex -3.081063e-01 6.054802e-01 1.665403e-01
	endloop
endfacet
facet normal -8.506508e-01 -3.828985e-16 -5.257311e-01
	outer loop
		vertex -3.081063e-01 6.054802e-01 1.665403e-01
		vertex -3.119305e-01 3.979624e-01 1.727280e-01
		vertex -3.143243e-01 3.994418e-01 1.766013e-01
	endloop
endfacet
facet normal 5.257311e-01 8.506508e-01 1.408505e-15
	outer loop
		vertex -3.143243e-01 3.994418e-01 1.766013e-01
		vertex -3.119305e-01 3.979624e-01 1.727280e-01
		vertex -6.430239e-01 6.025894e-01 5.443274e-01
	endloop
endfacet
facet normal -5.872276e-14 -5.220944e-01 8.528877e-01
	outer loop
		vertex -4.331000e-01 4.728492e-01 8.535037e-02
		vertex -3.081063e-01 6.054802e-01 1.665403e-01
		vertex -3.083783e-01 6.061993e-01 1.669805e-01
	endloop
endfacet
facet normal 4.577171e-14 5.220944e-01 -8.528877e-01
	outer loop
		vertex -3.083783e-01 6.061993e-01 1.669805e-01
		vertex -4.331000e-01 4.728492e-01 8.535037e-02
		vertex -4.334072e-01 4.730391e-01 8.546660e-02
	endloop
endfacet
facet normal -5.257311e-01 -8.506508e-01 1.070732e-13
	outer loop
		vertex -4.334072e-01 4.730391e-01 8.546660e-02
		vertex -4.331000e-01 4.728492e-01 8.535037e-02
		vertex -6.430239e-01 6.025894e-01 5.443274e-01
	endloop
endfacet
facet normal 8.506508e-01 -2.236493e-15 5.257311e-01
	outer loop
		vertex -3.143243e-01 3.994418e-01 1.766013e-01
		vertex -3.081063e-01 6.054802e-01 1.665403e-01
		vertex -3.083783e-01 6.061993e-01 1.669805e-01
	endloop
endfacet
facet normal -8.506508e-01 2.254453e-15 -5.257311e-01
	outer loop
		vertex -3.083783e-01 6.061993e-01 1.669805e-01
		vertex -3.143243e-01 3.994418e-01 1.766013e-01
		vertex -3.145120e-01 3.995578e-01 1.769050e-01
	endloop
endfacet
facet normal 5.257311e-01 8.506508e-01 -8.942627e-14
	outer loop
		vertex -3.145120e-01 3.995578e-01 1.769050e-01
		vertex -3.143243e-01 3.994418e-01 1.766013e-01
		vertex -6.430239e-01 6.025894e-01 5.443274e-01
	endloop
endfacet
facet normal -1.686738e-16 5.220944e-01 -8.528877e-01
	outer loop
		vertex -2.362309e-01 3.511774e-01 1.086909e-02
		vertex -2.724725e-01 3.735760e-01 2.458032e-02
		vertex -2.231433e-01 3.809059e-01 2.906737e-02
	endloop
endfacet
facet normal 5.257311e-01 8.506508e-01 1.394574e-15
	outer loop
		vertex -2.362309e-01 3.511774e-01 1.086909e-02
		vertex -2.724725e-01 3.735760e-01 2.458032e-02
		vertex -6.430239e-01 6.025894e-01 5.443274e-01
	endloop
endfacet
facet normal -2.281080e-16 5.220944e-01 -8.528877e-01
	outer loop
		vertex -4.159050e-01 4.622221e-01 7.884499e-02
		vertex -2.988812e-01 5.810965e-01 1.516138e-01
		vertex -2.231433e-01 3.809059e-01 2.906737e-02
	endloop
endfacet
facet normal -1.278580e-16 5.220944e-01 -8.528877e-01
	outer loop
		vertex -2.231433e-01 3.809059e-01 2.906737e-02
		vertex -2.724725e-01 3.735760e-01 2.458032e-02
		vertex -4.159050e-01 4.622221e-01 7.884499e-02
	endloop
endfacet
facet normal -5.257311e-01 -8.506508e-01 -2.168439e-16
	outer loop
		vertex -4.159050e-01 4.622221e-01 7.884499e-02
		vertex -2.724725e-01 3.735760e-01 2.458032e-02
		vertex -6.430239e-01 6.025894e-01 5.443274e-01
	endloop
endfacet
facet normal 8.506508e-01 2.548110e-16 5.257311e-01
	outer loop
		vertex -2.321797e-01 3.486737e-01 4.368852e-02
		vertex -2.231433e-01 3.809059e-01 2.906737e-02
		vertex -2.988812e-01 5.810965e-01 1.516138e-01
	endloop
endfacet
facet normal -8.506508e-01 -9.467879e-17 -5.257311e-01
	outer loop
		vertex -2.988812e-01 5.810965e-01 1.516138e-01
		vertex -2.321797e-01 3.486737e-01 4.368852e-02
		vertex -3.077492e-01 3.953782e-01 1.659626e-01
	endloop
endfacet
facet normal 5.257311e-01 8.506508e-01 0.000000e+00
	outer loop
		vertex -3.077492e-01 3.953782e-01 1.659626e-01
		vertex -2.321797e-01 3.486737e-01 4.368852e-02
		vertex -6.430239e-01 6.025894e-01 5.443274e-01
	endloop
endfacet
facet normal -1.191709e-15 -5.220944e-01 8.528877e-01
	outer loop
		vertex -4.159050e-01 4.622221e-01 7.884499e-02
		vertex -2.988812e-01 5.810965e-01 1.516138e-01
		vertex -3.046801e-01 5.964241e-01 1.609966e-01
	endloop
endfacet
facet normal 2.222619e-15 5.220944e-01 -8.528877e-01
	outer loop
		vertex -3.046801e-01 5.964241e-01 1.609966e-01
		vertex -4.159050e-01 4.622221e-01 7.884499e-02
		vertex -4.224651e-01 4.662765e-01 8.132688e-02
	endloop
endfacet
facet normal -5.257311e-01 -8.506508e-01 2.222402e-16
	outer loop
		vertex -4.224651e-01 4.662765e-01 8.132688e-02
		vertex -4.159050e-01 4.622221e-01 7.884499e-02
		vertex -6.430239e-01 6.025894e-01 5.443274e-01
	endloop
endfacet
facet normal 8.506508e-01 1.997305e-16 5.257311e-01
	outer loop
		vertex -3.077492e-01 3.953782e-01 1.659626e-01
		vertex -2.988812e-01 5.810965e-01 1.516138e-01
		vertex -3.046801e-01 5.964241e-01 1.609966e-01
	endloop
endfacet
facet normal -8.506508e-01 -1.889239e-16 -5.257311e-01
	outer loop
		vertex -3.046801e-01 5.964241e-01 1.609966e-01
		vertex -3.077492e-01 3.953782e-01 1.659626e-01
		vertex -3.119305e-01 3.979624e-01 1.727280e-01
	endloop
endfacet
facet normal 5.257311e-01 8.506508e-01 -4.018487e-14
	outer loop
		vertex -3.119305e-01 3.979624e-01 1.727280e-01
		vertex -3.077492e-01 3.953782e-01 1.659626e-01
		vertex -6.430239e-01 6.025894e-01 5.443274e-01
	endloop
endfacet
facet normal -1.942121e-15 5.220944e-01 -8.528877e-01
	outer loop
		vertex -2.091138e-01 3.344182e-01 6.099102e-04
		vertex -2.056207e-01 3.345902e-01 7.152045e-04
		vertex -2.060660e-01 3.334218e-01 2.775558e-17
	endloop
endfacet
facet normal -3.050394e-15 -5.220944e-01 8.528877e-01
	outer loop
		vertex -2.060660e-01 3.334218e-01 2.775558e-17
		vertex -2.091138e-01 3.344182e-01 6.099102e-04
		vertex -2.075017e-01 3.334218e-01 2.262078e-17
	endloop
endfacet
facet normal 5.257311e-01 8.506508e-01 -1.153055e-14
	outer loop
		vertex -2.075017e-01 3.334218e-01 2.262078e-17
		vertex -2.091138e-01 3.344182e-01 6.099102e-04
		vertex -6.430239e-01 6.025894e-01 5.443274e-01
	endloop
endfacet
facet normal -8.630459e-16 5.220944e-01 -8.528877e-01
	outer loop
		vertex -2.245559e-01 3.439619e-01 6.452104e-03
		vertex -2.161566e-01 3.624386e-01 1.776261e-02
		vertex -2.056207e-01 3.345902e-01 7.152045e-04
	endloop
endfacet
facet normal -2.192762e-15 5.220944e-01 -8.528877e-01
	outer loop
		vertex -2.056207e-01 3.345902e-01 7.152045e-04
		vertex -2.091138e-01 3.344182e-01 6.099102e-04
		vertex -2.245559e-01 3.439619e-01 6.452104e-03
	endloop
endfacet
facet normal -5.257311e-01 -8.506508e-01 2.265901e-15
	outer loop
		vertex -2.245559e-01 3.439619e-01 6.452104e-03
		vertex -2.091138e-01 3.344182e-01 6.099102e-04
		vertex -6.430239e-01 6.025894e-01 5.443274e-01
	endloop
endfacet
facet normal 8.506508e-01 1.906050e-15 5.257311e-01
	outer loop
		vertex -2.063312e-01 3.326984e-01 1.864794e-03
		vertex -2.056207e-01 3.345902e-01 7.152045e-04
		vertex -2.161566e-01 3.624386e-01 1.776261e-02
	endloop
endfacet
facet normal -8.506508e-01 -1.873255e-16 -5.257311e-01
	outer loop
		vertex -2.161566e-01 3.624386e-01 1.776261e-02
		vertex -2.063312e-01 3.326984e-01 1.864794e-03
		vertex -2.224017e-01 3.426305e-01 2.786742e-02
	endloop
endfacet
facet normal 5.257311e-01 8.506508e-01 1.958195e-15
	outer loop
		vertex -2.224017e-01 3.426305e-01 2.786742e-02
		vertex -2.063312e-01 3.326984e-01 1.864794e-03
		vertex -6.430239e-01 6.025894e-01 5.443274e-01
	endloop
endfacet
facet normal -1.481122e-14 5.220944e-01 -8.528877e-01
	outer loop
		vertex -2.248103e-01 3.441191e-01 6.548361e-03
		vertex -2.165734e-01 3.635403e-01 1.843699e-02
		vertex -2.161566e-01 3.624386e-01 1.776261e-02
	endloop
endfacet
facet normal 3.839036e-15 -5.220944e-01 8.528877e-01
	outer loop
		vertex -2.161566e-01 3.624386e-01 1.776261e-02
		vertex -2.248103e-01 3.441191e-01 6.548361e-03
		vertex -2.245559e-01 3.439619e-01 6.452104e-03
	endloop
endfacet
facet normal 5.257311e-01 8.506508e-01 1.538811e-13
	outer loop
		vertex -2.245559e-01 3.439619e-01 6.452104e-03
		vertex -2.248103e-01 3.441191e-01 6.548361e-03
		vertex -6.430239e-01 6.025894e-01 5.443274e-01
	endloop
endfacet
facet normal -8.506508e-01 3.005946e-14 -5.257311e-01
	outer loop
		vertex -2.230036e-01 3.430025e-01 2.884135e-02
		vertex -2.165734e-01 3.635403e-01 1.843699e-02
		vertex -2.161566e-01 3.624386e-01 1.776261e-02
	endloop
endfacet
facet normal 8.506508e-01 -3.250891e-14 5.257311e-01
	outer loop
		vertex -2.161566e-01 3.624386e-01 1.776261e-02
		vertex -2.230036e-01 3.430025e-01 2.884135e-02
		vertex -2.224017e-01 3.426305e-01 2.786742e-02
	endloop
endfacet
facet normal -5.257311e-01 -8.506508e-01 8.285685e-14
	outer loop
		vertex -2.224017e-01 3.426305e-01 2.786742e-02
		vertex -2.230036e-01 3.430025e-01 2.884135e-02
		vertex -6.430239e-01 6.025894e-01 5.443274e-01
	endloop
endfacet
facet normal 6.373991e-14 -5.220944e-01 8.528877e-01
	outer loop
		vertex -2.248103e-01 3.441191e-01 6.548361e-03
		vertex -2.165734e-01 3.635403e-01 1.843699e-02
		vertex -2.166702e-01 3.637963e-01 1.859370e-02
	endloop
endfacet
facet normal -8.134297e-14 5.220944e-01 -8.528877e-01
	outer loop
		vertex -2.166702e-01 3.637963e-01 1.859370e-02
		vertex -2.248103e-01 3.441191e-01 6.548361e-03
		vertex -2.248679e-01 3.441547e-01 6.570119e-03
	endloop
endfacet
facet normal -5.257311e-01 -8.506508e-01 5.282613e-13
	outer loop
		vertex -2.248679e-01 3.441547e-01 6.570119e-03
		vertex -2.248103e-01 3.441191e-01 6.548361e-03
		vertex -6.430239e-01 6.025894e-01 5.443274e-01
	endloop
endfacet
facet normal 8.506508e-01 3.136012e-14 5.257311e-01
	outer loop
		vertex -2.230036e-01 3.430025e-01 2.884135e-02
		vertex -2.165734e-01 3.635403e-01 1.843699e-02
		vertex -2.166702e-01 3.637963e-01 1.859370e-02
	endloop
endfacet
facet normal -8.506508e-01 -3.720373e-14 -5.257311e-01
	outer loop
		vertex -2.166702e-01 3.637963e-01 1.859370e-02
		vertex -2.230036e-01 3.430025e-01 2.884135e-02
		vertex -2.231432e-01 3.430888e-01 2.906709e-02
	endloop
endfacet
facet normal 5.257311e-01 8.506508e-01 -2.552601e-13
	outer loop
		vertex -2.231432e-01 3.430888e-01 2.906709e-02
		vertex -2.230036e-01 3.430025e-01 2.884135e-02
		vertex -6.430239e-01 6.025894e-01 5.443274e-01
	endloop
endfacet
facet normal 1.318539e-14 5.220944e-01 8.528877e-01
	outer loop
		vertex -2.056189e-01 3.322582e-01 7.123057e-04
		vertex -2.054408e-01 3.327290e-01 4.240888e-04
		vertex -2.060660e-01 3.334218e-01 0.000000e+00
	endloop
endfacet
facet normal -5.943807e-14 5.220944e-01 8.528877e-01
	outer loop
		vertex -2.060660e-01 3.334218e-01 0.000000e+00
		vertex -2.063346e-01 3.327005e-01 4.415287e-04
		vertex -2.056189e-01 3.322582e-01 7.123057e-04
	endloop
endfacet
facet normal 5.257311e-01 8.506508e-01 -6.042334e-14
	outer loop
		vertex -2.056189e-01 3.322582e-01 7.123057e-04
		vertex -2.063346e-01 3.327005e-01 4.415287e-04
		vertex -6.430239e-01 6.025894e-01 5.443274e-01
	endloop
endfacet
facet normal 9.353016e-01 -3.538517e-01 0.000000e+00
	outer loop
		vertex -2.056189e-01 3.322582e-01 7.123057e-04
		vertex -2.056189e-01 3.322582e-01 7.123057e-04
		vertex -2.054408e-01 3.327290e-01 4.240888e-04
	endloop
endfacet
facet normal 5.257311e-01 8.506508e-01 0.000000e+00
	outer loop
		vertex -2.056189e-01 3.322582e-01 7.123057e-04
		vertex -2.056189e-01 3.322582e-01 7.123057e-04
		vertex -6.430239e-01 6.025894e-01 5.443274e-01
	endloop
endfacet
facet normal 5.326428e-01 2.857893e-01 7.966280e-01
	outer loop
		vertex -2.056189e-01 3.322582e-01 7.123057e-04
		vertex -2.051787e-01 3.334218e-01 2.256239e-17
		vertex -2.054408e-01 3.327290e-01 4.240888e-04
	endloop
endfacet
facet normal 2.170852e-01 -5.684415e-01 -7.935668e-01
	outer loop
		vertex -2.054408e-01 3.327290e-01 4.240888e-04
		vertex -2.056189e-01 3.322582e-01 7.123057e-04
		vertex -2.056189e-01 3.322582e-01 7.123057e-04
	endloop
endfacet
facet normal 2.405479e-01 4.390247e-01 8.656755e-01
	outer loop
		vertex -2.056189e-01 3.322582e-01 7.123057e-04
		vertex -2.051787e-01 3.334218e-01 2.256239e-17
		vertex -2.054408e-01 3.327290e-01 4.240888e-04
	endloop
endfacet
facet normal 2.170852e-01 -5.684415e-01 -7.935668e-01
	outer loop
		vertex -2.054408e-01 3.327290e-01 4.240888e-04
		vertex -2.056189e-01 3.322582e-01 7.123057e-04
		vertex -2.056189e-01 3.322582e-01 7.123057e-04
	endloop
endfacet
facet normal -1.026647e-01 -9.211352e-01 3.754596e-01
	outer loop
		vertex -2.056189e-01 3.322582e-01 7.123057e-04
		vertex -2.056189e-01 3.322582e-01 7.123057e-04
		vertex -6.430239e-01 6.025894e-01 5.443274e-01
	endloop
endfacet
facet normal 0.000000e+00 0.000000e+00 0.000000e+00
	outer loop
		vertex -2.056189e-01 3.322582e-01 7.123057e-04
		vertex -2.051787e-01 3.334218e-01 2.256239e-17
		vertex -2.051787e-01 3.334218e-01 2.256239e-17
	endloop
endfacet
facet normal 9.356366e-01 -3.529647e-01 0.000000e+00
	outer loop
		vertex -2.051787e-01 3.334218e-01 2.256239e-17
		vertex -2.056189e-01 3.322582e-01 7.123057e-04
		vertex -2.056189e-01 3.322582e-01 7.123057e-04
	endloop
endfacet
facet normal 0.000000e+00 0.000000e+00 0.000000e+00
	outer loop
		vertex -2.056189e-01 3.322582e-01 7.123057e-04
		vertex -2.051787e-01 3.334218e-01 2.256239e-17
		vertex -2.051787e-01 3.334218e-01 2.256239e-17
	endloop
endfacet
facet normal 9.356366e-01 -3.529647e-01 0.000000e+00
	outer loop
		vertex -2.051787e-01 3.334218e-01 2.256239e-17
		vertex -2.056189e-01 3.322582e-01 7.123057e-04
		vertex -2.056189e-01 3.322582e-01 7.123057e-04
	endloop
endfacet
facet normal -5.257311e-01 -8.506508e-01 0.000000e+00
	outer loop
		vertex -2.056189e-01 3.322582e-01 7.123057e-04
		vertex -2.056189e-01 3.322582e-01 7.123057e-04
		vertex -6.430239e-01 6.025894e-01 5.443274e-01
	endloop
endfacet
facet normal -8.506508e-01 7.904775e-16 -5.257311e-01
	outer loop
		vertex -2.061521e-01 3.325877e-01 1.575027e-03
		vertex -2.055094e-01 3.342959e-01 5.350766e-04
		vertex -2.051787e-01 3.334218e-01 8.786896e-20
	endloop
endfacet
facet normal 8.506508e-01 1.221629e-14 5.257311e-01
	outer loop
		vertex -2.051787e-01 3.334218e-01 8.786896e-20
		vertex -2.061521e-01 3.325877e-01 1.575027e-03
		vertex -2.056189e-01 3.322582e-01 7.123057e-04
	endloop
endfacet
facet normal -5.257311e-01 -8.506508e-01 2.687540e-14
	outer loop
		vertex -2.056189e-01 3.322582e-01 7.123057e-04
		vertex -2.061521e-01 3.325877e-01 1.575027e-03
		vertex -6.430239e-01 6.025894e-01 5.443274e-01
	endloop
endfacet
facet normal -8.506508e-01 2.652789e-16 -5.257311e-01
	outer loop
		vertex -2.063312e-01 3.326984e-01 1.864794e-03
		vertex -2.056207e-01 3.345902e-01 7.152045e-04
		vertex -2.055094e-01 3.342959e-01 5.350766e-04
	endloop
endfacet
facet normal 8.506508e-01 1.343439e-14 5.257311e-01
	outer loop
		vertex -2.055094e-01 3.342959e-01 5.350766e-04
		vertex -2.063312e-01 3.326984e-01 1.864794e-03
		vertex -2.061521e-01 3.325877e-01 1.575027e-03
	endloop
endfacet
facet normal -5.257311e-01 -8.506508e-01 -5.308894e-13
	outer loop
		vertex -2.061521e-01 3.325877e-01 1.575027e-03
		vertex -2.063312e-01 3.326984e-01 1.864794e-03
		vertex -6.430239e-01 6.025894e-01 5.443274e-01
	endloop
endfacet
endsolid MIKE666
