solid MIKE666
facet normal 5.516135e-01 2.758067e-01 7.871806e-01
	outer loop
		vertex -2.610580e-01 3.974107e-01 7.543867e-01
		vertex -1.702123e-01 6.352478e-01 6.073953e-01
		vertex -2.610580e-01 3.974107e-01 7.543867e-01
	endloop
endfacet
facet normal 1.439494e-16 -5.257311e-01 -8.506508e-01
	outer loop
		vertex -5.712084e-01 6.469738e-01 6.001482e-01
		vertex -1.657333e-01 6.469738e-01 6.001482e-01
		vertex -1.702123e-01 6.352478e-01 6.073953e-01
	endloop
endfacet
facet normal -3.903270e-01 -3.753145e-01 -8.407044e-01
	outer loop
		vertex -1.702123e-01 6.352478e-01 6.073953e-01
		vertex -1.657333e-01 6.469738e-01 6.001482e-01
		vertex -2.610580e-01 3.974107e-01 7.543867e-01
	endloop
endfacet
facet normal 0.000000e+00 0.000000e+00 -1.000000e+00
	outer loop
		vertex -1.657333e-01 6.469738e-01 6.001482e-01
		vertex -1.657333e-01 6.469738e-01 6.001482e-01
		vertex -5.712084e-01 6.469738e-01 6.001482e-01
	endloop
endfacet
facet normal -8.816565e-01 4.408282e-01 1.683814e-01
	outer loop
		vertex -1.657333e-01 6.469738e-01 6.001482e-01
		vertex -1.657333e-01 6.469738e-01 6.001482e-01
		vertex -2.610580e-01 3.974107e-01 7.543867e-01
	endloop
endfacet
facet normal 0.000000e+00 -5.220944e-01 8.528877e-01
	outer loop
		vertex -5.712084e-01 6.469738e-01 6.001482e-01
		vertex -1.614931e-01 6.357661e-01 5.932874e-01
		vertex -1.657333e-01 6.469738e-01 6.001482e-01
	endloop
endfacet
facet normal -8.506508e-01 -8.577186e-16 -5.257311e-01
	outer loop
		vertex -1.657333e-01 6.469738e-01 6.001482e-01
		vertex -1.614931e-01 6.357661e-01 5.932874e-01
		vertex -2.610580e-01 3.974107e-01 7.543867e-01
	endloop
endfacet
facet normal 8.506508e-01 6.201469e-15 5.257311e-01
	outer loop
		vertex -1.551986e-01 6.191283e-01 5.831027e-01
		vertex -1.590106e-01 6.292042e-01 5.892706e-01
		vertex -2.610580e-01 3.974107e-01 7.543867e-01
	endloop
endfacet
facet normal -8.506508e-01 7.050204e-15 -5.257311e-01
	outer loop
		vertex -1.614931e-01 6.357661e-01 5.932874e-01
		vertex -1.590106e-01 6.292042e-01 5.892706e-01
		vertex -2.610580e-01 3.974107e-01 7.543867e-01
	endloop
endfacet
facet normal -8.506508e-01 1.615932e-14 -5.257311e-01
	outer loop
		vertex -1.589433e-02 2.509190e-01 3.577036e-01
		vertex -1.306695e-02 2.434456e-01 3.531288e-01
		vertex -2.610580e-01 3.974107e-01 7.543867e-01
	endloop
endfacet
facet normal 8.506508e-01 -1.208343e-15 5.257311e-01
	outer loop
		vertex -8.364103e-03 2.310151e-01 3.455195e-01
		vertex -1.306695e-02 2.434456e-01 3.531288e-01
		vertex -2.610580e-01 3.974107e-01 7.543867e-01
	endloop
endfacet
facet normal 8.506508e-01 -2.635198e-15 5.257311e-01
	outer loop
		vertex -1.540880e-01 6.161929e-01 5.813057e-01
		vertex -1.551986e-01 6.191283e-01 5.831027e-01
		vertex -2.610580e-01 3.974107e-01 7.543867e-01
	endloop
endfacet
facet normal -8.506508e-01 -2.294593e-16 -5.257311e-01
	outer loop
		vertex -1.540880e-01 6.161929e-01 5.813057e-01
		vertex -5.898888e-02 3.648266e-01 4.274321e-01
		vertex -2.610580e-01 3.974107e-01 7.543867e-01
	endloop
endfacet
facet normal 8.506508e-01 1.227204e-15 5.257311e-01
	outer loop
		vertex -5.685881e-02 3.591964e-01 4.239856e-01
		vertex -5.898888e-02 3.648266e-01 4.274321e-01
		vertex -2.610580e-01 3.974107e-01 7.543867e-01
	endloop
endfacet
facet normal 8.506508e-01 8.878171e-16 5.257311e-01
	outer loop
		vertex -1.589433e-02 2.509190e-01 3.577036e-01
		vertex -5.685881e-02 3.591964e-01 4.239856e-01
		vertex -2.610580e-01 3.974107e-01 7.543867e-01
	endloop
endfacet
facet normal 8.506508e-01 -1.304466e-15 5.257311e-01
	outer loop
		vertex 1.734723e-17 2.089070e-01 3.319861e-01
		vertex -8.364103e-03 2.310151e-01 3.455195e-01
		vertex -2.610580e-01 3.974107e-01 7.543867e-01
	endloop
endfacet
facet normal -5.257311e-01 8.506508e-01 -1.746279e-14
	outer loop
		vertex -5.751655e-01 6.445282e-01 5.986511e-01
		vertex -5.775994e-01 6.430239e-01 6.025894e-01
		vertex -5.712084e-01 6.469738e-01 6.001482e-01
	endloop
endfacet
facet normal 0.000000e+00 -5.257311e-01 -8.506508e-01
	outer loop
		vertex -2.610580e-01 3.974107e-01 7.543867e-01
		vertex -6.025894e-01 5.775994e-01 6.430239e-01
		vertex -5.930441e-01 6.025894e-01 6.275793e-01
	endloop
endfacet
facet normal -2.419133e-16 5.257311e-01 8.506508e-01
	outer loop
		vertex -5.930441e-01 6.025894e-01 6.275793e-01
		vertex -2.610580e-01 3.974107e-01 7.543867e-01
		vertex -1.702123e-01 6.352478e-01 6.073953e-01
	endloop
endfacet
facet normal 4.252109e-16 -5.257311e-01 -8.506508e-01
	outer loop
		vertex -1.702123e-01 6.352478e-01 6.073953e-01
		vertex -5.930441e-01 6.025894e-01 6.275793e-01
		vertex -5.866845e-01 6.192390e-01 6.172892e-01
	endloop
endfacet
facet normal -2.407077e-16 5.257311e-01 8.506508e-01
	outer loop
		vertex -5.866845e-01 6.192390e-01 6.172892e-01
		vertex -1.702123e-01 6.352478e-01 6.073953e-01
		vertex -5.712084e-01 6.469738e-01 6.001482e-01
	endloop
endfacet
facet normal -6.552248e-15 5.257311e-01 8.506508e-01
	outer loop
		vertex -5.712084e-01 6.469738e-01 6.001482e-01
		vertex -5.775994e-01 6.430239e-01 6.025894e-01
		vertex -5.866845e-01 6.192390e-01 6.172892e-01
	endloop
endfacet
facet normal -3.242439e-18 -5.220944e-01 8.528877e-01
	outer loop
		vertex -5.694894e-01 6.295252e-01 5.894671e-01
		vertex -1.614931e-01 6.357661e-01 5.932874e-01
		vertex -5.712084e-01 6.469738e-01 6.001482e-01
	endloop
endfacet
facet normal 1.009928e-14 -5.220944e-01 8.528877e-01
	outer loop
		vertex -5.712084e-01 6.469738e-01 6.001482e-01
		vertex -5.751655e-01 6.445282e-01 5.986511e-01
		vertex -5.694894e-01 6.295252e-01 5.894671e-01
	endloop
endfacet
facet normal 2.249059e-16 -5.220944e-01 8.528877e-01
	outer loop
		vertex -5.656245e-01 6.193094e-01 5.832135e-01
		vertex -5.603650e-01 6.054075e-01 5.747035e-01
		vertex -1.590106e-01 6.292042e-01 5.892706e-01
	endloop
endfacet
facet normal -7.827582e-17 5.220944e-01 -8.528877e-01
	outer loop
		vertex -5.603650e-01 6.054075e-01 5.747035e-01
		vertex -1.590106e-01 6.292042e-01 5.892706e-01
		vertex -1.551986e-01 6.191283e-01 5.831027e-01
	endloop
endfacet
facet normal 2.525416e-16 5.220944e-01 -8.528877e-01
	outer loop
		vertex -1.551986e-01 6.191283e-01 5.831027e-01
		vertex -5.596899e-01 6.036229e-01 5.736110e-01
		vertex -5.603650e-01 6.054075e-01 5.747035e-01
	endloop
endfacet
facet normal 2.742714e-17 5.220944e-01 -8.528877e-01
	outer loop
		vertex -5.656245e-01 6.193094e-01 5.832135e-01
		vertex -5.693156e-01 6.290658e-01 5.891859e-01
		vertex -1.590106e-01 6.292042e-01 5.892706e-01
	endloop
endfacet
facet normal -2.310620e-17 -5.220944e-01 8.528877e-01
	outer loop
		vertex -5.693156e-01 6.290658e-01 5.891859e-01
		vertex -1.590106e-01 6.292042e-01 5.892706e-01
		vertex -1.614931e-01 6.357661e-01 5.932874e-01
	endloop
endfacet
facet normal 1.134397e-15 -5.220944e-01 8.528877e-01
	outer loop
		vertex -1.614931e-01 6.357661e-01 5.932874e-01
		vertex -5.694894e-01 6.295252e-01 5.894671e-01
		vertex -5.693156e-01 6.290658e-01 5.891859e-01
	endloop
endfacet
facet normal -8.907985e-16 -5.220944e-01 8.528877e-01
	outer loop
		vertex -5.596899e-01 6.036229e-01 5.736110e-01
		vertex -5.581646e-01 5.995913e-01 5.711431e-01
		vertex -1.551986e-01 6.191283e-01 5.831027e-01
	endloop
endfacet
facet normal 3.838260e-16 5.220944e-01 -8.528877e-01
	outer loop
		vertex -5.581646e-01 5.995913e-01 5.711431e-01
		vertex -1.551986e-01 6.191283e-01 5.831027e-01
		vertex -1.540880e-01 6.161929e-01 5.813057e-01
	endloop
endfacet
facet normal -5.754895e-15 5.220944e-01 -8.528877e-01
	outer loop
		vertex -1.540880e-01 6.161929e-01 5.813057e-01
		vertex -5.579609e-01 5.990529e-01 5.708135e-01
		vertex -5.581646e-01 5.995913e-01 5.711431e-01
	endloop
endfacet
facet normal -1.004040e-16 -5.220944e-01 8.528877e-01
	outer loop
		vertex -5.405185e-01 5.529491e-01 5.425911e-01
		vertex -5.898888e-02 3.648266e-01 4.274321e-01
		vertex -1.540880e-01 6.161929e-01 5.813057e-01
	endloop
endfacet
facet normal -9.775368e-18 -5.220944e-01 8.528877e-01
	outer loop
		vertex -1.540880e-01 6.161929e-01 5.813057e-01
		vertex -5.579609e-01 5.990529e-01 5.708135e-01
		vertex -5.405185e-01 5.529491e-01 5.425911e-01
	endloop
endfacet
facet normal 0.000000e+00 0.000000e+00 0.000000e+00
	outer loop
		vertex -2.706033e-01 3.724207e-01 7.698313e-01
		vertex -2.610580e-01 3.974107e-01 7.543867e-01
		vertex -2.610580e-01 3.974107e-01 7.543867e-01
	endloop
endfacet
facet normal 0.000000e+00 0.000000e+00 0.000000e+00
	outer loop
		vertex -2.610580e-01 3.974107e-01 7.543867e-01
		vertex -2.706033e-01 3.724207e-01 7.698313e-01
		vertex -2.706033e-01 3.724207e-01 7.698313e-01
	endloop
endfacet
facet normal 0.000000e+00 0.000000e+00 0.000000e+00
	outer loop
		vertex -2.706033e-01 3.724207e-01 7.698313e-01
		vertex -2.610580e-01 3.974107e-01 7.543867e-01
		vertex -2.610580e-01 3.974107e-01 7.543867e-01
	endloop
endfacet
facet normal 0.000000e+00 0.000000e+00 0.000000e+00
	outer loop
		vertex -2.610580e-01 3.974107e-01 7.543867e-01
		vertex -2.706033e-01 3.724207e-01 7.698313e-01
		vertex -2.706033e-01 3.724207e-01 7.698313e-01
	endloop
endfacet
facet normal 0.000000e+00 0.000000e+00 0.000000e+00
	outer loop
		vertex -2.706033e-01 3.724207e-01 7.698313e-01
		vertex -2.706033e-01 3.724207e-01 7.698313e-01
		vertex -2.706033e-01 3.724207e-01 7.698313e-01
	endloop
endfacet
facet normal 8.506508e-01 6.552681e-15 5.257311e-01
	outer loop
		vertex -2.706033e-01 3.724207e-01 7.698313e-01
		vertex -2.691248e-01 3.715070e-01 7.674391e-01
		vertex -2.610580e-01 3.974107e-01 7.543867e-01
	endloop
endfacet
facet normal 5.773502e-01 -5.773502e-01 5.773503e-01
	outer loop
		vertex -2.706033e-01 3.724207e-01 7.698313e-01
		vertex -2.691248e-01 3.715070e-01 7.674391e-01
		vertex -2.706033e-01 3.724207e-01 7.698313e-01
	endloop
endfacet
facet normal 8.506508e-01 0.000000e+00 5.257311e-01
	outer loop
		vertex -2.691248e-01 3.715070e-01 7.674391e-01
		vertex -2.610580e-01 3.665214e-01 7.543867e-01
		vertex -2.610580e-01 3.974107e-01 7.543867e-01
	endloop
endfacet
facet normal 6.077820e-01 -5.376533e-01 5.844057e-01
	outer loop
		vertex -2.691248e-01 3.715070e-01 7.674391e-01
		vertex -2.610580e-01 3.665214e-01 7.543867e-01
		vertex -2.706033e-01 3.724207e-01 7.698313e-01
	endloop
endfacet
facet normal -8.506508e-01 0.000000e+00 -5.257311e-01
	outer loop
		vertex -2.581843e-01 3.647454e-01 7.497370e-01
		vertex -2.610580e-01 3.665214e-01 7.543867e-01
		vertex -2.610580e-01 3.974107e-01 7.543867e-01
	endloop
endfacet
facet normal 7.758486e-01 5.749592e-01 2.597707e-01
	outer loop
		vertex -2.581843e-01 3.647454e-01 7.497370e-01
		vertex -2.610580e-01 3.665214e-01 7.543867e-01
		vertex -2.706033e-01 3.724207e-01 7.698313e-01
	endloop
endfacet
facet normal 8.506508e-01 9.193990e-15 5.257311e-01
	outer loop
		vertex -2.581843e-01 3.647454e-01 7.497370e-01
		vertex -2.580700e-01 3.646748e-01 7.495521e-01
		vertex -2.610580e-01 3.974107e-01 7.543867e-01
	endloop
endfacet
facet normal 7.385853e-01 6.400334e-01 2.117758e-01
	outer loop
		vertex -2.581843e-01 3.647454e-01 7.497370e-01
		vertex -2.580700e-01 3.646748e-01 7.495521e-01
		vertex -2.706033e-01 3.724207e-01 7.698313e-01
	endloop
endfacet
facet normal -2.017350e-15 5.220944e-01 -8.528877e-01
	outer loop
		vertex -3.485669e-02 2.267213e-01 3.428911e-01
		vertex -1.306695e-02 2.434456e-01 3.531288e-01
		vertex -8.364103e-03 2.310151e-01 3.455195e-01
	endloop
endfacet
facet normal -1.852419e-15 5.220944e-01 -8.528877e-01
	outer loop
		vertex -8.364103e-03 2.310151e-01 3.455195e-01
		vertex -2.383654e-02 2.199105e-01 3.387218e-01
		vertex -3.485669e-02 2.267213e-01 3.428911e-01
	endloop
endfacet
facet normal -5.257311e-01 -8.506508e-01 -3.964590e-16
	outer loop
		vertex -3.485669e-02 2.267213e-01 3.428911e-01
		vertex -2.383654e-02 2.199105e-01 3.387218e-01
		vertex -2.706033e-01 3.724207e-01 7.698313e-01
	endloop
endfacet
facet normal 8.506508e-01 -1.554595e-15 5.257311e-01
	outer loop
		vertex -2.580700e-01 3.646748e-01 7.495521e-01
		vertex -2.429358e-01 3.553213e-01 7.250645e-01
		vertex -2.610580e-01 3.974107e-01 7.543867e-01
	endloop
endfacet
facet normal -7.940088e-01 -5.374829e-01 -2.840108e-01
	outer loop
		vertex -2.580700e-01 3.646748e-01 7.495521e-01
		vertex -2.429358e-01 3.553213e-01 7.250645e-01
		vertex -2.706033e-01 3.724207e-01 7.698313e-01
	endloop
endfacet
facet normal -8.506508e-01 7.649219e-16 -5.257311e-01
	outer loop
		vertex -2.139870e-01 3.374300e-01 6.782244e-01
		vertex -2.429358e-01 3.553213e-01 7.250645e-01
		vertex -2.610580e-01 3.974107e-01 7.543867e-01
	endloop
endfacet
facet normal 8.661987e-01 2.771836e-01 4.157754e-01
	outer loop
		vertex -2.139870e-01 3.374300e-01 6.782244e-01
		vertex -2.429358e-01 3.553213e-01 7.250645e-01
		vertex -2.706033e-01 3.724207e-01 7.698313e-01
	endloop
endfacet
facet normal 8.506508e-01 1.224696e-15 5.257311e-01
	outer loop
		vertex -2.139870e-01 3.374300e-01 6.782244e-01
		vertex -2.049466e-01 3.318427e-01 6.635966e-01
		vertex -2.610580e-01 3.974107e-01 7.543867e-01
	endloop
endfacet
facet normal 8.680222e-01 1.531804e-01 4.723062e-01
	outer loop
		vertex -2.139870e-01 3.374300e-01 6.782244e-01
		vertex -2.049466e-01 3.318427e-01 6.635966e-01
		vertex -2.706033e-01 3.724207e-01 7.698313e-01
	endloop
endfacet
facet normal -2.794813e-15 -5.220944e-01 8.528877e-01
	outer loop
		vertex -2.981209e-03 2.070212e-01 3.308317e-01
		vertex 1.734723e-17 2.089070e-01 3.319861e-01
		vertex -8.364103e-03 2.310151e-01 3.455195e-01
	endloop
endfacet
facet normal -1.019061e-15 5.220944e-01 -8.528877e-01
	outer loop
		vertex -8.364103e-03 2.310151e-01 3.455195e-01
		vertex -2.981209e-03 2.070212e-01 3.308317e-01
		vertex -2.383654e-02 2.199105e-01 3.387218e-01
	endloop
endfacet
facet normal -5.257311e-01 -8.506508e-01 3.142387e-16
	outer loop
		vertex -2.383654e-02 2.199105e-01 3.387218e-01
		vertex -2.981209e-03 2.070212e-01 3.308317e-01
		vertex -2.706033e-01 3.724207e-01 7.698313e-01
	endloop
endfacet
facet normal 3.426253e-15 5.220944e-01 -8.528877e-01
	outer loop
		vertex -1.143228e-03 2.058853e-01 3.301363e-01
		vertex -2.981209e-03 2.070212e-01 3.308317e-01
		vertex 1.734723e-17 2.089070e-01 3.319861e-01
	endloop
endfacet
facet normal 5.257311e-01 8.506508e-01 1.322253e-14
	outer loop
		vertex -1.143228e-03 2.058853e-01 3.301363e-01
		vertex -2.981209e-03 2.070212e-01 3.308317e-01
		vertex -2.706033e-01 3.724207e-01 7.698313e-01
	endloop
endfacet
facet normal -8.506508e-01 5.589180e-15 5.257311e-01
	outer loop
		vertex -1.143228e-03 2.058853e-01 3.301363e-01
		vertex -3.418596e-04 2.053900e-01 3.314329e-01
		vertex 1.734723e-17 2.089070e-01 3.319861e-01
	endloop
endfacet
facet normal -5.257311e-01 -8.506508e-01 -6.538407e-15
	outer loop
		vertex -1.143228e-03 2.058853e-01 3.301363e-01
		vertex -3.418596e-04 2.053900e-01 3.314329e-01
		vertex -2.706033e-01 3.724207e-01 7.698313e-01
	endloop
endfacet
facet normal -8.506508e-01 5.578097e-16 -5.257311e-01
	outer loop
		vertex -2.049466e-01 3.318427e-01 6.635966e-01
		vertex -2.610580e-01 3.974107e-01 7.543867e-01
		vertex 1.734723e-17 2.089070e-01 3.319861e-01
	endloop
endfacet
facet normal -8.506508e-01 1.266089e-16 -5.257311e-01
	outer loop
		vertex 1.734723e-17 2.089070e-01 3.319861e-01
		vertex 1.679232e-17 2.051787e-01 3.319861e-01
		vertex -2.049466e-01 3.318427e-01 6.635966e-01
	endloop
endfacet
facet normal -7.419985e-01 -6.359987e-01 -2.119996e-01
	outer loop
		vertex -2.049466e-01 3.318427e-01 6.635966e-01
		vertex 1.679232e-17 2.051787e-01 3.319861e-01
		vertex -2.706033e-01 3.724207e-01 7.698313e-01
	endloop
endfacet
facet normal 8.506508e-01 -1.266089e-16 -5.257311e-01
	outer loop
		vertex 1.679232e-17 2.051787e-01 3.319861e-01
		vertex -3.418596e-04 2.053900e-01 3.314329e-01
		vertex 1.734723e-17 2.089070e-01 3.319861e-01
	endloop
endfacet
facet normal 5.257311e-01 8.506508e-01 -1.419092e-14
	outer loop
		vertex 1.679232e-17 2.051787e-01 3.319861e-01
		vertex -3.418596e-04 2.053900e-01 3.314329e-01
		vertex -2.706033e-01 3.724207e-01 7.698313e-01
	endloop
endfacet
facet normal 8.506508e-01 2.230081e-16 5.257311e-01
	outer loop
		vertex -5.753239e-01 5.607484e-01 5.989074e-01
		vertex -5.751655e-01 6.445282e-01 5.986511e-01
		vertex -5.775994e-01 6.430239e-01 6.025894e-01
	endloop
endfacet
facet normal -8.506508e-01 -0.000000e+00 -5.257311e-01
	outer loop
		vertex -5.775994e-01 6.430239e-01 6.025894e-01
		vertex -5.753239e-01 5.607484e-01 5.989074e-01
		vertex -5.775994e-01 5.621548e-01 6.025894e-01
	endloop
endfacet
facet normal -5.257311e-01 -8.506508e-01 9.125596e-15
	outer loop
		vertex -5.775994e-01 5.621548e-01 6.025894e-01
		vertex -5.753239e-01 5.607484e-01 5.989074e-01
		vertex -2.706033e-01 3.724207e-01 7.698313e-01
	endloop
endfacet
facet normal -1.510811e-08 -5.257311e-01 -8.506508e-01
	outer loop
		vertex -6.025894e-01 5.775994e-01 6.430239e-01
		vertex -6.025894e-01 5.775994e-01 6.430239e-01
		vertex -2.610580e-01 3.974107e-01 7.543867e-01
	endloop
endfacet
facet normal -2.877956e-16 -5.257311e-01 -8.506508e-01
	outer loop
		vertex -2.610580e-01 3.974107e-01 7.543867e-01
		vertex -2.706033e-01 3.724207e-01 7.698313e-01
		vertex -6.025894e-01 5.775994e-01 6.430239e-01
	endloop
endfacet
facet normal 0.000000e+00 0.000000e+00 0.000000e+00
	outer loop
		vertex -6.025894e-01 5.775994e-01 6.430239e-01
		vertex -2.706033e-01 3.724207e-01 7.698313e-01
		vertex -2.706033e-01 3.724207e-01 7.698313e-01
	endloop
endfacet
facet normal 8.506508e-01 1.804361e-15 5.257311e-01
	outer loop
		vertex -5.926581e-01 5.714616e-01 6.269548e-01
		vertex -5.930441e-01 6.025894e-01 6.275793e-01
		vertex -6.025894e-01 5.775994e-01 6.430239e-01
	endloop
endfacet
facet normal -8.506508e-01 2.407358e-08 -5.257311e-01
	outer loop
		vertex -6.025894e-01 5.775994e-01 6.430239e-01
		vertex -5.926581e-01 5.714616e-01 6.269548e-01
		vertex -6.025894e-01 5.775994e-01 6.430239e-01
	endloop
endfacet
facet normal -5.257311e-01 -8.506508e-01 -3.356746e-15
	outer loop
		vertex -6.025894e-01 5.775994e-01 6.430239e-01
		vertex -5.926581e-01 5.714616e-01 6.269548e-01
		vertex -2.706033e-01 3.724207e-01 7.698313e-01
	endloop
endfacet
facet normal 8.506508e-01 1.902247e-09 -5.257311e-01
	outer loop
		vertex -6.025894e-01 5.775994e-01 6.430239e-01
		vertex -6.025894e-01 5.775994e-01 6.430239e-01
		vertex -6.025894e-01 5.775994e-01 6.430239e-01
	endloop
endfacet
facet normal -5.257310e-01 -8.506509e-01 -4.302905e-07
	outer loop
		vertex -6.025894e-01 5.775994e-01 6.430239e-01
		vertex -6.025894e-01 5.775994e-01 6.430239e-01
		vertex -2.706033e-01 3.724207e-01 7.698313e-01
	endloop
endfacet
facet normal -8.506508e-01 0.000000e+00 5.257311e-01
	outer loop
		vertex -6.025894e-01 5.775994e-01 6.430239e-01
		vertex -6.025894e-01 5.775994e-01 6.430239e-01
		vertex -6.025894e-01 5.775994e-01 6.430239e-01
	endloop
endfacet
facet normal 5.257311e-01 8.506508e-01 1.490811e-07
	outer loop
		vertex -6.025894e-01 5.775994e-01 6.430239e-01
		vertex -6.025894e-01 5.775994e-01 6.430239e-01
		vertex -2.706033e-01 3.724207e-01 7.698313e-01
	endloop
endfacet
facet normal 8.506511e-01 -0.000000e+00 5.257306e-01
	outer loop
		vertex -6.025894e-01 5.775994e-01 6.430239e-01
		vertex -6.025894e-01 5.775994e-01 6.430239e-01
		vertex -6.025894e-01 5.775994e-01 6.430239e-01
	endloop
endfacet
facet normal -5.257314e-01 -8.506506e-01 8.615010e-07
	outer loop
		vertex -6.025894e-01 5.775994e-01 6.430239e-01
		vertex -6.025894e-01 5.775994e-01 6.430239e-01
		vertex -2.706033e-01 3.724207e-01 7.698313e-01
	endloop
endfacet
facet normal 8.506508e-01 1.475586e-16 5.257311e-01
	outer loop
		vertex -5.863124e-01 5.675397e-01 6.166872e-01
		vertex -5.866845e-01 6.192390e-01 6.172892e-01
		vertex -5.930441e-01 6.025894e-01 6.275793e-01
	endloop
endfacet
facet normal -8.506508e-01 3.180548e-17 -5.257311e-01
	outer loop
		vertex -5.930441e-01 6.025894e-01 6.275793e-01
		vertex -5.863124e-01 5.675397e-01 6.166872e-01
		vertex -5.926581e-01 5.714616e-01 6.269548e-01
	endloop
endfacet
facet normal -5.257311e-01 -8.506508e-01 7.179642e-15
	outer loop
		vertex -5.926581e-01 5.714616e-01 6.269548e-01
		vertex -5.863124e-01 5.675397e-01 6.166872e-01
		vertex -2.706033e-01 3.724207e-01 7.698313e-01
	endloop
endfacet
facet normal -8.506508e-01 -1.032925e-16 -5.257311e-01
	outer loop
		vertex -5.863124e-01 5.675397e-01 6.166872e-01
		vertex -5.866845e-01 6.192390e-01 6.172892e-01
		vertex -5.775994e-01 6.430239e-01 6.025894e-01
	endloop
endfacet
facet normal 8.506508e-01 0.000000e+00 5.257311e-01
	outer loop
		vertex -5.775994e-01 6.430239e-01 6.025894e-01
		vertex -5.863124e-01 5.675397e-01 6.166872e-01
		vertex -5.775994e-01 5.621548e-01 6.025894e-01
	endloop
endfacet
facet normal 5.257311e-01 8.506508e-01 2.263792e-15
	outer loop
		vertex -5.775994e-01 5.621548e-01 6.025894e-01
		vertex -5.863124e-01 5.675397e-01 6.166872e-01
		vertex -2.706033e-01 3.724207e-01 7.698313e-01
	endloop
endfacet
facet normal 8.506508e-01 -6.356545e-16 5.257311e-01
	outer loop
		vertex -5.699489e-01 5.574265e-01 5.902106e-01
		vertex -5.694894e-01 6.295252e-01 5.894671e-01
		vertex -5.751655e-01 6.445282e-01 5.986511e-01
	endloop
endfacet
facet normal -8.506508e-01 -1.326043e-16 -5.257311e-01
	outer loop
		vertex -5.751655e-01 6.445282e-01 5.986511e-01
		vertex -5.699489e-01 5.574265e-01 5.902106e-01
		vertex -5.753239e-01 5.607484e-01 5.989074e-01
	endloop
endfacet
facet normal -5.257311e-01 -8.506508e-01 8.269652e-15
	outer loop
		vertex -5.753239e-01 5.607484e-01 5.989074e-01
		vertex -5.699489e-01 5.574265e-01 5.902106e-01
		vertex -2.706033e-01 3.724207e-01 7.698313e-01
	endloop
endfacet
facet normal -8.506508e-01 4.967753e-16 -5.257311e-01
	outer loop
		vertex -5.662333e-01 5.551302e-01 5.841986e-01
		vertex -5.656245e-01 6.193094e-01 5.832135e-01
		vertex -5.603650e-01 6.054075e-01 5.747035e-01
	endloop
endfacet
facet normal 8.506508e-01 1.222160e-15 5.257311e-01
	outer loop
		vertex -5.603650e-01 6.054075e-01 5.747035e-01
		vertex -5.662333e-01 5.551302e-01 5.841986e-01
		vertex -5.611029e-01 5.519594e-01 5.758973e-01
	endloop
endfacet
facet normal 5.257311e-01 8.506508e-01 2.496245e-14
	outer loop
		vertex -5.611029e-01 5.519594e-01 5.758973e-01
		vertex -5.662333e-01 5.551302e-01 5.841986e-01
		vertex -2.706033e-01 3.724207e-01 7.698313e-01
	endloop
endfacet
facet normal -8.506508e-01 -3.062778e-15 -5.257311e-01
	outer loop
		vertex -5.611029e-01 5.519594e-01 5.758973e-01
		vertex -5.603650e-01 6.054075e-01 5.747035e-01
		vertex -5.596899e-01 6.036229e-01 5.736110e-01
	endloop
endfacet
facet normal 8.506508e-01 1.494728e-15 5.257311e-01
	outer loop
		vertex -5.596899e-01 6.036229e-01 5.736110e-01
		vertex -5.611029e-01 5.519594e-01 5.758973e-01
		vertex -5.604380e-01 5.515484e-01 5.748215e-01
	endloop
endfacet
facet normal 5.257311e-01 8.506508e-01 1.233358e-13
	outer loop
		vertex -5.604380e-01 5.515484e-01 5.748215e-01
		vertex -5.611029e-01 5.519594e-01 5.758973e-01
		vertex -2.706033e-01 3.724207e-01 7.698313e-01
	endloop
endfacet
facet normal 8.506508e-01 -3.025769e-16 5.257311e-01
	outer loop
		vertex -5.662333e-01 5.551302e-01 5.841986e-01
		vertex -5.656245e-01 6.193094e-01 5.832135e-01
		vertex -5.693156e-01 6.290658e-01 5.891859e-01
	endloop
endfacet
facet normal -8.506508e-01 -6.174392e-16 -5.257311e-01
	outer loop
		vertex -5.693156e-01 6.290658e-01 5.891859e-01
		vertex -5.662333e-01 5.551302e-01 5.841986e-01
		vertex -5.697828e-01 5.573239e-01 5.899418e-01
	endloop
endfacet
facet normal -5.257311e-01 -8.506508e-01 4.140272e-14
	outer loop
		vertex -5.697828e-01 5.573239e-01 5.899418e-01
		vertex -5.662333e-01 5.551302e-01 5.841986e-01
		vertex -2.706033e-01 3.724207e-01 7.698313e-01
	endloop
endfacet
facet normal 8.506508e-01 -1.863120e-15 5.257311e-01
	outer loop
		vertex -5.697828e-01 5.573239e-01 5.899418e-01
		vertex -5.693156e-01 6.290658e-01 5.891859e-01
		vertex -5.694894e-01 6.295252e-01 5.894671e-01
	endloop
endfacet
facet normal -8.506508e-01 -2.951595e-16 -5.257311e-01
	outer loop
		vertex -5.694894e-01 6.295252e-01 5.894671e-01
		vertex -5.697828e-01 5.573239e-01 5.899418e-01
		vertex -5.699489e-01 5.574265e-01 5.902106e-01
	endloop
endfacet
facet normal -5.257311e-01 -8.506508e-01 4.971128e-13
	outer loop
		vertex -5.699489e-01 5.574265e-01 5.902106e-01
		vertex -5.697828e-01 5.573239e-01 5.899418e-01
		vertex -2.706033e-01 3.724207e-01 7.698313e-01
	endloop
endfacet
facet normal 2.432104e-15 -5.220944e-01 8.528877e-01
	outer loop
		vertex -3.688455e-02 2.279746e-01 3.436583e-01
		vertex -3.613682e-02 2.275125e-01 3.433754e-01
		vertex -1.306695e-02 2.434456e-01 3.531288e-01
	endloop
endfacet
facet normal -5.257311e-01 -8.506508e-01 -5.386580e-15
	outer loop
		vertex -3.688455e-02 2.279746e-01 3.436583e-01
		vertex -3.613682e-02 2.275125e-01 3.433754e-01
		vertex -2.706033e-01 3.724207e-01 7.698313e-01
	endloop
endfacet
facet normal 1.876601e-15 -5.220944e-01 8.528877e-01
	outer loop
		vertex -3.688455e-02 2.279746e-01 3.436583e-01
		vertex -1.306695e-02 2.434456e-01 3.531288e-01
		vertex -1.589433e-02 2.509190e-01 3.577036e-01
	endloop
endfacet
facet normal 5.554125e-15 -5.220944e-01 8.528877e-01
	outer loop
		vertex -1.589433e-02 2.509190e-01 3.577036e-01
		vertex -4.360586e-02 2.321286e-01 3.462011e-01
		vertex -3.688455e-02 2.279746e-01 3.436583e-01
	endloop
endfacet
facet normal 5.257311e-01 8.506508e-01 1.868828e-15
	outer loop
		vertex -3.688455e-02 2.279746e-01 3.436583e-01
		vertex -4.360586e-02 2.321286e-01 3.462011e-01
		vertex -2.706033e-01 3.724207e-01 7.698313e-01
	endloop
endfacet
facet normal 1.675962e-14 -5.220944e-01 8.528877e-01
	outer loop
		vertex -4.368042e-02 2.321747e-01 3.462294e-01
		vertex -4.360586e-02 2.321286e-01 3.462011e-01
		vertex -1.589433e-02 2.509190e-01 3.577036e-01
	endloop
endfacet
facet normal -5.257311e-01 -8.506508e-01 5.415275e-13
	outer loop
		vertex -4.368042e-02 2.321747e-01 3.462294e-01
		vertex -4.360586e-02 2.321286e-01 3.462011e-01
		vertex -2.706033e-01 3.724207e-01 7.698313e-01
	endloop
endfacet
facet normal -6.056232e-15 -5.220944e-01 8.528877e-01
	outer loop
		vertex -3.613682e-02 2.275125e-01 3.433754e-01
		vertex -3.485669e-02 2.267213e-01 3.428911e-01
		vertex -1.306695e-02 2.434456e-01 3.531288e-01
	endloop
endfacet
facet normal -5.257311e-01 -8.506508e-01 -1.130540e-14
	outer loop
		vertex -3.613682e-02 2.275125e-01 3.433754e-01
		vertex -3.485669e-02 2.267213e-01 3.428911e-01
		vertex -2.706033e-01 3.724207e-01 7.698313e-01
	endloop
endfacet
facet normal -8.506508e-01 -1.431359e-15 -5.257311e-01
	outer loop
		vertex -5.604380e-01 5.515484e-01 5.748215e-01
		vertex -5.596899e-01 6.036229e-01 5.736110e-01
		vertex -5.581646e-01 5.995913e-01 5.711431e-01
	endloop
endfacet
facet normal 8.506508e-01 1.015619e-15 5.257311e-01
	outer loop
		vertex -5.581646e-01 5.995913e-01 5.711431e-01
		vertex -5.604380e-01 5.515484e-01 5.748215e-01
		vertex -5.589305e-01 5.506168e-01 5.723825e-01
	endloop
endfacet
facet normal 5.257311e-01 8.506508e-01 -1.317691e-14
	outer loop
		vertex -5.589305e-01 5.506168e-01 5.723825e-01
		vertex -5.604380e-01 5.515484e-01 5.748215e-01
		vertex -2.706033e-01 3.724207e-01 7.698313e-01
	endloop
endfacet
facet normal -8.506508e-01 2.132650e-15 -5.257311e-01
	outer loop
		vertex -5.589305e-01 5.506168e-01 5.723825e-01
		vertex -5.581646e-01 5.995913e-01 5.711431e-01
		vertex -5.579609e-01 5.990529e-01 5.708135e-01
	endloop
endfacet
facet normal 8.506508e-01 -3.340269e-15 5.257311e-01
	outer loop
		vertex -5.579609e-01 5.990529e-01 5.708135e-01
		vertex -5.589305e-01 5.506168e-01 5.723825e-01
		vertex -5.587287e-01 5.504920e-01 5.720558e-01
	endloop
endfacet
facet normal 5.257311e-01 8.506508e-01 -1.012346e-13
	outer loop
		vertex -5.587287e-01 5.504920e-01 5.720558e-01
		vertex -5.589305e-01 5.506168e-01 5.723825e-01
		vertex -2.706033e-01 3.724207e-01 7.698313e-01
	endloop
endfacet
facet normal -3.273829e-16 5.220944e-01 -8.528877e-01
	outer loop
		vertex -5.337479e-01 5.350531e-01 5.316361e-01
		vertex -5.405185e-01 5.529491e-01 5.425911e-01
		vertex -5.898888e-02 3.648266e-01 4.274321e-01
	endloop
endfacet
facet normal -5.015771e-17 5.220944e-01 -8.528877e-01
	outer loop
		vertex -5.898888e-02 3.648266e-01 4.274321e-01
		vertex -1.745799e-01 3.130750e-01 3.957524e-01
		vertex -5.337479e-01 5.350531e-01 5.316361e-01
	endloop
endfacet
facet normal -5.257311e-01 -8.506508e-01 0.000000e+00
	outer loop
		vertex -5.337479e-01 5.350531e-01 5.316361e-01
		vertex -1.745799e-01 3.130750e-01 3.957524e-01
		vertex -2.706033e-01 3.724207e-01 7.698313e-01
	endloop
endfacet
facet normal -8.506508e-01 -2.819481e-15 -5.257311e-01
	outer loop
		vertex -5.337479e-01 5.350531e-01 5.316361e-01
		vertex -5.409356e-01 5.394953e-01 5.432660e-01
		vertex -5.405185e-01 5.529491e-01 5.425911e-01
	endloop
endfacet
facet normal 5.257311e-01 8.506508e-01 -3.865006e-15
	outer loop
		vertex -5.337479e-01 5.350531e-01 5.316361e-01
		vertex -5.409356e-01 5.394953e-01 5.432660e-01
		vertex -2.706033e-01 3.724207e-01 7.698313e-01
	endloop
endfacet
facet normal 8.506508e-01 2.914983e-15 5.257311e-01
	outer loop
		vertex -5.409356e-01 5.394953e-01 5.432660e-01
		vertex -5.405185e-01 5.529491e-01 5.425911e-01
		vertex -5.579609e-01 5.990529e-01 5.708135e-01
	endloop
endfacet
facet normal -8.506508e-01 1.204524e-16 -5.257311e-01
	outer loop
		vertex -5.579609e-01 5.990529e-01 5.708135e-01
		vertex -5.409356e-01 5.394953e-01 5.432660e-01
		vertex -5.587287e-01 5.504920e-01 5.720558e-01
	endloop
endfacet
facet normal -5.257311e-01 -8.506508e-01 2.560558e-15
	outer loop
		vertex -5.587287e-01 5.504920e-01 5.720558e-01
		vertex -5.409356e-01 5.394953e-01 5.432660e-01
		vertex -2.706033e-01 3.724207e-01 7.698313e-01
	endloop
endfacet
facet normal -3.022839e-16 5.220944e-01 -8.528877e-01
	outer loop
		vertex -1.725623e-01 3.118281e-01 3.949891e-01
		vertex -1.745799e-01 3.130750e-01 3.957524e-01
		vertex -5.898888e-02 3.648266e-01 4.274321e-01
	endloop
endfacet
facet normal 5.257311e-01 8.506508e-01 -2.740679e-15
	outer loop
		vertex -1.725623e-01 3.118281e-01 3.949891e-01
		vertex -1.745799e-01 3.130750e-01 3.957524e-01
		vertex -2.706033e-01 3.724207e-01 7.698313e-01
	endloop
endfacet
facet normal 3.195710e-15 5.220944e-01 -8.528877e-01
	outer loop
		vertex -1.725623e-01 3.118281e-01 3.949891e-01
		vertex -5.898888e-02 3.648266e-01 4.274321e-01
		vertex -5.685881e-02 3.591964e-01 4.239856e-01
	endloop
endfacet
facet normal 4.107879e-15 5.220944e-01 -8.528877e-01
	outer loop
		vertex -5.685881e-02 3.591964e-01 4.239856e-01
		vertex -1.683964e-01 3.092534e-01 3.934130e-01
		vertex -1.725623e-01 3.118281e-01 3.949891e-01
	endloop
endfacet
facet normal -5.257311e-01 -8.506508e-01 -2.884091e-15
	outer loop
		vertex -1.725623e-01 3.118281e-01 3.949891e-01
		vertex -1.683964e-01 3.092534e-01 3.934130e-01
		vertex -2.706033e-01 3.724207e-01 7.698313e-01
	endloop
endfacet
facet normal -1.889519e-15 5.220944e-01 -8.528877e-01
	outer loop
		vertex -1.673158e-01 3.085855e-01 3.930042e-01
		vertex -1.683964e-01 3.092534e-01 3.934130e-01
		vertex -5.685881e-02 3.591964e-01 4.239856e-01
	endloop
endfacet
facet normal 5.257311e-01 8.506508e-01 -1.345559e-14
	outer loop
		vertex -1.673158e-01 3.085855e-01 3.930042e-01
		vertex -1.683964e-01 3.092534e-01 3.934130e-01
		vertex -2.706033e-01 3.724207e-01 7.698313e-01
	endloop
endfacet
facet normal 1.912977e-16 5.220944e-01 -8.528877e-01
	outer loop
		vertex -1.266532e-01 2.834547e-01 3.776204e-01
		vertex -1.673158e-01 3.085855e-01 3.930042e-01
		vertex -5.685881e-02 3.591964e-01 4.239856e-01
	endloop
endfacet
facet normal 5.257311e-01 8.506508e-01 -8.058464e-17
	outer loop
		vertex -1.266532e-01 2.834547e-01 3.776204e-01
		vertex -1.673158e-01 3.085855e-01 3.930042e-01
		vertex -2.706033e-01 3.724207e-01 7.698313e-01
	endloop
endfacet
facet normal -1.561429e-16 5.220944e-01 -8.528877e-01
	outer loop
		vertex -1.266532e-01 2.834547e-01 3.776204e-01
		vertex -5.685881e-02 3.591964e-01 4.239856e-01
		vertex -1.589433e-02 2.509190e-01 3.577036e-01
	endloop
endfacet
facet normal 1.572448e-16 5.220944e-01 -8.528877e-01
	outer loop
		vertex -1.589433e-02 2.509190e-01 3.577036e-01
		vertex -4.478877e-02 2.328597e-01 3.466487e-01
		vertex -1.266532e-01 2.834547e-01 3.776204e-01
	endloop
endfacet
facet normal -5.257311e-01 -8.506508e-01 2.401611e-16
	outer loop
		vertex -1.266532e-01 2.834547e-01 3.776204e-01
		vertex -4.478877e-02 2.328597e-01 3.466487e-01
		vertex -2.706033e-01 3.724207e-01 7.698313e-01
	endloop
endfacet
facet normal 5.807175e-16 5.220944e-01 -8.528877e-01
	outer loop
		vertex -4.368042e-02 2.321747e-01 3.462294e-01
		vertex -4.478877e-02 2.328597e-01 3.466487e-01
		vertex -1.589433e-02 2.509190e-01 3.577036e-01
	endloop
endfacet
facet normal 5.257311e-01 8.506508e-01 -1.299604e-14
	outer loop
		vertex -4.368042e-02 2.321747e-01 3.462294e-01
		vertex -4.478877e-02 2.328597e-01 3.466487e-01
		vertex -2.706033e-01 3.724207e-01 7.698313e-01
	endloop
endfacet
facet normal 0.000000e+00 0.000000e+00 0.000000e+00
	outer loop
		vertex 1.679232e-17 2.051787e-01 3.319861e-01
		vertex -5.682202e-18 2.051787e-01 3.319861e-01
		vertex -5.682202e-18 2.051787e-01 3.319861e-01
	endloop
endfacet
facet normal 0.000000e+00 0.000000e+00 0.000000e+00
	outer loop
		vertex -5.682202e-18 2.051787e-01 3.319861e-01
		vertex -5.682202e-18 2.051787e-01 3.319861e-01
		vertex -5.682202e-18 2.051787e-01 3.319861e-01
	endloop
endfacet
facet normal 5.211973e-01 -8.269379e-01 2.110145e-01
	outer loop
		vertex -4.770490e-18 2.051787e-01 3.319861e-01
		vertex 1.679232e-17 2.051787e-01 3.319861e-01
		vertex -5.682202e-18 2.051787e-01 3.319861e-01
	endloop
endfacet
facet normal 0.000000e+00 9.701425e-01 -2.425356e-01
	outer loop
		vertex -4.770490e-18 2.051787e-01 3.319861e-01
		vertex -5.551115e-17 2.051787e-01 3.319861e-01
		vertex -5.682202e-18 2.051787e-01 3.319861e-01
	endloop
endfacet
endsolid MIKE666
