solid MIKE666
facet normal -8.506508e-01 -1.213465e-14 -5.257311e-01
	outer loop
		vertex 1.865942e-01 -3.825443e-01 3.007028e-02
		vertex 1.925632e-01 -3.667673e-01 2.041238e-02
		vertex 2.376026e-03 -9.985315e-01 3.281416e-01
	endloop
endfacet
facet normal 8.506508e-01 -2.182479e-15 5.257311e-01
	outer loop
		vertex 1.865942e-01 -3.825443e-01 3.007028e-02
		vertex 1.445030e-01 -4.937999e-01 9.817530e-02
		vertex 2.376026e-03 -9.985315e-01 3.281416e-01
	endloop
endfacet
facet normal 8.506508e-01 9.074216e-14 5.257311e-01
	outer loop
		vertex 1.435938e-01 -4.962031e-01 9.964640e-02
		vertex 1.414620e-01 -5.018378e-01 1.030957e-01
		vertex 2.376026e-03 -9.985315e-01 3.281416e-01
	endloop
endfacet
facet normal -8.506508e-01 -2.258780e-14 -5.257311e-01
	outer loop
		vertex 1.435938e-01 -4.962031e-01 9.964640e-02
		vertex 1.445030e-01 -4.937999e-01 9.817530e-02
		vertex 2.376026e-03 -9.985315e-01 3.281416e-01
	endloop
endfacet
facet normal 8.506508e-01 -2.427522e-12 5.257311e-01
	outer loop
		vertex 1.999174e-01 -3.473286e-01 8.513024e-03
		vertex 1.998036e-01 -3.476292e-01 8.697027e-03
		vertex 2.376026e-03 -9.985315e-01 3.281416e-01
	endloop
endfacet
facet normal -8.506508e-01 5.630907e-14 -5.257311e-01
	outer loop
		vertex 1.378855e-01 -5.112914e-01 1.088827e-01
		vertex 1.414620e-01 -5.018378e-01 1.030957e-01
		vertex 2.376026e-03 -9.985315e-01 3.281416e-01
	endloop
endfacet
facet normal 8.506508e-01 -7.087006e-14 5.257311e-01
	outer loop
		vertex 1.378855e-01 -5.112914e-01 1.088827e-01
		vertex 1.362964e-01 -5.154917e-01 1.114539e-01
		vertex 2.376026e-03 -9.985315e-01 3.281416e-01
	endloop
endfacet
facet normal -8.506508e-01 -1.347954e-12 -5.257311e-01
	outer loop
		vertex 1.999174e-01 -3.473286e-01 8.513024e-03
		vertex 2.001031e-01 -3.468376e-01 8.212434e-03
		vertex 2.376026e-03 -9.985315e-01 3.281416e-01
	endloop
endfacet
facet normal 8.506508e-01 -8.374761e-13 5.257311e-01
	outer loop
		vertex 1.928290e-01 -3.660645e-01 1.998222e-02
		vertex 1.925632e-01 -3.667673e-01 2.041238e-02
		vertex 2.376026e-03 -9.985315e-01 3.281416e-01
	endloop
endfacet
facet normal -8.506508e-01 -2.717831e-14 -5.257311e-01
	outer loop
		vertex 1.928290e-01 -3.660645e-01 1.998222e-02
		vertex 1.962090e-01 -3.571305e-01 1.451323e-02
		vertex 2.376026e-03 -9.985315e-01 3.281416e-01
	endloop
endfacet
facet normal 8.506508e-01 -1.233751e-13 5.257311e-01
	outer loop
		vertex 1.978557e-01 -3.527780e-01 1.184885e-02
		vertex 1.962090e-01 -3.571305e-01 1.451323e-02
		vertex 2.376026e-03 -9.985315e-01 3.281416e-01
	endloop
endfacet
facet normal -8.506508e-01 3.642329e-14 -5.257311e-01
	outer loop
		vertex 1.978557e-01 -3.527780e-01 1.184885e-02
		vertex 1.979626e-01 -3.524955e-01 1.167595e-02
		vertex 2.376026e-03 -9.985315e-01 3.281416e-01
	endloop
endfacet
facet normal -8.506508e-01 -7.364519e-14 -5.257311e-01
	outer loop
		vertex 1.979626e-01 -3.524955e-01 1.167595e-02
		vertex 1.998036e-01 -3.476292e-01 8.697027e-03
		vertex 2.376026e-03 -9.985315e-01 3.281416e-01
	endloop
endfacet
facet normal -8.506508e-01 -1.769666e-14 -5.257311e-01
	outer loop
		vertex 2.001031e-01 -3.468376e-01 8.212434e-03
		vertex 2.030730e-01 -3.389876e-01 3.407122e-03
		vertex 2.376026e-03 -9.985315e-01 3.281416e-01
	endloop
endfacet
facet normal -3.436062e-01 9.280909e-01 1.434644e-01
	outer loop
		vertex 2.376026e-03 -9.985315e-01 3.281416e-01
		vertex 0.000000e+00 -1.000000e+00 3.319861e-01
		vertex 2.341877e-17 -1.000000e+00 3.319861e-01
	endloop
endfacet
facet normal -3.436062e-01 9.280909e-01 1.434644e-01
	outer loop
		vertex 2.376026e-03 -9.985315e-01 3.281416e-01
		vertex 0.000000e+00 -1.000000e+00 3.319861e-01
		vertex 2.341877e-17 -1.000000e+00 3.319861e-01
	endloop
endfacet
facet normal 0.000000e+00 0.000000e+00 0.000000e+00
	outer loop
		vertex 2.341877e-17 -1.000000e+00 3.319861e-01
		vertex 2.376026e-03 -9.985315e-01 3.281416e-01
		vertex 2.376026e-03 -9.985315e-01 3.281416e-01
	endloop
endfacet
facet normal 0.000000e+00 0.000000e+00 0.000000e+00
	outer loop
		vertex 2.376026e-03 -9.985315e-01 3.281416e-01
		vertex 2.341877e-17 -1.000000e+00 3.319861e-01
		vertex 2.341877e-17 -1.000000e+00 3.319861e-01
	endloop
endfacet
facet normal 0.000000e+00 0.000000e+00 0.000000e+00
	outer loop
		vertex 2.341877e-17 -1.000000e+00 3.319861e-01
		vertex 2.376026e-03 -9.985315e-01 3.281416e-01
		vertex 2.376026e-03 -9.985315e-01 3.281416e-01
	endloop
endfacet
facet normal 0.000000e+00 0.000000e+00 0.000000e+00
	outer loop
		vertex 2.376026e-03 -9.985315e-01 3.281416e-01
		vertex 2.341877e-17 -1.000000e+00 3.319861e-01
		vertex 2.341877e-17 -1.000000e+00 3.319861e-01
	endloop
endfacet
facet normal 0.000000e+00 0.000000e+00 0.000000e+00
	outer loop
		vertex 0.000000e+00 -1.000000e+00 3.319861e-01
		vertex 0.000000e+00 -1.000000e+00 3.319861e-01
		vertex 0.000000e+00 -1.000000e+00 3.319861e-01
	endloop
endfacet
facet normal 0.000000e+00 0.000000e+00 0.000000e+00
	outer loop
		vertex 0.000000e+00 -1.000000e+00 3.319861e-01
		vertex -1.443419e-02 -9.910792e-01 3.086311e-01
		vertex 0.000000e+00 -1.000000e+00 3.319861e-01
	endloop
endfacet
facet normal 0.000000e+00 0.000000e+00 0.000000e+00
	outer loop
		vertex 0.000000e+00 -1.000000e+00 3.319861e-01
		vertex -1.443419e-02 -9.910792e-01 3.086311e-01
		vertex 0.000000e+00 -1.000000e+00 3.319861e-01
	endloop
endfacet
facet normal 0.000000e+00 0.000000e+00 0.000000e+00
	outer loop
		vertex 0.000000e+00 -1.000000e+00 3.319861e-01
		vertex 0.000000e+00 -1.000000e+00 3.319861e-01
		vertex 2.376026e-03 -9.985315e-01 3.281416e-01
	endloop
endfacet
facet normal 0.000000e+00 0.000000e+00 0.000000e+00
	outer loop
		vertex 2.376026e-03 -9.985315e-01 3.281416e-01
		vertex 0.000000e+00 -1.000000e+00 3.319861e-01
		vertex 0.000000e+00 -1.000000e+00 3.319861e-01
	endloop
endfacet
facet normal 0.000000e+00 0.000000e+00 0.000000e+00
	outer loop
		vertex 0.000000e+00 -1.000000e+00 3.319861e-01
		vertex 0.000000e+00 -1.000000e+00 3.319861e-01
		vertex 2.376026e-03 -9.985315e-01 3.281416e-01
	endloop
endfacet
facet normal 8.506508e-01 1.619899e-15 5.257311e-01
	outer loop
		vertex 2.376026e-03 -9.985315e-01 3.281416e-01
		vertex -4.770490e-18 -9.974547e-01 3.319861e-01
		vertex 0.000000e+00 -1.000000e+00 3.319861e-01
	endloop
endfacet
facet normal 0.000000e+00 0.000000e+00 0.000000e+00
	outer loop
		vertex 0.000000e+00 -1.000000e+00 3.319861e-01
		vertex 0.000000e+00 -1.000000e+00 3.319861e-01
		vertex 2.376026e-03 -9.985315e-01 3.281416e-01
	endloop
endfacet
facet normal 8.506508e-01 1.619899e-15 5.257311e-01
	outer loop
		vertex 2.376026e-03 -9.985315e-01 3.281416e-01
		vertex -4.770490e-18 -9.974547e-01 3.319861e-01
		vertex 0.000000e+00 -1.000000e+00 3.319861e-01
	endloop
endfacet
facet normal -8.506508e-01 -4.865543e-13 -5.257311e-01
	outer loop
		vertex -1.734723e-18 -9.974547e-01 3.319861e-01
		vertex -9.540979e-18 -9.973810e-01 3.319861e-01
		vertex 2.376026e-03 -9.985315e-01 3.281416e-01
	endloop
endfacet
facet normal 7.078697e-18 5.220944e-01 8.528877e-01
	outer loop
		vertex -1.936692e-01 -3.638437e-01 1.862272e-02
		vertex -1.888570e-01 -3.765634e-01 2.640907e-02
		vertex 1.925632e-01 -3.667673e-01 2.041238e-02
	endloop
endfacet
facet normal 3.491372e-17 -5.220944e-01 -8.528877e-01
	outer loop
		vertex -1.888570e-01 -3.765634e-01 2.640907e-02
		vertex 1.925632e-01 -3.667673e-01 2.041238e-02
		vertex 1.865942e-01 -3.825443e-01 3.007028e-02
	endloop
endfacet
facet normal 5.368320e-17 -5.220944e-01 -8.528877e-01
	outer loop
		vertex 1.865942e-01 -3.825443e-01 3.007028e-02
		vertex -1.848734e-01 -3.870929e-01 3.285470e-02
		vertex -1.888570e-01 -3.765634e-01 2.640907e-02
	endloop
endfacet
facet normal 1.958954e-17 -5.220944e-01 -8.528877e-01
	outer loop
		vertex -1.295733e-01 -5.332621e-01 1.223321e-01
		vertex -1.542906e-01 -4.679294e-01 8.233868e-02
		vertex 1.445030e-01 -4.937999e-01 9.817530e-02
	endloop
endfacet
facet normal -1.616077e-17 5.220944e-01 8.528877e-01
	outer loop
		vertex -1.542906e-01 -4.679294e-01 8.233868e-02
		vertex 1.445030e-01 -4.937999e-01 9.817530e-02
		vertex 1.865942e-01 -3.825443e-01 3.007028e-02
	endloop
endfacet
facet normal 2.069046e-17 5.220944e-01 8.528877e-01
	outer loop
		vertex 1.865942e-01 -3.825443e-01 3.007028e-02
		vertex -1.848734e-01 -3.870929e-01 3.285470e-02
		vertex -1.542906e-01 -4.679294e-01 8.233868e-02
	endloop
endfacet
facet normal -1.377324e-15 -5.220944e-01 -8.528877e-01
	outer loop
		vertex -1.259821e-01 -5.427544e-01 1.281428e-01
		vertex -1.272502e-01 -5.394026e-01 1.260909e-01
		vertex 1.414620e-01 -5.018378e-01 1.030957e-01
	endloop
endfacet
facet normal 1.160680e-15 5.220944e-01 8.528877e-01
	outer loop
		vertex -1.272502e-01 -5.394026e-01 1.260909e-01
		vertex 1.414620e-01 -5.018378e-01 1.030957e-01
		vertex 1.435938e-01 -4.962031e-01 9.964640e-02
	endloop
endfacet
facet normal 5.874216e-16 5.220944e-01 8.528877e-01
	outer loop
		vertex 1.435938e-01 -4.962031e-01 9.964640e-02
		vertex -1.284945e-01 -5.361138e-01 1.240777e-01
		vertex -1.272502e-01 -5.394026e-01 1.260909e-01
	endloop
endfacet
facet normal 5.344033e-16 5.220944e-01 8.528877e-01
	outer loop
		vertex -1.295733e-01 -5.332621e-01 1.223321e-01
		vertex -1.290212e-01 -5.347215e-01 1.232254e-01
		vertex 1.445030e-01 -4.937999e-01 9.817530e-02
	endloop
endfacet
facet normal 0.000000e+00 -5.220944e-01 -8.528877e-01
	outer loop
		vertex -1.290212e-01 -5.347215e-01 1.232254e-01
		vertex 1.445030e-01 -4.937999e-01 9.817530e-02
		vertex 1.435938e-01 -4.962031e-01 9.964640e-02
	endloop
endfacet
facet normal 2.081429e-15 -5.220944e-01 -8.528877e-01
	outer loop
		vertex 1.435938e-01 -4.962031e-01 9.964640e-02
		vertex -1.284945e-01 -5.361138e-01 1.240777e-01
		vertex -1.290212e-01 -5.347215e-01 1.232254e-01
	endloop
endfacet
facet normal 1.348383e-16 -5.220944e-01 -8.528877e-01
	outer loop
		vertex -2.047022e-01 -3.346812e-01 7.709516e-04
		vertex -2.048722e-01 -3.342321e-01 4.960055e-04
		vertex 1.998036e-01 -3.476292e-01 8.697027e-03
	endloop
endfacet
facet normal -1.407737e-15 5.220944e-01 8.528877e-01
	outer loop
		vertex -2.048722e-01 -3.342321e-01 4.960055e-04
		vertex 1.998036e-01 -3.476292e-01 8.697027e-03
		vertex 1.999174e-01 -3.473286e-01 8.513024e-03
	endloop
endfacet
facet normal 1.974612e-14 5.220944e-01 8.528877e-01
	outer loop
		vertex 1.999174e-01 -3.473286e-01 8.513024e-03
		vertex -2.048788e-01 -3.342145e-01 4.852511e-04
		vertex -2.048722e-01 -3.342321e-01 4.960055e-04
	endloop
endfacet
facet normal 8.506508e-01 -4.148960e-13 5.257311e-01
	outer loop
		vertex -1.040834e-17 -9.973125e-01 3.319861e-01
		vertex -9.540979e-18 -9.973810e-01 3.319861e-01
		vertex 2.376026e-03 -9.985315e-01 3.281416e-01
	endloop
endfacet
facet normal -8.506508e-01 -1.102218e-13 -5.257311e-01
	outer loop
		vertex 3.469447e-18 -9.973125e-01 3.319861e-01
		vertex -6.505213e-18 -9.972355e-01 3.319861e-01
		vertex 2.376026e-03 -9.985315e-01 3.281416e-01
	endloop
endfacet
facet normal 0.000000e+00 -5.220944e-01 -8.528877e-01
	outer loop
		vertex 0.000000e+00 -8.757507e-01 3.319861e-01
		vertex -1.199927e-01 -5.585857e-01 1.378339e-01
		vertex 1.362964e-01 -5.154917e-01 1.114539e-01
	endloop
endfacet
facet normal -8.506508e-01 -6.156694e-17 -5.257311e-01
	outer loop
		vertex 0.000000e+00 -8.757507e-01 3.319861e-01
		vertex 1.362964e-01 -5.154917e-01 1.114539e-01
		vertex 2.376026e-03 -9.985315e-01 3.281416e-01
	endloop
endfacet
facet normal -8.506508e-01 4.319652e-17 -5.257311e-01
	outer loop
		vertex 2.376026e-03 -9.985315e-01 3.281416e-01
		vertex -6.505213e-18 -9.972355e-01 3.319861e-01
		vertex 0.000000e+00 -8.757507e-01 3.319861e-01
	endloop
endfacet
facet normal -9.833182e-16 5.220944e-01 8.528877e-01
	outer loop
		vertex -1.259821e-01 -5.427544e-01 1.281428e-01
		vertex -1.238444e-01 -5.484049e-01 1.316017e-01
		vertex 1.414620e-01 -5.018378e-01 1.030957e-01
	endloop
endfacet
facet normal 5.528772e-16 -5.220944e-01 -8.528877e-01
	outer loop
		vertex -1.238444e-01 -5.484049e-01 1.316017e-01
		vertex 1.414620e-01 -5.018378e-01 1.030957e-01
		vertex 1.378855e-01 -5.112914e-01 1.088827e-01
	endloop
endfacet
facet normal -8.775731e-16 -5.220944e-01 -8.528877e-01
	outer loop
		vertex 1.378855e-01 -5.112914e-01 1.088827e-01
		vertex -1.218206e-01 -5.537542e-01 1.348763e-01
		vertex -1.238444e-01 -5.484049e-01 1.316017e-01
	endloop
endfacet
facet normal -2.064984e-15 -5.220944e-01 -8.528877e-01
	outer loop
		vertex -1.199927e-01 -5.585857e-01 1.378339e-01
		vertex -1.209094e-01 -5.561626e-01 1.363506e-01
		vertex 1.362964e-01 -5.154917e-01 1.114539e-01
	endloop
endfacet
facet normal 1.820774e-16 5.220944e-01 8.528877e-01
	outer loop
		vertex -1.209094e-01 -5.561626e-01 1.363506e-01
		vertex 1.362964e-01 -5.154917e-01 1.114539e-01
		vertex 1.378855e-01 -5.112914e-01 1.088827e-01
	endloop
endfacet
facet normal 3.063005e-15 5.220944e-01 8.528877e-01
	outer loop
		vertex 1.378855e-01 -5.112914e-01 1.088827e-01
		vertex -1.218206e-01 -5.537542e-01 1.348763e-01
		vertex -1.209094e-01 -5.561626e-01 1.363506e-01
	endloop
endfacet
facet normal -2.349933e-15 5.220944e-01 8.528877e-01
	outer loop
		vertex -2.051675e-01 -3.334515e-01 1.816782e-05
		vertex -2.048896e-01 -3.341859e-01 4.677073e-04
		vertex 2.001031e-01 -3.468376e-01 8.212434e-03
	endloop
endfacet
facet normal 1.895655e-15 -5.220944e-01 -8.528877e-01
	outer loop
		vertex -2.048896e-01 -3.341859e-01 4.677073e-04
		vertex 2.001031e-01 -3.468376e-01 8.212434e-03
		vertex 1.999174e-01 -3.473286e-01 8.513024e-03
	endloop
endfacet
facet normal 1.311322e-14 -5.220944e-01 -8.528877e-01
	outer loop
		vertex 1.999174e-01 -3.473286e-01 8.513024e-03
		vertex -2.048788e-01 -3.342145e-01 4.852511e-04
		vertex -2.048896e-01 -3.341859e-01 4.677073e-04
	endloop
endfacet
facet normal 6.682106e-17 -5.220944e-01 -8.528877e-01
	outer loop
		vertex -1.936692e-01 -3.638437e-01 1.862272e-02
		vertex -1.938869e-01 -3.632682e-01 1.827044e-02
		vertex 1.925632e-01 -3.667673e-01 2.041238e-02
	endloop
endfacet
facet normal -3.393509e-16 5.220944e-01 8.528877e-01
	outer loop
		vertex -1.938869e-01 -3.632682e-01 1.827044e-02
		vertex 1.925632e-01 -3.667673e-01 2.041238e-02
		vertex 1.928290e-01 -3.660645e-01 1.998222e-02
	endloop
endfacet
facet normal -3.342317e-16 5.220944e-01 8.528877e-01
	outer loop
		vertex 1.928290e-01 -3.660645e-01 1.998222e-02
		vertex -1.940672e-01 -3.627918e-01 1.797882e-02
		vertex -1.938869e-01 -3.632682e-01 1.827044e-02
	endloop
endfacet
facet normal -2.166334e-17 5.220944e-01 8.528877e-01
	outer loop
		vertex -1.991738e-01 -3.492940e-01 9.716175e-03
		vertex -1.963445e-01 -3.567723e-01 1.429398e-02
		vertex 1.962090e-01 -3.571305e-01 1.451323e-02
	endloop
endfacet
facet normal 2.162136e-17 -5.220944e-01 -8.528877e-01
	outer loop
		vertex -1.963445e-01 -3.567723e-01 1.429398e-02
		vertex 1.962090e-01 -3.571305e-01 1.451323e-02
		vertex 1.928290e-01 -3.660645e-01 1.998222e-02
	endloop
endfacet
facet normal 1.618202e-17 -5.220944e-01 -8.528877e-01
	outer loop
		vertex 1.928290e-01 -3.660645e-01 1.998222e-02
		vertex -1.940672e-01 -3.627918e-01 1.797882e-02
		vertex -1.963445e-01 -3.567723e-01 1.429398e-02
	endloop
endfacet
facet normal -1.281416e-16 -5.220944e-01 -8.528877e-01
	outer loop
		vertex -1.991738e-01 -3.492940e-01 9.716175e-03
		vertex -2.008913e-01 -3.447542e-01 6.937118e-03
		vertex 1.962090e-01 -3.571305e-01 1.451323e-02
	endloop
endfacet
facet normal 8.592614e-17 5.220944e-01 8.528877e-01
	outer loop
		vertex -2.008913e-01 -3.447542e-01 6.937118e-03
		vertex 1.962090e-01 -3.571305e-01 1.451323e-02
		vertex 1.978557e-01 -3.527780e-01 1.184885e-02
	endloop
endfacet
facet normal -1.377323e-17 5.220944e-01 8.528877e-01
	outer loop
		vertex 1.978557e-01 -3.527780e-01 1.184885e-02
		vertex -2.016937e-01 -3.426334e-01 5.638878e-03
		vertex -2.008913e-01 -3.447542e-01 6.937118e-03
	endloop
endfacet
facet normal -2.409886e-15 5.220944e-01 8.528877e-01
	outer loop
		vertex -2.018579e-01 -3.421993e-01 5.373105e-03
		vertex -2.017455e-01 -3.424964e-01 5.555025e-03
		vertex 1.979626e-01 -3.524955e-01 1.167595e-02
	endloop
endfacet
facet normal 3.144208e-15 -5.220944e-01 -8.528877e-01
	outer loop
		vertex -2.017455e-01 -3.424964e-01 5.555025e-03
		vertex 1.979626e-01 -3.524955e-01 1.167595e-02
		vertex 1.978557e-01 -3.527780e-01 1.184885e-02
	endloop
endfacet
facet normal 3.198592e-15 -5.220944e-01 -8.528877e-01
	outer loop
		vertex 1.978557e-01 -3.527780e-01 1.184885e-02
		vertex -2.016937e-01 -3.426334e-01 5.638878e-03
		vertex -2.017455e-01 -3.424964e-01 5.555025e-03
	endloop
endfacet
facet normal -2.756924e-17 5.220944e-01 8.528877e-01
	outer loop
		vertex -2.047022e-01 -3.346812e-01 7.709516e-04
		vertex -2.027175e-01 -3.399272e-01 3.982254e-03
		vertex 1.998036e-01 -3.476292e-01 8.697027e-03
	endloop
endfacet
facet normal -1.288875e-16 -5.220944e-01 -8.528877e-01
	outer loop
		vertex -2.027175e-01 -3.399272e-01 3.982254e-03
		vertex 1.998036e-01 -3.476292e-01 8.697027e-03
		vertex 1.979626e-01 -3.524955e-01 1.167595e-02
	endloop
endfacet
facet normal -2.184361e-16 -5.220944e-01 -8.528877e-01
	outer loop
		vertex 1.979626e-01 -3.524955e-01 1.167595e-02
		vertex -2.018579e-01 -3.421993e-01 5.373105e-03
		vertex -2.027175e-01 -3.399272e-01 3.982254e-03
	endloop
endfacet
facet normal -4.572178e-18 5.220944e-01 8.528877e-01
	outer loop
		vertex -2.051741e-01 -3.334339e-01 7.427359e-06
		vertex 2.030730e-01 -3.389876e-01 3.407122e-03
		vertex 7.421351e-02 -3.334218e-01 -2.775558e-17
	endloop
endfacet
facet normal -2.511847e-17 -5.220944e-01 -8.528877e-01
	outer loop
		vertex -2.051741e-01 -3.334339e-01 7.427359e-06
		vertex 2.030730e-01 -3.389876e-01 3.407122e-03
		vertex 2.001031e-01 -3.468376e-01 8.212434e-03
	endloop
endfacet
facet normal -3.292248e-15 -5.220944e-01 -8.528877e-01
	outer loop
		vertex 2.001031e-01 -3.468376e-01 8.212434e-03
		vertex -2.051675e-01 -3.334515e-01 1.816782e-05
		vertex -2.051741e-01 -3.334339e-01 7.427359e-06
	endloop
endfacet
facet normal -5.257311e-01 8.506508e-01 -6.726813e-17
	outer loop
		vertex 2.941566e-02 -9.818201e-01 -2.843905e-01
		vertex 1.681436e-04 -9.998961e-01 -3.317140e-01
		vertex 2.376026e-03 -9.985315e-01 3.281416e-01
	endloop
endfacet
facet normal 0.000000e+00 0.000000e+00 0.000000e+00
	outer loop
		vertex 2.941566e-02 -9.818201e-01 -2.843905e-01
		vertex 1.681436e-04 -9.998961e-01 -3.317140e-01
		vertex 1.681436e-04 -9.998961e-01 -3.317140e-01
	endloop
endfacet
facet normal -5.257311e-01 8.506508e-01 -7.675629e-17
	outer loop
		vertex 2.051787e-01 -8.731926e-01 0.000000e+00
		vertex 2.941566e-02 -9.818201e-01 -2.843905e-01
		vertex 2.376026e-03 -9.985315e-01 3.281416e-01
	endloop
endfacet
facet normal 7.071068e-01 -7.071068e-01 0.000000e+00
	outer loop
		vertex 2.051787e-01 -8.731926e-01 0.000000e+00
		vertex 2.941566e-02 -9.818201e-01 -2.843905e-01
		vertex 1.681436e-04 -9.998961e-01 -3.317140e-01
	endloop
endfacet
facet normal 4.472136e-01 -8.944272e-01 0.000000e+00
	outer loop
		vertex 2.051787e-01 -8.731926e-01 0.000000e+00
		vertex 2.376026e-03 -9.985315e-01 3.281416e-01
		vertex 2.376026e-03 -9.985315e-01 3.281416e-01
	endloop
endfacet
facet normal 4.472136e-01 -8.944272e-01 0.000000e+00
	outer loop
		vertex 2.376026e-03 -9.985315e-01 3.281416e-01
		vertex 2.051787e-01 -8.731926e-01 -5.551115e-17
		vertex 2.051787e-01 -8.731926e-01 0.000000e+00
	endloop
endfacet
facet normal 4.472136e-01 -8.944272e-01 0.000000e+00
	outer loop
		vertex 2.051787e-01 -8.731926e-01 -5.551115e-17
		vertex 2.376026e-03 -9.985315e-01 3.281416e-01
		vertex 2.376026e-03 -9.985315e-01 3.281416e-01
	endloop
endfacet
facet normal 4.472136e-01 -8.944272e-01 0.000000e+00
	outer loop
		vertex 2.376026e-03 -9.985315e-01 3.281416e-01
		vertex 2.051787e-01 -8.731926e-01 -5.551115e-17
		vertex 2.051787e-01 -8.731926e-01 0.000000e+00
	endloop
endfacet
facet normal -5.257311e-01 8.506508e-01 0.000000e+00
	outer loop
		vertex 2.051787e-01 -8.731926e-01 0.000000e+00
		vertex 2.051787e-01 -8.731926e-01 -5.551115e-17
		vertex 1.681436e-04 -9.998961e-01 -3.317140e-01
	endloop
endfacet
facet normal -8.261703e-01 4.503330e-01 -3.385895e-01
	outer loop
		vertex 2.051787e-01 -8.731926e-01 -5.551115e-17
		vertex 2.051787e-01 -8.731926e-01 0.000000e+00
		vertex 2.376026e-03 -9.985315e-01 3.281416e-01
	endloop
endfacet
facet normal 7.316303e-01 -6.505626e-01 -2.036796e-01
	outer loop
		vertex 2.051787e-01 -8.731926e-01 -5.551115e-17
		vertex 2.051787e-01 -8.731926e-01 0.000000e+00
		vertex 1.681436e-04 -9.998961e-01 -3.317140e-01
	endloop
endfacet
facet normal 8.506508e-01 2.601136e-15 5.257311e-01
	outer loop
		vertex 2.051787e-01 -8.731926e-01 0.000000e+00
		vertex 2.051787e-01 -8.641157e-01 0.000000e+00
		vertex 2.376026e-03 -9.985315e-01 3.281416e-01
	endloop
endfacet
facet normal -8.506508e-01 -2.601136e-15 5.257311e-01
	outer loop
		vertex 2.051787e-01 -8.731926e-01 0.000000e+00
		vertex 2.051787e-01 -8.641157e-01 0.000000e+00
		vertex 1.681436e-04 -9.998961e-01 -3.317140e-01
	endloop
endfacet
facet normal -8.506508e-01 8.140255e-14 -5.257311e-01
	outer loop
		vertex 2.051787e-01 -8.638941e-01 -5.551115e-17
		vertex 2.051787e-01 -8.641157e-01 0.000000e+00
		vertex 2.376026e-03 -9.985315e-01 3.281416e-01
	endloop
endfacet
facet normal 8.506508e-01 -3.448268e-13 -5.257311e-01
	outer loop
		vertex 2.051787e-01 -8.638941e-01 -5.551115e-17
		vertex 2.051787e-01 -8.641157e-01 0.000000e+00
		vertex 1.681436e-04 -9.998961e-01 -3.317140e-01
	endloop
endfacet
facet normal 0.000000e+00 9.341723e-01 3.568221e-01
	outer loop
		vertex 2.051787e-01 -8.731926e-01 -5.551115e-17
		vertex 2.051787e-01 -8.731926e-01 -5.551115e-17
		vertex 2.376026e-03 -9.985315e-01 3.281416e-01
	endloop
endfacet
facet normal 0.000000e+00 -9.341723e-01 3.568221e-01
	outer loop
		vertex 2.051787e-01 -8.731926e-01 -5.551115e-17
		vertex 2.051787e-01 -8.731926e-01 -5.551115e-17
		vertex 1.681436e-04 -9.998961e-01 -3.317140e-01
	endloop
endfacet
facet normal -3.191514e-01 9.341724e-01 1.595757e-01
	outer loop
		vertex 2.051787e-01 -8.731926e-01 0.000000e+00
		vertex 2.051787e-01 -8.731926e-01 -5.551115e-17
		vertex 2.376026e-03 -9.985315e-01 3.281416e-01
	endloop
endfacet
facet normal -8.621037e-01 2.664048e-01 4.310519e-01
	outer loop
		vertex 2.051787e-01 -8.731926e-01 0.000000e+00
		vertex 2.051787e-01 -8.731926e-01 -5.551115e-17
		vertex 1.681436e-04 -9.998961e-01 -3.317140e-01
	endloop
endfacet
facet normal 8.384419e-01 6.116354e-02 5.415480e-01
	outer loop
		vertex 2.051787e-01 -8.731926e-01 5.551115e-17
		vertex 2.051787e-01 -8.731926e-01 0.000000e+00
		vertex 2.376026e-03 -9.985315e-01 3.281416e-01
	endloop
endfacet
facet normal -8.413131e-01 3.948909e-01 3.691252e-01
	outer loop
		vertex 2.051787e-01 -8.731926e-01 5.551115e-17
		vertex 2.051787e-01 -8.731926e-01 0.000000e+00
		vertex 1.681436e-04 -9.998961e-01 -3.317140e-01
	endloop
endfacet
facet normal -8.506508e-01 -0.000000e+00 -5.257311e-01
	outer loop
		vertex 2.051787e-01 -8.731926e-01 0.000000e+00
		vertex 2.051787e-01 -8.731926e-01 0.000000e+00
		vertex 2.376026e-03 -9.985315e-01 3.281416e-01
	endloop
endfacet
facet normal 8.506508e-01 0.000000e+00 -5.257311e-01
	outer loop
		vertex 2.051787e-01 -8.731926e-01 0.000000e+00
		vertex 2.051787e-01 -8.731926e-01 0.000000e+00
		vertex 1.681436e-04 -9.998961e-01 -3.317140e-01
	endloop
endfacet
facet normal 8.613959e-01 -7.209376e-02 5.027917e-01
	outer loop
		vertex 2.051787e-01 -8.638941e-01 -5.551115e-17
		vertex 2.051787e-01 -8.638941e-01 5.551115e-17
		vertex 2.376026e-03 -9.985315e-01 3.281416e-01
	endloop
endfacet
facet normal -3.911259e-01 -7.411702e-01 5.456072e-01
	outer loop
		vertex 2.051787e-01 -8.638941e-01 -5.551115e-17
		vertex 2.051787e-01 -8.638941e-01 5.551115e-17
		vertex 1.681436e-04 -9.998961e-01 -3.317140e-01
	endloop
endfacet
facet normal 8.506508e-01 7.193668e-16 5.257311e-01
	outer loop
		vertex 2.051787e-01 -8.638941e-01 -5.551115e-17
		vertex 2.051787e-01 -7.731792e-01 0.000000e+00
		vertex 2.376026e-03 -9.985315e-01 3.281416e-01
	endloop
endfacet
facet normal -8.506508e-01 -1.362788e-15 5.257311e-01
	outer loop
		vertex 2.051787e-01 -8.638941e-01 -5.551115e-17
		vertex 2.051787e-01 -7.731792e-01 0.000000e+00
		vertex 1.681436e-04 -9.998961e-01 -3.317140e-01
	endloop
endfacet
facet normal -8.506508e-01 1.301796e-14 -5.257311e-01
	outer loop
		vertex 2.051787e-01 -7.650682e-01 1.110223e-16
		vertex 2.051787e-01 -7.731792e-01 0.000000e+00
		vertex 2.376026e-03 -9.985315e-01 3.281416e-01
	endloop
endfacet
facet normal 8.506508e-01 1.374343e-15 -5.257311e-01
	outer loop
		vertex 2.051787e-01 -7.650682e-01 1.110223e-16
		vertex 2.051787e-01 -7.731792e-01 0.000000e+00
		vertex 1.681436e-04 -9.998961e-01 -3.317140e-01
	endloop
endfacet
facet normal -8.506508e-01 3.088549e-16 -5.257311e-01
	outer loop
		vertex 2.051787e-01 -6.886236e-01 0.000000e+00
		vertex 2.051787e-01 -7.650682e-01 0.000000e+00
		vertex 2.376026e-03 -9.985315e-01 3.281416e-01
	endloop
endfacet
facet normal 8.506508e-01 -3.088549e-16 -5.257311e-01
	outer loop
		vertex 2.051787e-01 -6.886236e-01 0.000000e+00
		vertex 2.051787e-01 -7.650682e-01 0.000000e+00
		vertex 1.681436e-04 -9.998961e-01 -3.317140e-01
	endloop
endfacet
facet normal 8.506508e-01 1.817862e-16 5.257311e-01
	outer loop
		vertex 2.051787e-01 -6.886236e-01 0.000000e+00
		vertex 2.051787e-01 -5.280837e-01 -5.551115e-17
		vertex 2.376026e-03 -9.985315e-01 3.281416e-01
	endloop
endfacet
facet normal -8.506508e-01 1.817862e-16 5.257311e-01
	outer loop
		vertex 2.051787e-01 -6.886236e-01 0.000000e+00
		vertex 2.051787e-01 -5.280837e-01 -5.551115e-17
		vertex 1.681436e-04 -9.998961e-01 -3.317140e-01
	endloop
endfacet
facet normal -8.506508e-01 9.838981e-16 -5.257311e-01
	outer loop
		vertex 2.051787e-01 -4.536750e-01 3.469447e-17
		vertex 2.051787e-01 -5.018750e-01 -5.551115e-17
		vertex 2.376026e-03 -9.985315e-01 3.281416e-01
	endloop
endfacet
facet normal 8.506508e-01 9.838981e-16 -5.257311e-01
	outer loop
		vertex 2.051787e-01 -4.536750e-01 3.469447e-17
		vertex 2.051787e-01 -5.018750e-01 -5.551115e-17
		vertex 1.681436e-04 -9.998961e-01 -3.317140e-01
	endloop
endfacet
facet normal 8.506508e-01 -1.179237e-15 5.257311e-01
	outer loop
		vertex 2.051787e-01 -5.280837e-01 4.163336e-17
		vertex 2.051787e-01 -5.018750e-01 5.551115e-17
		vertex 2.376026e-03 -9.985315e-01 3.281416e-01
	endloop
endfacet
facet normal -8.506508e-01 6.224770e-16 5.257311e-01
	outer loop
		vertex 2.051787e-01 -5.280837e-01 4.163336e-17
		vertex 2.051787e-01 -5.018750e-01 5.551115e-17
		vertex 1.681436e-04 -9.998961e-01 -3.317140e-01
	endloop
endfacet
facet normal -3.579549e-16 5.220944e-01 -8.528877e-01
	outer loop
		vertex 2.051787e-01 -3.334218e-01 -2.098468e-17
		vertex 4.862227e-02 -7.472322e-01 -2.533136e-01
		vertex 7.421351e-02 -3.334218e-01 0.000000e+00
	endloop
endfacet
facet normal -8.506508e-01 -1.870253e-16 5.257311e-01
	outer loop
		vertex 2.051787e-01 -3.334218e-01 -2.098468e-17
		vertex 4.862227e-02 -7.472322e-01 -2.533136e-01
		vertex 1.681436e-04 -9.998961e-01 -3.317140e-01
	endloop
endfacet
facet normal 8.506508e-01 1.516797e-16 5.257311e-01
	outer loop
		vertex 2.051787e-01 -4.536750e-01 3.469447e-17
		vertex 2.051787e-01 -3.334218e-01 0.000000e+00
		vertex 2.376026e-03 -9.985315e-01 3.281416e-01
	endloop
endfacet
facet normal -8.506508e-01 1.516797e-16 5.257311e-01
	outer loop
		vertex 2.051787e-01 -4.536750e-01 3.469447e-17
		vertex 2.051787e-01 -3.334218e-01 0.000000e+00
		vertex 1.681436e-04 -9.998961e-01 -3.317140e-01
	endloop
endfacet
facet normal 1.835776e-16 -5.220944e-01 -8.528877e-01
	outer loop
		vertex 2.051787e-01 -3.334218e-01 2.818926e-17
		vertex 2.030730e-01 -3.389876e-01 3.407122e-03
		vertex 7.421351e-02 -3.334218e-01 0.000000e+00
	endloop
endfacet
facet normal 1.611179e-16 -6.630875e-01 -7.485419e-01
	outer loop
		vertex 7.421351e-02 -3.334218e-01 0.000000e+00
		vertex 2.051787e-01 -3.334218e-01 -2.098468e-17
		vertex 2.051787e-01 -3.334218e-01 2.818926e-17
	endloop
endfacet
facet normal 8.463686e-17 -5.220944e-01 -8.528877e-01
	outer loop
		vertex 2.051787e-01 -3.334218e-01 -2.098468e-17
		vertex 2.030730e-01 -3.389876e-01 3.407122e-03
		vertex 7.421351e-02 -3.334218e-01 0.000000e+00
	endloop
endfacet
facet normal 1.611179e-16 -6.630875e-01 -7.485419e-01
	outer loop
		vertex 7.421351e-02 -3.334218e-01 0.000000e+00
		vertex 2.051787e-01 -3.334218e-01 -2.098468e-17
		vertex 2.051787e-01 -3.334218e-01 2.818926e-17
	endloop
endfacet
facet normal -8.635405e-01 1.474909e-02 5.040638e-01
	outer loop
		vertex 2.051787e-01 -3.334218e-01 2.818926e-17
		vertex 2.051787e-01 -3.334218e-01 -2.098468e-17
		vertex 1.681436e-04 -9.998961e-01 -3.317140e-01
	endloop
endfacet
facet normal 8.506508e-01 1.656934e-14 5.257311e-01
	outer loop
		vertex 2.051787e-01 -3.334218e-01 2.818926e-17
		vertex 2.030730e-01 -3.389876e-01 3.407122e-03
		vertex 2.376026e-03 -9.985315e-01 3.281416e-01
	endloop
endfacet
facet normal 1.000000e+00 0.000000e+00 0.000000e+00
	outer loop
		vertex 2.376026e-03 -9.985315e-01 3.281416e-01
		vertex 2.051787e-01 -3.334218e-01 0.000000e+00
		vertex 2.051787e-01 -3.334218e-01 2.818926e-17
	endloop
endfacet
facet normal 8.506508e-01 2.328098e-14 5.257311e-01
	outer loop
		vertex 2.051787e-01 -3.334218e-01 0.000000e+00
		vertex 2.030730e-01 -3.389876e-01 3.407122e-03
		vertex 2.376026e-03 -9.985315e-01 3.281416e-01
	endloop
endfacet
facet normal 1.000000e+00 0.000000e+00 0.000000e+00
	outer loop
		vertex 2.376026e-03 -9.985315e-01 3.281416e-01
		vertex 2.051787e-01 -3.334218e-01 0.000000e+00
		vertex 2.051787e-01 -3.334218e-01 2.818926e-17
	endloop
endfacet
facet normal -6.194911e-01 4.941446e-01 -6.099605e-01
	outer loop
		vertex 2.051787e-01 -3.334218e-01 2.818926e-17
		vertex 2.051787e-01 -3.334218e-01 0.000000e+00
		vertex 1.681436e-04 -9.998961e-01 -3.317140e-01
	endloop
endfacet
facet normal -5.257311e-01 8.506508e-01 1.724482e-17
	outer loop
		vertex 1.639421e-18 -1.000000e+00 -3.319861e-01
		vertex 2.341877e-17 -1.000000e+00 3.319861e-01
		vertex 2.376026e-03 -9.985315e-01 3.281416e-01
	endloop
endfacet
facet normal -5.257311e-01 8.506508e-01 -8.782178e-16
	outer loop
		vertex 2.376026e-03 -9.985315e-01 3.281416e-01
		vertex 1.681436e-04 -9.998961e-01 -3.317140e-01
		vertex 1.639421e-18 -1.000000e+00 -3.319861e-01
	endloop
endfacet
facet normal 0.000000e+00 0.000000e+00 0.000000e+00
	outer loop
		vertex 1.639421e-18 -1.000000e+00 -3.319861e-01
		vertex 1.681436e-04 -9.998961e-01 -3.317140e-01
		vertex 1.681436e-04 -9.998961e-01 -3.317140e-01
	endloop
endfacet
facet normal -5.257311e-01 8.506508e-01 0.000000e+00
	outer loop
		vertex 0.000000e+00 -1.000000e+00 -3.319861e-01
		vertex 0.000000e+00 -1.000000e+00 3.319861e-01
		vertex 2.376026e-03 -9.985315e-01 3.281416e-01
	endloop
endfacet
facet normal -5.257311e-01 8.506508e-01 -8.978064e-16
	outer loop
		vertex 2.376026e-03 -9.985315e-01 3.281416e-01
		vertex 1.681436e-04 -9.998961e-01 -3.317140e-01
		vertex 0.000000e+00 -1.000000e+00 -3.319861e-01
	endloop
endfacet
facet normal 0.000000e+00 0.000000e+00 0.000000e+00
	outer loop
		vertex 0.000000e+00 -1.000000e+00 -3.319861e-01
		vertex 1.681436e-04 -9.998961e-01 -3.317140e-01
		vertex 1.681436e-04 -9.998961e-01 -3.317140e-01
	endloop
endfacet
facet normal 0.000000e+00 0.000000e+00 0.000000e+00
	outer loop
		vertex 0.000000e+00 -1.000000e+00 -3.319861e-01
		vertex 0.000000e+00 -1.000000e+00 3.319861e-01
		vertex 0.000000e+00 -1.000000e+00 3.319861e-01
	endloop
endfacet
facet normal 0.000000e+00 0.000000e+00 0.000000e+00
	outer loop
		vertex 0.000000e+00 -1.000000e+00 3.319861e-01
		vertex 0.000000e+00 -1.000000e+00 -3.319861e-01
		vertex 0.000000e+00 -1.000000e+00 -3.319861e-01
	endloop
endfacet
facet normal 0.000000e+00 0.000000e+00 0.000000e+00
	outer loop
		vertex 0.000000e+00 -1.000000e+00 -3.319861e-01
		vertex 0.000000e+00 -1.000000e+00 3.319861e-01
		vertex 0.000000e+00 -1.000000e+00 3.319861e-01
	endloop
endfacet
facet normal 0.000000e+00 0.000000e+00 0.000000e+00
	outer loop
		vertex 0.000000e+00 -1.000000e+00 3.319861e-01
		vertex 0.000000e+00 -1.000000e+00 -3.319861e-01
		vertex 0.000000e+00 -1.000000e+00 -3.319861e-01
	endloop
endfacet
facet normal 0.000000e+00 0.000000e+00 0.000000e+00
	outer loop
		vertex 0.000000e+00 -1.000000e+00 -3.319861e-01
		vertex 0.000000e+00 -1.000000e+00 -3.319861e-01
		vertex 1.681436e-04 -9.998961e-01 -3.317140e-01
	endloop
endfacet
facet normal 8.944272e-01 0.000000e+00 -4.472136e-01
	outer loop
		vertex -2.051787e-01 -8.731926e-01 5.551115e-17
		vertex 2.341877e-17 -1.000000e+00 3.319861e-01
		vertex 0.000000e+00 -1.000000e+00 3.319861e-01
	endloop
endfacet
facet normal -6.837635e-01 4.558423e-01 5.698029e-01
	outer loop
		vertex 0.000000e+00 -1.000000e+00 3.319861e-01
		vertex -2.051787e-01 -8.731926e-01 -5.551115e-17
		vertex -2.051787e-01 -8.731926e-01 5.551115e-17
	endloop
endfacet
facet normal 8.944272e-01 0.000000e+00 -4.472136e-01
	outer loop
		vertex -2.051787e-01 -8.731926e-01 -5.551115e-17
		vertex 2.341877e-17 -1.000000e+00 3.319861e-01
		vertex 0.000000e+00 -1.000000e+00 3.319861e-01
	endloop
endfacet
facet normal -6.837635e-01 4.558423e-01 5.698029e-01
	outer loop
		vertex 0.000000e+00 -1.000000e+00 3.319861e-01
		vertex -2.051787e-01 -8.731926e-01 -5.551115e-17
		vertex -2.051787e-01 -8.731926e-01 5.551115e-17
	endloop
endfacet
facet normal 0.000000e+00 0.000000e+00 0.000000e+00
	outer loop
		vertex -2.051787e-01 -8.731926e-01 5.551115e-17
		vertex -2.051787e-01 -8.731926e-01 -5.551115e-17
		vertex -2.051787e-01 -8.731926e-01 -5.551115e-17
	endloop
endfacet
facet normal 0.000000e+00 0.000000e+00 0.000000e+00
	outer loop
		vertex -2.051787e-01 -8.731926e-01 5.551115e-17
		vertex 2.341877e-17 -1.000000e+00 3.319861e-01
		vertex 2.341877e-17 -1.000000e+00 3.319861e-01
	endloop
endfacet
facet normal -8.320503e-01 0.000000e+00 5.547002e-01
	outer loop
		vertex 2.341877e-17 -1.000000e+00 3.319861e-01
		vertex -2.051787e-01 -8.731926e-01 -5.551115e-17
		vertex -2.051787e-01 -8.731926e-01 5.551115e-17
	endloop
endfacet
facet normal 0.000000e+00 0.000000e+00 0.000000e+00
	outer loop
		vertex -2.051787e-01 -8.731926e-01 -5.551115e-17
		vertex 2.341877e-17 -1.000000e+00 3.319861e-01
		vertex 2.341877e-17 -1.000000e+00 3.319861e-01
	endloop
endfacet
facet normal -8.320503e-01 0.000000e+00 5.547002e-01
	outer loop
		vertex 2.341877e-17 -1.000000e+00 3.319861e-01
		vertex -2.051787e-01 -8.731926e-01 -5.551115e-17
		vertex -2.051787e-01 -8.731926e-01 5.551115e-17
	endloop
endfacet
facet normal 0.000000e+00 0.000000e+00 0.000000e+00
	outer loop
		vertex -2.051787e-01 -8.731926e-01 5.551115e-17
		vertex -2.051787e-01 -8.731926e-01 -5.551115e-17
		vertex -2.051787e-01 -8.731926e-01 -5.551115e-17
	endloop
endfacet
facet normal 0.000000e+00 -9.341723e-01 -3.568221e-01
	outer loop
		vertex -2.051787e-01 -8.731926e-01 1.110223e-16
		vertex -2.051787e-01 -8.731926e-01 1.110223e-16
		vertex -1.443419e-02 -9.910792e-01 3.086311e-01
	endloop
endfacet
facet normal -0.000000e+00 8.320503e-01 5.547002e-01
	outer loop
		vertex -2.051787e-01 -8.731926e-01 1.110223e-16
		vertex -2.051787e-01 -8.731926e-01 1.110223e-16
		vertex -2.051787e-01 -8.731926e-01 -5.551115e-17
	endloop
endfacet
facet normal 0.000000e+00 0.000000e+00 0.000000e+00
	outer loop
		vertex -2.051787e-01 -8.731926e-01 5.551115e-17
		vertex 0.000000e+00 -1.000000e+00 3.319861e-01
		vertex 0.000000e+00 -1.000000e+00 3.319861e-01
	endloop
endfacet
facet normal -6.837635e-01 4.558423e-01 5.698029e-01
	outer loop
		vertex 0.000000e+00 -1.000000e+00 3.319861e-01
		vertex -2.051787e-01 -8.731926e-01 -5.551115e-17
		vertex -2.051787e-01 -8.731926e-01 5.551115e-17
	endloop
endfacet
facet normal 0.000000e+00 0.000000e+00 0.000000e+00
	outer loop
		vertex -2.051787e-01 -8.731926e-01 -5.551115e-17
		vertex 0.000000e+00 -1.000000e+00 3.319861e-01
		vertex 0.000000e+00 -1.000000e+00 3.319861e-01
	endloop
endfacet
facet normal -6.837635e-01 4.558423e-01 5.698029e-01
	outer loop
		vertex 0.000000e+00 -1.000000e+00 3.319861e-01
		vertex -2.051787e-01 -8.731926e-01 -5.551115e-17
		vertex -2.051787e-01 -8.731926e-01 5.551115e-17
	endloop
endfacet
facet normal 0.000000e+00 0.000000e+00 0.000000e+00
	outer loop
		vertex -2.051787e-01 -8.731926e-01 5.551115e-17
		vertex -2.051787e-01 -8.731926e-01 -5.551115e-17
		vertex -2.051787e-01 -8.731926e-01 -5.551115e-17
	endloop
endfacet
facet normal 7.071068e-01 0.000000e+00 -7.071068e-01
	outer loop
		vertex -2.051787e-01 -8.731926e-01 0.000000e+00
		vertex 0.000000e+00 -1.000000e+00 3.319861e-01
		vertex -1.443419e-02 -9.910792e-01 3.086311e-01
	endloop
endfacet
facet normal -8.295614e-01 -2.073903e-01 5.184758e-01
	outer loop
		vertex -1.443419e-02 -9.910792e-01 3.086311e-01
		vertex -2.051787e-01 -8.731926e-01 -5.551115e-17
		vertex -2.051787e-01 -8.731926e-01 0.000000e+00
	endloop
endfacet
facet normal 8.944272e-01 0.000000e+00 -4.472136e-01
	outer loop
		vertex -2.051787e-01 -8.731926e-01 -5.551115e-17
		vertex 0.000000e+00 -1.000000e+00 3.319861e-01
		vertex -1.443419e-02 -9.910792e-01 3.086311e-01
	endloop
endfacet
facet normal -8.295614e-01 -2.073903e-01 5.184758e-01
	outer loop
		vertex -1.443419e-02 -9.910792e-01 3.086311e-01
		vertex -2.051787e-01 -8.731926e-01 -5.551115e-17
		vertex -2.051787e-01 -8.731926e-01 0.000000e+00
	endloop
endfacet
facet normal 0.000000e+00 0.000000e+00 0.000000e+00
	outer loop
		vertex -2.051787e-01 -8.731926e-01 0.000000e+00
		vertex -2.051787e-01 -8.731926e-01 -5.551115e-17
		vertex -2.051787e-01 -8.731926e-01 -5.551115e-17
	endloop
endfacet
facet normal 7.071068e-01 0.000000e+00 -7.071068e-01
	outer loop
		vertex -2.051787e-01 -8.731926e-01 0.000000e+00
		vertex 0.000000e+00 -1.000000e+00 3.319861e-01
		vertex -1.443419e-02 -9.910792e-01 3.086311e-01
	endloop
endfacet
facet normal -8.295614e-01 -2.073903e-01 5.184758e-01
	outer loop
		vertex -1.443419e-02 -9.910792e-01 3.086311e-01
		vertex -2.051787e-01 -8.731926e-01 -5.551115e-17
		vertex -2.051787e-01 -8.731926e-01 0.000000e+00
	endloop
endfacet
facet normal 8.944272e-01 0.000000e+00 -4.472136e-01
	outer loop
		vertex -2.051787e-01 -8.731926e-01 -5.551115e-17
		vertex 0.000000e+00 -1.000000e+00 3.319861e-01
		vertex -1.443419e-02 -9.910792e-01 3.086311e-01
	endloop
endfacet
facet normal -8.295614e-01 -2.073903e-01 5.184758e-01
	outer loop
		vertex -1.443419e-02 -9.910792e-01 3.086311e-01
		vertex -2.051787e-01 -8.731926e-01 -5.551115e-17
		vertex -2.051787e-01 -8.731926e-01 0.000000e+00
	endloop
endfacet
facet normal 0.000000e+00 0.000000e+00 0.000000e+00
	outer loop
		vertex -2.051787e-01 -8.731926e-01 0.000000e+00
		vertex -2.051787e-01 -8.731926e-01 -5.551115e-17
		vertex -2.051787e-01 -8.731926e-01 -5.551115e-17
	endloop
endfacet
facet normal 0.000000e+00 0.000000e+00 0.000000e+00
	outer loop
		vertex -2.051787e-01 -8.731926e-01 5.551115e-17
		vertex 0.000000e+00 -1.000000e+00 3.319861e-01
		vertex 0.000000e+00 -1.000000e+00 3.319861e-01
	endloop
endfacet
facet normal -6.837635e-01 4.558423e-01 5.698029e-01
	outer loop
		vertex 0.000000e+00 -1.000000e+00 3.319861e-01
		vertex -2.051787e-01 -8.731926e-01 -5.551115e-17
		vertex -2.051787e-01 -8.731926e-01 5.551115e-17
	endloop
endfacet
facet normal 0.000000e+00 0.000000e+00 0.000000e+00
	outer loop
		vertex -2.051787e-01 -8.731926e-01 -5.551115e-17
		vertex 0.000000e+00 -1.000000e+00 3.319861e-01
		vertex 0.000000e+00 -1.000000e+00 3.319861e-01
	endloop
endfacet
facet normal -6.837635e-01 4.558423e-01 5.698029e-01
	outer loop
		vertex 0.000000e+00 -1.000000e+00 3.319861e-01
		vertex -2.051787e-01 -8.731926e-01 -5.551115e-17
		vertex -2.051787e-01 -8.731926e-01 5.551115e-17
	endloop
endfacet
facet normal 0.000000e+00 0.000000e+00 0.000000e+00
	outer loop
		vertex -2.051787e-01 -8.731926e-01 5.551115e-17
		vertex -2.051787e-01 -8.731926e-01 -5.551115e-17
		vertex -2.051787e-01 -8.731926e-01 -5.551115e-17
	endloop
endfacet
facet normal -8.506508e-01 0.000000e+00 5.257311e-01
	outer loop
		vertex -2.051787e-01 -8.731926e-01 -5.551115e-17
		vertex 0.000000e+00 -1.000000e+00 3.319861e-01
		vertex -4.770490e-18 -9.974547e-01 3.319861e-01
	endloop
endfacet
facet normal 8.506508e-01 3.128871e-14 -5.257311e-01
	outer loop
		vertex -4.770490e-18 -9.974547e-01 3.319861e-01
		vertex -2.051787e-01 -8.731926e-01 -5.551115e-17
		vertex -2.051787e-01 -8.720561e-01 5.551115e-17
	endloop
endfacet
facet normal 0.000000e+00 0.000000e+00 0.000000e+00
	outer loop
		vertex -2.051787e-01 -8.720561e-01 5.551115e-17
		vertex -2.051787e-01 -8.731926e-01 -5.551115e-17
		vertex -2.051787e-01 -8.731926e-01 -5.551115e-17
	endloop
endfacet
facet normal -8.506508e-01 0.000000e+00 5.257311e-01
	outer loop
		vertex -2.051787e-01 -8.731926e-01 -5.551115e-17
		vertex 0.000000e+00 -1.000000e+00 3.319861e-01
		vertex -4.770490e-18 -9.974547e-01 3.319861e-01
	endloop
endfacet
facet normal 8.506508e-01 3.128871e-14 -5.257311e-01
	outer loop
		vertex -4.770490e-18 -9.974547e-01 3.319861e-01
		vertex -2.051787e-01 -8.731926e-01 -5.551115e-17
		vertex -2.051787e-01 -8.720561e-01 5.551115e-17
	endloop
endfacet
facet normal 0.000000e+00 0.000000e+00 0.000000e+00
	outer loop
		vertex -2.051787e-01 -8.720561e-01 5.551115e-17
		vertex -2.051787e-01 -8.731926e-01 -5.551115e-17
		vertex -2.051787e-01 -8.731926e-01 -5.551115e-17
	endloop
endfacet
facet normal -8.506508e-01 4.829529e-13 5.257311e-01
	outer loop
		vertex -2.051787e-01 -8.720561e-01 -5.551115e-17
		vertex -1.734723e-18 -9.974547e-01 3.319861e-01
		vertex -9.540979e-18 -9.973810e-01 3.319861e-01
	endloop
endfacet
facet normal 8.506508e-01 1.081654e-12 -5.257311e-01
	outer loop
		vertex -9.540979e-18 -9.973810e-01 3.319861e-01
		vertex -2.051787e-01 -8.720561e-01 -5.551115e-17
		vertex -2.051787e-01 -8.720232e-01 5.551115e-17
	endloop
endfacet
facet normal -9.701425e-01 0.000000e+00 2.425356e-01
	outer loop
		vertex -2.051787e-01 -8.720232e-01 5.551115e-17
		vertex -2.051787e-01 -8.720561e-01 -5.551115e-17
		vertex -2.051787e-01 -8.731926e-01 -5.551115e-17
	endloop
endfacet
facet normal 8.506508e-01 2.082132e-16 -5.257311e-01
	outer loop
		vertex -2.051787e-01 -3.903096e-01 -5.551115e-17
		vertex -1.936692e-01 -3.638437e-01 1.862272e-02
		vertex -1.888570e-01 -3.765634e-01 2.640907e-02
	endloop
endfacet
facet normal -8.506508e-01 -1.371078e-15 5.257311e-01
	outer loop
		vertex -1.888570e-01 -3.765634e-01 2.640907e-02
		vertex -2.051787e-01 -3.903096e-01 -5.551115e-17
		vertex -2.051787e-01 -4.119600e-01 2.081668e-17
	endloop
endfacet
facet normal -6.812380e-01 -3.915680e-17 7.320620e-01
	outer loop
		vertex -2.051787e-01 -4.119600e-01 2.081668e-17
		vertex -2.051787e-01 -3.903096e-01 -5.551115e-17
		vertex -2.051787e-01 -8.731926e-01 -5.551115e-17
	endloop
endfacet
facet normal 8.506508e-01 -1.457489e-15 -5.257311e-01
	outer loop
		vertex -2.051787e-01 -4.119600e-01 -1.110223e-16
		vertex -1.888570e-01 -3.765634e-01 2.640907e-02
		vertex -1.848734e-01 -3.870929e-01 3.285470e-02
	endloop
endfacet
facet normal -8.506508e-01 2.466147e-15 5.257311e-01
	outer loop
		vertex -1.848734e-01 -3.870929e-01 3.285470e-02
		vertex -2.051787e-01 -4.119600e-01 -1.110223e-16
		vertex -2.051787e-01 -4.290340e-01 1.387779e-17
	endloop
endfacet
facet normal -9.736318e-01 8.604597e-17 2.281252e-01
	outer loop
		vertex -2.051787e-01 -4.290340e-01 1.387779e-17
		vertex -2.051787e-01 -4.119600e-01 -1.110223e-16
		vertex -2.051787e-01 -8.731926e-01 -5.551115e-17
	endloop
endfacet
facet normal -8.506508e-01 3.362174e-16 5.257311e-01
	outer loop
		vertex -2.051787e-01 -6.077771e-01 -5.551115e-17
		vertex -1.295733e-01 -5.332621e-01 1.223321e-01
		vertex -1.542906e-01 -4.679294e-01 8.233868e-02
	endloop
endfacet
facet normal 8.506508e-01 -7.837298e-16 -5.257311e-01
	outer loop
		vertex -1.542906e-01 -4.679294e-01 8.233868e-02
		vertex -2.051787e-01 -6.077771e-01 -5.551115e-17
		vertex -2.051787e-01 -5.391758e-01 -1.387779e-17
	endloop
endfacet
facet normal -4.472136e-01 0.000000e+00 8.944272e-01
	outer loop
		vertex -2.051787e-01 -5.391758e-01 -1.387779e-17
		vertex -2.051787e-01 -6.077771e-01 -5.551115e-17
		vertex -2.051787e-01 -8.731926e-01 -5.551115e-17
	endloop
endfacet
facet normal -8.506508e-01 7.246675e-17 5.257311e-01
	outer loop
		vertex -2.051787e-01 -5.391758e-01 -5.551115e-17
		vertex -1.542906e-01 -4.679294e-01 8.233868e-02
		vertex -1.848734e-01 -3.870929e-01 3.285470e-02
	endloop
endfacet
facet normal 8.506508e-01 7.645984e-17 -5.257311e-01
	outer loop
		vertex -1.848734e-01 -3.870929e-01 3.285470e-02
		vertex -2.051787e-01 -5.391758e-01 -5.551115e-17
		vertex -2.051787e-01 -4.290340e-01 6.938894e-18
	endloop
endfacet
facet normal -9.583812e-01 7.963797e-17 2.854915e-01
	outer loop
		vertex -2.051787e-01 -4.290340e-01 6.938894e-18
		vertex -2.051787e-01 -5.391758e-01 -5.551115e-17
		vertex -2.051787e-01 -8.731926e-01 -5.551115e-17
	endloop
endfacet
facet normal -8.506508e-01 1.015906e-14 5.257311e-01
	outer loop
		vertex -2.051787e-01 -6.165912e-01 -5.551115e-17
		vertex -1.259821e-01 -5.427544e-01 1.281428e-01
		vertex -1.272502e-01 -5.394026e-01 1.260909e-01
	endloop
endfacet
facet normal 8.506508e-01 -7.592729e-15 -5.257311e-01
	outer loop
		vertex -1.272502e-01 -5.394026e-01 1.260909e-01
		vertex -2.051787e-01 -6.165912e-01 -5.551115e-17
		vertex -2.051787e-01 -6.135086e-01 0.000000e+00
	endloop
endfacet
facet normal -7.049863e-01 -7.625564e-17 7.092210e-01
	outer loop
		vertex -2.051787e-01 -6.135086e-01 0.000000e+00
		vertex -2.051787e-01 -6.165912e-01 -5.551115e-17
		vertex -2.051787e-01 -8.731926e-01 -5.551115e-17
	endloop
endfacet
facet normal -8.506508e-01 -5.233885e-15 5.257311e-01
	outer loop
		vertex -2.051787e-01 -6.135086e-01 0.000000e+00
		vertex -1.272502e-01 -5.394026e-01 1.260909e-01
		vertex -1.284945e-01 -5.361138e-01 1.240777e-01
	endloop
endfacet
facet normal 8.506508e-01 3.891553e-15 -5.257311e-01
	outer loop
		vertex -1.284945e-01 -5.361138e-01 1.240777e-01
		vertex -2.051787e-01 -6.135086e-01 0.000000e+00
		vertex -2.051787e-01 -6.104525e-01 2.775558e-17
	endloop
endfacet
facet normal -9.999274e-01 1.094505e-16 -1.205126e-02
	outer loop
		vertex -2.051787e-01 -6.104525e-01 2.775558e-17
		vertex -2.051787e-01 -6.135086e-01 0.000000e+00
		vertex -2.051787e-01 -8.731926e-01 -5.551115e-17
	endloop
endfacet
facet normal 8.506508e-01 1.806183e-14 -5.257311e-01
	outer loop
		vertex -2.051787e-01 -6.077771e-01 -5.551115e-17
		vertex -1.295733e-01 -5.332621e-01 1.223321e-01
		vertex -1.290212e-01 -5.347215e-01 1.232254e-01
	endloop
endfacet
facet normal -8.506508e-01 -3.490868e-14 5.257311e-01
	outer loop
		vertex -1.290212e-01 -5.347215e-01 1.232254e-01
		vertex -2.051787e-01 -6.077771e-01 -5.551115e-17
		vertex -2.051787e-01 -6.091493e-01 -1.387779e-17
	endloop
endfacet
facet normal -4.472136e-01 0.000000e+00 8.944272e-01
	outer loop
		vertex -2.051787e-01 -6.091493e-01 -1.387779e-17
		vertex -2.051787e-01 -6.077771e-01 -5.551115e-17
		vertex -2.051787e-01 -8.731926e-01 -5.551115e-17
	endloop
endfacet
facet normal 8.506508e-01 2.511812e-14 -5.257311e-01
	outer loop
		vertex -2.051787e-01 -6.091493e-01 0.000000e+00
		vertex -1.290212e-01 -5.347215e-01 1.232254e-01
		vertex -1.284945e-01 -5.361138e-01 1.240777e-01
	endloop
endfacet
facet normal -8.506508e-01 -2.737749e-14 5.257311e-01
	outer loop
		vertex -1.284945e-01 -5.361138e-01 1.240777e-01
		vertex -2.051787e-01 -6.091493e-01 0.000000e+00
		vertex -2.051787e-01 -6.104525e-01 -1.387779e-17
	endloop
endfacet
facet normal 4.401085e-01 -1.887794e-16 8.979446e-01
	outer loop
		vertex -2.051787e-01 -6.104525e-01 -1.387779e-17
		vertex -2.051787e-01 -6.091493e-01 0.000000e+00
		vertex -2.051787e-01 -8.731926e-01 -5.551115e-17
	endloop
endfacet
facet normal -8.506508e-01 -3.139994e-14 5.257311e-01
	outer loop
		vertex -2.051787e-01 -3.359334e-01 -5.551115e-17
		vertex -2.047022e-01 -3.346812e-01 7.709516e-04
		vertex -2.048722e-01 -3.342321e-01 4.960055e-04
	endloop
endfacet
facet normal 8.506508e-01 2.670746e-14 -5.257311e-01
	outer loop
		vertex -2.048722e-01 -3.342321e-01 4.960055e-04
		vertex -2.051787e-01 -3.359334e-01 -5.551115e-17
		vertex -2.051787e-01 -3.350394e-01 3.480289e-17
	endloop
endfacet
facet normal -9.558782e-01 0.000000e+00 2.937633e-01
	outer loop
		vertex -2.051787e-01 -3.350394e-01 3.480289e-17
		vertex -2.051787e-01 -3.359334e-01 -5.551115e-17
		vertex -2.051787e-01 -8.731926e-01 -5.551115e-17
	endloop
endfacet
facet normal -8.506508e-01 6.989585e-13 5.257311e-01
	outer loop
		vertex -2.051787e-01 -3.350394e-01 -1.110223e-16
		vertex -2.048722e-01 -3.342321e-01 4.960055e-04
		vertex -2.048788e-01 -3.342145e-01 4.852511e-04
	endloop
endfacet
facet normal 8.506508e-01 -2.120722e-13 -5.257311e-01
	outer loop
		vertex -2.048788e-01 -3.342145e-01 4.852511e-04
		vertex -2.051787e-01 -3.350394e-01 -1.110223e-16
		vertex -2.051787e-01 -3.350043e-01 -3.534499e-17
	endloop
endfacet
facet normal -8.063450e-01 6.100831e-17 5.914455e-01
	outer loop
		vertex -2.051787e-01 -3.350043e-01 -3.534499e-17
		vertex -2.051787e-01 -3.350394e-01 -1.110223e-16
		vertex -2.051787e-01 -8.731926e-01 -5.551115e-17
	endloop
endfacet
facet normal 8.506508e-01 5.186422e-13 -5.257311e-01
	outer loop
		vertex -2.051787e-01 -8.719926e-01 -5.551115e-17
		vertex -1.040834e-17 -9.973125e-01 3.319861e-01
		vertex -9.540979e-18 -9.973810e-01 3.319861e-01
	endloop
endfacet
facet normal -8.506508e-01 1.161586e-12 5.257311e-01
	outer loop
		vertex -9.540979e-18 -9.973810e-01 3.319861e-01
		vertex -2.051787e-01 -8.719926e-01 -5.551115e-17
		vertex -2.051787e-01 -8.720232e-01 5.551115e-17
	endloop
endfacet
facet normal -9.701425e-01 0.000000e+00 2.425356e-01
	outer loop
		vertex -2.051787e-01 -8.720232e-01 5.551115e-17
		vertex -2.051787e-01 -8.719926e-01 -5.551115e-17
		vertex -2.051787e-01 -8.731926e-01 -5.551115e-17
	endloop
endfacet
facet normal -8.506508e-01 0.000000e+00 5.257311e-01
	outer loop
		vertex -2.051787e-01 -8.719926e-01 -1.110223e-16
		vertex 3.469447e-18 -9.973125e-01 3.319861e-01
		vertex -6.505213e-18 -9.972355e-01 3.319861e-01
	endloop
endfacet
facet normal 8.506508e-01 2.069108e-12 -5.257311e-01
	outer loop
		vertex -6.505213e-18 -9.972355e-01 3.319861e-01
		vertex -2.051787e-01 -8.719926e-01 -1.110223e-16
		vertex -2.051787e-01 -8.719582e-01 5.551115e-17
	endloop
endfacet
facet normal -9.866450e-01 7.535142e-15 1.628856e-01
	outer loop
		vertex -2.051787e-01 -8.719582e-01 5.551115e-17
		vertex -2.051787e-01 -8.719926e-01 -1.110223e-16
		vertex -2.051787e-01 -8.731926e-01 -5.551115e-17
	endloop
endfacet
facet normal -8.506508e-01 -3.138774e-17 5.257311e-01
	outer loop
		vertex -2.051787e-01 -8.177159e-01 -1.110223e-16
		vertex 0.000000e+00 -8.757507e-01 3.319861e-01
		vertex -1.199927e-01 -5.585857e-01 1.378339e-01
	endloop
endfacet
facet normal 8.506508e-01 5.725537e-17 -5.257311e-01
	outer loop
		vertex -1.199927e-01 -5.585857e-01 1.378339e-01
		vertex -2.051787e-01 -8.177159e-01 -1.110223e-16
		vertex -2.051787e-01 -6.307297e-01 0.000000e+00
	endloop
endfacet
facet normal -9.831027e-01 1.831686e-16 1.830549e-01
	outer loop
		vertex -2.051787e-01 -6.307297e-01 0.000000e+00
		vertex -2.051787e-01 -8.177159e-01 -1.110223e-16
		vertex -2.051787e-01 -8.731926e-01 -5.551115e-17
	endloop
endfacet
facet normal 8.506508e-01 0.000000e+00 -5.257311e-01
	outer loop
		vertex -2.051787e-01 -8.177159e-01 -1.110223e-16
		vertex 0.000000e+00 -8.757507e-01 3.319861e-01
		vertex -6.505213e-18 -9.972355e-01 3.319861e-01
	endloop
endfacet
facet normal -8.506508e-01 1.311122e-15 5.257311e-01
	outer loop
		vertex -6.505213e-18 -9.972355e-01 3.319861e-01
		vertex -2.051787e-01 -8.177159e-01 -1.110223e-16
		vertex -2.051787e-01 -8.719582e-01 5.551115e-17
	endloop
endfacet
facet normal -9.707675e-01 2.401708e-16 2.400217e-01
	outer loop
		vertex -2.051787e-01 -8.719582e-01 5.551115e-17
		vertex -2.051787e-01 -8.177159e-01 -1.110223e-16
		vertex -2.051787e-01 -8.731926e-01 -5.551115e-17
	endloop
endfacet
facet normal 8.506508e-01 6.026303e-15 -5.257311e-01
	outer loop
		vertex -2.051787e-01 -6.165912e-01 0.000000e+00
		vertex -1.259821e-01 -5.427544e-01 1.281428e-01
		vertex -1.238444e-01 -5.484049e-01 1.316017e-01
	endloop
endfacet
facet normal -8.506508e-01 -6.563610e-15 5.257311e-01
	outer loop
		vertex -1.238444e-01 -5.484049e-01 1.316017e-01
		vertex -2.051787e-01 -6.165912e-01 0.000000e+00
		vertex -2.051787e-01 -6.217163e-01 2.775558e-17
	endloop
endfacet
facet normal -4.649851e-01 -2.418186e-16 8.853185e-01
	outer loop
		vertex -2.051787e-01 -6.217163e-01 2.775558e-17
		vertex -2.051787e-01 -6.165912e-01 0.000000e+00
		vertex -2.051787e-01 -8.731926e-01 -5.551115e-17
	endloop
endfacet
facet normal 8.506508e-01 4.689332e-15 -5.257311e-01
	outer loop
		vertex -2.051787e-01 -6.217163e-01 -5.551115e-17
		vertex -1.238444e-01 -5.484049e-01 1.316017e-01
		vertex -1.218206e-01 -5.537542e-01 1.348763e-01
	endloop
endfacet
facet normal -8.506508e-01 -2.293294e-15 5.257311e-01
	outer loop
		vertex -1.218206e-01 -5.537542e-01 1.348763e-01
		vertex -2.051787e-01 -6.217163e-01 -5.551115e-17
		vertex -2.051787e-01 -6.264870e-01 0.000000e+00
	endloop
endfacet
facet normal -7.071068e-01 0.000000e+00 7.071068e-01
	outer loop
		vertex -2.051787e-01 -6.264870e-01 0.000000e+00
		vertex -2.051787e-01 -6.217163e-01 -5.551115e-17
		vertex -2.051787e-01 -8.731926e-01 -5.551115e-17
	endloop
endfacet
facet normal -8.506508e-01 -6.692443e-15 5.257311e-01
	outer loop
		vertex -2.051787e-01 -6.307297e-01 0.000000e+00
		vertex -1.199927e-01 -5.585857e-01 1.378339e-01
		vertex -1.209094e-01 -5.561626e-01 1.363506e-01
	endloop
endfacet
facet normal 8.506508e-01 1.020974e-14 -5.257311e-01
	outer loop
		vertex -1.209094e-01 -5.561626e-01 1.363506e-01
		vertex -2.051787e-01 -6.307297e-01 0.000000e+00
		vertex -2.051787e-01 -6.286097e-01 0.000000e+00
	endloop
endfacet
facet normal 1.718428e-02 2.249789e-16 -9.998523e-01
	outer loop
		vertex -2.051787e-01 -6.286097e-01 0.000000e+00
		vertex -2.051787e-01 -6.307297e-01 0.000000e+00
		vertex -2.051787e-01 -8.731926e-01 -5.551115e-17
	endloop
endfacet
facet normal -8.506508e-01 6.781523e-15 5.257311e-01
	outer loop
		vertex -2.051787e-01 -6.286097e-01 -5.551115e-17
		vertex -1.209094e-01 -5.561626e-01 1.363506e-01
		vertex -1.218206e-01 -5.537542e-01 1.348763e-01
	endloop
endfacet
facet normal 8.506508e-01 1.030844e-14 -5.257311e-01
	outer loop
		vertex -1.218206e-01 -5.537542e-01 1.348763e-01
		vertex -2.051787e-01 -6.286097e-01 -5.551115e-17
		vertex -2.051787e-01 -6.264870e-01 2.775558e-17
	endloop
endfacet
facet normal -9.486833e-01 0.000000e+00 3.162278e-01
	outer loop
		vertex -2.051787e-01 -6.264870e-01 2.775558e-17
		vertex -2.051787e-01 -6.286097e-01 -5.551115e-17
		vertex -2.051787e-01 -8.731926e-01 -5.551115e-17
	endloop
endfacet
facet normal 8.506508e-01 3.158799e-13 -5.257311e-01
	outer loop
		vertex -2.051787e-01 -3.334812e-01 -5.551115e-17
		vertex -2.051675e-01 -3.334515e-01 1.816782e-05
		vertex -2.048896e-01 -3.341859e-01 4.677073e-04
	endloop
endfacet
facet normal -8.506508e-01 5.516751e-15 5.257311e-01
	outer loop
		vertex -2.048896e-01 -3.341859e-01 4.677073e-04
		vertex -2.051787e-01 -3.334812e-01 -5.551115e-17
		vertex -2.051787e-01 -3.349472e-01 4.770490e-18
	endloop
endfacet
facet normal -9.083415e-01 0.000000e+00 4.182292e-01
	outer loop
		vertex -2.051787e-01 -3.349472e-01 4.770490e-18
		vertex -2.051787e-01 -3.334812e-01 -5.551115e-17
		vertex -2.051787e-01 -8.731926e-01 -5.551115e-17
	endloop
endfacet
facet normal 8.506508e-01 -3.474880e-13 -5.257311e-01
	outer loop
		vertex -2.051787e-01 -3.349472e-01 0.000000e+00
		vertex -2.048896e-01 -3.341859e-01 4.677073e-04
		vertex -2.048788e-01 -3.342145e-01 4.852511e-04
	endloop
endfacet
facet normal -8.506508e-01 -2.599762e-14 5.257311e-01
	outer loop
		vertex -2.048788e-01 -3.342145e-01 4.852511e-04
		vertex -2.051787e-01 -3.349472e-01 0.000000e+00
		vertex -2.051787e-01 -3.350043e-01 4.212125e-17
	endloop
endfacet
facet normal -8.350497e-01 -5.674145e-17 5.501746e-01
	outer loop
		vertex -2.051787e-01 -3.350043e-01 4.212125e-17
		vertex -2.051787e-01 -3.349472e-01 0.000000e+00
		vertex -2.051787e-01 -8.731926e-01 -5.551115e-17
	endloop
endfacet
facet normal -8.506508e-01 -5.292411e-14 5.257311e-01
	outer loop
		vertex -2.051787e-01 -3.903096e-01 -5.551115e-17
		vertex -1.936692e-01 -3.638437e-01 1.862272e-02
		vertex -1.938869e-01 -3.632682e-01 1.827044e-02
	endloop
endfacet
facet normal 8.506508e-01 4.384499e-14 -5.257311e-01
	outer loop
		vertex -1.938869e-01 -3.632682e-01 1.827044e-02
		vertex -2.051787e-01 -3.903096e-01 -5.551115e-17
		vertex -2.051787e-01 -3.893022e-01 7.285839e-17
	endloop
endfacet
facet normal -9.773230e-01 -5.617544e-17 2.117539e-01
	outer loop
		vertex -2.051787e-01 -3.893022e-01 7.285839e-17
		vertex -2.051787e-01 -3.903096e-01 -5.551115e-17
		vertex -2.051787e-01 -8.731926e-01 -5.551115e-17
	endloop
endfacet
facet normal -8.506508e-01 -2.971277e-14 5.257311e-01
	outer loop
		vertex -2.051787e-01 -3.893022e-01 -5.551115e-17
		vertex -1.938869e-01 -3.632682e-01 1.827044e-02
		vertex -1.940672e-01 -3.627918e-01 1.797882e-02
	endloop
endfacet
facet normal 8.506508e-01 4.142806e-14 -5.257311e-01
	outer loop
		vertex -1.940672e-01 -3.627918e-01 1.797882e-02
		vertex -2.051787e-01 -3.893022e-01 -5.551115e-17
		vertex -2.051787e-01 -3.884664e-01 1.040834e-17
	endloop
endfacet
facet normal -9.999997e-01 5.735921e-17 -7.272755e-04
	outer loop
		vertex -2.051787e-01 -3.884664e-01 1.040834e-17
		vertex -2.051787e-01 -3.893022e-01 -5.551115e-17
		vertex -2.051787e-01 -8.731926e-01 -5.551115e-17
	endloop
endfacet
facet normal 8.506508e-01 -2.137454e-15 -5.257311e-01
	outer loop
		vertex -2.051787e-01 -3.640549e-01 0.000000e+00
		vertex -1.991738e-01 -3.492940e-01 9.716175e-03
		vertex -1.963445e-01 -3.567723e-01 1.429398e-02
	endloop
endfacet
facet normal -8.506508e-01 2.119097e-15 5.257311e-01
	outer loop
		vertex -1.963445e-01 -3.567723e-01 1.429398e-02
		vertex -2.051787e-01 -3.640549e-01 0.000000e+00
		vertex -2.051787e-01 -3.777564e-01 9.887924e-17
	endloop
endfacet
facet normal -9.656517e-01 -8.097265e-17 2.598399e-01
	outer loop
		vertex -2.051787e-01 -3.777564e-01 9.887924e-17
		vertex -2.051787e-01 -3.640549e-01 0.000000e+00
		vertex -2.051787e-01 -8.731926e-01 -5.551115e-17
	endloop
endfacet
facet normal 8.506508e-01 3.669562e-15 -5.257311e-01
	outer loop
		vertex -2.051787e-01 -3.777564e-01 0.000000e+00
		vertex -1.963445e-01 -3.567723e-01 1.429398e-02
		vertex -1.940672e-01 -3.627918e-01 1.797882e-02
	endloop
endfacet
facet normal -8.506508e-01 -4.310769e-15 5.257311e-01
	outer loop
		vertex -1.940672e-01 -3.627918e-01 1.797882e-02
		vertex -2.051787e-01 -3.777564e-01 0.000000e+00
		vertex -2.051787e-01 -3.884664e-01 3.469447e-18
	endloop
endfacet
facet normal -8.473058e-02 -1.163889e-16 9.964039e-01
	outer loop
		vertex -2.051787e-01 -3.884664e-01 3.469447e-18
		vertex -2.051787e-01 -3.777564e-01 0.000000e+00
		vertex -2.051787e-01 -8.731926e-01 -5.551115e-17
	endloop
endfacet
facet normal -8.506508e-01 -3.046956e-15 5.257311e-01
	outer loop
		vertex -2.051787e-01 -3.640549e-01 0.000000e+00
		vertex -1.991738e-01 -3.492940e-01 9.716175e-03
		vertex -2.008913e-01 -3.447542e-01 6.937118e-03
	endloop
endfacet
facet normal 8.506508e-01 2.772818e-15 -5.257311e-01
	outer loop
		vertex -2.008913e-01 -3.447542e-01 6.937118e-03
		vertex -2.051787e-01 -3.640549e-01 0.000000e+00
		vertex -2.051787e-01 -3.555143e-01 9.020562e-17
	endloop
endfacet
facet normal -9.534930e-01 -8.484277e-17 3.014153e-01
	outer loop
		vertex -2.051787e-01 -3.555143e-01 9.020562e-17
		vertex -2.051787e-01 -3.640549e-01 0.000000e+00
		vertex -2.051787e-01 -8.731926e-01 -5.551115e-17
	endloop
endfacet
facet normal -8.506508e-01 -1.627895e-14 5.257311e-01
	outer loop
		vertex -2.051787e-01 -3.555143e-01 -5.551115e-17
		vertex -2.008913e-01 -3.447542e-01 6.937118e-03
		vertex -2.016937e-01 -3.426334e-01 5.638878e-03
	endloop
endfacet
facet normal 8.506508e-01 2.006987e-14 -5.257311e-01
	outer loop
		vertex -2.016937e-01 -3.426334e-01 5.638878e-03
		vertex -2.051787e-01 -3.555143e-01 -5.551115e-17
		vertex -2.051787e-01 -3.514651e-01 5.377643e-17
	endloop
endfacet
facet normal -9.687699e-01 5.194108e-17 -2.479613e-01
	outer loop
		vertex -2.051787e-01 -3.514651e-01 5.377643e-17
		vertex -2.051787e-01 -3.555143e-01 -5.551115e-17
		vertex -2.051787e-01 -8.731926e-01 -5.551115e-17
	endloop
endfacet
facet normal 8.506508e-01 2.761738e-14 -5.257311e-01
	outer loop
		vertex -2.051787e-01 -3.506314e-01 0.000000e+00
		vertex -2.018579e-01 -3.421993e-01 5.373105e-03
		vertex -2.017455e-01 -3.424964e-01 5.555025e-03
	endloop
endfacet
facet normal -8.506508e-01 -9.089020e-16 5.257311e-01
	outer loop
		vertex -2.017455e-01 -3.424964e-01 5.555025e-03
		vertex -2.051787e-01 -3.506314e-01 0.000000e+00
		vertex -2.051787e-01 -3.512022e-01 8.933826e-17
	endloop
endfacet
facet normal -8.498039e-01 -1.462670e-16 5.270989e-01
	outer loop
		vertex -2.051787e-01 -3.512022e-01 8.933826e-17
		vertex -2.051787e-01 -3.506314e-01 0.000000e+00
		vertex -2.051787e-01 -8.731926e-01 -5.551115e-17
	endloop
endfacet
facet normal 8.506508e-01 5.992495e-14 -5.257311e-01
	outer loop
		vertex -2.051787e-01 -3.512022e-01 5.551115e-17
		vertex -2.017455e-01 -3.424964e-01 5.555025e-03
		vertex -2.016937e-01 -3.426334e-01 5.638878e-03
	endloop
endfacet
facet normal -8.506508e-01 -9.333190e-14 5.257311e-01
	outer loop
		vertex -2.016937e-01 -3.426334e-01 5.638878e-03
		vertex -2.051787e-01 -3.512022e-01 5.551115e-17
		vertex -2.051787e-01 -3.514651e-01 5.377643e-17
	endloop
endfacet
facet normal 6.040565e-02 -2.090900e-16 9.981739e-01
	outer loop
		vertex -2.051787e-01 -3.514651e-01 5.377643e-17
		vertex -2.051787e-01 -3.512022e-01 5.551115e-17
		vertex -2.051787e-01 -8.731926e-01 -5.551115e-17
	endloop
endfacet
facet normal 8.506508e-01 -5.538736e-15 -5.257311e-01
	outer loop
		vertex -2.051787e-01 -3.359334e-01 -5.551115e-17
		vertex -2.047022e-01 -3.346812e-01 7.709516e-04
		vertex -2.027175e-01 -3.399272e-01 3.982254e-03
	endloop
endfacet
facet normal -8.506508e-01 4.879468e-15 5.257311e-01
	outer loop
		vertex -2.027175e-01 -3.399272e-01 3.982254e-03
		vertex -2.051787e-01 -3.359334e-01 -5.551115e-17
		vertex -2.051787e-01 -3.462419e-01 4.076600e-17
	endloop
endfacet
facet normal -1.000000e+00 0.000000e+00 -0.000000e+00
	outer loop
		vertex -2.051787e-01 -3.462419e-01 4.076600e-17
		vertex -2.051787e-01 -3.359334e-01 -5.551115e-17
		vertex -2.051787e-01 -8.731926e-01 -5.551115e-17
	endloop
endfacet
facet normal 8.506508e-01 -1.406238e-14 -5.257311e-01
	outer loop
		vertex -2.051787e-01 -3.462419e-01 -5.551115e-17
		vertex -2.027175e-01 -3.399272e-01 3.982254e-03
		vertex -2.018579e-01 -3.421993e-01 5.373105e-03
	endloop
endfacet
facet normal -8.506508e-01 1.942977e-14 5.257311e-01
	outer loop
		vertex -2.018579e-01 -3.421993e-01 5.373105e-03
		vertex -2.051787e-01 -3.462419e-01 -5.551115e-17
		vertex -2.051787e-01 -3.506314e-01 6.158268e-17
	endloop
endfacet
facet normal -9.734674e-01 5.127453e-17 -2.288257e-01
	outer loop
		vertex -2.051787e-01 -3.506314e-01 6.158268e-17
		vertex -2.051787e-01 -3.462419e-01 -5.551115e-17
		vertex -2.051787e-01 -8.731926e-01 -5.551115e-17
	endloop
endfacet
facet normal 5.563026e-17 -5.220944e-01 -8.528877e-01
	outer loop
		vertex -2.051787e-01 -3.334218e-01 2.198305e-17
		vertex 7.421351e-02 -3.334218e-01 -2.775558e-17
		vertex -2.051741e-01 -3.334339e-01 7.427359e-06
	endloop
endfacet
facet normal -2.118327e-01 4.507011e-01 8.671767e-01
	outer loop
		vertex -2.051741e-01 -3.334339e-01 7.427359e-06
		vertex -2.051787e-01 -3.334218e-01 -8.786896e-20
		vertex -2.051787e-01 -3.334218e-01 2.198305e-17
	endloop
endfacet
facet normal 1.927260e-17 -5.220944e-01 -8.528877e-01
	outer loop
		vertex -2.051787e-01 -3.334218e-01 -8.786896e-20
		vertex 7.421351e-02 -3.334218e-01 -2.775558e-17
		vertex -2.051741e-01 -3.334339e-01 7.427359e-06
	endloop
endfacet
facet normal -2.118327e-01 4.507011e-01 8.671767e-01
	outer loop
		vertex -2.051741e-01 -3.334339e-01 7.427359e-06
		vertex -2.051787e-01 -3.334218e-01 -8.786896e-20
		vertex -2.051787e-01 -3.334218e-01 2.198305e-17
	endloop
endfacet
facet normal -6.223960e-01 1.443758e-16 -7.827025e-01
	outer loop
		vertex -2.051787e-01 -3.334218e-01 2.198305e-17
		vertex -2.051787e-01 -3.334218e-01 -8.786896e-20
		vertex -2.051787e-01 -8.731926e-01 -5.551115e-17
	endloop
endfacet
facet normal -8.506508e-01 2.596721e-14 5.257311e-01
	outer loop
		vertex -2.051787e-01 -3.334218e-01 2.198305e-17
		vertex -2.051787e-01 -3.334461e-01 2.318160e-17
		vertex -2.051741e-01 -3.334339e-01 7.427359e-06
	endloop
endfacet
facet normal 9.999995e-01 -5.127198e-17 -1.038051e-03
	outer loop
		vertex -2.051787e-01 -3.334218e-01 2.198305e-17
		vertex -2.051787e-01 -3.334461e-01 2.318160e-17
		vertex -2.051787e-01 -8.731926e-01 -5.551115e-17
	endloop
endfacet
facet normal -9.115309e-01 -1.008037e-01 3.986853e-01
	outer loop
		vertex -2.051787e-01 -3.334218e-01 2.198305e-17
		vertex -2.051787e-01 -3.334218e-01 -5.551115e-17
		vertex -2.051741e-01 -3.334339e-01 7.427359e-06
	endloop
endfacet
facet normal -9.414372e-01 0.000000e+00 3.371882e-01
	outer loop
		vertex -2.051787e-01 -3.334218e-01 2.198305e-17
		vertex -2.051787e-01 -3.334218e-01 -5.551115e-17
		vertex -2.051787e-01 -8.731926e-01 -5.551115e-17
	endloop
endfacet
facet normal 8.506508e-01 -7.319315e-13 -5.257311e-01
	outer loop
		vertex -2.051787e-01 -3.334461e-01 2.318160e-17
		vertex -2.051787e-01 -3.334218e-01 -5.551115e-17
		vertex -2.051741e-01 -3.334339e-01 7.427359e-06
	endloop
endfacet
facet normal -9.430593e-01 0.000000e+00 3.326247e-01
	outer loop
		vertex -2.051787e-01 -3.334461e-01 2.318160e-17
		vertex -2.051787e-01 -3.334218e-01 -5.551115e-17
		vertex -2.051787e-01 -8.731926e-01 -5.551115e-17
	endloop
endfacet
facet normal 8.506508e-01 8.709425e-13 -5.257311e-01
	outer loop
		vertex -2.051787e-01 -3.334461e-01 -5.551115e-17
		vertex -2.051741e-01 -3.334339e-01 7.427359e-06
		vertex -2.051675e-01 -3.334515e-01 1.816782e-05
	endloop
endfacet
facet normal -8.506508e-01 -6.067164e-13 5.257311e-01
	outer loop
		vertex -2.051675e-01 -3.334515e-01 1.816782e-05
		vertex -2.051787e-01 -3.334461e-01 -5.551115e-17
		vertex -2.051787e-01 -3.334812e-01 -6.186729e-18
	endloop
endfacet
facet normal -6.642222e-01 0.000000e+00 7.475352e-01
	outer loop
		vertex -2.051787e-01 -3.334812e-01 -6.186729e-18
		vertex -2.051787e-01 -3.334461e-01 -5.551115e-17
		vertex -2.051787e-01 -8.731926e-01 -5.551115e-17
	endloop
endfacet
facet normal -8.506508e-01 -3.288998e-12 5.257311e-01
	outer loop
		vertex 0.000000e+00 -9.997931e-01 -3.319861e-01
		vertex 1.653408e-18 -9.997935e-01 -3.319861e-01
		vertex 1.681436e-04 -9.998961e-01 -3.317140e-01
	endloop
endfacet
facet normal -8.506508e-01 -3.288998e-12 -5.257311e-01
	outer loop
		vertex 0.000000e+00 -9.997931e-01 -3.319861e-01
		vertex 1.653408e-18 -9.997935e-01 -3.319861e-01
		vertex -2.051787e-01 -8.731926e-01 -5.551115e-17
	endloop
endfacet
facet normal 8.506508e-01 -5.906698e-09 -5.257311e-01
	outer loop
		vertex 0.000000e+00 -9.997931e-01 -3.319861e-01
		vertex 1.599198e-18 -9.997931e-01 -3.319861e-01
		vertex 1.681436e-04 -9.998961e-01 -3.317140e-01
	endloop
endfacet
facet normal 8.506508e-01 -5.906698e-09 5.257311e-01
	outer loop
		vertex 0.000000e+00 -9.997931e-01 -3.319861e-01
		vertex 1.599198e-18 -9.997931e-01 -3.319861e-01
		vertex -2.051787e-01 -8.731926e-01 -5.551115e-17
	endloop
endfacet
facet normal -8.506508e-01 -5.820811e-14 5.257311e-01
	outer loop
		vertex 2.081668e-17 -9.995714e-01 -3.319861e-01
		vertex 1.680513e-18 -9.997931e-01 -3.319861e-01
		vertex 1.681436e-04 -9.998961e-01 -3.317140e-01
	endloop
endfacet
facet normal -8.506508e-01 2.050455e-13 -5.257311e-01
	outer loop
		vertex 2.081668e-17 -9.995714e-01 -3.319861e-01
		vertex 1.680513e-18 -9.997931e-01 -3.319861e-01
		vertex -2.051787e-01 -8.731926e-01 -5.551115e-17
	endloop
endfacet
facet normal 8.506508e-01 -1.326560e-12 -5.257311e-01
	outer loop
		vertex -3.469447e-18 -9.995714e-01 -3.319861e-01
		vertex 1.761829e-18 -9.995680e-01 -3.319861e-01
		vertex 1.681436e-04 -9.998961e-01 -3.317140e-01
	endloop
endfacet
facet normal 8.506508e-01 -1.326560e-12 5.257311e-01
	outer loop
		vertex -3.469447e-18 -9.995714e-01 -3.319861e-01
		vertex 1.761829e-18 -9.995680e-01 -3.319861e-01
		vertex -2.051787e-01 -8.731926e-01 -5.551115e-17
	endloop
endfacet
facet normal 8.506508e-01 -5.843046e-13 -5.257311e-01
	outer loop
		vertex -1.734723e-17 -9.995360e-01 -3.319861e-01
		vertex 2.032879e-18 -9.995078e-01 -3.319861e-01
		vertex 1.681436e-04 -9.998961e-01 -3.317140e-01
	endloop
endfacet
facet normal 8.506508e-01 -5.843046e-13 5.257311e-01
	outer loop
		vertex -1.734723e-17 -9.995360e-01 -3.319861e-01
		vertex 2.032879e-18 -9.995078e-01 -3.319861e-01
		vertex -2.051787e-01 -8.731926e-01 -5.551115e-17
	endloop
endfacet
facet normal 8.506508e-01 -1.050678e-12 -5.257311e-01
	outer loop
		vertex -1.387779e-17 -9.995486e-01 -3.319861e-01
		vertex 1.653408e-18 -9.995360e-01 -3.319861e-01
		vertex 1.681436e-04 -9.998961e-01 -3.317140e-01
	endloop
endfacet
facet normal 8.506508e-01 -1.050678e-12 5.257311e-01
	outer loop
		vertex -1.387779e-17 -9.995486e-01 -3.319861e-01
		vertex 1.653408e-18 -9.995360e-01 -3.319861e-01
		vertex -2.051787e-01 -8.731926e-01 -5.551115e-17
	endloop
endfacet
facet normal -8.506508e-01 -2.455775e-12 5.257311e-01
	outer loop
		vertex 0.000000e+00 -9.995486e-01 -3.319861e-01
		vertex 1.734723e-18 -9.995492e-01 -3.319861e-01
		vertex 1.681436e-04 -9.998961e-01 -3.317140e-01
	endloop
endfacet
facet normal -8.506508e-01 -2.455775e-12 -5.257311e-01
	outer loop
		vertex 0.000000e+00 -9.995486e-01 -3.319861e-01
		vertex 1.734723e-18 -9.995492e-01 -3.319861e-01
		vertex -2.051787e-01 -8.731926e-01 -5.551115e-17
	endloop
endfacet
facet normal -8.506508e-01 -4.245088e-13 5.257311e-01
	outer loop
		vertex -6.938894e-18 -9.995502e-01 -3.319861e-01
		vertex 1.951564e-18 -9.995680e-01 -3.319861e-01
		vertex 1.681436e-04 -9.998961e-01 -3.317140e-01
	endloop
endfacet
facet normal -8.506508e-01 -4.245088e-13 -5.257311e-01
	outer loop
		vertex -6.938894e-18 -9.995502e-01 -3.319861e-01
		vertex 1.951564e-18 -9.995680e-01 -3.319861e-01
		vertex -2.051787e-01 -8.731926e-01 -5.551115e-17
	endloop
endfacet
facet normal 8.506508e-01 -7.314796e-12 -5.257311e-01
	outer loop
		vertex -6.938894e-18 -9.995502e-01 -3.319861e-01
		vertex 1.436568e-18 -9.995492e-01 -3.319861e-01
		vertex 1.681436e-04 -9.998961e-01 -3.317140e-01
	endloop
endfacet
facet normal 8.506508e-01 -7.314796e-12 5.257311e-01
	outer loop
		vertex -6.938894e-18 -9.995502e-01 -3.319861e-01
		vertex 1.436568e-18 -9.995492e-01 -3.319861e-01
		vertex -2.051787e-01 -8.731926e-01 -5.551115e-17
	endloop
endfacet
facet normal -8.506508e-01 1.920794e-15 5.257311e-01
	outer loop
		vertex 5.204170e-18 -9.949919e-01 -3.319861e-01
		vertex 2.764716e-18 -9.960723e-01 -3.319861e-01
		vertex 1.681436e-04 -9.998961e-01 -3.317140e-01
	endloop
endfacet
facet normal -8.506508e-01 1.920794e-15 -5.257311e-01
	outer loop
		vertex 5.204170e-18 -9.949919e-01 -3.319861e-01
		vertex 2.764716e-18 -9.960723e-01 -3.319861e-01
		vertex -2.051787e-01 -8.731926e-01 -5.551115e-17
	endloop
endfacet
facet normal 8.506508e-01 1.177559e-15 -5.257311e-01
	outer loop
		vertex 5.204170e-18 -9.949919e-01 -3.319861e-01
		vertex -4.336809e-19 -9.909192e-01 -3.319861e-01
		vertex 1.681436e-04 -9.998961e-01 -3.317140e-01
	endloop
endfacet
facet normal 8.506508e-01 1.177559e-15 5.257311e-01
	outer loop
		vertex 5.204170e-18 -9.949919e-01 -3.319861e-01
		vertex -4.336809e-19 -9.909192e-01 -3.319861e-01
		vertex -2.051787e-01 -8.731926e-01 -5.551115e-17
	endloop
endfacet
facet normal -9.343105e-01 -3.467644e-01 8.257334e-02
	outer loop
		vertex 6.938894e-18 -9.995078e-01 -3.319861e-01
		vertex 2.032879e-18 -9.995078e-01 -3.319861e-01
		vertex 1.681436e-04 -9.998961e-01 -3.317140e-01
	endloop
endfacet
facet normal 4.737876e-01 8.796431e-01 -4.187283e-02
	outer loop
		vertex 6.938894e-18 -9.995078e-01 -3.319861e-01
		vertex 2.032879e-18 -9.995078e-01 -3.319861e-01
		vertex -2.051787e-01 -8.731926e-01 -5.551115e-17
	endloop
endfacet
facet normal -8.506508e-01 -6.485215e-14 5.257311e-01
	outer loop
		vertex 1.040834e-17 -9.991719e-01 -3.319861e-01
		vertex 1.707618e-18 -9.995078e-01 -3.319861e-01
		vertex 1.681436e-04 -9.998961e-01 -3.317140e-01
	endloop
endfacet
facet normal -8.506508e-01 1.089229e-13 -5.257311e-01
	outer loop
		vertex 1.040834e-17 -9.991719e-01 -3.319861e-01
		vertex 1.707618e-18 -9.995078e-01 -3.319861e-01
		vertex -2.051787e-01 -8.731926e-01 -5.551115e-17
	endloop
endfacet
facet normal 8.506508e-01 -5.688865e-13 -5.257311e-01
	outer loop
		vertex 1.040834e-17 -9.991719e-01 -3.319861e-01
		vertex 1.463673e-18 -9.991340e-01 -3.319861e-01
		vertex 1.681436e-04 -9.998961e-01 -3.317140e-01
	endloop
endfacet
facet normal 8.506508e-01 9.701385e-13 5.257311e-01
	outer loop
		vertex 1.040834e-17 -9.991719e-01 -3.319861e-01
		vertex 1.463673e-18 -9.991340e-01 -3.319861e-01
		vertex -2.051787e-01 -8.731926e-01 -5.551115e-17
	endloop
endfacet
facet normal 8.506508e-01 -6.444268e-15 -5.257311e-01
	outer loop
		vertex 1.387779e-17 -9.991340e-01 -3.319861e-01
		vertex 2.764716e-18 -9.960723e-01 -3.319861e-01
		vertex 1.681436e-04 -9.998961e-01 -3.317140e-01
	endloop
endfacet
facet normal 8.506508e-01 1.261944e-14 5.257311e-01
	outer loop
		vertex 1.387779e-17 -9.991340e-01 -3.319861e-01
		vertex 2.764716e-18 -9.960723e-01 -3.319861e-01
		vertex -2.051787e-01 -8.731926e-01 -5.551115e-17
	endloop
endfacet
facet normal 1.881925e-16 -5.220944e-01 8.528877e-01
	outer loop
		vertex -2.051787e-01 -3.334218e-01 -8.786896e-20
		vertex -9.186567e-04 -8.733225e-01 -3.304997e-01
		vertex 7.421351e-02 -3.334218e-01 -2.775558e-17
	endloop
endfacet
facet normal -8.506508e-01 1.414644e-16 -5.257311e-01
	outer loop
		vertex -2.051787e-01 -3.334218e-01 -8.786896e-20
		vertex -9.186567e-04 -8.733225e-01 -3.304997e-01
		vertex -2.051787e-01 -8.731926e-01 -5.551115e-17
	endloop
endfacet
facet normal -6.852131e-16 5.220944e-01 -8.528877e-01
	outer loop
		vertex -9.186567e-04 -8.733225e-01 -3.304997e-01
		vertex 7.421351e-02 -3.334218e-01 -2.775558e-17
		vertex 4.862227e-02 -7.472322e-01 -2.533136e-01
	endloop
endfacet
facet normal 1.879726e-14 5.220944e-01 -8.528877e-01
	outer loop
		vertex 4.862227e-02 -7.472322e-01 -2.533136e-01
		vertex -2.125036e-17 -8.757507e-01 -3.319861e-01
		vertex -9.186567e-04 -8.733225e-01 -3.304997e-01
	endloop
endfacet
facet normal -8.506508e-01 -4.310649e-15 -5.257311e-01
	outer loop
		vertex -9.186567e-04 -8.733225e-01 -3.304997e-01
		vertex -2.125036e-17 -8.757507e-01 -3.319861e-01
		vertex -2.051787e-01 -8.731926e-01 -5.551115e-17
	endloop
endfacet
facet normal 8.506508e-01 3.391749e-16 -5.257311e-01
	outer loop
		vertex -2.125036e-17 -8.757507e-01 -3.319861e-01
		vertex 4.862227e-02 -7.472322e-01 -2.533136e-01
		vertex 1.681436e-04 -9.998961e-01 -3.317140e-01
	endloop
endfacet
facet normal 8.506508e-01 3.825711e-16 -5.257311e-01
	outer loop
		vertex 1.681436e-04 -9.998961e-01 -3.317140e-01
		vertex -3.903128e-18 -9.906231e-01 -3.319861e-01
		vertex -2.125036e-17 -8.757507e-01 -3.319861e-01
	endloop
endfacet
facet normal -8.506508e-01 1.255958e-16 -5.257311e-01
	outer loop
		vertex -2.125036e-17 -8.757507e-01 -3.319861e-01
		vertex -3.903128e-18 -9.906231e-01 -3.319861e-01
		vertex -2.051787e-01 -8.731926e-01 -5.551115e-17
	endloop
endfacet
facet normal -8.506508e-01 2.616382e-14 5.257311e-01
	outer loop
		vertex 8.673617e-18 -9.906231e-01 -3.319861e-01
		vertex -4.336809e-19 -9.909192e-01 -3.319861e-01
		vertex 1.681436e-04 -9.998961e-01 -3.317140e-01
	endloop
endfacet
facet normal -8.506508e-01 2.616382e-14 -5.257311e-01
	outer loop
		vertex 8.673617e-18 -9.906231e-01 -3.319861e-01
		vertex -4.336809e-19 -9.909192e-01 -3.319861e-01
		vertex -2.051787e-01 -8.731926e-01 -5.551115e-17
	endloop
endfacet
facet normal 0.000000e+00 0.000000e+00 0.000000e+00
	outer loop
		vertex 0.000000e+00 -1.000000e+00 -3.319861e-01
		vertex 0.000000e+00 -1.000000e+00 -3.319861e-01
		vertex -2.051787e-01 -8.731926e-01 -5.551115e-17
	endloop
endfacet
facet normal 0.000000e+00 9.341723e-01 -3.568221e-01
	outer loop
		vertex 4.553649e-18 -1.000000e+00 -3.319861e-01
		vertex 0.000000e+00 -1.000000e+00 -3.319861e-01
		vertex -2.051787e-01 -8.731926e-01 -5.551115e-17
	endloop
endfacet
facet normal 0.000000e+00 0.000000e+00 0.000000e+00
	outer loop
		vertex 4.553649e-18 -1.000000e+00 -3.319861e-01
		vertex 4.553649e-18 -1.000000e+00 -3.319861e-01
		vertex -2.051787e-01 -8.731926e-01 -5.551115e-17
	endloop
endfacet
facet normal -5.257311e-01 -8.506508e-01 -2.646583e-17
	outer loop
		vertex -2.051787e-01 -8.731926e-01 5.551115e-17
		vertex -2.452105e-02 -9.848452e-01 -2.923102e-01
		vertex -1.443419e-02 -9.910792e-01 3.086311e-01
	endloop
endfacet
facet normal 8.451542e-01 3.779645e-01 3.779645e-01
	outer loop
		vertex -2.051787e-01 -8.731926e-01 5.551115e-17
		vertex -2.452105e-02 -9.848452e-01 -2.923102e-01
		vertex -2.051787e-01 -8.731926e-01 -5.551115e-17
	endloop
endfacet
facet normal -5.257311e-01 -8.506508e-01 -2.390388e-17
	outer loop
		vertex -2.452105e-02 -9.848452e-01 -2.923102e-01
		vertex -1.081196e-03 -9.993318e-01 -3.302367e-01
		vertex -1.443419e-02 -9.910792e-01 3.086311e-01
	endloop
endfacet
facet normal 3.123475e-01 9.370426e-01 -1.561738e-01
	outer loop
		vertex -2.452105e-02 -9.848452e-01 -2.923102e-01
		vertex -1.081196e-03 -9.993318e-01 -3.302367e-01
		vertex -2.051787e-01 -8.731926e-01 -5.551115e-17
	endloop
endfacet
facet normal -8.506508e-01 -5.479113e-13 5.257311e-01
	outer loop
		vertex 1.387779e-17 -9.997935e-01 -3.319861e-01
		vertex -2.195509e-18 -9.998218e-01 -3.319861e-01
		vertex 1.681436e-04 -9.998961e-01 -3.317140e-01
	endloop
endfacet
facet normal -8.506508e-01 1.513855e-12 -5.257311e-01
	outer loop
		vertex 1.387779e-17 -9.997935e-01 -3.319861e-01
		vertex -2.195509e-18 -9.998218e-01 -3.319861e-01
		vertex -2.051787e-01 -8.731926e-01 -5.551115e-17
	endloop
endfacet
facet normal 0.000000e+00 0.000000e+00 0.000000e+00
	outer loop
		vertex 0.000000e+00 -1.000000e+00 -3.319861e-01
		vertex 0.000000e+00 -1.000000e+00 -3.319861e-01
		vertex -2.051787e-01 -8.731926e-01 -5.551115e-17
	endloop
endfacet
facet normal 0.000000e+00 0.000000e+00 0.000000e+00
	outer loop
		vertex 0.000000e+00 -1.000000e+00 -3.319861e-01
		vertex 0.000000e+00 -1.000000e+00 -3.319861e-01
		vertex -2.051787e-01 -8.731926e-01 -5.551115e-17
	endloop
endfacet
facet normal 5.257311e-01 8.506508e-01 -3.174339e-17
	outer loop
		vertex -1.081196e-03 -9.993318e-01 -3.302367e-01
		vertex -1.443419e-02 -9.910792e-01 3.086311e-01
		vertex 0.000000e+00 -1.000000e+00 3.319861e-01
	endloop
endfacet
facet normal 5.257311e-01 8.506508e-01 3.745648e-16
	outer loop
		vertex 0.000000e+00 -1.000000e+00 3.319861e-01
		vertex -1.005508e-03 -9.993786e-01 -3.303591e-01
		vertex -1.081196e-03 -9.993318e-01 -3.302367e-01
	endloop
endfacet
facet normal -4.096005e-01 -9.074621e-01 9.348750e-02
	outer loop
		vertex -1.081196e-03 -9.993318e-01 -3.302367e-01
		vertex -1.005508e-03 -9.993786e-01 -3.303591e-01
		vertex -2.051787e-01 -8.731926e-01 -5.551115e-17
	endloop
endfacet
facet normal 5.257311e-01 8.506508e-01 0.000000e+00
	outer loop
		vertex -1.005508e-03 -9.993786e-01 -3.303591e-01
		vertex 0.000000e+00 -1.000000e+00 3.319861e-01
		vertex 0.000000e+00 -1.000000e+00 -3.319861e-01
	endloop
endfacet
facet normal 0.000000e+00 -9.341723e-01 3.568221e-01
	outer loop
		vertex 0.000000e+00 -1.000000e+00 -3.319861e-01
		vertex -1.005508e-03 -9.993786e-01 -3.303591e-01
		vertex -1.389002e-17 -1.000000e+00 -3.319861e-01
	endloop
endfacet
facet normal 1.667239e-01 -8.891939e-01 4.260721e-01
	outer loop
		vertex -1.389002e-17 -1.000000e+00 -3.319861e-01
		vertex -1.005508e-03 -9.993786e-01 -3.303591e-01
		vertex -2.051787e-01 -8.731926e-01 -5.551115e-17
	endloop
endfacet
facet normal 0.000000e+00 -9.341723e-01 3.568221e-01
	outer loop
		vertex -1.389002e-17 -1.000000e+00 -3.319861e-01
		vertex 0.000000e+00 -1.000000e+00 -3.319861e-01
		vertex 1.681436e-04 -9.998961e-01 -3.317140e-01
	endloop
endfacet
facet normal -8.506508e-01 2.313071e-13 5.257311e-01
	outer loop
		vertex 1.681436e-04 -9.998961e-01 -3.317140e-01
		vertex 2.710505e-19 -9.998218e-01 -3.319861e-01
		vertex -1.389002e-17 -1.000000e+00 -3.319861e-01
	endloop
endfacet
facet normal 8.506508e-01 9.617926e-14 5.257311e-01
	outer loop
		vertex -1.389002e-17 -1.000000e+00 -3.319861e-01
		vertex 2.710505e-19 -9.998218e-01 -3.319861e-01
		vertex -2.051787e-01 -8.731926e-01 -5.551115e-17
	endloop
endfacet
facet normal 5.257311e-01 8.506508e-01 -3.174339e-17
	outer loop
		vertex -1.081196e-03 -9.993318e-01 -3.302367e-01
		vertex -1.443419e-02 -9.910792e-01 3.086311e-01
		vertex 0.000000e+00 -1.000000e+00 3.319861e-01
	endloop
endfacet
facet normal 5.257311e-01 8.506508e-01 3.745648e-16
	outer loop
		vertex 0.000000e+00 -1.000000e+00 3.319861e-01
		vertex -1.005508e-03 -9.993786e-01 -3.303591e-01
		vertex -1.081196e-03 -9.993318e-01 -3.302367e-01
	endloop
endfacet
facet normal -4.096005e-01 -9.074621e-01 9.348750e-02
	outer loop
		vertex -1.081196e-03 -9.993318e-01 -3.302367e-01
		vertex -1.005508e-03 -9.993786e-01 -3.303591e-01
		vertex -2.051787e-01 -8.731926e-01 -5.551115e-17
	endloop
endfacet
facet normal 5.257311e-01 8.506508e-01 0.000000e+00
	outer loop
		vertex -1.005508e-03 -9.993786e-01 -3.303591e-01
		vertex 0.000000e+00 -1.000000e+00 3.319861e-01
		vertex 0.000000e+00 -1.000000e+00 -3.319861e-01
	endloop
endfacet
facet normal 0.000000e+00 -9.341723e-01 3.568221e-01
	outer loop
		vertex 0.000000e+00 -1.000000e+00 -3.319861e-01
		vertex -1.005508e-03 -9.993786e-01 -3.303591e-01
		vertex -1.389002e-17 -1.000000e+00 -3.319861e-01
	endloop
endfacet
facet normal 1.667239e-01 -8.891939e-01 4.260721e-01
	outer loop
		vertex -1.389002e-17 -1.000000e+00 -3.319861e-01
		vertex -1.005508e-03 -9.993786e-01 -3.303591e-01
		vertex -2.051787e-01 -8.731926e-01 -5.551115e-17
	endloop
endfacet
facet normal 0.000000e+00 -9.341723e-01 3.568221e-01
	outer loop
		vertex -1.389002e-17 -1.000000e+00 -3.319861e-01
		vertex 0.000000e+00 -1.000000e+00 -3.319861e-01
		vertex 1.681436e-04 -9.998961e-01 -3.317140e-01
	endloop
endfacet
facet normal -8.506508e-01 2.313071e-13 5.257311e-01
	outer loop
		vertex 1.681436e-04 -9.998961e-01 -3.317140e-01
		vertex 2.710505e-19 -9.998218e-01 -3.319861e-01
		vertex -1.389002e-17 -1.000000e+00 -3.319861e-01
	endloop
endfacet
facet normal 8.506508e-01 9.617926e-14 5.257311e-01
	outer loop
		vertex -1.389002e-17 -1.000000e+00 -3.319861e-01
		vertex 2.710505e-19 -9.998218e-01 -3.319861e-01
		vertex -2.051787e-01 -8.731926e-01 -5.551115e-17
	endloop
endfacet
endsolid MIKE666
