solid MIKE666
facet normal 8.506508e-01 -4.513358e-16 -5.257311e-01
	outer loop
		vertex 3.974107e-01 3.501404e-02 -9.750100e-01
		vertex 3.974107e-01 1.031563e-02 -9.750100e-01
		vertex 3.819660e-01 0.000000e+00 -1.000000e+00
	endloop
endfacet
facet normal -8.506508e-01 -1.447120e-14 5.257311e-01
	outer loop
		vertex 3.974107e-01 9.545327e-03 -9.750100e-01
		vertex 3.974107e-01 1.031563e-02 -9.750100e-01
		vertex 3.819660e-01 0.000000e+00 -1.000000e+00
	endloop
endfacet
facet normal 0.000000e+00 -5.257311e-01 -8.506508e-01
	outer loop
		vertex 3.974107e-01 -4.043462e-02 -9.750100e-01
		vertex 3.319861e-01 0.000000e+00 -1.000000e+00
		vertex 3.819660e-01 0.000000e+00 -1.000000e+00
	endloop
endfacet
facet normal -8.506508e-01 -4.202285e-15 -5.257311e-01
	outer loop
		vertex 3.776400e-01 -2.821566e-02 -9.430203e-01
		vertex 3.974107e-01 3.501404e-02 -9.750100e-01
		vertex 3.974107e-01 1.031563e-02 -9.750100e-01
	endloop
endfacet
facet normal 8.506508e-01 8.264739e-15 5.257311e-01
	outer loop
		vertex 3.974107e-01 1.031563e-02 -9.750100e-01
		vertex 3.776400e-01 -2.821566e-02 -9.430203e-01
		vertex 3.834156e-01 -3.178516e-02 -9.523654e-01
	endloop
endfacet
facet normal 8.506508e-01 -1.366803e-13 5.257311e-01
	outer loop
		vertex 3.836054e-01 -3.190251e-02 -9.526727e-01
		vertex 3.974107e-01 9.545327e-03 -9.750100e-01
		vertex 3.974107e-01 1.031563e-02 -9.750100e-01
	endloop
endfacet
facet normal -8.506508e-01 1.537944e-13 -5.257311e-01
	outer loop
		vertex 3.974107e-01 1.031563e-02 -9.750100e-01
		vertex 3.836054e-01 -3.190251e-02 -9.526727e-01
		vertex 3.834156e-01 -3.178516e-02 -9.523654e-01
	endloop
endfacet
facet normal -8.506508e-01 -2.230349e-16 5.257311e-01
	outer loop
		vertex 3.974107e-01 -4.043462e-02 -9.750100e-01
		vertex 3.974107e-01 9.545327e-03 -9.750100e-01
		vertex 3.819660e-01 0.000000e+00 -1.000000e+00
	endloop
endfacet
facet normal -8.506508e-01 5.690353e-10 5.257311e-01
	outer loop
		vertex 3.819660e-01 0.000000e+00 -1.000000e+00
		vertex 3.974107e-01 -4.043462e-02 -9.750100e-01
		vertex 3.974107e-01 -4.043462e-02 -9.750100e-01
	endloop
endfacet
facet normal -8.506508e-01 9.267880e-17 5.257311e-01
	outer loop
		vertex 3.974107e-01 -4.043462e-02 -9.750100e-01
		vertex 3.974107e-01 9.545327e-03 -9.750100e-01
		vertex 3.819660e-01 0.000000e+00 -1.000000e+00
	endloop
endfacet
facet normal -8.506508e-01 5.690353e-10 5.257311e-01
	outer loop
		vertex 3.819660e-01 0.000000e+00 -1.000000e+00
		vertex 3.974107e-01 -4.043462e-02 -9.750100e-01
		vertex 3.974107e-01 -4.043462e-02 -9.750100e-01
	endloop
endfacet
facet normal -8.506508e-01 2.112617e-15 -5.257311e-01
	outer loop
		vertex 3.974107e-01 -4.043462e-02 -9.750100e-01
		vertex 3.836054e-01 -3.190251e-02 -9.526727e-01
		vertex 3.974107e-01 9.545327e-03 -9.750100e-01
	endloop
endfacet
facet normal 8.506508e-01 2.056470e-15 -5.257311e-01
	outer loop
		vertex 3.974107e-01 4.043462e-02 -9.750100e-01
		vertex 3.974107e-01 3.501404e-02 -9.750100e-01
		vertex 3.819660e-01 0.000000e+00 -1.000000e+00
	endloop
endfacet
facet normal 8.506508e-01 1.264523e-10 -5.257311e-01
	outer loop
		vertex 3.819660e-01 0.000000e+00 -1.000000e+00
		vertex 3.974107e-01 4.043462e-02 -9.750100e-01
		vertex 3.974107e-01 4.043462e-02 -9.750100e-01
	endloop
endfacet
facet normal 8.506508e-01 2.910990e-15 -5.257311e-01
	outer loop
		vertex 3.974107e-01 4.043462e-02 -9.750100e-01
		vertex 3.974107e-01 3.501404e-02 -9.750100e-01
		vertex 3.819660e-01 0.000000e+00 -1.000000e+00
	endloop
endfacet
facet normal 8.506508e-01 1.264523e-10 -5.257311e-01
	outer loop
		vertex 3.819660e-01 0.000000e+00 -1.000000e+00
		vertex 3.974107e-01 4.043462e-02 -9.750100e-01
		vertex 3.974107e-01 4.043462e-02 -9.750100e-01
	endloop
endfacet
facet normal 0.000000e+00 0.000000e+00 0.000000e+00
	outer loop
		vertex 3.974107e-01 4.043462e-02 -9.750100e-01
		vertex 3.974107e-01 4.043462e-02 -9.750100e-01
		vertex 3.974107e-01 4.043462e-02 -9.750100e-01
	endloop
endfacet
facet normal -1.951302e-14 -5.257311e-01 8.506508e-01
	outer loop
		vertex 3.974107e-01 4.043462e-02 -9.750100e-01
		vertex 3.947616e-01 3.879742e-02 -9.760219e-01
		vertex 3.819660e-01 0.000000e+00 -1.000000e+00
	endloop
endfacet
facet normal 0.000000e+00 0.000000e+00 0.000000e+00
	outer loop
		vertex 3.974107e-01 4.043462e-02 -9.750100e-01
		vertex 3.947616e-01 3.879742e-02 -9.760219e-01
		vertex 3.974107e-01 4.043462e-02 -9.750100e-01
	endloop
endfacet
facet normal 0.000000e+00 0.000000e+00 0.000000e+00
	outer loop
		vertex 3.319861e-01 0.000000e+00 -1.000000e+00
		vertex 3.319861e-01 0.000000e+00 -1.000000e+00
		vertex 3.974107e-01 4.043462e-02 -9.750100e-01
	endloop
endfacet
facet normal 8.506508e-01 -1.947916e-14 5.257311e-01
	outer loop
		vertex 3.974107e-01 4.043462e-02 -9.750100e-01
		vertex 3.776400e-01 -2.821566e-02 -9.430203e-01
		vertex 3.974107e-01 3.501404e-02 -9.750100e-01
	endloop
endfacet
facet normal -8.506508e-01 1.947916e-14 -5.257311e-01
	outer loop
		vertex 3.974107e-01 3.501404e-02 -9.750100e-01
		vertex 3.974107e-01 4.043462e-02 -9.750100e-01
		vertex 3.974107e-01 4.043462e-02 -9.750100e-01
	endloop
endfacet
facet normal 8.506508e-01 -2.297291e-14 5.257311e-01
	outer loop
		vertex 3.974107e-01 4.043462e-02 -9.750100e-01
		vertex 3.776400e-01 -2.821566e-02 -9.430203e-01
		vertex 3.974107e-01 3.501404e-02 -9.750100e-01
	endloop
endfacet
facet normal -8.506508e-01 1.947916e-14 -5.257311e-01
	outer loop
		vertex 3.974107e-01 3.501404e-02 -9.750100e-01
		vertex 3.974107e-01 4.043462e-02 -9.750100e-01
		vertex 3.974107e-01 4.043462e-02 -9.750100e-01
	endloop
endfacet
facet normal 5.257311e-01 -8.506508e-01 9.509656e-11
	outer loop
		vertex 3.974107e-01 4.043462e-02 -9.750100e-01
		vertex 3.974107e-01 4.043462e-02 -9.750100e-01
		vertex 3.974107e-01 4.043462e-02 -9.750100e-01
	endloop
endfacet
facet normal -8.506508e-01 2.484564e-14 -5.257311e-01
	outer loop
		vertex 3.974107e-01 4.043462e-02 -9.750100e-01
		vertex 3.776400e-01 -2.821566e-02 -9.430203e-01
		vertex 3.764485e-01 -2.747928e-02 -9.410925e-01
	endloop
endfacet
facet normal -8.506508e-01 -1.944469e-08 -5.257312e-01
	outer loop
		vertex 3.764485e-01 -2.747928e-02 -9.410925e-01
		vertex 3.974107e-01 4.043462e-02 -9.750100e-01
		vertex 3.974107e-01 4.043462e-02 -9.750100e-01
	endloop
endfacet
facet normal -8.506508e-01 2.366251e-14 -5.257311e-01
	outer loop
		vertex 3.974107e-01 4.043462e-02 -9.750100e-01
		vertex 3.776400e-01 -2.821566e-02 -9.430203e-01
		vertex 3.764485e-01 -2.747928e-02 -9.410925e-01
	endloop
endfacet
facet normal -8.506508e-01 -1.944469e-08 -5.257312e-01
	outer loop
		vertex 3.764485e-01 -2.747928e-02 -9.410925e-01
		vertex 3.974107e-01 4.043462e-02 -9.750100e-01
		vertex 3.974107e-01 4.043462e-02 -9.750100e-01
	endloop
endfacet
facet normal 5.257311e-01 -8.506508e-01 1.199537e-09
	outer loop
		vertex 3.974107e-01 4.043462e-02 -9.750100e-01
		vertex 3.974107e-01 4.043462e-02 -9.750100e-01
		vertex 3.974107e-01 4.043462e-02 -9.750100e-01
	endloop
endfacet
facet normal -8.506508e-01 -4.087822e-16 -5.257311e-01
	outer loop
		vertex 3.319861e-01 -2.775558e-17 -8.691508e-01
		vertex 3.949087e-01 3.888833e-02 -9.709617e-01
		vertex 3.750134e-01 -2.659233e-02 -9.387704e-01
	endloop
endfacet
facet normal -5.257311e-01 8.506508e-01 2.483064e-10
	outer loop
		vertex 3.319861e-01 -2.775558e-17 -8.691508e-01
		vertex 3.949087e-01 3.888833e-02 -9.709617e-01
		vertex 3.974107e-01 4.043462e-02 -9.750100e-01
	endloop
endfacet
facet normal -8.506508e-01 2.655832e-14 -5.257311e-01
	outer loop
		vertex 3.949087e-01 3.888833e-02 -9.709617e-01
		vertex 3.974107e-01 4.043462e-02 -9.750100e-01
		vertex 3.750134e-01 -2.659233e-02 -9.387704e-01
	endloop
endfacet
facet normal -5.257311e-01 8.506508e-01 -1.951489e-10
	outer loop
		vertex 3.949087e-01 3.888833e-02 -9.709617e-01
		vertex 3.974107e-01 4.043462e-02 -9.750100e-01
		vertex 3.974107e-01 4.043462e-02 -9.750100e-01
	endloop
endfacet
facet normal 8.506508e-01 -2.701261e-14 5.257311e-01
	outer loop
		vertex 3.974107e-01 4.043462e-02 -9.750100e-01
		vertex 3.750134e-01 -2.659233e-02 -9.387704e-01
		vertex 3.764485e-01 -2.747928e-02 -9.410925e-01
	endloop
endfacet
facet normal 8.506508e-01 8.054967e-09 5.257312e-01
	outer loop
		vertex 3.764485e-01 -2.747928e-02 -9.410925e-01
		vertex 3.974107e-01 4.043462e-02 -9.750100e-01
		vertex 3.974107e-01 4.043462e-02 -9.750100e-01
	endloop
endfacet
facet normal 8.506508e-01 -2.750375e-14 5.257311e-01
	outer loop
		vertex 3.974107e-01 4.043462e-02 -9.750100e-01
		vertex 3.750134e-01 -2.659233e-02 -9.387704e-01
		vertex 3.764485e-01 -2.747928e-02 -9.410925e-01
	endloop
endfacet
facet normal 8.506508e-01 8.054967e-09 5.257312e-01
	outer loop
		vertex 3.764485e-01 -2.747928e-02 -9.410925e-01
		vertex 3.974107e-01 4.043462e-02 -9.750100e-01
		vertex 3.974107e-01 4.043462e-02 -9.750100e-01
	endloop
endfacet
facet normal -5.257311e-01 8.506508e-01 7.036244e-11
	outer loop
		vertex 3.974107e-01 4.043462e-02 -9.750100e-01
		vertex 3.974107e-01 4.043462e-02 -9.750100e-01
		vertex 3.974107e-01 4.043462e-02 -9.750100e-01
	endloop
endfacet
facet normal -1.389913e-15 5.257311e-01 -8.506508e-01
	outer loop
		vertex 3.644994e-01 2.009432e-02 -9.875810e-01
		vertex 3.724207e-01 2.498997e-02 -9.845554e-01
		vertex 3.819660e-01 0.000000e+00 -1.000000e+00
	endloop
endfacet
facet normal 5.814528e-01 -7.572409e-01 -2.974875e-01
	outer loop
		vertex 3.644994e-01 2.009432e-02 -9.875810e-01
		vertex 3.724207e-01 2.498997e-02 -9.845554e-01
		vertex 3.974107e-01 4.043462e-02 -9.750100e-01
	endloop
endfacet
facet normal 2.943267e-15 -5.257311e-01 8.506508e-01
	outer loop
		vertex 3.644994e-01 2.009432e-02 -9.875810e-01
		vertex 3.573983e-01 1.570563e-02 -9.902934e-01
		vertex 3.819660e-01 0.000000e+00 -1.000000e+00
	endloop
endfacet
facet normal -4.749478e-01 8.666930e-01 -1.525380e-01
	outer loop
		vertex 3.644994e-01 2.009432e-02 -9.875810e-01
		vertex 3.573983e-01 1.570563e-02 -9.902934e-01
		vertex 3.974107e-01 4.043462e-02 -9.750100e-01
	endloop
endfacet
facet normal 3.394399e-14 -5.257311e-01 8.506508e-01
	outer loop
		vertex 3.573983e-01 1.570563e-02 -9.902934e-01
		vertex 3.569760e-01 1.544465e-02 -9.904547e-01
		vertex 3.819660e-01 0.000000e+00 -1.000000e+00
	endloop
endfacet
facet normal -3.379714e-01 -3.422048e-02 9.405341e-01
	outer loop
		vertex 3.573983e-01 1.570563e-02 -9.902934e-01
		vertex 3.569760e-01 1.544465e-02 -9.904547e-01
		vertex 3.974107e-01 4.043462e-02 -9.750100e-01
	endloop
endfacet
facet normal -2.201290e-14 -5.257311e-01 8.506508e-01
	outer loop
		vertex 3.734125e-01 2.560296e-02 -9.841765e-01
		vertex 3.724207e-01 2.498997e-02 -9.845554e-01
		vertex 3.819660e-01 0.000000e+00 -1.000000e+00
	endloop
endfacet
facet normal 3.952025e-01 -8.515495e-01 3.444973e-01
	outer loop
		vertex 3.734125e-01 2.560296e-02 -9.841765e-01
		vertex 3.724207e-01 2.498997e-02 -9.845554e-01
		vertex 3.974107e-01 4.043462e-02 -9.750100e-01
	endloop
endfacet
facet normal 2.307588e-15 5.257311e-01 -8.506508e-01
	outer loop
		vertex 3.734125e-01 2.560296e-02 -9.841765e-01
		vertex 3.947616e-01 3.879742e-02 -9.760219e-01
		vertex 3.819660e-01 0.000000e+00 -1.000000e+00
	endloop
endfacet
facet normal -5.842062e-01 7.010475e-01 4.089444e-01
	outer loop
		vertex 3.734125e-01 2.560296e-02 -9.841765e-01
		vertex 3.947616e-01 3.879742e-02 -9.760219e-01
		vertex 3.974107e-01 4.043462e-02 -9.750100e-01
	endloop
endfacet
facet normal 2.913175e-14 5.257311e-01 -8.506508e-01
	outer loop
		vertex 3.559784e-01 1.482804e-02 -9.908358e-01
		vertex 3.569760e-01 1.544465e-02 -9.904547e-01
		vertex 3.819660e-01 0.000000e+00 -1.000000e+00
	endloop
endfacet
facet normal -4.668488e-01 8.660512e-01 -1.789068e-01
	outer loop
		vertex 3.559784e-01 1.482804e-02 -9.908358e-01
		vertex 3.569760e-01 1.544465e-02 -9.904547e-01
		vertex 3.974107e-01 4.043462e-02 -9.750100e-01
	endloop
endfacet
facet normal 0.000000e+00 5.257311e-01 -8.506508e-01
	outer loop
		vertex 3.559784e-01 1.482804e-02 -9.908358e-01
		vertex 3.819660e-01 0.000000e+00 -1.000000e+00
		vertex 3.319861e-01 0.000000e+00 -1.000000e+00
	endloop
endfacet
facet normal 0.000000e+00 0.000000e+00 0.000000e+00
	outer loop
		vertex 3.319861e-01 0.000000e+00 -1.000000e+00
		vertex 3.319861e-01 0.000000e+00 -1.000000e+00
		vertex 3.559784e-01 1.482804e-02 -9.908358e-01
	endloop
endfacet
facet normal -4.083900e-01 8.563015e-01 -3.161729e-01
	outer loop
		vertex 3.559784e-01 1.482804e-02 -9.908358e-01
		vertex 3.319861e-01 0.000000e+00 -1.000000e+00
		vertex 3.974107e-01 4.043462e-02 -9.750100e-01
	endloop
endfacet
facet normal 0.000000e+00 5.257311e-01 -8.506508e-01
	outer loop
		vertex 3.559784e-01 1.482804e-02 -9.908358e-01
		vertex 3.819660e-01 0.000000e+00 -1.000000e+00
		vertex 3.319861e-01 0.000000e+00 -1.000000e+00
	endloop
endfacet
facet normal 0.000000e+00 0.000000e+00 0.000000e+00
	outer loop
		vertex 3.319861e-01 0.000000e+00 -1.000000e+00
		vertex 3.319861e-01 0.000000e+00 -1.000000e+00
		vertex 3.559784e-01 1.482804e-02 -9.908358e-01
	endloop
endfacet
facet normal -4.083900e-01 8.563015e-01 -3.161729e-01
	outer loop
		vertex 3.559784e-01 1.482804e-02 -9.908358e-01
		vertex 3.319861e-01 0.000000e+00 -1.000000e+00
		vertex 3.974107e-01 4.043462e-02 -9.750100e-01
	endloop
endfacet
facet normal 0.000000e+00 0.000000e+00 0.000000e+00
	outer loop
		vertex 3.319861e-01 0.000000e+00 -1.000000e+00
		vertex 3.819660e-01 0.000000e+00 -1.000000e+00
		vertex 3.319861e-01 0.000000e+00 -1.000000e+00
	endloop
endfacet
facet normal 0.000000e+00 0.000000e+00 0.000000e+00
	outer loop
		vertex 3.319861e-01 0.000000e+00 -1.000000e+00
		vertex 3.319861e-01 0.000000e+00 -1.000000e+00
		vertex 3.319861e-01 0.000000e+00 -1.000000e+00
	endloop
endfacet
facet normal 0.000000e+00 0.000000e+00 0.000000e+00
	outer loop
		vertex 3.319861e-01 0.000000e+00 -1.000000e+00
		vertex 3.319861e-01 0.000000e+00 -1.000000e+00
		vertex 3.974107e-01 4.043462e-02 -9.750100e-01
	endloop
endfacet
facet normal 0.000000e+00 0.000000e+00 0.000000e+00
	outer loop
		vertex 3.319861e-01 0.000000e+00 -1.000000e+00
		vertex 3.319861e-01 2.775558e-17 -1.000000e+00
		vertex 3.319861e-01 0.000000e+00 -1.000000e+00
	endloop
endfacet
facet normal 1.595757e-01 3.191514e-01 -9.341724e-01
	outer loop
		vertex 3.319861e-01 0.000000e+00 -1.000000e+00
		vertex 3.319861e-01 2.775558e-17 -1.000000e+00
		vertex 3.974107e-01 4.043462e-02 -9.750100e-01
	endloop
endfacet
facet normal 0.000000e+00 0.000000e+00 0.000000e+00
	outer loop
		vertex 3.319861e-01 2.775558e-17 -1.000000e+00
		vertex 3.319861e-01 0.000000e+00 -1.000000e+00
		vertex 3.319861e-01 0.000000e+00 -1.000000e+00
	endloop
endfacet
facet normal -1.595757e-01 -3.191514e-01 9.341724e-01
	outer loop
		vertex 3.319861e-01 2.775558e-17 -1.000000e+00
		vertex 3.319861e-01 0.000000e+00 -1.000000e+00
		vertex 3.974107e-01 4.043462e-02 -9.750100e-01
	endloop
endfacet
facet normal 5.257311e-01 8.506508e-01 -3.448155e-16
	outer loop
		vertex 3.319861e-01 2.775558e-17 -9.315277e-01
		vertex 3.974107e-01 -4.043462e-02 -9.750100e-01
		vertex 3.319861e-01 0.000000e+00 -1.000000e+00
	endloop
endfacet
facet normal 0.000000e+00 0.000000e+00 0.000000e+00
	outer loop
		vertex 3.319861e-01 0.000000e+00 -1.000000e+00
		vertex 3.319861e-01 0.000000e+00 -1.000000e+00
		vertex 3.319861e-01 2.775558e-17 -9.315277e-01
	endloop
endfacet
facet normal 5.257311e-01 -8.506508e-01 3.448155e-16
	outer loop
		vertex 3.319861e-01 2.775558e-17 -9.315277e-01
		vertex 3.319861e-01 0.000000e+00 -1.000000e+00
		vertex 3.974107e-01 4.043462e-02 -9.750100e-01
	endloop
endfacet
facet normal 5.257311e-01 8.506508e-01 -3.448155e-16
	outer loop
		vertex 3.319861e-01 2.775558e-17 -9.315277e-01
		vertex 3.974107e-01 -4.043462e-02 -9.750100e-01
		vertex 3.319861e-01 0.000000e+00 -1.000000e+00
	endloop
endfacet
facet normal 0.000000e+00 0.000000e+00 0.000000e+00
	outer loop
		vertex 3.319861e-01 0.000000e+00 -1.000000e+00
		vertex 3.319861e-01 0.000000e+00 -1.000000e+00
		vertex 3.319861e-01 2.775558e-17 -9.315277e-01
	endloop
endfacet
facet normal 5.257311e-01 -8.506508e-01 3.448155e-16
	outer loop
		vertex 3.319861e-01 2.775558e-17 -9.315277e-01
		vertex 3.319861e-01 0.000000e+00 -1.000000e+00
		vertex 3.974107e-01 4.043462e-02 -9.750100e-01
	endloop
endfacet
facet normal 0.000000e+00 0.000000e+00 0.000000e+00
	outer loop
		vertex 3.319861e-01 0.000000e+00 -1.000000e+00
		vertex 3.974107e-01 -4.043462e-02 -9.750100e-01
		vertex 3.319861e-01 0.000000e+00 -1.000000e+00
	endloop
endfacet
facet normal 0.000000e+00 0.000000e+00 0.000000e+00
	outer loop
		vertex 3.319861e-01 0.000000e+00 -1.000000e+00
		vertex 3.319861e-01 0.000000e+00 -1.000000e+00
		vertex 3.319861e-01 0.000000e+00 -1.000000e+00
	endloop
endfacet
facet normal 0.000000e+00 0.000000e+00 0.000000e+00
	outer loop
		vertex 3.319861e-01 0.000000e+00 -1.000000e+00
		vertex 3.319861e-01 0.000000e+00 -1.000000e+00
		vertex 3.974107e-01 4.043462e-02 -9.750100e-01
	endloop
endfacet
facet normal 0.000000e+00 0.000000e+00 0.000000e+00
	outer loop
		vertex 3.319861e-01 0.000000e+00 -1.000000e+00
		vertex 3.319861e-01 0.000000e+00 -1.000000e+00
		vertex 3.319861e-01 0.000000e+00 -1.000000e+00
	endloop
endfacet
facet normal 0.000000e+00 0.000000e+00 0.000000e+00
	outer loop
		vertex 3.319861e-01 0.000000e+00 -1.000000e+00
		vertex 3.319861e-01 0.000000e+00 -1.000000e+00
		vertex 3.974107e-01 4.043462e-02 -9.750100e-01
	endloop
endfacet
facet normal 5.257311e-01 8.506508e-01 -7.735386e-14
	outer loop
		vertex 3.319861e-01 2.081668e-17 -9.131802e-01
		vertex 3.764485e-01 -2.747928e-02 -9.410925e-01
		vertex 3.776400e-01 -2.821566e-02 -9.430203e-01
	endloop
endfacet
facet normal 5.257311e-01 8.506508e-01 -7.790449e-14
	outer loop
		vertex 3.776400e-01 -2.821566e-02 -9.430203e-01
		vertex 3.319861e-01 -3.816392e-17 -9.142174e-01
		vertex 3.319861e-01 2.081668e-17 -9.131802e-01
	endloop
endfacet
facet normal 5.257311e-01 -8.506508e-01 2.023433e-14
	outer loop
		vertex 3.319861e-01 2.081668e-17 -9.131802e-01
		vertex 3.319861e-01 -3.816392e-17 -9.142174e-01
		vertex 3.974107e-01 4.043462e-02 -9.750100e-01
	endloop
endfacet
facet normal -5.257311e-01 -8.506508e-01 5.421049e-13
	outer loop
		vertex 3.319861e-01 0.000000e+00 -9.142174e-01
		vertex 3.319861e-01 -2.775558e-17 -9.142610e-01
		vertex 3.776400e-01 -2.821566e-02 -9.430203e-01
	endloop
endfacet
facet normal 5.257311e-01 -8.506508e-01 5.421049e-13
	outer loop
		vertex 3.319861e-01 0.000000e+00 -9.142174e-01
		vertex 3.319861e-01 -2.775558e-17 -9.142610e-01
		vertex 3.974107e-01 4.043462e-02 -9.750100e-01
	endloop
endfacet
facet normal -5.257311e-01 -8.506508e-01 -1.524363e-14
	outer loop
		vertex 3.319861e-01 6.938894e-18 -9.194336e-01
		vertex 3.834156e-01 -3.178516e-02 -9.523654e-01
		vertex 3.776400e-01 -2.821566e-02 -9.430203e-01
	endloop
endfacet
facet normal -5.257311e-01 -8.506508e-01 -1.871963e-14
	outer loop
		vertex 3.776400e-01 -2.821566e-02 -9.430203e-01
		vertex 3.319861e-01 -3.469447e-17 -9.144694e-01
		vertex 3.319861e-01 6.938894e-18 -9.194336e-01
	endloop
endfacet
facet normal -5.257311e-01 8.506508e-01 -4.623643e-15
	outer loop
		vertex 3.319861e-01 6.938894e-18 -9.194336e-01
		vertex 3.319861e-01 -3.469447e-17 -9.144694e-01
		vertex 3.974107e-01 4.043462e-02 -9.750100e-01
	endloop
endfacet
facet normal 5.257311e-01 8.506508e-01 -0.000000e+00
	outer loop
		vertex 3.319861e-01 -2.775558e-17 -9.144694e-01
		vertex 3.319861e-01 -2.775558e-17 -9.142610e-01
		vertex 3.776400e-01 -2.821566e-02 -9.430203e-01
	endloop
endfacet
facet normal -5.257311e-01 8.506508e-01 0.000000e+00
	outer loop
		vertex 3.319861e-01 -2.775558e-17 -9.144694e-01
		vertex 3.319861e-01 -2.775558e-17 -9.142610e-01
		vertex 3.974107e-01 4.043462e-02 -9.750100e-01
	endloop
endfacet
facet normal 5.257311e-01 8.506508e-01 -5.023165e-13
	outer loop
		vertex 3.319861e-01 6.938894e-18 -9.194336e-01
		vertex 3.834156e-01 -3.178516e-02 -9.523654e-01
		vertex 3.836054e-01 -3.190251e-02 -9.526727e-01
	endloop
endfacet
facet normal 5.257311e-01 8.506508e-01 -6.227683e-13
	outer loop
		vertex 3.836054e-01 -3.190251e-02 -9.526727e-01
		vertex 3.319861e-01 -4.163336e-17 -9.195942e-01
		vertex 3.319861e-01 6.938894e-18 -9.194336e-01
	endloop
endfacet
facet normal 5.257311e-01 -8.506508e-01 -1.061231e-13
	outer loop
		vertex 3.319861e-01 6.938894e-18 -9.194336e-01
		vertex 3.319861e-01 -4.163336e-17 -9.195942e-01
		vertex 3.974107e-01 4.043462e-02 -9.750100e-01
	endloop
endfacet
facet normal -5.257311e-01 -8.506508e-01 -0.000000e+00
	outer loop
		vertex 3.319861e-01 -2.775558e-17 -9.195942e-01
		vertex 3.319861e-01 -2.775558e-17 -9.196018e-01
		vertex 3.836054e-01 -3.190251e-02 -9.526727e-01
	endloop
endfacet
facet normal 5.257311e-01 -8.506508e-01 0.000000e+00
	outer loop
		vertex 3.319861e-01 -2.775558e-17 -9.195942e-01
		vertex 3.319861e-01 -2.775558e-17 -9.196018e-01
		vertex 3.974107e-01 4.043462e-02 -9.750100e-01
	endloop
endfacet
facet normal 5.257311e-01 8.506508e-01 0.000000e+00
	outer loop
		vertex 3.319861e-01 1.387779e-17 -9.315277e-01
		vertex 3.974107e-01 -4.043462e-02 -9.750100e-01
		vertex 3.974107e-01 -4.043462e-02 -9.750100e-01
	endloop
endfacet
facet normal 5.257311e-01 8.506508e-01 0.000000e+00
	outer loop
		vertex 3.974107e-01 -4.043462e-02 -9.750100e-01
		vertex 3.319861e-01 1.387779e-17 -9.315277e-01
		vertex 3.319861e-01 1.387779e-17 -9.315277e-01
	endloop
endfacet
facet normal 5.257311e-01 -8.506508e-01 0.000000e+00
	outer loop
		vertex 3.319861e-01 1.387779e-17 -9.315277e-01
		vertex 3.319861e-01 1.387779e-17 -9.315277e-01
		vertex 3.974107e-01 4.043462e-02 -9.750100e-01
	endloop
endfacet
facet normal -5.257311e-01 -8.506508e-01 1.461357e-08
	outer loop
		vertex 3.319861e-01 0.000000e+00 -9.315277e-01
		vertex 3.319861e-01 -2.775558e-17 -9.315277e-01
		vertex 3.974107e-01 -4.043462e-02 -9.750100e-01
	endloop
endfacet
facet normal 5.257312e-01 -8.506508e-01 1.461357e-08
	outer loop
		vertex 3.319861e-01 0.000000e+00 -9.315277e-01
		vertex 3.319861e-01 -2.775558e-17 -9.315277e-01
		vertex 3.974107e-01 4.043462e-02 -9.750100e-01
	endloop
endfacet
facet normal 5.257311e-01 8.506508e-01 0.000000e+00
	outer loop
		vertex 3.319861e-01 1.387779e-17 -9.315277e-01
		vertex 3.974107e-01 -4.043462e-02 -9.750100e-01
		vertex 3.974107e-01 -4.043462e-02 -9.750100e-01
	endloop
endfacet
facet normal 5.257311e-01 8.506508e-01 2.026383e-10
	outer loop
		vertex 3.974107e-01 -4.043462e-02 -9.750100e-01
		vertex 3.319861e-01 2.081668e-17 -9.315277e-01
		vertex 3.319861e-01 1.387779e-17 -9.315277e-01
	endloop
endfacet
facet normal 5.257311e-01 -8.506508e-01 -2.121204e-10
	outer loop
		vertex 3.319861e-01 1.387779e-17 -9.315277e-01
		vertex 3.319861e-01 2.081668e-17 -9.315277e-01
		vertex 3.974107e-01 4.043462e-02 -9.750100e-01
	endloop
endfacet
facet normal -5.257311e-01 -8.506508e-01 1.461357e-08
	outer loop
		vertex 3.319861e-01 0.000000e+00 -9.315277e-01
		vertex 3.319861e-01 -2.775558e-17 -9.315277e-01
		vertex 3.974107e-01 -4.043462e-02 -9.750100e-01
	endloop
endfacet
facet normal 5.257312e-01 -8.506508e-01 1.461357e-08
	outer loop
		vertex 3.319861e-01 0.000000e+00 -9.315277e-01
		vertex 3.319861e-01 -2.775558e-17 -9.315277e-01
		vertex 3.974107e-01 4.043462e-02 -9.750100e-01
	endloop
endfacet
facet normal -5.257311e-01 -8.506508e-01 4.284042e-16
	outer loop
		vertex 3.319861e-01 1.387779e-17 -9.315277e-01
		vertex 3.974107e-01 -4.043462e-02 -9.750100e-01
		vertex 3.836054e-01 -3.190251e-02 -9.526727e-01
	endloop
endfacet
facet normal -5.257311e-01 -8.506508e-01 9.411056e-16
	outer loop
		vertex 3.836054e-01 -3.190251e-02 -9.526727e-01
		vertex 3.319861e-01 -6.938894e-18 -9.201367e-01
		vertex 3.319861e-01 1.387779e-17 -9.315277e-01
	endloop
endfacet
facet normal -5.257311e-01 8.506508e-01 4.116553e-15
	outer loop
		vertex 3.319861e-01 1.387779e-17 -9.315277e-01
		vertex 3.319861e-01 -6.938894e-18 -9.201367e-01
		vertex 3.974107e-01 4.043462e-02 -9.750100e-01
	endloop
endfacet
facet normal 5.257311e-01 8.506508e-01 -0.000000e+00
	outer loop
		vertex 3.319861e-01 2.775558e-17 -9.201367e-01
		vertex 3.319861e-01 2.775558e-17 -9.196018e-01
		vertex 3.836054e-01 -3.190251e-02 -9.526727e-01
	endloop
endfacet
facet normal -5.257311e-01 8.506508e-01 0.000000e+00
	outer loop
		vertex 3.319861e-01 2.775558e-17 -9.201367e-01
		vertex 3.319861e-01 2.775558e-17 -9.196018e-01
		vertex 3.974107e-01 4.043462e-02 -9.750100e-01
	endloop
endfacet
facet normal 5.257311e-01 8.506508e-01 1.028537e-15
	outer loop
		vertex 3.319861e-01 -6.938894e-18 -9.118721e-01
		vertex 3.319861e-01 -2.428613e-17 -8.691508e-01
		vertex 3.750134e-01 -2.659233e-02 -9.387704e-01
	endloop
endfacet
facet normal -5.257311e-01 8.506508e-01 -3.377125e-16
	outer loop
		vertex 3.319861e-01 -6.938894e-18 -9.118721e-01
		vertex 3.319861e-01 -2.428613e-17 -8.691508e-01
		vertex 3.974107e-01 4.043462e-02 -9.750100e-01
	endloop
endfacet
facet normal -5.257311e-01 -8.506508e-01 -4.378785e-14
	outer loop
		vertex 3.319861e-01 -2.775558e-17 -9.131802e-01
		vertex 3.764485e-01 -2.747928e-02 -9.410925e-01
		vertex 3.750134e-01 -2.659233e-02 -9.387704e-01
	endloop
endfacet
facet normal -5.257311e-01 -8.506508e-01 -4.429774e-14
	outer loop
		vertex 3.750134e-01 -2.659233e-02 -9.387704e-01
		vertex 3.319861e-01 -5.551115e-17 -9.119221e-01
		vertex 3.319861e-01 -2.775558e-17 -9.131802e-01
	endloop
endfacet
facet normal -5.257311e-01 8.506508e-01 -4.430262e-15
	outer loop
		vertex 3.319861e-01 -2.775558e-17 -9.131802e-01
		vertex 3.319861e-01 -5.551115e-17 -9.119221e-01
		vertex 3.974107e-01 4.043462e-02 -9.750100e-01
	endloop
endfacet
facet normal 5.257311e-01 8.506508e-01 1.114097e-13
	outer loop
		vertex 3.319861e-01 -5.551115e-17 -9.119221e-01
		vertex 3.319861e-01 -2.775558e-17 -9.118721e-01
		vertex 3.750134e-01 -2.659233e-02 -9.387704e-01
	endloop
endfacet
facet normal -5.257311e-01 8.506508e-01 -1.055287e-12
	outer loop
		vertex 3.319861e-01 -5.551115e-17 -9.119221e-01
		vertex 3.319861e-01 -2.775558e-17 -9.118721e-01
		vertex 3.974107e-01 4.043462e-02 -9.750100e-01
	endloop
endfacet
endsolid MIKE666
