solid MIKE666
facet normal 0.000000e+00 5.257311e-01 -8.506508e-01
	outer loop
		vertex -1.657333e-01 -6.469738e-01 6.001482e-01
		vertex -1.702123e-01 -6.352478e-01 6.073953e-01
		vertex 1.348440e-01 -6.469738e-01 6.001482e-01
	endloop
endfacet
facet normal 0.000000e+00 5.257311e-01 -8.506508e-01
	outer loop
		vertex 1.664565e-01 -6.450804e-01 6.013184e-01
		vertex 1.657333e-01 -6.469738e-01 6.001482e-01
		vertex 1.348440e-01 -6.469738e-01 6.001482e-01
	endloop
endfacet
facet normal 0.000000e+00 5.220944e-01 8.528877e-01
	outer loop
		vertex 1.657333e-01 -6.469738e-01 6.001482e-01
		vertex 1.495597e-01 -6.042235e-01 5.739787e-01
		vertex 1.348440e-01 -6.469738e-01 6.001482e-01
	endloop
endfacet
facet normal 7.640836e-16 5.220944e-01 8.528877e-01
	outer loop
		vertex 1.495597e-01 -6.042235e-01 5.739787e-01
		vertex 1.288081e-01 -5.493729e-01 5.404019e-01
		vertex 1.348440e-01 -6.469738e-01 6.001482e-01
	endloop
endfacet
facet normal 2.371594e-15 5.220944e-01 8.528877e-01
	outer loop
		vertex 1.288081e-01 -5.493729e-01 5.404019e-01
		vertex 1.230774e-01 -5.342256e-01 5.311296e-01
		vertex 1.348440e-01 -6.469738e-01 6.001482e-01
	endloop
endfacet
facet normal 0.000000e+00 -5.220944e-01 -8.528877e-01
	outer loop
		vertex 1.230774e-01 -5.342256e-01 5.311296e-01
		vertex 1.348440e-01 -6.469738e-01 6.001482e-01
		vertex -1.657333e-01 -6.469738e-01 6.001482e-01
	endloop
endfacet
facet normal -1.372061e-16 -5.220944e-01 -8.528877e-01
	outer loop
		vertex -1.657333e-01 -6.469738e-01 6.001482e-01
		vertex -1.387779e-17 -2.089070e-01 3.319861e-01
		vertex 1.230774e-01 -5.342256e-01 5.311296e-01
	endloop
endfacet
facet normal -1.488334e-08 5.257311e-01 -8.506508e-01
	outer loop
		vertex -2.706033e-01 -3.724207e-01 7.698313e-01
		vertex -2.706033e-01 -3.724207e-01 7.698313e-01
		vertex -2.610580e-01 -3.974107e-01 7.543867e-01
	endloop
endfacet
facet normal -1.192736e-14 -5.257311e-01 8.506508e-01
	outer loop
		vertex -2.689683e-01 -3.714103e-01 7.704558e-01
		vertex -2.706033e-01 -3.724207e-01 7.698313e-01
		vertex -2.610580e-01 -3.974107e-01 7.543867e-01
	endloop
endfacet
facet normal 1.410810e-14 -5.257311e-01 8.506508e-01
	outer loop
		vertex -2.661377e-01 -3.696609e-01 7.715370e-01
		vertex -2.689683e-01 -3.714103e-01 7.704558e-01
		vertex -2.610580e-01 -3.974107e-01 7.543867e-01
	endloop
endfacet
facet normal 8.506508e-01 0.000000e+00 5.257311e-01
	outer loop
		vertex -2.610580e-01 -3.665214e-01 7.543867e-01
		vertex -2.706033e-01 -3.724207e-01 7.698313e-01
		vertex -2.610580e-01 -3.974107e-01 7.543867e-01
	endloop
endfacet
facet normal 8.506508e-01 0.000000e+00 5.257311e-01
	outer loop
		vertex -2.610580e-01 -3.665214e-01 7.543867e-01
		vertex -2.610580e-01 -3.974107e-01 7.543867e-01
		vertex -1.702123e-01 -6.352478e-01 6.073953e-01
	endloop
endfacet
facet normal 8.506508e-01 -2.768266e-17 5.257311e-01
	outer loop
		vertex -1.702123e-01 -6.352478e-01 6.073953e-01
		vertex -2.103538e-01 -3.351845e-01 6.723456e-01
		vertex -2.610580e-01 -3.665214e-01 7.543867e-01
	endloop
endfacet
facet normal 8.506508e-01 -7.164884e-17 5.257311e-01
	outer loop
		vertex -1.981098e-01 -3.276173e-01 6.525345e-01
		vertex -2.103538e-01 -3.351845e-01 6.723456e-01
		vertex -1.702123e-01 -6.352478e-01 6.073953e-01
	endloop
endfacet
facet normal 8.506508e-01 -2.313845e-15 5.257311e-01
	outer loop
		vertex -1.973184e-01 -3.271282e-01 6.512539e-01
		vertex -1.981098e-01 -3.276173e-01 6.525345e-01
		vertex -1.702123e-01 -6.352478e-01 6.073953e-01
	endloop
endfacet
facet normal -8.506508e-01 -9.369703e-16 -5.257311e-01
	outer loop
		vertex -1.950545e-01 -3.257290e-01 6.475908e-01
		vertex -1.657333e-01 -6.469738e-01 6.001482e-01
		vertex -1.702123e-01 -6.352478e-01 6.073953e-01
	endloop
endfacet
facet normal -8.506508e-01 -2.143349e-15 -5.257311e-01
	outer loop
		vertex -1.702123e-01 -6.352478e-01 6.073953e-01
		vertex -1.968554e-01 -3.268420e-01 6.505047e-01
		vertex -1.950545e-01 -3.257290e-01 6.475908e-01
	endloop
endfacet
facet normal -8.506508e-01 -3.723829e-15 -5.257311e-01
	outer loop
		vertex -1.972868e-01 -3.271086e-01 6.512028e-01
		vertex -1.968554e-01 -3.268420e-01 6.505047e-01
		vertex -1.702123e-01 -6.352478e-01 6.073953e-01
	endloop
endfacet
facet normal -8.506508e-01 -4.013621e-14 -5.257311e-01
	outer loop
		vertex -1.973184e-01 -3.271282e-01 6.512539e-01
		vertex -1.972868e-01 -3.271086e-01 6.512028e-01
		vertex -1.702123e-01 -6.352478e-01 6.073953e-01
	endloop
endfacet
facet normal -8.506508e-01 4.916313e-16 -5.257311e-01
	outer loop
		vertex -1.267894e-03 -2.059623e-01 3.340376e-01
		vertex -1.387779e-17 -2.089070e-01 3.319861e-01
		vertex -1.657333e-01 -6.469738e-01 6.001482e-01
	endloop
endfacet
facet normal -8.506508e-01 -8.771470e-17 -5.257311e-01
	outer loop
		vertex -1.657333e-01 -6.469738e-01 6.001482e-01
		vertex -1.544553e-01 -3.006373e-01 5.818999e-01
		vertex -1.267894e-03 -2.059623e-01 3.340376e-01
	endloop
endfacet
facet normal -8.506508e-01 -1.205337e-16 -5.257311e-01
	outer loop
		vertex -1.906854e-01 -3.230288e-01 6.405216e-01
		vertex -1.544553e-01 -3.006373e-01 5.818999e-01
		vertex -1.657333e-01 -6.469738e-01 6.001482e-01
	endloop
endfacet
facet normal -8.506508e-01 1.230183e-15 -5.257311e-01
	outer loop
		vertex -1.950545e-01 -3.257290e-01 6.475908e-01
		vertex -1.906854e-01 -3.230288e-01 6.405216e-01
		vertex -1.657333e-01 -6.469738e-01 6.001482e-01
	endloop
endfacet
facet normal 8.506508e-01 1.294134e-16 5.257311e-01
	outer loop
		vertex -1.444500e-17 -2.051787e-01 3.319861e-01
		vertex -6.681562e-04 -2.055916e-01 3.330672e-01
		vertex -1.387779e-17 -2.089070e-01 3.319861e-01
	endloop
endfacet
facet normal -8.506508e-01 -3.706439e-15 -5.257311e-01
	outer loop
		vertex -1.175699e-03 -2.059053e-01 3.338884e-01
		vertex -6.681562e-04 -2.055916e-01 3.330672e-01
		vertex -1.387779e-17 -2.089070e-01 3.319861e-01
	endloop
endfacet
facet normal 8.506508e-01 -3.570769e-14 5.257311e-01
	outer loop
		vertex -1.175699e-03 -2.059053e-01 3.338884e-01
		vertex -1.267894e-03 -2.059623e-01 3.340376e-01
		vertex -1.387779e-17 -2.089070e-01 3.319861e-01
	endloop
endfacet
facet normal 1.075432e-16 -5.257311e-01 8.506508e-01
	outer loop
		vertex 1.324589e-01 -2.870428e-01 8.225978e-01
		vertex -1.702123e-01 -6.352478e-01 6.073953e-01
		vertex 1.348440e-01 -6.469738e-01 6.001482e-01
	endloop
endfacet
facet normal -3.008673e-16 -5.257311e-01 8.506508e-01
	outer loop
		vertex 1.348440e-01 -6.469738e-01 6.001482e-01
		vertex 2.419200e-01 -3.546935e-01 7.807874e-01
		vertex 1.324589e-01 -2.870428e-01 8.225978e-01
	endloop
endfacet
facet normal 0.000000e+00 0.000000e+00 0.000000e+00
	outer loop
		vertex 1.324589e-01 -2.870428e-01 8.225978e-01
		vertex 2.419200e-01 -3.546935e-01 7.807874e-01
		vertex 2.419200e-01 -3.546935e-01 7.807874e-01
	endloop
endfacet
facet normal -9.195710e-15 5.257311e-01 -8.506508e-01
	outer loop
		vertex 2.419200e-01 -3.546935e-01 7.807874e-01
		vertex 2.456133e-01 -3.569761e-01 7.793767e-01
		vertex 1.348440e-01 -6.469738e-01 6.001482e-01
	endloop
endfacet
facet normal 2.774069e-01 -1.387034e-01 9.506875e-01
	outer loop
		vertex 2.419200e-01 -3.546935e-01 7.807874e-01
		vertex 2.456133e-01 -3.569761e-01 7.793767e-01
		vertex 2.419200e-01 -3.546935e-01 7.807874e-01
	endloop
endfacet
facet normal 2.278561e-16 5.257311e-01 -8.506508e-01
	outer loop
		vertex 1.324589e-01 -2.870428e-01 8.225978e-01
		vertex -1.702123e-01 -6.352478e-01 6.073953e-01
		vertex -2.610580e-01 -3.974107e-01 7.543867e-01
	endloop
endfacet
facet normal 2.006743e-16 5.257311e-01 -8.506508e-01
	outer loop
		vertex -2.610580e-01 -3.974107e-01 7.543867e-01
		vertex 2.847201e-02 -2.227754e-01 8.623172e-01
		vertex 1.324589e-01 -2.870428e-01 8.225978e-01
	endloop
endfacet
facet normal 2.534286e-02 -5.068573e-01 8.616574e-01
	outer loop
		vertex 1.324589e-01 -2.870428e-01 8.225978e-01
		vertex 2.847201e-02 -2.227754e-01 8.623172e-01
		vertex 2.419200e-01 -3.546935e-01 7.807874e-01
	endloop
endfacet
facet normal -8.371280e-15 5.257311e-01 -8.506508e-01
	outer loop
		vertex 2.498995e-02 -2.206233e-01 8.636473e-01
		vertex 2.847201e-02 -2.227754e-01 8.623172e-01
		vertex -2.610580e-01 -3.974107e-01 7.543867e-01
	endloop
endfacet
facet normal -4.842710e-01 -8.649695e-01 1.315649e-01
	outer loop
		vertex 2.498995e-02 -2.206233e-01 8.636473e-01
		vertex 2.847201e-02 -2.227754e-01 8.623172e-01
		vertex 2.419200e-01 -3.546935e-01 7.807874e-01
	endloop
endfacet
facet normal 1.364097e-15 5.257311e-01 -8.506508e-01
	outer loop
		vertex 2.597815e-01 -3.657325e-01 7.739649e-01
		vertex 1.664565e-01 -6.450804e-01 6.013184e-01
		vertex 1.348440e-01 -6.469738e-01 6.001482e-01
	endloop
endfacet
facet normal 1.201436e-15 5.257311e-01 -8.506508e-01
	outer loop
		vertex 1.348440e-01 -6.469738e-01 6.001482e-01
		vertex 2.460757e-01 -3.572619e-01 7.792000e-01
		vertex 2.597815e-01 -3.657325e-01 7.739649e-01
	endloop
endfacet
facet normal 2.872446e-01 -1.215266e-01 9.501167e-01
	outer loop
		vertex 2.597815e-01 -3.657325e-01 7.739649e-01
		vertex 2.460757e-01 -3.572619e-01 7.792000e-01
		vertex 2.419200e-01 -3.546935e-01 7.807874e-01
	endloop
endfacet
facet normal -2.343727e-14 -5.257311e-01 8.506508e-01
	outer loop
		vertex 2.460757e-01 -3.572619e-01 7.792000e-01
		vertex 2.456133e-01 -3.569761e-01 7.793767e-01
		vertex 1.348440e-01 -6.469738e-01 6.001482e-01
	endloop
endfacet
facet normal 5.854666e-01 6.373949e-01 5.009557e-01
	outer loop
		vertex 2.460757e-01 -3.572619e-01 7.792000e-01
		vertex 2.456133e-01 -3.569761e-01 7.793767e-01
		vertex 2.419200e-01 -3.546935e-01 7.807874e-01
	endloop
endfacet
facet normal 1.668955e-15 5.257311e-01 -8.506508e-01
	outer loop
		vertex 2.597815e-01 -3.657325e-01 7.739649e-01
		vertex 2.706033e-01 -3.724207e-01 7.698313e-01
		vertex 1.664565e-01 -6.450804e-01 6.013184e-01
	endloop
endfacet
facet normal -1.090494e-01 -6.417139e-01 7.591518e-01
	outer loop
		vertex 2.597815e-01 -3.657325e-01 7.739649e-01
		vertex 2.706033e-01 -3.724207e-01 7.698313e-01
		vertex 2.419200e-01 -3.546935e-01 7.807874e-01
	endloop
endfacet
facet normal -8.506508e-01 -1.830673e-09 5.257311e-01
	outer loop
		vertex 2.706033e-01 -3.724207e-01 7.698313e-01
		vertex 2.706033e-01 -3.724207e-01 7.698313e-01
		vertex 1.664565e-01 -6.450804e-01 6.013184e-01
	endloop
endfacet
facet normal 5.257311e-01 8.506508e-01 -1.288476e-08
	outer loop
		vertex 2.706033e-01 -3.724207e-01 7.698313e-01
		vertex 2.706033e-01 -3.724207e-01 7.698313e-01
		vertex 2.419200e-01 -3.546935e-01 7.807874e-01
	endloop
endfacet
facet normal -8.506508e-01 1.995839e-16 5.257311e-01
	outer loop
		vertex 2.706033e-01 -3.724207e-01 7.698313e-01
		vertex 2.604345e-01 -3.661361e-01 7.533780e-01
		vertex 1.664565e-01 -6.450804e-01 6.013184e-01
	endloop
endfacet
facet normal 5.257311e-01 8.506508e-01 2.094847e-15
	outer loop
		vertex 2.706033e-01 -3.724207e-01 7.698313e-01
		vertex 2.604345e-01 -3.661361e-01 7.533780e-01
		vertex 2.419200e-01 -3.546935e-01 7.807874e-01
	endloop
endfacet
facet normal 8.506508e-01 1.532881e-13 -5.257311e-01
	outer loop
		vertex 2.604345e-01 -3.661361e-01 7.533780e-01
		vertex 1.664565e-01 -6.450804e-01 6.013184e-01
		vertex 1.657333e-01 -6.469738e-01 6.001482e-01
	endloop
endfacet
facet normal 8.506508e-01 -1.390632e-13 -5.257311e-01
	outer loop
		vertex 1.657333e-01 -6.469738e-01 6.001482e-01
		vertex 2.603959e-01 -3.661122e-01 7.533154e-01
		vertex 2.604345e-01 -3.661361e-01 7.533780e-01
	endloop
endfacet
facet normal 5.257311e-01 8.506508e-01 -2.357083e-13
	outer loop
		vertex 2.604345e-01 -3.661361e-01 7.533780e-01
		vertex 2.603959e-01 -3.661122e-01 7.533154e-01
		vertex 2.419200e-01 -3.546935e-01 7.807874e-01
	endloop
endfacet
facet normal -8.506508e-01 -1.574936e-12 5.257311e-01
	outer loop
		vertex 2.603959e-01 -3.661122e-01 7.533154e-01
		vertex 2.603928e-01 -3.661103e-01 7.533104e-01
		vertex 1.657333e-01 -6.469738e-01 6.001482e-01
	endloop
endfacet
facet normal 5.257311e-01 8.506508e-01 -7.636783e-12
	outer loop
		vertex 2.603959e-01 -3.661122e-01 7.533154e-01
		vertex 2.603928e-01 -3.661103e-01 7.533104e-01
		vertex 2.419200e-01 -3.546935e-01 7.807874e-01
	endloop
endfacet
facet normal 8.506508e-01 6.370695e-16 -5.257311e-01
	outer loop
		vertex 2.603928e-01 -3.661103e-01 7.533104e-01
		vertex 1.657333e-01 -6.469738e-01 6.001482e-01
		vertex 1.495597e-01 -6.042235e-01 5.739787e-01
	endloop
endfacet
facet normal 8.506508e-01 1.231983e-15 -5.257311e-01
	outer loop
		vertex 1.495597e-01 -6.042235e-01 5.739787e-01
		vertex 2.459067e-01 -3.571574e-01 7.298714e-01
		vertex 2.603928e-01 -3.661103e-01 7.533104e-01
	endloop
endfacet
facet normal 5.257311e-01 8.506508e-01 -3.329451e-16
	outer loop
		vertex 2.603928e-01 -3.661103e-01 7.533104e-01
		vertex 2.459067e-01 -3.571574e-01 7.298714e-01
		vertex 2.419200e-01 -3.546935e-01 7.807874e-01
	endloop
endfacet
facet normal -8.506508e-01 -2.118109e-16 5.257311e-01
	outer loop
		vertex 2.459067e-01 -3.571574e-01 7.298714e-01
		vertex 2.448096e-01 -3.564794e-01 7.280963e-01
		vertex 1.495597e-01 -6.042235e-01 5.739787e-01
	endloop
endfacet
facet normal 5.257311e-01 8.506508e-01 2.690383e-16
	outer loop
		vertex 2.459067e-01 -3.571574e-01 7.298714e-01
		vertex 2.448096e-01 -3.564794e-01 7.280963e-01
		vertex 2.419200e-01 -3.546935e-01 7.807874e-01
	endloop
endfacet
facet normal 8.506508e-01 -1.759665e-16 -5.257311e-01
	outer loop
		vertex 2.448096e-01 -3.564794e-01 7.280963e-01
		vertex 1.495597e-01 -6.042235e-01 5.739787e-01
		vertex 1.288081e-01 -5.493729e-01 5.404019e-01
	endloop
endfacet
facet normal 8.506508e-01 0.000000e+00 -5.257311e-01
	outer loop
		vertex 1.288081e-01 -5.493729e-01 5.404019e-01
		vertex 2.242554e-01 -3.437762e-01 6.948389e-01
		vertex 2.448096e-01 -3.564794e-01 7.280963e-01
	endloop
endfacet
facet normal 5.257311e-01 8.506508e-01 2.297635e-16
	outer loop
		vertex 2.448096e-01 -3.564794e-01 7.280963e-01
		vertex 2.242554e-01 -3.437762e-01 6.948389e-01
		vertex 2.419200e-01 -3.546935e-01 7.807874e-01
	endloop
endfacet
facet normal -8.506508e-01 2.290285e-14 5.257311e-01
	outer loop
		vertex 2.242554e-01 -3.437762e-01 6.948389e-01
		vertex 2.228374e-01 -3.428998e-01 6.925446e-01
		vertex 1.288081e-01 -5.493729e-01 5.404019e-01
	endloop
endfacet
facet normal 5.257311e-01 8.506508e-01 8.397058e-15
	outer loop
		vertex 2.242554e-01 -3.437762e-01 6.948389e-01
		vertex 2.228374e-01 -3.428998e-01 6.925446e-01
		vertex 2.419200e-01 -3.546935e-01 7.807874e-01
	endloop
endfacet
facet normal 8.506508e-01 3.497575e-16 -5.257311e-01
	outer loop
		vertex 2.228374e-01 -3.428998e-01 6.925446e-01
		vertex 1.288081e-01 -5.493729e-01 5.404019e-01
		vertex 1.230774e-01 -5.342256e-01 5.311296e-01
	endloop
endfacet
facet normal 8.506508e-01 5.913161e-16 -5.257311e-01
	outer loop
		vertex 1.230774e-01 -5.342256e-01 5.311296e-01
		vertex 2.167408e-01 -3.391319e-01 6.826801e-01
		vertex 2.228374e-01 -3.428998e-01 6.925446e-01
	endloop
endfacet
facet normal 5.257311e-01 8.506508e-01 1.417408e-15
	outer loop
		vertex 2.228374e-01 -3.428998e-01 6.925446e-01
		vertex 2.167408e-01 -3.391319e-01 6.826801e-01
		vertex 2.419200e-01 -3.546935e-01 7.807874e-01
	endloop
endfacet
facet normal -8.506508e-01 -1.268857e-14 5.257311e-01
	outer loop
		vertex 2.167408e-01 -3.391319e-01 6.826801e-01
		vertex 2.163324e-01 -3.388795e-01 6.820193e-01
		vertex 1.230774e-01 -5.342256e-01 5.311296e-01
	endloop
endfacet
facet normal 5.257311e-01 8.506508e-01 1.393739e-13
	outer loop
		vertex 2.167408e-01 -3.391319e-01 6.826801e-01
		vertex 2.163324e-01 -3.388795e-01 6.820193e-01
		vertex 2.419200e-01 -3.546935e-01 7.807874e-01
	endloop
endfacet
facet normal 8.506508e-01 6.708300e-17 -5.257311e-01
	outer loop
		vertex 2.163324e-01 -3.388795e-01 6.820193e-01
		vertex 1.230774e-01 -5.342256e-01 5.311296e-01
		vertex -1.387779e-17 -2.089070e-01 3.319861e-01
	endloop
endfacet
facet normal 8.506508e-01 -7.176838e-16 -5.257311e-01
	outer loop
		vertex -1.387779e-17 -2.089070e-01 3.319861e-01
		vertex 3.309791e-03 -2.072243e-01 3.373414e-01
		vertex 2.163324e-01 -3.388795e-01 6.820193e-01
	endloop
endfacet
facet normal 5.257311e-01 8.506508e-01 -6.037639e-16
	outer loop
		vertex 2.163324e-01 -3.388795e-01 6.820193e-01
		vertex 3.309791e-03 -2.072243e-01 3.373414e-01
		vertex 2.419200e-01 -3.546935e-01 7.807874e-01
	endloop
endfacet
facet normal -8.506508e-01 -1.454164e-14 5.257311e-01
	outer loop
		vertex 3.309791e-03 -2.072243e-01 3.373414e-01
		vertex 2.993566e-03 -2.070288e-01 3.368298e-01
		vertex -1.387779e-17 -2.089070e-01 3.319861e-01
	endloop
endfacet
facet normal 5.257311e-01 8.506508e-01 1.942728e-12
	outer loop
		vertex 3.309791e-03 -2.072243e-01 3.373414e-01
		vertex 2.993566e-03 -2.070288e-01 3.368298e-01
		vertex 2.419200e-01 -3.546935e-01 7.807874e-01
	endloop
endfacet
facet normal -8.506508e-01 -1.225161e-12 5.257311e-01
	outer loop
		vertex 2.993566e-03 -2.070288e-01 3.368298e-01
		vertex 2.989108e-03 -2.070261e-01 3.368226e-01
		vertex -1.387779e-17 -2.089070e-01 3.319861e-01
	endloop
endfacet
facet normal 5.257311e-01 8.506508e-01 -4.222070e-11
	outer loop
		vertex 2.993566e-03 -2.070288e-01 3.368298e-01
		vertex 2.989108e-03 -2.070261e-01 3.368226e-01
		vertex 2.419200e-01 -3.546935e-01 7.807874e-01
	endloop
endfacet
facet normal 8.506508e-01 7.991665e-17 -5.257311e-01
	outer loop
		vertex 2.989108e-03 -2.070261e-01 3.368226e-01
		vertex -1.387779e-17 -2.089070e-01 3.319861e-01
		vertex -1.444500e-17 -2.051787e-01 3.319861e-01
	endloop
endfacet
facet normal 7.183187e-01 -3.738388e-01 -5.867391e-01
	outer loop
		vertex -1.444500e-17 -2.051787e-01 3.319861e-01
		vertex 0.000000e+00 -2.051787e-01 3.319861e-01
		vertex 2.989108e-03 -2.070261e-01 3.368226e-01
	endloop
endfacet
facet normal 5.257311e-01 8.506508e-01 -6.588664e-14
	outer loop
		vertex 2.989108e-03 -2.070261e-01 3.368226e-01
		vertex 0.000000e+00 -2.051787e-01 3.319861e-01
		vertex 2.419200e-01 -3.546935e-01 7.807874e-01
	endloop
endfacet
facet normal 8.506508e-01 7.991665e-17 -5.257311e-01
	outer loop
		vertex 2.989108e-03 -2.070261e-01 3.368226e-01
		vertex -1.387779e-17 -2.089070e-01 3.319861e-01
		vertex -1.444500e-17 -2.051787e-01 3.319861e-01
	endloop
endfacet
facet normal 0.000000e+00 0.000000e+00 0.000000e+00
	outer loop
		vertex -1.444500e-17 -2.051787e-01 3.319861e-01
		vertex -1.444500e-17 -2.051787e-01 3.319861e-01
		vertex 2.989108e-03 -2.070261e-01 3.368226e-01
	endloop
endfacet
facet normal 5.257311e-01 8.506508e-01 -2.258971e-14
	outer loop
		vertex 2.989108e-03 -2.070261e-01 3.368226e-01
		vertex -1.444500e-17 -2.051787e-01 3.319861e-01
		vertex 2.419200e-01 -3.546935e-01 7.807874e-01
	endloop
endfacet
facet normal 0.000000e+00 0.000000e+00 0.000000e+00
	outer loop
		vertex -1.444500e-17 -2.051787e-01 3.319861e-01
		vertex -1.387779e-17 -2.089070e-01 3.319861e-01
		vertex -1.444500e-17 -2.051787e-01 3.319861e-01
	endloop
endfacet
facet normal 0.000000e+00 0.000000e+00 0.000000e+00
	outer loop
		vertex -1.444500e-17 -2.051787e-01 3.319861e-01
		vertex -1.444500e-17 -2.051787e-01 3.319861e-01
		vertex 0.000000e+00 -2.051787e-01 3.319861e-01
	endloop
endfacet
facet normal -7.498711e-01 3.902598e-01 5.342196e-01
	outer loop
		vertex 0.000000e+00 -2.051787e-01 3.319861e-01
		vertex -1.444500e-17 -2.051787e-01 3.319861e-01
		vertex 2.419200e-01 -3.546935e-01 7.807874e-01
	endloop
endfacet
facet normal 0.000000e+00 0.000000e+00 0.000000e+00
	outer loop
		vertex 0.000000e+00 -2.051787e-01 3.319861e-01
		vertex 0.000000e+00 -2.051787e-01 3.319861e-01
		vertex -1.444500e-17 -2.051787e-01 3.319861e-01
	endloop
endfacet
facet normal 0.000000e+00 0.000000e+00 0.000000e+00
	outer loop
		vertex 0.000000e+00 -2.051787e-01 3.319861e-01
		vertex 0.000000e+00 -2.051787e-01 3.319861e-01
		vertex 2.419200e-01 -3.546935e-01 7.807874e-01
	endloop
endfacet
facet normal -5.257312e-01 8.506508e-01 2.424005e-07
	outer loop
		vertex 0.000000e+00 -2.051787e-01 8.142655e-01
		vertex -2.706033e-01 -3.724207e-01 7.698313e-01
		vertex -2.706033e-01 -3.724207e-01 7.698313e-01
	endloop
endfacet
facet normal 5.257311e-01 -8.506508e-01 0.000000e+00
	outer loop
		vertex -2.706033e-01 -3.724207e-01 7.698313e-01
		vertex -5.551115e-17 -2.051787e-01 8.142655e-01
		vertex 0.000000e+00 -2.051787e-01 8.142655e-01
	endloop
endfacet
facet normal -5.257312e-01 8.506508e-01 2.424005e-07
	outer loop
		vertex -5.551115e-17 -2.051787e-01 8.142655e-01
		vertex -2.706033e-01 -3.724207e-01 7.698313e-01
		vertex -2.706033e-01 -3.724207e-01 7.698313e-01
	endloop
endfacet
facet normal 5.257311e-01 -8.506508e-01 0.000000e+00
	outer loop
		vertex -2.706033e-01 -3.724207e-01 7.698313e-01
		vertex -5.551115e-17 -2.051787e-01 8.142655e-01
		vertex 0.000000e+00 -2.051787e-01 8.142655e-01
	endloop
endfacet
facet normal -5.257311e-01 -8.506508e-01 2.663199e-07
	outer loop
		vertex 0.000000e+00 -2.051787e-01 8.142655e-01
		vertex -5.551115e-17 -2.051787e-01 8.142655e-01
		vertex 2.419200e-01 -3.546935e-01 7.807874e-01
	endloop
endfacet
facet normal 5.257311e-01 -8.506508e-01 6.147121e-14
	outer loop
		vertex -1.110223e-16 -2.051787e-01 8.144621e-01
		vertex -2.689683e-01 -3.714103e-01 7.704558e-01
		vertex -2.706033e-01 -3.724207e-01 7.698313e-01
	endloop
endfacet
facet normal -5.257311e-01 8.506508e-01 0.000000e+00
	outer loop
		vertex -2.706033e-01 -3.724207e-01 7.698313e-01
		vertex -1.110223e-16 -2.051787e-01 8.144621e-01
		vertex -5.551115e-17 -2.051787e-01 8.142655e-01
	endloop
endfacet
facet normal 5.257311e-01 8.506508e-01 2.685158e-13
	outer loop
		vertex -5.551115e-17 -2.051787e-01 8.142655e-01
		vertex -1.110223e-16 -2.051787e-01 8.144621e-01
		vertex 2.419200e-01 -3.546935e-01 7.807874e-01
	endloop
endfacet
facet normal 1.084997e-16 -5.257311e-01 8.506508e-01
	outer loop
		vertex 2.498995e-02 -2.206233e-01 8.636473e-01
		vertex 1.296947e-02 -2.131943e-01 8.682387e-01
		vertex -2.610580e-01 -3.974107e-01 7.543867e-01
	endloop
endfacet
facet normal 1.597237e-02 -5.057916e-01 8.625078e-01
	outer loop
		vertex 2.498995e-02 -2.206233e-01 8.636473e-01
		vertex 1.296947e-02 -2.131943e-01 8.682387e-01
		vertex 2.419200e-01 -3.546935e-01 7.807874e-01
	endloop
endfacet
facet normal 0.000000e+00 5.257311e-01 -8.506508e-01
	outer loop
		vertex 1.296947e-02 -2.131943e-01 8.682387e-01
		vertex -2.610580e-01 -3.974107e-01 7.543867e-01
		vertex -2.661377e-01 -3.696609e-01 7.715370e-01
	endloop
endfacet
facet normal 3.458681e-15 -5.257311e-01 8.506508e-01
	outer loop
		vertex -2.661377e-01 -3.696609e-01 7.715370e-01
		vertex 1.296947e-02 -2.131943e-01 8.682387e-01
		vertex 5.551115e-17 -2.051787e-01 8.731926e-01
	endloop
endfacet
facet normal -5.361034e-01 -8.424482e-01 -5.361034e-02
	outer loop
		vertex 5.551115e-17 -2.051787e-01 8.731926e-01
		vertex 1.296947e-02 -2.131943e-01 8.682387e-01
		vertex 2.419200e-01 -3.546935e-01 7.807874e-01
	endloop
endfacet
facet normal -5.257311e-01 8.506508e-01 4.998316e-16
	outer loop
		vertex 5.551115e-17 -2.051787e-01 8.731926e-01
		vertex 0.000000e+00 -2.051787e-01 8.148050e-01
		vertex -2.661377e-01 -3.696609e-01 7.715370e-01
	endloop
endfacet
facet normal -5.257311e-01 -8.506508e-01 4.998316e-16
	outer loop
		vertex 5.551115e-17 -2.051787e-01 8.731926e-01
		vertex 0.000000e+00 -2.051787e-01 8.148050e-01
		vertex 2.419200e-01 -3.546935e-01 7.807874e-01
	endloop
endfacet
facet normal 5.257311e-01 -8.506508e-01 -1.071428e-13
	outer loop
		vertex 0.000000e+00 -2.051787e-01 8.148050e-01
		vertex -2.661377e-01 -3.696609e-01 7.715370e-01
		vertex -2.689683e-01 -3.714103e-01 7.704558e-01
	endloop
endfacet
facet normal -5.257311e-01 8.506508e-01 0.000000e+00
	outer loop
		vertex -2.689683e-01 -3.714103e-01 7.704558e-01
		vertex 0.000000e+00 -2.051787e-01 8.148050e-01
		vertex 0.000000e+00 -2.051787e-01 8.144621e-01
	endloop
endfacet
facet normal 5.257311e-01 8.506508e-01 -0.000000e+00
	outer loop
		vertex 0.000000e+00 -2.051787e-01 8.144621e-01
		vertex 0.000000e+00 -2.051787e-01 8.148050e-01
		vertex 2.419200e-01 -3.546935e-01 7.807874e-01
	endloop
endfacet
facet normal -5.257311e-01 8.506508e-01 0.000000e+00
	outer loop
		vertex -5.551115e-17 -2.051787e-01 8.047454e-01
		vertex -2.610580e-01 -3.665214e-01 7.543867e-01
		vertex -2.706033e-01 -3.724207e-01 7.698313e-01
	endloop
endfacet
facet normal 5.257311e-01 -8.506508e-01 2.291223e-15
	outer loop
		vertex -2.706033e-01 -3.724207e-01 7.698313e-01
		vertex -5.551115e-17 -2.051787e-01 8.047454e-01
		vertex -5.551115e-17 -2.051787e-01 8.142655e-01
	endloop
endfacet
facet normal -5.257311e-01 -8.506508e-01 2.480050e-15
	outer loop
		vertex -5.551115e-17 -2.051787e-01 8.142655e-01
		vertex -5.551115e-17 -2.051787e-01 8.047454e-01
		vertex 2.419200e-01 -3.546935e-01 7.807874e-01
	endloop
endfacet
facet normal 5.257311e-01 -8.506508e-01 -2.462395e-16
	outer loop
		vertex -5.551115e-17 -2.051787e-01 8.047454e-01
		vertex -2.610580e-01 -3.665214e-01 7.543867e-01
		vertex -2.103538e-01 -3.351845e-01 6.723456e-01
	endloop
endfacet
facet normal -5.257311e-01 8.506508e-01 -4.993740e-16
	outer loop
		vertex -2.103538e-01 -3.351845e-01 6.723456e-01
		vertex -5.551115e-17 -2.051787e-01 8.047454e-01
		vertex 2.775558e-17 -2.051787e-01 7.485546e-01
	endloop
endfacet
facet normal 5.257311e-01 8.506508e-01 1.199239e-15
	outer loop
		vertex 2.775558e-17 -2.051787e-01 7.485546e-01
		vertex -5.551115e-17 -2.051787e-01 8.047454e-01
		vertex 2.419200e-01 -3.546935e-01 7.807874e-01
	endloop
endfacet
facet normal -5.257311e-01 8.506508e-01 6.005169e-16
	outer loop
		vertex 5.551115e-17 -2.051787e-01 7.333736e-01
		vertex -1.981098e-01 -3.276173e-01 6.525345e-01
		vertex -2.103538e-01 -3.351845e-01 6.723456e-01
	endloop
endfacet
facet normal 5.257311e-01 -8.506508e-01 0.000000e+00
	outer loop
		vertex -2.103538e-01 -3.351845e-01 6.723456e-01
		vertex 5.551115e-17 -2.051787e-01 7.333736e-01
		vertex 0.000000e+00 -2.051787e-01 7.485546e-01
	endloop
endfacet
facet normal -5.257311e-01 -8.506508e-01 -3.477665e-15
	outer loop
		vertex 0.000000e+00 -2.051787e-01 7.485546e-01
		vertex 5.551115e-17 -2.051787e-01 7.333736e-01
		vertex 2.419200e-01 -3.546935e-01 7.807874e-01
	endloop
endfacet
facet normal -5.257311e-01 8.506508e-01 9.313505e-15
	outer loop
		vertex 0.000000e+00 -2.051787e-01 7.323682e-01
		vertex -1.973184e-01 -3.271282e-01 6.512539e-01
		vertex -1.981098e-01 -3.276173e-01 6.525345e-01
	endloop
endfacet
facet normal 5.257311e-01 -8.506508e-01 2.963223e-14
	outer loop
		vertex -1.981098e-01 -3.276173e-01 6.525345e-01
		vertex 0.000000e+00 -2.051787e-01 7.323682e-01
		vertex -5.551115e-17 -2.051787e-01 7.333736e-01
	endloop
endfacet
facet normal -5.257311e-01 -8.506508e-01 -2.902503e-14
	outer loop
		vertex -5.551115e-17 -2.051787e-01 7.333736e-01
		vertex 0.000000e+00 -2.051787e-01 7.323682e-01
		vertex 2.419200e-01 -3.546935e-01 7.807874e-01
	endloop
endfacet
facet normal -5.257311e-01 8.506508e-01 4.122824e-15
	outer loop
		vertex 0.000000e+00 -2.051787e-01 7.294754e-01
		vertex -1.950545e-01 -3.257290e-01 6.475908e-01
		vertex -1.968554e-01 -3.268420e-01 6.505047e-01
	endloop
endfacet
facet normal 5.257311e-01 -8.506508e-01 1.301858e-14
	outer loop
		vertex -1.968554e-01 -3.268420e-01 6.505047e-01
		vertex 0.000000e+00 -2.051787e-01 7.294754e-01
		vertex -2.775558e-17 -2.051787e-01 7.317786e-01
	endloop
endfacet
facet normal -5.257311e-01 -8.506508e-01 3.915575e-15
	outer loop
		vertex -2.775558e-17 -2.051787e-01 7.317786e-01
		vertex 0.000000e+00 -2.051787e-01 7.294754e-01
		vertex 2.419200e-01 -3.546935e-01 7.807874e-01
	endloop
endfacet
facet normal 5.257311e-01 -8.506508e-01 -1.708799e-14
	outer loop
		vertex 0.000000e+00 -2.051787e-01 7.323280e-01
		vertex -1.972868e-01 -3.271086e-01 6.512028e-01
		vertex -1.968554e-01 -3.268420e-01 6.505047e-01
	endloop
endfacet
facet normal -5.257311e-01 8.506508e-01 2.728801e-14
	outer loop
		vertex -1.968554e-01 -3.268420e-01 6.505047e-01
		vertex 0.000000e+00 -2.051787e-01 7.323280e-01
		vertex -2.775558e-17 -2.051787e-01 7.317786e-01
	endloop
endfacet
facet normal 5.257311e-01 8.506508e-01 -2.655960e-14
	outer loop
		vertex -2.775558e-17 -2.051787e-01 7.317786e-01
		vertex 0.000000e+00 -2.051787e-01 7.323280e-01
		vertex 2.419200e-01 -3.546935e-01 7.807874e-01
	endloop
endfacet
facet normal 5.257311e-01 -8.506508e-01 -4.667962e-13
	outer loop
		vertex 0.000000e+00 -2.051787e-01 7.323682e-01
		vertex -1.973184e-01 -3.271282e-01 6.512539e-01
		vertex -1.972868e-01 -3.271086e-01 6.512028e-01
	endloop
endfacet
facet normal -5.257311e-01 8.506508e-01 3.722643e-13
	outer loop
		vertex -1.972868e-01 -3.271086e-01 6.512028e-01
		vertex 0.000000e+00 -2.051787e-01 7.323682e-01
		vertex -2.775558e-17 -2.051787e-01 7.323280e-01
	endloop
endfacet
facet normal 5.257311e-01 8.506508e-01 -3.631214e-13
	outer loop
		vertex -2.775558e-17 -2.051787e-01 7.323280e-01
		vertex 0.000000e+00 -2.051787e-01 7.323682e-01
		vertex 2.419200e-01 -3.546935e-01 7.807874e-01
	endloop
endfacet
facet normal -5.257311e-01 8.506508e-01 2.319933e-15
	outer loop
		vertex 5.551115e-17 -2.051787e-01 3.360735e-01
		vertex -1.267894e-03 -2.059623e-01 3.340376e-01
		vertex -1.544553e-01 -3.006373e-01 5.818999e-01
	endloop
endfacet
facet normal 5.257311e-01 -8.506508e-01 3.118923e-16
	outer loop
		vertex -1.544553e-01 -3.006373e-01 5.818999e-01
		vertex 5.551115e-17 -2.051787e-01 3.360735e-01
		vertex -5.551115e-17 -2.051787e-01 6.730246e-01
	endloop
endfacet
facet normal -5.257311e-01 -8.506508e-01 -3.308277e-17
	outer loop
		vertex -5.551115e-17 -2.051787e-01 6.730246e-01
		vertex 5.551115e-17 -2.051787e-01 3.360735e-01
		vertex 2.419200e-01 -3.546935e-01 7.807874e-01
	endloop
endfacet
facet normal 5.257311e-01 -8.506508e-01 -4.157835e-16
	outer loop
		vertex 5.551115e-17 -2.051787e-01 7.238218e-01
		vertex -1.906854e-01 -3.230288e-01 6.405216e-01
		vertex -1.544553e-01 -3.006373e-01 5.818999e-01
	endloop
endfacet
facet normal -5.257311e-01 8.506508e-01 5.642352e-16
	outer loop
		vertex -1.544553e-01 -3.006373e-01 5.818999e-01
		vertex 5.551115e-17 -2.051787e-01 7.238218e-01
		vertex -2.775558e-17 -2.051787e-01 6.730246e-01
	endloop
endfacet
facet normal 5.257311e-01 8.506508e-01 -1.326573e-15
	outer loop
		vertex -2.775558e-17 -2.051787e-01 6.730246e-01
		vertex 5.551115e-17 -2.051787e-01 7.238218e-01
		vertex 2.419200e-01 -3.546935e-01 7.807874e-01
	endloop
endfacet
facet normal 5.257311e-01 -8.506508e-01 -1.019651e-14
	outer loop
		vertex 0.000000e+00 -2.051787e-01 7.294754e-01
		vertex -1.950545e-01 -3.257290e-01 6.475908e-01
		vertex -1.906854e-01 -3.230288e-01 6.405216e-01
	endloop
endfacet
facet normal -5.257311e-01 8.506508e-01 1.642560e-14
	outer loop
		vertex -1.906854e-01 -3.230288e-01 6.405216e-01
		vertex 0.000000e+00 -2.051787e-01 7.294754e-01
		vertex -1.110223e-16 -2.051787e-01 7.238218e-01
	endloop
endfacet
facet normal 5.257311e-01 8.506508e-01 -6.147880e-15
	outer loop
		vertex -1.110223e-16 -2.051787e-01 7.238218e-01
		vertex 0.000000e+00 -2.051787e-01 7.294754e-01
		vertex 2.419200e-01 -3.546935e-01 7.807874e-01
	endloop
endfacet
facet normal -8.665180e-01 -3.580088e-01 3.478164e-01
	outer loop
		vertex -2.591243e-17 -2.051787e-01 3.319861e-01
		vertex -1.444500e-17 -2.051787e-01 3.319861e-01
		vertex 2.419200e-01 -3.546935e-01 7.807874e-01
	endloop
endfacet
facet normal 0.000000e+00 -9.341723e-01 -3.568221e-01
	outer loop
		vertex -2.591243e-17 -2.051787e-01 3.319861e-01
		vertex -1.444500e-17 -2.051787e-01 3.319861e-01
		vertex -6.681562e-04 -2.055916e-01 3.330672e-01
	endloop
endfacet
facet normal -5.257311e-01 8.506508e-01 1.480506e-14
	outer loop
		vertex -6.681562e-04 -2.055916e-01 3.330672e-01
		vertex -1.008308e-17 -2.051787e-01 3.341439e-01
		vertex -2.591243e-17 -2.051787e-01 3.319861e-01
	endloop
endfacet
facet normal 5.257311e-01 8.506508e-01 7.084969e-15
	outer loop
		vertex -2.591243e-17 -2.051787e-01 3.319861e-01
		vertex -1.008308e-17 -2.051787e-01 3.341439e-01
		vertex 2.419200e-01 -3.546935e-01 7.807874e-01
	endloop
endfacet
facet normal 0.000000e+00 -9.341723e-01 -3.568221e-01
	outer loop
		vertex -2.591243e-17 -2.051787e-01 3.319861e-01
		vertex -1.444500e-17 -2.051787e-01 3.319861e-01
		vertex -6.681562e-04 -2.055916e-01 3.330672e-01
	endloop
endfacet
facet normal 0.000000e+00 9.344319e-01 3.561420e-01
	outer loop
		vertex -6.681562e-04 -2.055916e-01 3.330672e-01
		vertex 0.000000e+00 -2.051787e-01 3.319861e-01
		vertex -2.591243e-17 -2.051787e-01 3.319861e-01
	endloop
endfacet
facet normal 0.000000e+00 -9.487376e-01 -3.160648e-01
	outer loop
		vertex -2.591243e-17 -2.051787e-01 3.319861e-01
		vertex 0.000000e+00 -2.051787e-01 3.319861e-01
		vertex 2.419200e-01 -3.546935e-01 7.807874e-01
	endloop
endfacet
facet normal 0.000000e+00 9.341723e-01 3.568221e-01
	outer loop
		vertex 0.000000e+00 -2.051787e-01 3.319861e-01
		vertex -1.444500e-17 -2.051787e-01 3.319861e-01
		vertex -6.681562e-04 -2.055916e-01 3.330672e-01
	endloop
endfacet
facet normal 5.257311e-01 -8.506508e-01 -8.495730e-15
	outer loop
		vertex -6.681562e-04 -2.055916e-01 3.330672e-01
		vertex 0.000000e+00 -2.051787e-01 3.319861e-01
		vertex -1.008308e-17 -2.051787e-01 3.341439e-01
	endloop
endfacet
facet normal -5.257311e-01 -8.506508e-01 -1.339818e-14
	outer loop
		vertex -1.008308e-17 -2.051787e-01 3.341439e-01
		vertex 0.000000e+00 -2.051787e-01 3.319861e-01
		vertex 2.419200e-01 -3.546935e-01 7.807874e-01
	endloop
endfacet
facet normal 5.257311e-01 -8.506508e-01 4.016048e-14
	outer loop
		vertex -5.551115e-17 -2.051787e-01 3.357773e-01
		vertex -1.175699e-03 -2.059053e-01 3.338884e-01
		vertex -6.681562e-04 -2.055916e-01 3.330672e-01
	endloop
endfacet
facet normal -5.257311e-01 8.506508e-01 -3.862331e-14
	outer loop
		vertex -6.681562e-04 -2.055916e-01 3.330672e-01
		vertex -5.551115e-17 -2.051787e-01 3.357773e-01
		vertex 1.962406e-17 -2.051787e-01 3.341439e-01
	endloop
endfacet
facet normal 5.257311e-01 8.506508e-01 9.728835e-15
	outer loop
		vertex 1.962406e-17 -2.051787e-01 3.341439e-01
		vertex -5.551115e-17 -2.051787e-01 3.357773e-01
		vertex 2.419200e-01 -3.546935e-01 7.807874e-01
	endloop
endfacet
facet normal -5.257311e-01 8.506508e-01 -1.595031e-13
	outer loop
		vertex 0.000000e+00 -2.051787e-01 3.357773e-01
		vertex -1.175699e-03 -2.059053e-01 3.338884e-01
		vertex -1.267894e-03 -2.059623e-01 3.340376e-01
	endloop
endfacet
facet normal 5.257311e-01 -8.506508e-01 1.323999e-13
	outer loop
		vertex -1.267894e-03 -2.059623e-01 3.340376e-01
		vertex 0.000000e+00 -2.051787e-01 3.357773e-01
		vertex 1.517883e-17 -2.051787e-01 3.360735e-01
	endloop
endfacet
facet normal -5.257311e-01 -8.506508e-01 1.863861e-13
	outer loop
		vertex 1.517883e-17 -2.051787e-01 3.360735e-01
		vertex 0.000000e+00 -2.051787e-01 3.357773e-01
		vertex 2.419200e-01 -3.546935e-01 7.807874e-01
	endloop
endfacet
endsolid MIKE666
