solid MIKE666
facet normal 5.516135e-01 2.758067e-01 7.871806e-01
	outer loop
		vertex -2.610580e-01 3.974107e-01 7.543867e-01
		vertex -1.702123e-01 6.352478e-01 6.073953e-01
		vertex -2.610580e-01 3.974107e-01 7.543867e-01
	endloop
endfacet
facet normal 0.000000e+00 -5.257311e-01 -8.506508e-01
	outer loop
		vertex -1.702123e-01 6.352478e-01 6.073953e-01
		vertex -1.657333e-01 6.469738e-01 6.001482e-01
		vertex 1.348440e-01 6.469738e-01 6.001482e-01
	endloop
endfacet
facet normal -3.903270e-01 -3.753145e-01 -8.407044e-01
	outer loop
		vertex -1.702123e-01 6.352478e-01 6.073953e-01
		vertex -1.657333e-01 6.469738e-01 6.001482e-01
		vertex -2.610580e-01 3.974107e-01 7.543867e-01
	endloop
endfacet
facet normal -8.816565e-01 4.408282e-01 1.683814e-01
	outer loop
		vertex -1.657333e-01 6.469738e-01 6.001482e-01
		vertex -1.657333e-01 6.469738e-01 6.001482e-01
		vertex -2.610580e-01 3.974107e-01 7.543867e-01
	endloop
endfacet
facet normal -8.506508e-01 -8.577186e-16 -5.257311e-01
	outer loop
		vertex -1.657333e-01 6.469738e-01 6.001482e-01
		vertex -1.614931e-01 6.357661e-01 5.932874e-01
		vertex -2.610580e-01 3.974107e-01 7.543867e-01
	endloop
endfacet
facet normal 8.506508e-01 6.201469e-15 5.257311e-01
	outer loop
		vertex -1.551986e-01 6.191283e-01 5.831027e-01
		vertex -1.590106e-01 6.292042e-01 5.892706e-01
		vertex -2.610580e-01 3.974107e-01 7.543867e-01
	endloop
endfacet
facet normal -8.506508e-01 7.050204e-15 -5.257311e-01
	outer loop
		vertex -1.614931e-01 6.357661e-01 5.932874e-01
		vertex -1.590106e-01 6.292042e-01 5.892706e-01
		vertex -2.610580e-01 3.974107e-01 7.543867e-01
	endloop
endfacet
facet normal -8.506508e-01 1.615932e-14 -5.257311e-01
	outer loop
		vertex -1.589433e-02 2.509190e-01 3.577036e-01
		vertex -1.306695e-02 2.434456e-01 3.531288e-01
		vertex -2.610580e-01 3.974107e-01 7.543867e-01
	endloop
endfacet
facet normal 8.506508e-01 -1.208343e-15 5.257311e-01
	outer loop
		vertex -8.364103e-03 2.310151e-01 3.455195e-01
		vertex -1.306695e-02 2.434456e-01 3.531288e-01
		vertex -2.610580e-01 3.974107e-01 7.543867e-01
	endloop
endfacet
facet normal 8.506508e-01 -2.635198e-15 5.257311e-01
	outer loop
		vertex -1.540880e-01 6.161929e-01 5.813057e-01
		vertex -1.551986e-01 6.191283e-01 5.831027e-01
		vertex -2.610580e-01 3.974107e-01 7.543867e-01
	endloop
endfacet
facet normal -8.506508e-01 -2.294593e-16 -5.257311e-01
	outer loop
		vertex -1.540880e-01 6.161929e-01 5.813057e-01
		vertex -5.898888e-02 3.648266e-01 4.274321e-01
		vertex -2.610580e-01 3.974107e-01 7.543867e-01
	endloop
endfacet
facet normal 8.506508e-01 1.227204e-15 5.257311e-01
	outer loop
		vertex -5.685881e-02 3.591964e-01 4.239856e-01
		vertex -5.898888e-02 3.648266e-01 4.274321e-01
		vertex -2.610580e-01 3.974107e-01 7.543867e-01
	endloop
endfacet
facet normal 8.506508e-01 8.878171e-16 5.257311e-01
	outer loop
		vertex -1.589433e-02 2.509190e-01 3.577036e-01
		vertex -5.685881e-02 3.591964e-01 4.239856e-01
		vertex -2.610580e-01 3.974107e-01 7.543867e-01
	endloop
endfacet
facet normal -0.000000e+00 -5.257311e-01 -8.506508e-01
	outer loop
		vertex 1.657333e-01 6.469738e-01 6.001482e-01
		vertex 1.664565e-01 6.450804e-01 6.013184e-01
		vertex 1.348440e-01 6.469738e-01 6.001482e-01
	endloop
endfacet
facet normal 0.000000e+00 0.000000e+00 0.000000e+00
	outer loop
		vertex 1.657333e-01 6.469738e-01 6.001482e-01
		vertex 1.657333e-01 6.469738e-01 6.001482e-01
		vertex 1.348440e-01 6.469738e-01 6.001482e-01
	endloop
endfacet
facet normal 0.000000e+00 0.000000e+00 0.000000e+00
	outer loop
		vertex 1.657333e-01 6.469738e-01 6.001482e-01
		vertex -1.657333e-01 6.469738e-01 6.001482e-01
		vertex 1.348440e-01 6.469738e-01 6.001482e-01
	endloop
endfacet
facet normal 0.000000e+00 0.000000e+00 0.000000e+00
	outer loop
		vertex 1.348440e-01 6.469738e-01 6.001482e-01
		vertex 1.657333e-01 6.469738e-01 6.001482e-01
		vertex 1.657333e-01 6.469738e-01 6.001482e-01
	endloop
endfacet
facet normal 0.000000e+00 0.000000e+00 0.000000e+00
	outer loop
		vertex 1.657333e-01 6.469738e-01 6.001482e-01
		vertex -1.657333e-01 6.469738e-01 6.001482e-01
		vertex 1.348440e-01 6.469738e-01 6.001482e-01
	endloop
endfacet
facet normal 0.000000e+00 0.000000e+00 0.000000e+00
	outer loop
		vertex 1.348440e-01 6.469738e-01 6.001482e-01
		vertex 1.657333e-01 6.469738e-01 6.001482e-01
		vertex 1.657333e-01 6.469738e-01 6.001482e-01
	endloop
endfacet
facet normal 0.000000e+00 0.000000e+00 -1.000000e+00
	outer loop
		vertex 1.657333e-01 6.469738e-01 6.001482e-01
		vertex -1.657333e-01 6.469738e-01 6.001482e-01
		vertex -1.657333e-01 6.469738e-01 6.001482e-01
	endloop
endfacet
facet normal 0.000000e+00 0.000000e+00 -1.000000e+00
	outer loop
		vertex -1.657333e-01 6.469738e-01 6.001482e-01
		vertex 1.657333e-01 6.469738e-01 6.001482e-01
		vertex 1.657333e-01 6.469738e-01 6.001482e-01
	endloop
endfacet
facet normal -0.000000e+00 0.000000e+00 -1.000000e+00
	outer loop
		vertex 1.657333e-01 6.469738e-01 6.001482e-01
		vertex -1.657333e-01 6.469738e-01 6.001482e-01
		vertex -1.657333e-01 6.469738e-01 6.001482e-01
	endloop
endfacet
facet normal 0.000000e+00 0.000000e+00 -1.000000e+00
	outer loop
		vertex -1.657333e-01 6.469738e-01 6.001482e-01
		vertex 1.657333e-01 6.469738e-01 6.001482e-01
		vertex 1.657333e-01 6.469738e-01 6.001482e-01
	endloop
endfacet
facet normal -0.000000e+00 0.000000e+00 -1.000000e+00
	outer loop
		vertex 1.657333e-01 6.469738e-01 6.001482e-01
		vertex -1.657333e-01 6.469738e-01 6.001482e-01
		vertex 1.348440e-01 6.469738e-01 6.001482e-01
	endloop
endfacet
facet normal -0.000000e+00 0.000000e+00 1.000000e+00
	outer loop
		vertex 1.348440e-01 6.469738e-01 6.001482e-01
		vertex 1.657333e-01 6.469738e-01 6.001482e-01
		vertex 1.657333e-01 6.469738e-01 6.001482e-01
	endloop
endfacet
facet normal 0.000000e+00 0.000000e+00 -1.000000e+00
	outer loop
		vertex 1.657333e-01 6.469738e-01 6.001482e-01
		vertex -1.657333e-01 6.469738e-01 6.001482e-01
		vertex 1.348440e-01 6.469738e-01 6.001482e-01
	endloop
endfacet
facet normal -0.000000e+00 0.000000e+00 1.000000e+00
	outer loop
		vertex 1.348440e-01 6.469738e-01 6.001482e-01
		vertex 1.657333e-01 6.469738e-01 6.001482e-01
		vertex 1.657333e-01 6.469738e-01 6.001482e-01
	endloop
endfacet
facet normal 0.000000e+00 0.000000e+00 -1.000000e+00
	outer loop
		vertex 1.657333e-01 6.469738e-01 6.001482e-01
		vertex -1.657333e-01 6.469738e-01 6.001482e-01
		vertex -1.657333e-01 6.469738e-01 6.001482e-01
	endloop
endfacet
facet normal 0.000000e+00 0.000000e+00 -1.000000e+00
	outer loop
		vertex -1.657333e-01 6.469738e-01 6.001482e-01
		vertex 1.657333e-01 6.469738e-01 6.001482e-01
		vertex 1.657333e-01 6.469738e-01 6.001482e-01
	endloop
endfacet
facet normal -0.000000e+00 0.000000e+00 -1.000000e+00
	outer loop
		vertex 1.657333e-01 6.469738e-01 6.001482e-01
		vertex -1.657333e-01 6.469738e-01 6.001482e-01
		vertex -1.657333e-01 6.469738e-01 6.001482e-01
	endloop
endfacet
facet normal 0.000000e+00 0.000000e+00 -1.000000e+00
	outer loop
		vertex -1.657333e-01 6.469738e-01 6.001482e-01
		vertex 1.657333e-01 6.469738e-01 6.001482e-01
		vertex 1.657333e-01 6.469738e-01 6.001482e-01
	endloop
endfacet
facet normal 0.000000e+00 -5.220944e-01 8.528877e-01
	outer loop
		vertex 1.657333e-01 6.469738e-01 6.001482e-01
		vertex -1.657333e-01 6.469738e-01 6.001482e-01
		vertex -1.614931e-01 6.357661e-01 5.932874e-01
	endloop
endfacet
facet normal 1.663611e-16 5.220944e-01 -8.528877e-01
	outer loop
		vertex -1.614931e-01 6.357661e-01 5.932874e-01
		vertex 1.657333e-01 6.469738e-01 6.001482e-01
		vertex 1.633732e-01 6.407354e-01 5.963294e-01
	endloop
endfacet
facet normal 2.073330e-16 5.220944e-01 -8.528877e-01
	outer loop
		vertex 1.597664e-01 6.312019e-01 5.904935e-01
		vertex -1.551986e-01 6.191283e-01 5.831027e-01
		vertex -1.590106e-01 6.292042e-01 5.892706e-01
	endloop
endfacet
facet normal -3.079333e-16 -5.220944e-01 8.528877e-01
	outer loop
		vertex -1.590106e-01 6.292042e-01 5.892706e-01
		vertex 1.597664e-01 6.312019e-01 5.904935e-01
		vertex 1.619656e-01 6.370150e-01 5.940520e-01
	endloop
endfacet
facet normal -3.234612e-17 -5.220944e-01 8.528877e-01
	outer loop
		vertex 1.633732e-01 6.407354e-01 5.963294e-01
		vertex -1.614931e-01 6.357661e-01 5.932874e-01
		vertex -1.590106e-01 6.292042e-01 5.892706e-01
	endloop
endfacet
facet normal -5.324362e-16 5.220944e-01 -8.528877e-01
	outer loop
		vertex -1.590106e-01 6.292042e-01 5.892706e-01
		vertex 1.633732e-01 6.407354e-01 5.963294e-01
		vertex 1.619656e-01 6.370150e-01 5.940520e-01
	endloop
endfacet
facet normal 3.695267e-15 -5.220944e-01 8.528877e-01
	outer loop
		vertex 2.678748e-02 2.797118e-01 3.753291e-01
		vertex -1.589433e-02 2.509190e-01 3.577036e-01
		vertex -1.306695e-02 2.434456e-01 3.531288e-01
	endloop
endfacet
facet normal 0.000000e+00 5.220944e-01 -8.528877e-01
	outer loop
		vertex -1.306695e-02 2.434456e-01 3.531288e-01
		vertex 2.678748e-02 2.797118e-01 3.753291e-01
		vertex 2.231089e-02 2.678792e-01 3.680859e-01
	endloop
endfacet
facet normal -8.598522e-16 5.220944e-01 -8.528877e-01
	outer loop
		vertex 1.459926e-02 2.474958e-01 3.556082e-01
		vertex -8.364103e-03 2.310151e-01 3.455195e-01
		vertex -1.306695e-02 2.434456e-01 3.531288e-01
	endloop
endfacet
facet normal 3.363281e-16 -5.220944e-01 8.528877e-01
	outer loop
		vertex -1.306695e-02 2.434456e-01 3.531288e-01
		vertex 1.459926e-02 2.474958e-01 3.556082e-01
		vertex 2.231089e-02 2.678792e-01 3.680859e-01
	endloop
endfacet
facet normal 4.083236e-16 5.220944e-01 -8.528877e-01
	outer loop
		vertex 1.591168e-01 6.294850e-01 5.894425e-01
		vertex -1.540880e-01 6.161929e-01 5.813057e-01
		vertex -1.551986e-01 6.191283e-01 5.831027e-01
	endloop
endfacet
facet normal 2.082161e-15 -5.220944e-01 8.528877e-01
	outer loop
		vertex -1.551986e-01 6.191283e-01 5.831027e-01
		vertex 1.591168e-01 6.294850e-01 5.894425e-01
		vertex 1.597664e-01 6.312019e-01 5.904935e-01
	endloop
endfacet
facet normal -4.161515e-17 -5.220944e-01 8.528877e-01
	outer loop
		vertex 1.591168e-01 6.294850e-01 5.894425e-01
		vertex -1.540880e-01 6.161929e-01 5.813057e-01
		vertex -5.898888e-02 3.648266e-01 4.274321e-01
	endloop
endfacet
facet normal 4.365954e-16 5.220944e-01 -8.528877e-01
	outer loop
		vertex -5.898888e-02 3.648266e-01 4.274321e-01
		vertex 1.591168e-01 6.294850e-01 5.894425e-01
		vertex 8.304734e-02 4.284180e-01 4.663595e-01
	endloop
endfacet
facet normal 3.256095e-15 5.220944e-01 -8.528877e-01
	outer loop
		vertex 8.070536e-02 4.222276e-01 4.625701e-01
		vertex -5.685881e-02 3.591964e-01 4.239856e-01
		vertex -5.898888e-02 3.648266e-01 4.274321e-01
	endloop
endfacet
facet normal 0.000000e+00 -5.220944e-01 8.528877e-01
	outer loop
		vertex -5.898888e-02 3.648266e-01 4.274321e-01
		vertex 8.070536e-02 4.222276e-01 4.625701e-01
		vertex 8.304734e-02 4.284180e-01 4.663595e-01
	endloop
endfacet
facet normal -8.926688e-16 5.220944e-01 -8.528877e-01
	outer loop
		vertex 2.678748e-02 2.797118e-01 3.753291e-01
		vertex -1.589433e-02 2.509190e-01 3.577036e-01
		vertex -5.685881e-02 3.591964e-01 4.239856e-01
	endloop
endfacet
facet normal 2.282292e-16 -5.220944e-01 8.528877e-01
	outer loop
		vertex -5.685881e-02 3.591964e-01 4.239856e-01
		vertex 2.678748e-02 2.797118e-01 3.753291e-01
		vertex 8.070536e-02 4.222276e-01 4.625701e-01
	endloop
endfacet
facet normal -2.148734e-16 5.220944e-01 -8.528877e-01
	outer loop
		vertex 1.459926e-02 2.474958e-01 3.556082e-01
		vertex 1.734723e-17 2.089070e-01 3.319861e-01
		vertex -8.364103e-03 2.310151e-01 3.455195e-01
	endloop
endfacet
facet normal 8.506508e-01 -1.304466e-15 5.257311e-01
	outer loop
		vertex 1.734723e-17 2.089070e-01 3.319861e-01
		vertex -8.364103e-03 2.310151e-01 3.455195e-01
		vertex -2.610580e-01 3.974107e-01 7.543867e-01
	endloop
endfacet
facet normal -1.746300e-14 -5.257311e-01 -8.506508e-01
	outer loop
		vertex -2.689683e-01 3.714103e-01 7.704558e-01
		vertex -2.706033e-01 3.724207e-01 7.698313e-01
		vertex -2.610580e-01 3.974107e-01 7.543867e-01
	endloop
endfacet
facet normal 0.000000e+00 0.000000e+00 0.000000e+00
	outer loop
		vertex -2.689683e-01 3.714103e-01 7.704558e-01
		vertex -2.706033e-01 3.724207e-01 7.698313e-01
		vertex -2.689683e-01 3.714103e-01 7.704558e-01
	endloop
endfacet
facet normal 0.000000e+00 0.000000e+00 0.000000e+00
	outer loop
		vertex -2.706033e-01 3.724207e-01 7.698313e-01
		vertex -2.610580e-01 3.974107e-01 7.543867e-01
		vertex -2.610580e-01 3.974107e-01 7.543867e-01
	endloop
endfacet
facet normal 0.000000e+00 0.000000e+00 0.000000e+00
	outer loop
		vertex -2.610580e-01 3.974107e-01 7.543867e-01
		vertex -2.706033e-01 3.724207e-01 7.698313e-01
		vertex -2.706033e-01 3.724207e-01 7.698313e-01
	endloop
endfacet
facet normal 0.000000e+00 0.000000e+00 0.000000e+00
	outer loop
		vertex -2.706033e-01 3.724207e-01 7.698313e-01
		vertex -2.610580e-01 3.974107e-01 7.543867e-01
		vertex -2.610580e-01 3.974107e-01 7.543867e-01
	endloop
endfacet
facet normal 0.000000e+00 0.000000e+00 0.000000e+00
	outer loop
		vertex -2.610580e-01 3.974107e-01 7.543867e-01
		vertex -2.706033e-01 3.724207e-01 7.698313e-01
		vertex -2.706033e-01 3.724207e-01 7.698313e-01
	endloop
endfacet
facet normal 0.000000e+00 0.000000e+00 0.000000e+00
	outer loop
		vertex -2.706033e-01 3.724207e-01 7.698313e-01
		vertex -2.706033e-01 3.724207e-01 7.698313e-01
		vertex -2.689683e-01 3.714103e-01 7.704558e-01
	endloop
endfacet
facet normal 8.506508e-01 6.552681e-15 5.257311e-01
	outer loop
		vertex -2.706033e-01 3.724207e-01 7.698313e-01
		vertex -2.691248e-01 3.715070e-01 7.674391e-01
		vertex -2.610580e-01 3.974107e-01 7.543867e-01
	endloop
endfacet
facet normal -5.257311e-01 -8.506508e-01 -8.569909e-15
	outer loop
		vertex -2.706033e-01 3.724207e-01 7.698313e-01
		vertex -2.691248e-01 3.715070e-01 7.674391e-01
		vertex -2.689683e-01 3.714103e-01 7.704558e-01
	endloop
endfacet
facet normal 8.506508e-01 0.000000e+00 5.257311e-01
	outer loop
		vertex -2.691248e-01 3.715070e-01 7.674391e-01
		vertex -2.610580e-01 3.665214e-01 7.543867e-01
		vertex -2.610580e-01 3.974107e-01 7.543867e-01
	endloop
endfacet
facet normal -5.257311e-01 -8.506508e-01 9.287302e-15
	outer loop
		vertex -2.691248e-01 3.715070e-01 7.674391e-01
		vertex -2.610580e-01 3.665214e-01 7.543867e-01
		vertex -2.689683e-01 3.714103e-01 7.704558e-01
	endloop
endfacet
facet normal -8.506508e-01 0.000000e+00 -5.257311e-01
	outer loop
		vertex -2.581843e-01 3.647454e-01 7.497370e-01
		vertex -2.610580e-01 3.665214e-01 7.543867e-01
		vertex -2.610580e-01 3.974107e-01 7.543867e-01
	endloop
endfacet
facet normal 5.257311e-01 8.506508e-01 1.410909e-14
	outer loop
		vertex -2.581843e-01 3.647454e-01 7.497370e-01
		vertex -2.610580e-01 3.665214e-01 7.543867e-01
		vertex -2.689683e-01 3.714103e-01 7.704558e-01
	endloop
endfacet
facet normal 8.506508e-01 9.193990e-15 5.257311e-01
	outer loop
		vertex -2.581843e-01 3.647454e-01 7.497370e-01
		vertex -2.580700e-01 3.646748e-01 7.495521e-01
		vertex -2.610580e-01 3.974107e-01 7.543867e-01
	endloop
endfacet
facet normal -5.257311e-01 -8.506508e-01 1.658374e-13
	outer loop
		vertex -2.581843e-01 3.647454e-01 7.497370e-01
		vertex -2.580700e-01 3.646748e-01 7.495521e-01
		vertex -2.689683e-01 3.714103e-01 7.704558e-01
	endloop
endfacet
facet normal 8.506508e-01 -1.554595e-15 5.257311e-01
	outer loop
		vertex -2.580700e-01 3.646748e-01 7.495521e-01
		vertex -2.429358e-01 3.553213e-01 7.250645e-01
		vertex -2.610580e-01 3.974107e-01 7.543867e-01
	endloop
endfacet
facet normal -5.257311e-01 -8.506508e-01 -1.514220e-14
	outer loop
		vertex -2.580700e-01 3.646748e-01 7.495521e-01
		vertex -2.429358e-01 3.553213e-01 7.250645e-01
		vertex -2.689683e-01 3.714103e-01 7.704558e-01
	endloop
endfacet
facet normal -8.506508e-01 7.649219e-16 -5.257311e-01
	outer loop
		vertex -2.139870e-01 3.374300e-01 6.782244e-01
		vertex -2.429358e-01 3.553213e-01 7.250645e-01
		vertex -2.610580e-01 3.974107e-01 7.543867e-01
	endloop
endfacet
facet normal 5.257311e-01 8.506508e-01 1.948608e-14
	outer loop
		vertex -2.139870e-01 3.374300e-01 6.782244e-01
		vertex -2.429358e-01 3.553213e-01 7.250645e-01
		vertex -2.689683e-01 3.714103e-01 7.704558e-01
	endloop
endfacet
facet normal 8.506508e-01 1.224696e-15 5.257311e-01
	outer loop
		vertex -2.139870e-01 3.374300e-01 6.782244e-01
		vertex -2.049466e-01 3.318427e-01 6.635966e-01
		vertex -2.610580e-01 3.974107e-01 7.543867e-01
	endloop
endfacet
facet normal -5.257311e-01 -8.506508e-01 6.083737e-14
	outer loop
		vertex -2.139870e-01 3.374300e-01 6.782244e-01
		vertex -2.049466e-01 3.318427e-01 6.635966e-01
		vertex -2.689683e-01 3.714103e-01 7.704558e-01
	endloop
endfacet
facet normal -8.506508e-01 5.578097e-16 -5.257311e-01
	outer loop
		vertex -2.049466e-01 3.318427e-01 6.635966e-01
		vertex -2.610580e-01 3.974107e-01 7.543867e-01
		vertex 1.734723e-17 2.089070e-01 3.319861e-01
	endloop
endfacet
facet normal -8.506508e-01 1.266089e-16 -5.257311e-01
	outer loop
		vertex 1.734723e-17 2.089070e-01 3.319861e-01
		vertex 1.679232e-17 2.051787e-01 3.319861e-01
		vertex -2.049466e-01 3.318427e-01 6.635966e-01
	endloop
endfacet
facet normal -5.257311e-01 -8.506508e-01 -2.201934e-15
	outer loop
		vertex -2.049466e-01 3.318427e-01 6.635966e-01
		vertex 1.679232e-17 2.051787e-01 3.319861e-01
		vertex -2.689683e-01 3.714103e-01 7.704558e-01
	endloop
endfacet
facet normal -1.075432e-16 -5.257311e-01 -8.506508e-01
	outer loop
		vertex 1.324589e-01 2.870428e-01 8.225978e-01
		vertex -1.702123e-01 6.352478e-01 6.073953e-01
		vertex 1.348440e-01 6.469738e-01 6.001482e-01
	endloop
endfacet
facet normal 0.000000e+00 5.257311e-01 8.506508e-01
	outer loop
		vertex 1.348440e-01 6.469738e-01 6.001482e-01
		vertex 1.324589e-01 2.870428e-01 8.225978e-01
		vertex 2.456133e-01 3.569761e-01 7.793767e-01
	endloop
endfacet
facet normal 0.000000e+00 0.000000e+00 0.000000e+00
	outer loop
		vertex 2.456133e-01 3.569761e-01 7.793767e-01
		vertex 1.324589e-01 2.870428e-01 8.225978e-01
		vertex 1.324589e-01 2.870428e-01 8.225978e-01
	endloop
endfacet
facet normal -2.848201e-16 5.257311e-01 8.506508e-01
	outer loop
		vertex 1.324589e-01 2.870428e-01 8.225978e-01
		vertex -1.702123e-01 6.352478e-01 6.073953e-01
		vertex -2.610580e-01 3.974107e-01 7.543867e-01
	endloop
endfacet
facet normal -3.495102e-16 5.257311e-01 8.506508e-01
	outer loop
		vertex -2.610580e-01 3.974107e-01 7.543867e-01
		vertex 2.498995e-02 2.206233e-01 8.636473e-01
		vertex 1.324589e-01 2.870428e-01 8.225978e-01
	endloop
endfacet
facet normal -0.000000e+00 5.257311e-01 8.506508e-01
	outer loop
		vertex 1.324589e-01 2.870428e-01 8.225978e-01
		vertex 2.498995e-02 2.206233e-01 8.636473e-01
		vertex 1.324589e-01 2.870428e-01 8.225978e-01
	endloop
endfacet
facet normal -2.046145e-15 5.257311e-01 8.506508e-01
	outer loop
		vertex 2.597815e-01 3.657325e-01 7.739649e-01
		vertex 1.664565e-01 6.450804e-01 6.013184e-01
		vertex 1.348440e-01 6.469738e-01 6.001482e-01
	endloop
endfacet
facet normal -1.162222e-15 -5.257311e-01 -8.506508e-01
	outer loop
		vertex 1.348440e-01 6.469738e-01 6.001482e-01
		vertex 2.597815e-01 3.657325e-01 7.739649e-01
		vertex 2.456133e-01 3.569761e-01 7.793767e-01
	endloop
endfacet
facet normal -1.041754e-01 6.315634e-01 7.682936e-01
	outer loop
		vertex 2.456133e-01 3.569761e-01 7.793767e-01
		vertex 2.597815e-01 3.657325e-01 7.739649e-01
		vertex 1.324589e-01 2.870428e-01 8.225978e-01
	endloop
endfacet
facet normal 1.011488e-15 5.257311e-01 8.506508e-01
	outer loop
		vertex 2.597815e-01 3.657325e-01 7.739649e-01
		vertex 2.706033e-01 3.724207e-01 7.698313e-01
		vertex 1.664565e-01 6.450804e-01 6.013184e-01
	endloop
endfacet
facet normal -9.291167e-02 6.289406e-01 7.718816e-01
	outer loop
		vertex 2.597815e-01 3.657325e-01 7.739649e-01
		vertex 2.706033e-01 3.724207e-01 7.698313e-01
		vertex 1.324589e-01 2.870428e-01 8.225978e-01
	endloop
endfacet
facet normal 0.000000e+00 0.000000e+00 0.000000e+00
	outer loop
		vertex 2.706033e-01 3.724207e-01 7.698313e-01
		vertex 2.706033e-01 3.724207e-01 7.698313e-01
		vertex 1.664565e-01 6.450804e-01 6.013184e-01
	endloop
endfacet
facet normal 0.000000e+00 0.000000e+00 0.000000e+00
	outer loop
		vertex 2.706033e-01 3.724207e-01 7.698313e-01
		vertex 2.706033e-01 3.724207e-01 7.698313e-01
		vertex 1.324589e-01 2.870428e-01 8.225978e-01
	endloop
endfacet
facet normal -9.701425e-01 -2.425356e-01 0.000000e+00
	outer loop
		vertex 2.706033e-01 3.724207e-01 7.698313e-01
		vertex 1.657333e-01 6.469738e-01 6.001482e-01
		vertex 1.664565e-01 6.450804e-01 6.013184e-01
	endloop
endfacet
facet normal 0.000000e+00 0.000000e+00 0.000000e+00
	outer loop
		vertex 1.664565e-01 6.450804e-01 6.013184e-01
		vertex 2.706033e-01 3.724207e-01 7.698313e-01
		vertex 2.706033e-01 3.724207e-01 7.698313e-01
	endloop
endfacet
facet normal -9.701425e-01 -2.425356e-01 0.000000e+00
	outer loop
		vertex 2.706033e-01 3.724207e-01 7.698313e-01
		vertex 1.657333e-01 6.469738e-01 6.001482e-01
		vertex 1.664565e-01 6.450804e-01 6.013184e-01
	endloop
endfacet
facet normal 0.000000e+00 0.000000e+00 0.000000e+00
	outer loop
		vertex 1.664565e-01 6.450804e-01 6.013184e-01
		vertex 2.706033e-01 3.724207e-01 7.698313e-01
		vertex 2.706033e-01 3.724207e-01 7.698313e-01
	endloop
endfacet
facet normal 0.000000e+00 0.000000e+00 0.000000e+00
	outer loop
		vertex 2.706033e-01 3.724207e-01 7.698313e-01
		vertex 2.706033e-01 3.724207e-01 7.698313e-01
		vertex 1.324589e-01 2.870428e-01 8.225978e-01
	endloop
endfacet
facet normal 0.000000e+00 0.000000e+00 0.000000e+00
	outer loop
		vertex 2.706033e-01 3.724207e-01 7.698313e-01
		vertex 1.657333e-01 6.469738e-01 6.001482e-01
		vertex 1.657333e-01 6.469738e-01 6.001482e-01
	endloop
endfacet
facet normal -7.071068e-01 0.000000e+00 7.071068e-01
	outer loop
		vertex 1.657333e-01 6.469738e-01 6.001482e-01
		vertex 2.706033e-01 3.724207e-01 7.698313e-01
		vertex 2.706033e-01 3.724207e-01 7.698313e-01
	endloop
endfacet
facet normal 0.000000e+00 0.000000e+00 0.000000e+00
	outer loop
		vertex 2.706033e-01 3.724207e-01 7.698313e-01
		vertex 1.657333e-01 6.469738e-01 6.001482e-01
		vertex 1.657333e-01 6.469738e-01 6.001482e-01
	endloop
endfacet
facet normal -7.071068e-01 0.000000e+00 7.071068e-01
	outer loop
		vertex 1.657333e-01 6.469738e-01 6.001482e-01
		vertex 2.706033e-01 3.724207e-01 7.698313e-01
		vertex 2.706033e-01 3.724207e-01 7.698313e-01
	endloop
endfacet
facet normal -3.568221e-01 -0.000000e+00 -9.341723e-01
	outer loop
		vertex 2.706033e-01 3.724207e-01 7.698313e-01
		vertex 2.706033e-01 3.724207e-01 7.698313e-01
		vertex 1.324589e-01 2.870428e-01 8.225978e-01
	endloop
endfacet
facet normal 0.000000e+00 -4.472136e-01 -8.944272e-01
	outer loop
		vertex 2.706033e-01 3.724207e-01 7.698313e-01
		vertex 1.657333e-01 6.469738e-01 6.001482e-01
		vertex 1.657333e-01 6.469738e-01 6.001482e-01
	endloop
endfacet
facet normal -7.071068e-01 0.000000e+00 7.071068e-01
	outer loop
		vertex 1.657333e-01 6.469738e-01 6.001482e-01
		vertex 2.706033e-01 3.724207e-01 7.698313e-01
		vertex 2.706033e-01 3.724207e-01 7.698313e-01
	endloop
endfacet
facet normal 0.000000e+00 -4.472136e-01 -8.944272e-01
	outer loop
		vertex 2.706033e-01 3.724207e-01 7.698313e-01
		vertex 1.657333e-01 6.469738e-01 6.001482e-01
		vertex 1.657333e-01 6.469738e-01 6.001482e-01
	endloop
endfacet
facet normal -7.071068e-01 0.000000e+00 7.071068e-01
	outer loop
		vertex 1.657333e-01 6.469738e-01 6.001482e-01
		vertex 2.706033e-01 3.724207e-01 7.698313e-01
		vertex 2.706033e-01 3.724207e-01 7.698313e-01
	endloop
endfacet
facet normal -3.568221e-01 -0.000000e+00 -9.341723e-01
	outer loop
		vertex 2.706033e-01 3.724207e-01 7.698313e-01
		vertex 2.706033e-01 3.724207e-01 7.698313e-01
		vertex 1.324589e-01 2.870428e-01 8.225978e-01
	endloop
endfacet
facet normal 4.815434e-01 -2.407717e-01 -8.427010e-01
	outer loop
		vertex 2.706033e-01 3.724207e-01 7.698313e-01
		vertex 1.657333e-01 6.469738e-01 6.001482e-01
		vertex 1.657333e-01 6.469738e-01 6.001482e-01
	endloop
endfacet
facet normal 0.000000e+00 0.000000e+00 0.000000e+00
	outer loop
		vertex 1.657333e-01 6.469738e-01 6.001482e-01
		vertex 2.706033e-01 3.724207e-01 7.698313e-01
		vertex 2.706033e-01 3.724207e-01 7.698313e-01
	endloop
endfacet
facet normal 4.815434e-01 -2.407717e-01 -8.427010e-01
	outer loop
		vertex 2.706033e-01 3.724207e-01 7.698313e-01
		vertex 1.657333e-01 6.469738e-01 6.001482e-01
		vertex 1.657333e-01 6.469738e-01 6.001482e-01
	endloop
endfacet
facet normal 0.000000e+00 0.000000e+00 0.000000e+00
	outer loop
		vertex 1.657333e-01 6.469738e-01 6.001482e-01
		vertex 2.706033e-01 3.724207e-01 7.698313e-01
		vertex 2.706033e-01 3.724207e-01 7.698313e-01
	endloop
endfacet
facet normal 0.000000e+00 0.000000e+00 0.000000e+00
	outer loop
		vertex 2.706033e-01 3.724207e-01 7.698313e-01
		vertex 2.706033e-01 3.724207e-01 7.698313e-01
		vertex 1.324589e-01 2.870428e-01 8.225978e-01
	endloop
endfacet
facet normal -7.682213e-01 -5.121475e-01 -3.841106e-01
	outer loop
		vertex 2.706033e-01 3.724207e-01 7.698313e-01
		vertex 1.657333e-01 6.469738e-01 6.001482e-01
		vertex 1.657333e-01 6.469738e-01 6.001482e-01
	endloop
endfacet
facet normal 0.000000e+00 5.144958e-01 8.574929e-01
	outer loop
		vertex 1.657333e-01 6.469738e-01 6.001482e-01
		vertex 2.706033e-01 3.724207e-01 7.698313e-01
		vertex 2.706033e-01 3.724207e-01 7.698313e-01
	endloop
endfacet
facet normal -7.682213e-01 -5.121475e-01 -3.841106e-01
	outer loop
		vertex 2.706033e-01 3.724207e-01 7.698313e-01
		vertex 1.657333e-01 6.469738e-01 6.001482e-01
		vertex 1.657333e-01 6.469738e-01 6.001482e-01
	endloop
endfacet
facet normal 0.000000e+00 5.144958e-01 8.574929e-01
	outer loop
		vertex 1.657333e-01 6.469738e-01 6.001482e-01
		vertex 2.706033e-01 3.724207e-01 7.698313e-01
		vertex 2.706033e-01 3.724207e-01 7.698313e-01
	endloop
endfacet
facet normal 0.000000e+00 5.257311e-01 8.506508e-01
	outer loop
		vertex 2.706033e-01 3.724207e-01 7.698313e-01
		vertex 2.706033e-01 3.724207e-01 7.698313e-01
		vertex 1.324589e-01 2.870428e-01 8.225978e-01
	endloop
endfacet
facet normal 4.815434e-01 -2.407717e-01 -8.427010e-01
	outer loop
		vertex 2.706033e-01 3.724207e-01 7.698313e-01
		vertex 1.657333e-01 6.469738e-01 6.001482e-01
		vertex 1.657333e-01 6.469738e-01 6.001482e-01
	endloop
endfacet
facet normal 0.000000e+00 0.000000e+00 0.000000e+00
	outer loop
		vertex 1.657333e-01 6.469738e-01 6.001482e-01
		vertex 2.706033e-01 3.724207e-01 7.698313e-01
		vertex 2.706033e-01 3.724207e-01 7.698313e-01
	endloop
endfacet
facet normal 4.815434e-01 -2.407717e-01 -8.427010e-01
	outer loop
		vertex 2.706033e-01 3.724207e-01 7.698313e-01
		vertex 1.657333e-01 6.469738e-01 6.001482e-01
		vertex 1.657333e-01 6.469738e-01 6.001482e-01
	endloop
endfacet
facet normal 0.000000e+00 0.000000e+00 0.000000e+00
	outer loop
		vertex 1.657333e-01 6.469738e-01 6.001482e-01
		vertex 2.706033e-01 3.724207e-01 7.698313e-01
		vertex 2.706033e-01 3.724207e-01 7.698313e-01
	endloop
endfacet
facet normal 0.000000e+00 0.000000e+00 0.000000e+00
	outer loop
		vertex 2.706033e-01 3.724207e-01 7.698313e-01
		vertex 2.706033e-01 3.724207e-01 7.698313e-01
		vertex 1.324589e-01 2.870428e-01 8.225978e-01
	endloop
endfacet
facet normal 8.506508e-01 -8.469838e-15 -5.257311e-01
	outer loop
		vertex 2.684895e-01 3.711144e-01 7.664112e-01
		vertex 1.633732e-01 6.407354e-01 5.963294e-01
		vertex 1.657333e-01 6.469738e-01 6.001482e-01
	endloop
endfacet
facet normal -8.506508e-01 5.085487e-15 5.257311e-01
	outer loop
		vertex 1.657333e-01 6.469738e-01 6.001482e-01
		vertex 2.684895e-01 3.711144e-01 7.664112e-01
		vertex 2.706033e-01 3.724207e-01 7.698313e-01
	endloop
endfacet
facet normal -5.257311e-01 8.506508e-01 6.237964e-15
	outer loop
		vertex 2.706033e-01 3.724207e-01 7.698313e-01
		vertex 2.684895e-01 3.711144e-01 7.664112e-01
		vertex 1.324589e-01 2.870428e-01 8.225978e-01
	endloop
endfacet
facet normal -8.506508e-01 0.000000e+00 5.257311e-01
	outer loop
		vertex 2.672160e-01 3.703273e-01 7.643506e-01
		vertex 1.619656e-01 6.370150e-01 5.940520e-01
		vertex 1.597664e-01 6.312019e-01 5.904935e-01
	endloop
endfacet
facet normal 8.506508e-01 5.546582e-15 -5.257311e-01
	outer loop
		vertex 1.597664e-01 6.312019e-01 5.904935e-01
		vertex 2.672160e-01 3.703273e-01 7.643506e-01
		vertex 2.652064e-01 3.690853e-01 7.610990e-01
	endloop
endfacet
facet normal 5.257311e-01 -8.506508e-01 1.598796e-14
	outer loop
		vertex 2.652064e-01 3.690853e-01 7.610990e-01
		vertex 2.672160e-01 3.703273e-01 7.643506e-01
		vertex 1.324589e-01 2.870428e-01 8.225978e-01
	endloop
endfacet
facet normal 8.506508e-01 2.378285e-15 -5.257311e-01
	outer loop
		vertex 2.672160e-01 3.703273e-01 7.643506e-01
		vertex 1.619656e-01 6.370150e-01 5.940520e-01
		vertex 1.633732e-01 6.407354e-01 5.963294e-01
	endloop
endfacet
facet normal -8.506508e-01 1.284194e-14 5.257311e-01
	outer loop
		vertex 1.633732e-01 6.407354e-01 5.963294e-01
		vertex 2.672160e-01 3.703273e-01 7.643506e-01
		vertex 2.684895e-01 3.711144e-01 7.664112e-01
	endloop
endfacet
facet normal -5.257311e-01 8.506508e-01 3.993982e-14
	outer loop
		vertex 2.684895e-01 3.711144e-01 7.664112e-01
		vertex 2.672160e-01 3.703273e-01 7.643506e-01
		vertex 1.324589e-01 2.870428e-01 8.225978e-01
	endloop
endfacet
facet normal 8.506508e-01 2.746428e-15 -5.257311e-01
	outer loop
		vertex 6.225860e-02 2.436566e-01 4.327226e-01
		vertex 2.231089e-02 2.678792e-01 3.680859e-01
		vertex 2.678748e-02 2.797118e-01 3.753291e-01
	endloop
endfacet
facet normal -8.506508e-01 1.133283e-15 5.257311e-01
	outer loop
		vertex 2.678748e-02 2.797118e-01 3.753291e-01
		vertex 6.225860e-02 2.436566e-01 4.327226e-01
		vertex 7.266876e-02 2.500905e-01 4.495666e-01
	endloop
endfacet
facet normal -5.257311e-01 8.506508e-01 -1.058169e-15
	outer loop
		vertex 7.266876e-02 2.500905e-01 4.495666e-01
		vertex 6.225860e-02 2.436566e-01 4.327226e-01
		vertex 1.324589e-01 2.870428e-01 8.225978e-01
	endloop
endfacet
facet normal -8.506508e-01 -4.099623e-15 5.257311e-01
	outer loop
		vertex 6.225860e-02 2.436566e-01 4.327226e-01
		vertex 2.231089e-02 2.678792e-01 3.680859e-01
		vertex 1.459926e-02 2.474958e-01 3.556082e-01
	endloop
endfacet
facet normal 8.506508e-01 6.149540e-15 -5.257311e-01
	outer loop
		vertex 1.459926e-02 2.474958e-01 3.556082e-01
		vertex 6.225860e-02 2.436566e-01 4.327226e-01
		vertex 4.332774e-02 2.319567e-01 4.020918e-01
	endloop
endfacet
facet normal 5.257311e-01 -8.506508e-01 -5.642585e-16
	outer loop
		vertex 4.332774e-02 2.319567e-01 4.020918e-01
		vertex 6.225860e-02 2.436566e-01 4.327226e-01
		vertex 1.324589e-01 2.870428e-01 8.225978e-01
	endloop
endfacet
facet normal -8.506508e-01 -1.038445e-14 5.257311e-01
	outer loop
		vertex 2.652064e-01 3.690853e-01 7.610990e-01
		vertex 1.597664e-01 6.312019e-01 5.904935e-01
		vertex 1.591168e-01 6.294850e-01 5.894425e-01
	endloop
endfacet
facet normal 8.506508e-01 -9.354259e-15 -5.257311e-01
	outer loop
		vertex 1.591168e-01 6.294850e-01 5.894425e-01
		vertex 2.652064e-01 3.690853e-01 7.610990e-01
		vertex 2.646082e-01 3.687156e-01 7.601311e-01
	endloop
endfacet
facet normal 5.257311e-01 -8.506508e-01 -6.542896e-14
	outer loop
		vertex 2.646082e-01 3.687156e-01 7.601311e-01
		vertex 2.652064e-01 3.690853e-01 7.610990e-01
		vertex 1.324589e-01 2.870428e-01 8.225978e-01
	endloop
endfacet
facet normal 8.506508e-01 2.498556e-17 -5.257311e-01
	outer loop
		vertex 1.758619e-01 3.138674e-01 6.165366e-01
		vertex 8.304734e-02 4.284180e-01 4.663595e-01
		vertex 1.591168e-01 6.294850e-01 5.894425e-01
	endloop
endfacet
facet normal -8.506508e-01 0.000000e+00 5.257311e-01
	outer loop
		vertex 1.591168e-01 6.294850e-01 5.894425e-01
		vertex 1.758619e-01 3.138674e-01 6.165366e-01
		vertex 2.646082e-01 3.687156e-01 7.601311e-01
	endloop
endfacet
facet normal -5.257311e-01 8.506508e-01 5.717312e-16
	outer loop
		vertex 2.646082e-01 3.687156e-01 7.601311e-01
		vertex 1.758619e-01 3.138674e-01 6.165366e-01
		vertex 1.324589e-01 2.870428e-01 8.225978e-01
	endloop
endfacet
facet normal -8.506508e-01 -6.492412e-15 5.257311e-01
	outer loop
		vertex 1.758619e-01 3.138674e-01 6.165366e-01
		vertex 8.304734e-02 4.284180e-01 4.663595e-01
		vertex 8.070536e-02 4.222276e-01 4.625701e-01
	endloop
endfacet
facet normal 8.506508e-01 1.409477e-14 -5.257311e-01
	outer loop
		vertex 8.070536e-02 4.222276e-01 4.625701e-01
		vertex 1.758619e-01 3.138674e-01 6.165366e-01
		vertex 1.723784e-01 3.117144e-01 6.109002e-01
	endloop
endfacet
facet normal 5.257311e-01 -8.506508e-01 7.126989e-15
	outer loop
		vertex 1.723784e-01 3.117144e-01 6.109002e-01
		vertex 1.758619e-01 3.138674e-01 6.165366e-01
		vertex 1.324589e-01 2.870428e-01 8.225978e-01
	endloop
endfacet
facet normal -8.506508e-01 9.588121e-17 5.257311e-01
	outer loop
		vertex 1.723784e-01 3.117144e-01 6.109002e-01
		vertex 8.070536e-02 4.222276e-01 4.625701e-01
		vertex 2.678748e-02 2.797118e-01 3.753291e-01
	endloop
endfacet
facet normal 8.506508e-01 -1.577602e-16 -5.257311e-01
	outer loop
		vertex 2.678748e-02 2.797118e-01 3.753291e-01
		vertex 1.723784e-01 3.117144e-01 6.109002e-01
		vertex 7.266876e-02 2.500905e-01 4.495666e-01
	endloop
endfacet
facet normal 5.257311e-01 -8.506508e-01 -4.151290e-16
	outer loop
		vertex 7.266876e-02 2.500905e-01 4.495666e-01
		vertex 1.723784e-01 3.117144e-01 6.109002e-01
		vertex 1.324589e-01 2.870428e-01 8.225978e-01
	endloop
endfacet
facet normal -8.506508e-01 -5.121830e-16 5.257311e-01
	outer loop
		vertex 4.332774e-02 2.319567e-01 4.020918e-01
		vertex 1.459926e-02 2.474958e-01 3.556082e-01
		vertex 1.734723e-17 2.089070e-01 3.319861e-01
	endloop
endfacet
facet normal 8.506508e-01 -1.730770e-15 -5.257311e-01
	outer loop
		vertex 1.734723e-17 2.089070e-01 3.319861e-01
		vertex 4.332774e-02 2.319567e-01 4.020918e-01
		vertex 3.578198e-03 2.073901e-01 3.377757e-01
	endloop
endfacet
facet normal 5.257311e-01 -8.506508e-01 6.718253e-17
	outer loop
		vertex 3.578198e-03 2.073901e-01 3.377757e-01
		vertex 4.332774e-02 2.319567e-01 4.020918e-01
		vertex 1.324589e-01 2.870428e-01 8.225978e-01
	endloop
endfacet
facet normal 0.000000e+00 -5.257311e-01 -8.506508e-01
	outer loop
		vertex 1.073819e-02 2.118153e-01 8.690910e-01
		vertex -2.689683e-01 3.714103e-01 7.704558e-01
		vertex -2.610580e-01 3.974107e-01 7.543867e-01
	endloop
endfacet
facet normal 0.000000e+00 5.257311e-01 8.506508e-01
	outer loop
		vertex -2.610580e-01 3.974107e-01 7.543867e-01
		vertex 1.073819e-02 2.118153e-01 8.690910e-01
		vertex 2.498995e-02 2.206233e-01 8.636473e-01
	endloop
endfacet
facet normal -8.659352e-02 6.205869e-01 7.793417e-01
	outer loop
		vertex 2.498995e-02 2.206233e-01 8.636473e-01
		vertex 1.073819e-02 2.118153e-01 8.690910e-01
		vertex 1.324589e-01 2.870428e-01 8.225978e-01
	endloop
endfacet
facet normal 2.195867e-15 -5.257311e-01 -8.506508e-01
	outer loop
		vertex 1.073819e-02 2.118153e-01 8.690910e-01
		vertex 0.000000e+00 2.051787e-01 8.731926e-01
		vertex -2.689683e-01 3.714103e-01 7.704558e-01
	endloop
endfacet
facet normal 3.002023e-01 -8.031387e-01 -5.146326e-01
	outer loop
		vertex 1.073819e-02 2.118153e-01 8.690910e-01
		vertex 0.000000e+00 2.051787e-01 8.731926e-01
		vertex 1.324589e-01 2.870428e-01 8.225978e-01
	endloop
endfacet
facet normal 0.000000e+00 0.000000e+00 0.000000e+00
	outer loop
		vertex 0.000000e+00 2.051787e-01 8.731926e-01
		vertex -2.689683e-01 3.714103e-01 7.704558e-01
		vertex -2.689683e-01 3.714103e-01 7.704558e-01
	endloop
endfacet
facet normal 0.000000e+00 0.000000e+00 0.000000e+00
	outer loop
		vertex -2.689683e-01 3.714103e-01 7.704558e-01
		vertex 0.000000e+00 2.051787e-01 8.731926e-01
		vertex 0.000000e+00 2.051787e-01 8.731926e-01
	endloop
endfacet
facet normal 0.000000e+00 0.000000e+00 0.000000e+00
	outer loop
		vertex 0.000000e+00 2.051787e-01 8.731926e-01
		vertex -2.689683e-01 3.714103e-01 7.704558e-01
		vertex -2.689683e-01 3.714103e-01 7.704558e-01
	endloop
endfacet
facet normal 0.000000e+00 0.000000e+00 0.000000e+00
	outer loop
		vertex -2.689683e-01 3.714103e-01 7.704558e-01
		vertex 0.000000e+00 2.051787e-01 8.731926e-01
		vertex 0.000000e+00 2.051787e-01 8.731926e-01
	endloop
endfacet
facet normal 0.000000e+00 0.000000e+00 0.000000e+00
	outer loop
		vertex 0.000000e+00 2.051787e-01 8.731926e-01
		vertex 0.000000e+00 2.051787e-01 8.731926e-01
		vertex 1.324589e-01 2.870428e-01 8.225978e-01
	endloop
endfacet
facet normal 5.257311e-01 8.506508e-01 2.198723e-15
	outer loop
		vertex 5.551115e-17 2.051787e-01 8.731926e-01
		vertex 0.000000e+00 2.051787e-01 8.649893e-01
		vertex -2.689683e-01 3.714103e-01 7.704558e-01
	endloop
endfacet
facet normal 5.257311e-01 -8.506508e-01 -9.313940e-15
	outer loop
		vertex 5.551115e-17 2.051787e-01 8.731926e-01
		vertex 0.000000e+00 2.051787e-01 8.649893e-01
		vertex 1.324589e-01 2.870428e-01 8.225978e-01
	endloop
endfacet
facet normal 5.257311e-01 8.506508e-01 0.000000e+00
	outer loop
		vertex 0.000000e+00 2.051787e-01 8.626465e-01
		vertex 0.000000e+00 2.051787e-01 8.602391e-01
		vertex -2.689683e-01 3.714103e-01 7.704558e-01
	endloop
endfacet
facet normal 5.257311e-01 -8.506508e-01 0.000000e+00
	outer loop
		vertex 0.000000e+00 2.051787e-01 8.626465e-01
		vertex 0.000000e+00 2.051787e-01 8.602391e-01
		vertex 1.324589e-01 2.870428e-01 8.225978e-01
	endloop
endfacet
facet normal 5.257311e-01 8.506508e-01 1.007754e-14
	outer loop
		vertex 0.000000e+00 2.051787e-01 8.649893e-01
		vertex 0.000000e+00 2.051787e-01 8.626465e-01
		vertex -2.689683e-01 3.714103e-01 7.704558e-01
	endloop
endfacet
facet normal 5.257311e-01 -8.506508e-01 -1.007754e-14
	outer loop
		vertex 0.000000e+00 2.051787e-01 8.649893e-01
		vertex 0.000000e+00 2.051787e-01 8.626465e-01
		vertex 1.324589e-01 2.870428e-01 8.225978e-01
	endloop
endfacet
facet normal 5.257311e-01 8.506508e-01 -4.915747e-10
	outer loop
		vertex 5.551115e-17 2.051787e-01 8.530194e-01
		vertex 0.000000e+00 2.051787e-01 8.530193e-01
		vertex -2.689683e-01 3.714103e-01 7.704558e-01
	endloop
endfacet
facet normal 5.257311e-01 -8.506508e-01 -4.656261e-09
	outer loop
		vertex 5.551115e-17 2.051787e-01 8.530194e-01
		vertex 0.000000e+00 2.051787e-01 8.530193e-01
		vertex 1.324589e-01 2.870428e-01 8.225978e-01
	endloop
endfacet
facet normal -0.000000e+00 -4.448316e-01 -8.956142e-01
	outer loop
		vertex 5.551115e-17 2.051787e-01 8.530193e-01
		vertex 0.000000e+00 2.051787e-01 8.530193e-01
		vertex -2.689683e-01 3.714103e-01 7.704558e-01
	endloop
endfacet
facet normal -0.000000e+00 -3.483364e-01 -9.373696e-01
	outer loop
		vertex 5.551115e-17 2.051787e-01 8.530193e-01
		vertex 0.000000e+00 2.051787e-01 8.530193e-01
		vertex 1.324589e-01 2.870428e-01 8.225978e-01
	endloop
endfacet
facet normal -5.257311e-01 -8.506508e-01 1.401064e-13
	outer loop
		vertex 5.551115e-17 2.051787e-01 8.599418e-01
		vertex 0.000000e+00 2.051787e-01 8.602391e-01
		vertex -2.689683e-01 3.714103e-01 7.704558e-01
	endloop
endfacet
facet normal -5.257311e-01 8.506508e-01 -3.364644e-13
	outer loop
		vertex 5.551115e-17 2.051787e-01 8.599418e-01
		vertex 0.000000e+00 2.051787e-01 8.602391e-01
		vertex 1.324589e-01 2.870428e-01 8.225978e-01
	endloop
endfacet
facet normal -5.257311e-01 -8.506508e-01 6.016204e-15
	outer loop
		vertex 5.551115e-17 2.051787e-01 8.530194e-01
		vertex 0.000000e+00 2.051787e-01 8.599418e-01
		vertex -2.689683e-01 3.714103e-01 7.704558e-01
	endloop
endfacet
facet normal -5.257311e-01 8.506508e-01 -1.444786e-14
	outer loop
		vertex 5.551115e-17 2.051787e-01 8.530194e-01
		vertex 0.000000e+00 2.051787e-01 8.599418e-01
		vertex 1.324589e-01 2.870428e-01 8.225978e-01
	endloop
endfacet
facet normal 5.257311e-01 8.506508e-01 -3.823213e-15
	outer loop
		vertex 0.000000e+00 2.051787e-01 8.530193e-01
		vertex 0.000000e+00 2.051787e-01 8.406683e-01
		vertex -2.689683e-01 3.714103e-01 7.704558e-01
	endloop
endfacet
facet normal 5.257311e-01 -8.506508e-01 3.823213e-15
	outer loop
		vertex 0.000000e+00 2.051787e-01 8.530193e-01
		vertex 0.000000e+00 2.051787e-01 8.406683e-01
		vertex 1.324589e-01 2.870428e-01 8.225978e-01
	endloop
endfacet
facet normal 5.257311e-01 8.506508e-01 7.487806e-12
	outer loop
		vertex 0.000000e+00 2.051787e-01 8.406683e-01
		vertex 5.551115e-17 2.051787e-01 8.406644e-01
		vertex -2.689683e-01 3.714103e-01 7.704558e-01
	endloop
endfacet
facet normal 5.257311e-01 -8.506508e-01 7.487806e-12
	outer loop
		vertex 0.000000e+00 2.051787e-01 8.406683e-01
		vertex 5.551115e-17 2.051787e-01 8.406644e-01
		vertex 1.324589e-01 2.870428e-01 8.225978e-01
	endloop
endfacet
facet normal 5.257311e-01 8.506508e-01 0.000000e+00
	outer loop
		vertex 0.000000e+00 2.051787e-01 8.406644e-01
		vertex 0.000000e+00 2.051787e-01 8.392042e-01
		vertex -2.689683e-01 3.714103e-01 7.704558e-01
	endloop
endfacet
facet normal 5.257311e-01 -8.506508e-01 0.000000e+00
	outer loop
		vertex 0.000000e+00 2.051787e-01 8.406644e-01
		vertex 0.000000e+00 2.051787e-01 8.392042e-01
		vertex 1.324589e-01 2.870428e-01 8.225978e-01
	endloop
endfacet
facet normal 5.257311e-01 8.506508e-01 2.871044e-14
	outer loop
		vertex 1.110223e-16 2.051787e-01 8.392042e-01
		vertex 0.000000e+00 2.051787e-01 8.371254e-01
		vertex -2.689683e-01 3.714103e-01 7.704558e-01
	endloop
endfacet
facet normal 5.257311e-01 -8.506508e-01 -8.486545e-14
	outer loop
		vertex 1.110223e-16 2.051787e-01 8.392042e-01
		vertex 0.000000e+00 2.051787e-01 8.371254e-01
		vertex 1.324589e-01 2.870428e-01 8.225978e-01
	endloop
endfacet
facet normal 5.257311e-01 8.506508e-01 2.010234e-14
	outer loop
		vertex 1.110223e-16 2.051787e-01 8.371254e-01
		vertex 0.000000e+00 2.051787e-01 8.365054e-01
		vertex -2.689683e-01 3.714103e-01 7.704558e-01
	endloop
endfacet
facet normal 5.257311e-01 -8.506508e-01 -2.083923e-13
	outer loop
		vertex 1.110223e-16 2.051787e-01 8.371254e-01
		vertex 0.000000e+00 2.051787e-01 8.365054e-01
		vertex 1.324589e-01 2.870428e-01 8.225978e-01
	endloop
endfacet
facet normal 5.257311e-01 8.506508e-01 1.095278e-15
	outer loop
		vertex 0.000000e+00 2.051787e-01 8.365054e-01
		vertex 0.000000e+00 2.051787e-01 8.149490e-01
		vertex -2.689683e-01 3.714103e-01 7.704558e-01
	endloop
endfacet
facet normal 5.257311e-01 -8.506508e-01 -1.095278e-15
	outer loop
		vertex 0.000000e+00 2.051787e-01 8.365054e-01
		vertex 0.000000e+00 2.051787e-01 8.149490e-01
		vertex 1.324589e-01 2.870428e-01 8.225978e-01
	endloop
endfacet
facet normal 5.257311e-01 8.506508e-01 -6.918198e-16
	outer loop
		vertex -5.551115e-17 2.051787e-01 8.149490e-01
		vertex 0.000000e+00 2.051787e-01 7.547498e-01
		vertex -2.689683e-01 3.714103e-01 7.704558e-01
	endloop
endfacet
facet normal 5.257311e-01 -8.506508e-01 1.661400e-15
	outer loop
		vertex -5.551115e-17 2.051787e-01 8.149490e-01
		vertex 0.000000e+00 2.051787e-01 7.547498e-01
		vertex 1.324589e-01 2.870428e-01 8.225978e-01
	endloop
endfacet
facet normal -5.257311e-01 -8.506508e-01 -1.266216e-15
	outer loop
		vertex 0.000000e+00 2.051787e-01 7.361035e-01
		vertex 0.000000e+00 2.051787e-01 7.547498e-01
		vertex -2.689683e-01 3.714103e-01 7.704558e-01
	endloop
endfacet
facet normal -5.257311e-01 8.506508e-01 1.266216e-15
	outer loop
		vertex 0.000000e+00 2.051787e-01 7.361035e-01
		vertex 0.000000e+00 2.051787e-01 7.547498e-01
		vertex 1.324589e-01 2.870428e-01 8.225978e-01
	endloop
endfacet
facet normal -2.389024e-01 9.662144e-01 -9.672321e-02
	outer loop
		vertex 1.679232e-17 2.051787e-01 3.319861e-01
		vertex -5.682202e-18 2.051787e-01 3.319861e-01
		vertex 1.324589e-01 2.870428e-01 8.225978e-01
	endloop
endfacet
facet normal 0.000000e+00 -9.863628e-01 1.645858e-01
	outer loop
		vertex -5.682202e-18 2.051787e-01 3.319861e-01
		vertex -5.682202e-18 2.051787e-01 3.319861e-01
		vertex 1.324589e-01 2.870428e-01 8.225978e-01
	endloop
endfacet
facet normal -0.000000e+00 0.000000e+00 1.000000e+00
	outer loop
		vertex 1.679232e-17 2.051787e-01 3.319861e-01
		vertex 1.679232e-17 2.051787e-01 3.319861e-01
		vertex 1.734723e-17 2.089070e-01 3.319861e-01
	endloop
endfacet
facet normal 8.506508e-01 -1.266089e-16 -5.257311e-01
	outer loop
		vertex 1.734723e-17 2.089070e-01 3.319861e-01
		vertex 3.578198e-03 2.073901e-01 3.377757e-01
		vertex 1.679232e-17 2.051787e-01 3.319861e-01
	endloop
endfacet
facet normal 5.257311e-01 -8.506508e-01 2.798694e-16
	outer loop
		vertex 1.679232e-17 2.051787e-01 3.319861e-01
		vertex 3.578198e-03 2.073901e-01 3.377757e-01
		vertex 1.324589e-01 2.870428e-01 8.225978e-01
	endloop
endfacet
facet normal 0.000000e+00 9.350573e-01 -3.544966e-01
	outer loop
		vertex 2.775558e-17 2.051787e-01 3.319861e-01
		vertex 1.679232e-17 2.051787e-01 3.319861e-01
		vertex -2.689683e-01 3.714103e-01 7.704558e-01
	endloop
endfacet
facet normal 5.257311e-01 8.506508e-01 5.430413e-17
	outer loop
		vertex -2.689683e-01 3.714103e-01 7.704558e-01
		vertex 2.775558e-17 2.051787e-01 7.361035e-01
		vertex 2.775558e-17 2.051787e-01 3.319861e-01
	endloop
endfacet
facet normal -5.257311e-01 8.506508e-01 5.842436e-17
	outer loop
		vertex 2.775558e-17 2.051787e-01 3.319861e-01
		vertex 2.775558e-17 2.051787e-01 7.361035e-01
		vertex 1.324589e-01 2.870428e-01 8.225978e-01
	endloop
endfacet
facet normal 0.000000e+00 9.350573e-01 -3.544966e-01
	outer loop
		vertex 2.775558e-17 2.051787e-01 3.319861e-01
		vertex 1.679232e-17 2.051787e-01 3.319861e-01
		vertex -2.689683e-01 3.714103e-01 7.704558e-01
	endloop
endfacet
facet normal 1.000000e+00 0.000000e+00 0.000000e+00
	outer loop
		vertex -2.689683e-01 3.714103e-01 7.704558e-01
		vertex -5.551115e-17 2.051787e-01 3.319861e-01
		vertex 2.775558e-17 2.051787e-01 3.319861e-01
	endloop
endfacet
facet normal 7.983784e-02 9.794912e-01 -1.849944e-01
	outer loop
		vertex 2.775558e-17 2.051787e-01 3.319861e-01
		vertex -5.551115e-17 2.051787e-01 3.319861e-01
		vertex 1.324589e-01 2.870428e-01 8.225978e-01
	endloop
endfacet
facet normal 7.879349e-01 -2.308363e-01 5.708531e-01
	outer loop
		vertex -5.551115e-17 2.051787e-01 3.319861e-01
		vertex 1.679232e-17 2.051787e-01 3.319861e-01
		vertex -2.689683e-01 3.714103e-01 7.704558e-01
	endloop
endfacet
facet normal -5.257311e-01 -8.506508e-01 -5.430413e-17
	outer loop
		vertex -2.689683e-01 3.714103e-01 7.704558e-01
		vertex -5.551115e-17 2.051787e-01 3.319861e-01
		vertex 2.775558e-17 2.051787e-01 7.361035e-01
	endloop
endfacet
facet normal 5.257311e-01 -8.506508e-01 -2.251735e-16
	outer loop
		vertex 2.775558e-17 2.051787e-01 7.361035e-01
		vertex -5.551115e-17 2.051787e-01 3.319861e-01
		vertex 1.324589e-01 2.870428e-01 8.225978e-01
	endloop
endfacet
endsolid MIKE666
